<svg xmlns="http://www.w3.org/2000/svg" xmlns:xlink="http://www.w3.org/1999/xlink" viewBox="0 0 3489.86 1853.9"><defs><style>.cls-1,.cls-29{fill:none;}.cls-2{fill:#9baa93;}.cls-3{fill:#3c6868;}.cls-4{fill:#1b4b4c;}.cls-5{fill:#c7e5e9;}.cls-6{fill:#cfe0e6;}.cls-7{fill:#fff8e8;}.cls-8{fill:#fcecc5;}.cls-9{fill:#eda2a1;}.cls-10{fill:#c3e0e2;}.cls-11{fill:#74739a;}.cls-12{fill:#605f81;}.cls-13{fill:#9090bc;}.cls-14{fill:#fff4dc;}.cls-15{fill:#474667;}.cls-16{fill:#6e969f;}.cls-17{fill:#fbe5aa;}.cls-18{fill:#4c4b6d;}.cls-19{fill:#50787d;}.cls-20{fill:#95bdc8;}.cls-21{fill:#dd8d8e;}.cls-22{fill:#bbdadd;}.cls-23{fill:#434264;}.cls-24{fill:#dca379;}.cls-25{fill:#a27252;}.cls-26{fill:#7b4f38;}.cls-27{fill:#8e6045;}.cls-28{fill:#c4906c;}.cls-29{stroke:#8e6045;stroke-miterlimit:10;stroke-width:2.61px;}.cls-30{fill:#c98967;}.cls-31{fill:#b26845;}.cls-32{fill:#bf754c;}.cls-33,.cls-38,.cls-40{fill:#fff;}.cls-33{opacity:0.4;}.cls-33,.cls-38,.cls-40,.cls-42,.cls-56{isolation:isolate;}.cls-34{fill:#fff2db;}.cls-35{fill:#f9e3a8;}.cls-36,.cls-42{fill:#93bcc7;}.cls-37{fill:#c4e4ea;}.cls-38{opacity:0.33;}.cls-39{fill:#bd744b;}.cls-40{opacity:0.15;}.cls-41{fill:#e2a07a;}.cls-42{opacity:0.37;}.cls-43{fill:#f3985e;}.cls-44{fill:#e97625;}.cls-45{fill:#99a892;}.cls-46{fill:#3e6a69;}.cls-47{fill:#c38263;}.cls-48{fill:#cf641e;}.cls-49{fill:#e5884b;}.cls-50{fill:#d5ecf4;}.cls-51{fill:#915437;}.cls-52{fill:#c62;}.cls-53{fill:#f7bb90;}.cls-54{fill:#a6cdd1;}.cls-55{fill:#abdae2;}.cls-56{fill:#1f1e36;opacity:0.5;}.cls-57{fill:#fae4aa;}.cls-58{fill:#eea3a2;}.cls-59{clip-path:url(#clip-path);}.cls-60{clip-path:url(#clip-path-10);}.cls-61{clip-path:url(#clip-path-11);}.cls-62{clip-path:url(#clip-path-13);}.cls-63{clip-path:url(#clip-path-18);}.cls-64{clip-path:url(#clip-path-20);}.cls-65{clip-path:url(#clip-path-23);}.cls-66{clip-path:url(#clip-path-24);}.cls-67{clip-path:url(#clip-path-26);}.cls-68{clip-path:url(#clip-path-35);}.cls-69{clip-path:url(#clip-path-36);}.cls-70{clip-path:url(#clip-path-38);}.cls-71{clip-path:url(#clip-path-44);}.cls-72{clip-path:url(#clip-path-45);}</style><clipPath id="clip-path"><path class="cls-1" d="M1618.73,945.3h-24.9v.1h-150.9a22,22,0,0,0-21.8,25.1l4.3,30.8v78.3a4.48,4.48,0,0,0,4.5,4.5h3.1a4.48,4.48,0,0,0,4.5-4.5v-35.4a21.89,21.89,0,0,1,21.9-21.9h80.4v57.9a3.9,3.9,0,0,0,3.9,3.9h4.4a3.9,3.9,0,0,0,3.9-3.9v-40.1a22.18,22.18,0,0,1,13.9-20.6,38.52,38.52,0,0,0,19.5-17.6l10.4-17.4a22.87,22.87,0,0,1,19.7-11.1h3.2V945.3Z"/></clipPath><clipPath id="clip-path-10"><path class="cls-1" d="M1625.23,925l-26.3,4.7a5.4,5.4,0,0,0-4.3,6.6l8.7,34.8a8.75,8.75,0,0,0,4.2,5.5,8.07,8.07,0,0,0,5.7,1c-.3-1.9,2.8-4.1,6.9-4.8s7.7.2,8.1,2.1a8.79,8.79,0,0,0,5-2.9,8.89,8.89,0,0,0,2.1-6.7l-3.8-35.6A5.54,5.54,0,0,0,1625.23,925Z"/></clipPath><clipPath id="clip-path-11"><path class="cls-1" d="M1632.93,972.4a5,5,0,0,1-6.1.9,11,11,0,0,0-6.7-.5,11.58,11.58,0,0,0-6.1,2.8,5.25,5.25,0,0,1-5.9,1.3l-.6-.3c1.3,4.2,7.4,6.6,14.3,5.4s11.8-5.6,11.5-9.9A1.4,1.4,0,0,0,1632.93,972.4Z"/></clipPath><clipPath id="clip-path-13"><path class="cls-1" d="M1577,1079.2h16.5v.1h99.9a14.53,14.53,0,0,1,14.4,16.6l-2.9,20.4v51.9a3,3,0,0,1-3,3h-2.1a3,3,0,0,1-3-3v-23.4a14.51,14.51,0,0,0-14.5-14.5h-53.2v38.3a2.58,2.58,0,0,1-2.6,2.6h-2.9a2.58,2.58,0,0,1-2.6-2.6v-26.5a14.94,14.94,0,0,0-9.2-13.7,25.41,25.41,0,0,1-12.9-11.7l-6.9-11.5a15.11,15.11,0,0,0-13-7.4h-2.1v-18.6Z"/></clipPath><clipPath id="clip-path-18"><path class="cls-1" d="M1572.43,1099.5a3.35,3.35,0,0,0,4,.6,6.88,6.88,0,0,1,4.4-.3,6.54,6.54,0,0,1,4,1.9,3.42,3.42,0,0,0,3.9.9c.1-.1.3-.1.4-.2-.8,2.8-4.9,4.4-9.4,3.6s-7.8-3.7-7.6-6.6C1572.33,1099.3,1572.33,1099.4,1572.43,1099.5Z"/></clipPath><clipPath id="clip-path-20"><path class="cls-1" d="M1467.13,1207.7h-147.3a55.19,55.19,0,0,0-48.1,28.1l-17.6,31.1,35.6,20.1,8.8-15.6a4.69,4.69,0,0,1,8.1-.1h0a43,43,0,0,0,22,19.8,25,25,0,0,1,15.7,23.2v45.1a4.27,4.27,0,0,0,4.3,4.3h5a4.27,4.27,0,0,0,4.3-4.3v-65.1h90.4a24.58,24.58,0,0,1,24.6,24.6v39.8a5.12,5.12,0,0,0,5.1,5.1h3.5a5.12,5.12,0,0,0,5.1-5.1v-88l4.9-34.7A24.73,24.73,0,0,0,1467.13,1207.7Z"/></clipPath><clipPath id="clip-path-23"><path class="cls-1" d="M1260.53,1262.1l29.5,5.7a6.1,6.1,0,0,1,4.7,7.5l-10.3,38.9a9.6,9.6,0,0,1-4.8,6.1,10.28,10.28,0,0,1-6.5,1.1c.3-2.2-3.1-4.6-7.7-5.5s-8.7.1-9.2,2.2a10.29,10.29,0,0,1-5.6-3.3,9.51,9.51,0,0,1-2.2-7.5l4.9-40A6,6,0,0,1,1260.53,1262.1Z"/></clipPath><clipPath id="clip-path-24"><path class="cls-1" d="M1251,1315.2a5.92,5.92,0,0,0,6.9,1.2,12.8,12.8,0,0,1,7.5-.5,13.1,13.1,0,0,1,6.8,3.2,5.75,5.75,0,0,0,6.6,1.6,2.52,2.52,0,0,0,.7-.4c-1.5,4.7-8.5,7.3-16.1,5.8s-13.1-6.4-12.8-11.3Z"/></clipPath><clipPath id="clip-path-26"><path class="cls-1" d="M1786.23,1389.4h-29.5v.1h-178.9a26.08,26.08,0,0,0-25.8,29.7l5.1,36.6v92.8a5.27,5.27,0,0,0,5.3,5.3h3.7a5.27,5.27,0,0,0,5.3-5.3v-41.9a25.91,25.91,0,0,1,25.9-25.9h95.3v68.6a4.59,4.59,0,0,0,4.6,4.6h5.2a4.59,4.59,0,0,0,4.6-4.6v-47.5a26.42,26.42,0,0,1,16.5-24.5,45.55,45.55,0,0,0,23.2-20.9l12.3-20.6a27.06,27.06,0,0,1,23.3-13.2h3.7v-33.3Z"/></clipPath><clipPath id="clip-path-35"><path class="cls-1" d="M1806.43,1382.2l-30.4-9a6.38,6.38,0,0,0-8,4.7l-9.2,41.5a10.81,10.81,0,0,0,1.5,8.1,10.35,10.35,0,0,0,5.5,4.1c.7-2.2,5.1-2.8,9.9-1.4s8.1,4.3,7.5,6.6a9.91,9.91,0,0,0,6.8-.4,10.23,10.23,0,0,0,5.7-6l14.8-39.8A6.4,6.4,0,0,0,1806.43,1382.2Z"/></clipPath><clipPath id="clip-path-36"><path class="cls-1" d="M1789.43,1436.5a6.27,6.27,0,0,1-7-2.2,13.41,13.41,0,0,0-6.8-4.1c-3.1-.9-6.1-1-8-.3a6,6,0,0,1-6.9-1.8c-.2-.2-.3-.5-.5-.7-.9,5.1,4.4,10.9,12.3,13.3s15.4.3,17.5-4.4A1.42,1.42,0,0,1,1789.43,1436.5Z"/></clipPath><clipPath id="clip-path-38"><path class="cls-1" d="M1339.13,1370.9h-17.2v.1h-104.1a15.18,15.18,0,0,0-15,17.3l3,21.3v54.1a3.12,3.12,0,0,0,3.1,3.1h2.2a3.12,3.12,0,0,0,3.1-3.1v-24.4a15.15,15.15,0,0,1,15.1-15.1h55.5v40a2.69,2.69,0,0,0,2.7,2.7h3.1a2.69,2.69,0,0,0,2.7-2.7v-27.7a15.22,15.22,0,0,1,9.6-14.2,26.36,26.36,0,0,0,13.5-12.2l7.2-12a15.82,15.82,0,0,1,13.6-7.7h2.2v-19.5Z"/></clipPath><clipPath id="clip-path-44"><path class="cls-1" d="M1350.93,1366.7l-17.7-5.2a3.77,3.77,0,0,0-4.7,2.8l-5.4,24.1a5.9,5.9,0,0,0,.9,4.7,6,6,0,0,0,3.2,2.4c.4-1.3,3-1.6,5.8-.8s4.7,2.5,4.4,3.8a6,6,0,0,0,4-.2,5.73,5.73,0,0,0,3.3-3.5l8.6-23.2A3.68,3.68,0,0,0,1350.93,1366.7Z"/></clipPath><clipPath id="clip-path-45"><path class="cls-1" d="M1341,1398.4a3.65,3.65,0,0,1-4.1-1.3,8,8,0,0,0-4-2.4,8.19,8.19,0,0,0-4.6-.2,3.53,3.53,0,0,1-4-1c-.1-.1-.2-.3-.3-.4-.5,3,2.6,6.4,7.1,7.7s9,.2,10.2-2.6C1341.23,1398.3,1341.13,1398.3,1341,1398.4Z"/></clipPath></defs><title>Asset 2</title><g id="Layer_2" data-name="Layer 2"><g id="Layer_1-2" data-name="Layer 1"><g id="รูปล่างสุด"><path class="cls-2" d="M28.72,1723.3c28.4,52.9,84,96.2,148.53,127.4q3.36,1.62,6.74,3.2H3457.52a34.16,34.16,0,0,1,9.72-3.7c5.44-1.2,11.69-1.2,16.17-3.8,6.25-3.5,6.66-10.2,6.39-16-2.58-55-82.89-190.7-112.11-241.4-67.94-117.9-163.07-32.6-284.28-39.9-26.23-1.5-59.11-10.4-76.1-26-18.07-16.5-19.57-41.3-36.55-59.6-57.07-61.3-197.72-75.5-289.71-80.1-114.55-5.8-231.15,6.6-339.72,34-45.66,11.5-24.05,12.9-62.92-8.2-32.34-17.6-38.59-51.9-66.72-73.1-37.37-28.1-174.62-12.8-228-11.6s-118.77-8.4-135.75-45.7c-15.9-34.9,16-68.2,12.23-102.9-3.94-36.4-54.63-53.2-76.23-83.8-11.28-15.8-9.1-35.9-23.24-50.4-9.38-9.7-24.87-15.3-40.22-18.8-33.16-7.6-65-4-98.38-6.7-27.45-2.2-47.7-10.2-73.38-18.8-56.53-18.9-114.55-35.9-175.84-44.1-71.61-9.6-145.26-7-218-10.2-206.14-9-419.76-63.7-613.26-10.3-59.93,16.6-114.69,42.9-176.25,55.7-70,14.5-147.3,7-213.48,17.6-36.55,5.9-109.12-4.5-134,20-9.24,9.1-10.46,21.1-11.28,32.4Q-2.13,1312.6.32,1567.2C.86,1620,2.36,1674.2,28.72,1723.3Z"/><ellipse class="cls-3" cx="1567.23" cy="1553.5" rx="271.8" ry="80"/><ellipse class="cls-3" cx="2038.43" cy="1578.6" rx="258.2" ry="76"/><ellipse class="cls-3" cx="2482.73" cy="1611.9" rx="349.9" ry="103"/><ellipse class="cls-3" cx="2390.33" cy="1455.4" rx="268.7" ry="79.1"/><ellipse class="cls-3" cx="2849.43" cy="1542.2" rx="198.1" ry="58.3"/><ellipse class="cls-3" cx="1763.83" cy="1619.1" rx="189.5" ry="55.8"/><ellipse class="cls-3" cx="1460.83" cy="1479.7" rx="128.3" ry="37.8"/><ellipse class="cls-3" cx="1970.53" cy="1335.9" rx="128.3" ry="37.8"/><ellipse class="cls-3" cx="1364.03" cy="1239.2" rx="163.5" ry="48.1"/><ellipse class="cls-3" cx="2026.93" cy="1720.6" rx="83.8" ry="24.7"/><ellipse class="cls-3" cx="1096.23" cy="1294.5" rx="83.8" ry="24.7"/><ellipse class="cls-3" cx="904.53" cy="1158.5" rx="125" ry="36.8"/><ellipse class="cls-3" cx="1693.13" cy="1454.5" rx="224" ry="65.9"/><ellipse class="cls-3" cx="1611.53" cy="1166" rx="222.3" ry="60.3"/><ellipse class="cls-3" cx="1296.03" cy="1040.6" rx="478.1" ry="94.4"/><ellipse class="cls-3" cx="1617.23" cy="1341.8" rx="353.3" ry="85.3"/><ellipse class="cls-3" cx="1191.53" cy="1431.4" rx="353.3" ry="85.3"/><ellipse class="cls-4" cx="1444.53" cy="1080.3" rx="29" ry="7.5"/><ellipse class="cls-4" cx="1705.53" cy="1171.3" rx="29" ry="7.5"/><ellipse class="cls-4" cx="1440.53" cy="1363.3" rx="29" ry="7.5"/><ellipse class="cls-4" cx="1581.53" cy="1554.3" rx="36" ry="7.5"/><ellipse class="cls-4" cx="2025.53" cy="1572.3" rx="36" ry="7.5"/><ellipse class="cls-4" cx="1229.53" cy="1466.3" rx="29" ry="7.5"/><ellipse class="cls-4" cx="1572.03" cy="1080.3" rx="19.5" ry="5"/><ellipse class="cls-4" cx="1619.03" cy="1172.3" rx="19.5" ry="5"/><ellipse class="cls-4" cx="1364.03" cy="1363.3" rx="19.5" ry="5"/><ellipse class="cls-4" cx="1515.03" cy="1341.3" rx="36.7" ry="9.5"/><ellipse class="cls-4" cx="1752.03" cy="1558.3" rx="36.7" ry="9.5"/><ellipse class="cls-4" cx="1693.03" cy="1553.3" rx="19.5" ry="5"/><ellipse class="cls-4" cx="1332.03" cy="1478.3" rx="19.5" ry="5"/><ellipse class="cls-4" cx="1526.03" cy="1536.3" rx="19.5" ry="5"/><ellipse class="cls-4" cx="1780.03" cy="1578.3" rx="19.5" ry="5"/><ellipse class="cls-4" cx="1952.03" cy="1587.3" rx="19.5" ry="5"/><ellipse class="cls-4" cx="1587.03" cy="1137.3" rx="9.5" ry="2.5"/><ellipse class="cls-4" cx="1479.03" cy="1378.3" rx="9.5" ry="2.5"/><ellipse class="cls-4" cx="1710.03" cy="1573.3" rx="9.5" ry="2.5"/><ellipse class="cls-4" cx="1309.03" cy="1466.3" rx="9.5" ry="2.5"/><ellipse class="cls-4" cx="1538.03" cy="1085.3" rx="13.5" ry="3.5"/><ellipse class="cls-4" cx="1643.03" cy="1182.3" rx="13.5" ry="3.5"/><ellipse class="cls-4" cx="1402.03" cy="1094.3" rx="13.5" ry="3.5"/><ellipse class="cls-4" cx="1337.03" cy="1073.3" rx="13.5" ry="3.5"/><ellipse class="cls-4" cx="1376.03" cy="1018.3" rx="85.5" ry="22.1"/><ellipse class="cls-4" cx="1271.03" cy="1064.3" rx="38.5" ry="9.9"/><ellipse class="cls-4" cx="1024.03" cy="1064.3" rx="28.5" ry="7.4"/><ellipse class="cls-4" cx="954.03" cy="1176.3" rx="28.5" ry="7.4"/><ellipse class="cls-4" cx="880.03" cy="1169.3" rx="13.5" ry="3.5"/><ellipse class="cls-4" cx="868.53" cy="1149.3" rx="36" ry="9.3"/><ellipse class="cls-4" cx="1147.03" cy="1014.3" rx="161.5" ry="41.7"/><ellipse class="cls-4" cx="1553.03" cy="1096.3" rx="6.5" ry="1.7"/><ellipse class="cls-4" cx="2353.53" cy="1600.9" rx="299" ry="39"/><g id="_Group_" data-name="&lt;Group&gt;"><path class="cls-5" d="M1020.53,516.1c2.6-2,5.2-4,8-6-8.5-2.4-13.9-5.1-15.5-8l-.5.2L958.63,548s-35.8,28.7-32.3,61.7c.6,5.4,2.8,19.8,5.9,40.2,3,4.2,10.8,8.2,22.7,11.8l-9.5-63.7v-.1a3.4,3.4,0,0,1-.2-1.4C945.23,596.4,941,576.1,1020.53,516.1Z"/><path class="cls-6" d="M930.83,645.9s-20.5,33.9,4.8,59.8a25.09,25.09,0,0,0,6.3,4.4,114,114,0,0,0,21.6,8.3c19,5.8,46.7,11.3,81,14.9-5.9-4.8-9.3-9.9-10.8-14.9a498.16,498.16,0,0,1-81.4-17.4c-16.3-9.3-18.2-24.4-10.3-29.4,4.1-2.6,34.9,11.6,99.2,18.4a85.4,85.4,0,0,1,13.2-13.9c-42.4-2.8-77.5-8-99.3-14.6-11.8-3.6-19.7-7.5-22.7-11.8A5.22,5.22,0,0,1,930.83,645.9Z"/><path class="cls-7" d="M941.83,671.8c-7.9,5-6,20.1,10.3,29.4a480.14,480.14,0,0,0,81.4,17.4c-3.2-10.2,1.3-20.2,7.5-28.4C976.83,683.3,946,669.1,941.83,671.8Z"/><path class="cls-6" d="M1020.53,516.1c-79.6,60.1-75.3,80.4-75.3,80.4,0-9.4,29.7-17.8,75.3-22.9Z"/><path class="cls-8" d="M945.23,596.4l.2,1.4v.1c3.7,11.2,49.9,20.8,114.3,24.8V612.4c0-2.1.1-4.2.2-6.3-14.6.3-31.3-1.5-39.4-9.8V573.4C974.93,578.7,945.23,587,945.23,596.4Z"/><path class="cls-7" d="M945.53,597.9l9.5,63.7c21.8,6.6,56.9,11.8,99.3,14.6a63.52,63.52,0,0,1,5.4-4.3V622.7C995.43,618.7,949.23,609.2,945.53,597.9Z"/><path class="cls-5" d="M963.43,718.5c-9.3-2.8-16.6-5.6-21.6-8.3,15.8,97.7,38.8,236.7,46.9,285.4l15.6-2.3Z"/><path class="cls-7" d="M963.43,718.5l40.9,274.8.2,1.1c0,9.6,45.7,17.6,105.3,19l-39.9-277.7c-8.8-.6-17.3-1.4-25.4-2.3C1010.13,729.8,982.43,724.3,963.43,718.5Z"/><path class="cls-5" d="M972.33,360.4s-27,23.1,0,55.3a9.43,9.43,0,0,0,1,1c3,2.8,9.2,5.7,18.2,8.7-1.5-1.8-35.7-41.5.1-52.6v-.1C979.33,369.1,972.33,364.9,972.33,360.4Z"/><path class="cls-9" d="M1013,502.2c1.5,2.9,7,5.6,15.5,8l-36.9-84.6-.1-.1c-9-2.9-15.2-5.9-18.2-8.7l-1,.9,40.3,84.6Z"/><path class="cls-10" d="M1017.73,342.2c-28,4.7-45.4,11.1-45.4,18.2,0,4.5,7,8.7,19.3,12.4,16.2,4.9,41.5,8.8,72.1,11.1-24-5-36.2-13.5-41.8-18.9-2.8-1.6-4.2-3.3-4.2-5V342.2Z"/><path class="cls-5" d="M991.93,1012c1.8,11.4,54,20.5,120.8,21.8l-2.9-20.4c-59.6-1.4-105.3-9.3-105.3-19l-.2-1.1-15.6,2.3c1.4,8.4,2.4,14.2,2.8,16.5Z"/><path class="cls-6" d="M991.63,372.9c-35.7,11.1-1.6,50.8-.1,52.6l.1.1c20.1,6.5,54,12.6,97.1,15-27.9-27.7,16.9-52.4,16.9-52.4-16.9-.2-30.7-1.8-41.9-4.2-30.6-2.4-55.9-6.3-72.1-11.1Z"/><path class="cls-9" d="M991.63,425.5l36.9,84.6c13,3.7,33.4,6.5,57.7,8.1,13.1.9,27.5,1.3,42.4,1.3l-25.9-78.4-12.9.5a11.4,11.4,0,0,1-1.1-1.1C1045.63,438.1,1011.73,432,991.63,425.5Z"/><path class="cls-11" d="M1017.73,342.2V360a24.37,24.37,0,0,0,4.2,5c4.5,2.6,12.2,4.9,22.5,6.9V18.6c-15.3-.8-26.8-4.6-26.8-9.2V342.2Z"/><path class="cls-12" d="M1020.53,573.6v22.9c8.1,8.3,24.8,10,39.4,9.8a83.9,83.9,0,0,1,11.4-36.7C1052.93,570.4,1035.83,571.8,1020.53,573.6Z"/><path class="cls-12" d="M1020.53,516.1v57.5c15.3-1.8,32.3-3.2,50.8-4.1a101.34,101.34,0,0,1,14.9-19.9V518.3c-24.3-1.6-44.7-4.5-57.7-8.1C1025.83,512.1,1023.13,514.1,1020.53,516.1Z"/><path class="cls-13" d="M1050.53,0c-18.1,0-32.8,4.2-32.8,9.4,0,4.6,11.5,8.4,26.8,9.2,2,.1,4,.2,6,.2,18.1,0,32.8-4.2,32.8-9.4S1068.63,0,1050.53,0Zm-17.3,9.4c0-2.8,7.7-5,17.3-5s17.3,2.2,17.3,5-7.7,5-17.3,5S1033.23,12.2,1033.23,9.4Z"/><path class="cls-14" d="M1041.13,690.1c-6.1,8.2-10.6,18.3-7.5,28.4,125.7,16.7,246.7-8.9,261.3-11.7,17.7-3.4,21.5-8.1,24.8-22.9s-14.9-12-14.9-12C1185.73,696.3,1099.63,696.2,1041.13,690.1Z"/><path class="cls-15" d="M1050.53,4.4c-9.6,0-17.3,2.2-17.3,5s7.7,5,17.3,5,17.3-2.2,17.3-5S1060.13,4.4,1050.53,4.4Z"/><path class="cls-6" d="M1324.73,650.4c-3.3,4-10.9,7.8-22.1,11.2-33.6,10.2-98.8,17.1-173.9,17.1-26.3,0-51.4-.9-74.4-2.4a85.42,85.42,0,0,0-13.2,13.9c58.5,6.1,144.7,6.2,263.7-18.2,0,0,18.3-2.9,14.9,12s-7.1,19.6-24.8,22.9c-14.6,2.8-135.6,28.4-261.3,11.7,1.5,5,4.9,10,10.8,14.9l25.4,2.2v.1c18.2,1.3,37.9,2,58.8,2,74,0,132.3-9.3,165.2-19.2a123.55,123.55,0,0,0,21.2-8.1,31.82,31.82,0,0,0,6.7-4.6c25.2-25.9,4.7-59.8,4.7-59.8A7,7,0,0,1,1324.73,650.4Z"/><path class="cls-16" d="M1044.43,372c-10.3-2-18.1-4.3-22.5-6.9,5.6,5.3,17.8,13.8,41.8,18.9,19.8,1.5,41.8,2.3,64.9,2.3,6.7,0,13.3-.1,19.8-.2a.37.37,0,0,1,.3-.1h.6c35.8-.8,67.9-3.6,91.8-7.7l-57-2.5c-16.3,1.5-35.3,2.5-55.6,2.5-16.1,0-31.4-.6-45.3-1.6A361.93,361.93,0,0,1,1044.43,372Z"/><path class="cls-12" d="M1044.43,18.8V371.9a353.26,353.26,0,0,0,38.8,4.8V9.3c0,5.2-14.7,9.4-32.8,9.4-2.1,0-4.1-.1-6-.2Z"/><path class="cls-14" d="M1059.73,671.9a63.52,63.52,0,0,0-5.4,4.3c22.9,1.5,48.1,2.4,74.4,2.4,75.1,0,140.3-6.9,173.9-17.1l-.1-.3,9.4-63.3c-4.9,15-85,26.9-183.2,26.9-24.4,0-47.7-.7-68.9-2.1C1059.73,664.5,1059.73,671.1,1059.73,671.9Z"/><path class="cls-17" d="M1059.73,612.5v10.3c21.3,1.3,44.6,2.1,68.9,2.1,98.2,0,178.3-11.9,183.2-26.9v-.1l.2-1.4c0-15.7-82.1-28.4-183.4-28.4-14.6,0-28.8.3-42.4.8v35a178.83,178.83,0,0,1-26.3,2.4C1059.83,608.3,1059.73,610.4,1059.73,612.5Z"/><path class="cls-14" d="M1069.93,735.7l39.9,277.7c6.1.2,12.4.2,18.9.2,68.6,0,124.2-8.6,124.2-19.2l18.3-123,.5-.1c-1.3-13.8.5-21.6.5-21.6,0-9.1,2.3-16.8,5.6-20l-.3-.4L1294,718.4c-32.9,9.9-91.3,19.2-165.2,19.2C1107.73,737.7,1088,737,1069.93,735.7Z"/><path class="cls-18" d="M1071.33,569.5a84.32,84.32,0,0,0-11.4,36.7,178.91,178.91,0,0,0,26.3-2.4v-35C1081.23,569,1076.23,569.3,1071.33,569.5Z"/><path class="cls-18" d="M1071.33,569.5c4.9-.2,9.9-.5,14.9-.6V549.6A101.35,101.35,0,0,0,1071.33,569.5Z"/><path class="cls-19" d="M1083.33,343.3v33.4c13.8,1,29.1,1.6,45.3,1.6,20.3,0,39.3-.9,55.6-2.5,33-3.2,55.2-9.1,55.2-15.8,0-10.1-49.6-18.4-110.9-18.4C1110.63,341.7,1098.23,342.1,1083.33,343.3Z"/><path class="cls-10" d="M1083.33,342v1.3c15-1.2,27.4-1.6,45.3-1.6,61.3,0,110.9,8.3,110.9,18.4,0,6.8-22.2,12.7-55.2,15.8l57,2.5h.1c27.1-4.6,43.8-11,43.8-17.9,0-14.3-70-25.9-156.4-25.9-17.4,0-29.7.2-45.4,1.1V342Z"/><path class="cls-20" d="M1086.23,549.6v19.3c13.6-.5,27.8-.8,42.4-.8,101.3,0,183.4,12.7,183.4,28.4a6.75,6.75,0,0,1-.2,1.4v.1l-9.4,63.3.1.3c11.2-3.4,18.9-7.2,22.1-11.2,3.3-21.6,5.7-37.1,6.3-42.7a46.46,46.46,0,0,0-.2-11.2.1.1,0,0,0-.1-.1c-2.8-2.6-91.8-86.1-117.8-82.8-21.2,3.7-51,6-84.2,6A138.12,138.12,0,0,0,1086.23,549.6Z"/><path class="cls-6" d="M1086.23,518.3v31.3a138.08,138.08,0,0,1,42.4-30C1113.73,519.6,1099.33,519.1,1086.23,518.3Z"/><path class="cls-20" d="M1105.63,388.1s-44.7,24.7-16.9,52.4c12.6.7,25.9,1.1,39.9,1.1,41,0,76.2-3.4,102.9-8.1,42.4-45.8-73.6-47.5-82.2-47.5h-.6a.37.37,0,0,0-.3.1A374.11,374.11,0,0,1,1105.63,388.1Z"/><path class="cls-21" d="M1231.53,433.6c-26.7,4.7-61.9,8.1-102.9,8.1-14,0-27.4-.4-39.9-1.1a11.41,11.41,0,0,0,1.1,1.1l12.9-.5,25.9,78.4c33.2,0,63-2.3,84.2-6,19.8-3.5,31.9-8.1,31.9-13.2l4.5-9.4c12.3-31.8-4.5-60.1-4.5-60.1C1240.73,431.9,1236.23,432.8,1231.53,433.6Z"/><path class="cls-16" d="M1063.73,383.9c11.2,2.4,24.9,4,41.9,4.2a354.36,354.36,0,0,0,42.8-2.1c-6.5.1-13.1.2-19.8.2C1105.53,386.2,1083.53,385.4,1063.73,383.9Z"/><path class="cls-22" d="M1109.83,1013.4l2.9,20.4c5.2.1,10.6.2,15.9.2,75.6,0,136.9-10.1,136.9-22.6h.2s7.1-43,16.7-101.1l-1.3-.2a147.76,147.76,0,0,1-9.5-38.7l-.5.1-18.3,123c0,10.6-55.6,19.2-124.2,19.2C1122.23,1013.7,1115.93,1013.6,1109.83,1013.4Z"/><path class="cls-16" d="M1212.83,513.6c26-3.4,115.1,80.2,117.8,82.8-4-28-31.9-50.4-31.9-50.4l-53.9-45.6C1244.83,505.5,1232.63,510.1,1212.83,513.6Z"/><path class="cls-16" d="M1231.53,433.6c4.7-.8,9.1-1.7,13.2-2.6,22-4.8,36.2-10.4,40.2-15.2,7.2-40.1-41.5-37.6-43.8-37.5h-.1c-23.9,4.1-55.9,6.9-91.8,7.7C1158,386.1,1273.93,387.7,1231.53,433.6Z"/><path class="cls-20" d="M1241.23,378.3c2.3-.2,51-2.6,43.8,37.5,27.1-32.3,0-55.3,0-55.3C1285,367.4,1268.33,373.7,1241.23,378.3Z"/><path class="cls-21" d="M1249.33,491l35.7-75.3c-4,4.8-18.2,10.4-40.2,15.2C1244.83,431,1261.53,459.3,1249.33,491Z"/><path class="cls-16" d="M1272.23,849.8s-1.8,7.8-.5,21.6a141,141,0,0,0,9.5,38.7l1.3.2c.9-5.4,1.8-10.9,2.8-16.5,1.7-10,3.4-20.4,5.1-31h-2v.1c-1.6,5.3-4.2,8.7-7.2,8.7C1276.23,871.4,1272.23,861.7,1272.23,849.8Z"/><path class="cls-23" d="M1277.73,829.8c-3.3,3.2-5.6,10.9-5.6,20,0,11.9,4,21.6,8.9,21.6,3,0,5.6-3.4,7.2-8.7v-.1h-4.6c-1.4,0-2.5-5.6-2.5-12.6s1.1-12.5,2.5-12.5h4.9c-1.6-5.7-4.3-9.5-7.4-9.5A5.71,5.71,0,0,0,1277.73,829.8Z"/><path class="cls-22" d="M1293.93,718.5l-16.5,110.9.3.4a4.67,4.67,0,0,1,3.4-1.7c3.1,0,5.8,3.7,7.4,9.5h5.9c7.1-43.4,14.5-88.4,20.7-127.3A114.84,114.84,0,0,1,1293.93,718.5Z"/><path class="cls-14" d="M1283.63,837.6c-1.4,0-2.5,5.6-2.5,12.5s1.1,12.6,2.5,12.6h40.8c11.2,0,12.3,11.6,11.6,20.3a62.05,62.05,0,0,1-1.5,9.5l13.1,2.5c6.7-.1,12-1.2,12-2.5a40.2,40.2,0,0,0,.9-4.6c.3-1.7.6-3.9.8-6.4,1.4-16-.7-43.8-32.3-43.8h-40.5Z"/><path class="cls-24" d="M1303.43,910s-19,50.1-.1,90.1l.1-.1a.9.9,0,0,0,.1.5v.1a2.51,2.51,0,0,0,.4.7v.1c4.1,5.6,32.9,9.9,67.9,9.9,3.7,0,7.3-.1,10.9-.2-16.7-59.8,3.6-90,3.6-90-4.6.2-9.5.3-14.5.3C1334,921.4,1306,915.7,1303.43,910Z"/><path class="cls-25" d="M1302.13,896.5a21.33,21.33,0,0,0,1.3,13.5c2.6,5.7,30.6,11.4,68.4,11.4,5,0,9.8-.1,14.5-.3l-4.6.1c-5-9.3-.7-15.7-.1-16.5-5.4,0-10.2-.3-14.6-.7-35.6-.4-63.6-5.3-63.6-11.3A12.53,12.53,0,0,0,1302.13,896.5Z"/><path class="cls-25" d="M1303.33,1000.2c-.6,1.3-3.7,9.1.1,17.2,2.6,5.7,30.6,11.3,68.4,11.3,3.6,0,7.2-.1,10.6-.2,0,0-5.6-6.8.4-17.1a.35.35,0,0,0-.1-.2c-3.6.1-7.2.2-10.9.2-35,0-63.8-4.3-67.9-9.9v-.1a2.51,2.51,0,0,1-.4-.7v-.1C1303.43,1000.3,1303.43,1000.3,1303.33,1000.2Z"/><path class="cls-25" d="M1303.33,1000.1h0a.76.76,0,0,0,.2.3.9.9,0,0,1-.1-.5C1303.43,1000,1303.43,1000.1,1303.33,1000.1Z"/><path class="cls-24" d="M1336.13,883c-19.7,2-32.8,5.6-32.8,9.6,0,6,28,10.9,63.6,11.3-18.1-2-27.5-7.7-30.9-10.3a.1.1,0,0,1-.1-.1c-.9-.3-1.4-.7-1.4-1.1A42.42,42.42,0,0,0,1336.13,883Z"/><path class="cls-9" d="M1347.63,895l-13.1-2.5,1.4,1.1a.1.1,0,0,1,.1.1c2.1.8,6.3,1.3,11,1.3Z"/><path class="cls-26" d="M1347.13,895c-4.8,0-8.9-.5-11-1.3,3.4,2.5,12.8,8.3,30.9,10.3,1.5.1,3.2.1,4.8.1,7,0,13.8-.2,20.1-.5l-44.2-8.5A1.48,1.48,0,0,0,1347.13,895Z"/><path class="cls-26" d="M1347.63,895l44.2,8.5c19-1,34.5-3.3,42.5-6.3l-73.8-9.4c-.5,2.9-.9,4.6-.9,4.6C1359.63,893.8,1354.33,894.9,1347.63,895Z"/><path class="cls-24" d="M1360.53,887.8l73.8,9.4c3.8-1.4,5.9-2.9,5.9-4.6,0-6.2-30.6-11.3-68.4-11.3-3.4,0-6.8.1-10.2.1h-.3C1361.13,883.9,1360.83,886.1,1360.53,887.8Z"/><path class="cls-26" d="M1381.53,904.7c4-.1,8.3-.3,13-.7l-2.6-.5c-6.3.3-13.1.5-20.1.5-1.6,0-3.3,0-4.8-.1A125.28,125.28,0,0,0,1381.53,904.7Z"/><path class="cls-27" d="M1381.53,904.7c-.6.8-5,7.2.1,16.5l4.6-.1c30.3-1.2,51.7-6.1,54-11.1,4.1-8.8,0-17.4,0-17.4,0,1.7-2.1,3.2-5.9,4.6-8,3-23.5,5.3-42.5,6.3l2.6.5C1389.83,904.4,1385.53,904.6,1381.53,904.7Z"/><path class="cls-28" d="M1386.23,921.1s-20.2,30.3-3.6,90c29.9-.7,53.3-4.8,57-9.8v-.1a2.51,2.51,0,0,0,.4-.7v-.1a.9.9,0,0,0,.1-.5.1.1,0,0,0,.1.1c18.9-40-.1-90.1-.1-90.1C1437.93,914.9,1416.53,919.9,1386.23,921.1Z"/><path class="cls-27" d="M1382.73,1011.4c-6,10.4-.4,17.1-.4,17.1,32.3-.9,55.5-6,57.9-11.1,3.8-8.1.6-15.9.1-17.2-.1.1-.1.2-.2.3v.1a1.61,1.61,0,0,1-.4.7v.1c-3.7,5-27.1,9-57,9.8Z"/></g><path class="cls-29" d="M1406.73,918.8s20.4,53.7-.5,96"/><path class="cls-29" d="M1329.13,918.3s-20.4,53.7.5,96"/><path class="cls-29" d="M1373.73,917.6s3.8,63-1,92.9"/><g id="_Group_2" data-name="&lt;Group&gt;"><path class="cls-24" d="M838.43,1135.9a12.46,12.46,0,0,0,.1,7.4,12.13,12.13,0,0,0,23.1-.5c-17.3,8.9-11.2-13.5-11.2-13.5s7.9-27.1,19.4-66.5a.37.37,0,0,1,.1-.3,16.69,16.69,0,0,1,1.5-5.4c6.5-22.3,14-47.9,21.8-74.7,8.2-28,16.7-57.2,24.8-84.8,8.8-30.3,17.1-58.7,23.7-81.2,8.3-28.3,13.9-47.4,14.7-49.9,3.6-11.4,15.1,0,15.1,0a10.16,10.16,0,0,0-.6-3.4,12.18,12.18,0,0,0-23.4,1.4h-.1l-109,371.4Z"/><path class="cls-30" d="M850.43,1129.3s-6.1,22.4,11.2,13.5a.1.1,0,0,1,.1-.1l8.1-76.7a12.19,12.19,0,0,1,0-2.7c0-.2.1-.3.1-.5C858.33,1102.3,850.43,1129.3,850.43,1129.3Z"/><path class="cls-31" d="M869.73,1066l-8.1,76.7,20.2-68.7-8.7-2.5C871.43,1071.1,870.13,1069.1,869.73,1066Z"/><path class="cls-32" d="M869.73,1063.3a12.19,12.19,0,0,0,0,2.7c.3,3.1,1.7,5,3.4,5.6l8.7,2.5,97.4,28.4,1.4.4,2.1-6.8-111.4-32.7Z"/><path class="cls-24" d="M869.73,1063.3l1.6.1,111.4,32.7,3.9-13.3-1.4-.4-97.5-28.4-8.7-2.5a4.63,4.63,0,0,0-3.9.9,12.86,12.86,0,0,0-3.8,4.9l-1.5,5.4a.37.37,0,0,0-.1.3Z"/><path class="cls-30" d="M871.43,1057.2a12.86,12.86,0,0,1,3.8-4.9,4.63,4.63,0,0,1,3.9-.9l8.7,2.5L895,983l-1.8-.5C885.43,1009.2,877.93,1034.9,871.43,1057.2Z"/><path class="cls-31" d="M895,983l-7.2,70.9,17.5-59.4-6.8-2v-.1c-1.8-.5-3.2-2.5-3.4-5.6a12,12,0,0,1,.2-3.8Z"/><path class="cls-30" d="M918.33,901.8a16.06,16.06,0,0,1,.8-3.8l-1-.3c-8.1,27.6-16.6,56.8-24.8,84.8l1.8.5.2.1c.6-4,2.6-8,5.3-9.8a4.13,4.13,0,0,1,3.8-.9h.1l6.8,2,7-69.6A7.58,7.58,0,0,1,918.33,901.8Z"/><path class="cls-32" d="M895.23,983.1a16.44,16.44,0,0,0-.2,3.8c.3,3.1,1.7,5,3.4,5.6v.1l6.8,2,98.9,28.9,2.2-7.7Z"/><path class="cls-24" d="M895.23,983.1l111.2,32.6,3.7-12.5-98.9-28.8-6.8-2h-.1a4.37,4.37,0,0,0-3.8.9C897.83,975.1,895.83,979.1,895.23,983.1Z"/><path class="cls-31" d="M918.23,904.7l-7,69.6,18.2-61.8-7.7-2.3C919.93,909.8,918.63,907.8,918.23,904.7Z"/><path class="cls-30" d="M918,897.7l1,.3a13.41,13.41,0,0,1,4.6-6.9,4.63,4.63,0,0,1,3.9-.9l7.7,2.2,8.2-75.4-1.7-.5C935.23,838.9,926.93,867.3,918,897.7Z"/><path class="cls-32" d="M918.33,901.8a9.42,9.42,0,0,0-.1,2.9c.3,3.1,1.7,5,3.4,5.6l7.7,2.3,98.4,28.7.5.2,2-6.8Z"/><path class="cls-24" d="M918.33,901.8l112,32.9,4-13.4-.5-.2-98.4-28.7-7.7-2.2a4.63,4.63,0,0,0-3.9.9,13.41,13.41,0,0,0-4.6,6.9A12.41,12.41,0,0,0,918.33,901.8Z"/><path class="cls-31" d="M943.53,817l-8.2,75.4,18.9-64.2v-.1l-7.1-2.1c-1.8-.5-3.2-2.5-3.4-5.6a12.92,12.92,0,0,1,.1-3.4Z"/><path class="cls-30" d="M941.83,816.5l1.7.5.2.1c.5-4.2,2.6-8.3,5.3-10.3a4.42,4.42,0,0,1,3.8-.9L960,808l10.8-36.6h-.1a10.11,10.11,0,0,0,.7-4.9s-11.5-11.4-15.1,0C955.73,769.1,950,788.2,941.83,816.5Z"/><path class="cls-32" d="M943.73,817a13,13,0,0,0-.1,3.4c.3,3.1,1.6,5,3.4,5.6l7.1,2.1L1053,857h.1l2.1-7.2Z"/><path class="cls-24" d="M943.73,817l111.5,32.8h.1l3.8-12.9L960.23,808l-7.2-2.1a4.37,4.37,0,0,0-3.8.9C946.33,808.7,944.23,812.9,943.73,817Z"/><path class="cls-24" d="M1006.43,1015.7l-2.2,7.7-17.5,59.4-3.9,13.3-2.1,6.8-18.4,62.7h.1a12.46,12.46,0,0,0,.1,7.4c8.9,9.2,16.2-6.4,16.2-6.4s102.7-351.2,106.9-364.9-11.8-11.9-11.8-11.9l-.1-.1a14.61,14.61,0,0,0-2,4.6l-.1-.1-12.5,42.6-3.8,12.9h-.1l-2.1,7.2h-.1l-18.9,64.3-4,13.4-2,6.8-18.2,61.8Z"/><path class="cls-32" d="M978.73,1166.6s-7.2,15.7-16.2,6.4a12.18,12.18,0,0,0,23.2-.6L1095,801.1l-.1-.1a12,12,0,0,0-15.3-15.7,13,13,0,0,0-5.9,4.4l.1.1s15.9-1.8,11.8,11.9C1081.33,815.4,978.73,1166.6,978.73,1166.6Z"/></g><rect class="cls-33" x="2470.63" y="1539.3" width="111.7" height="33.1"/><path class="cls-34" d="M2324.53,1382.8c0,.1-.1.3-.1.4,0,4.3,17.1,7.8,38.2,7.8s38.2-3.5,38.2-7.8a.6.6,0,0,0-.1-.4,47.09,47.09,0,0,1,4.1,19.3v115.5c0,5-18.9,9.1-42.2,9.1s-42.2-4.1-42.2-9.1V1402.1A47.09,47.09,0,0,1,2324.53,1382.8Z"/><path class="cls-35" d="M2400.73,1382.8l-.3-.6A.86.86,0,0,1,2400.73,1382.8Z"/><path class="cls-35" d="M2362.63,1391c-21.1,0-38.2-3.5-38.2-7.8a.6.6,0,0,1,.1-.4l.3-.6c2.4-3.8,18.4-6.8,37.9-6.8s35.5,3,37.9,6.8l.3.6c0,.1.1.3.1.4C2400.83,1387.5,2383.73,1391,2362.63,1391Z"/><path class="cls-36" d="M2329.43,1374.3l3.1-4.3a28.15,28.15,0,0,0,5.4-16.6v-14.2c4.6,1.8,13.9,3.1,24.7,3.1s20.1-1.2,24.7-3.1v14.2a27.93,27.93,0,0,0,5.4,16.6l3.1,4.3a48.41,48.41,0,0,1,4.7,7.9c-2.4-3.8-18.4-6.8-37.9-6.8s-35.5,3-37.9,6.8A53,53,0,0,1,2329.43,1374.3Z"/><path class="cls-37" d="M2334.93,1348.5v-11.8h55.5v11.8a28.09,28.09,0,0,0,6.1,17.6l3.5,4.5a47.68,47.68,0,0,1,10.1,29.5v122.6h-94.8V1400.1a48.51,48.51,0,0,1,10.1-29.5l3.5-4.5A29.23,29.23,0,0,0,2334.93,1348.5Z"/><ellipse class="cls-37" cx="2362.63" cy="1522.7" rx="47.4" ry="9.6"/><ellipse class="cls-36" cx="2362.63" cy="1519.9" rx="42.2" ry="8.6"/><path class="cls-34" d="M2324.53,1382.8c0,.1-.1.3-.1.4,0,4.3,17.1,7.8,38.2,7.8s38.2-3.5,38.2-7.8a.6.6,0,0,0-.1-.4,47.09,47.09,0,0,1,4.1,19.3v115.5c0,5-18.9,9.1-42.2,9.1s-42.2-4.1-42.2-9.1V1402.1A47.09,47.09,0,0,1,2324.53,1382.8Z"/><path class="cls-36" d="M2362.63,1375.5c-19.4,0-35.5,3-37.9,6.8a44.54,44.54,0,0,1,4.7-7.9l3.1-4.3a28.15,28.15,0,0,0,5.4-16.6v-16.8h49.4v16.8a27.93,27.93,0,0,0,5.4,16.6l3.1,4.3a48.41,48.41,0,0,1,4.7,7.9C2398.13,1378.4,2382,1375.5,2362.63,1375.5Z"/><path class="cls-35" d="M2400.73,1382.8l-.3-.6A.86.86,0,0,1,2400.73,1382.8Z"/><path class="cls-35" d="M2362.63,1391c-21.1,0-38.2-3.5-38.2-7.8a.6.6,0,0,1,.1-.4l.3-.6c2.4-3.8,18.4-6.8,37.9-6.8s35.5,3,37.9,6.8l.3.6c0,.1.1.3.1.4C2400.83,1387.5,2383.73,1391,2362.63,1391Z"/><path class="cls-38" d="M2325.33,1370.6l3.5-4.5a28.91,28.91,0,0,0,6.1-17.6v-11.8h29.7v11.8a28.09,28.09,0,0,1-6.1,17.6l-3.5,4.5a47.68,47.68,0,0,0-10.1,29.5v122.6c0,4.3,13.6,7.9,32.6,9.2-4.7.3-9.7.5-14.9.5-26.2,0-47.4-4.3-47.4-9.6V1400.1A47.89,47.89,0,0,1,2325.33,1370.6Z"/><path class="cls-39" d="M2388.73,1319.8l-5.6,37.9c0,2.3-9.2,4.2-20.5,4.2s-20.5-1.9-20.5-4.2l-5.6-37.9Z"/><path class="cls-40" d="M2353.43,1319.8l5.6,37.9c0,1.7,4.9,3.1,12,3.8-2.6.2-5.4.4-8.5.4-11.3,0-20.5-1.9-20.5-4.2l-5.6-37.9h17Z"/><ellipse class="cls-41" cx="2362.63" cy="1319.8" rx="26.1" ry="5.3"/><path class="cls-37" d="M2338.53,1333.8l.4,2.8c0,2,10.6,3.6,23.7,3.6s23.7-1.6,23.7-3.6l.4-2.8c2.3.8,3.6,1.8,3.6,2.8,0,3.1-12.4,5.6-27.7,5.6s-27.7-2.5-27.7-5.6C2334.93,1335.6,2336.23,1334.6,2338.53,1333.8Z"/><path class="cls-42" d="M2399,1380.9a7.45,7.45,0,0,1-1.2-.7c-.7-.3-1.4-.6-2.3-.9-.6-.2-1.2-.4-1.9-.6a41.31,41.31,0,0,0-4.4-1c-2-.4-4.3-.8-6.7-1.1l-3-.3-3.1-.3c-1.1-.1-2.2-.2-3.3-.2s-2.2-.1-3.4-.2a9.14,9.14,0,0,1-1.7-.1c-1.2,0-2.4-.1-3.6-.1h-3.6c-1.2,0-2.4,0-3.6.1a9.14,9.14,0,0,0-1.7.1c-1.2,0-2.3.1-3.4.2h-.6a59.14,59.14,0,0,1,3.5-5.2l3.5-4.5a28.91,28.91,0,0,0,6.1-17.6v-6.2c9.9-.1,18.4-1.3,22.7-3.1v14.2a27.93,27.93,0,0,0,5.4,16.6l3.1,4.3a48.41,48.41,0,0,1,4.7,7.9A5,5,0,0,0,2399,1380.9Z"/><path class="cls-38" d="M2358.53,1366.1l-3.5,4.5a59.07,59.07,0,0,0-3.5,5.2c-.9.1-1.8.1-2.7.2l-3.1.3c-2,.2-4,.4-5.8.7-.9.1-1.8.3-2.6.4a16.94,16.94,0,0,0-2.4.5c-.7.2-1.5.3-2.2.5-4.2,1.1-7,2.4-7.9,3.8a44.54,44.54,0,0,1,4.7-7.9l3.1-4.3a28.15,28.15,0,0,0,5.4-16.6v-14.2c4.6,1.8,13.9,3.1,24.7,3.1h2v6.2A28.79,28.79,0,0,1,2358.53,1366.1Z"/><path class="cls-34" d="M2216.73,1382.8c0,.1-.1.3-.1.4,0,4.3,17.1,7.8,38.2,7.8s38.2-3.5,38.2-7.8a.6.6,0,0,0-.1-.4,47.09,47.09,0,0,1,4.1,19.3v115.5c0,5-18.9,9.1-42.2,9.1s-42.2-4.1-42.2-9.1V1402.1A47.09,47.09,0,0,1,2216.73,1382.8Z"/><path class="cls-35" d="M2292.93,1382.8l-.3-.6A.86.86,0,0,1,2292.93,1382.8Z"/><path class="cls-35" d="M2254.83,1391c-21.1,0-38.2-3.5-38.2-7.8a.6.6,0,0,1,.1-.4l.3-.6c2.4-3.8,18.4-6.8,37.9-6.8s35.5,3,37.9,6.8l.3.6c0,.1.1.3.1.4C2293,1387.5,2275.93,1391,2254.83,1391Z"/><path class="cls-36" d="M2221.63,1374.3l3.1-4.3a28.15,28.15,0,0,0,5.4-16.6v-14.2c4.6,1.8,13.9,3.1,24.7,3.1s20.1-1.2,24.7-3.1v14.2a27.93,27.93,0,0,0,5.4,16.6l3.1,4.3a48.41,48.41,0,0,1,4.7,7.9c-2.4-3.8-18.4-6.8-37.9-6.8s-35.5,3-37.9,6.8A53.06,53.06,0,0,1,2221.63,1374.3Z"/><path class="cls-37" d="M2227.13,1348.5v-11.8h55.5v11.8a28.09,28.09,0,0,0,6.1,17.6l3.5,4.5a47.68,47.68,0,0,1,10.1,29.5v122.6h-94.8V1400.1a48.51,48.51,0,0,1,10.1-29.5l3.5-4.5A28.59,28.59,0,0,0,2227.13,1348.5Z"/><ellipse class="cls-37" cx="2254.83" cy="1522.7" rx="47.4" ry="9.6"/><ellipse class="cls-36" cx="2254.83" cy="1519.9" rx="42.2" ry="8.6"/><path class="cls-34" d="M2216.73,1382.8c0,.1-.1.3-.1.4,0,4.3,17.1,7.8,38.2,7.8s38.2-3.5,38.2-7.8a.6.6,0,0,0-.1-.4,47.09,47.09,0,0,1,4.1,19.3v115.5c0,5-18.9,9.1-42.2,9.1s-42.2-4.1-42.2-9.1V1402.1A47.09,47.09,0,0,1,2216.73,1382.8Z"/><path class="cls-36" d="M2254.83,1375.5c-19.4,0-35.5,3-37.9,6.8a44.54,44.54,0,0,1,4.7-7.9l3.1-4.3a28.15,28.15,0,0,0,5.4-16.6v-16.8h49.4v16.8a27.93,27.93,0,0,0,5.4,16.6l3.1,4.3a48.41,48.41,0,0,1,4.7,7.9C2290.33,1378.4,2274.33,1375.5,2254.83,1375.5Z"/><path class="cls-35" d="M2292.93,1382.8l-.3-.6A.86.86,0,0,1,2292.93,1382.8Z"/><path class="cls-35" d="M2254.83,1391c-21.1,0-38.2-3.5-38.2-7.8a.6.6,0,0,1,.1-.4l.3-.6c2.4-3.8,18.4-6.8,37.9-6.8s35.5,3,37.9,6.8l.3.6c0,.1.1.3.1.4C2293,1387.5,2275.93,1391,2254.83,1391Z"/><path class="cls-38" d="M2217.53,1370.6l3.5-4.5a28.91,28.91,0,0,0,6.1-17.6v-11.8h29.7v11.8a28.09,28.09,0,0,1-6.1,17.6l-3.5,4.5a47.68,47.68,0,0,0-10.1,29.5v122.6c0,4.3,13.6,7.9,32.6,9.2-4.7.3-9.7.5-14.9.5-26.2,0-47.4-4.3-47.4-9.6V1400.1A47.89,47.89,0,0,1,2217.53,1370.6Z"/><path class="cls-39" d="M2280.93,1319.8l-5.6,37.9c0,2.3-9.2,4.2-20.5,4.2s-20.5-1.9-20.5-4.2l-5.6-37.9Z"/><path class="cls-40" d="M2245.63,1319.8l5.6,37.9c0,1.7,4.9,3.1,12,3.8-2.6.2-5.4.4-8.5.4-11.3,0-20.5-1.9-20.5-4.2l-5.6-37.9h17Z"/><ellipse class="cls-41" cx="2254.83" cy="1319.8" rx="26.1" ry="5.3"/><path class="cls-37" d="M2230.73,1333.8l.4,2.8c0,2,10.6,3.6,23.7,3.6s23.7-1.6,23.7-3.6l.4-2.8c2.3.8,3.6,1.8,3.6,2.8,0,3.1-12.4,5.6-27.7,5.6s-27.7-2.5-27.7-5.6C2227.13,1335.6,2228.43,1334.6,2230.73,1333.8Z"/><path class="cls-42" d="M2291.23,1380.9a7.45,7.45,0,0,1-1.2-.7c-.7-.3-1.4-.6-2.3-.9-.6-.2-1.2-.4-1.9-.6a41.31,41.31,0,0,0-4.4-1c-2-.4-4.3-.8-6.7-1.1l-3-.3-3.1-.3c-1.1-.1-2.2-.2-3.3-.2s-2.2-.1-3.4-.2a9.14,9.14,0,0,1-1.7-.1c-1.2,0-2.4-.1-3.6-.1H2253c-1.2,0-2.4,0-3.6.1a9.14,9.14,0,0,0-1.7.1c-1.2,0-2.3.1-3.4.2h-.6a59.14,59.14,0,0,1,3.5-5.2l3.5-4.5a28.91,28.91,0,0,0,6.1-17.6v-6.2c9.9-.1,18.4-1.3,22.7-3.1v14.2a27.93,27.93,0,0,0,5.4,16.6l3.1,4.3a48.41,48.41,0,0,1,4.7,7.9A5,5,0,0,0,2291.23,1380.9Z"/><path class="cls-38" d="M2250.83,1366.1l-3.5,4.5a59.07,59.07,0,0,0-3.5,5.2c-.9.1-1.8.1-2.7.2l-3.1.3c-2,.2-4,.4-5.8.7-.9.1-1.8.3-2.6.4a16.94,16.94,0,0,0-2.4.5c-.8.2-1.5.3-2.2.5-4.2,1.1-7,2.4-7.9,3.8a44.54,44.54,0,0,1,4.7-7.9l3.1-4.3a28.15,28.15,0,0,0,5.4-16.6v-14.2c4.6,1.8,13.9,3.1,24.7,3.1h2v6.2A30.09,30.09,0,0,1,2250.83,1366.1Z"/><path class="cls-34" d="M2110.33,1382.8c0,.1-.1.3-.1.4,0,4.3,17.1,7.8,38.2,7.8s38.2-3.5,38.2-7.8a.6.6,0,0,0-.1-.4,47.09,47.09,0,0,1,4.1,19.3v115.5c0,5-18.9,9.1-42.2,9.1s-42.2-4.1-42.2-9.1V1402.1A47.09,47.09,0,0,1,2110.33,1382.8Z"/><path class="cls-35" d="M2186.53,1382.8l-.3-.6A.86.86,0,0,1,2186.53,1382.8Z"/><path class="cls-35" d="M2148.43,1391c-21.1,0-38.2-3.5-38.2-7.8a.6.6,0,0,1,.1-.4l.3-.6c2.4-3.8,18.4-6.8,37.9-6.8s35.5,3,37.9,6.8l.3.6c0,.1.1.3.1.4C2186.63,1387.5,2169.53,1391,2148.43,1391Z"/><path class="cls-36" d="M2115.23,1374.3l3.1-4.3a28.15,28.15,0,0,0,5.4-16.6v-14.2c4.6,1.8,13.9,3.1,24.7,3.1s20.1-1.2,24.7-3.1v14.2a27.93,27.93,0,0,0,5.4,16.6l3.1,4.3a48.41,48.41,0,0,1,4.7,7.9c-2.4-3.8-18.4-6.8-37.9-6.8s-35.5,3-37.9,6.8A53.07,53.07,0,0,1,2115.23,1374.3Z"/><path class="cls-37" d="M2120.73,1348.5v-11.8h55.5v11.8a28.09,28.09,0,0,0,6.1,17.6l3.5,4.5a47.68,47.68,0,0,1,10.1,29.5v122.6h-94.8V1400.1a48.51,48.51,0,0,1,10.1-29.5l3.5-4.5A28.59,28.59,0,0,0,2120.73,1348.5Z"/><ellipse class="cls-37" cx="2148.43" cy="1522.7" rx="47.4" ry="9.6"/><ellipse class="cls-36" cx="2148.43" cy="1519.9" rx="42.2" ry="8.6"/><path class="cls-34" d="M2110.33,1382.8c0,.1-.1.3-.1.4,0,4.3,17.1,7.8,38.2,7.8s38.2-3.5,38.2-7.8a.6.6,0,0,0-.1-.4,47.09,47.09,0,0,1,4.1,19.3v115.5c0,5-18.9,9.1-42.2,9.1s-42.2-4.1-42.2-9.1V1402.1A47.09,47.09,0,0,1,2110.33,1382.8Z"/><path class="cls-36" d="M2148.43,1375.5c-19.4,0-35.5,3-37.9,6.8a44.54,44.54,0,0,1,4.7-7.9l3.1-4.3a28.15,28.15,0,0,0,5.4-16.6v-16.8h49.4v16.8a27.93,27.93,0,0,0,5.4,16.6l3.1,4.3a48.41,48.41,0,0,1,4.7,7.9C2183.93,1378.4,2167.93,1375.5,2148.43,1375.5Z"/><path class="cls-35" d="M2186.53,1382.8l-.3-.6A.86.86,0,0,1,2186.53,1382.8Z"/><path class="cls-35" d="M2148.43,1391c-21.1,0-38.2-3.5-38.2-7.8a.6.6,0,0,1,.1-.4l.3-.6c2.4-3.8,18.4-6.8,37.9-6.8s35.5,3,37.9,6.8l.3.6c0,.1.1.3.1.4C2186.63,1387.5,2169.53,1391,2148.43,1391Z"/><path class="cls-38" d="M2111.13,1370.6l3.5-4.5a28.91,28.91,0,0,0,6.1-17.6v-11.8h29.7v11.8a28.09,28.09,0,0,1-6.1,17.6l-3.5,4.5a47.68,47.68,0,0,0-10.1,29.5v122.6c0,4.3,13.6,7.9,32.6,9.2-4.7.3-9.7.5-14.9.5-26.2,0-47.4-4.3-47.4-9.6V1400.1A48.52,48.52,0,0,1,2111.13,1370.6Z"/><path class="cls-39" d="M2174.53,1319.8l-5.6,37.9c0,2.3-9.2,4.2-20.5,4.2s-20.5-1.9-20.5-4.2l-5.6-37.9Z"/><path class="cls-40" d="M2139.23,1319.8l5.6,37.9c0,1.7,4.9,3.1,12,3.8-2.6.2-5.4.4-8.5.4-11.3,0-20.5-1.9-20.5-4.2l-5.6-37.9h17Z"/><ellipse class="cls-41" cx="2148.43" cy="1319.8" rx="26.1" ry="5.3"/><path class="cls-37" d="M2124.33,1333.8l.4,2.8c0,2,10.6,3.6,23.7,3.6s23.7-1.6,23.7-3.6l.4-2.8c2.3.8,3.6,1.8,3.6,2.8,0,3.1-12.4,5.6-27.7,5.6s-27.7-2.5-27.7-5.6C2120.73,1335.6,2122,1334.6,2124.33,1333.8Z"/><path class="cls-42" d="M2184.83,1380.9a7.45,7.45,0,0,1-1.2-.7c-.7-.3-1.4-.6-2.3-.9-.6-.2-1.2-.4-1.9-.6a41.31,41.31,0,0,0-4.4-1c-2-.4-4.3-.8-6.7-1.1l-3-.3-3.1-.3c-1.1-.1-2.2-.2-3.3-.2s-2.2-.1-3.4-.2a9.14,9.14,0,0,1-1.7-.1c-1.2,0-2.4-.1-3.6-.1h-3.6c-1.2,0-2.4,0-3.6.1a9.14,9.14,0,0,0-1.7.1c-1.2,0-2.3.1-3.4.2h-.6a59.14,59.14,0,0,1,3.5-5.2l3.5-4.5a28.91,28.91,0,0,0,6.1-17.6v-6.2c9.9-.1,18.4-1.3,22.7-3.1v14.2a27.93,27.93,0,0,0,5.4,16.6l3.1,4.3a48.41,48.41,0,0,1,4.7,7.9A5,5,0,0,0,2184.83,1380.9Z"/><path class="cls-38" d="M2144.43,1366.1l-3.5,4.5a59.07,59.07,0,0,0-3.5,5.2c-.9.1-1.8.1-2.7.2l-3.1.3c-2,.2-4,.4-5.8.7-.9.1-1.8.3-2.6.4a16.94,16.94,0,0,0-2.4.5c-.7.2-1.5.3-2.2.5-4.2,1.1-7,2.4-7.9,3.8a44.54,44.54,0,0,1,4.7-7.9l3.1-4.3a28.15,28.15,0,0,0,5.4-16.6v-14.2c4.6,1.8,13.9,3.1,24.7,3.1h2v6.2A30.09,30.09,0,0,1,2144.43,1366.1Z"/><rect class="cls-23" x="2300.4" y="1525.05" width="310.3" height="37"/><polygon class="cls-37" points="2442.53 1463.3 2610.73 1463.3 2571.73 1297.8 2442.53 1297.8 2442.53 1463.3"/><polygon class="cls-43" points="2572.03 1298.1 2611.03 1463.7 2593.43 1463.7 2554.53 1298.1 2572.03 1298.1"/><rect class="cls-39" x="2094.9" y="1420.43" width="331.1" height="42.9"/><rect class="cls-39" x="2094.55" y="1471.12" width="331.1" height="42.9"/><rect class="cls-39" x="2094.55" y="1521.7" width="331.1" height="42.9"/><rect class="cls-44" x="2442.55" y="1298.47" width="20.1" height="164.9"/><circle class="cls-23" cx="2527.63" cy="1559.4" r="58.4"/><circle class="cls-45" cx="2527.93" cy="1559.8" r="33.1"/><circle class="cls-46" cx="2527.93" cy="1559.8" r="27.9"/><rect class="cls-41" x="2410.35" y="1420.52" width="15.3" height="144.1"/><rect class="cls-41" x="2347.23" y="1420.52" width="15.3" height="144.1"/><rect class="cls-41" x="2284.01" y="1420.52" width="15.3" height="144.1"/><rect class="cls-41" x="2220.89" y="1420.52" width="15.3" height="144.1"/><rect class="cls-41" x="2157.67" y="1420.52" width="15.3" height="144.1"/><rect class="cls-41" x="2094.54" y="1420.52" width="15.3" height="144.1"/><rect class="cls-36" x="2353.91" y="1538.95" width="62.3" height="51.3"/><rect class="cls-41" x="2088.05" y="1420.46" width="344.1" height="20.8"/><circle class="cls-23" cx="2288.63" cy="1559.4" r="58.4"/><circle class="cls-45" cx="2289.03" cy="1559.8" r="33.1"/><circle class="cls-46" cx="2289.03" cy="1559.8" r="27.9"/><circle class="cls-23" cx="2167.23" cy="1559.4" r="58.4"/><circle class="cls-45" cx="2167.53" cy="1559.8" r="33.1"/><circle class="cls-46" cx="2167.53" cy="1559.8" r="27.9"/><path class="cls-43" d="M2441.83,1282.9h132.5a5.7,5.7,0,0,1,5.7,5.7v9.9a5.7,5.7,0,0,1-5.7,5.7h-132.5Z"/><path class="cls-33" d="M2568.63,1291.1h-121.7a1.16,1.16,0,0,1-1.2-1.2v-1.7a1.16,1.16,0,0,1,1.2-1.2h121.7a1.16,1.16,0,0,1,1.2,1.2v1.7A1.16,1.16,0,0,1,2568.63,1291.1Z"/><rect class="cls-33" x="2094.23" y="1423.5" width="330.9" height="4.1"/><rect class="cls-47" x="2094.53" y="1441.3" width="15.3" height="2.5"/><rect class="cls-47" x="2157.73" y="1441.3" width="15.3" height="2.5"/><rect class="cls-47" x="2220.83" y="1441.3" width="15.3" height="2.5"/><polyline class="cls-47" points="2284.03 1441.3 2299.33 1441.3 2299.33 1444.2 2284.03 1444.2 2284.03 1441.3"/><rect class="cls-47" x="2347.13" y="1441.3" width="15.4" height="2.9"/><rect class="cls-47" x="2410.33" y="1441.3" width="15.3" height="2.9"/><circle class="cls-33" cx="2141.83" cy="1520.7" r="6.2"/><circle class="cls-33" cx="2261.73" cy="1520.7" r="6.2"/><circle class="cls-33" cx="2501.63" cy="1520.7" r="6.2"/><rect class="cls-48" x="2442.73" y="1304.3" width="20" height="15.5"/><polygon class="cls-49" points="2555.93 1304.3 2573.53 1304.3 2576.93 1319.8 2559.63 1319.8 2555.93 1304.3"/><path class="cls-50" d="M2544.53,1327.9l-55.5,48.5a2.39,2.39,0,0,1-3.4-.2l-2.3-2.6a2.39,2.39,0,0,1,.2-3.4l55.5-48.5a2.39,2.39,0,0,1,3.4.2l2.3,2.6A2.39,2.39,0,0,1,2544.53,1327.9Z"/><path class="cls-50" d="M2544.53,1361l-55.5,48.5a2.39,2.39,0,0,1-3.4-.2l-2.3-2.6a2.39,2.39,0,0,1,.2-3.4l55.5-48.5a2.39,2.39,0,0,1,3.4.2l2.3,2.6A2.39,2.39,0,0,1,2544.53,1361Z"/><rect class="cls-51" x="2109.83" y="1441.9" width="47.8" height="7.1"/><rect class="cls-51" x="2173.03" y="1441.9" width="47.8" height="7.1"/><rect class="cls-51" x="2236.13" y="1441.9" width="47.8" height="7.1"/><rect class="cls-51" x="2299.33" y="1441.9" width="47.8" height="7.1"/><rect class="cls-51" x="2362.63" y="1441.9" width="47.7" height="7.1"/><g id="_Group_3" data-name="&lt;Group&gt;"><path class="cls-44" d="M2621.43,1469.9V1526a38.73,38.73,0,0,1-38.7,38.7h-140.2V1445.5h152.2s20.1.5,24.6,24.4Z"/><path class="cls-52" d="M2621.43,1459.2v10.7h-2.2c-4.4-23.9-24.6-24.4-24.6-24.4h-152.1v-25h140.2A38.67,38.67,0,0,1,2621.43,1459.2Z"/></g><g id="_Group_4" data-name="&lt;Group&gt;"><path class="cls-43" d="M2621.43,1434.8v16.9a15,15,0,0,0-15-15h-163.9v-13.2h168.7s7.8,2.7,9.7,7.7c.1.2.1.5.2.7a6.75,6.75,0,0,1,.2,1.4C2621.33,1433.8,2621.43,1434.3,2621.43,1434.8Z"/><path class="cls-53" d="M2606.43,1419.8a14.9,14.9,0,0,1,14.5,11.4c-1.9-5-9.7-7.7-9.7-7.7h-168.7v-3.6h163.9Z"/></g><polygon class="cls-54" points="2559.83 1320.8 2462.63 1320.8 2462.63 1304.3 2555.93 1304.3 2559.83 1320.8"/><rect class="cls-55" x="2353.93" y="1539" width="62.3" height="13.6"/><path class="cls-56" d="M2469.33,1564.6h116.4s-1,7.2-1.5,8.9h-113.4S2469.53,1567.4,2469.33,1564.6Z"/><path class="cls-57" d="M1439.93,952.7h-4.7a20.78,20.78,0,0,0-20.8,20.8v72.9a2.43,2.43,0,0,0,2.4,2.4h0a2.43,2.43,0,0,0,2.4-2.4V974.9a17.46,17.46,0,0,1,17.5-17.5h3.3v-4.7Z"/><path class="cls-57" d="M1455.93,1084.1h-3.1a4.48,4.48,0,0,1-4.5-4.5V999.8h12.2v79.8A4.63,4.63,0,0,1,1455.93,1084.1Z"/><path class="cls-57" d="M1542.43,989.9v32.4h2.6a17.63,17.63,0,0,1,17.6,17.6v40.3a3.9,3.9,0,0,0,3.9,3.9h4.4a3.9,3.9,0,0,0,3.9-3.9V989.9Z"/><path class="cls-58" d="M1472.43,1037.7a22.78,22.78,0,1,0-36.3-18.3,22.45,22.45,0,0,0,9.3,18.3l-3.1,5.4a2.56,2.56,0,0,0,4.4,2.6l3.1-5.4a24.82,24.82,0,0,0,6.6,1.8v6.2a2.5,2.5,0,0,0,5,0v-6.2a24.82,24.82,0,0,0,6.6-1.8l3.1,5.4a2.56,2.56,0,0,0,4.4-2.6Z"/><path id="SVGID" class="cls-14" d="M1618.73,945.3h-24.9v.1h-150.9a22,22,0,0,0-21.8,25.1l4.3,30.8v78.3a4.48,4.48,0,0,0,4.5,4.5h3.1a4.48,4.48,0,0,0,4.5-4.5v-35.4a21.89,21.89,0,0,1,21.9-21.9h80.4v57.9a3.9,3.9,0,0,0,3.9,3.9h4.4a3.9,3.9,0,0,0,3.9-3.9v-40.1a22.18,22.18,0,0,1,13.9-20.6,38.52,38.52,0,0,0,19.5-17.6l10.4-17.4a22.87,22.87,0,0,1,19.7-11.1h3.2V945.3Z"/><g class="cls-59"><path class="cls-23" d="M1453.13,994.3h0a15.58,15.58,0,0,1-15.5-15.5V945.4a15.58,15.58,0,0,1,15.5-15.5h0a15.58,15.58,0,0,1,15.5,15.5v33.4A15.58,15.58,0,0,1,1453.13,994.3Z"/></g><g class="cls-59"><path class="cls-23" d="M1477.83,1006.4h0a18.48,18.48,0,0,1-18.4-18.4V948.4a18.48,18.48,0,0,1,18.4-18.4h0a18.48,18.48,0,0,1,18.4,18.4V988A18.55,18.55,0,0,1,1477.83,1006.4Z"/></g><g class="cls-59"><path class="cls-23" d="M1531,997.5h0a8.71,8.71,0,0,1,8.7,8.7V1025a8.71,8.71,0,0,1-8.7,8.7h0a8.71,8.71,0,0,1-8.7-8.7v-18.8A8.64,8.64,0,0,1,1531,997.5Z"/></g><g class="cls-59"><path class="cls-23" d="M1517.13,990.7h0a10.46,10.46,0,0,1,10.4,10.4v22.3a10.46,10.46,0,0,1-10.4,10.4h0a10.46,10.46,0,0,1-10.4-10.4v-22.3A10.46,10.46,0,0,1,1517.13,990.7Z"/></g><g class="cls-59"><path class="cls-23" d="M1605.43,999.8h0a9.6,9.6,0,0,1-9.6,9.6h-20.7a9.6,9.6,0,0,1-9.6-9.6h0a9.6,9.6,0,0,1,9.6-9.6h20.7A9.67,9.67,0,0,1,1605.43,999.8Z"/></g><g class="cls-59"><path class="cls-23" d="M1425.23,1039.9h0a9.6,9.6,0,0,1-9.6-9.6v-20.7a9.6,9.6,0,0,1,9.6-9.6h0a9.6,9.6,0,0,1,9.6,9.6v20.7A9.73,9.73,0,0,1,1425.23,1039.9Z"/></g><g class="cls-59"><path class="cls-23" d="M1560,932.5h0a8.87,8.87,0,0,0-6.7,3.1,10.37,10.37,0,0,0-16.8,2.9h-11.8a8.81,8.81,0,0,0-8.8,8.8h0a8.81,8.81,0,0,0,8.8,8.8h1.6a9.18,9.18,0,0,1,9.2,9.2h0a10.68,10.68,0,0,0,10.2,10.7,10.46,10.46,0,0,0,10.4-7.8,8.6,8.6,0,0,0,3.9.9h0a8.81,8.81,0,0,0,8.8-8.8v-19A8.88,8.88,0,0,0,1560,932.5Z"/></g><g class="cls-59"><path class="cls-57" d="M1620.53,932.6l-26.3,4.7a5.4,5.4,0,0,0-4.3,6.6l8.7,34.8a8.75,8.75,0,0,0,4.2,5.5c1.3,4.2,7.4,6.6,14.3,5.4s11.8-5.6,11.5-9.9a8.89,8.89,0,0,0,2.1-6.7l-3.8-35.6A5.45,5.45,0,0,0,1620.53,932.6Z"/></g><g class="cls-59"><path class="cls-57" d="M1595.53,966.3l-.9-3.5a23,23,0,0,0-22.2-17.5h0l-2-16.2,48.6-1.2,5.1,32.8Z"/></g><path class="cls-23" d="M1592,947.4l-11.1,5.2h0a13.27,13.27,0,0,1,6.4-17.6l11.1-5.2h0A13.19,13.19,0,0,1,1592,947.4Z"/><path class="cls-23" d="M1637.63,939.3l12.2,1.1h0a13.39,13.39,0,0,0-12.1-14.4l-12.2-1.1h0A13.4,13.4,0,0,0,1637.63,939.3Z"/><path id="SVGID-2" data-name="SVGID" class="cls-14" d="M1625.23,925l-26.3,4.7a5.4,5.4,0,0,0-4.3,6.6l8.7,34.8a8.75,8.75,0,0,0,4.2,5.5,8.07,8.07,0,0,0,5.7,1c-.3-1.9,2.8-4.1,6.9-4.8s7.7.2,8.1,2.1a8.79,8.79,0,0,0,5-2.9,8.89,8.89,0,0,0,2.1-6.7l-3.8-35.6A5.54,5.54,0,0,0,1625.23,925Z"/><g class="cls-60"><path class="cls-23" d="M1621.43,916.1h0a11.41,11.41,0,0,0-4.8,2l-.4-2.1a7,7,0,0,0-7.5-5.8,6.9,6.9,0,0,0-6.1,8.1l2,11.3a7,7,0,0,0,4.2,5.2,8,8,0,0,1,4.8,6l1.6,8.9a12,12,0,0,0,13.9,9.7h0a12,12,0,0,0,9.7-13.9l-3.5-19.6A12,12,0,0,0,1621.43,916.1Z"/></g><ellipse class="cls-23" cx="1607.83" cy="953.07" rx="2.3" ry="1.3" transform="translate(-141.71 295.38) rotate(-10.06)"/><ellipse class="cls-14" cx="1624.23" cy="950.16" rx="2.3" ry="1.3" transform="translate(-140.95 298.2) rotate(-10.06)"/><path id="SVGID-3" data-name="SVGID" class="cls-58" d="M1632.93,972.4a5,5,0,0,1-6.1.9,11,11,0,0,0-6.7-.5,11.58,11.58,0,0,0-6.1,2.8,5.25,5.25,0,0,1-5.9,1.3l-.6-.3c1.3,4.2,7.4,6.6,14.3,5.4s11.8-5.6,11.5-9.9A1.4,1.4,0,0,0,1632.93,972.4Z"/><g class="cls-61"><circle class="cls-44" cx="1618.33" cy="981.7" r="1.8"/></g><g class="cls-61"><circle class="cls-44" cx="1624.83" cy="980.5" r="1.8"/></g><path class="cls-57" d="M1697,1083.8h3.1a13.61,13.61,0,0,1,13.6,13.6v47.5a1.54,1.54,0,0,1-1.5,1.5h0a1.54,1.54,0,0,1-1.5-1.5v-46.6a11.39,11.39,0,0,0-11.4-11.4h-2.2v-3.1Z"/><path class="cls-57" d="M1684.83,1171.1h2.1a3,3,0,0,0,3-3v-52.8h-8v52.8A3,3,0,0,0,1684.83,1171.1Z"/><path class="cls-57" d="M1627.53,1108.7v21.5h-1.8a11.72,11.72,0,0,0-11.7,11.7v26.7a2.58,2.58,0,0,1-2.6,2.6h-2.9a2.58,2.58,0,0,1-2.6-2.6v-59.8h21.6Z"/><path id="SVGID-4" data-name="SVGID" class="cls-14" d="M1577,1079.2h16.5v.1h99.9a14.53,14.53,0,0,1,14.4,16.6l-2.9,20.4v51.9a3,3,0,0,1-3,3h-2.1a3,3,0,0,1-3-3v-23.4a14.51,14.51,0,0,0-14.5-14.5h-53.2v38.3a2.58,2.58,0,0,1-2.6,2.6h-2.9a2.58,2.58,0,0,1-2.6-2.6v-26.5a14.94,14.94,0,0,0-9.2-13.7,25.41,25.41,0,0,1-12.9-11.7l-6.9-11.5a15.11,15.11,0,0,0-13-7.4h-2.1v-18.6Z"/><g class="cls-62"><path class="cls-23" d="M1686.93,1104.3h0a8.13,8.13,0,0,0,8.1-8.1v-17.4a8.13,8.13,0,0,0-8.1-8.1h0a8.13,8.13,0,0,0-8.1,8.1v17.4A8.13,8.13,0,0,0,1686.93,1104.3Z"/></g><g class="cls-62"><path class="cls-23" d="M1674.13,1110.6h0a9.6,9.6,0,0,0,9.6-9.6v-20.6a9.6,9.6,0,0,0-9.6-9.6h0a9.6,9.6,0,0,0-9.6,9.6V1101A9.6,9.6,0,0,0,1674.13,1110.6Z"/></g><g class="cls-62"><path class="cls-23" d="M1615,1070.7h0a6.58,6.58,0,0,1,4.8,2.2,7.32,7.32,0,0,1,5.3-2.2,7.71,7.71,0,0,1,6.8,4.3h8.5a6.27,6.27,0,0,1,6.3,6.3h0a6.27,6.27,0,0,1-6.3,6.3h-1.1a6.66,6.66,0,0,0-6.6,6.6h0a7.63,7.63,0,0,1-7.3,7.7,7.54,7.54,0,0,1-7.5-5.6,6.81,6.81,0,0,1-2.8.7h0a6.27,6.27,0,0,1-6.3-6.3v-13.6A6.15,6.15,0,0,1,1615,1070.7Z"/></g><g class="cls-62"><path class="cls-57" d="M1579,1070.7l17.4,3.1a3.61,3.61,0,0,1,2.8,4.4l-5.7,23a5.85,5.85,0,0,1-2.8,3.7c-.8,2.8-4.9,4.4-9.4,3.6s-7.8-3.7-7.6-6.6a5.86,5.86,0,0,1-1.4-4.4l2.5-23.6A3.71,3.71,0,0,1,1579,1070.7Z"/></g><g class="cls-62"><path class="cls-57" d="M1595.63,1093l.6-2.3a15.17,15.17,0,0,1,14.7-11.6h0l1.3-10.7-32.2-.8-3.4,21.7Z"/></g><path class="cls-23" d="M1599.43,1082.9l7.3,3.4h0a8.76,8.76,0,0,0-4.2-11.7l-7.3-3.4h0A8.73,8.73,0,0,0,1599.43,1082.9Z"/><path class="cls-57" d="M1569.23,1077.6l-8.1.7h0a8.83,8.83,0,0,1,8-9.5l8.1-.7h0A8.74,8.74,0,0,1,1569.23,1077.6Z"/><path id="SVGID-5" data-name="SVGID" class="cls-14" d="M1577.53,1068.1l17.4,3.1a3.61,3.61,0,0,1,2.8,4.4l-5.7,23a5.85,5.85,0,0,1-2.8,3.7,6.07,6.07,0,0,1-3.8.7c.2-1.3-1.9-2.7-4.6-3.2s-5.1.1-5.4,1.4a6.42,6.42,0,0,1-3.3-1.9,5.86,5.86,0,0,1-1.4-4.4l2.5-23.6A3.79,3.79,0,0,1,1577.53,1068.1Z"/><ellipse class="cls-23" cx="1588.72" cy="1086.66" rx="0.8" ry="1.5" transform="translate(241.36 2461.23) rotate(-79.94)"/><ellipse class="cls-23" cx="1577.83" cy="1084.72" rx="0.8" ry="1.5" transform="translate(234.28 2448.91) rotate(-79.94)"/><path id="SVGID-6" data-name="SVGID" class="cls-58" d="M1572.43,1099.5a3.35,3.35,0,0,0,4,.6,6.88,6.88,0,0,1,4.4-.3,6.54,6.54,0,0,1,4,1.9,3.42,3.42,0,0,0,3.9.9c.1-.1.3-.1.4-.2-.8,2.8-4.9,4.4-9.4,3.6s-7.8-3.7-7.6-6.6C1572.33,1099.3,1572.33,1099.4,1572.43,1099.5Z"/><g class="cls-63"><circle class="cls-44" cx="1582.13" cy="1105.6" r="1.2"/></g><g class="cls-63"><circle class="cls-44" cx="1577.73" cy="1104.9" r="1.2"/></g><path class="cls-57" d="M1472.13,1217.4h5.5a24.33,24.33,0,0,1,24.3,24.3v85a2.69,2.69,0,0,1-2.7,2.7h0a2.69,2.69,0,0,1-2.7-2.7v-83.4a20.36,20.36,0,0,0-20.4-20.4h-3.9v-5.5Z"/><path class="cls-57" d="M1452.53,1363.6h3.5a5.12,5.12,0,0,0,5.1-5.1v-89.7h-13.7v89.7A5.06,5.06,0,0,0,1452.53,1363.6Z"/><path class="cls-57" d="M1355.23,1257.8v36.4h-3a19.85,19.85,0,0,0-19.8,19.8v45.3a4.27,4.27,0,0,1-4.3,4.3h-5a4.27,4.27,0,0,1-4.3-4.3V1257.8h36.4Z"/><path class="cls-58" d="M1433.93,1311.4a25.6,25.6,0,1,1,40.8-20.6,25.42,25.42,0,0,1-10.4,20.6l3.5,6.1a2.85,2.85,0,0,1-4.9,2.9l-3.5-6.1a26.11,26.11,0,0,1-7.4,2v7a2.8,2.8,0,0,1-5.6,0v-7a26.11,26.11,0,0,1-7.4-2l-3.5,6.1a2.85,2.85,0,0,1-4.9-2.9Z"/><path id="SVGID-7" data-name="SVGID" class="cls-14" d="M1467.13,1207.7h-147.3a55.19,55.19,0,0,0-48.1,28.1l-17.6,31.1,35.6,20.1,8.8-15.6a4.69,4.69,0,0,1,8.1-.1h0a43,43,0,0,0,22,19.8,25,25,0,0,1,15.7,23.2v45.1a4.27,4.27,0,0,0,4.3,4.3h5a4.27,4.27,0,0,0,4.3-4.3v-65.1h90.4a24.58,24.58,0,0,1,24.6,24.6v39.8a5.12,5.12,0,0,0,5.1,5.1h3.5a5.12,5.12,0,0,0,5.1-5.1v-88l4.9-34.7A24.73,24.73,0,0,0,1467.13,1207.7Z"/><g class="cls-64"><path class="cls-23" d="M1484.33,1243.8h0a16.37,16.37,0,0,0,16.3-16.3v-35a16.37,16.37,0,0,0-16.3-16.3h0a16.37,16.37,0,0,0-16.3,16.3v35A16.43,16.43,0,0,0,1484.33,1243.8Z"/><path class="cls-23" d="M1458.43,1256.5h0a19.38,19.38,0,0,0,19.3-19.3v-41.6a19.38,19.38,0,0,0-19.3-19.3h0a19.38,19.38,0,0,0-19.3,19.3v41.6A19.38,19.38,0,0,0,1458.43,1256.5Z"/><path class="cls-23" d="M1410.83,1273.4h0a9.82,9.82,0,0,0-9.8,9.8v21.1a9.82,9.82,0,0,0,9.8,9.8h0a9.82,9.82,0,0,0,9.8-9.8v-21.1A9.82,9.82,0,0,0,1410.83,1273.4Z"/><path class="cls-23" d="M1426.43,1265.7h0a11.61,11.61,0,0,0-11.6,11.6v25.1a11.61,11.61,0,0,0,11.6,11.6h0a11.61,11.61,0,0,0,11.6-11.6v-25.1A11.67,11.67,0,0,0,1426.43,1265.7Z"/><path class="cls-23" d="M1260.93,1232.9h0a10.88,10.88,0,0,0,10.8,10.8H1295a10.88,10.88,0,0,0,10.8-10.8h0a10.88,10.88,0,0,0-10.8-10.8h-23.3A10.75,10.75,0,0,0,1260.93,1232.9Z"/><path class="cls-23" d="M1358.13,1321.4h0a10.88,10.88,0,0,0,10.8-10.8v-23.3a10.88,10.88,0,0,0-10.8-10.8h0a10.88,10.88,0,0,0-10.8,10.8v23.3A10.82,10.82,0,0,0,1358.13,1321.4Z"/><path class="cls-23" d="M1357.93,1178.7h0a12.65,12.65,0,0,1,9.6,4.4,15.12,15.12,0,0,1,24.3,4.2h17.1a12.72,12.72,0,0,1,12.7,12.7h0a12.72,12.72,0,0,1-12.7,12.7h-2.3a13.36,13.36,0,0,0-13.3,13.3h0a15.25,15.25,0,0,1-14.6,15.4,15.09,15.09,0,0,1-15-11.3,12,12,0,0,1-5.7,1.4h0a12.72,12.72,0,0,1-12.7-12.7v-27.4A12.57,12.57,0,0,1,1357.93,1178.7Z"/></g><g class="cls-64"><path class="cls-57" d="M1267.13,1258.1l29.5,5.7a6.1,6.1,0,0,1,4.7,7.5l-10.3,38.9a9.6,9.6,0,0,1-4.8,6.1,10.28,10.28,0,0,1-6.5,1.1c.3-2.2-3.1-4.6-7.7-5.5s-8.7.1-9.2,2.2a10.29,10.29,0,0,1-5.6-3.3,9.51,9.51,0,0,1-2.2-7.5l4.9-40A6.11,6.11,0,0,1,1267.13,1258.1Z"/></g><g class="cls-64"><path class="cls-57" d="M1263.23,1258.6s-2.9,5-7.6,5.4l-3.8,5.7,37.8,17.3s12.7-17.8,15.9-17.6c0,0-1.2-3.8-7.5-5.4C1291.93,1262.7,1263.23,1258.6,1263.23,1258.6Z"/></g><path class="cls-23" d="M1297.33,1287.8l12.4,6h0a14.89,14.89,0,0,0-6.9-19.9l-12.4-6h0A14.89,14.89,0,0,0,1297.33,1287.8Z"/><path class="cls-57" d="M1246.23,1277.9l-13.7,1h0a14.89,14.89,0,0,1,13.8-15.9l13.7-1h0A14.89,14.89,0,0,1,1246.23,1277.9Z"/><path id="SVGID-8" data-name="SVGID" class="cls-14" d="M1260.53,1262.1l29.5,5.7a6.1,6.1,0,0,1,4.7,7.5l-10.3,38.9a9.6,9.6,0,0,1-4.8,6.1,10.28,10.28,0,0,1-6.5,1.1c.3-2.2-3.1-4.6-7.7-5.5s-8.7.1-9.2,2.2a10.29,10.29,0,0,1-5.6-3.3,9.51,9.51,0,0,1-2.2-7.5l4.9-40A6,6,0,0,1,1260.53,1262.1Z"/><g class="cls-65"><circle class="cls-23" cx="1285.23" cy="1308.1" r="22.2"/></g><ellipse class="cls-14" cx="1279.32" cy="1294.08" rx="1.4" ry="2.6" transform="translate(-233.74 2305) rotate(-79.08)"/><ellipse class="cls-23" cx="1261.06" cy="1290.55" rx="1.4" ry="2.6" transform="translate(-245.08 2284.21) rotate(-79.08)"/><path id="SVGID-9" data-name="SVGID" class="cls-58" d="M1251,1315.2a5.92,5.92,0,0,0,6.9,1.2,12.8,12.8,0,0,1,7.5-.5,13.1,13.1,0,0,1,6.8,3.2,5.75,5.75,0,0,0,6.6,1.6,2.52,2.52,0,0,0,.7-.4c-1.5,4.7-8.5,7.3-16.1,5.8s-13.1-6.4-12.8-11.3Z"/><g class="cls-66"><circle class="cls-44" cx="1267.23" cy="1325.9" r="2"/></g><g class="cls-66"><circle class="cls-44" cx="1259.93" cy="1324.5" r="2"/></g><path class="cls-57" d="M1574.23,1398.1h-5.6a24.75,24.75,0,0,0-24.7,24.7v86.4a2.79,2.79,0,0,0,2.8,2.8h0a2.8,2.8,0,0,0,2.8-2.8v-84.8a20.68,20.68,0,0,1,20.7-20.7h4Z"/><path class="cls-57" d="M1593.23,1553.9h-3.7a5.27,5.27,0,0,1-5.3-5.3V1454h14.3v94.6A5.34,5.34,0,0,1,1593.23,1553.9Z"/><path class="cls-57" d="M1695.73,1442.3v38.4h3.1a20.89,20.89,0,0,1,20.9,20.9v47.8a4.59,4.59,0,0,0,4.6,4.6h5.2a4.59,4.59,0,0,0,4.6-4.6v-107h-38.4Z"/><path class="cls-58" d="M1612.73,1498.8a27,27,0,1,0-32,0l-3.7,6.4a3,3,0,1,0,5.2,3l3.7-6.4a25.74,25.74,0,0,0,7.8,2.1v7.4a3,3,0,0,0,6,0v-7.4a25,25,0,0,0,7.8-2.1l3.7,6.4a3,3,0,1,0,5.2-3Z"/><path id="SVGID-10" data-name="SVGID" class="cls-14" d="M1786.23,1389.4h-29.5v.1h-178.9a26.08,26.08,0,0,0-25.8,29.7l5.1,36.6v92.8a5.27,5.27,0,0,0,5.3,5.3h3.7a5.27,5.27,0,0,0,5.3-5.3v-41.9a25.91,25.91,0,0,1,25.9-25.9h95.3v68.6a4.59,4.59,0,0,0,4.6,4.6h5.2a4.59,4.59,0,0,0,4.6-4.6v-47.5a26.42,26.42,0,0,1,16.5-24.5,45.55,45.55,0,0,0,23.2-20.9l12.3-20.6a27.06,27.06,0,0,1,23.3-13.2h3.7v-33.3Z"/><g class="cls-67"><path class="cls-23" d="M1672.63,1409.9h0a10.93,10.93,0,0,1-10.9-10.9v-23.5a10.93,10.93,0,0,1,10.9-10.9h0a10.93,10.93,0,0,1,10.9,10.9V1399A10.93,10.93,0,0,1,1672.63,1409.9Z"/></g><g class="cls-67"><path class="cls-23" d="M1690,1418.4h0a12.93,12.93,0,0,1-12.9-12.9v-27.9a12.93,12.93,0,0,1,12.9-12.9h0a12.93,12.93,0,0,1,12.9,12.9v27.9A12.93,12.93,0,0,1,1690,1418.4Z"/></g><g class="cls-67"><path class="cls-23" d="M1658.73,1458.4h0a10.29,10.29,0,0,1,10.3,10.3V1491a10.29,10.29,0,0,1-10.3,10.3h0a10.29,10.29,0,0,1-10.3-10.3v-22.3A10.35,10.35,0,0,1,1658.73,1458.4Z"/></g><g class="cls-67"><path class="cls-23" d="M1642.23,1450.3h0a12.29,12.29,0,0,1,12.3,12.3v26.5a12.29,12.29,0,0,1-12.3,12.3h0a12.29,12.29,0,0,1-12.3-12.3v-26.5A12.49,12.49,0,0,1,1642.23,1450.3Z"/></g><g class="cls-67"><path class="cls-23" d="M1756.63,1452.7h0a10.71,10.71,0,0,1-10.7,10.7h-23.1a10.71,10.71,0,0,1-10.7-10.7h0a10.71,10.71,0,0,1,10.7-10.7h23.1A10.71,10.71,0,0,1,1756.63,1452.7Z"/></g><g class="cls-67"><path class="cls-23" d="M1580.33,1474.2h0a11.39,11.39,0,0,1-11.4,11.4h-24.6a11.4,11.4,0,0,1-11.4-11.4h0a11.39,11.39,0,0,1,11.4-11.4h24.6A11.39,11.39,0,0,1,1580.33,1474.2Z"/></g><g class="cls-67"><path class="cls-23" d="M1565.53,1370.8h0a13.91,13.91,0,0,1,10.5,4.8,16.39,16.39,0,0,1,11.7-4.8,16.74,16.74,0,0,1,14.9,9.4h18.7a13.93,13.93,0,0,1,13.9,13.9h0a13.93,13.93,0,0,1-13.9,13.9h-2.5a14.62,14.62,0,0,0-14.6,14.6h0a16.57,16.57,0,0,1-32.6,4.5,14.53,14.53,0,0,1-6.2,1.5h0a13.93,13.93,0,0,1-13.9-13.9v-30A14.15,14.15,0,0,1,1565.53,1370.8Z"/></g><g class="cls-67"><path class="cls-57" d="M1781.83,1374.3l-31.2,5.5a6.37,6.37,0,0,0-5.1,7.8l10.3,41.2a10.08,10.08,0,0,0,5,6.5c1.5,5,8.8,7.8,16.9,6.4s13.9-6.6,13.7-11.8a10.49,10.49,0,0,0,2.5-7.9l-4.5-42.2A6.48,6.48,0,0,0,1781.83,1374.3Z"/></g><g class="cls-67"><path class="cls-57" d="M1752.23,1414.2l-1-4.2a27.16,27.16,0,0,0-26.3-20.7h0l-2.3-19.2,57.7-1.4,6.1,38.9Z"/></g><path class="cls-57" d="M1759.43,1388.4l-14.5-.4h0a15.67,15.67,0,0,1,16.1-15.3l14.5.4h0A15.67,15.67,0,0,1,1759.43,1388.4Z"/><path class="cls-23" d="M1812,1404l12.4,7.6h0a15.73,15.73,0,0,0-5.2-21.6l-12.4-7.6h0A15.77,15.77,0,0,0,1812,1404Z"/><path id="SVGID-11" data-name="SVGID" class="cls-14" d="M1806.43,1382.2l-30.4-9a6.38,6.38,0,0,0-8,4.7l-9.2,41.5a10.81,10.81,0,0,0,1.5,8.1,10.35,10.35,0,0,0,5.5,4.1c.7-2.2,5.1-2.8,9.9-1.4s8.1,4.3,7.5,6.6a9.91,9.91,0,0,0,6.8-.4,10.23,10.23,0,0,0,5.7-6l14.8-39.8A6.4,6.4,0,0,0,1806.43,1382.2Z"/><g class="cls-68"><path class="cls-23" d="M1779.83,1362.3h0a14.59,14.59,0,0,0-6.2-.4l.7-2.4a8.16,8.16,0,1,0-15.6-4.8l-3.8,13a8.15,8.15,0,0,0,1.7,7.7,9.4,9.4,0,0,1,1.9,8.8l-3,10.3a14.34,14.34,0,0,0,9.6,17.7h0a14.34,14.34,0,0,0,17.7-9.6l6.7-22.6A14.44,14.44,0,0,0,1779.83,1362.3Z"/></g><ellipse class="cls-14" cx="1773.27" cy="1402.81" rx="1.5" ry="2.7" transform="translate(-74.99 2705.24) rotate(-73.52)"/><ellipse class="cls-23" cx="1792.13" cy="1408.44" rx="1.5" ry="2.7" transform="translate(-66.88 2727.35) rotate(-73.52)"/><path id="SVGID-12" data-name="SVGID" class="cls-58" d="M1789.43,1436.5a6.27,6.27,0,0,1-7-2.2,13.41,13.41,0,0,0-6.8-4.1c-3.1-.9-6.1-1-8-.3a6,6,0,0,1-6.9-1.8c-.2-.2-.3-.5-.5-.7-.9,5.1,4.4,10.9,12.3,13.3s15.4.3,17.5-4.4A1.42,1.42,0,0,1,1789.43,1436.5Z"/><g class="cls-69"><circle class="cls-44" cx="1769.03" cy="1438.6" r="2.1"/></g><g class="cls-69"><circle class="cls-44" cx="1776.63" cy="1440.9" r="2.1"/></g><path class="cls-57" d="M1215.73,1376h-3.2a14.4,14.4,0,0,0-14.4,14.4v50.3a1.58,1.58,0,0,0,1.6,1.6h0a1.58,1.58,0,0,0,1.6-1.6v-49.4a12.08,12.08,0,0,1,12.1-12.1h2.3Z"/><path class="cls-57" d="M1226.73,1466.7h-2.2a3.12,3.12,0,0,1-3.1-3.1v-55.1h8.4v55.1A3.12,3.12,0,0,1,1226.73,1466.7Z"/><path class="cls-57" d="M1286.53,1401.7v22.4h1.8a12.18,12.18,0,0,1,12.2,12.2v27.8a2.69,2.69,0,0,0,2.7,2.7h3.1a2.69,2.69,0,0,0,2.7-2.7v-62.4Z"/><path id="SVGID-13" data-name="SVGID" class="cls-14" d="M1339.13,1370.9h-17.2v.1h-104.1a15.18,15.18,0,0,0-15,17.3l3,21.3v54.1a3.12,3.12,0,0,0,3.1,3.1h2.2a3.12,3.12,0,0,0,3.1-3.1v-24.4a15.15,15.15,0,0,1,15.1-15.1h55.5v40a2.69,2.69,0,0,0,2.7,2.7h3.1a2.69,2.69,0,0,0,2.7-2.7v-27.7a15.22,15.22,0,0,1,9.6-14.2,26.36,26.36,0,0,0,13.5-12.2l7.2-12a15.82,15.82,0,0,1,13.6-7.7h2.2v-19.5Z"/><g class="cls-70"><path class="cls-23" d="M1264.93,1411.1h0a6,6,0,0,1,6,6v13a6,6,0,0,1-6,6h0a6,6,0,0,1-6-6v-13A6,6,0,0,1,1264.93,1411.1Z"/></g><g class="cls-70"><path class="cls-23" d="M1255.33,1406.4h0a7.13,7.13,0,0,1,7.1,7.1v15.4a7.13,7.13,0,0,1-7.1,7.1h0a7.13,7.13,0,0,1-7.1-7.1v-15.4A7.06,7.06,0,0,1,1255.33,1406.4Z"/></g><g class="cls-70"><path class="cls-23" d="M1323.63,1404.9h0a6.23,6.23,0,0,1-6.2,6.2h-13.5a6.23,6.23,0,0,1-6.2-6.2h0a6.23,6.23,0,0,1,6.2-6.2h13.5A6.23,6.23,0,0,1,1323.63,1404.9Z"/></g><g class="cls-70"><path class="cls-23" d="M1210.63,1360.1h0a8.18,8.18,0,0,1,6.1,2.8,9.64,9.64,0,0,1,15.5,2.7h10.9a8.13,8.13,0,0,1,8.1,8.1h0a8.13,8.13,0,0,1-8.1,8.1h-1.5a8.49,8.49,0,0,0-8.5,8.5h0a9.88,9.88,0,0,1-9.3,9.9,9.7,9.7,0,0,1-9.6-7.2,8.7,8.7,0,0,1-3.6.9h0a8.13,8.13,0,0,1-8.1-8.1v-17.5A8.09,8.09,0,0,1,1210.63,1360.1Z"/></g><g class="cls-70"><path class="cls-57" d="M1336.63,1362.1l-18.2,3.2a3.82,3.82,0,0,0-3,4.6l6,24a5.93,5.93,0,0,0,2.9,3.8c.9,2.9,5.1,4.6,9.8,3.7s8.1-3.8,8-6.9a5.81,5.81,0,0,0,1.4-4.6l-2.6-24.6A3.64,3.64,0,0,0,1336.63,1362.1Z"/></g><g class="cls-70"><path class="cls-57" d="M1319.33,1385.4l-.6-2.4a15.81,15.81,0,0,0-15.3-12.1h0l-1.4-11.2,33.6-.8,3.5,22.7Z"/></g><path class="cls-57" d="M1323.53,1370.3l-8.5-.2h0a9.1,9.1,0,0,1,9.4-8.9l8.5.2h0A9,9,0,0,1,1323.53,1370.3Z"/><path class="cls-23" d="M1354.23,1379.4l7.2,4.4h0a9.2,9.2,0,0,0-3-12.6l-7.2-4.4h0A9.11,9.11,0,0,0,1354.23,1379.4Z"/><path id="SVGID-14" data-name="SVGID" class="cls-14" d="M1350.93,1366.7l-17.7-5.2a3.77,3.77,0,0,0-4.7,2.8l-5.4,24.1a5.9,5.9,0,0,0,.9,4.7,6,6,0,0,0,3.2,2.4c.4-1.3,3-1.6,5.8-.8s4.7,2.5,4.4,3.8a6,6,0,0,0,4-.2,5.73,5.73,0,0,0,3.3-3.5l8.6-23.2A3.68,3.68,0,0,0,1350.93,1366.7Z"/><g class="cls-71"><path class="cls-23" d="M1351.53,1360.9h0a7.35,7.35,0,0,0-3.6-.2l.4-1.4a4.76,4.76,0,1,0-9.1-2.8l-2.2,7.6a4.86,4.86,0,0,0,1,4.5,5.72,5.72,0,0,1,1.1,5.2l-1.8,6a8.28,8.28,0,0,0,5.6,10.3h0a8.28,8.28,0,0,0,10.3-5.6l3.9-13.2A8.34,8.34,0,0,0,1351.53,1360.9Z"/></g><ellipse class="cls-23" cx="1331.58" cy="1378.68" rx="0.9" ry="1.6" transform="translate(-368.22 2264.41) rotate(-73.52)"/><ellipse class="cls-14" cx="1342.61" cy="1381.92" rx="0.9" ry="1.6" transform="translate(-363.43 2277.31) rotate(-73.52)"/><path id="SVGID-15" data-name="SVGID" class="cls-58" d="M1341,1398.4a3.65,3.65,0,0,1-4.1-1.3,8,8,0,0,0-4-2.4,8.19,8.19,0,0,0-4.6-.2,3.53,3.53,0,0,1-4-1c-.1-.1-.2-.3-.3-.4-.5,3,2.6,6.4,7.1,7.7s9,.2,10.2-2.6C1341.23,1398.3,1341.13,1398.3,1341,1398.4Z"/><g class="cls-72"><circle class="cls-44" cx="1329.23" cy="1399.6" r="1.2"/></g><g class="cls-72"><circle class="cls-44" cx="1333.53" cy="1400.9" r="1.2"/></g></g></g></g></svg>