<svg xmlns="http://www.w3.org/2000/svg" xmlns:xlink="http://www.w3.org/1999/xlink" viewBox="0 0 169 163.74"><defs><style>.cls-1,.cls-13,.cls-4{fill:none;}.cls-2{fill:#abd6dd;}.cls-3{fill:#5a9096;}.cls-4{stroke:#76b2b5;stroke-miterlimit:10;}.cls-5{fill:#fff4dc;}.cls-6{fill:#434264;}.cls-7{clip-path:url(#clip-path);}.cls-8{fill:#e2a079;}.cls-9{fill:#eace92;}.cls-10{fill:#c17d5b;}.cls-11{clip-path:url(#clip-path-2);}.cls-12{clip-path:url(#clip-path-3);}.cls-13{stroke:#c17d5b;stroke-linecap:round;stroke-linejoin:round;stroke-width:0.5px;}.cls-14{fill:#fff;}.cls-15{fill:#c5e9ef;}.cls-16{fill:#76b2b5;}</style><clipPath id="clip-path"><path class="cls-1" d="M159.57,32.05H8.56L19.1,141.94s5,13.88,63.87,13.88,66.16-12.74,66.16-12.74"/></clipPath><clipPath id="clip-path-2"><path class="cls-1" d="M71.25,124.69a7.93,7.93,0,0,1-7.93,7.93h0a7.93,7.93,0,0,1-7.93-7.93V110.6a7.93,7.93,0,0,1,7.93-7.93h0a7.93,7.93,0,0,1,7.93,7.93Z"/></clipPath><clipPath id="clip-path-3"><rect class="cls-1" x="57.15" y="118.53" width="56.96" height="35.23" rx="6.64"/></clipPath></defs><title>Asset 19</title><g id="Layer_2" data-name="Layer 2"><g id="ไอติม"><path class="cls-2" d="M9.23,39.08s22.67,8.17,74.83,8.17,75.51-9.18,75.51-9.18l-9.51,93.67H18.13Z"/><path class="cls-3" d="M19.12,141.51h-.06l-2.52-24.84h.07c.93,8.36,30.79,15.07,67.48,15.07s66.53-6.71,67.46-15.07h0L149,141.93h0c-1.82,7.71-30.19,13.85-64.92,13.85C48.77,155.78,20,149.43,19.12,141.51Z"/><path class="cls-4" d="M151.56,116.27c0,.14,0,.26,0,.4-.93,8.36-30.79,15.07-67.46,15.07S17.54,125,16.61,116.67c0-.14,0-.26,0-.4"/><polyline class="cls-4" points="19.11 141.93 19.06 141.51 16.54 116.67 8.56 38.08"/><polyline class="cls-4" points="159.57 38.08 151.59 116.67 149.02 141.93"/><path class="cls-4" d="M149.13,141.14a3.48,3.48,0,0,1-.09.79c-1.82,7.71-30.19,13.85-64.92,13.85-35.35,0-64.1-6.35-65-14.27,0-.12,0-.24,0-.37"/><path class="cls-5" d="M107.28,68H39s-11.29-.77-11.29,8.47V89s.5,21.36,21.29,21.36h71.42s16.6-.8,16.6-16.05V70.85s-.08-10-13.9-10S107.28,68,107.28,68Z"/><rect class="cls-6" x="37.95" y="81.41" width="5.31" height="19.6"/><path class="cls-6" d="M43.33,87.41s4.75-3.17,8.23.31a5.42,5.42,0,0,1,1.09,3v9.84h-5.9l.12-8.07s-1.1-3.2-3.42-.51-2.14.13-2.14.13Z"/><rect class="cls-6" x="44.89" y="81.82" width="7.76" height="4.49"/><rect class="cls-6" x="54.29" y="81.82" width="6.13" height="15.11"/><rect class="cls-6" x="63.27" y="81.82" width="5.72" height="19.19"/><rect class="cls-6" x="70.62" y="88.76" width="6.13" height="12.25"/><rect class="cls-6" x="70.62" y="88.76" width="8.17" height="4.49"/><rect class="cls-6" x="70.62" y="81.82" width="9.8" height="4.49"/><rect class="cls-6" x="86.96" y="88.76" width="6.13" height="12.66"/><rect class="cls-6" x="103.29" y="81.82" width="5.31" height="19.6"/><rect class="cls-6" x="110.64" y="82.23" width="6.13" height="15.11"/><rect class="cls-6" x="118" y="82.23" width="4.9" height="15.11"/><rect class="cls-6" x="124.12" y="82.23" width="5.72" height="15.52"/><path class="cls-6" d="M60.3,95.48s1.77,1.34,2.93,0a1.55,1.55,0,0,1,1.47,1.58l-.61,2-.86.36a5.18,5.18,0,0,1-3.72,2.08c-2.44-.24-5.07-1.4-5.07-4.4s2.38-3,2.38-3Z"/><path class="cls-6" d="M77.43,86.44s2.4,1.16,2.71,2.93c.06,1.89,0,4.33,0,4.33s0,2.59-3.35,2.9c-2,1.34-.24,4.42-.24,4.42h4.64s5-2.7,5-7.65C86.14,89.45,86,86,84,84c-1.65-1.65-1.41-1.89-3.79-2.38C78.38,82.76,77.43,86.44,77.43,86.44Z"/><path class="cls-6" d="M89.82,81.67v4.64h3.83a6.46,6.46,0,0,1,2.07,4.28c-.06,2.38.19,5.22-2.44,6-1.59,2.08,0,4.84,0,4.84a28,28,0,0,0,3.24,0A7.47,7.47,0,0,0,101.4,95c.37-4.45.07-8.3-.42-9s-1.25-3.36-4.18-4A28.61,28.61,0,0,0,89.82,81.67Z"/><path class="cls-6" d="M103.18,101.46s3.23,1.4,5.49,0"/><path class="cls-6" d="M108.7,81.9a1.85,1.85,0,0,1,1.09-1.27c1-.49,16.72-9.77,16.72-9.77s-.55-3.88-3-4.73c-2.08,1.16-17,9.69-17,9.69l-.44.91-1.17.06V78l-.82.61v.85l-.82.68v1.67"/><path class="cls-6" d="M110.47,97.56s3.68,8.18,9.36,2.44c.86.49,6.3,4.73,10.09-2-5.32-1.34-4.39-1.43-4.39-1.43H114.17Z"/><path class="cls-6" d="M42,78.16h-.55l-2.29-2.77L39,75.22v2.94h-.83V73.72h.54l2.29,2.74.13.19V73.72H42Z"/><path class="cls-6" d="M46.52,76a2.92,2.92,0,0,1-.12.83,2.05,2.05,0,0,1-.37.72,1.86,1.86,0,0,1-1.51.72,1.92,1.92,0,0,1-.89-.2A1.87,1.87,0,0,1,43,77.5a2.23,2.23,0,0,1-.37-.72,2.93,2.93,0,0,1,0-1.66,2.39,2.39,0,0,1,.37-.73,1.85,1.85,0,0,1,.62-.52,2,2,0,0,1,.9-.2,1.92,1.92,0,0,1,.89.2,1.85,1.85,0,0,1,.62.52,2.19,2.19,0,0,1,.37.73A2.92,2.92,0,0,1,46.52,76Zm-.82,0a2,2,0,0,0-.07-.55,1.51,1.51,0,0,0-.22-.48,1.06,1.06,0,0,0-.37-.33,1,1,0,0,0-.52-.13,1,1,0,0,0-.53.13,1.06,1.06,0,0,0-.37.33,1.51,1.51,0,0,0-.22.48,2,2,0,0,0-.07.55,2.1,2.1,0,0,0,.07.56,1.45,1.45,0,0,0,.22.47,1.1,1.1,0,0,0,.38.33,1.11,1.11,0,0,0,1,0,1.06,1.06,0,0,0,.37-.33,1.51,1.51,0,0,0,.22-.48A2.08,2.08,0,0,0,45.7,76Z"/><path class="cls-6" d="M50.81,78.16h-.54L48,75.39l-.12-.17v2.94H47V73.72h.55l2.29,2.74.12.19V73.72h.83Z"/><path class="cls-6" d="M55.34,76a2.93,2.93,0,0,1-.13.83,2.05,2.05,0,0,1-.37.72,2,2,0,0,1-2.39.52,1.7,1.7,0,0,1-.63-.52,2.26,2.26,0,0,1-.38-.72,2.93,2.93,0,0,1,0-1.66,2.64,2.64,0,0,1,.37-.73,2,2,0,0,1,.63-.52,1.92,1.92,0,0,1,.89-.2,2,2,0,0,1,.66.11,1.61,1.61,0,0,1,.52.27,2.16,2.16,0,0,1,.39.41,3.06,3.06,0,0,1,.26.51l-.74.35A1.37,1.37,0,0,0,54,74.7a1,1,0,0,0-.7-.24,1,1,0,0,0-.52.13,1,1,0,0,0-.38.33,1.51,1.51,0,0,0-.22.48,2.51,2.51,0,0,0-.07.55,2.6,2.6,0,0,0,.07.56,1.47,1.47,0,0,0,.23.47,1.06,1.06,0,0,0,.37.33,1.08,1.08,0,0,0,.52.13,1.06,1.06,0,0,0,.45-.09,1,1,0,0,0,.33-.24,1.21,1.21,0,0,0,.24-.35,2.13,2.13,0,0,0,.13-.43H53.32v-.79h2l0,.21C55.33,75.82,55.34,75.89,55.34,76Z"/><path class="cls-6" d="M58.15,75.14a1.27,1.27,0,0,1-.11.54,1.12,1.12,0,0,1-.31.37,1.27,1.27,0,0,1-.44.2,1.77,1.77,0,0,1-.52.07h-.09v1.84h-.83V73.73h.92a2.33,2.33,0,0,1,.53.06,1.35,1.35,0,0,1,.44.2,1.07,1.07,0,0,1,.3.36,1.22,1.22,0,0,1,.11.53Zm-.83-.26a.31.31,0,0,0-.15-.29,1,1,0,0,0-.42-.08h-.07v1h.1a.76.76,0,0,0,.4-.09.37.37,0,0,0,.14-.32Z"/><path class="cls-6" d="M60.93,78.16v-2H59.4v2h-.83V73.72h.83v1.66h1.53V73.72h.83v4.44Z"/><path class="cls-6" d="M66.28,76a2.62,2.62,0,0,1-.13.83,2.05,2.05,0,0,1-.37.72,2,2,0,0,1-2.39.52,1.78,1.78,0,0,1-.63-.52,2.26,2.26,0,0,1-.38-.72,2.93,2.93,0,0,1,0-1.66,2.64,2.64,0,0,1,.37-.73,2,2,0,0,1,.63-.52,2.08,2.08,0,0,1,1.78,0,2,2,0,0,1,.63.52,2.37,2.37,0,0,1,.36.73A2.62,2.62,0,0,1,66.28,76Zm-.82,0a2,2,0,0,0-.08-.55,1.49,1.49,0,0,0-.21-.48,1.06,1.06,0,0,0-.37-.33,1,1,0,0,0-.53-.13,1,1,0,0,0-.52.13,1.1,1.1,0,0,0-.38.33,1.49,1.49,0,0,0-.21.48,2,2,0,0,0-.08.55,2.1,2.1,0,0,0,.08.56,1.27,1.27,0,0,0,.22.47,1.06,1.06,0,0,0,.37.33,1.08,1.08,0,0,0,.52.13,1.12,1.12,0,0,0,.53-.13,1.06,1.06,0,0,0,.37-.33,1.49,1.49,0,0,0,.21-.48A2.09,2.09,0,0,0,65.46,76Z"/><path class="cls-6" d="M69.79,74.35A4,4,0,0,0,69,76.57a3.28,3.28,0,0,0,0,.56,4.7,4.7,0,0,0,.12.51,5.85,5.85,0,0,0,.22.56c.09.19.21.42.34.67l-.65,0a4.94,4.94,0,0,1-.56-1.16,4,4,0,0,1-.18-1.17,3.39,3.39,0,0,1,.19-1.13,5.66,5.66,0,0,1,.54-1.11Z"/><path class="cls-6" d="M72.34,77.08a1.06,1.06,0,0,1-.09.45.88.88,0,0,1-.24.36,1.11,1.11,0,0,1-.36.23,1.13,1.13,0,0,1-.45.09,1.12,1.12,0,0,1-.71-.25,1.73,1.73,0,0,1-.5-.75l.62-.29a1.9,1.9,0,0,0,.16.32.79.79,0,0,0,.15.19.44.44,0,0,0,.15.1.34.34,0,0,0,.14,0,.37.37,0,0,0,.33-.14.62.62,0,0,0,.09-.34.36.36,0,0,0,0-.21l-.14-.16-.19-.13L71,76.46a3.37,3.37,0,0,1-.34-.21,1.16,1.16,0,0,1-.26-.23.92.92,0,0,1-.16-.27,1,1,0,0,1,0-.36,1.09,1.09,0,0,1,.25-.74,1,1,0,0,1,.75-.28,1,1,0,0,1,.56.16,1.54,1.54,0,0,1,.49.54l-.51.41a2.22,2.22,0,0,0-.16-.25.92.92,0,0,0-.14-.14.34.34,0,0,0-.12-.06l-.11,0a.26.26,0,0,0-.25.12.46.46,0,0,0-.07.26.32.32,0,0,0,.06.18.87.87,0,0,0,.17.16l.21.13.23.13.26.17a1.21,1.21,0,0,1,.25.21,1.46,1.46,0,0,1,.17.3A1.21,1.21,0,0,1,72.34,77.08Z"/><path class="cls-6" d="M72.75,78.16V74.4h.71v3.76Z"/><path class="cls-6" d="M77.26,78.16H76.8l-1.94-2.34-.1-.15v2.49h-.71V74.4h.46l1.94,2.32.1.16V74.4h.7Z"/><path class="cls-6" d="M80.67,77.76l-.34.22a1.3,1.3,0,0,1-.3.13,1,1,0,0,1-.28.07,1.36,1.36,0,0,1-.29,0,1.8,1.8,0,0,1-.68-.14,1.76,1.76,0,0,1-.56-.37,1.83,1.83,0,0,1-.39-.55,1.67,1.67,0,0,1-.14-.67v-.4a1.63,1.63,0,0,1,.14-.66,2,2,0,0,1,.39-.55,1.76,1.76,0,0,1,.56-.37,1.82,1.82,0,0,1,1.24,0,2.41,2.41,0,0,1,.65.36l-.38.55a1.86,1.86,0,0,0-.49-.28,1.17,1.17,0,0,0-.35-.06.93.93,0,0,0-.4.09.89.89,0,0,0-.34.23,1.21,1.21,0,0,0-.24.35,1,1,0,0,0-.09.41v.38a.93.93,0,0,0,.09.4,1.27,1.27,0,0,0,.24.33,1.16,1.16,0,0,0,.34.24.93.93,0,0,0,.4.09h.16l.18-.05a1.5,1.5,0,0,0,.22-.11,1.61,1.61,0,0,0,.28-.18Z"/><path class="cls-6" d="M81,78.16V74.41H83v.67H81.73v.73h1.21v.67H81.73v1H83v.66Z"/><path class="cls-6" d="M86.18,78.16V75.08h-.66v-.66h1.36v3.74Z"/><path class="cls-6" d="M90.72,76a1.29,1.29,0,0,1-.06.4,1.7,1.7,0,0,1-.19.35l-.94,1.39h-.84l.62-.91a1,1,0,0,1-.42-.14,1,1,0,0,1-.34-.28,1.33,1.33,0,0,1-.23-.38,1.27,1.27,0,0,1-.08-.44v-.39a1.37,1.37,0,0,1,.1-.48,1.31,1.31,0,0,1,.26-.4,1.38,1.38,0,0,1,.4-.28,1.2,1.2,0,0,1,1,0,1.28,1.28,0,0,1,.4.27,1.41,1.41,0,0,1,.27.4,1.33,1.33,0,0,1,.09.49Zm-.71-.4a.55.55,0,0,0-.16-.42.51.51,0,0,0-.37-.17.53.53,0,0,0-.2,0,.48.48,0,0,0-.17.12.62.62,0,0,0-.12.19.59.59,0,0,0,0,.23V76a.56.56,0,0,0,0,.23.57.57,0,0,0,.12.18.66.66,0,0,0,.17.12.51.51,0,0,0,.2,0,.48.48,0,0,0,.2,0l.17-.11a.57.57,0,0,0,.12-.18A.59.59,0,0,0,90,76Z"/><path class="cls-6" d="M92.27,78.16h-.79l1.4-3.08H91.34v-.66h2.39V75Z"/><path class="cls-6" d="M96.74,75.83a1,1,0,0,1-.07.35,1.37,1.37,0,0,1-.16.32,1.89,1.89,0,0,1-.2.27L96.1,77l-.53.52h1.16v.66h-2.3v-.49l1.13-1.11a4,4,0,0,0,.33-.39.59.59,0,0,0,.14-.35v-.4a.41.41,0,0,0-.13-.28.44.44,0,0,0-.31-.11.39.39,0,0,0-.31.14.78.78,0,0,0-.14.54h-.71a1.8,1.8,0,0,1,.11-.61,1.25,1.25,0,0,1,.26-.42,1,1,0,0,1,.36-.24,1.26,1.26,0,0,1,.43-.08,1.32,1.32,0,0,1,.44.08,1.28,1.28,0,0,1,.37.23,1.16,1.16,0,0,1,.24.34,1,1,0,0,1,.1.43Z"/><path class="cls-6" d="M98.66,76.56a4,4,0,0,1-.18,1.17,4.94,4.94,0,0,1-.56,1.16l-.65,0c.14-.25.25-.48.34-.67a5.85,5.85,0,0,0,.22-.56,4.7,4.7,0,0,0,.12-.51,3.28,3.28,0,0,0,0-.56,3.49,3.49,0,0,0-.19-1.1,4.8,4.8,0,0,0-.58-1.12l.7,0a5.2,5.2,0,0,1,.55,1.11A3.39,3.39,0,0,1,98.66,76.56Z"/><path class="cls-6" d="M125.15,79.39a1.32,1.32,0,0,1-.47-.08,1.25,1.25,0,0,1-.36-.2,1.05,1.05,0,0,1-.22-.3.89.89,0,0,1-.07-.36V77.33a1.23,1.23,0,0,1,.25-.78,1.33,1.33,0,0,1,.64-.48l.45.35.45-.35a1.4,1.4,0,0,1,.64.48,1.32,1.32,0,0,1,.26.77v2H126v-2a.63.63,0,0,0-.21-.48l-.45.35-.45-.34a.8.8,0,0,0-.15.21.75.75,0,0,0,0,.26v1.12a.29.29,0,0,0,.08.18.59.59,0,0,0,.35.09Z"/><path class="cls-6" d="M129.44,78.36a1,1,0,0,1-.09.42,1.06,1.06,0,0,1-.26.33,1.09,1.09,0,0,1-.36.22,1.15,1.15,0,0,1-.41.08,1.08,1.08,0,0,1-.69-.25,1.57,1.57,0,0,1-.44-.71l.59-.27a1.22,1.22,0,0,0,.26.48.42.42,0,0,0,.28.13.49.49,0,0,0,.33-.13.43.43,0,0,0,.14-.31.17.17,0,0,0,0-.12l-.12-.1-.15-.08-.12-.07-.32-.16a1.49,1.49,0,0,1-.3-.18.9.9,0,0,1-.22-.26.68.68,0,0,1-.09-.37,1,1,0,0,1,.27-.68,1,1,0,0,1,.3-.19,1,1,0,0,1,.38-.08,1.1,1.1,0,0,1,.55.16,1.56,1.56,0,0,1,.47.51l-.51.39a1.08,1.08,0,0,0-.28-.36.46.46,0,0,0-.23-.07.29.29,0,0,0-.21.09.29.29,0,0,0-.09.22.15.15,0,0,0,0,.11l.11.08.13.07.1.06.55.28a.89.89,0,0,1,.32.32A.78.78,0,0,1,129.44,78.36Z"/><path class="cls-6" d="M131.73,79.35H131V77.22c0-.33-.15-.49-.46-.49a.69.69,0,0,0-.24,0A1.23,1.23,0,0,0,130,77l-.46-.47a1.84,1.84,0,0,1,.27-.23,1.28,1.28,0,0,1,.25-.14.73.73,0,0,1,.24-.07l.25,0a1.36,1.36,0,0,1,.51.09,1.13,1.13,0,0,1,.36.24,1,1,0,0,1,.21.34,1.1,1.1,0,0,1,.07.41Z"/><g class="cls-7"><rect class="cls-8" x="88.86" y="152" width="18.79" height="5.87" rx="1.99"/><rect class="cls-5" x="57.15" y="118.53" width="56.96" height="35.23" rx="6.64"/><path class="cls-9" d="M71.25,125.87a7.93,7.93,0,0,1-7.93,7.93h0a7.93,7.93,0,0,1-7.93-7.93v-14.1a7.93,7.93,0,0,1,7.93-7.92h0a7.93,7.93,0,0,1,7.93,7.92Z"/><path class="cls-5" d="M71.25,124.69a7.93,7.93,0,0,1-7.93,7.93h0a7.93,7.93,0,0,1-7.93-7.93V110.6a7.93,7.93,0,0,1,7.93-7.93h0a7.93,7.93,0,0,1,7.93,7.93Z"/><path class="cls-8" d="M74.59,123.81c0,2.14-1.29,4.11-2.87,4.11H55.64c-1.58,0-2.87-2-2.87-4.11h0c0-2.14,1.29-4.11,2.87-4.11H71.72c1.58,0,2.87,2,2.87,4.11Z"/><path class="cls-10" d="M62,127.79a1.91,1.91,0,1,1-1.91-1.91A1.91,1.91,0,0,1,62,127.79Z"/><path class="cls-10" d="M68.61,127.79a1.91,1.91,0,1,1-1.91-1.91A1.92,1.92,0,0,1,68.61,127.79Z"/><path class="cls-5" d="M79.47,107.08a2.64,2.64,0,0,1-2.64,2.64h-7a2.64,2.64,0,0,1-2.64-2.64h0a2.65,2.65,0,0,1,2.64-2.65h7a2.65,2.65,0,0,1,2.64,2.65Z"/><path class="cls-6" d="M61.13,118.32c0,1.51-.67,2.74-1.49,2.74s-1.5-1.23-1.5-2.74.67-2.74,1.5-2.74S61.13,116.81,61.13,118.32Z"/><path class="cls-6" d="M68.44,118.32c0,1.51-.67,2.74-1.49,2.74s-1.5-1.23-1.5-2.74.67-2.74,1.5-2.74S68.44,116.81,68.44,118.32Z"/><g class="cls-11"><path class="cls-6" d="M62,101.13s0,.25-.07.66a9.24,9.24,0,0,0,1.74,6c2.32,3.15,3.15,3,3.07,4.15s-.09,2,1.91,2.65,2.32,1,4.32,0,2.49-6.41,2.49-6.41.83-4.38-1.33-5.54-6-3.49-7.14-3.49"/></g><path class="cls-5" d="M60.68,109.43A2.65,2.65,0,0,1,58,112.07H51a2.64,2.64,0,0,1-2.64-2.64h0A2.65,2.65,0,0,1,51,106.78h7a2.65,2.65,0,0,1,2.65,2.65Z"/><rect class="cls-5" x="57.15" y="147.3" width="6.46" height="15.86" rx="1.99"/><rect class="cls-5" x="78.88" y="147.89" width="6.46" height="15.86" rx="1.99"/><path class="cls-5" d="M114.12,161.09a2.07,2.07,0,0,1-2,2.07h-2.66a1.91,1.91,0,0,1-1.8-2.07v-12a1.7,1.7,0,0,1,1.8-1.83h2.66a1.87,1.87,0,0,1,2,1.83Z"/><g class="cls-12"><path class="cls-6" d="M73.51,117.44s.62,4,3.94,5,4.3.32,6,1.48,4,1.66,6.13,5,8.47,7.31,10.63,7.31,3,1.49,6-1,1.17-2.33,3-4.65,4.15-3.87,5.81-3.52,2.5-2,2.5-4.62-3.33-6.78-3.33-6.94-9.46-2.8-10-2.8H86.88Z"/><path class="cls-6" d="M67.11,155.77c-.66-1.16-3-2.49-4-4.81a17,17,0,0,1-1-6c0-.5,2.49-5.82,2.49-5.82s5,.34,5.32.67a33.1,33.1,0,0,0,3.57,4.48c2.4,2.49,3.24,2.16,5.06,3.49s3,1.16,3,3.16,1.16,3.82,0,4.15-2.49,1.33-4.32,2-1,1.33-3.73.83A34.34,34.34,0,0,1,67.11,155.77Z"/><path class="cls-6" d="M101,153.78s-6.47-.17-7-1a32.38,32.38,0,0,1-1.33-5l1.16-4.32s5.65-.16,5.81,1a7.58,7.58,0,0,0,2.33,4.16c1.16.82,4.48-1.5,5,1.82a5.85,5.85,0,0,1-2.32,5.31Z"/></g><path class="cls-6" d="M82,153.78a11.27,11.27,0,0,1-.57,3.65c-.55,1.11-.55,2.11-1.55,2.33s-1,.55-1,.55l-.11-7"/><path class="cls-8" d="M91.8,159.05a.58.58,0,0,1-.59.58h0a.58.58,0,0,1-.58-.58v-1.76a.58.58,0,0,1,.58-.59h0a.58.58,0,0,1,.59.59Z"/><path class="cls-8" d="M96.5,159.05a.58.58,0,0,1-.59.58h0a.59.59,0,0,1-.59-.58v-1.76a.59.59,0,0,1,.59-.59h0a.58.58,0,0,1,.59.59Z"/><path class="cls-8" d="M101.78,159.05a.58.58,0,0,1-.58.58h0a.58.58,0,0,1-.59-.58v-1.76a.58.58,0,0,1,.59-.59h0a.58.58,0,0,1,.58.59Z"/><path class="cls-5" d="M113.66,131.33l.24.08.24.08c.34.11-.24-.13.12,0s.56.29.83.45c.06,0,.38.26.18.11a4.08,4.08,0,0,1,.43.39,1.74,1.74,0,0,1,.47,1.57c-.08,1.06-.23,2.13-.35,3.19-.47,4.19-.75,9.84,3.7,12.07,2,1,4.65.71,5.31-1.73a1.7,1.7,0,0,0-3.27-.9c-.12.41.31-.35.06-.06.11-.13.22-.09.07-.1.6.05-.49-.1,0,0-.07,0-.62-.18-.4-.1a3.57,3.57,0,0,1-1.87-1.91c-1-2.25-.48-5.17-.21-7.52s.78-4.79-1-6.77a7.83,7.83,0,0,0-3.65-2.16,1.7,1.7,0,0,0-.91,3.27Z"/><path class="cls-13" d="M48.52,110.36a2.64,2.64,0,0,1,2-3.54c3.51,0,5.82,0,5.82,0s1.86-4,5.59-4"/><path class="cls-13" d="M68.62,104.7s.29-.27,1.54-.27h6.92a2.62,2.62,0,0,1,2.39,2.65c0,2.43-2.58,2.64-2.58,2.64H71.2"/></g><path class="cls-14" d="M168.5,16.5v15c0,8.84-38.38,16-84.5,16S.5,40.34.5,31.5l1-15c0,8.84,37.38,16,83.5,16S168.5,25.34,168.5,16.5Z"/><ellipse class="cls-14" cx="85" cy="16.5" rx="83.5" ry="16"/><ellipse class="cls-4" cx="85" cy="16.5" rx="83.5" ry="16"/><path class="cls-4" d="M168.5,16.5v15c0,8.84-38.38,16-84.5,16S.5,40.34.5,31.5l1-15"/><ellipse class="cls-15" cx="83.93" cy="15.85" rx="62.81" ry="11.73"/><path class="cls-16" d="M83.77,4.12C49.16,4.2,21.12,9.51,21.13,16c0,1.05.76,2.07,2.16,3,8.34-4.65,31.76-8,59.36-8.1,29-.07,53.35,3.55,60.54,8.52,2.11-1.18,3.27-2.44,3.27-3.75C146.45,9.21,118.38,4,83.77,4.12Z"/></g></g></svg>