<svg xmlns="http://www.w3.org/2000/svg" xmlns:xlink="http://www.w3.org/1999/xlink" viewBox="0 0 190.83 246.25"><defs><style>.cls-1,.cls-12,.cls-3{fill:#fff;}.cls-1,.cls-7{stroke:#95bec8;}.cls-1,.cls-6,.cls-7{stroke-miterlimit:10;stroke-width:0.65px;}.cls-2{fill:#434264;}.cls-4{clip-path:url(#clip-path);}.cls-5{fill:#c5e9ef;}.cls-6,.cls-7{fill:none;}.cls-6{stroke:#c5e9ef;}.cls-8{clip-path:url(#clip-path-2);}.cls-9{clip-path:url(#clip-path-3);}.cls-10{fill:#e2a079;}.cls-11{fill:#e97625;}.cls-12{opacity:0.33;}</style><clipPath id="clip-path"><path class="cls-1" d="M166.41,17.46H11.62l7.45,184.59h0c.65,9.45,31.69,17.07,69.92,17.07s69.27-7.62,69.91-17.07h0Z"/></clipPath><clipPath id="clip-path-2"><path class="cls-1" d="M173,17.46H5l6.62,36.42h.05a3.31,3.31,0,0,0-.05.55C11.62,64,46.28,71.8,89,71.8S166.41,64,166.41,54.43a3.31,3.31,0,0,0,0-.55h0Z"/></clipPath><clipPath id="clip-path-3"><path class="cls-2" d="M89,0C41.48,0,2.93,8,2.93,17.8c0,1.93,1.48,3.78,4.21,5.52a4.35,4.35,0,0,1,2,4.21c-.46,3.68.09,10,8.25,12.85C29.23,44.52,44.4,33,44.4,33h0A363.24,363.24,0,0,0,89,35.61c47.54,0,86.09-8,86.09-17.81S136.56,0,89,0Z"/></clipPath></defs><title>Asset 11</title><g id="Layer_2" data-name="Layer 2"><g id="โยเกิตไทยเดน"><path class="cls-3" d="M166.41,17.46H11.62l7.45,184.59h0c.65,9.45,31.69,17.07,69.92,17.07s69.27-7.62,69.91-17.07h0Z"/><g class="cls-4"><ellipse class="cls-5" cx="89.43" cy="58.96" rx="77.39" ry="17.38"/><circle class="cls-3" cx="14.52" cy="94.85" r="3.31"/><path class="cls-3" d="M126.18,235.77a113.15,113.15,0,0,1-19.4.26,95.11,95.11,0,0,1-19.31-3.56A64.38,64.38,0,0,1,78.11,229a54.17,54.17,0,0,1-8.85-5.1,32.13,32.13,0,0,1-7.52-7.6,23,23,0,0,1-2.56-5.1,19.33,19.33,0,0,1-1-5.82,19.71,19.71,0,0,1,1-5.83,23.12,23.12,0,0,1,2.56-5.09,31.62,31.62,0,0,1,7.53-7.6,54.17,54.17,0,0,1,8.85-5.1,65.9,65.9,0,0,1,9.35-3.49,95.11,95.11,0,0,1,19.31-3.56,112.14,112.14,0,0,1,19.4.26v.39a119.35,119.35,0,0,0-37.72,5.83,61.23,61.23,0,0,0-17,8.61,29.35,29.35,0,0,0-6.58,6.77,19.83,19.83,0,0,0-2.07,4.21,14.45,14.45,0,0,0,0,9.19,19.18,19.18,0,0,0,2.08,4.21,29.11,29.11,0,0,0,6.57,6.77,61.23,61.23,0,0,0,17,8.61,119.07,119.07,0,0,0,37.72,5.83Z"/><path class="cls-3" d="M106.66,184.34a64,64,0,0,1,27,1.5,41.32,41.32,0,0,1,6.6,2.37,37.6,37.6,0,0,1,6.3,3.55,22.83,22.83,0,0,1,5.45,5.47,17.3,17.3,0,0,1,1.9,3.77,14.46,14.46,0,0,1,.76,4.36,14.77,14.77,0,0,1-.76,4.35,17.3,17.3,0,0,1-1.9,3.77,22.65,22.65,0,0,1-5.45,5.47,38,38,0,0,1-6.3,3.55,43.7,43.7,0,0,1-6.6,2.36,64.34,64.34,0,0,1-27,1.52V226a82.25,82.25,0,0,0,26-4A42.14,42.14,0,0,0,144.28,216a20.1,20.1,0,0,0,4.51-4.65,13.65,13.65,0,0,0,1.41-2.87,10.79,10.79,0,0,0,.51-3.13,11.08,11.08,0,0,0-.51-3.13,13.07,13.07,0,0,0-1.42-2.88,20,20,0,0,0-4.5-4.65,42.14,42.14,0,0,0-11.65-5.93,82.25,82.25,0,0,0-26-4Z"/><path class="cls-3" d="M114.11,220a40.77,40.77,0,0,1-19-.3,27.59,27.59,0,0,1-4.72-1.59,27.31,27.31,0,0,1-4.57-2.5,16.61,16.61,0,0,1-4-4,12.82,12.82,0,0,1-1.46-2.86,9.81,9.81,0,0,1,0-6.73,12.94,12.94,0,0,1,1.45-2.85,16.26,16.26,0,0,1,4-4,27.71,27.71,0,0,1,4.57-2.5A28.49,28.49,0,0,1,95.13,191a40.77,40.77,0,0,1,19-.3v.39a64.57,64.57,0,0,0-9.11.74A49.7,49.7,0,0,0,96.14,194a29,29,0,0,0-8.06,4.09,14,14,0,0,0-3.09,3.2,9.17,9.17,0,0,0-1,2,7.43,7.43,0,0,0-.35,2.14,7.72,7.72,0,0,0,.35,2.13,9.17,9.17,0,0,0,1,2,14,14,0,0,0,3.09,3.2,29,29,0,0,0,8.06,4.09,49.7,49.7,0,0,0,8.86,2.12,63.11,63.11,0,0,0,9.11.74Z"/><path class="cls-3" d="M109,197.46a18.35,18.35,0,0,1,10.55-1,14.66,14.66,0,0,1,5.48,2.19c.22.15.45.31.67.48l.66.59a11.44,11.44,0,0,1,1.24,1.4,7.23,7.23,0,0,1,0,8.47,10.71,10.71,0,0,1-1.25,1.4l-.65.59c-.22.17-.45.32-.68.48a14.72,14.72,0,0,1-5.47,2.19,18.61,18.61,0,0,1-10.55-1v-.4a32.25,32.25,0,0,0,9.53-1.58,15,15,0,0,0,4.24-2.17,7.23,7.23,0,0,0,1.61-1.66,4.23,4.23,0,0,0,.67-2.09,4.17,4.17,0,0,0-.67-2.09,7.23,7.23,0,0,0-1.61-1.66,15.07,15.07,0,0,0-4.24-2.18,32.58,32.58,0,0,0-9.53-1.58Z"/><path class="cls-3" d="M30.91,194.28a44.81,44.81,0,0,1-17.54-1.37A27.3,27.3,0,0,1,5.09,189a14.62,14.62,0,0,1-3.45-3.48,11.15,11.15,0,0,1-1.18-2.34,8,8,0,0,1,0-5.37,10.27,10.27,0,0,1,1.18-2.34A14,14,0,0,1,5.09,172a27.2,27.2,0,0,1,8.28-3.89,44.81,44.81,0,0,1,17.54-1.37V167a54,54,0,0,0-17,2.64,27.73,27.73,0,0,0-7.67,3.89,13.42,13.42,0,0,0-3,3.06,9.08,9.08,0,0,0-.94,1.9,6.5,6.5,0,0,0,0,4.15,9,9,0,0,0,.94,1.89,13,13,0,0,0,3,3.06,27.73,27.73,0,0,0,7.67,3.89,53.75,53.75,0,0,0,17,2.64Z"/><path class="cls-3" d="M22.09,171a33.34,33.34,0,0,1,6.09-.38,28.82,28.82,0,0,1,6.14,1,18.72,18.72,0,0,1,5.88,2.68c.23.17.46.33.68.51l.64.61a10.74,10.74,0,0,1,1.19,1.38,6.36,6.36,0,0,1,0,7.53,10,10,0,0,1-1.18,1.38l-.64.61c-.22.18-.46.34-.69.5a18.52,18.52,0,0,1-5.88,2.68,28.65,28.65,0,0,1-6.13,1,34.25,34.25,0,0,1-6.09-.38v-.2a45.41,45.41,0,0,0,5.94-.45A33.68,33.68,0,0,0,33.82,188a18.74,18.74,0,0,0,5.25-2.68,9,9,0,0,0,2-2.09,4.64,4.64,0,0,0,0-5.41,9,9,0,0,0-2-2.09,18.48,18.48,0,0,0-5.25-2.68,34.66,34.66,0,0,0-5.79-1.4,47.2,47.2,0,0,0-5.94-.44Z"/><path class="cls-3" d="M25.46,187.15a18,18,0,0,1-8.62,0,12.85,12.85,0,0,1-4.26-1.85,7.8,7.8,0,0,1-1.87-1.85,5.6,5.6,0,0,1-1-2.91,5.75,5.75,0,0,1,1-2.9,7.65,7.65,0,0,1,1.88-1.85,12.71,12.71,0,0,1,4.25-1.85,18,18,0,0,1,8.62,0v.19a26,26,0,0,0-8.13,1.29,13.13,13.13,0,0,0-3.63,1.86,6.38,6.38,0,0,0-1.4,1.44,3.22,3.22,0,0,0,0,3.69,6.82,6.82,0,0,0,1.4,1.44,13.13,13.13,0,0,0,3.63,1.86A26,26,0,0,0,25.46,187Z"/><path class="cls-3" d="M23.13,176.94a8,8,0,0,1,4.81-.56,6.73,6.73,0,0,1,2.53,1,4.36,4.36,0,0,1,1.2,1.16,3.35,3.35,0,0,1,0,4,4.67,4.67,0,0,1-1.2,1.16,6.7,6.7,0,0,1-2.53,1,8,8,0,0,1-4.81-.56v-.19a13.62,13.62,0,0,0,4.31-.71,6.54,6.54,0,0,0,1.91-1,1.9,1.9,0,0,0,0-3.37,6.54,6.54,0,0,0-1.91-1,13.62,13.62,0,0,0-4.31-.71Z"/><path class="cls-2" d="M164.32,128.79a75.32,75.32,0,0,1-150.6,0H2.93V236.4h187.9V128.79Z"/><path class="cls-6" d="M47.05,162.64a14.61,14.61,0,0,1,4.33,2c.82.62,2.2,2.67,1.53,3.79-.26.44-.86.46-1.36.53a4.35,4.35,0,0,0-1.32.38,1.62,1.62,0,0,0-1.06,1.33c0,1.25,3.75,3.33,4.88,3.83a16.24,16.24,0,0,0,8.55,1.33,2.46,2.46,0,0,0,1.66-.69c.44-.53.41-1.3.65-1.94.7-1.84,3.16-2.09,5.12-2l17.52.53c5.38.17,10.88.7,16.17-.52a11.71,11.71,0,0,1,2.86-.47,3.09,3.09,0,0,1,2.54,1.17c1.87,2.73-2.22,2.25-3.48,2.75a3.13,3.13,0,0,0-2,2.06c-.4,1.82,1.42,3.33,3.1,4.12a20.09,20.09,0,0,0,12.53,1.64,16.46,16.46,0,0,0,10.44-6.93c1.05-1.61,1.78-3.41,2.86-5,2.41-3.56,6.18-5.51,9.5-8.05a98.64,98.64,0,0,1,11.55-7.75,57.38,57.38,0,0,1,12.48-5.36,41.93,41.93,0,0,1,6.56-1.34c.74-.08,6.13-.84,6.46-.2,5.87,11.71,9.2,24.94,7.87,38-.75,7.31-2.92,14.38-5.08,21.4a48.76,48.76,0,0,1-4.42,11.07c-3.16,5.23-8.17,9.09-13.46,12.15-9.58,5.55-20.3,8.81-31,11.61-7.58,2-15.29,3.78-23.13,3.94-7.5.15-15-1.19-22.34-2.53l-38.07-6.89c-10.35-1.88-20.85-3.8-30.32-8.38-4.07-2-8-4.54-10.42-8.37-2.14-3.44-2.81-7.57-3.09-11.61A72.45,72.45,0,0,1,7.2,187.26c1.29-5.82,3.31-11.59,3.15-17.55-.08-3.36-.86-6.68-.89-10.05,0-3.68.92-10.53,4.15-12.95,3.87-2.9,6.85,2.28,9.4,4.54C29.72,157.19,38.7,159.92,47.05,162.64Z"/><path class="cls-5" d="M140.26,172.85a16.14,16.14,0,0,0,4.43-3.08,6.3,6.3,0,0,0,1.84-4.92.65.65,0,0,0-.16-.41.61.61,0,0,0-.29-.11c-1.75-.35-3.41.78-4.84,1.85L137.53,169c-1.15.86-4.25,2.94-3.25,4.7C135.48,175.78,139,173.53,140.26,172.85Z"/><path class="cls-5" d="M56.44,187.28a3.67,3.67,0,0,1-1.54-1.53,1.29,1.29,0,0,1,.75-1.77,1.9,1.9,0,0,1,1.21.37A47.38,47.38,0,0,0,68.31,189a59.18,59.18,0,0,1,5.74,1.54,3,3,0,0,1,1.39.85c1.7,2.15-2,1.38-2.77,1.41-1.7.07-2.86.5-4.69.09C63.78,191.91,60,189.61,56.44,187.28Z"/><path class="cls-5" d="M95.08,176.05a6.43,6.43,0,0,0,1.86-.18c.35-.11.73-.33.78-.7a.82.82,0,0,0-.62-.81,3.23,3.23,0,0,0-1.12,0c-1.09.06-8.55-1.64-8.14.91C88.09,176.74,94.08,176.05,95.08,176.05Z"/><path class="cls-5" d="M37.54,161.58a1.65,1.65,0,0,0-.9-.09.65.65,0,0,0-.54.63.91.91,0,0,0,.24.49,9.68,9.68,0,0,0,5.58,3.58,5,5,0,0,0,3-.24c.31-.14.62-.36.65-.69.1-1.06-3-1.51-3.69-1.8C40.42,162.85,39.05,162,37.54,161.58Z"/></g><path class="cls-7" d="M166.41,17.46H11.62l7.45,184.59h0c.65,9.45,31.69,17.07,69.92,17.07s69.27-7.62,69.91-17.07h0Z"/><path class="cls-3" d="M173,17.46H5l6.62,36.42h.05a3.31,3.31,0,0,0-.05.55C11.62,64,46.28,71.8,89,71.8S166.41,64,166.41,54.43a3.31,3.31,0,0,0,0-.55h0Z"/><g class="cls-8"><path class="cls-5" d="M89,2.48c-47.54,0-86.09,8-86.09,17.81,0,1.92,1.48,3.78,4.21,5.51A4.36,4.36,0,0,1,9.1,30c-.46,3.67.09,10,8.25,12.84C29.23,47,44.4,35.51,44.4,35.51h0A363.24,363.24,0,0,0,89,38.09c47.54,0,86.09-8,86.09-17.8S136.56,2.48,89,2.48Z"/></g><path class="cls-7" d="M173,17.46H5l6.62,36.42h.05a3.31,3.31,0,0,0-.05.55C11.62,64,46.28,71.8,89,71.8S166.41,64,166.41,54.43a3.31,3.31,0,0,0,0-.55h0Z"/><path class="cls-2" d="M89,0C41.48,0,2.93,8,2.93,17.8c0,1.93,1.48,3.78,4.21,5.52a4.35,4.35,0,0,1,2,4.21c-.46,3.68.09,10,8.25,12.85C29.23,44.52,44.4,33,44.4,33h0A363.24,363.24,0,0,0,89,35.61c47.54,0,86.09-8,86.09-17.81S136.56,0,89,0Z"/><g class="cls-9"><ellipse class="cls-3" cx="87.78" cy="15.8" rx="64.56" ry="9.11"/></g><path class="cls-2" d="M128.16,104.52c-2.44,6.15-16,15.17-43.15,12.81s-35.13,8.42-35.13,8.42v17.38s7.94-10.78,35.13-8.42,40.71-6.65,43.15-12.81Z"/><path class="cls-10" d="M77.87,167.58a1.64,1.64,0,0,1-.19-1l.13-3.32a1.67,1.67,0,0,0-.21-1,1.53,1.53,0,0,0-.76-.56l0-.83,2.95.12,0,.85-1.59-.06a1.29,1.29,0,0,1,.54.6,2.09,2.09,0,0,1,.13,1l-.12,3.19a.53.53,0,0,0,.08.36.44.44,0,0,0,.34.1l.46,0,0,.86-.92,0A.94.94,0,0,1,77.87,167.58Z"/><path class="cls-10" d="M80.79,167.69a1.4,1.4,0,0,1-.63-1.29,1.38,1.38,0,0,1,.21-.71,1.26,1.26,0,0,1,.56-.48,1.12,1.12,0,0,1-.51-.43,1.25,1.25,0,0,1-.17-.71,1.44,1.44,0,0,1,.48-1.14,1.79,1.79,0,0,1,1.23-.37,2.72,2.72,0,0,1,.87.15l0,.82a2.59,2.59,0,0,0-.67-.09c-.56,0-.84.2-.85.65s.29.72.91.73h.57l0,.81-.63,0c-.63,0-1,.26-1,.81a.66.66,0,0,0,.33.61,1.94,1.94,0,0,0,1,.23,1.67,1.67,0,0,0,1.06-.25,1,1,0,0,0,.37-.85l.08-3.46,1.08,0-.08,3.32a2.07,2.07,0,0,1-.65,1.6,2.7,2.7,0,0,1-1.83.48A3.51,3.51,0,0,1,80.79,167.69Z"/><path class="cls-10" d="M86.3,167.08l0-4.33h1.07l0,4.06a.38.38,0,0,0,.43.45h.45v.85h-.93A.91.91,0,0,1,86.3,167.08Z"/><path class="cls-10" d="M89.41,166.21a1.13,1.13,0,0,1,.78-1.23l-1.07-.27V163.6a3.87,3.87,0,0,1,2.57-.92,2.83,2.83,0,0,1,1.84.5,2,2,0,0,1,.62,1.62v3.33H93.07v-3.36a1.22,1.22,0,0,0-.32-1,1.72,1.72,0,0,0-1.1-.27,2.71,2.71,0,0,0-.91.15,1.63,1.63,0,0,0-.68.37v.17l1.13.29v.71a1,1,0,0,0-.54.32,1.11,1.11,0,0,0-.16.66v1.93H89.42Z"/><path class="cls-10" d="M90,161.24l4.09,0V162L90,162Z"/><path class="cls-10" d="M96.14,168.14a2.94,2.94,0,0,1-.8-.19l0-.9a4,4,0,0,0,.81.21,4.89,4.89,0,0,0,.83.07,3,3,0,0,0,1-.15.51.51,0,0,0,.3-.52.62.62,0,0,0-.13-.38.81.81,0,0,0-.33-.23c-.14-.06-.36-.13-.65-.22l-.39-.12a3.7,3.7,0,0,1-1.23-.59,1.14,1.14,0,0,1-.42-.93,1.33,1.33,0,0,1,.53-1.14,2.78,2.78,0,0,1,1.6-.43,6.77,6.77,0,0,1,.89.06,4.94,4.94,0,0,1,.75.15l0,.9a3.44,3.44,0,0,0-.72-.18,4.09,4.09,0,0,0-.76-.05,2.32,2.32,0,0,0-1,.15.48.48,0,0,0-.31.49.45.45,0,0,0,.14.35,1.06,1.06,0,0,0,.36.23l.71.24.29.08a3.39,3.39,0,0,1,1.24.61,1.44,1.44,0,0,1-.16,2.14,3,3,0,0,1-1.6.4A6.9,6.9,0,0,1,96.14,168.14Z"/><path class="cls-10" d="M96.58,160.48l2.92-.07,0,.76-2,.05v.69l-.89,0Z"/><path class="cls-10" d="M100.76,167.44a3,3,0,0,1-.66-2,4,4,0,0,1,.38-2.13,1.54,1.54,0,0,1,1.92-.68,1.41,1.41,0,0,1,.45.37,1.88,1.88,0,0,1,.54-.39,1.84,1.84,0,0,1,.68-.17,1.21,1.21,0,0,1,1,.35,1.56,1.56,0,0,1,.37,1.05l.14,4-1.08,0-.14-3.86a1,1,0,0,0-.13-.56.44.44,0,0,0-.42-.15.62.62,0,0,0-.37.13.69.69,0,0,0-.23.35l-.59,0a1.64,1.64,0,0,0-.27-.35.65.65,0,0,0-.37-.09.7.7,0,0,0-.66.53,4.37,4.37,0,0,0-.14,1.49,2.34,2.34,0,0,0,.38,1.4,1.23,1.23,0,0,0,1,.39,2.6,2.6,0,0,0,.69-.1l0,.82a2.52,2.52,0,0,1-.87.15A2,2,0,0,1,100.76,167.44Z"/><path class="cls-10" d="M69,148.3l-1.23-4.94a.55.55,0,0,0-.21-.32,1.51,1.51,0,0,0-.54-.26.24.24,0,0,1-.18-.29,1,1,0,0,1,.08-.26q.45.11.9.18l.86.12.38,0,.48,0,.5,0a3.38,3.38,0,0,0,.45,0,.86.86,0,0,1,0,.15.49.49,0,0,1,0,.12.22.22,0,0,1-.06.15.26.26,0,0,1-.15.07,1,1,0,0,0-.72.15.51.51,0,0,0-.14.56l.9,3.8,3.18-3.37a.42.42,0,0,0,.11-.51.74.74,0,0,0-.57-.33.21.21,0,0,1-.19-.26.84.84,0,0,1,.07-.26l.83.16c.28.05.52.09.73.11l.61,0h.75a1.23,1.23,0,0,1,0,.26c0,.14-.12.22-.29.24a1.63,1.63,0,0,0-.63.13,1.39,1.39,0,0,0-.45.31l-4,4.12-1.1,3.49a.44.44,0,0,0,.11.51,1.39,1.39,0,0,0,.6.27.24.24,0,0,1,.2.28.7.7,0,0,1-.08.26c-.31-.07-.63-.13-1-.18l-.91-.13-.4,0-.49,0-.51,0-.46,0c0-.05,0-.1,0-.14a.37.37,0,0,1,0-.11.32.32,0,0,1,.06-.15.21.21,0,0,1,.17-.08,2.44,2.44,0,0,0,.75-.14.74.74,0,0,0,.46-.44Z"/><path class="cls-10" d="M76.82,146.58a2.49,2.49,0,0,1,1,.27,1.74,1.74,0,0,1,.66.6,2.6,2.6,0,0,1,.35.87,4.55,4.55,0,0,1,.06,1.06,5.18,5.18,0,0,1-.5,2,4.28,4.28,0,0,1-1,1.34,3.6,3.6,0,0,1-1.31.75,3.68,3.68,0,0,1-1.37.18,2.22,2.22,0,0,1-.92-.23,1.57,1.57,0,0,1-.59-.55,2.09,2.09,0,0,1-.28-.83,4.84,4.84,0,0,1,0-1.09,5,5,0,0,1,.48-1.86,5.21,5.21,0,0,1,1-1.39,4.25,4.25,0,0,1,1.24-.84A2.86,2.86,0,0,1,76.82,146.58ZM75.13,153a1.51,1.51,0,0,0,.89-.23,2.47,2.47,0,0,0,.75-.73,4.79,4.79,0,0,0,.53-1.16,7.33,7.33,0,0,0,.26-1.49,4.4,4.4,0,0,0-.13-1.59.84.84,0,0,0-.8-.64,1.38,1.38,0,0,0-.95.28,2.69,2.69,0,0,0-.74.85,4.65,4.65,0,0,0-.5,1.2,6.2,6.2,0,0,0-.24,1.33,3.87,3.87,0,0,0,.14,1.59A.86.86,0,0,0,75.13,153Z"/><path class="cls-10" d="M79.59,156a2.07,2.07,0,0,0,.66.82,1.67,1.67,0,0,0,1,.35,1.55,1.55,0,0,0,1.18-.52,3.26,3.26,0,0,0,.77-1.56l.87-3.77H84a6.1,6.1,0,0,1-1.52,2,2.39,2.39,0,0,1-1.53.64,2,2,0,0,1-.48-.09,1,1,0,0,1-.4-.26,1.39,1.39,0,0,1-.27-.5,2.29,2.29,0,0,1-.09-.8,6.45,6.45,0,0,1,.45-2.3,5.54,5.54,0,0,1,1-1.72,4.51,4.51,0,0,1,1.39-1.07,3.09,3.09,0,0,1,1.47-.34,10,10,0,0,1,1,.07c.31,0,.68.11,1.09.2l-1.64,7.37A4.21,4.21,0,0,1,83,157.05a3.4,3.4,0,0,1-2.11.71A4.4,4.4,0,0,1,79,157.4c.08-.23.14-.43.19-.6s.09-.39.13-.66Zm5.2-8.3a3,3,0,0,0-.44-.12,4,4,0,0,0-.47,0,2.06,2.06,0,0,0-1.19.32,2.85,2.85,0,0,0-.87.92,5.3,5.3,0,0,0-.54,1.39,9.2,9.2,0,0,0-.21,1.72,1.57,1.57,0,0,0,.14.84.52.52,0,0,0,.46.28,1,1,0,0,0,.62-.28A4.17,4.17,0,0,0,83,152a8.36,8.36,0,0,0,.68-1,10.52,10.52,0,0,0,.57-1.17,7.07,7.07,0,0,0,.4-1.14A3.69,3.69,0,0,0,84.79,147.69Z"/><path class="cls-10" d="M88.79,144.13a.4.4,0,0,0,0-.15s-.06-.08-.13-.08l-.17,0-.24,0L88,144l-.16,0c-.15,0-.22-.11-.23-.33.47-.13.91-.27,1.31-.41s.8-.28,1.2-.45a.34.34,0,0,1,.19.3.57.57,0,0,1,0,.13l0,.12L89,150.19h0c.28-.47.56-.9.83-1.31a8.61,8.61,0,0,1,.85-1,4.2,4.2,0,0,1,.89-.69,1.93,1.93,0,0,1,.91-.26,1.17,1.17,0,0,1,.73.21.89.89,0,0,1,.29.72,3.91,3.91,0,0,1,0,.45c0,.16,0,.33-.07.5l-.74,3.8a1.57,1.57,0,0,0,0,.16,1.15,1.15,0,0,0,0,.14c0,.14.07.2.2.2a.56.56,0,0,0,.22-.06l.24-.13.21-.13a.41.41,0,0,1,.16-.05c.1,0,.18.1.22.31a5.72,5.72,0,0,1-.57.39c-.2.13-.39.24-.58.34l-.53.23a1.55,1.55,0,0,1-.4.1.78.78,0,0,1-.33-.07c-.11-.05-.16-.16-.16-.34a1.18,1.18,0,0,1,0-.16,1.09,1.09,0,0,1,0-.17l.82-4.22a4.75,4.75,0,0,0,.08-.71q0-.46-.45-.45a1,1,0,0,0-.55.24,4.5,4.5,0,0,0-.69.65,8.72,8.72,0,0,0-.73.95c-.25.36-.48.74-.7,1.13a5.68,5.68,0,0,0-.26.6,4.78,4.78,0,0,0-.22.67,5.87,5.87,0,0,0-.14.68,4.54,4.54,0,0,0,0,.6,2,2,0,0,0,.06.43,7.37,7.37,0,0,0-1.24.25q-.15-.07-.15-.18c0-.05,0-.1,0-.15l0-.16,1.41-7.9c.05-.31.1-.61.12-.91S88.79,144.3,88.79,144.13Z"/><path class="cls-10" d="M97,151.67a3.27,3.27,0,0,0,0,.71.41.41,0,0,0,.17.35.61.61,0,0,0,.39.09,1.29,1.29,0,0,0,.71-.32,4.18,4.18,0,0,0,.7-.78,7.46,7.46,0,0,0,.64-1.09,11.75,11.75,0,0,0,.52-1.22,8.59,8.59,0,0,0,.32-1.23,4.49,4.49,0,0,0,.08-1.05,2,2,0,0,0-.07-.42,12.42,12.42,0,0,0,1.23-.32.27.27,0,0,1,.14.18s0,.07,0,.14a1.15,1.15,0,0,0,0,.16l-.73,5.49c0,.19.06.28.23.27a.74.74,0,0,0,.21-.07l.22-.13.2-.12.16-.07q.15,0,.21.27c-.18.15-.37.3-.57.44s-.4.26-.58.37a4,4,0,0,1-.51.25,1.26,1.26,0,0,1-.38.1.65.65,0,0,1-.31,0c-.09,0-.15-.14-.16-.31v-.14a.66.66,0,0,1,0-.21l.31-2.2H100a7.33,7.33,0,0,1-1.54,2.34,2.76,2.76,0,0,1-1.64.79,1.17,1.17,0,0,1-.8-.2,1,1,0,0,1-.34-.74c0-.13,0-.27,0-.44s0-.34,0-.5l.54-3.67a1,1,0,0,0,0-.11.54.54,0,0,0,0-.11c0-.18,0-.26-.16-.26a1,1,0,0,0-.21.07l-.26.13c-.1,0-.18.09-.26.13a.38.38,0,0,1-.17.06c-.06,0-.1,0-.14-.08L95,148c.17-.12.38-.25.62-.4a6.48,6.48,0,0,1,.7-.42c.22-.13.43-.23.62-.33a1.37,1.37,0,0,1,.37-.14c.21,0,.32.07.33.25a.86.86,0,0,1,0,.16s0,.1,0,.16Z"/><path class="cls-10" d="M107.52,147.28a1.07,1.07,0,0,0-.55.28,3.61,3.61,0,0,0-.57.67,6.84,6.84,0,0,0-.53.94,7.72,7.72,0,0,0-.42,1.11,8,8,0,0,0-.25,1.18,4.76,4.76,0,0,0,0,1.13,1.84,1.84,0,0,0,.09.42c-.2,0-.41.1-.62.16l-.62.22c-.1,0-.15-.1-.16-.18a.8.8,0,0,1,0-.22,2,2,0,0,1,0-.21.88.88,0,0,0,0-.2,1.27,1.27,0,0,0,0-.32l.29-3.63c0-.42,0-.7,0-.85a2.64,2.64,0,0,1,0-.32c0-.13-.07-.19-.17-.18a.38.38,0,0,0-.17.06l-.24.14-.24.14a.68.68,0,0,1-.17.07.18.18,0,0,1-.15-.08,1,1,0,0,1-.11-.21c.18-.14.38-.29.63-.45l.69-.44a6.64,6.64,0,0,1,.6-.34,1,1,0,0,1,.34-.15.3.3,0,0,1,.19,0,.2.2,0,0,1,.1.17.54.54,0,0,0,0,.11s0,.11,0,.16l-.24,2.41h.07a9.85,9.85,0,0,1,1.29-2.35,2.06,2.06,0,0,1,1.3-.83.57.57,0,0,1,.26,0,.52.52,0,0,1,.18.07c-.07.25-.12.51-.17.78a6.09,6.09,0,0,0-.07.9l-.25,0A.49.49,0,0,0,107.52,147.28Z"/><path class="cls-10" d="M110.14,145.3a5.6,5.6,0,0,0,0-1,2.34,2.34,0,0,0-.12-.41l.61-.2a4.06,4.06,0,0,0,.63-.24c.09.05.15.1.16.16a.72.72,0,0,0,0,.13v.16l0,1.44,1.61-.26a3,3,0,0,0,0,.36c0,.14,0,.27,0,.39a7.3,7.3,0,0,0-.81,0l-.77.07-.07,5a1.82,1.82,0,0,0,0,.34c0,.25.21.35.52.3a1.31,1.31,0,0,0,.41-.12,1.69,1.69,0,0,0,.33-.19l.23-.16a.56.56,0,0,1,.15-.08c.12,0,.2.07.25.27a4.35,4.35,0,0,1-1,.76,3.33,3.33,0,0,1-1,.39,1.39,1.39,0,0,1-.82-.05.69.69,0,0,1-.32-.51,1.83,1.83,0,0,1,0-.33l.12-5.48-1.14.19a1.48,1.48,0,0,1,0-.41.25.25,0,0,1,.22-.16l.89-.15Z"/><path class="cls-3" d="M58.48,131.75a1,1,0,0,1-.55-.63L56.68,128a1.84,1.84,0,0,1-.16-.8,1.23,1.23,0,0,1,.17-.65l-1.22.5L55.05,126l3-1.21.39,1a1.12,1.12,0,0,0-.44.73,1.94,1.94,0,0,0,.18,1l1.07,2.66a.32.32,0,0,0,.46.21l.35-.14.42,1-1.14.46A1.11,1.11,0,0,1,58.48,131.75Z"/><path class="cls-3" d="M59.55,125.85l1.43-.38.18.44a2.86,2.86,0,0,1,.67-.62,3,3,0,0,1,.91-.4,1.79,1.79,0,0,1,1.43.14,1.94,1.94,0,0,1,.84,1.23l.93,3.43-1.56.41-.88-3.29a.91.91,0,0,0-.37-.57.86.86,0,0,0-.66,0,1.58,1.58,0,0,0-.58.29,1.24,1.24,0,0,0-.38.45l1,3.65L61,131Z"/><path class="cls-3" d="M67.21,129.13a1.43,1.43,0,0,1-.9-1.22,1.41,1.41,0,0,1,.06-.65,1.15,1.15,0,0,1,.4-.53,1.08,1.08,0,0,1-.49-.36,1.35,1.35,0,0,1-.25-.63,1.41,1.41,0,0,1,.33-1.25,2.09,2.09,0,0,1,1.3-.6,3,3,0,0,1,1,0l.15,1.12a2.78,2.78,0,0,0-.64,0,.86.86,0,0,0-.45.17.49.49,0,0,0,.1.72,1,1,0,0,0,.52,0l.52-.07.22,1.07-.59.09a.86.86,0,0,0-.5.2.55.55,0,0,0-.11.45.47.47,0,0,0,.31.39,1.74,1.74,0,0,0,.82,0c.72-.11,1-.45,1-1l-.47-3.35,1.59-.22.46,3.25c.2,1.44-.58,2.28-2.34,2.53A3.73,3.73,0,0,1,67.21,129.13Z"/><path class="cls-3" d="M75.92,125.22l3.92,0v1.24l-3.93,0Z"/><path class="cls-3" d="M84.32,128.52a1.06,1.06,0,0,1-.22-.82l.34-4.27,1.6.12-.3,3.86a.32.32,0,0,0,.33.4l.36,0L86.35,129l-1.22-.1A1.13,1.13,0,0,1,84.32,128.52Z"/><path class="cls-3" d="M87.75,128.55a2.78,2.78,0,0,1-.53-2,3,3,0,0,1,.84-2.14,2.92,2.92,0,0,1,2.21-.66,3.61,3.61,0,0,1,1.55.38,2.08,2.08,0,0,1,.87.84,2.16,2.16,0,0,1,.24,1.12l-.15,3.25-1.6-.08.14-3.11a1.24,1.24,0,0,0-.22-.86,1.19,1.19,0,0,0-.92-.34,1.16,1.16,0,0,0-1,.38,2.22,2.22,0,0,0-.38,1.29,1.91,1.91,0,0,0,.2,1.11.94.94,0,0,0,.77.37,2.37,2.37,0,0,0,.65-.05l-.06,1.12a2.62,2.62,0,0,1-1,.11A2.17,2.17,0,0,1,87.75,128.55Z"/><path class="cls-3" d="M94.6,128.92a2,2,0,0,1-.54-1.41L94,124l1.6,0,.09,3.38a.74.74,0,0,0,.86.86,1.71,1.71,0,0,0,.62-.15,1.49,1.49,0,0,0,.48-.35l-.1-3.79,1.61,0,.14,5.36-1.48,0-.08-.47a2.71,2.71,0,0,1-1.74.61A1.8,1.8,0,0,1,94.6,128.92Z"/><path class="cls-3" d="M102.18,128.48V129l-1.47.17-.6-5.33,1.59-.18.42,3.77a1.4,1.4,0,0,0,.53.27,1.58,1.58,0,0,0,.64.07.85.85,0,0,0,.6-.28.93.93,0,0,0,.13-.68l-.38-3.37,1.6-.18.4,3.5a2,2,0,0,1-.35,1.48,1.89,1.89,0,0,1-1.3.66A2.73,2.73,0,0,1,102.18,128.48Z"/><path class="cls-3" d="M108.33,124.76A1.28,1.28,0,0,0,108,124a1,1,0,0,0-.78-.09,3.45,3.45,0,0,0-1.23.52l-.23-1.11a4.24,4.24,0,0,1,.69-.39,4.74,4.74,0,0,1,.86-.27,2.4,2.4,0,0,1,1.75.16,2,2,0,0,1,.83,1.41l.68,3.34-1.57.32Z"/><path class="cls-3" d="M112.67,127.07a3.44,3.44,0,0,1-.87.05l-.37-1.2a4.54,4.54,0,0,0,1.69-.16,2.51,2.51,0,0,0,.75-.32.31.31,0,0,0,.12-.37.37.37,0,0,0-.28-.27,4.92,4.92,0,0,0-.81-.07h-.41a3,3,0,0,1-1.24-.26,1.25,1.25,0,0,1-.61-.79,1.4,1.4,0,0,1,.21-1.31,2.77,2.77,0,0,1,1.51-.93,6.51,6.51,0,0,1,.92-.21,5.6,5.6,0,0,1,.83-.08l.37,1.19a3.79,3.79,0,0,0-.75,0,4.32,4.32,0,0,0-.74.16,2.31,2.31,0,0,0-.68.3.34.34,0,0,0-.15.4.3.3,0,0,0,.25.22,3.47,3.47,0,0,0,.68,0h.52a4.59,4.59,0,0,1,1,.14,1.16,1.16,0,0,1,.57.34,1.6,1.6,0,0,1,.35.65,1.34,1.34,0,0,1-.23,1.3,3.11,3.11,0,0,1-1.53.9A7.42,7.42,0,0,1,112.67,127.07Z"/><path class="cls-3" d="M110.8,119.79l2.9-1.1.32,1-1.7.64.22.58-1.15.43Z"/><path class="cls-3" d="M115.94,122.63a2.07,2.07,0,0,1-.13-1.77,2.94,2.94,0,0,1,1.52-1.38,3,3,0,0,1,2-.36,2.06,2.06,0,0,1,1.33,1.19l1.43,2.91-1.44.71-1.46-3a.89.89,0,0,0-.55-.51,1,1,0,0,0-.79.11,1.08,1.08,0,0,0-.59.56,1,1,0,0,0,.08.75l.34.68a1.34,1.34,0,0,1,.26-.34,1.51,1.51,0,0,1,.37-.25l.53-.26.59,1.11-.58.29a1.44,1.44,0,0,0-.63.56l.58,1.18-1.44.7Z"/><path class="cls-11" d="M65,84.42h36.26s1.78-3.2,2.49-3.2,0,2.13.71,2.13,2.13,0,2.13-.71,0-1.42.72-1.42,2.13,5,4.26,5.68,1.42,2.85-.71,2.85-3.55,0-5-1.42-2.84-.71-2.13,0,1.42.71,1.42,1.42-1.55,4.14-2.26,4.14-.65-1-1.29-1.3c-1.18-.56-1.14.12-2.42.68a13.08,13.08,0,0,1-1.85,1.85,18.27,18.27,0,0,1-1.85,1.24c-1.52,1.51-.62,3.09,1.85,3.09.57,0,1.24,0,1.24.62S96,101.13,96,102.55s-1.42,7.11-.71,7.82,1.42.71,1.42,1.42,0,2.84-1.42,2.13a2.52,2.52,0,0,1-1.42-2.13v-10c0-1.43,0-3.56-.72-2.85s-7.11,6.4-12.79,6.4c0,0,.71-2.13,0-2.13s-3.56,2.84-3.56,2.84-3.55,2.85-4.26,2.14-1.43-1.43,0-4.27a17.8,17.8,0,0,1,2.84-4.27s-.71-2.84-1.42-2.84,0,2.84-1.42,4.27a7.63,7.63,0,0,0-2.14,5c0,1.42.71,4.27,1.42,5s2.85,2.13,2.14,3.55-2.85.72-2.85.72-2.13,0-2.13-2.85a39.44,39.44,0,0,0-.71-6.4s-1.42-2.13,1.42-5.69c0-.71-1.42-1.42-1.42-1.42l-.71-.71s-1.42,2.85-1.42,4.27,0,4.26-.71,5.69-.72,3.55,0,4.26,1.42,1.42.71,2.13-2.85,0-2.85,0-.71,0-.71-2.84v-4.27c0-2.13.71-14.93.71-14.93S62.53,84.77,65,84.42Z"/><path class="cls-11" d="M100.93,94l1.42,2.14h13.51A3.17,3.17,0,0,1,118,99v7.11l-1.42,1.42c-.71.72,0,3.56,0,3.56s.71,2.13-2.13,2.13-.72-.71,0-2.13a12.54,12.54,0,0,0,.71-4.27s-.71-2.13-2.14-2.13h-7.82v6.4a2.09,2.09,0,0,1-2.13,2.13c-2.13,0,.71-1.42.71-2.84v-2.85l-1.42,2.85s0,1.42-2.13.71,2.13-1.42,2.13-2.84.71-3.56,0-4.27-2.13-.71-2.13-3.56c0-.71-.72-2.13-1.43-2.13s-2.84,0-2.13-.71,2.13-.71,2.84-2.13S100.93,94,100.93,94Z"/><path class="cls-12" d="M166.08,26.16C152,32,122.76,36,89,36V219c5.79,0,8.28,0,13.74.19,20.17-1,37.2-4.15,47.05-8.45,5.62-2.46,8.92-5.28,9.12-8.29h0l2-49.82,3.6-89.09.21-5.14a5.27,5.27,0,0,0,1.63-3.57,3.48,3.48,0,0,0,0-.55h0l5.2-28.55.52-2.87A27.18,27.18,0,0,1,166.08,26.16Z"/></g></g></svg>