<svg xmlns="http://www.w3.org/2000/svg" viewBox="0 0 187.27 259.47"><defs><style>.cls-1{fill:#fae4aa;}.cls-2{fill:#fff4dc;}.cls-3,.cls-6{fill:none;stroke:#bf744b;}.cls-3{stroke-miterlimit:10;stroke-width:0.33px;}.cls-4{font-size:9.81px;font-family:Kanit-Regular, Kanit;}.cls-4,.cls-5{fill:#bf744b;}.cls-6{stroke-linecap:round;stroke-linejoin:round;stroke-width:0.65px;}.cls-7{fill:#fff;opacity:0.33;}</style></defs><title>Asset 12</title><g id="Layer_2" data-name="Layer 2"><g id="นมเม็ด"><polygon class="cls-1" points="178.38 0 169.9 7.08 161.43 0.01 152.96 7.08 144.49 0.01 136.02 7.08 127.55 0.01 119.08 7.08 110.6 0.01 102.13 7.08 93.66 0.01 85.19 7.08 76.71 0.01 68.24 7.08 59.77 0.01 51.3 7.08 42.82 0.01 34.35 7.08 25.87 0.01 17.4 7.08 8.9 0 0 6.64 0 17.55 187.27 17.55 187.27 6.63 178.38 0"/><polygon class="cls-1" points="178.38 259.47 169.9 252.39 161.43 259.46 152.96 252.39 144.49 259.46 136.02 252.39 127.55 259.46 119.08 252.39 110.6 259.46 102.13 252.39 93.66 259.46 85.19 252.39 76.71 259.46 68.24 252.39 59.77 259.46 51.3 252.39 42.82 259.46 34.35 252.39 25.87 259.46 17.4 252.39 8.9 259.47 0 252.83 0 241.92 187.27 241.92 187.27 252.84 178.38 259.47"/><rect class="cls-2" y="12.25" width="187.27" height="234.09"/><circle class="cls-3" cx="94.08" cy="87.77" r="52.12"/><circle class="cls-3" cx="94.08" cy="87.77" r="50.35"/><circle class="cls-3" cx="94.08" cy="87.77" r="39.75"/><text class="cls-4" transform="translate(65.05 125.19) rotate(34.26)">นมผงสวนดุสิต</text><circle class="cls-3" cx="94.08" cy="87.77" r="38.06"/><path class="cls-3" d="M85.41,55.33a3.78,3.78,0,0,1,4.85-1.62,3.14,3.14,0,0,1,4-.3s2.33-1.82,5.21,1c1.86-.61,3.78.91,4.39,2.52,2-.1,4,2.13,4.25,5a5.4,5.4,0,0,1,2.52,5.86c2.23,1.62,1.22,5.36,1.22,5.36s2.93,1.32-.31,3.64c1.32,2.33,1.12,6.77-.91,6.07-2.42,2.22-3.43,3.94-2.32,7.38a60.22,60.22,0,0,0,2.22,5.86s1.12.81,1,1.72c2.94.1,5.56,3.23,3.24,5.26.1,2.42-5.06,8.29-5.06,8.29a5.73,5.73,0,0,1,2.33,5.35c1.31.61,2.12,2.84-4,2.13-.71,1.62-5.06.6-5.06.6s-1.31,1.82-4.85-.2c-.41,1.22-4.15,1.11-4.65.1-1.52,1.42-3,.51-4-.1a1.5,1.5,0,0,1-2.42.1,2.18,2.18,0,0,1-1.72.31c-.2,1.21-2.12.55-2.12.55S82.38,122.46,81,119l-1-.81S75.3,118,76.82,115l1.51-3a1.93,1.93,0,0,1,1.52-2l-1.11-1.41s-5-3.54-2.73-7.18l1.61.91,1.12,1s1.51-3.14,3.54-3.64c1.71-1.42,1.92-6.07,1.92-6.07s-.91.21-1-.6c-1.52,1-3.64-1.42-3.44-3.44-1.62.4-3.44-2.83-2.83-5.06-1.32.31-3.74-2.32-2.53-5.86-2-.91-1.82-5-.81-5.76-1.21-1,.3-4.45.3-4.45s-.8-3.84,2.53-5.26c-.1-2.83,1.82-5.15,4.15-4.65A4,4,0,0,1,85.41,55.33Z"/><path class="cls-3" d="M102.19,87.78a2.92,2.92,0,0,1-.71.87,41.93,41.93,0,0,1,.36,4.59l1.26,1.11s2.43.41,2.83.51A76.63,76.63,0,0,0,102.19,87.78Z"/><path class="cls-3" d="M88.48,88.15s1.41,2.49,2.42,2.63l.14,3.3A7.64,7.64,0,0,0,87.87,97l-1.48.14S89.42,92.26,88.48,88.15Z"/><path class="cls-3" d="M93,62.54s-.07,1.68-1.14,2.22a2.71,2.71,0,0,1,1.55,2s3-.61,3.69,4.11l.62-.14s-.83-3.3,1.81-4.65C98.25,64.22,94.74,62.2,93,62.54Z"/><path class="cls-3" d="M85.44,65a11.19,11.19,0,0,0,2.7,1.67,1.71,1.71,0,0,0,0,1.7s-1.55.07-1,5.26l-.74.07s-.54-3.24-3.51-3.71C82.68,67.46,85.44,65,85.44,65Z"/><path class="cls-3" d="M98.25,72.51l.61-.33s.74,3,3.16,2.63v4.58a3.7,3.7,0,0,0-4.58-1.15V76.69S99.33,76.29,98.25,72.51Z"/><path class="cls-3" d="M86.39,75.78h1.14s.81,2.46,2.09,2.6v1.89s-2.22-.75-4.45,2.15c-.94-1.82-.87-2.09-.87-2.09A3.76,3.76,0,0,0,86.39,75.78Z"/><path class="cls-5" d="M31,161.52a3.2,3.2,0,0,1-.77-2.3v-5.63H32v5.55a1.94,1.94,0,0,0,.42,1.39,1.85,1.85,0,0,0,1.35.43,3.24,3.24,0,0,0,1.32-.29,3.28,3.28,0,0,0,1.06-.75v-6.33h1.72v8.59H36.25l-.08-.94a4.46,4.46,0,0,1-3,1.1A2.79,2.79,0,0,1,31,161.52Z"/><path class="cls-5" d="M42.86,162.06a4.56,4.56,0,0,1-1.34-.82l-.1.94H39.85v-8.59h1.73v6.33a3.44,3.44,0,0,0,1.07.75A3,3,0,0,0,44,161a1.87,1.87,0,0,0,1.34-.43,1.9,1.9,0,0,0,.44-1.39v-5.55h1.72v5.63a3.24,3.24,0,0,1-.77,2.3,2.83,2.83,0,0,1-2.16.82A4.51,4.51,0,0,1,42.86,162.06Z"/><path class="cls-5" d="M50.49,161.46a3.28,3.28,0,0,1-1-2.62v-5.25H51.2v5.31a2,2,0,0,0,.55,1.55,2.92,2.92,0,0,0,3.3,0,2,2,0,0,0,.56-1.55v-7.85h1.71v7.79a3.28,3.28,0,0,1-1,2.62,4.31,4.31,0,0,1-2.9.88A4.38,4.38,0,0,1,50.49,161.46Z"/><path class="cls-5" d="M60.51,162.23a5.53,5.53,0,0,1-1.28-.32v-1.45a6.73,6.73,0,0,0,1.29.37,7.76,7.76,0,0,0,1.32.13,4.61,4.61,0,0,0,1.65-.21.81.81,0,0,0,.49-.83.91.91,0,0,0-.19-.61,1.29,1.29,0,0,0-.52-.37c-.22-.1-.57-.22-1-.37l-.62-.21a6.28,6.28,0,0,1-1.95-1,1.86,1.86,0,0,1-.65-1.51,2.1,2.1,0,0,1,.88-1.8,4.29,4.29,0,0,1,2.57-.65,9.81,9.81,0,0,1,1.42.11,8.11,8.11,0,0,1,1.21.28v1.43a6.72,6.72,0,0,0-1.16-.31,7.45,7.45,0,0,0-1.21-.11,4,4,0,0,0-1.52.22.79.79,0,0,0-.52.79.74.74,0,0,0,.22.55,1.72,1.72,0,0,0,.58.38c.24.1.62.23,1.13.4l.46.14a5.82,5.82,0,0,1,2,1,2.07,2.07,0,0,1,.6,1.6,2,2,0,0,1-.92,1.82,4.68,4.68,0,0,1-2.57.6A12.35,12.35,0,0,1,60.51,162.23Z"/><path class="cls-5" d="M63.86,164.21h-1l.07-1.12h2.41v3.1H63.86Z"/><path class="cls-5" d="M69.14,162.13l-2.42-5.88H68.4l2,4.77a2.18,2.18,0,0,0,2-.78,4.4,4.4,0,0,0,.63-2.62,5.79,5.79,0,0,0-.19-1.64,1.43,1.43,0,0,0-.64-.84,2.69,2.69,0,0,0-1.26-.24h-.6v-1.31h.83a3.38,3.38,0,0,1,2.68,1,4.57,4.57,0,0,1,.85,3,5.23,5.23,0,0,1-1.06,3.58,3.69,3.69,0,0,1-2.85,1.16A4.77,4.77,0,0,1,69.14,162.13Z"/><path class="cls-5" d="M76.32,160.53v-6.94h1.74v6.51a.77.77,0,0,0,.16.54.74.74,0,0,0,.54.17h.63v1.37H78A1.47,1.47,0,0,1,76.32,160.53Zm3.87,0v-6.94H81.9v6.51a.78.78,0,0,0,.17.54.73.73,0,0,0,.53.17h.66v1.37h-1.4A1.46,1.46,0,0,1,80.19,160.53Z"/><path class="cls-5" d="M85.58,161.26a4.73,4.73,0,0,1-1-3.25,6.46,6.46,0,0,1,.74-3.39,2.35,2.35,0,0,1,2.09-1.19,2.11,2.11,0,0,1,1,.21,2.16,2.16,0,0,1,.71.62,2.53,2.53,0,0,1,.88-.6,2.81,2.81,0,0,1,1.09-.23,1.93,1.93,0,0,1,1.53.61,2.51,2.51,0,0,1,.52,1.7v6.44H91.46V156a1.74,1.74,0,0,0-.17-.89.74.74,0,0,0-.67-.27,1,1,0,0,0-.6.19,1.12,1.12,0,0,0-.39.54h-.95a1.8,1.8,0,0,0-.42-.56.86.86,0,0,0-.57-.17,1.11,1.11,0,0,0-1.09.81,7.13,7.13,0,0,0-.31,2.37,3.68,3.68,0,0,0,.54,2.26,1.9,1.9,0,0,0,1.61.69,3.73,3.73,0,0,0,1.1-.13v1.32a4.22,4.22,0,0,1-1.4.19A3.24,3.24,0,0,1,85.58,161.26Z"/><path class="cls-5" d="M91.46,149.67h1.73v2.6H91.46Z"/><path class="cls-5" d="M97,162.13l-2.41-5.88h1.68l2,4.77a2.18,2.18,0,0,0,2-.78,4.4,4.4,0,0,0,.63-2.62,5.79,5.79,0,0,0-.19-1.64,1.43,1.43,0,0,0-.64-.84,2.71,2.71,0,0,0-1.26-.24h-.6v-1.31H99a3.36,3.36,0,0,1,2.67,1,4.51,4.51,0,0,1,.86,3,5.23,5.23,0,0,1-1.06,3.58,3.7,3.7,0,0,1-2.86,1.16A4.85,4.85,0,0,1,97,162.13Z"/><path class="cls-5" d="M105,161.5a3,3,0,0,1-.94-2.37v-.85a2,2,0,0,1,.22-.94,7.88,7.88,0,0,1,.65-1c.19-.26.33-.46.41-.6a.76.76,0,0,0,.13-.42.39.39,0,0,0-.11-.33.75.75,0,0,0-.4-.08h-1.09l.14-1.31h2c.81,0,1.21.39,1.21,1.16a2.07,2.07,0,0,1-.18.88,10.24,10.24,0,0,1-.55,1,7.32,7.32,0,0,0-.53.89,1.94,1.94,0,0,0-.19.83v1c0,1.12.66,1.69,2,1.69s2-.58,2-1.74v-1.05a1.69,1.69,0,0,0-.24-1,1.14,1.14,0,0,0-.89-.29h-.44l.08-1.26h.32a1.14,1.14,0,0,0,.91-.31,1.64,1.64,0,0,0,.26-1v-.81h1.74v.78a2.82,2.82,0,0,1-.25,1.28,1.7,1.7,0,0,1-.9.71,1.61,1.61,0,0,1,.91.76,2.77,2.77,0,0,1,.24,1.26v.89a3,3,0,0,1-1,2.38,4,4,0,0,1-2.72.85A4,4,0,0,1,105,161.5Z"/><path class="cls-5" d="M114.21,161.52a3.2,3.2,0,0,1-.78-2.3v-5.63h1.74v5.55a1.94,1.94,0,0,0,.42,1.39,1.84,1.84,0,0,0,1.34.43,3.17,3.17,0,0,0,1.32-.29,3.22,3.22,0,0,0,1.07-.75v-6.33H121v8.59h-1.58l-.08-.94a4.48,4.48,0,0,1-3,1.1A2.79,2.79,0,0,1,114.21,161.52Z"/><path class="cls-5" d="M114.48,151.08H121v1.21H114.4Z"/><path class="cls-5" d="M123.69,161.26a4.73,4.73,0,0,1-1-3.25,4.8,4.8,0,0,1,1.11-3.38,4.25,4.25,0,0,1,3.28-1.2,5,5,0,0,1,2.32.49,3.2,3.2,0,0,1,1.37,1.27,3.57,3.57,0,0,1,.44,1.74v5.25h-1.73V157a2.16,2.16,0,0,0-.57-1.6,2.52,2.52,0,0,0-1.87-.58,2.47,2.47,0,0,0-2,.8,4.87,4.87,0,0,0-.12,4.64,1.9,1.9,0,0,0,1.61.69,3.68,3.68,0,0,0,1.1-.13v1.32a4.22,4.22,0,0,1-1.4.19A3.25,3.25,0,0,1,123.69,161.26Z"/><path class="cls-5" d="M133.31,160.53v-6.94H135v6.51a.77.77,0,0,0,.16.54.74.74,0,0,0,.54.17h.73v1.37H135A1.47,1.47,0,0,1,133.31,160.53Z"/><path class="cls-5" d="M141.17,162.06a4.56,4.56,0,0,1-1.34-.82l-.1.94h-1.57v-8.59h1.73v6.33a3.44,3.44,0,0,0,1.07.75,3.08,3.08,0,0,0,1.3.29,1.55,1.55,0,0,0,1.78-1.82v-5.55h1.72v5.63a3.24,3.24,0,0,1-.77,2.3,2.81,2.81,0,0,1-2.16.82A4.51,4.51,0,0,1,141.17,162.06Z"/><path class="cls-5" d="M139.63,151.83a1.71,1.71,0,0,1-.53-1.35,1.82,1.82,0,0,1,.55-1.41,2.24,2.24,0,0,1,1.56-.52h3.91l-.08,1h-3.67a1.25,1.25,0,0,0-.8.21.85.85,0,0,0-.26.7q0,.84.9.84c.56,0,.85-.22.85-.67v-.33h1.06v.33a.62.62,0,0,0,.17.48.94.94,0,0,0,.56.14h1v1h-1.11a1.94,1.94,0,0,1-.72-.12.75.75,0,0,1-.44-.37,1,1,0,0,1-.59.39,3,3,0,0,1-.89.14A2.13,2.13,0,0,1,139.63,151.83Z"/><path class="cls-5" d="M148.41,161.26a5.86,5.86,0,0,1,.16-6.63,4.28,4.28,0,0,1,3.28-1.2,5.06,5.06,0,0,1,2.33.49,3.26,3.26,0,0,1,1.37,1.27,3.56,3.56,0,0,1,.43,1.74v5.25h-1.73V157a2.19,2.19,0,0,0-.56-1.6,3.14,3.14,0,0,0-3.91.22,3.71,3.71,0,0,0-.65,2.38,3.75,3.75,0,0,0,.53,2.26,1.93,1.93,0,0,0,1.62.69,3.65,3.65,0,0,0,1.09-.13v1.32a4.16,4.16,0,0,1-1.39.19A3.26,3.26,0,0,1,148.41,161.26Z"/><path class="cls-5" d="M69.37,177.24a5.58,5.58,0,0,1-1.28-.31v-1.45a6.43,6.43,0,0,0,1.29.36,7,7,0,0,0,1.32.13,4.94,4.94,0,0,0,1.66-.2.83.83,0,0,0,.49-.83.89.89,0,0,0-.19-.61,1.34,1.34,0,0,0-.53-.38c-.22-.09-.56-.21-1-.36l-.62-.21a6.27,6.27,0,0,1-2-1,1.82,1.82,0,0,1-.64-1.5,2.1,2.1,0,0,1,.87-1.8,4.3,4.3,0,0,1,2.58-.65,9.37,9.37,0,0,1,2.62.38v1.43a7.31,7.31,0,0,0-2.37-.41,4.25,4.25,0,0,0-1.52.21.8.8,0,0,0-.51.79.78.78,0,0,0,.21.56,1.75,1.75,0,0,0,.58.37c.25.1.62.24,1.13.41l.46.14a5.65,5.65,0,0,1,2,1,2.32,2.32,0,0,1-.31,3.42,4.74,4.74,0,0,1-2.58.6A11,11,0,0,1,69.37,177.24Z"/><path class="cls-5" d="M76.75,176.72a2.4,2.4,0,0,1-.8-2,2.37,2.37,0,0,1,.85-2,3.89,3.89,0,0,1,2.49-.69h2.62v-.54a1.58,1.58,0,0,0-.48-1.32,3.08,3.08,0,0,0-1.74-.37,9.29,9.29,0,0,0-2.8.41v-1.33a9.86,9.86,0,0,1,1.48-.34,10,10,0,0,1,1.62-.14,6.58,6.58,0,0,1,1.48.16h2.87L84.25,170h-1a2.31,2.31,0,0,1,.29.76,4.67,4.67,0,0,1,.09,1v5.5H81.91v-3.79H79.38a2.39,2.39,0,0,0-1.34.3,1.16,1.16,0,0,0-.44,1,1.09,1.09,0,0,0,.4,1,2.39,2.39,0,0,0,1.34.28,3.71,3.71,0,0,0,1.08-.13v1.32a5.45,5.45,0,0,1-1.55.2A3.35,3.35,0,0,1,76.75,176.72Z"/><path class="cls-5" d="M85.9,168.61h1.74v2.7h2.48a1.73,1.73,0,0,0,1.28-.38,1.67,1.67,0,0,0,.37-1.21v-1.11h1.72v1.07A2.12,2.12,0,0,1,92.2,172a1.61,1.61,0,0,1,1,.76,3,3,0,0,1,.26,1.32v3.17H91.69v-3a1.79,1.79,0,0,0-.35-1.27,1.88,1.88,0,0,0-1.29-.34H87.64v4.57H85.9Z"/><path class="cls-5" d="M95.06,176.88v-1.37a5.42,5.42,0,0,0,2.16.46,4.07,4.07,0,0,0,1.73-.3,1.75,1.75,0,0,0,.9-1,4.68,4.68,0,0,0,.28-1.8,3.33,3.33,0,0,0-.67-2.35,3,3,0,0,0-2.25-.7,5.27,5.27,0,0,0-2.15.46v-1.38a6.41,6.41,0,0,1,2.53-.48,4.12,4.12,0,0,1,3.16,1.13,4.71,4.71,0,0,1,1,3.32,4.87,4.87,0,0,1-1,3.33,4,4,0,0,1-3.15,1.13A6.39,6.39,0,0,1,95.06,176.88Z"/><path class="cls-5" d="M106.65,171.79a3.54,3.54,0,0,0-.14-1.1,1.16,1.16,0,0,0-.55-.63,2.6,2.6,0,0,0-1.17-.21,6.4,6.4,0,0,0-1.1.11,7,7,0,0,0-1.08.3v-1.33a6,6,0,0,1,1.18-.34,6.93,6.93,0,0,1,1.34-.14,3.45,3.45,0,0,1,2.48.75,3.16,3.16,0,0,1,.78,2.37v5.63h-1.74Z"/><path class="cls-5" d="M111.18,176.54a3.22,3.22,0,0,1-.78-2.3v-5.63h1.74v5.55a1.9,1.9,0,0,0,.42,1.38,1.8,1.8,0,0,0,1.34.43,3.16,3.16,0,0,0,1.32-.28,3.22,3.22,0,0,0,1.07-.75v-6.33H118v8.59h-1.58l-.08-.94a4.48,4.48,0,0,1-3,1.1A2.83,2.83,0,0,1,111.18,176.54Z"/><line class="cls-6" x1="30.92" y1="189.8" x2="46.82" y2="189.8"/><polyline class="cls-6" points="42.12 189.8 42.12 204.38 32.32 194.58 37.54 194.58"/><line class="cls-6" x1="46.82" y1="194.66" x2="42.12" y2="194.66"/><polygon class="cls-6" points="157.68 189.36 56.98 189.36 41.96 204.38 142.66 204.38 157.68 189.36"/><path class="cls-5" d="M58.14,194.29l-1,.18v-.88l2-.32v6.33h-1Z"/><path class="cls-5" d="M60.88,199a3.76,3.76,0,0,1-.65-2.39,4,4,0,0,1,.63-2.46,2.49,2.49,0,0,1,2.11-.83,2.46,2.46,0,0,1,2.09.83,4,4,0,0,1,.64,2.46A3.76,3.76,0,0,1,65,199a2.48,2.48,0,0,1-2.07.82A2.51,2.51,0,0,1,60.88,199Zm3.36-.67a3.13,3.13,0,0,0,.39-1.72,3.3,3.3,0,0,0-.38-1.8,1.39,1.39,0,0,0-1.28-.59,1.4,1.4,0,0,0-1.3.59,3.4,3.4,0,0,0-.38,1.8,3.14,3.14,0,0,0,.39,1.73,1.43,1.43,0,0,0,1.29.58A1.38,1.38,0,0,0,64.24,198.28Z"/><path class="cls-5" d="M66.53,196.58h3.7v.82h-3.7Z"/><path class="cls-5" d="M72.07,194.29l-1,.18v-.88l2.06-.32v6.33H72.07Z"/><path class="cls-5" d="M74.15,196.58h3.7v.82h-3.7Z"/><path class="cls-5" d="M79.34,199a3.76,3.76,0,0,1-.65-2.39,4,4,0,0,1,.63-2.46,2.49,2.49,0,0,1,2.11-.83,2.46,2.46,0,0,1,2.09.83,4,4,0,0,1,.64,2.46A3.76,3.76,0,0,1,83.5,199a2.46,2.46,0,0,1-2.07.82A2.51,2.51,0,0,1,79.34,199Zm3.37-.67a3.22,3.22,0,0,0,.38-1.72,3.3,3.3,0,0,0-.38-1.8,1.39,1.39,0,0,0-1.28-.59,1.4,1.4,0,0,0-1.3.59,3.4,3.4,0,0,0-.38,1.8,3.14,3.14,0,0,0,.39,1.73,1.43,1.43,0,0,0,1.29.58A1.41,1.41,0,0,0,82.71,198.28Z"/><path class="cls-5" d="M85.58,199.11a2.49,2.49,0,0,1-.59-1.82v-1.41a2.71,2.71,0,0,1,.33-1.36,2.21,2.21,0,0,1,.92-.92,2.79,2.79,0,0,1,1.38-.33,4.41,4.41,0,0,1,1.49.22v.9a4.11,4.11,0,0,0-1.42-.22,1.8,1.8,0,0,0-1.28.4,1.47,1.47,0,0,0-.42,1.11v.39a2.56,2.56,0,0,1,.76-.37,2.74,2.74,0,0,1,.82-.13,2.23,2.23,0,0,1,1.6.52,2,2,0,0,1,.54,1.53,2,2,0,0,1-.59,1.52,2.51,2.51,0,0,1-1.77.56A2.44,2.44,0,0,1,85.58,199.11Zm2.82-.54a1.18,1.18,0,0,0,.36-.92,1.34,1.34,0,0,0-.3-1,1.42,1.42,0,0,0-1-.32,2.46,2.46,0,0,0-.75.13,2.25,2.25,0,0,0-.67.35v.67a1.21,1.21,0,0,0,1.37,1.37A1.46,1.46,0,0,0,88.4,198.57Z"/><path class="cls-5" d="M91.15,199.25a1.57,1.57,0,0,1-.61-1.33,1.57,1.57,0,0,1,1.1-1.55,1.33,1.33,0,0,1-.69-.52,1.39,1.39,0,0,1-.23-.8,1.61,1.61,0,0,1,.57-1.31,2.56,2.56,0,0,1,1.69-.47,2.6,2.6,0,0,1,1.71.47,1.62,1.62,0,0,1,.56,1.31,1.64,1.64,0,0,1-.23.85,1.52,1.52,0,0,1-.75.56,1.77,1.77,0,0,1,.87.53,1.51,1.51,0,0,1,.27.93,1.55,1.55,0,0,1-.61,1.33,3,3,0,0,1-1.82.45A3.11,3.11,0,0,1,91.15,199.25Zm2.93-.61a.85.85,0,0,0,.35-.74.81.81,0,0,0-.24-.65,1.62,1.62,0,0,0-.8-.33l-.8-.17a1.62,1.62,0,0,0-.8.38,1,1,0,0,0-.27.75.84.84,0,0,0,.36.75,2,2,0,0,0,1.1.24A2.12,2.12,0,0,0,94.08,198.64Zm0-2.88a.93.93,0,0,0,.24-.69c0-.65-.43-1-1.29-1s-1.29.32-1.29,1a.89.89,0,0,0,.22.61,1.11,1.11,0,0,0,.64.32l.69.13A1.71,1.71,0,0,0,94,195.76Z"/><path class="cls-5" d="M97.07,199.61a4.57,4.57,0,0,1-.82-.19v-.92a4.26,4.26,0,0,0,1.63.3,2.15,2.15,0,0,0,1.13-.23.85.85,0,0,0,.36-.78c0-.63-.43-.95-1.28-.95h-.94l.08-.78H98c.82,0,1.23-.33,1.23-1a.78.78,0,0,0-.33-.7,1.89,1.89,0,0,0-1-.22,4.29,4.29,0,0,0-.79.07,4.09,4.09,0,0,0-.72.22v-.9a3.36,3.36,0,0,1,.78-.21,4.7,4.7,0,0,1,.9-.08,2.59,2.59,0,0,1,1.68.47,1.53,1.53,0,0,1,.57,1.25,1.76,1.76,0,0,1-.23.89,1.29,1.29,0,0,1-.71.56,1.39,1.39,0,0,1,.81.52,1.46,1.46,0,0,1,.27.9,1.59,1.59,0,0,1-.65,1.37,2.94,2.94,0,0,1-1.76.47A5.72,5.72,0,0,1,97.07,199.61Z"/><path class="cls-5" d="M101.87,199.11a2.49,2.49,0,0,1-.59-1.82v-1.41a2.71,2.71,0,0,1,.33-1.36,2.24,2.24,0,0,1,.91-.92,2.86,2.86,0,0,1,1.39-.33,4.41,4.41,0,0,1,1.49.22v.9a4.11,4.11,0,0,0-1.42-.22,1.8,1.8,0,0,0-1.28.4,1.47,1.47,0,0,0-.42,1.11v.39a2.56,2.56,0,0,1,.76-.37,2.74,2.74,0,0,1,.82-.13,2.23,2.23,0,0,1,1.6.52,2,2,0,0,1,.54,1.53,2,2,0,0,1-.59,1.52,2.52,2.52,0,0,1-1.77.56A2.42,2.42,0,0,1,101.87,199.11Zm2.82-.54a1.18,1.18,0,0,0,.36-.92,1.34,1.34,0,0,0-.3-1,1.42,1.42,0,0,0-1-.32,2.46,2.46,0,0,0-.75.13,2.25,2.25,0,0,0-.67.35v.67a1.21,1.21,0,0,0,1.37,1.37A1.46,1.46,0,0,0,104.69,198.57Z"/><path class="cls-5" d="M106.83,196.58h3.7v.82h-3.7Z"/><path class="cls-5" d="M112.37,194.29l-1,.18v-.88l2.06-.32v6.33h-1Z"/><path class="cls-5" d="M114.45,196.58h3.7v.82h-3.7Z"/><path class="cls-5" d="M119.64,199a3.76,3.76,0,0,1-.66-2.39,4,4,0,0,1,.64-2.46,3.07,3.07,0,0,1,4.2,0,4,4,0,0,1,.64,2.46,3.76,3.76,0,0,1-.66,2.39,3,3,0,0,1-4.16,0Zm3.36-.67a3.13,3.13,0,0,0,.39-1.72,3.3,3.3,0,0,0-.38-1.8,1.39,1.39,0,0,0-1.28-.59,1.4,1.4,0,0,0-1.3.59,3.4,3.4,0,0,0-.38,1.8,3.14,3.14,0,0,0,.39,1.73,1.43,1.43,0,0,0,1.29.58A1.38,1.38,0,0,0,123,198.28Z"/><path class="cls-5" d="M125.94,199a3.82,3.82,0,0,1-.65-2.39,4,4,0,0,1,.64-2.46,2.48,2.48,0,0,1,2.1-.83,2.44,2.44,0,0,1,2.09.83,4,4,0,0,1,.64,2.46,3.82,3.82,0,0,1-.65,2.39,3.06,3.06,0,0,1-4.17,0Zm3.37-.67a3.13,3.13,0,0,0,.39-1.72,3.4,3.4,0,0,0-.38-1.8,1.39,1.39,0,0,0-1.29-.59,1.42,1.42,0,0,0-1.3.59,3.41,3.41,0,0,0-.37,1.8,3.24,3.24,0,0,0,.38,1.73,1.43,1.43,0,0,0,1.29.58A1.4,1.4,0,0,0,129.31,198.28Z"/><path class="cls-5" d="M132.41,199.61a4.24,4.24,0,0,1-.81-.19v-.92a4.18,4.18,0,0,0,1.62.3,2.21,2.21,0,0,0,1.14-.23.86.86,0,0,0,.35-.78c0-.63-.43-.95-1.28-.95h-.94l.08-.78h.79c.82,0,1.23-.33,1.23-1a.78.78,0,0,0-.33-.7,1.89,1.89,0,0,0-1-.22,4.29,4.29,0,0,0-.79.07,4.09,4.09,0,0,0-.72.22v-.9a3.36,3.36,0,0,1,.78-.21,4.7,4.7,0,0,1,.9-.08,2.59,2.59,0,0,1,1.68.47,1.53,1.53,0,0,1,.57,1.25,1.67,1.67,0,0,1-.23.89,1.29,1.29,0,0,1-.71.56,1.36,1.36,0,0,1,.81.52,1.46,1.46,0,0,1,.27.9,1.56,1.56,0,0,1-.65,1.37,2.92,2.92,0,0,1-1.76.47A5.72,5.72,0,0,1,132.41,199.61Z"/><path class="cls-5" d="M137.21,199.11a2.49,2.49,0,0,1-.59-1.82v-1.41a2.71,2.71,0,0,1,.33-1.36,2.21,2.21,0,0,1,.92-.92,2.8,2.8,0,0,1,1.39-.33,4.39,4.39,0,0,1,1.48.22v.9a4.11,4.11,0,0,0-1.42-.22,1.8,1.8,0,0,0-1.28.4,1.47,1.47,0,0,0-.42,1.11v.39a2.56,2.56,0,0,1,.76-.37,2.74,2.74,0,0,1,.82-.13,2.27,2.27,0,0,1,1.61.52,2.07,2.07,0,0,1,.53,1.53,2,2,0,0,1-.59,1.52,2.51,2.51,0,0,1-1.77.56A2.44,2.44,0,0,1,137.21,199.11Zm2.83-.54a1.21,1.21,0,0,0,.35-.92,1.34,1.34,0,0,0-.3-1,1.42,1.42,0,0,0-1.05-.32,2.46,2.46,0,0,0-.75.13,2.25,2.25,0,0,0-.67.35v.67A1.21,1.21,0,0,0,139,198.9,1.5,1.5,0,0,0,140,198.57Z"/><path class="cls-5" d="M66,218a1.45,1.45,0,0,1-.34-1v-2.51h.77V217a.85.85,0,0,0,.19.62.82.82,0,0,0,.59.19,1.49,1.49,0,0,0,.59-.13,1.52,1.52,0,0,0,.47-.33v-2.82h.77v3.82h-.7l0-.42a1.94,1.94,0,0,1-1.34.49A1.27,1.27,0,0,1,66,218Z"/><path class="cls-5" d="M68.12,213.86a.77.77,0,0,1,0-1.1.84.84,0,0,1,1.13,0,.77.77,0,0,1,0,1.1.87.87,0,0,1-1.13,0Zm.8-.32a.33.33,0,0,0,.09-.23.36.36,0,0,0-.09-.24.33.33,0,0,0-.23-.1.37.37,0,0,0-.24.1.33.33,0,0,0-.1.24.3.3,0,0,0,.1.23.37.37,0,0,0,.24.1A.33.33,0,0,0,68.92,213.54Z"/><path class="cls-5" d="M68,211.65h-.43v-.49h.94v.55h1.08l0,.49H68Z"/><path class="cls-5" d="M71.42,215.9a1.3,1.3,0,0,0-.07-.49.47.47,0,0,0-.24-.28,1.18,1.18,0,0,0-.52-.09,2.2,2.2,0,0,0-.49.05,2.09,2.09,0,0,0-.48.13v-.59a2.22,2.22,0,0,1,.53-.16,3,3,0,0,1,.59-.06,1.48,1.48,0,0,1,1.1.34,1.4,1.4,0,0,1,.35,1.05v2.5h-.77Z"/><path class="cls-5" d="M73.08,214.48h.77v1.21H75a.79.79,0,0,0,.57-.17.77.77,0,0,0,.16-.54v-.5h.77V215a1,1,0,0,1-.58,1,.64.64,0,0,1,.42.34,1.25,1.25,0,0,1,.12.58v1.41h-.76V217a.78.78,0,0,0-.16-.57.81.81,0,0,0-.57-.15H73.85v2h-.77Z"/><path class="cls-5" d="M77.7,218a1.45,1.45,0,0,1-.35-1v-2.51h.77V217a.9.9,0,0,0,.19.62.84.84,0,0,0,.6.19,1.44,1.44,0,0,0,.58-.13,1.7,1.7,0,0,0,.48-.33v-2.82h.76v3.82H80l0-.42a2,2,0,0,1-1.35.49A1.23,1.23,0,0,1,77.7,218Z"/><path class="cls-5" d="M79.06,212.87h.63v.5h1.83l0,.54H79.06Z"/><path class="cls-5" d="M81.69,216.92a.8.8,0,0,1,.56-.87l-.76-.19v-.8a2.61,2.61,0,0,1,.79-.46,2.68,2.68,0,0,1,1-.19,2,2,0,0,1,1.31.36,1.43,1.43,0,0,1,.43,1.16v2.37h-.77v-2.39a.87.87,0,0,0-.22-.68,1.2,1.2,0,0,0-.78-.19,2.27,2.27,0,0,0-.65.09,1.34,1.34,0,0,0-.49.27v.12l.81.21v.51a.61.61,0,0,0-.39.22.78.78,0,0,0-.11.47v1.37h-.77Z"/><path class="cls-5" d="M86.2,218.09a1.06,1.06,0,0,1-.36-.89,1.08,1.08,0,0,1,.38-.87,1.74,1.74,0,0,1,1.1-.31h1.17v-.24a.71.71,0,0,0-.21-.58,1.37,1.37,0,0,0-.78-.16,4.08,4.08,0,0,0-1.24.18v-.59a3.64,3.64,0,0,1,.65-.16,4.59,4.59,0,0,1,.73-.06,3.5,3.5,0,0,1,.65.07h1.28l0,.61h-.45a.89.89,0,0,1,.14.33,2.85,2.85,0,0,1,0,.44v2.44h-.76v-1.68H87.37a1.07,1.07,0,0,0-.6.13.51.51,0,0,0-.19.45.47.47,0,0,0,.17.43,1.11,1.11,0,0,0,.6.13,1.65,1.65,0,0,0,.48-.06v.59a2.84,2.84,0,0,1-.69.08A1.46,1.46,0,0,1,86.2,218.09Z"/><path class="cls-5" d="M88.59,219.21h-.45l0-.51h1.07v1.38h-.66Z"/><path class="cls-5" d="M90.26,214.48H91l.05.42a2,2,0,0,1,1.35-.49,1.22,1.22,0,0,1,.94.36,1.4,1.4,0,0,1,.34,1v2.52h-.76v-2.48a.67.67,0,0,0-.79-.78,1.43,1.43,0,0,0-.58.12,1.67,1.67,0,0,0-.48.34v2.8h-.77Z"/><path class="cls-5" d="M95.17,218.29a3.29,3.29,0,0,1-.7-.2v-1.44h.71v1a2.36,2.36,0,0,0,.78.13,1.37,1.37,0,0,0,.66-.13.63.63,0,0,0,.08-.85.76.76,0,0,0-.33-.19l-.71-.18a5.32,5.32,0,0,1-.67-.19,1.3,1.3,0,0,1-.43-.29.76.76,0,0,1-.16-.51.82.82,0,0,1,.42-.75,2.38,2.38,0,0,1,1.22-.26,4.74,4.74,0,0,1,.75.06,2.67,2.67,0,0,1,.58.13v.63a2.37,2.37,0,0,0-.57-.14,3.74,3.74,0,0,0-.66-.05,2.93,2.93,0,0,0-.74.07c-.18,0-.27.14-.27.29a.3.3,0,0,0,.18.28,5,5,0,0,0,.59.18l.2,0,.23.06a4.29,4.29,0,0,1,.68.24,1,1,0,0,1,.41.35,1.08,1.08,0,0,1,.14.61,1,1,0,0,1-.41.9,1.84,1.84,0,0,1-1.14.31A3.86,3.86,0,0,1,95.17,218.29Z"/><path class="cls-5" d="M94.45,213.37h2.91v.54h-3Z"/><path class="cls-5" d="M100.73,217.92a2.75,2.75,0,0,1,.47-.73,6.61,6.61,0,0,1,.75-.72l.61-.56a1.32,1.32,0,0,0,.26-.37,1.25,1.25,0,0,0,.08-.45.71.71,0,0,0-.22-.57,1.11,1.11,0,0,0-.7-.18,3.13,3.13,0,0,0-1.08.21v-.68a4,4,0,0,1,.59-.14,4.85,4.85,0,0,1,.64,0,1.58,1.58,0,0,1,1.14.37,1.5,1.5,0,0,1,.18,1.8,3.76,3.76,0,0,1-.66.73l-.12.11c-.27.23-.47.41-.61.55a2.3,2.3,0,0,0-.35.47h2v.59h-3Z"/><path class="cls-5" d="M104.93,218.32a2.83,2.83,0,0,1-.58-.15v-.68a2.09,2.09,0,0,0,.55.17,4.44,4.44,0,0,0,.62.05,1.33,1.33,0,0,0,.8-.19.7.7,0,0,0,.25-.61.82.82,0,0,0-.19-.6,1.06,1.06,0,0,0-.71-.18h-1.34v-.47l.12-1.91H107l-.06.59H105.1l-.08,1.2h.77a1.7,1.7,0,0,1,1.18.34,1.32,1.32,0,0,1,.38,1,1.34,1.34,0,0,1-.44,1.07,2,2,0,0,1-1.3.38A5.31,5.31,0,0,1,104.93,218.32Z"/><path class="cls-5" d="M110.79,216.92a.79.79,0,0,1,.55-.87l-.76-.19v-.8a2.74,2.74,0,0,1,.79-.46,2.68,2.68,0,0,1,1-.19,2,2,0,0,1,1.31.36,1.43,1.43,0,0,1,.44,1.16v2.37h-.77v-2.39a.87.87,0,0,0-.23-.68,1.2,1.2,0,0,0-.78-.19,2.27,2.27,0,0,0-.65.09,1.21,1.21,0,0,0-.48.27v.12l.8.21v.51a.67.67,0,0,0-.39.22.86.86,0,0,0-.11.47v1.37h-.76Z"/><path class="cls-5" d="M115.57,218.32a2.17,2.17,0,0,1-.56-.14v-.64a3,3,0,0,0,.57.16,3.09,3.09,0,0,0,.58.06,1.88,1.88,0,0,0,.74-.1.36.36,0,0,0,.22-.36A.41.41,0,0,0,117,217a.59.59,0,0,0-.23-.16,4.46,4.46,0,0,0-.46-.16l-.27-.1a2.7,2.7,0,0,1-.87-.43.83.83,0,0,1-.29-.67.94.94,0,0,1,.39-.8,1.93,1.93,0,0,1,1.15-.29,4.7,4.7,0,0,1,.63.05l.53.12v.64a2.37,2.37,0,0,0-.51-.13,2.59,2.59,0,0,0-.54-.05,1.89,1.89,0,0,0-.67.09.34.34,0,0,0-.23.35.37.37,0,0,0,.09.25.72.72,0,0,0,.26.16,4.19,4.19,0,0,0,.5.18l.21.07a2.32,2.32,0,0,1,.87.45,1,1,0,0,1-.14,1.52,2.14,2.14,0,0,1-1.14.26A5.87,5.87,0,0,1,115.57,218.32Z"/><path class="cls-5" d="M116,212.87h.64v.5h1.83l0,.54H116Z"/><path class="cls-5" d="M120,218.25a1.88,1.88,0,0,1-.6-.37l0,.42h-.7v-3.82h.77v2.82a1.8,1.8,0,0,0,.47.33,1.44,1.44,0,0,0,.58.13.69.69,0,0,0,.79-.81v-2.47H122V217a1.45,1.45,0,0,1-.34,1,1.27,1.27,0,0,1-1,.36A2.07,2.07,0,0,1,120,218.25Z"/><rect class="cls-7" x="97.17" y="12.25" width="90.1" height="234.09"/></g></g></svg>