<svg xmlns="http://www.w3.org/2000/svg" xmlns:xlink="http://www.w3.org/1999/xlink" viewBox="0 0 160.12 219.73"><defs><style>.cls-1,.cls-10,.cls-4,.cls-6{fill:#fff;}.cls-1,.cls-9{stroke:#95bec8;stroke-linecap:round;stroke-linejoin:round;}.cls-1,.cls-5,.cls-6,.cls-9{stroke-width:0.65px;}.cls-2{fill:#e97625;}.cls-3{fill:#434264;}.cls-5,.cls-9{fill:none;}.cls-5,.cls-6{stroke:#fff;stroke-miterlimit:10;}.cls-7{fill:#95bec8;}.cls-8{clip-path:url(#clip-path);}.cls-10{opacity:0.33;}</style><clipPath id="clip-path"><polygon class="cls-1" points="149.11 0.33 11.01 0.33 0.33 19.31 159.79 19.31 149.11 0.33"/></clipPath></defs><title>Asset 13</title><g id="Layer_2" data-name="Layer 2"><g id="นมไทยเดน"><rect class="cls-1" x="0.33" y="18.93" width="159.46" height="200.47"/><path class="cls-2" d="M49.43,37.67H94s2.18-3.93,3-3.93,0,2.62.88,2.62,2.62,0,2.62-.87,0-1.75.87-1.75,2.62,6.11,5.24,7,1.75,3.49-.87,3.49-4.37,0-6.12-1.75-3.49-.87-2.62,0,1.75.88,1.75,1.75-1.9,5.09-2.78,5.09-.8-1.22-1.59-1.6c-1.44-.68-1.39.15-3,.84a17,17,0,0,1-2.28,2.27,21.6,21.6,0,0,1-2.28,1.52c-1.86,1.86-.76,3.8,2.28,3.8.7,0,1.52,0,1.52.76s-3.26,1.29-3.26,3-1.75,8.74-.88,9.61,1.75.87,1.75,1.75,0,3.49-1.75,2.62a3.11,3.11,0,0,1-1.74-2.62V59.07c0-1.75,0-4.37-.88-3.5s-8.73,7.87-15.72,7.87c0,0,.87-2.62,0-2.62s-4.37,3.49-4.37,3.49-4.36,3.49-5.24,2.62-1.74-1.75,0-5.24a21.44,21.44,0,0,1,3.5-5.24S61.22,53,60.35,53s0,3.5-1.75,5.24A9.48,9.48,0,0,0,56,64.31c0,1.75.88,5.24,1.75,6.11s3.49,2.62,2.62,4.37-3.49.87-3.49.87-2.63,0-2.63-3.49a48.51,48.51,0,0,0-.87-7.86s-1.75-2.62,1.75-7c0-.87-1.75-1.75-1.75-1.75l-.87-.87s-1.75,3.49-1.75,5.24,0,5.24-.87,7-.88,4.37,0,5.24,1.74,1.75.87,2.62-3.49,0-3.49,0-.88,0-.88-3.49V66.06c0-2.62.88-18.35.88-18.35S46.37,38.11,49.43,37.67Z"/><path class="cls-2" d="M93.54,49.46l1.75,2.62h16.59a3.89,3.89,0,0,1,2.62,3.49v8.74l-1.74,1.75c-.88.87,0,4.36,0,4.36s.87,2.62-2.62,2.62-.88-.87,0-2.62.87-5.24.87-5.24-.87-2.62-2.62-2.62H98.78v7.86A2.57,2.57,0,0,1,96.16,73c-2.62,0,.87-1.74.87-3.49V66.06l-1.74,3.49s0,1.75-2.62.87,2.62-1.74,2.62-3.49.87-4.37,0-5.24-2.62-.87-2.62-4.37c0-.87-.88-2.62-1.75-2.62s-3.49,0-2.62-.87,2.62-.88,3.49-2.62S93.54,49.46,93.54,49.46Z"/><path class="cls-3" d="M35.68,88.24s16.37,2.05,39.91-5.12S123.67,77,123.67,77v25.58s-35.81,1-49.11,6.14-38.88,5.12-38.88,5.12Z"/><path class="cls-3" d="M20.34,91.31s2-7.16,15.34-6.14v26.38s-11.25-2.85-15.34,5.34Z"/><path class="cls-3" d="M139,99.39s-2,7.27-15.35,6.24V79.15S134.93,82,139,73.81Z"/><path class="cls-4" d="M49.55,95.58l0,2c-.6,0-.91.07-1.51.1l.1,7.83c-1,.06-1.53.08-2.54.11l-.11-7.83-1.5,0,0-2C46.22,95.79,47.33,95.74,49.55,95.58Z"/><path class="cls-4" d="M56,95c.05,3.92.08,5.87.13,9.79-1,.13-1.53.18-2.54.29,0-1.65,0-2.47-.06-4.11l-.76.07c0,1.65,0,2.47.06,4.12-1,.09-1.53.14-2.55.21,0-3.91-.07-5.87-.13-9.79,1-.07,1.53-.12,2.55-.22,0,1.4,0,2.11,0,3.51l.77-.08-.05-3.5Z"/><path class="cls-4" d="M61.4,94.19c.63,3.83,1,5.74,1.58,9.56l-2.6.41c-.06-.69-.1-1-.16-1.74l-.91.14c-.05.71-.08,1.07-.13,1.78l-2.63.36c.47-4,.71-6,1.17-10C59.19,94.53,59.93,94.43,61.4,94.19Zm-1.27,6.51c-.14-1.09-.29-2.44-.44-4.06-.23,1.92-.38,3.31-.43,4.19Z"/><path class="cls-4" d="M65.82,93.44c.05,3.92.08,5.87.13,9.79l-2.54.45c0-3.92-.08-5.88-.13-9.8Z"/><path class="cls-4" d="M69.82,97.63c0,.67,0,1,0,1.69l-3.2.61,0-1.69Z"/><path class="cls-4" d="M70.48,92.55l1.9-.38a12.71,12.71,0,0,1,2.49-.35,1.59,1.59,0,0,1,1,.35,1.39,1.39,0,0,1,.44.78,13.81,13.81,0,0,1,.11,1.84c0,1.37,0,2.06,0,3.43a8.34,8.34,0,0,1-.1,1.79,1.77,1.77,0,0,1-.42.79,2.42,2.42,0,0,1-.76.51,7,7,0,0,1-1.36.38c-1.28.27-1.92.4-3.2.65C70.56,98.43,70.53,96.47,70.48,92.55ZM73,93.71l.09,6.44c.36-.07.59-.19.67-.36a3.45,3.45,0,0,0,.11-1.22l0-3.81a5.58,5.58,0,0,0,0-.84.33.33,0,0,0-.2-.24A1.15,1.15,0,0,0,73,93.71Z"/><path class="cls-4" d="M77.31,91.14l4.23-.91,0,2-1.7.37c0,.74,0,1.11,0,1.85l1.58-.34c0,.75,0,1.12,0,1.87l-1.59.33,0,2.16,1.86-.4c0,.78,0,1.18,0,2l-4.4.94C77.38,97,77.36,95.06,77.31,91.14Z"/><path class="cls-4" d="M88.11,88.85c0,3.92.08,5.87.13,9.79L86,99.1c-.55-1.67-.82-2.5-1.38-4.17,0,1.78,0,2.67.06,4.45l-2.12.45c0-3.91-.08-5.87-.13-9.79l2.12-.45c.6,1.64.89,2.46,1.49,4.11,0-1.76,0-2.65-.06-4.41Z"/><path class="cls-4" d="M97,87.15c0,3.92.08,5.88.13,9.79l-2.22.4c0-2.64-.06-4-.09-6.61L94,97.51c-.63.11-.95.17-1.58.3-.4-2.52-.61-3.77-1-6.28,0,2.58,0,3.87.08,6.46l-2.22.44c-.05-3.91-.08-5.87-.13-9.79,1.31-.27,2-.4,3.29-.65.1.57.21,1.24.33,2,.15,1,.23,1.46.39,2.42.21-1.87.31-2.81.52-4.68Z"/><path class="cls-4" d="M102.38,86.29c.63,3.84,1,5.76,1.58,9.6-1,.13-1.56.21-2.59.36-.07-.69-.1-1-.16-1.74l-.91.14c-.06.72-.08,1.07-.13,1.79-1,.16-1.58.25-2.63.43.47-4,.7-6,1.17-10C100.18,86.62,100.91,86.5,102.38,86.29Zm-1.26,6.5c-.15-1.09-.29-2.44-.44-4.06-.24,1.92-.38,3.32-.44,4.19Z"/><path class="cls-4" d="M104.27,86c.72-.1,1.08-.14,1.8-.22a11.62,11.62,0,0,1,2.44-.12,1.48,1.48,0,0,1,1,.61,4.3,4.3,0,0,1,.17,3.35,1.63,1.63,0,0,1-1.12.57,1.81,1.81,0,0,1,1,.41,1.57,1.57,0,0,1,.33.55,9.86,9.86,0,0,1,.08,1.45c0,1,0,1.55,0,2.58-.94.08-1.41.12-2.36.22,0-1.3,0-2,0-3.25a2.06,2.06,0,0,0-.14-1c-.08-.12-.3-.16-.65-.12,0,1.77,0,2.65.06,4.41l-2.54.31C104.34,91.91,104.32,90,104.27,86Zm2.56,1.37c0,.87,0,1.3,0,2.17a1.18,1.18,0,0,0,.6-.18c.11-.09.17-.35.16-.78v-.54c0-.31-.06-.51-.17-.59A.82.82,0,0,0,106.83,87.41Z"/><path class="cls-4" d="M117,85.07c-.56,1.78-.85,2.67-1.41,4.45.67,2.13,1,3.2,1.67,5.34-1.05,0-1.57,0-2.63.07l-1.08-4.15,0,4.2c-1,0-1.52.08-2.54.16l-.13-9.79c1-.08,1.53-.11,2.54-.16l0,3.8c.44-1.54.65-2.31,1.09-3.85C115.56,85.1,116,85.08,117,85.07Z"/><path class="cls-3" d="M80.44,164.85C44.07,164.85,13,141.41.33,108.26V208.1H159.79V110.18C146.69,142.31,116.1,164.85,80.44,164.85Z"/><path class="cls-4" d="M.7,203.47s92.9-20.94,159.09,0v15.46H.33V203.55Z"/><path class="cls-4" d="M126.72,189c1.31.09,3.54-.21,4.5.94-1.39,2.16-6.44.45-8.41.47h-3.88c-.77,0-2.51-.33-3,.43-1,1.37,2.76,2.49,3.28,3.45,1,1.75-1.81,1.66-2.79,1.86-3,.65-4.3,2.89-6.57,4.73-2.07,1.66-5.18,2.14-7.74,2.46a74.64,74.64,0,0,1-13.78.47c-7.36-.41-14.72-1.24-22.08-1.5A48,48,0,0,1,57,201a40.11,40.11,0,0,1-5.65-1.37c-2.09-.83-6.85-1-7-4.1a.59.59,0,0,0,0,.08c-.48-1.48-2.2-2-3.58-2.38-1-.26-2-.71-3-.88a34.47,34.47,0,0,1-3.47-.49,28.64,28.64,0,0,1-2.76-.89c-1.31-.48-1.8-1.33-2.69-2.35.11-.91,2.14-.94,2.81-.79,1.19.27,2.29,1,3.48,1.19.94.18,1.91.27,2.84.44,1.35.26,2.75.49,3.34-.9a4.18,4.18,0,0,0,.25-.79,2.84,2.84,0,0,0,1.55,1.74c3,1,2.34-3.95,2-5.38a7.29,7.29,0,0,0-.5-1.33l2.09-.37c1.1,2.45,4.39,4.44,6.16,1.23,1.58-2.89.52-6.9-1-9.57-.33-.56-1.66-2.05-1.57-2.84.19-1.47,2.78-1.16,3.65-.8a4.14,4.14,0,0,1,2.31,2.75,11.1,11.1,0,0,1,0,2.64,5.28,5.28,0,0,0,1,2.67c.81,1.43,1.23,2.49,2.82,3.3s2.72,1.16,3.25-.66c.34-1.19.35-2.9,1.3-3.85a4.4,4.4,0,0,1,5.08-.35c.5.31.88.87,1.36,1.21.81.56,2,.63,2.67,1.29,1,.9,1.43,2.65,2.24,3.71A4.58,4.58,0,0,0,79,185c1.34.15,2.2-.68,3.47-.9,1.75-.31,3.26.87,5,.93a5,5,0,0,0,2.38-.73,26.1,26.1,0,0,1,3.3-1.11c1.7-.56,3.38-1.23,5.08-1.76s3.71-.85,5.48-1.49c.88-.31,3.73-2,4.59-1.18-.09,1.06-1.86,1.49-2.59,2.08-1,.81-3.44,2-2.53,3.48.55.87,2.27,1.18,3.22,1.14,1.55-.06,2.73-1,4.24-.05,1.16.7,1.57,1.9,3,2.25s2.88-.09,4.3.16A80.63,80.63,0,0,0,126.72,189Z"/><path class="cls-4" d="M46.52,182.08c0,.11.08.2.13.31l-2.09.37c-.34-.71-.76-1.38-1.11-2.1s-1.53-2.79-1.34-3.63c.41-1.8,2.54,0,3,.85C45.68,179.13,46,180.75,46.52,182.08Z"/><path class="cls-4" d="M39.79,184.48c1.33.94,2.07,1.81,1.75,3.25-.13-.28-.25-.56-.38-.82a26.77,26.77,0,0,0-1.4-2.45Z"/><path class="cls-4" d="M38.86,183.13c.31.44.61.88.9,1.33-1.23-.86-2.76-1.43-4.07-2.23a16.43,16.43,0,0,1-5-4.63c-.4-.56-1.66-1.94-1.34-2.75.21-.53,2.1-.6,2.55-.49a4.34,4.34,0,0,1,1.94,1.46,19,19,0,0,1,2.76,2.84C37.53,180.08,37.85,181.72,38.86,183.13Z"/><path class="cls-5" d="M39.76,184.46a26.77,26.77,0,0,1,1.4,2.45c.13.26.25.54.38.82a2.84,2.84,0,0,0,1.55,1.74c3,1,2.34-3.95,2-5.38a7.29,7.29,0,0,0-.5-1.33c-.34-.71-.76-1.38-1.11-2.1s-1.53-2.79-1.34-3.63c.41-1.8,2.54,0,3,.85.61,1.25,1,2.87,1.45,4.2,0,.11.08.2.13.31,1.1,2.45,4.39,4.44,6.16,1.23,1.58-2.89.52-6.9-1-9.57-.33-.56-1.66-2.05-1.57-2.84.19-1.47,2.78-1.16,3.65-.8a4.14,4.14,0,0,1,2.31,2.75,11.1,11.1,0,0,1,0,2.64,5.28,5.28,0,0,0,1,2.67c.81,1.43,1.23,2.49,2.82,3.3s2.72,1.16,3.25-.66c.34-1.19.35-2.9,1.3-3.85a4.4,4.4,0,0,1,5.08-.35c.5.31.88.87,1.36,1.21.81.56,2,.63,2.67,1.29,1,.9,1.43,2.65,2.24,3.71A4.58,4.58,0,0,0,79,185c1.34.15,2.2-.68,3.47-.9,1.75-.31,3.26.87,5,.93a5,5,0,0,0,2.38-.73,26.1,26.1,0,0,1,3.3-1.11c1.7-.56,3.38-1.23,5.08-1.76s3.71-.85,5.48-1.49c.88-.31,3.73-2,4.59-1.18-.09,1.06-1.86,1.49-2.59,2.08-1,.81-3.44,2-2.53,3.48.55.87,2.27,1.18,3.22,1.14,1.55-.06,2.73-1,4.24-.05,1.16.7,1.57,1.9,3,2.25s2.88-.09,4.3.16a80.63,80.63,0,0,0,8.76,1.24c1.31.09,3.54-.21,4.5.94-1.39,2.16-6.44.45-8.41.47h-3.88c-.77,0-2.51-.33-3,.43-1,1.37,2.76,2.49,3.28,3.45,1,1.75-1.81,1.66-2.79,1.86-3,.65-4.3,2.89-6.57,4.73-2.07,1.66-5.18,2.14-7.74,2.46a74.64,74.64,0,0,1-13.78.47c-7.36-.41-14.72-1.24-22.08-1.5A48,48,0,0,1,57,201a40.11,40.11,0,0,1-5.65-1.37c-2.09-.83-6.85-1-7-4.1a.59.59,0,0,0,0,.08A12.58,12.58,0,0,0,42.52,201"/><path class="cls-5" d="M39.76,184.46c-1.23-.86-2.76-1.43-4.07-2.23a16.43,16.43,0,0,1-5-4.63c-.4-.56-1.66-1.94-1.34-2.75.21-.53,2.1-.6,2.55-.49a4.34,4.34,0,0,1,1.94,1.46,19,19,0,0,1,2.76,2.84c.91,1.42,1.23,3.06,2.24,4.47C39.17,183.57,39.47,184,39.76,184.46Z"/><path class="cls-5" d="M44.35,199.59a23.56,23.56,0,0,0,0-3.66,3.1,3.1,0,0,0-.1-.36c-.48-1.48-2.2-2-3.58-2.38-1-.26-2-.71-3-.88a34.47,34.47,0,0,1-3.47-.49,28.64,28.64,0,0,1-2.76-.89c-1.31-.48-1.8-1.33-2.69-2.35.11-.91,2.14-.94,2.81-.79,1.19.27,2.29,1,3.48,1.19.94.18,1.91.27,2.84.44,1.35.26,2.75.49,3.34-.9a4.18,4.18,0,0,0,.25-.79c.32-1.44-.42-2.31-1.75-3.25l0,0"/><path class="cls-6" d="M73.29,190.92s4.19-62,25.14-77.07l30.16,12.57s-42.73,34.34-44.4,64.5Z"/><path class="cls-7" d="M77.08,177.11c-.27.93-.54,1.86-.82,2.79a1.14,1.14,0,0,0,2.2.6c.27-.93.54-1.86.82-2.79A1.14,1.14,0,0,0,77.08,177.11Z"/><path class="cls-7" d="M76.74,182.51a1.14,1.14,0,0,0,0,2.27A1.14,1.14,0,0,0,76.74,182.51Z"/><path class="cls-7" d="M93.05,156.25a59.11,59.11,0,0,0-6.2,9.75c-.66,1.31,1.31,2.46,2,1.15a56,56,0,0,1,5.85-9.29C95.56,156.72,94,155.1,93.05,156.25Z"/><path class="cls-7" d="M63.86,184.9c-.34,1.58-2.45.44-3.15-.25-1-1-2.64.57-1.61,1.61,1.92,1.92,6.21,2.73,7-.75C66.37,184.08,64.18,183.47,63.86,184.9Z"/><path class="cls-7" d="M56.4,182.86h-.1a1.14,1.14,0,1,0,0,2.27h.1a1.14,1.14,0,1,0,0-2.27Z"/><path class="cls-7" d="M51,192.09a4.47,4.47,0,0,1-2.3-.84,1.14,1.14,0,1,0-1.15,2A6.66,6.66,0,0,0,51,194.36C52.44,194.45,52.43,192.17,51,192.09Z"/><path class="cls-7" d="M53.93,192.85a1.14,1.14,0,0,0,0,2.28A1.14,1.14,0,0,0,53.93,192.85Z"/><path class="cls-7" d="M114.1,195c-.4-1.06-1.66-1.82-2.48-2.53a1.17,1.17,0,0,0-1.61,0,1.15,1.15,0,0,0,0,1.61l1.21,1.05.36.31a1.19,1.19,0,0,0,.51,1.9A1.73,1.73,0,0,0,114.1,195Z"/><path class="cls-7" d="M84.4,188.65a38.29,38.29,0,0,0-1.37,6.7c-.16,1.46,2.12,1.45,2.28,0a34.19,34.19,0,0,1,1.29-6.09A1.14,1.14,0,0,0,84.4,188.65Z"/><path class="cls-3" d="M67.59,121.06a2.31,2.31,0,0,1-.69-1.67,3.78,3.78,0,0,1,.3-2,1.65,1.65,0,0,1,1.18-.93,1.31,1.31,0,0,1,.59,0,.87.87,0,0,1,.4.26,1.51,1.51,0,0,1,.47-.43,1.84,1.84,0,0,1,.64-.26,1.08,1.08,0,0,1,1,.18,1.39,1.39,0,0,1,.39,1c.11,1.39.16,2.08.27,3.47l-1.21.25c-.11-1.32-.16-2-.26-3.29a.94.94,0,0,0-.13-.47c-.06-.09-.17-.12-.33-.08a.5.5,0,0,0-.29.16.59.59,0,0,0-.15.34l-.59.12a.8.8,0,0,0-.22-.27.32.32,0,0,0-.28,0,.67.67,0,0,0-.53.54,3.94,3.94,0,0,0-.06,1.25,1.62,1.62,0,0,0,.36,1.06.93.93,0,0,0,.84.16,2.2,2.2,0,0,0,.62-.21c0,.35,0,.53.06.88a2.52,2.52,0,0,1-.82.3A1.77,1.77,0,0,1,67.59,121.06Z"/><path class="cls-3" d="M73.83,120.3a3.4,3.4,0,0,1-.76,0l-.07-1a4.16,4.16,0,0,0,.75.07,3.57,3.57,0,0,0,.76-.07,3,3,0,0,0,.86-.25.43.43,0,0,0,.11-.66.71.71,0,0,0-.29-.13l-.57-.1-.39,0a2.74,2.74,0,0,1-1.11-.34.92.92,0,0,1-.4-.76,1.38,1.38,0,0,1,.44-1.13,2.66,2.66,0,0,1,1.47-.67,7.42,7.42,0,0,1,.84-.1,3.89,3.89,0,0,1,.72,0l.07,1a3.33,3.33,0,0,0-.67-.06,4.88,4.88,0,0,0-.71.07,2.25,2.25,0,0,0-.76.25.42.42,0,0,0-.25.41.3.3,0,0,0,.21.28,3.48,3.48,0,0,0,.72.13l.43.06a3.5,3.5,0,0,1,.85.21,1,1,0,0,1,.47.37,1.21,1.21,0,0,1,.19.63,1.27,1.27,0,0,1-.45,1.12,3,3,0,0,1-1.48.63A7,7,0,0,1,73.83,120.3Z"/><path class="cls-3" d="M79.19,116.35a1.09,1.09,0,0,0-.27-.72.84.84,0,0,0-.76-.11,3.34,3.34,0,0,0-.62.16A4.6,4.6,0,0,0,77,116c0-.35,0-.53-.06-.88a4.07,4.07,0,0,1,.66-.32,3.85,3.85,0,0,1,.77-.21,2,2,0,0,1,1.51.18,1.6,1.6,0,0,1,.56,1.26c.1,1.23.14,1.85.24,3.09l-1.22.2Z"/><path class="cls-3" d="M82.06,118.62a.94.94,0,0,1-.31-.72c-.11-1.51-.17-2.27-.29-3.79a1.56,1.56,0,0,1,.5-1.39l-1.4.22c0-.37,0-.56-.08-.93l2.88-.44.07.87a1.32,1.32,0,0,0-.62.59,2.06,2.06,0,0,0-.13.94c.11,1.38.16,2.06.27,3.44a.3.3,0,0,0,.4.31l.31,0c0,.37,0,.55.07.92l-.83.13A1.11,1.11,0,0,1,82.06,118.62Z"/><path class="cls-3" d="M84.12,113.73l1.12-.16c0,.18.06.27.09.46a2.81,2.81,0,0,1,.74-.52,3.22,3.22,0,0,1,.91-.27,1.56,1.56,0,0,1,1.25.3,1.76,1.76,0,0,1,.54,1.21c.09,1.25.14,1.88.24,3.13l-1.23.16c-.09-1.23-.14-1.84-.23-3.06a.88.88,0,0,0-.27-.63.9.9,0,0,0-.68-.12,1.81,1.81,0,0,0-.65.23,1.69,1.69,0,0,0-.51.43c.11,1.37.16,2.06.27,3.43l-1.22.17C84.34,116.59,84.27,115.63,84.12,113.73Z"/><path class="cls-3" d="M90.46,117.43a1.19,1.19,0,0,1-.73-1.1,1.17,1.17,0,0,1,.11-.61,1.18,1.18,0,0,1,.43-.49,1,1,0,0,1-.47-.32,1,1,0,0,1-.21-.57,1.37,1.37,0,0,1,.36-1.1,1.89,1.89,0,0,1,1.16-.51,2.87,2.87,0,0,1,.85,0c0,.35,0,.53.07.88a2.21,2.21,0,0,0-.63,0,.86.86,0,0,0-.5.17.51.51,0,0,0,.07.77,1.15,1.15,0,0,0,.59,0l.51-.05c0,.35.06.52.11.87l-.56.06c-.52.06-.76.29-.73.7a.48.48,0,0,0,.31.42,1.9,1.9,0,0,0,.87.06c.77-.09,1.13-.44,1.09-1.06-.1-1.2-.14-1.8-.24-3l1.23-.12c.09,1.15.13,1.73.22,2.89a1.8,1.8,0,0,1-.47,1.54,2.87,2.87,0,0,1-1.7.67A3.49,3.49,0,0,1,90.46,117.43Z"/><path class="cls-3" d="M95.2,114.31l3.51-.31c0,.37,0,.56.07.93-1.41.11-2.11.18-3.51.31C95.24,114.87,95.23,114.69,95.2,114.31Z"/><path class="cls-3" d="M100,116.54a1,1,0,0,1-.3-.74c-.12-1.51-.18-2.27-.29-3.78l1.22-.09c.11,1.39.17,2.08.27,3.47a.33.33,0,0,0,.41.34l.31,0c0,.37,0,.56.07.93l-.84.06A1.22,1.22,0,0,1,100,116.54Z"/><path class="cls-3" d="M102.93,116.07a2.58,2.58,0,0,1-.7-1.76,2.62,2.62,0,0,1,.51-1.94,2.56,2.56,0,0,1,1.87-.78,3.28,3.28,0,0,1,1.42.2,1.84,1.84,0,0,1,.87.68,2,2,0,0,1,.34,1c.09,1.15.13,1.73.22,2.88l-1.23.06c-.09-1.12-.13-1.68-.22-2.8a1.14,1.14,0,0,0-.35-.82,1.31,1.31,0,0,0-1-.24c-.92,0-1.34.63-1.26,1.72a1.7,1.7,0,0,0,.37,1.09,1,1,0,0,0,.86.29,2.09,2.09,0,0,0,.62-.1l.07.87a2.65,2.65,0,0,1-.84.17A2,2,0,0,1,102.93,116.07Z"/><path class="cls-3" d="M109,115.87a1.82,1.82,0,0,1-.56-1.27c-.1-1.24-.14-1.86-.24-3.1l1.23,0c.1,1.21.14,1.81.24,3a1,1,0,0,0,.27.69,1,1,0,0,0,.68.19,1.7,1.7,0,0,0,.66-.17,1.45,1.45,0,0,0,.51-.36c-.11-1.38-.16-2.06-.27-3.44l1.24,0c.15,1.91.22,2.86.37,4.77l-1.13,0-.1-.47a2.52,2.52,0,0,1-1.62.6A1.72,1.72,0,0,1,109,115.87Z"/><path class="cls-3" d="M115.35,115.62c0,.19,0,.28,0,.47l-1.13,0c-.15-1.91-.23-2.86-.37-4.77h1.23c.11,1.37.16,2,.26,3.43a2,2,0,0,0,.57.35,1.82,1.82,0,0,0,.68.13.86.86,0,0,0,.65-.21.87.87,0,0,0,.17-.69c-.1-1.21-.14-1.82-.24-3h1.24c.09,1.24.14,1.86.24,3.1a1.68,1.68,0,0,1-.36,1.29,1.6,1.6,0,0,1-1.22.47A2.79,2.79,0,0,1,115.35,115.62Z"/><path class="cls-3" d="M121.36,113.17a1.23,1.23,0,0,0-.26-.76,1.07,1.07,0,0,0-.77-.25,3.52,3.52,0,0,0-.63.06,3.27,3.27,0,0,0-.6.16l-.07-.87a3.34,3.34,0,0,1,.67-.2,3.57,3.57,0,0,1,.79-.07,2.38,2.38,0,0,1,1.53.44,1.88,1.88,0,0,1,.56,1.34c.1,1.24.15,1.86.24,3.1l-1.23,0Z"/><path class="cls-3" d="M124.59,116.18a3.39,3.39,0,0,1-.77-.2c0-.39,0-.58-.08-1a4.91,4.91,0,0,0,1.54.33,2.69,2.69,0,0,0,.87-.07.29.29,0,0,0,.23-.34.48.48,0,0,0-.11-.28.91.91,0,0,0-.29-.19c-.13-.06-.32-.13-.58-.22l-.4-.13a3.55,3.55,0,0,1-1.13-.58,1.17,1.17,0,0,1-.41-.83,1.09,1.09,0,0,1,.45-1,2.29,2.29,0,0,1,1.5-.34,6.3,6.3,0,0,1,.85.09,5.73,5.73,0,0,1,.73.17c0,.39.05.58.08,1a3.12,3.12,0,0,0-.69-.2,5,5,0,0,0-.72-.09,2.08,2.08,0,0,0-.77.08.32.32,0,0,0-.26.35.38.38,0,0,0,.22.32,5.66,5.66,0,0,0,.73.29l.43.14a4.89,4.89,0,0,1,.87.39,1.54,1.54,0,0,1,.48.47,1.43,1.43,0,0,1,.19.66,1,1,0,0,1-.46,1,2.69,2.69,0,0,1-1.51.29A6.26,6.26,0,0,1,124.59,116.18Z"/><path class="cls-3" d="M124.59,109.38c1.12,0,1.68.05,2.8.1,0,.32,0,.48,0,.81l-1.76-.07,0,.57-1,0Z"/><path class="cls-3" d="M128.28,113.35a1.56,1.56,0,0,1,.47-1.37,2.3,2.3,0,0,1,1.72-.41,2.83,2.83,0,0,1,1.79.6,2.05,2.05,0,0,1,.68,1.43c.09,1.18.13,1.77.22,3l-1.23-.08c-.09-1.22-.14-1.83-.24-3a.91.91,0,0,0-.33-.68,1.46,1.46,0,0,0-.82-.27,1.1,1.1,0,0,0-.8.19.69.69,0,0,0-.23.64c0,.34,0,.51.07.85a1.26,1.26,0,0,1,.83-.23l.6,0,.11.94-.66,0a1.21,1.21,0,0,0-.81.21l.1,1.27-1.24-.06C128.42,115.12,128.37,114.53,128.28,113.35Z"/><ellipse class="cls-4" cx="35.45" cy="145.03" rx="19.12" ry="11.58"/><path class="cls-2" d="M35.45,136c6.9,0,12.5,3.44,12.68,7.73H55c-.18-6.66-8.86-12-19.54-12s-19.35,5.36-19.53,12h6.85C23,139.44,28.56,136,35.45,136Z"/><path class="cls-3" d="M48.13,145.05a1.48,1.48,0,0,1,0,.21c0,4.39-5.68,7.94-12.69,7.94s-12.68-3.55-12.68-7.94v-.21H15.92a1.48,1.48,0,0,0,0,.21c0,6.76,8.75,12.24,19.54,12.24S55,152,55,145.26c0-.07,0-.14,0-.21Z"/><path class="cls-3" d="M50.76,202.32a1.38,1.38,0,0,1-.34-1v-2.38h.92v2.33a.73.73,0,0,0,.16.53A.66.66,0,0,0,52,202a1.1,1.1,0,0,0,.5-.11,1.08,1.08,0,0,0,.4-.27v-2.64h.92v3.67H53l0-.36a2,2,0,0,1-1.24.43A1.2,1.2,0,0,1,50.76,202.32Z"/><path class="cls-3" d="M52.16,196.13h-.53v-.62h1.15v.6h1.45l0,.63h-2Z"/><path class="cls-3" d="M52.79,198.4a.73.73,0,0,1-.24-.56.75.75,0,0,1,.24-.57.89.89,0,0,1,1.17,0,.78.78,0,0,1,.23.57.75.75,0,0,1-.23.56.89.89,0,0,1-1.17,0Zm.79-.35a.3.3,0,0,0,.09-.21.33.33,0,0,0-.09-.22.26.26,0,0,0-.21-.09.29.29,0,0,0-.21.09.33.33,0,0,0-.09.22.3.3,0,0,0,.09.21.29.29,0,0,0,.21.09A.26.26,0,0,0,53.58,198.05Zm2.34,2.3a.93.93,0,0,0-.16-.58.71.71,0,0,0-.56-.18,2.71,2.71,0,0,0-.47,0,2.66,2.66,0,0,0-.45.13v-.67a2.56,2.56,0,0,1,.51-.16,3,3,0,0,1,.59-.06,1.57,1.57,0,0,1,1.11.33,1.35,1.35,0,0,1,.34,1v2.39h-.91Z"/><path class="cls-3" d="M58,202.32a1.38,1.38,0,0,1-.34-1v-2.38h.92v2.33a.73.73,0,0,0,.16.53.68.68,0,0,0,.5.16,1.13,1.13,0,0,0,.5-.11,1.17,1.17,0,0,0,.4-.27v-2.64H61v3.67h-.84l0-.36a2,2,0,0,1-1.24.43A1.23,1.23,0,0,1,58,202.32Z"/><path class="cls-3" d="M62.72,202.25l0,.36h-.84v-3.67h.92v2.64a1.08,1.08,0,0,0,.4.27,1.1,1.1,0,0,0,.5.11.66.66,0,0,0,.49-.16.73.73,0,0,0,.16-.53v-2.33h.92v2.38a1.38,1.38,0,0,1-.34,1,1.2,1.2,0,0,1-.93.36A2,2,0,0,1,62.72,202.25Z"/><path class="cls-3" d="M66.46,202.43a.77.77,0,0,1-.19-.58v-2.31a1,1,0,0,0-.16-.63,1,1,0,0,0-.51-.34v-.68h2.15v.72h-1a1,1,0,0,1,.44.91v2.09c0,.19.09.29.28.29h.23v.71h-.63A.84.84,0,0,1,66.46,202.43Z"/><path class="cls-3" d="M68.17,200.33a1.36,1.36,0,0,1,.42-1.07,1.9,1.9,0,0,1,1.31-.39,1.85,1.85,0,0,1,1.3.39,1.34,1.34,0,0,1,.43,1.07v2.28h-.92v-2.35a.58.58,0,0,0-.22-.5.88.88,0,0,0-.59-.17.91.91,0,0,0-.61.17.6.6,0,0,0-.21.5v.66a1.09,1.09,0,0,1,.64-.21h.45l0,.72H69.7a1,1,0,0,0-.62.2v1h-.91Z"/><path class="cls-3" d="M75.18,202.4a1,1,0,0,1-.48-.91,1,1,0,0,1,.11-.45,1,1,0,0,1,.35-.34.69.69,0,0,1-.33-.28.85.85,0,0,1-.12-.46,1,1,0,0,1,.33-.81,1.37,1.37,0,0,1,.89-.28,1.67,1.67,0,0,1,.63.1v.67a1.65,1.65,0,0,0-.47,0,.65.65,0,0,0-.38.08.39.39,0,0,0,0,.59.79.79,0,0,0,.43.09h.38l0,.68h-.43c-.38,0-.57.15-.57.46a.4.4,0,0,0,.2.36,1.52,1.52,0,0,0,.65.11c.57,0,.86-.23.86-.71v-2.31h.92v2.23a1.41,1.41,0,0,1-.44,1.14,2,2,0,0,1-1.3.37A2.58,2.58,0,0,1,75.18,202.4Z"/><path class="cls-3" d="M76.63,204.24a.47.47,0,0,1-.24-.41v-.32H76l0-.55h1v.65c0,.14.08.22.25.22a.29.29,0,0,0,.19-.06.19.19,0,0,0,.07-.16V203h.65v.72a.7.7,0,0,1-.23.52,1,1,0,0,1-.68.2A1.14,1.14,0,0,1,76.63,204.24Z"/><path class="cls-3" d="M79.21,202.43a.81.81,0,0,1-.18-.58v-2.91h.91v2.67a.26.26,0,0,0,.28.29h.23v.71h-.62A.87.87,0,0,1,79.21,202.43Z"/><path class="cls-3" d="M81.65,202.6a3.11,3.11,0,0,1-.69-.21v-1.93h1.56l0,.67h-.73v.74a1.8,1.8,0,0,0,.31.07,2.06,2.06,0,0,0,.34,0,1.43,1.43,0,0,0,.6-.11.67.67,0,0,0,.31-.37,1.86,1.86,0,0,0,.1-.69,1.79,1.79,0,0,0-.12-.73.76.76,0,0,0-.38-.37,2.09,2.09,0,0,0-.74-.1,4.23,4.23,0,0,0-1.24.18v-.69a3.21,3.21,0,0,1,.69-.15,5.22,5.22,0,0,1,.78-.06,1.9,1.9,0,0,1,1.43.48,2.05,2.05,0,0,1,.45,1.44,2,2,0,0,1-.45,1.41,1.9,1.9,0,0,1-1.43.48A4.49,4.49,0,0,1,81.65,202.6Z"/><path class="cls-3" d="M85.35,202.3a1.31,1.31,0,0,1-.42-1V201a.89.89,0,0,1,.1-.44,3.16,3.16,0,0,1,.27-.41l.16-.22a.41.41,0,0,0,.05-.17.18.18,0,0,0-.05-.14.34.34,0,0,0-.17,0h-.44l.07-.68h1c.37,0,.56.17.56.52a1.06,1.06,0,0,1-.07.37l-.22.41a3,3,0,0,0-.23.39,1,1,0,0,0-.07.39v.29a.61.61,0,0,0,.19.49.77.77,0,0,0,.54.16c.5,0,.75-.22.75-.68v-.42a.57.57,0,0,0-.09-.37.39.39,0,0,0-.31-.11h-.19l0-.64h.12a.45.45,0,0,0,.33-.11.55.55,0,0,0,.1-.37v-.39h.92v.37a1.15,1.15,0,0,1-.1.51.77.77,0,0,1-.37.31.79.79,0,0,1,.37.32,1.22,1.22,0,0,1,.1.51v.35a1.29,1.29,0,0,1-.45,1,1.77,1.77,0,0,1-1.22.39A1.79,1.79,0,0,1,85.35,202.3Z"/><path class="cls-3" d="M89.06,198.94h.84l0,.36a2,2,0,0,1,.57-.32,2.28,2.28,0,0,1,.7-.11,1.18,1.18,0,0,1,.91.36,1.34,1.34,0,0,1,.33,1v2.41h-.92v-2.36a.74.74,0,0,0-.16-.51.73.73,0,0,0-.5-.15,1.27,1.27,0,0,0-.5.1,1.36,1.36,0,0,0-.4.28v2.64h-.91Z"/><path class="cls-3" d="M89.52,197.81H91.7v-.55h.75v1.18h-3Z"/><path class="cls-3" d="M96.2,202.62a2.17,2.17,0,0,1-.56-.14v-.74a2.66,2.66,0,0,0,.56.16,3.07,3.07,0,0,0,.57.06,2,2,0,0,0,.65-.07.27.27,0,0,0,.19-.27.28.28,0,0,0-.07-.21.6.6,0,0,0-.2-.14l-.42-.16-.29-.09a2.5,2.5,0,0,1-.81-.42.79.79,0,0,1-.25-.63.94.94,0,0,1,.39-.8,1.83,1.83,0,0,1,1.13-.3,4.46,4.46,0,0,1,.63,0,3.89,3.89,0,0,1,.54.11v.74a2.12,2.12,0,0,0-.5-.14,3.53,3.53,0,0,0-.54,0,1.76,1.76,0,0,0-.57.07.29.29,0,0,0-.21.29.24.24,0,0,0,.14.23,2.35,2.35,0,0,0,.53.21l.31.1a2.81,2.81,0,0,1,.62.28,1,1,0,0,1,.34.34,1.08,1.08,0,0,1,.1.51.88.88,0,0,1-.4.79,2,2,0,0,1-1.14.27A4.35,4.35,0,0,1,96.2,202.62Z"/><path class="cls-3" d="M99.36,202.4a1,1,0,0,1-.36-.88,1,1,0,0,1,.38-.84,1.66,1.66,0,0,1,1.07-.3h1v-.18a.57.57,0,0,0-.19-.48,1.23,1.23,0,0,0-.67-.13,4.09,4.09,0,0,0-1.22.18v-.69a5.38,5.38,0,0,1,.66-.15,4.34,4.34,0,0,1,.71-.06,2.49,2.49,0,0,1,.65.07h1.28l0,.7h-.42a1.2,1.2,0,0,1,.17.66v2.31h-.92v-1.56h-1a.9.9,0,0,0-.48.11.41.41,0,0,0-.16.36.39.39,0,0,0,.15.35,1.05,1.05,0,0,0,.51.09,1.39,1.39,0,0,0,.46-.05v.67a2.48,2.48,0,0,1-.71.1A1.46,1.46,0,0,1,99.36,202.4Z"/><path class="cls-3" d="M104.47,202.65l-.31-.07-.52-1.38h-.5l0-.66h1l.54,1.44a.77.77,0,0,0,.66-.3,1.57,1.57,0,0,0,.22-.94,1.86,1.86,0,0,0-.11-.7.72.72,0,0,0-.38-.35,2.13,2.13,0,0,0-.74-.1,4,4,0,0,0-.59,0,3.29,3.29,0,0,0-.58.13v-.68a4.61,4.61,0,0,1,1.4-.21,1.91,1.91,0,0,1,1.43.47,2,2,0,0,1,.44,1.4,2.14,2.14,0,0,1-.23,1,1.59,1.59,0,0,1-.62.66,1.67,1.67,0,0,1-.85.23Z"/><path class="cls-3" d="M103.42,197.81h1.24v-.55h.65v.55h.39v-.55h.64v1.18h-3Z"/><path class="cls-3" d="M107.43,202.23a2,2,0,0,1-.41-1.38,2.06,2.06,0,0,1,.48-1.46,1.87,1.87,0,0,1,1.43-.52,2.26,2.26,0,0,1,1,.21,1.42,1.42,0,0,1,.62.56,1.49,1.49,0,0,1,.19.75v2.22h-.92v-2.16a.91.91,0,0,0-.21-.64,1,1,0,0,0-.73-.22c-.69,0-1,.42-1,1.26a1.39,1.39,0,0,0,.21.86.76.76,0,0,0,.62.25,1.42,1.42,0,0,0,.47-.05v.67a1.85,1.85,0,0,1-.63.1A1.45,1.45,0,0,1,107.43,202.23Z"/><path class="cls-3" d="M41.7,210.66a1.86,1.86,0,0,1-.6-1.5v-2.87h1.2v2.88a1.08,1.08,0,0,0,.27.81,1.39,1.39,0,0,0,1.62,0,1.08,1.08,0,0,0,.27-.81v-4.3h1.2v4.29a1.86,1.86,0,0,1-.6,1.5,3,3,0,0,1-3.36,0Z"/><path class="cls-3" d="M47.37,211.1a3.28,3.28,0,0,1-.74-.19v-1a4.51,4.51,0,0,0,.73.21,4.17,4.17,0,0,0,.75.08,2.81,2.81,0,0,0,.85-.09.38.38,0,0,0,.25-.36.37.37,0,0,0-.1-.28.75.75,0,0,0-.26-.18c-.12-.05-.3-.12-.55-.2l-.38-.12a3.15,3.15,0,0,1-1.05-.55,1.06,1.06,0,0,1-.33-.83,1.24,1.24,0,0,1,.51-1,2.4,2.4,0,0,1,1.48-.39,4.62,4.62,0,0,1,.82.07,4.42,4.42,0,0,1,.7.15v1a3.4,3.4,0,0,0-.65-.17,4.51,4.51,0,0,0-.7-.06,2.15,2.15,0,0,0-.75.1.36.36,0,0,0-.28.37.35.35,0,0,0,.19.31,4.3,4.3,0,0,0,.69.26l.41.13a3.9,3.9,0,0,1,.81.37,1.09,1.09,0,0,1,.43.45,1.29,1.29,0,0,1,.14.66,1.14,1.14,0,0,1-.53,1,2.68,2.68,0,0,1-1.48.35A5.86,5.86,0,0,1,47.37,211.1Z"/><path class="cls-3" d="M54.41,204.83h2.92v.63h-3Z"/><path class="cls-3" d="M52.33,210.61l-.06.47h-1.1v-4.79h1.2v3.45a1.6,1.6,0,0,0,.52.36,1.69,1.69,0,0,0,.65.14.89.89,0,0,0,.65-.21,1,1,0,0,0,.21-.7v-3h1.2v3.12a1.83,1.83,0,0,1-.44,1.29,1.61,1.61,0,0,1-1.22.47A2.5,2.5,0,0,1,52.33,210.61Z"/><path class="cls-3" d="M58.35,208.14a1.19,1.19,0,0,0-.2-.76.91.91,0,0,0-.73-.24,3.31,3.31,0,0,0-.61.06,2.63,2.63,0,0,0-.6.17v-.88a3.81,3.81,0,0,1,.67-.21,4,4,0,0,1,.77-.08,2.08,2.08,0,0,1,1.45.43,1.76,1.76,0,0,1,.44,1.34v3.11H58.35Z"/><path class="cls-3" d="M61,210.58a2.54,2.54,0,0,1-.55-1.8,3.48,3.48,0,0,1,.44-1.91,1.39,1.39,0,0,1,1.22-.67,1.22,1.22,0,0,1,.58.12,1.08,1.08,0,0,1,.37.34,1.18,1.18,0,0,1,.49-.33,1.83,1.83,0,0,1,.64-.13,1.13,1.13,0,0,1,.92.38,1.56,1.56,0,0,1,.31,1v3.49h-1.2v-3.31a1,1,0,0,0-.09-.48.34.34,0,0,0-.32-.15.43.43,0,0,0-.29.1.59.59,0,0,0-.18.3h-.57a1,1,0,0,0-.2-.31.37.37,0,0,0-.27-.09.57.57,0,0,0-.56.42,3.83,3.83,0,0,0-.15,1.22,1.8,1.8,0,0,0,.27,1.12,1,1,0,0,0,.81.34,2.26,2.26,0,0,0,.61-.07v.88a2.41,2.41,0,0,1-.82.12A1.9,1.9,0,0,1,61,210.58Z"/><path class="cls-3" d="M67.09,211.1a3.32,3.32,0,0,1-.73-.19v-1a4.51,4.51,0,0,0,.73.21,4.17,4.17,0,0,0,.75.08,2.81,2.81,0,0,0,.85-.09.37.37,0,0,0,.24-.36.41.41,0,0,0-.09-.28.75.75,0,0,0-.26-.18c-.12-.05-.3-.12-.55-.2l-.38-.12a3.15,3.15,0,0,1-1.05-.55,1.06,1.06,0,0,1-.33-.83,1.24,1.24,0,0,1,.51-1,2.4,2.4,0,0,1,1.48-.39,4.62,4.62,0,0,1,.82.07,4.42,4.42,0,0,1,.7.15v1a3.4,3.4,0,0,0-.65-.17,4.62,4.62,0,0,0-.7-.06,2.15,2.15,0,0,0-.75.1.36.36,0,0,0-.28.37.35.35,0,0,0,.19.31,4.3,4.3,0,0,0,.69.26l.41.13a3.9,3.9,0,0,1,.81.37,1.09,1.09,0,0,1,.43.45,1.4,1.4,0,0,1,.14.66,1.16,1.16,0,0,1-.53,1,2.68,2.68,0,0,1-1.48.35A6.07,6.07,0,0,1,67.09,211.1Z"/><path class="cls-3" d="M71.21,210.81a1.41,1.41,0,0,1-.46-1.15,1.31,1.31,0,0,1,.49-1.1,2.18,2.18,0,0,1,1.4-.39H74v-.23a.73.73,0,0,0-.25-.62,1.58,1.58,0,0,0-.88-.18,5.27,5.27,0,0,0-1.59.23v-.89a6.41,6.41,0,0,1,.86-.2,6,6,0,0,1,.93-.08,3.52,3.52,0,0,1,.85.09h1.66l-.06.92H75a1.54,1.54,0,0,1,.21.86v3H74v-2H72.71a1.1,1.1,0,0,0-.61.14.53.53,0,0,0-.21.47.48.48,0,0,0,.19.45,1.17,1.17,0,0,0,.66.13,2.26,2.26,0,0,0,.61-.07v.88a3.28,3.28,0,0,1-.93.12A1.91,1.91,0,0,1,71.21,210.81Z"/><path class="cls-3" d="M74.34,212.3h-.53l0-.77h1.49v1.79h-1Z"/><path class="cls-3" d="M76.42,206.29h1.1l0,.47a2.72,2.72,0,0,1,.75-.41,2.67,2.67,0,0,1,.91-.15,1.52,1.52,0,0,1,1.18.47,1.75,1.75,0,0,1,.43,1.26v3.15H79.65V208a.9.9,0,0,0-.22-.66.88.88,0,0,0-.64-.2,1.57,1.57,0,0,0-.66.14,1.53,1.53,0,0,0-.52.35v3.45H76.42Z"/><path class="cls-3" d="M82.72,211.06a5.29,5.29,0,0,1-.91-.26V209h1.1v1.1a2.39,2.39,0,0,0,.84.13,1.52,1.52,0,0,0,.73-.14.54.54,0,0,0,.25-.5.45.45,0,0,0-.14-.35,1.1,1.1,0,0,0-.37-.22l-.7-.18-.27-.07a5.45,5.45,0,0,1-.82-.25,1.32,1.32,0,0,1-.51-.38.92.92,0,0,1-.2-.62,1.09,1.09,0,0,1,.55-1,3,3,0,0,1,1.59-.35,7.93,7.93,0,0,1,1,.07,4,4,0,0,1,.75.16v.95a3.82,3.82,0,0,0-.71-.18,6.22,6.22,0,0,0-.86-.06c-.78,0-1.16.12-1.16.36a.31.31,0,0,0,.21.29,4.11,4.11,0,0,0,.69.2l.56.14a5.57,5.57,0,0,1,.84.3,1.32,1.32,0,0,1,.5.43,1.59,1.59,0,0,1-.36,1.9,2.39,2.39,0,0,1-1.48.41A5.62,5.62,0,0,1,82.72,211.06Z"/><path class="cls-3" d="M81.61,204.83h2.92v.63h-3Z"/><path class="cls-3" d="M89.68,210.5a3.33,3.33,0,0,1,.56-.84,11.48,11.48,0,0,1,.92-.9l.23-.21c.28-.25.48-.44.59-.56a1.05,1.05,0,0,0,.25-.37,1.34,1.34,0,0,0,.08-.48.73.73,0,0,0-.27-.62,1.25,1.25,0,0,0-.78-.21,3.57,3.57,0,0,0-1.37.28v-1.06a3.64,3.64,0,0,1,.77-.18,5.27,5.27,0,0,1,.87-.07,2,2,0,0,1,1.48.49,1.74,1.74,0,0,1,.51,1.34,1.67,1.67,0,0,1-.26.95,4,4,0,0,1-.78.86l-.14.12-.66.6a3.47,3.47,0,0,0-.44.52h2.33v.92H89.68Z"/><path class="cls-3" d="M94.84,210.55a4.47,4.47,0,0,1,0-4.51,2.93,2.93,0,0,1,3.94,0,4.47,4.47,0,0,1,0,4.51,2.93,2.93,0,0,1-3.94,0Zm3-.76a3.76,3.76,0,0,0,0-3,1.15,1.15,0,0,0-1.06-.49,1.12,1.12,0,0,0-1,.49,3.76,3.76,0,0,0,0,3,1.12,1.12,0,0,0,1,.49A1.15,1.15,0,0,0,97.87,209.79Z"/><path class="cls-3" d="M100.65,210.55a4.54,4.54,0,0,1,0-4.51,2.42,2.42,0,0,1,2-.76,2.39,2.39,0,0,1,2,.76,4.47,4.47,0,0,1,0,4.51,2.36,2.36,0,0,1-2,.76A2.39,2.39,0,0,1,100.65,210.55Zm3-.76a3.76,3.76,0,0,0,0-3,1.13,1.13,0,0,0-1.05-.49,1.15,1.15,0,0,0-1.06.49,3.76,3.76,0,0,0,0,3,1.15,1.15,0,0,0,1.06.49A1.13,1.13,0,0,0,103.68,209.79Z"/><path class="cls-3" d="M110.39,210.61l-.06.47h-1.1v-4.79h1.2v3.45a1.6,1.6,0,0,0,.52.36,1.65,1.65,0,0,0,.65.14.89.89,0,0,0,.65-.21,1,1,0,0,0,.21-.7v-3h1.2v3.12a1.79,1.79,0,0,1-.45,1.29,1.59,1.59,0,0,1-1.21.47A2.48,2.48,0,0,1,110.39,210.61Z"/><path class="cls-3" d="M115,210.81a1.41,1.41,0,0,1-.46-1.15,1.31,1.31,0,0,1,.49-1.1,2.18,2.18,0,0,1,1.4-.39h1.36v-.23a.73.73,0,0,0-.25-.62,1.58,1.58,0,0,0-.88-.18,5.27,5.27,0,0,0-1.59.23v-.89a6.37,6.37,0,0,1,1.79-.28,2.44,2.44,0,0,1,1.6.46,1.77,1.77,0,0,1,.52,1.41v3h-1.19v-2h-1.29a1.16,1.16,0,0,0-.62.14.55.55,0,0,0-.2.47.48.48,0,0,0,.19.45,1.17,1.17,0,0,0,.66.13,2.26,2.26,0,0,0,.61-.07v.88a3.28,3.28,0,0,1-.93.12A1.91,1.91,0,0,1,115,210.81Z"/><path class="cls-3" d="M119.88,210.19h1v.89h-1Z"/><rect class="cls-3" x="100.11" y="207.66" width="0.57" height="1.13"/><path class="cls-4" d="M37.57,180.58a39.36,39.36,0,0,1,6,8.45c2.28,4.55-3,0-3,0s-1.52-3.8-3-5.32A2.21,2.21,0,0,1,37.57,180.58Z"/><polygon class="cls-4" points="149.11 0.33 11.01 0.33 0.33 19.31 159.79 19.31 149.11 0.33"/><g class="cls-8"><rect class="cls-7" x="0.33" y="8.3" width="156.43" height="1.52"/></g><polygon class="cls-9" points="149.11 0.33 11.01 0.33 0.33 19.31 159.79 19.31 149.11 0.33"/><rect class="cls-10" x="80.06" y="19.69" width="79.73" height="199.71"/></g></g></svg>