<svg xmlns="http://www.w3.org/2000/svg" xmlns:xlink="http://www.w3.org/1999/xlink" viewBox="0 0 211.96 219.39"><defs><style>.cls-1{fill:#ffe269;}.cls-2,.cls-3{fill:#95bec8;}.cls-12,.cls-3,.cls-9{stroke:#fff;stroke-miterlimit:10;stroke-width:0.16px;}.cls-4{fill:#fccf05;}.cls-5{clip-path:url(#clip-path);}.cls-6,.cls-9{fill:#c5e9ef;}.cls-7{fill:#fae4aa;}.cls-8{fill:#fff4dc;}.cls-10{clip-path:url(#clip-path-2);}.cls-11{clip-path:url(#clip-path-3);}.cls-12{fill:none;}.cls-13{fill:#bf744b;}.cls-14{fill:#e2a079;}.cls-15{clip-path:url(#clip-path-4);}.cls-16{fill:#d6af07;}.cls-17{fill:#fff;opacity:0.33;}</style><clipPath id="clip-path"><rect class="cls-1" y="22.69" width="167.65" height="196.35"/></clipPath><clipPath id="clip-path-2"><path class="cls-2" d="M152.86,11.45a20.21,20.21,0,0,1-9.76,1.18l-13.77-1.79c-11-1.42-23.21-6.15-23.21-6.15l-3.61,27.79L98.9,60.27,97,74.94s7-14,32.26-10.73h0a19.7,19.7,0,0,1,11.45,5.67,29.21,29.21,0,0,0,17.12,8.64c17.17,2.23,33.09-11.34,35.55-30.31s-9.45-36.16-26.62-38.39A28.66,28.66,0,0,0,152.86,11.45Z"/></clipPath><clipPath id="clip-path-3"><path class="cls-3" d="M126.46,39c2.19-16.86-7.36-32-21.33-33.81S78.06,15.57,75.87,32.43c-1.62,12.47,3.19,24,11.45,29.88a24.56,24.56,0,0,1,8.54,10.47l.37.91.6-.78A24.49,24.49,0,0,1,107.75,65C117.25,61.39,124.84,51.47,126.46,39Z"/></clipPath><clipPath id="clip-path-4"><polygon class="cls-4" points="157.32 6.05 10.33 6.05 0 22.74 167.65 22.74 157.32 6.05"/></clipPath></defs><title>Asset 14</title><g id="Layer_2" data-name="Layer 2"><g id="นมจิตลดา"><rect class="cls-1" y="22.69" width="167.65" height="196.35"/><g class="cls-5"><path class="cls-6" d="M116.18,104.38H51.75l11,97.49h0C63,207,72.41,211.2,84,211.2s20.93-4.16,21.18-9.33h0Z"/><ellipse class="cls-2" cx="83.97" cy="200.34" rx="19.07" ry="7.27"/><path class="cls-2" d="M112.79,104.38H55.14l10.56,92h0c.21,4.45,8.3,8,18.26,8s18-3.58,18.25-8h0Z"/><path class="cls-7" d="M57.7,125.57l8,70.81h0c.21,4.45,8.3,8,18.26,8s18-3.58,18.25-8h0l8-70.81Z"/><ellipse class="cls-8" cx="83.97" cy="125.74" rx="26.28" ry="7.27"/><ellipse class="cls-9" cx="83.97" cy="104.18" rx="32.21" ry="9.53"/><ellipse class="cls-3" cx="83.97" cy="104.18" rx="28.82" ry="8.53"/><path class="cls-6" d="M155.08,7.5A20,20,0,0,1,144.76,9L130.22,7.09C118.65,5.59,105.77.3,105.77.3l-4.16,32-4.16,32-2.2,16.9S102.78,65,129.47,68.51h0a19.62,19.62,0,0,1,12,6.38,29.16,29.16,0,0,0,18,9.73C177.61,87,194.6,71.16,197.44,49.3S187.9,7.8,169.78,5.45A28.32,28.32,0,0,0,155.08,7.5Z"/><path class="cls-2" d="M152.86,11.45a20.21,20.21,0,0,1-9.76,1.18l-13.77-1.79c-11-1.42-23.21-6.15-23.21-6.15l-3.61,27.79L98.9,60.27,97,74.94s7-14,32.26-10.73h0a19.7,19.7,0,0,1,11.45,5.67,29.21,29.21,0,0,0,17.12,8.64c17.17,2.23,33.09-11.34,35.55-30.31s-9.45-36.16-26.62-38.39A28.66,28.66,0,0,0,152.86,11.45Z"/><g class="cls-10"><path class="cls-7" d="M120.14,37.48s39.78,6.4,46.06,7.3S190.35,39.94,189,25.32,212,18.77,212,44.78s-.9,61.9-32.3,58.31S106.1,75.28,106.1,75.28Z"/></g><path class="cls-9" d="M131.25,40.7c2.62-20.15-8.79-38.24-25.48-40.4s-32.34,12.4-35,32.54c-1.94,14.9,3.8,28.67,13.68,35.71A29.33,29.33,0,0,1,94.68,81.06l.45,1.08.72-.93a29.29,29.29,0,0,1,13.05-9.49C120.25,67.44,129.32,55.6,131.25,40.7Z"/><path class="cls-2" d="M126.46,39c2.19-16.86-7.36-32-21.33-33.81S78.06,15.57,75.87,32.43c-1.62,12.47,3.19,24,11.45,29.88a24.56,24.56,0,0,1,8.54,10.47l.37.91.6-.78A24.49,24.49,0,0,1,107.75,65C117.25,61.39,124.84,51.47,126.46,39Z"/><g class="cls-11"><path class="cls-8" d="M127.18,39S92.91,29.4,76.85,46.73C72.46,51.51,87.71,60.48,89.5,67.66S94.88,100,94.88,100h4.49s19.2-41.83,28-46S127.18,39,127.18,39Z"/></g><path class="cls-12" d="M126.46,39c2.19-16.86-7.36-32-21.33-33.81S78.06,15.57,75.87,32.43c-1.62,12.47,3.19,24,11.45,29.88a24.56,24.56,0,0,1,8.54,10.47l.37.91.6-.78A24.49,24.49,0,0,1,107.75,65C117.25,61.39,124.84,51.47,126.46,39Z"/><path class="cls-8" d="M85.27,60.67s9.17,11,7.37,61.26h4.49s-3.59-46.65,4.48-53.82Z"/></g><path class="cls-13" d="M17.58,62.83a6.91,6.91,0,0,1-1.53-.36L13,54.31H10.34l.19-3.14h5.09l3.18,8.5A5.23,5.23,0,0,0,23.17,58c1.1-1.23,1.65-3.19,1.65-5.9a10.52,10.52,0,0,0-.71-4.27,4.28,4.28,0,0,0-2.32-2.22,11.77,11.77,0,0,0-4.44-.67,21,21,0,0,0-6.55,1V42.67a24.91,24.91,0,0,1,7.66-1.15c3.57,0,6.2.88,7.87,2.66s2.51,4.4,2.51,7.87A12.77,12.77,0,0,1,27.56,58a9,9,0,0,1-3.45,3.73A9.21,9.21,0,0,1,19.34,63,12.69,12.69,0,0,1,17.58,62.83Z"/><path class="cls-13" d="M12.25,35.85H28v2.91h-16Z"/><path class="cls-13" d="M32.8,61.22a7.41,7.41,0,0,1-1.48-5,10,10,0,0,1,1.15-5.28,3.61,3.61,0,0,1,3.25-1.84,3.42,3.42,0,0,1,1.57.32,3.64,3.64,0,0,1,1.1,1,3.83,3.83,0,0,1,1.36-.92,4.22,4.22,0,0,1,1.7-.36,3,3,0,0,1,2.37.94,3.86,3.86,0,0,1,.82,2.64v10h-2.7V53a2.66,2.66,0,0,0-.27-1.4,1.17,1.17,0,0,0-1-.41,1.57,1.57,0,0,0-.92.29,1.66,1.66,0,0,0-.61.85H37.62a2.9,2.9,0,0,0-.64-.88,1.41,1.41,0,0,0-.89-.26,1.71,1.71,0,0,0-1.69,1.26,10.6,10.6,0,0,0-.49,3.69,5.75,5.75,0,0,0,.83,3.5,3,3,0,0,0,2.51,1.07,5.48,5.48,0,0,0,1.7-.2v2.05a6.55,6.55,0,0,1-2.17.3A5.08,5.08,0,0,1,32.8,61.22Z"/><path class="cls-13" d="M49.59,62.71a8.25,8.25,0,0,1-2-.49V60a9.92,9.92,0,0,0,2,.57,11.73,11.73,0,0,0,2,.2,7.36,7.36,0,0,0,2.57-.32A1.27,1.27,0,0,0,55,59.13a1.44,1.44,0,0,0-.3-1,2.09,2.09,0,0,0-.81-.58c-.35-.15-.88-.34-1.61-.57l-1-.32a9.86,9.86,0,0,1-3-1.52,2.85,2.85,0,0,1-1-2.34,3.27,3.27,0,0,1,1.36-2.8,6.69,6.69,0,0,1,4-1,14.92,14.92,0,0,1,2.2.17,13.79,13.79,0,0,1,1.88.42v2.23a9.32,9.32,0,0,0-1.79-.47A10.75,10.75,0,0,0,53,51.22a6.44,6.44,0,0,0-2.36.34,1.32,1.32,0,0,0-.47,2.09,2.64,2.64,0,0,0,.9.58c.38.15,1,.36,1.76.63l.71.22a8.91,8.91,0,0,1,3.07,1.57,3.19,3.19,0,0,1,.93,2.48A3.13,3.13,0,0,1,56.15,62a7.31,7.31,0,0,1-4,.93A17.63,17.63,0,0,1,49.59,62.71Z"/><path class="cls-13" d="M61.06,61.89a4.29,4.29,0,0,1,.08-6.13A6,6,0,0,1,65,54.68h4.07v-.84a3.08,3.08,0,0,0-.32-1.55,1.83,1.83,0,0,0-1.06-.82,6.86,6.86,0,0,0-2-.25,14.07,14.07,0,0,0-4.35.65V49.79a17.27,17.27,0,0,1,2.29-.53,15.25,15.25,0,0,1,2.5-.21,6.38,6.38,0,0,1,4.3,1.22,4.83,4.83,0,0,1,1.39,3.82v8.55h-2.7V56.76h-3.9a3.76,3.76,0,0,0-2.11.47,1.76,1.76,0,0,0-.68,1.58A1.66,1.66,0,0,0,63,60.3a3.7,3.7,0,0,0,2.07.44,6.58,6.58,0,0,0,1.71-.2v2.05a9,9,0,0,1-2.43.3A5.14,5.14,0,0,1,61.06,61.89Z"/><path class="cls-13" d="M75.89,61.22a7.41,7.41,0,0,1-1.48-5,7.43,7.43,0,0,1,1.73-5.25,6.58,6.58,0,0,1,5.09-1.87,7.8,7.8,0,0,1,3.62.75,5,5,0,0,1,2.12,2,5.43,5.43,0,0,1,.68,2.71v8.15H85v-8a3.4,3.4,0,0,0-.88-2.5,4,4,0,0,0-2.9-.89A3.86,3.86,0,0,0,78,52.46a5.72,5.72,0,0,0-1,3.71,5.76,5.76,0,0,0,.82,3.5,3,3,0,0,0,2.51,1.07,5.59,5.59,0,0,0,1.71-.2v2.05a6.62,6.62,0,0,1-2.18.3A5.08,5.08,0,0,1,75.89,61.22Z"/><path class="cls-13" d="M95.83,54.24a5.28,5.28,0,0,0-.22-1.72,1.7,1.7,0,0,0-.85-1,4,4,0,0,0-1.82-.34,9.07,9.07,0,0,0-1.72.18,8.33,8.33,0,0,0-1.66.47V49.79a9.82,9.82,0,0,1,1.83-.53,10.61,10.61,0,0,1,2.07-.21,5.44,5.44,0,0,1,3.87,1.16,4.94,4.94,0,0,1,1.2,3.68v8.75h-2.7Z"/><path class="cls-13" d="M33.43,41.94h-1l.13-.63h2.71l-.14.63h-.94l-.56,2.61h-.8Z"/><path class="cls-13" d="M35.66,41.16h.81l-.25,1.18a1.79,1.79,0,0,1,.37-.16,1.67,1.67,0,0,1,.44-.06.92.92,0,0,1,.57.15.6.6,0,0,1,.2.48,1.55,1.55,0,0,1,0,.29l-.32,1.51h-.8l.3-1.46a.44.44,0,0,0,0-.16.19.19,0,0,0-.07-.17.54.54,0,0,0-.26,0,.74.74,0,0,0-.28.06,1.1,1.1,0,0,0-.26.15l-.34,1.63h-.81Z"/><path class="cls-13" d="M38.36,44.36a.84.84,0,0,1-.31-.7,1.53,1.53,0,0,1,0-.3,1.4,1.4,0,0,1,1.51-1.24,1,1,0,0,1,.72.23.77.77,0,0,1,.27.6,1.12,1.12,0,0,1,0,.24l-.09.43H38.77a.39.39,0,0,0,.17.33,1.21,1.21,0,0,0,.56.09,1.87,1.87,0,0,0,.4,0,1.58,1.58,0,0,0,.36-.09l-.11.53a2.6,2.6,0,0,1-1,.16A1.34,1.34,0,0,1,38.36,44.36Zm1.5-1.21,0-.1s0-.07,0-.11-.13-.28-.39-.28a.67.67,0,0,0-.43.12.69.69,0,0,0-.2.37Z"/><path class="cls-13" d="M43.12,41.31h1.61a.93.93,0,0,1,.66.23.76.76,0,0,1,.25.61,1.24,1.24,0,0,1,0,.27,1.18,1.18,0,0,1-.28.57,1.38,1.38,0,0,1-.53.37l.08.12a.74.74,0,0,1,0,.19l.2.88h-.84l-.19-.83a.3.3,0,0,0-.08-.16.41.41,0,0,0-.19,0h-.37l-.22,1h-.81Zm1.07,1.59a.61.61,0,0,0,.39-.12.59.59,0,0,0,.21-.36c0-.09,0-.16,0-.2a.27.27,0,0,0-.09-.22.5.5,0,0,0-.29-.06h-.64l-.2,1Z"/><path class="cls-13" d="M45.75,44.37a.81.81,0,0,1-.29-.67,1.55,1.55,0,0,1,0-.34,1.62,1.62,0,0,1,.51-.93,1.68,1.68,0,0,1,1.09-.31,1.28,1.28,0,0,1,.84.23.8.8,0,0,1,.29.67,2.38,2.38,0,0,1,0,.34,1.58,1.58,0,0,1-.52.93,1.74,1.74,0,0,1-1.1.31A1.29,1.29,0,0,1,45.75,44.37Zm1.39-.55a.83.83,0,0,0,.22-.46,1.29,1.29,0,0,0,0-.25.34.34,0,0,0-.1-.28.51.51,0,0,0-.32-.08.63.63,0,0,0-.43.14.94.94,0,0,0-.22.47,1.13,1.13,0,0,0,0,.25.37.37,0,0,0,.1.27.49.49,0,0,0,.32.08A.57.57,0,0,0,47.14,43.82Z"/><path class="cls-13" d="M48.49,45.41l-.29,0,.13-.6a1.09,1.09,0,0,0,.25,0l.27,0a1.73,1.73,0,0,0,.69-.1.41.41,0,0,0,.27-.3l0-.1a1.64,1.64,0,0,1-.88.25.73.73,0,0,1-.52-.2.69.69,0,0,1-.19-.51,1,1,0,0,1,0-.23l.32-1.49h.81l-.31,1.45a.67.67,0,0,0,0,.18.17.17,0,0,0,.08.16.54.54,0,0,0,.26,0,1,1,0,0,0,.28,0,.82.82,0,0,0,.25-.16l.35-1.62h.81l-.46,2.16a1.27,1.27,0,0,1-.53.83,2.31,2.31,0,0,1-1.24.27Z"/><path class="cls-13" d="M51.4,44.4a.74.74,0,0,1-.22-.59,2,2,0,0,1,.55-1.33,1.31,1.31,0,0,1,1-.36,1,1,0,0,1,.32,0,1,1,0,0,1,.25.14l0-.13h.81l-.5,2.38h-.7v-.2a1.49,1.49,0,0,1-.84.25A.94.94,0,0,1,51.4,44.4Zm1.52-.57.2-1a.39.39,0,0,0-.36-.16.62.62,0,0,0-.46.18,1.08,1.08,0,0,0-.26.56,1.12,1.12,0,0,0,0,.24.28.28,0,0,0,.1.25.6.6,0,0,0,.32.07A.76.76,0,0,0,52.92,43.83Z"/><path class="cls-13" d="M54.36,44.48a.44.44,0,0,1-.15-.37,1.64,1.64,0,0,1,0-.23l.58-2.72h.81l-.56,2.64a.26.26,0,0,0,0,.07.11.11,0,0,0,0,.1.21.21,0,0,0,.12,0,.61.61,0,0,0,.24,0l-.11.55-.25.07-.28,0A.71.71,0,0,1,54.36,44.48Z"/><path class="cls-13" d="M58,44.28a1.13,1.13,0,0,1-.38-.9,2.58,2.58,0,0,1,.05-.43,1.94,1.94,0,0,1,2.1-1.69,2.57,2.57,0,0,1,.5.05,2.11,2.11,0,0,1,.43.12l-.14.71a2.13,2.13,0,0,0-.88-.18,1.17,1.17,0,0,0-.78.24,1.24,1.24,0,0,0-.4.75,2,2,0,0,0-.05.37.53.53,0,0,0,.19.45,1.13,1.13,0,0,0,.63.14,2.59,2.59,0,0,0,1-.18l-.15.72a3.33,3.33,0,0,1-1,.15A1.62,1.62,0,0,1,58,44.28Z"/><path class="cls-13" d="M61.14,41.16H62l-.25,1.18a1.79,1.79,0,0,1,.37-.16,1.67,1.67,0,0,1,.44-.06.92.92,0,0,1,.57.15.6.6,0,0,1,.2.48,1.55,1.55,0,0,1,0,.29l-.32,1.51h-.8l.3-1.46a.44.44,0,0,0,0-.16.19.19,0,0,0-.07-.17.54.54,0,0,0-.26,0,.74.74,0,0,0-.28.06,1.1,1.1,0,0,0-.26.15l-.34,1.63h-.81Z"/><path class="cls-13" d="M64.14,42.76h-.35l.19-.59h1.09l-.5,2.38h-.81Zm.27-1.58h.88l-.13.61h-.88Z"/><path class="cls-13" d="M65.53,44.44a.59.59,0,0,1-.18-.46c0-.06,0-.14,0-.23l.21-1h-.32l.13-.61h.32l.11-.5.85-.22-.15.72h.58l-.17.61h-.54l-.19.91a.53.53,0,0,0,0,.14.14.14,0,0,0,.06.13.39.39,0,0,0,.22,0,1.25,1.25,0,0,0,.32,0l-.12.55a1.81,1.81,0,0,1-.61.1A.79.79,0,0,1,65.53,44.44Z"/><path class="cls-13" d="M67.47,42.17h.77l0,.22a2.79,2.79,0,0,1,.42-.18,2.23,2.23,0,0,1,.48-.09l-.13.6-.47.09a2.21,2.21,0,0,0-.41.13l-.34,1.61H67Z"/><path class="cls-13" d="M68.93,44.4a.74.74,0,0,1-.22-.59,1.71,1.71,0,0,1,0-.36,1.77,1.77,0,0,1,.5-1,1.35,1.35,0,0,1,1-.36,1,1,0,0,1,.32,0,1,1,0,0,1,.24.14l0-.13h.81l-.5,2.38h-.7v-.2a1.43,1.43,0,0,1-.83.25A.94.94,0,0,1,68.93,44.4Zm1.52-.57.2-1a.39.39,0,0,0-.36-.16.62.62,0,0,0-.46.18,1.08,1.08,0,0,0-.26.56,1.12,1.12,0,0,0,0,.24.28.28,0,0,0,.1.25A.6.6,0,0,0,70,44,.78.78,0,0,0,70.45,43.83Z"/><path class="cls-13" d="M72,44.38a.79.79,0,0,1-.24-.63,1.5,1.5,0,0,1,0-.37,1.69,1.69,0,0,1,.49-1,1.36,1.36,0,0,1,.91-.31,1.08,1.08,0,0,1,.62.16L74,41.16h.81l-.72,3.39h-.69v-.2a1.38,1.38,0,0,1-.8.25A.94.94,0,0,1,72,44.38Zm1.49-.55.2-1a.53.53,0,0,0-.41-.15.57.57,0,0,0-.42.16,1,1,0,0,0-.24.51,1.58,1.58,0,0,0,0,.28.37.37,0,0,0,.09.27A.52.52,0,0,0,73,44,.79.79,0,0,0,73.46,43.83Z"/><path class="cls-13" d="M74.91,44.4a.78.78,0,0,1-.22-.59,1.71,1.71,0,0,1,0-.36,1.85,1.85,0,0,1,.51-1,1.32,1.32,0,0,1,1-.36,1,1,0,0,1,.32,0,.89.89,0,0,1,.25.14l0-.13h.81l-.5,2.38h-.7v-.2a1.46,1.46,0,0,1-.84.25A1,1,0,0,1,74.91,44.4Zm1.52-.57.2-1a.36.36,0,0,0-.35-.16.64.64,0,0,0-.47.18,1.17,1.17,0,0,0-.26.56,1.12,1.12,0,0,0,0,.24.31.31,0,0,0,.1.25.63.63,0,0,0,.32.07A.76.76,0,0,0,76.43,43.83Z"/><path class="cls-13" d="M80.05,41.31h1.54a1,1,0,0,1,.72.25.88.88,0,0,1,.24.64,2.13,2.13,0,0,1,0,.27,1.37,1.37,0,0,1-.46.83,1.33,1.33,0,0,1-.91.3h-.79l-.2.95h-.81Zm1,1.67a.59.59,0,0,0,.42-.14.69.69,0,0,0,.2-.38c0-.09,0-.16,0-.21a.3.3,0,0,0-.09-.24.49.49,0,0,0-.31-.07h-.61l-.22,1Z"/><path class="cls-13" d="M82.91,42.17h.77l0,.22a2.79,2.79,0,0,1,.42-.18,2.23,2.23,0,0,1,.48-.09l-.13.6-.46.09a2.35,2.35,0,0,0-.42.13l-.34,1.61h-.8Z"/><path class="cls-13" d="M84.53,44.37a.81.81,0,0,1-.29-.67,2.55,2.55,0,0,1,0-.34,1.58,1.58,0,0,1,.52-.93,1.67,1.67,0,0,1,1.09-.31,1.26,1.26,0,0,1,.83.23A.8.8,0,0,1,87,43a1.48,1.48,0,0,1,0,.34,1.58,1.58,0,0,1-.52.93,1.73,1.73,0,0,1-1.09.31A1.32,1.32,0,0,1,84.53,44.37Zm1.4-.55a.9.9,0,0,0,.22-.46,1.29,1.29,0,0,0,0-.25.38.38,0,0,0-.1-.28.57.57,0,0,0-.33-.08.65.65,0,0,0-.43.14.86.86,0,0,0-.21.47,1.13,1.13,0,0,0,0,.25.33.33,0,0,0,.1.27.44.44,0,0,0,.31.08A.61.61,0,0,0,85.93,43.82Z"/><path class="cls-13" d="M86.22,45.62l.12-.55a.71.71,0,0,0,.29,0,.43.43,0,0,0,.28-.07.34.34,0,0,0,.13-.23l.44-2.06h-.36l.2-.59h1.09l-.58,2.72a1,1,0,0,1-.33.62,1.06,1.06,0,0,1-.71.21A1.29,1.29,0,0,1,86.22,45.62Zm1.52-4.44h.88l-.13.61h-.88Z"/><path class="cls-13" d="M88.85,44.36a.84.84,0,0,1-.31-.7,1.53,1.53,0,0,1,0-.3,1.4,1.4,0,0,1,1.51-1.24,1,1,0,0,1,.72.23.77.77,0,0,1,.27.6,1.12,1.12,0,0,1,0,.24l-.09.43H89.26a.39.39,0,0,0,.17.33A1.21,1.21,0,0,0,90,44a1.87,1.87,0,0,0,.4,0,1.58,1.58,0,0,0,.36-.09l-.11.53a2.6,2.6,0,0,1-1,.16A1.34,1.34,0,0,1,88.85,44.36Zm1.5-1.21,0-.1s0-.07,0-.11-.13-.28-.39-.28a.67.67,0,0,0-.43.12.69.69,0,0,0-.2.37Z"/><path class="cls-13" d="M91.59,44.36a.81.81,0,0,1-.31-.69,1.06,1.06,0,0,1,0-.31A1.46,1.46,0,0,1,93,42.12a2.76,2.76,0,0,1,.44,0,1.4,1.4,0,0,1,.36.13l-.13.57a1.28,1.28,0,0,0-.63-.14,1,1,0,0,0-.57.15.77.77,0,0,0-.28.5,1.11,1.11,0,0,0,0,.23.34.34,0,0,0,.14.31.8.8,0,0,0,.47.1,1.73,1.73,0,0,0,.7-.15l-.13.6a2.39,2.39,0,0,1-.88.15A1.27,1.27,0,0,1,91.59,44.36Z"/><path class="cls-13" d="M94,44.44a.59.59,0,0,1-.18-.46,1,1,0,0,1,0-.23l.21-1h-.32l.13-.61h.32l.1-.5.86-.22-.15.72h.57l-.16.61h-.54l-.2.91c0,.08,0,.12,0,.14a.14.14,0,0,0,.07.13.39.39,0,0,0,.22,0,1.25,1.25,0,0,0,.32,0l-.12.55a1.81,1.81,0,0,1-.61.1A.79.79,0,0,1,94,44.44Z"/><path class="cls-13" d="M95.77,44.56a2.18,2.18,0,0,1-.39-.1l.13-.62a1.72,1.72,0,0,0,.38.11,2,2,0,0,0,.41,0,1.34,1.34,0,0,0,.33,0,.14.14,0,0,0,.11-.11.1.1,0,0,0-.06-.11,1.22,1.22,0,0,0-.28-.11l-.2-.07a1.14,1.14,0,0,1-.4-.23.44.44,0,0,1-.13-.32,1.1,1.1,0,0,1,0-.18.81.81,0,0,1,.37-.54,1.77,1.77,0,0,1,.89-.18,3.11,3.11,0,0,1,.43,0,2,2,0,0,1,.35.08l-.12.61a1.32,1.32,0,0,0-.3-.09,1.86,1.86,0,0,0-.33,0,1.37,1.37,0,0,0-.33,0c-.08,0-.12,0-.13.1a.09.09,0,0,0,0,.11l.26.09.09,0,.1,0a1.32,1.32,0,0,1,.45.23.44.44,0,0,1,.14.33,1,1,0,0,1,0,.2.79.79,0,0,1-.38.55,1.66,1.66,0,0,1-.89.19A4.39,4.39,0,0,1,95.77,44.56Z"/><path class="cls-14" d="M15.13,76.61a1.23,1.23,0,0,1-.26-.83,2.81,2.81,0,0,1,.06-.56l.78-3.73h1.34l-.83,3.91a1.83,1.83,0,0,0,0,.21.47.47,0,0,0,.11.31.34.34,0,0,0,.28.12.78.78,0,0,0,.37-.11,1.06,1.06,0,0,0,.31-.29,1,1,0,0,0,.18-.42l.79-3.73h1.33l-.83,3.91a1.5,1.5,0,0,0,0,.29.34.34,0,0,0,.08.27.37.37,0,0,0,.26.08.4.4,0,0,0,.32-.17,1.14,1.14,0,0,0,.19-.43H20a2.39,2.39,0,0,1-.42,1,1.24,1.24,0,0,1-.54.43,1.85,1.85,0,0,1-.63.1.88.88,0,0,1-.64-.23,1,1,0,0,1-.27-.66,1.78,1.78,0,0,1-.71.71,1.84,1.84,0,0,1-.77.18A1,1,0,0,1,15.13,76.61Z"/><path class="cls-14" d="M21.63,76.73A1.46,1.46,0,0,1,21.1,76l-.16.77H19.61l1.12-5.32h1.33l-.79,3.73a.91.91,0,0,0,0,.17.65.65,0,0,0,.09.35.6.6,0,0,0,.23.22.72.72,0,0,0,.32.08.68.68,0,0,0,.43-.15.69.69,0,0,0,.25-.43l.83-4h1.34l-.86,4.07a2.12,2.12,0,0,1-.31.75,1.54,1.54,0,0,1-.54.48,1.38,1.38,0,0,1-.66.17A1.3,1.3,0,0,1,21.63,76.73Z"/><path class="cls-14" d="M29.45,76.77a1.24,1.24,0,0,1-.56-.43,1.16,1.16,0,0,1-.18-.63A1.82,1.82,0,0,1,29,74.63,1.58,1.58,0,0,1,30,74a1.19,1.19,0,0,1-.5-.44A1.11,1.11,0,0,1,29.3,73a1.59,1.59,0,0,1,.21-.84,1.36,1.36,0,0,1,.57-.52,1.94,1.94,0,0,1,.82-.17,1.38,1.38,0,0,1,.84.23.79.79,0,0,1,.29.66.81.81,0,0,1-.19.54.61.61,0,0,1-.48.21.85.85,0,0,1-.25,0,.57.57,0,0,1-.21-.15.46.46,0,0,0,.21-.24,1,1,0,0,0,.08-.37.5.5,0,0,0-.08-.29.22.22,0,0,0-.2-.11.39.39,0,0,0-.36.29,1.7,1.7,0,0,0-.13.71,1.14,1.14,0,0,0,.09.42,1,1,0,0,0,.29.38.89.89,0,0,0,.53.18l-.07.32a1,1,0,0,0-.63.22,1.52,1.52,0,0,0-.42.55,1.66,1.66,0,0,0-.15.67.91.91,0,0,0,.15.54.49.49,0,0,0,.43.21,1.14,1.14,0,0,0,.43-.08.86.86,0,0,0,.35-.34,2.13,2.13,0,0,0,.27-.74l.78-3.72H33.8L33,75.36a1.74,1.74,0,0,1-.8,1.17,3.4,3.4,0,0,1-1.83.4A2.25,2.25,0,0,1,29.45,76.77Z"/><path class="cls-14" d="M30.48,79.3c-.2,0-.43,0-.68-.1l-.22,0,.12-.61a1,1,0,0,0,0-.16.25.25,0,0,0-.11-.23.53.53,0,0,0-.35-.08l.13-.61a2.6,2.6,0,0,1,.36-.13,1.56,1.56,0,0,1,.35,0,.61.61,0,0,1,.52.2.85.85,0,0,1,.17.54,2.28,2.28,0,0,1-.06.42l0,.16H31a.26.26,0,0,0,.19-.07.34.34,0,0,0,.11-.18l.2-1h1.07l-.29,1.35a.67.67,0,0,1-.31.48,1.33,1.33,0,0,1-.65.14A6.16,6.16,0,0,1,30.48,79.3Z"/><path class="cls-14" d="M34.16,76.68a.93.93,0,0,1-.27-.72,2.47,2.47,0,0,1,0-.43l.85-4h1.33l-.91,4.31a1.58,1.58,0,0,0,0,.26.3.3,0,0,0,.07.23.32.32,0,0,0,.23.08,1.09,1.09,0,0,0,.26,0l.2-.06-.1.51a2.51,2.51,0,0,1-.92.14A1.06,1.06,0,0,1,34.16,76.68Z"/><path class="cls-14" d="M40.16,71.91a1.72,1.72,0,0,1,.47,1.32,5.31,5.31,0,0,1-.3,1.77,3.34,3.34,0,0,1-.93,1.39,2.27,2.27,0,0,1-1.53.54,2.37,2.37,0,0,1-1.19-.25.8.8,0,0,1-.44-.74,3.86,3.86,0,0,1,.08-.67l.34-1.54h1.87l-.1.46h-.54l-.32,1.5a1.93,1.93,0,0,0,0,.35.36.36,0,0,0,.08.24.31.31,0,0,0,.24.09,1,1,0,0,0,.74-.44,3.41,3.41,0,0,0,.53-1.18,6.19,6.19,0,0,0,.19-1.59,1.85,1.85,0,0,0-.19-1,.67.67,0,0,0-.59-.29.71.71,0,0,0-.39.11.64.64,0,0,0-.26.28.7.7,0,0,0-.1.36.79.79,0,0,0,.14.44.55.55,0,0,1-.17.11.66.66,0,0,1-.21,0,.75.75,0,0,1-.5-.16.6.6,0,0,1-.2-.46.88.88,0,0,1,.61-.89,3.54,3.54,0,0,1,1.38-.25A1.85,1.85,0,0,1,40.16,71.91Z"/><path class="cls-14" d="M41.41,76.63a1,1,0,0,1-.41-.86,2.51,2.51,0,0,1,.08-.57l.19-.91a1.67,1.67,0,0,1,.19-.5,2.81,2.81,0,0,1,.29-.42l.37-.39a4.61,4.61,0,0,0,.35-.39.47.47,0,0,0,.11-.28c0-.2-.13-.3-.38-.3a.89.89,0,0,0-.41.1l.1-.52a1.29,1.29,0,0,1,.37-.1,2.49,2.49,0,0,1,.49,0,1.44,1.44,0,0,1,.77.18.71.71,0,0,1,.28.65,1,1,0,0,1-.08.43,1.06,1.06,0,0,1-.19.33,4.18,4.18,0,0,1-.31.34,4,4,0,0,0-.42.48,1.52,1.52,0,0,0-.22.5l-.27,1.26a2.6,2.6,0,0,0-.05.42c0,.31.16.46.48.46a.88.88,0,0,0,.6-.21,1.28,1.28,0,0,0,.34-.71l.45-2.14a3,3,0,0,0,.06-.49,1.06,1.06,0,0,0-.06-.37,1.5,1.5,0,0,0-.22-.34,6,6,0,0,1,.43-.72,1.9,1.9,0,0,1,.55-.51,1.45,1.45,0,0,1,.75-.2.89.89,0,0,1,.67.24,1.07,1.07,0,0,1,.23.74,1.4,1.4,0,0,0-.36-.13,1.72,1.72,0,0,0-.39,0,2,2,0,0,0-.67.1,1.91,1.91,0,0,0-.6.36,1.5,1.5,0,0,1,.45.27,1.29,1.29,0,0,1,.35.42,1.07,1.07,0,0,1,.14.52,2.2,2.2,0,0,1-.05.38l-.42,2a1.3,1.3,0,0,1-.72.9,3.29,3.29,0,0,1-1.57.31A2.17,2.17,0,0,1,41.41,76.63Z"/><path class="cls-14" d="M46.87,71.49h1.18l-.2.85a1.49,1.49,0,0,1,.63-.66,1.72,1.72,0,0,1,.87-.23,1.54,1.54,0,0,1,.61.12,1.11,1.11,0,0,1,.45.38,1.08,1.08,0,0,1,.16.6,2.23,2.23,0,0,1,0,.33l-.83,3.93H48.39l.8-3.84a2.13,2.13,0,0,0,0-.3c0-.28-.13-.42-.4-.42a.83.83,0,0,0-.41.12,1.39,1.39,0,0,0-.36.33,1.06,1.06,0,0,0-.2.46l-.78,3.65H45.74Z"/><path class="cls-14" d="M47.55,70.11H50l.13-.61h1.19L51,70.75H47.41Z"/><path class="cls-14" d="M55.61,76.8a1.58,1.58,0,0,1-.66-.41,1,1,0,0,1-.26-.7,1.29,1.29,0,0,1,.16-.64,1,1,0,0,1,.43-.4,1.41,1.41,0,0,1,.62-.13,1.2,1.2,0,0,1,.48.11.42.42,0,0,1,.25.36.91.91,0,0,0-.61.19.6.6,0,0,0-.24.51.64.64,0,0,0,.19.49.65.65,0,0,0,.5.19.77.77,0,0,0,.61-.26,1,1,0,0,0,.23-.71,1.06,1.06,0,0,0-.12-.5,1.87,1.87,0,0,0-.3-.42c-.12-.12-.27-.27-.47-.45s-.35-.32-.47-.44a2,2,0,0,1-.29-.41,1,1,0,0,1-.12-.49,1,1,0,0,1,.24-.69,1.45,1.45,0,0,1,.64-.41,2.71,2.71,0,0,1,.88-.14,2.65,2.65,0,0,1,.81.11,1.58,1.58,0,0,1,.62.32.72.72,0,0,1,.24.55.78.78,0,0,1-.16.49.59.59,0,0,1-.45.19,1.88,1.88,0,0,1-.31,0,.6.6,0,0,1-.24-.11.75.75,0,0,0,.24-.26.71.71,0,0,0,.09-.36A.38.38,0,0,0,58,72a.65.65,0,0,0-.4-.12,1,1,0,0,0-.52.13.51.51,0,0,0-.19.45.7.7,0,0,0,.11.38,1.14,1.14,0,0,0,.27.31l.44.32c.24.17.43.32.59.45a1.81,1.81,0,0,1,.39.5,1.63,1.63,0,0,1,.16.72,1.58,1.58,0,0,1-.29.93,1.92,1.92,0,0,1-.82.64,3.21,3.21,0,0,1-1.25.22A2.65,2.65,0,0,1,55.61,76.8Z"/><path class="cls-14" d="M64.32,71.66a1.72,1.72,0,0,0-.39,0,2.19,2.19,0,0,0-.7.11,1.14,1.14,0,0,1,.59,1,1.59,1.59,0,0,1,0,.29L63,76.81H61.66l.55-2.58a1.75,1.75,0,0,0-.48-.06,1.11,1.11,0,0,0-1,.67,1.77,1.77,0,0,0-.16.79,1.07,1.07,0,0,0,.12.53.38.38,0,0,0,.32.21.8.8,0,0,0,.41-.1l-.1.52-.13.06-.24.07h-.38a1.4,1.4,0,0,1-.55-.12,1.21,1.21,0,0,1-.51-.39,1.1,1.1,0,0,1-.21-.7A1.79,1.79,0,0,1,60.4,74a2.92,2.92,0,0,1,1.16-.22,3.64,3.64,0,0,1,.74.07l.22-1a1.68,1.68,0,0,0,0-.29c0-.41-.25-.62-.76-.62a1.32,1.32,0,0,0-.44.08.8.8,0,0,0-.35.23.47.47,0,0,0-.13.34.61.61,0,0,0,.06.28.8.8,0,0,0,.2.22.83.83,0,0,1-.23.19.73.73,0,0,1-.32.06.59.59,0,0,1-.48-.2.7.7,0,0,1-.17-.49.8.8,0,0,1,.28-.62,1.9,1.9,0,0,1,.75-.39,3.44,3.44,0,0,1,1-.13,3.89,3.89,0,0,1,.62,0,1.42,1.42,0,0,1,1.23-.69.89.89,0,0,1,.67.24,1,1,0,0,1,.23.74A1.4,1.4,0,0,0,64.32,71.66Z"/><path class="cls-14" d="M65.55,76.83a.62.62,0,0,1-.3-.32,1.32,1.32,0,0,1-.1-.57,2,2,0,0,1,0-.3c0-.13,0-.25,0-.37l.28-1.3a.36.36,0,0,0-.19-.29l0-.15h1a.39.39,0,0,1,.27.1.36.36,0,0,1,.14.29.52.52,0,0,1,0,.11l-.42,2v0a.16.16,0,0,0,0,.12.17.17,0,0,0,.1,0h.06a1.16,1.16,0,0,0,.5-.6,5.6,5.6,0,0,0,.35-1.13,7.37,7.37,0,0,0,.12-1.32c0-.83-.35-1.25-1-1.25a1.36,1.36,0,0,0-.68.18,1.26,1.26,0,0,0-.52.55,2.06,2.06,0,0,0-.2,1c0,.12,0,.24,0,.36a1.25,1.25,0,0,0,.08.27q-1,0-1-.9a1.6,1.6,0,0,1,.33-1,2,2,0,0,1,.9-.61,3.57,3.57,0,0,1,1.21-.19,2.71,2.71,0,0,1,1.69.44,1.61,1.61,0,0,1,.56,1.33,5,5,0,0,1-.37,2,3,3,0,0,1-1,1.29,2.27,2.27,0,0,1-1.38.44A1.44,1.44,0,0,1,65.55,76.83Z"/><path class="cls-14" d="M65.92,70.11h1.49l.13-.61h.79l-.14.61h.38l.13-.61h.94l-.26,1.25H65.79Z"/><path class="cls-14" d="M69.91,76.74a1.36,1.36,0,0,1-.51-.55,1.8,1.8,0,0,1-.19-.87,5.5,5.5,0,0,1,.33-2,2.93,2.93,0,0,1,1-1.39,2.75,2.75,0,0,1,1.7-.51,2,2,0,0,1,1.29.36,1.26,1.26,0,0,1,.46,1,2.34,2.34,0,0,1-.06.5l-.74,3.47H71.86L72.68,73a2.15,2.15,0,0,0,.06-.44.58.58,0,0,0-.13-.4.51.51,0,0,0-.4-.14,1.06,1.06,0,0,0-.8.47,3.66,3.66,0,0,0-.6,1.27,6.69,6.69,0,0,0-.22,1.72,1.54,1.54,0,0,0,.12.65.38.38,0,0,0,.36.25,1.24,1.24,0,0,0,.27,0,1,1,0,0,0,.23-.07l-.12.52a2.06,2.06,0,0,1-.81.14A1.4,1.4,0,0,1,69.91,76.74Z"/><path class="cls-14" d="M14.79,84.09A5.45,5.45,0,0,1,15,82.71a2.77,2.77,0,0,1,.56-1.14,1.15,1.15,0,0,1,.94-.46,1.41,1.41,0,0,1,.66.13l-.08.33a.65.65,0,0,0-.24,0c-.21,0-.41.17-.58.52a4.37,4.37,0,0,0-.41,1.22,6.11,6.11,0,0,0-.15,1.24q0,.39.12.39a.15.15,0,0,0,.12-.07.38.38,0,0,0,.09-.18c0-.08.05-.19.08-.34l.36-1.67h.81l-.34,1.67a2.05,2.05,0,0,0-.06.39c0,.13,0,.2.12.2a.18.18,0,0,0,.13-.06.56.56,0,0,0,.09-.19q0-.15.12-.45L18,81.14h1l-.61,3a1.57,1.57,0,0,1-.42.82,1.17,1.17,0,0,1-.84.3.62.62,0,0,1-.46-.15.68.68,0,0,1-.18-.43,1.69,1.69,0,0,1-.17.33.73.73,0,0,1-.26.19,1.25,1.25,0,0,1-.42.06C15.05,85.22,14.79,84.84,14.79,84.09Z"/><path class="cls-14" d="M19.44,85.13a.84.84,0,0,1-.54-.82,1.44,1.44,0,0,1,.23-.82,1.48,1.48,0,0,1,.63-.5,2.21,2.21,0,0,1,.87-.16,2.5,2.5,0,0,1,.55,0l.16-.76a1,1,0,0,0,0-.22c0-.31-.19-.46-.57-.46a.88.88,0,0,0-.33,0,.62.62,0,0,0-.26.17.37.37,0,0,0-.1.26.36.36,0,0,0,.05.21.7.7,0,0,0,.14.17.58.58,0,0,1-.17.14.55.55,0,0,1-.24,0,.43.43,0,0,1-.36-.15A.52.52,0,0,1,19.4,82a.62.62,0,0,1,.21-.46,1.53,1.53,0,0,1,.57-.29,2.48,2.48,0,0,1,.73-.1,2.07,2.07,0,0,1,.81.14.94.94,0,0,1,.46.35.92.92,0,0,1,.14.48,1.8,1.8,0,0,1,0,.22l-.6,2.83h-1l.41-1.93a1.25,1.25,0,0,0-.36,0,.79.79,0,0,0-.45.13.88.88,0,0,0-.33.38,1.32,1.32,0,0,0-.12.59.69.69,0,0,0,.1.39.26.26,0,0,0,.24.16.6.6,0,0,0,.3-.07l-.08.39-.09,0a.48.48,0,0,1-.18,0h-.29A1,1,0,0,1,19.44,85.13Z"/><path class="cls-14" d="M20.07,80.11h2.7l-.11.48H20Z"/><path class="cls-14" d="M23.07,85.08a1,1,0,0,1-.39-.41,1.46,1.46,0,0,1-.14-.66,4.32,4.32,0,0,1,.21-1.27,3.06,3.06,0,0,1,.61-1.16,1.27,1.27,0,0,1,1-.47.34.34,0,0,1,.31.14.9.9,0,0,1,.1.37.74.74,0,0,1,.28-.36.76.76,0,0,1,.48-.15.77.77,0,0,1,.53.18.7.7,0,0,1,.2.56,1.61,1.61,0,0,1-.05.4l-.6,2.88h-1L25.26,82a1.3,1.3,0,0,0,0-.29.23.23,0,0,0,0-.13.15.15,0,0,0-.1,0,.22.22,0,0,0-.16.11,1.71,1.71,0,0,0-.14.27,2.22,2.22,0,0,0-.09.28h-.24c0-.12,0-.22,0-.29,0-.24-.05-.37-.15-.37s-.26.14-.39.42a4.32,4.32,0,0,0-.31,1,6,6,0,0,0-.13,1.14,1.21,1.21,0,0,0,.09.5.3.3,0,0,0,.28.2l.2,0a.69.69,0,0,0,.17,0l-.09.39a1.66,1.66,0,0,1-.61.1A1,1,0,0,1,23.07,85.08Z"/><path class="cls-14" d="M27.54,85.14a.47.47,0,0,1-.24-.24,1.18,1.18,0,0,1-.07-.42c0-.06,0-.13,0-.23s0-.19,0-.28l.21-1a.26.26,0,0,0-.14-.21l0-.12h.78a.37.37,0,0,1,.21.08.27.27,0,0,1,.1.21s0,.05,0,.08l-.32,1.48v0a.12.12,0,0,0,0,.09.1.1,0,0,0,.08,0h0a.91.91,0,0,0,.37-.45,3.55,3.55,0,0,0,.26-.85,4.75,4.75,0,0,0,.1-1c0-.62-.26-.93-.79-.93a1,1,0,0,0-.51.13,1,1,0,0,0-.39.41,1.52,1.52,0,0,0-.15.71,2.45,2.45,0,0,0,0,.27,1.24,1.24,0,0,0,.06.2c-.49,0-.74-.22-.74-.67a1.18,1.18,0,0,1,.25-.78,1.47,1.47,0,0,1,.67-.46,2.9,2.9,0,0,1,.91-.14,2,2,0,0,1,1.27.33,1.23,1.23,0,0,1,.41,1,3.72,3.72,0,0,1-.27,1.48,2.19,2.19,0,0,1-.74,1,1.76,1.76,0,0,1-1,.33A.89.89,0,0,1,27.54,85.14Z"/><path class="cls-14" d="M32,82.33a2.15,2.15,0,0,0,.06-.46c0-.29-.13-.43-.39-.43a.45.45,0,0,0-.25.07.76.76,0,0,0-.19.21.51.51,0,0,0-.07.26.52.52,0,0,0,.16.38.33.33,0,0,1-.17.12.65.65,0,0,1-.26,0,.38.38,0,0,1-.33-.14.57.57,0,0,1-.11-.36.69.69,0,0,1,.19-.49,1.06,1.06,0,0,1,.49-.31,2,2,0,0,1,.65-.11,1.58,1.58,0,0,1,.9.23.86.86,0,0,1,.33.74,2.79,2.79,0,0,1,0,.47l-.55,2.58h-1Z"/><path class="cls-14" d="M33.75,82.27a.68.68,0,0,0,0-.22.92.92,0,0,0-.07-.38V81.6a4.43,4.43,0,0,1,.84-.36,3.11,3.11,0,0,1,.9-.13,1.64,1.64,0,0,1,1,.22.77.77,0,0,1,.29.64,2.07,2.07,0,0,1-.06.44l-.57,2.72h-1l.63-3a1.57,1.57,0,0,0,0-.27c0-.3-.15-.44-.45-.44a2.22,2.22,0,0,0-.37,0,1.45,1.45,0,0,0-.33.08v.06a.94.94,0,0,1,.16.53,1.13,1.13,0,0,1,0,.25l-.58,2.74h-1Z"/><path class="cls-14" d="M37.18,85a1,1,0,0,1-.2-.62,2,2,0,0,1,.05-.42l.59-2.8h1L38,84.07a1.15,1.15,0,0,0,0,.16.36.36,0,0,0,.08.23.27.27,0,0,0,.22.09.56.56,0,0,0,.27-.08.69.69,0,0,0,.23-.22.68.68,0,0,0,.14-.31l.59-2.8h1l-.62,2.93a.89.89,0,0,0,0,.22.25.25,0,0,0,.06.2.28.28,0,0,0,.2.06.31.31,0,0,0,.24-.12.94.94,0,0,0,.14-.32h.29a1.74,1.74,0,0,1-.31.71,1,1,0,0,1-.41.33,1.41,1.41,0,0,1-.47.07.72.72,0,0,1-.48-.17.76.76,0,0,1-.2-.49,1.33,1.33,0,0,1-.54.52,1.2,1.2,0,0,1-.57.14A.78.78,0,0,1,37.18,85Z"/><path class="cls-14" d="M39.74,80.63a.75.75,0,0,1-.25-.21.53.53,0,0,1-.09-.3.54.54,0,0,1,.09-.31.75.75,0,0,1,.25-.21,1.15,1.15,0,0,1,.4-.07,1.13,1.13,0,0,1,.39.07.67.67,0,0,1,.25.21.54.54,0,0,1,.09.31.53.53,0,0,1-.09.3.67.67,0,0,1-.25.21,1.13,1.13,0,0,1-.39.07A1.15,1.15,0,0,1,39.74,80.63Zm.61-.33a.29.29,0,0,0,.07-.18.29.29,0,0,0-.07-.19.29.29,0,0,0-.21-.08.26.26,0,0,0-.29.27.29.29,0,0,0,.07.18.29.29,0,0,0,.22.08A.29.29,0,0,0,40.35,80.3Z"/><path class="cls-14" d="M39.6,79.27c-.06,0-.08-.09-.08-.18a.62.62,0,0,1,0-.13l.06-.27h-.34l.06-.34h.75c.2,0,.3.06.3.19a.44.44,0,0,1,0,.09l0,.2H41.5l-.11.48H39.84A.49.49,0,0,1,39.6,79.27Z"/><path class="cls-14" d="M42.37,82.33a2.91,2.91,0,0,0,.05-.46c0-.29-.13-.43-.39-.43a.4.4,0,0,0-.24.07.63.63,0,0,0-.19.21.52.52,0,0,0-.08.26.57.57,0,0,0,.16.38.3.3,0,0,1-.17.12.62.62,0,0,1-.25,0,.4.4,0,0,1-.34-.14.57.57,0,0,1-.1-.36.72.72,0,0,1,.18-.49,1.12,1.12,0,0,1,.49-.31,2,2,0,0,1,.65-.11,1.59,1.59,0,0,1,.91.23.88.88,0,0,1,.32.74,2.79,2.79,0,0,1,0,.47l-.55,2.58h-1Z"/><path class="cls-14" d="M43.85,85a1,1,0,0,1-.2-.62,2,2,0,0,1,.05-.42l.59-2.8h1l-.61,2.93a1.15,1.15,0,0,0,0,.16.36.36,0,0,0,.08.23.27.27,0,0,0,.22.09.56.56,0,0,0,.27-.08.86.86,0,0,0,.37-.53l.59-2.8h1l-.62,2.93a.89.89,0,0,0,0,.22.25.25,0,0,0,.06.2.27.27,0,0,0,.2.06.31.31,0,0,0,.24-.12.94.94,0,0,0,.14-.32h.29a1.89,1.89,0,0,1-.31.71,1,1,0,0,1-.41.33,1.41,1.41,0,0,1-.47.07.69.69,0,0,1-.48-.17.71.71,0,0,1-.2-.49,1.33,1.33,0,0,1-.54.52,1.23,1.23,0,0,1-.57.14A.77.77,0,0,1,43.85,85Z"/><path class="cls-14" d="M48.72,85.07a1.16,1.16,0,0,1-.4-.51l-.11.57h-1l.84-4h1l-.59,2.8a.51.51,0,0,0,0,.13.53.53,0,0,0,.07.26.4.4,0,0,0,.18.16.46.46,0,0,0,.23.06.57.57,0,0,0,.33-.11.52.52,0,0,0,.19-.32l.62-3h1l-.64,3a1.58,1.58,0,0,1-.24.56,1.18,1.18,0,0,1-.4.37,1.06,1.06,0,0,1-.5.12A1,1,0,0,1,48.72,85.07Z"/><path class="cls-14" d="M54.8,81.27a1.43,1.43,0,0,0-.29,0,1.51,1.51,0,0,0-.53.08.8.8,0,0,1,.34.34.88.88,0,0,1,.11.42.89.89,0,0,1,0,.22l-.59,2.83h-1l.41-1.93a1.36,1.36,0,0,0-.36,0,.82.82,0,0,0-.46.13.86.86,0,0,0-.32.38,1.32,1.32,0,0,0-.12.59.78.78,0,0,0,.09.39.26.26,0,0,0,.24.16.64.64,0,0,0,.31-.07l-.08.39-.1,0a.38.38,0,0,1-.17,0H52a1.14,1.14,0,0,1-.42-.09.86.86,0,0,1-.37-.29.82.82,0,0,1-.16-.53,1.44,1.44,0,0,1,.23-.82,1.4,1.4,0,0,1,.62-.5,2.21,2.21,0,0,1,.87-.16,2.59,2.59,0,0,1,.56,0l.16-.76a1,1,0,0,0,0-.22c0-.31-.19-.46-.57-.46a1,1,0,0,0-.34,0,.69.69,0,0,0-.26.17.42.42,0,0,0-.1.26.46.46,0,0,0,0,.21.57.57,0,0,0,.15.17.75.75,0,0,1-.17.14.57.57,0,0,1-.24,0,.42.42,0,0,1-.36-.15.52.52,0,0,1-.13-.37.62.62,0,0,1,.21-.46,1.41,1.41,0,0,1,.56-.29,2.52,2.52,0,0,1,.73-.1,2.35,2.35,0,0,1,.47,0,1,1,0,0,1,.92-.52.67.67,0,0,1,.5.18.76.76,0,0,1,.17.55A1.07,1.07,0,0,0,54.8,81.27Z"/><path class="cls-14" d="M55.18,85.08a1,1,0,0,1-.39-.41,1.46,1.46,0,0,1-.14-.66,4.29,4.29,0,0,1,.24-1.48,2.23,2.23,0,0,1,.76-1,2.06,2.06,0,0,1,1.27-.38,1.53,1.53,0,0,1,1,.27.93.93,0,0,1,.34.78,1.73,1.73,0,0,1,0,.37l-.56,2.6h-1l.61-2.86a1.61,1.61,0,0,0,0-.34.45.45,0,0,0-.09-.3.41.41,0,0,0-.3-.1.76.76,0,0,0-.6.36,2.57,2.57,0,0,0-.45.94,4.85,4.85,0,0,0-.17,1.29,1.13,1.13,0,0,0,.09.49.29.29,0,0,0,.28.19l.2,0a.69.69,0,0,0,.17,0l-.09.39a1.66,1.66,0,0,1-.61.1A1,1,0,0,1,55.18,85.08Z"/><path class="cls-14" d="M60.94,80.81h-.65l.08-.32a2.71,2.71,0,0,0,.71-.09A4,4,0,0,0,62.13,80L61,85.13H60Z"/><path class="cls-14" d="M62.55,84.7a2.24,2.24,0,0,1-.29-1.23,5.64,5.64,0,0,1,.08-.93,4.6,4.6,0,0,1,.22-.85,3.82,3.82,0,0,1,.36-.73,2.15,2.15,0,0,1,.47-.56A1.89,1.89,0,0,1,64,80a1.85,1.85,0,0,1,.66-.13,1.19,1.19,0,0,1,1,.46,1.43,1.43,0,0,1,.24.53,2.38,2.38,0,0,1,.09.68,5.67,5.67,0,0,1-.12,1.14,5,5,0,0,1-.39,1.19,2.57,2.57,0,0,1-.71.93,1.66,1.66,0,0,1-1.08.38A1.26,1.26,0,0,1,62.55,84.7Zm1.53-.15a1.42,1.42,0,0,0,.3-.39,4.17,4.17,0,0,0,.46-1.26A7,7,0,0,0,65,81.32a2.36,2.36,0,0,0-.09-.71c-.07-.2-.18-.3-.31-.3a.47.47,0,0,0-.32.13,1.61,1.61,0,0,0-.31.39,3,3,0,0,0-.27.57,5.05,5.05,0,0,0-.22.69,6.5,6.5,0,0,0-.19,1.55,2.25,2.25,0,0,0,.09.72c.07.21.19.32.36.32A.58.58,0,0,0,64.08,84.55Z"/><path class="cls-14" d="M66.41,84.7a2.15,2.15,0,0,1-.3-1.23,5.64,5.64,0,0,1,.08-.93,4.6,4.6,0,0,1,.22-.85,3.82,3.82,0,0,1,.36-.73,2.37,2.37,0,0,1,.47-.56,1.94,1.94,0,0,1,.58-.38,1.75,1.75,0,0,1,.65-.13,1.21,1.21,0,0,1,1,.46,1.85,1.85,0,0,1,.24.53,2.82,2.82,0,0,1,.08.68,5.67,5.67,0,0,1-.12,1.14,5,5,0,0,1-.39,1.19,2.57,2.57,0,0,1-.71.93,1.66,1.66,0,0,1-1.08.38A1.24,1.24,0,0,1,66.41,84.7Zm1.52-.15a1.44,1.44,0,0,0,.31-.39,4.18,4.18,0,0,0,.45-1.26,7,7,0,0,0,.18-1.58,2.33,2.33,0,0,0-.1-.71c-.07-.2-.17-.3-.31-.3a.51.51,0,0,0-.32.13,1.61,1.61,0,0,0-.31.39,3,3,0,0,0-.27.57,7,7,0,0,0-.21.69,6.53,6.53,0,0,0-.2,1.55,2.25,2.25,0,0,0,.09.72c.07.21.19.32.36.32A.58.58,0,0,0,67.93,84.55Z"/><path class="cls-14" d="M69.89,81.74A2.55,2.55,0,0,1,70,81a2,2,0,0,1,.3-.61,1.41,1.41,0,0,1,.45-.4,1.08,1.08,0,0,1,.55-.15c.54,0,.81.35.81,1a2.53,2.53,0,0,1-.11.73,2.33,2.33,0,0,1-.31.61,1.5,1.5,0,0,1-.46.41,1.06,1.06,0,0,1-.55.15C70.16,82.78,69.89,82.43,69.89,81.74Zm1.15.6a1.24,1.24,0,0,0,.23-.4,3.75,3.75,0,0,0,.15-.6,5.09,5.09,0,0,0,0-.69,1.28,1.28,0,0,0,0-.4.18.18,0,0,0-.17-.12.34.34,0,0,0-.26.15,1.58,1.58,0,0,0-.24.41,3.28,3.28,0,0,0-.16.58,2.88,2.88,0,0,0-.07.65,1.16,1.16,0,0,0,.06.43.19.19,0,0,0,.19.14A.34.34,0,0,0,71,82.34Zm2.43-2.42H74l-2.89,5.21h-.49Zm-1,4.22a2.55,2.55,0,0,1,.1-.74,2,2,0,0,1,.3-.61,1.41,1.41,0,0,1,.45-.4,1.11,1.11,0,0,1,.55-.15c.54,0,.81.35.81,1a2.48,2.48,0,0,1-.11.73,2,2,0,0,1-.31.61,1.49,1.49,0,0,1-.45.42,1.21,1.21,0,0,1-.55.14C72.74,85.17,72.48,84.83,72.48,84.14Zm1.14.6a1.36,1.36,0,0,0,.23-.4,3.09,3.09,0,0,0,.15-.6,3.85,3.85,0,0,0,.06-.69,1.21,1.21,0,0,0,0-.4.18.18,0,0,0-.17-.12c-.11,0-.23.09-.35.27a2.26,2.26,0,0,0-.27.66,3.54,3.54,0,0,0-.11.85,1.14,1.14,0,0,0,.07.44.19.19,0,0,0,.19.14A.34.34,0,0,0,73.62,84.74Z"/><polygon class="cls-4" points="157.32 6.05 10.33 6.05 0 22.74 167.65 22.74 157.32 6.05"/><g class="cls-15"><rect class="cls-16" y="12.8" width="167.65" height="1.59"/></g><path class="cls-13" d="M15.27,209.89c0,.87-.64,1.3-1.93,1.3s-1.94-.43-1.94-1.3v-2.22l-.22,0a1,1,0,0,1-.72-.3,1,1,0,0,1-.3-.72,1,1,0,0,1,.3-.71,1.05,1.05,0,0,1,1.47,0,1,1,0,0,1,.3.77v3.15c0,.18.12.32.36.43a1.74,1.74,0,0,0,.75.16,1.78,1.78,0,0,0,.75-.16c.24-.11.36-.25.36-.43v-6.25h.82Zm-3.64-3.21a.45.45,0,0,0-.14-.32.42.42,0,0,0-.31-.13.41.41,0,0,0-.32.13.45.45,0,0,0-.14.32.43.43,0,0,0,.14.32.41.41,0,0,0,.32.13.42.42,0,0,0,.31-.13A.43.43,0,0,0,11.63,206.68Z"/><path class="cls-13" d="M19.56,210.2a.94.94,0,0,1-.3.71,1,1,0,0,1-.73.28,1,1,0,0,1-.72-.29,1,1,0,0,1-.3-.72,1,1,0,0,1,.3-.72,1,1,0,0,1,.72-.29h.2V208c0-.14-.29-.28-.88-.42s-1.13-.25-1.61-.33a1.93,1.93,0,0,1,.39-1.17,1.26,1.26,0,0,1,1-.45,3.05,3.05,0,0,1,.77.13,3.28,3.28,0,0,0,.69.12c.16,0,.24-.1.26-.29l.65.17c-.16.54-.45.81-.88.81a2.79,2.79,0,0,1-.69-.11,2.79,2.79,0,0,0-.67-.12q-.59,0-.66.45a14.44,14.44,0,0,1,1.72.45.86.86,0,0,1,.7.83Zm-.57,0a.45.45,0,0,0-.14-.32.41.41,0,0,0-.32-.13.4.4,0,0,0-.31.13.45.45,0,0,0-.14.32.43.43,0,0,0,.14.32.4.4,0,0,0,.31.13.41.41,0,0,0,.32-.13A.43.43,0,0,0,19,210.18Z"/><path class="cls-13" d="M19.68,205.1a9.76,9.76,0,0,0-3-.53,10.93,10.93,0,0,0-1.27.07,1.75,1.75,0,0,1,1.95-1.78,2.16,2.16,0,0,1,1.62.62A2.7,2.7,0,0,1,19.68,205.1Zm-.85-.79a1.18,1.18,0,0,0-.48-.62,1.48,1.48,0,0,0-.91-.3,1.63,1.63,0,0,0-.82.2.87.87,0,0,0-.44.51,3.12,3.12,0,0,1,.7,0A7.16,7.16,0,0,1,18.83,204.31Z"/><path class="cls-13" d="M25.2,211.09h-.82a4.76,4.76,0,0,0-1.56-1v.06a.91.91,0,0,1-.33.72,1,1,0,0,1-.73.29,1.07,1.07,0,0,1-.76-1.83,1.07,1.07,0,0,1,.76-.31h.09v-1.38l-.23,0a1,1,0,0,1-.72-.3,1,1,0,0,1-.29-.72,1,1,0,0,1,.29-.71,1,1,0,0,1,.72-.29,1,1,0,0,1,.75.31,1,1,0,0,1,.3.77v2.53a5,5,0,0,1,1.71.94v-4.44h.82Zm-3.13-4.41a.44.44,0,0,0-.13-.32.42.42,0,0,0-.32-.13.44.44,0,0,0-.45.45.42.42,0,0,0,.13.32.44.44,0,0,0,.32.13.44.44,0,0,0,.45-.45Zm.14,3.44a.42.42,0,0,0-.14-.32.41.41,0,0,0-.31-.14.48.48,0,0,0-.46.46.46.46,0,0,0,.46.45.44.44,0,0,0,.31-.13A.45.45,0,0,0,22.21,210.12Z"/><path class="cls-13" d="M29.68,211.09h-.83v-3.88a.77.77,0,0,0-.25-.6,1,1,0,0,0-.7-.23.91.91,0,0,0-.71.29,1.06,1.06,0,0,0-.3.74h-.8a1.87,1.87,0,0,1,.53-1.27,1.77,1.77,0,0,1,1.28-.47,2.07,2.07,0,0,1,1.26.38,1.32,1.32,0,0,1,.52,1.15Z"/><path class="cls-13" d="M35.07,211.09h-.83V207.6a1.45,1.45,0,0,0-.46-1.22L33,207l-.81-.59c-.37.18-.56.6-.56,1.26a3.53,3.53,0,0,0,.19,1,3.45,3.45,0,0,1,.2.93,1.41,1.41,0,0,1-.08.44,2,2,0,0,1,.38-.52,3.23,3.23,0,0,1,.59-.51.79.79,0,0,1-.57-.28.84.84,0,0,1-.2-.56.85.85,0,0,1,.24-.61.86.86,0,0,1,1.47.61,1.83,1.83,0,0,1-.6,1.21,7.9,7.9,0,0,0-.93,1.11,1.56,1.56,0,0,0-.2.68h-.84c0-.34,0-.68,0-1a2.84,2.84,0,0,0-.16-1,5,5,0,0,1-.33-1.44,2.17,2.17,0,0,1,.36-1.26,1.79,1.79,0,0,1,1.05-.72l.76.57.7-.57c1,.14,1.43.78,1.43,1.91Zm-1.73-3a.38.38,0,0,0-.12-.29.39.39,0,0,0-.28-.11.4.4,0,1,0,0,.8.39.39,0,0,0,.28-.11A.38.38,0,0,0,33.34,208.08Z"/><path class="cls-13" d="M39.35,210.2a.94.94,0,0,1-.3.71,1,1,0,0,1-.72.28,1,1,0,0,1-.73-.29,1,1,0,0,1-.3-.72,1,1,0,0,1,.3-.72,1,1,0,0,1,.73-.29h.2V208c0-.14-.3-.28-.89-.42s-1.12-.25-1.6-.33a1.87,1.87,0,0,1,.39-1.17,1.23,1.23,0,0,1,1-.45,3.05,3.05,0,0,1,.77.13,3.24,3.24,0,0,0,.7.12c.15,0,.23-.1.25-.29l.65.17c-.16.54-.45.81-.88.81a2.73,2.73,0,0,1-.68-.11,2.87,2.87,0,0,0-.67-.12c-.39,0-.62.15-.67.45a14,14,0,0,1,1.72.45.86.86,0,0,1,.7.83Zm-.57,0a.44.44,0,0,0-.45-.45.42.42,0,0,0-.32.13.44.44,0,0,0-.13.32.44.44,0,0,0,.45.45.44.44,0,0,0,.32-.13A.42.42,0,0,0,38.78,210.18Z"/><path class="cls-13" d="M44.76,211.09h-.83v-2.31a.67.67,0,0,0-.45-.61,1.93,1.93,0,0,0-.77-.16,1.26,1.26,0,0,0-.71.2.74.74,0,0,0-.36.64v.33l.24,0a1,1,0,0,1,.73.3.93.93,0,0,1,.31.71,1,1,0,0,1-.32.72,1.07,1.07,0,0,1-.73.29,1,1,0,0,1-.75-.29,1,1,0,0,1-.3-.72v-1.23a1.43,1.43,0,0,1,.58-1.22,2.1,2.1,0,0,1,1.29-.39,1.6,1.6,0,0,1,1.24.46v-.6a.7.7,0,0,0-.48-.64,1.91,1.91,0,0,0-.84-.17,1.62,1.62,0,0,0-.89.23,1.06,1.06,0,0,0-.49.72h-.8a1.65,1.65,0,0,1,.71-1.25,2.58,2.58,0,0,1,1.5-.41,2.67,2.67,0,0,1,1.08.21.81.81,0,0,0,.28-.64h.93a2,2,0,0,1-.57,1.06,1.41,1.41,0,0,1,.4,1Zm-2.43-.92a.44.44,0,0,0-.45-.45.44.44,0,0,0-.32.13.42.42,0,0,0-.13.32.44.44,0,0,0,.45.45.42.42,0,0,0,.32-.13A.44.44,0,0,0,42.33,210.17Z"/><path class="cls-13" d="M44.76,214.22H44v-1H43.9a.8.8,0,0,1-.8-.78.78.78,0,0,1,.24-.57.77.77,0,0,1,.58-.24.88.88,0,0,1,.58.21.73.73,0,0,1,.26.59Zm-.47-1.84a.38.38,0,0,0-.36-.36.38.38,0,0,0-.37.36.38.38,0,0,0,.37.37.38.38,0,0,0,.36-.37Z"/><path class="cls-13" d="M50.59,211.09h-.83v-4.3c0-.28-.07-.41-.2-.41s-.19.06-.24.2l-1.58,4.51h-.93v-3.42l-.23,0a1,1,0,0,1-.72-.3,1,1,0,0,1-.29-.72,1,1,0,0,1,.29-.71,1,1,0,0,1,.72-.29,1,1,0,0,1,.75.31,1,1,0,0,1,.3.77v2a9.15,9.15,0,0,1-.16,1.41c.1-.39.22-.82.37-1.3l.75-2.37a1,1,0,0,1,1-.8c.66,0,1,.39,1,1.13ZM47,206.68a.45.45,0,1,0-.9,0,.42.42,0,0,0,.13.32.46.46,0,0,0,.64,0A.42.42,0,0,0,47,206.68Z"/><path class="cls-13" d="M55.26,210c0,.82-.56,1.23-1.67,1.23s-1.65-.41-1.65-1.23v-1.75h.83V210q0,.48.84.48c.55,0,.82-.16.82-.48v-1.76c0-.2-.34-.38-1-.54l-1.79-.38A2.17,2.17,0,0,1,52,206.1a1.54,1.54,0,0,1,1.21-.43,3.59,3.59,0,0,1,.83.13,3.94,3.94,0,0,0,.74.12c.15,0,.24-.1.26-.29l.65.17a1.63,1.63,0,0,1-.35.64.89.89,0,0,1-.61.19,3.63,3.63,0,0,1-.73-.13,3.18,3.18,0,0,0-.76-.14c-.48,0-.74.15-.77.44a19.11,19.11,0,0,1,2,.53c.49.17.74.46.74.87Z"/><path class="cls-13" d="M55.38,205.1a9.76,9.76,0,0,0-3-.53,10.93,10.93,0,0,0-1.27.07A1.75,1.75,0,0,1,53,202.86a2.16,2.16,0,0,1,1.62.62A2.7,2.7,0,0,1,55.38,205.1Zm-.85-.79a1.18,1.18,0,0,0-.48-.62,1.48,1.48,0,0,0-.91-.3,1.63,1.63,0,0,0-.82.2.87.87,0,0,0-.44.51,3.07,3.07,0,0,1,.7,0A7.16,7.16,0,0,1,54.53,204.31Z"/><path class="cls-13" d="M63.67,211.09H59.36a7.81,7.81,0,0,1,.22-1c.23-.29.94-1,2.12-2.08.73-.68,1.09-1.24,1.09-1.67,0-.59-.34-.88-1-.88s-1.09.39-1.22,1.18l-.79-.2a1.91,1.91,0,0,1,.67-1.32,2.08,2.08,0,0,1,1.36-.44,2,2,0,0,1,1.34.48,1.56,1.56,0,0,1,.53,1.22,2.43,2.43,0,0,1-.69,1.47,15,15,0,0,1-1.42,1.37,8.12,8.12,0,0,0-1.09,1.08h3.39Z"/><path class="cls-13" d="M68.72,208a4.5,4.5,0,0,1-.56,2.3,1.78,1.78,0,0,1-1.6,1,1.73,1.73,0,0,1-1.56-1,5,5,0,0,1,0-4.6,1.73,1.73,0,0,1,1.56-.95,1.78,1.78,0,0,1,1.6.95A4.5,4.5,0,0,1,68.72,208Zm-.86,0a4.3,4.3,0,0,0-.32-1.82,1,1,0,0,0-1-.7,1.05,1.05,0,0,0-1,.7,5.34,5.34,0,0,0,0,3.64,1,1,0,0,0,1,.69,1,1,0,0,0,1-.69A4.3,4.3,0,0,0,67.86,208Z"/><path class="cls-13" d="M73.75,208a4.5,4.5,0,0,1-.56,2.3,1.78,1.78,0,0,1-1.6,1,1.73,1.73,0,0,1-1.56-1,5,5,0,0,1,0-4.6,1.73,1.73,0,0,1,1.56-.95,1.78,1.78,0,0,1,1.6.95A4.5,4.5,0,0,1,73.75,208Zm-.86,0a4.3,4.3,0,0,0-.32-1.82,1,1,0,0,0-.95-.7,1.05,1.05,0,0,0-1,.7,5.5,5.5,0,0,0,0,3.64,1,1,0,0,0,1,.69,1,1,0,0,0,1-.69A4.3,4.3,0,0,0,72.89,208Z"/><path class="cls-13" d="M82,211.09h-.82a4.76,4.76,0,0,0-1.56-1v.06a.91.91,0,0,1-.33.72,1.05,1.05,0,0,1-.74.29,1.07,1.07,0,0,1-.75-1.83,1.06,1.06,0,0,1,.75-.31h.1v-1.38l-.23,0a1,1,0,0,1-.72-.3,1,1,0,0,1-.29-.72,1,1,0,0,1,.29-.71,1,1,0,0,1,.72-.29,1,1,0,0,1,.75.31,1,1,0,0,1,.3.77v2.53a5,5,0,0,1,1.71.94v-4.44H82Zm-3.13-4.41a.44.44,0,0,0-.13-.32.42.42,0,0,0-.32-.13.44.44,0,0,0-.45.45.42.42,0,0,0,.13.32.44.44,0,0,0,.32.13.44.44,0,0,0,.45-.45Zm.14,3.44a.42.42,0,0,0-.14-.32.43.43,0,0,0-.32-.14.46.46,0,0,0-.45.46.44.44,0,0,0,.45.45.46.46,0,0,0,.32-.13A.45.45,0,0,0,79,210.12Z"/><path class="cls-13" d="M87.32,211.09H86.5v-2.31a.66.66,0,0,0-.46-.61,1.89,1.89,0,0,0-.77-.16,1.23,1.23,0,0,0-.7.2.74.74,0,0,0-.36.64v.33l.24,0a1,1,0,0,1,.73.3,1,1,0,0,1,0,1.43,1.1,1.1,0,0,1-.74.29,1,1,0,0,1-.74-.29.92.92,0,0,1-.31-.72v-1.23a1.44,1.44,0,0,1,.59-1.22,2.06,2.06,0,0,1,1.29-.39,1.61,1.61,0,0,1,1.24.46v-.6a.7.7,0,0,0-.48-.64,1.91,1.91,0,0,0-.84-.17,1.6,1.6,0,0,0-.89.23,1,1,0,0,0-.49.72H83a1.64,1.64,0,0,1,.7-1.25,2.59,2.59,0,0,1,1.51-.41,2.54,2.54,0,0,1,1.42.39,1.37,1.37,0,0,1,.69,1.22Zm-2.42-.92a.46.46,0,0,0-.13-.32.44.44,0,0,0-.32-.13.42.42,0,0,0-.32.13.43.43,0,0,0-.14.32.45.45,0,0,0,.14.32.42.42,0,0,0,.32.13.44.44,0,0,0,.32-.13A.48.48,0,0,0,84.9,210.17Z"/><path class="cls-13" d="M89.79,210.57a.62.62,0,0,1-.19.45.64.64,0,0,1-.91,0,.65.65,0,0,1,0-.9.62.62,0,0,1,.46-.19.61.61,0,0,1,.45.19A.62.62,0,0,1,89.79,210.57Z"/><rect class="cls-17" x="85.81" y="23.13" width="81.05" height="196.26"/></g></g></svg>