<svg xmlns="http://www.w3.org/2000/svg" xmlns:xlink="http://www.w3.org/1999/xlink" viewBox="0 0 178.44 208.86"><defs><style>.cls-1{fill:#f9e3a8;}.cls-2{fill:none;}.cls-3{fill:#e87625;}.cls-4{fill:#e19f79;}.cls-5{clip-path:url(#clip-path);}.cls-6{fill:#fdbc3a;}.cls-7{fill:#face0b;}.cls-8{font-size:30.61px;fill:#fff;font-family:Kanit-SemiBold, Kanit;font-weight:600;}.cls-9{font-size:22.56px;font-family:Kanit-Bold, Kanit;font-weight:700;}.cls-10,.cls-11,.cls-14{fill:#fff6e2;}.cls-10{opacity:0.36;}.cls-12{fill:#ffd477;}.cls-13{clip-path:url(#clip-path-2);}.cls-14{opacity:0.62;}</style><clipPath id="clip-path" transform="translate(0 -3.52)"><circle class="cls-1" cx="88.8" cy="80.87" r="77.36"/></clipPath><clipPath id="clip-path-2" transform="translate(0 -3.52)"><polygon class="cls-2" points="42.67 146.8 172.46 52.59 119.86 0 22.91 125.83 42.67 146.8"/></clipPath></defs><title>Asset 15</title><g id="Layer_2" data-name="Layer 2"><g id="ขายดี"><path class="cls-3" d="M70.78,96.43a5.85,5.85,0,0,0-2.14,8l62.32,108,.27-.16,8.35-39.72,38.58,12.63.28-.16L116.11,77a5.85,5.85,0,0,0-8-2.14Z" transform="translate(0 -3.52)"/><path class="cls-4" d="M75.35,93.79a5.85,5.85,0,0,0-2.14,8l54.72,94.79.23-.13,8.34-29.28L166,174.58l.23-.13L111.54,79.66a5.85,5.85,0,0,0-8-2.14Z" transform="translate(0 -3.52)"/><path class="cls-3" d="M107.66,96.43a5.85,5.85,0,0,1,2.14,8l-62.32,108-.28-.16L38.86,172.5.28,185.13,0,185,62.32,77a5.85,5.85,0,0,1,8-2.14Z" transform="translate(0 -3.52)"/><path class="cls-4" d="M103.09,93.79a5.85,5.85,0,0,1,2.14,8L50.5,196.58l-.22-.13-8.35-29.28L12.4,174.58l-.23-.13L66.9,79.66a5.85,5.85,0,0,1,8-2.14Z" transform="translate(0 -3.52)"/><circle class="cls-1" cx="88.8" cy="77.36" r="77.36"/><g class="cls-5"><polygon class="cls-6" points="87.04 22.77 103.65 39.39 127.14 39.39 127.14 62.88 143.75 79.49 127.14 96.1 129.15 117.7 103.65 119.59 87.04 136.21 70.43 119.59 46.94 119.59 46.94 96.1 30.32 79.49 46.94 62.88 49.01 37.56 70.43 39.39 87.04 22.77"/><polygon class="cls-7" points="88.99 20.83 105.6 37.44 129.09 37.44 129.09 60.93 145.7 77.54 129.09 94.15 129.09 117.65 105.6 117.65 88.99 134.26 72.38 117.65 48.88 117.65 48.88 94.15 32.27 77.54 48.88 60.93 48.88 37.44 72.38 37.44 88.99 20.83"/><text class="cls-8" transform="translate(52.63 74.96)">ขายดี<tspan class="cls-9"><tspan x="20.57" y="27.07">ที่ 1</tspan></tspan></text><polygon class="cls-10" points="165.56 32.2 27.13 154.73 11.84 139.13 140.76 7.2 165.56 32.2"/></g><path class="cls-6" d="M86.36,20.59a64,64,0,0,1,54.32,97.85A64,64,0,1,0,35.93,45.17,63.92,63.92,0,0,1,86.36,20.59Z" transform="translate(0 -3.52)"/><path class="cls-11" d="M90.05,143.06A64,64,0,0,1,35.73,45.21a64,64,0,1,0,104.75,73.27A63.92,63.92,0,0,1,90.05,143.06Z" transform="translate(0 -3.52)"/><path class="cls-12" d="M88.8,3.52a77.36,77.36,0,1,0,77.36,77.35A77.35,77.35,0,0,0,88.8,3.52Zm0,141.2a63.85,63.85,0,1,1,63.85-63.85A63.85,63.85,0,0,1,88.8,144.72Z" transform="translate(0 -3.52)"/><g class="cls-13"><path class="cls-14" d="M88.8,3.52a77.36,77.36,0,1,0,77.36,77.35A77.35,77.35,0,0,0,88.8,3.52Zm0,141.2a63.85,63.85,0,1,1,63.85-63.85A63.85,63.85,0,0,1,88.8,144.72Z" transform="translate(0 -3.52)"/></g></g></g></svg>