<svg xmlns="http://www.w3.org/2000/svg" xmlns:xlink="http://www.w3.org/1999/xlink" viewBox="0 0 319.4 189.85"><defs><style>.cls-1{fill:#c4a98d;}.cls-2{fill:#fff;}.cls-3{fill:url(#linear-gradient);}.cls-4{fill:#c48b65;}.cls-5{fill:#a5714e;}.cls-6{fill:#aa7552;}.cls-7{fill:#dca379;}.cls-8{fill:#fbe5aa;}.cls-9{fill:#fff8e8;}.cls-10{fill:#ffc403;opacity:0.5;}.cls-11{fill:#ced6a3;}.cls-12{fill:none;stroke:#000;stroke-miterlimit:10;}.cls-13{font-size:16.35px;fill:#47374f;font-family:Kanit-MediumItalic, Kanit;font-weight:500;font-style:italic;}</style><linearGradient id="linear-gradient" x1="159.88" y1="113.38" x2="159.88" y2="181.79" gradientUnits="userSpaceOnUse"><stop offset="0.32" stop-color="#fff"/><stop offset="1" stop-color="#ffc403"/></linearGradient></defs><title>Asset 16</title><g id="Layer_2" data-name="Layer 2"><g id="เนยแข็ง"><rect class="cls-1" width="319.4" height="189.85" rx="12"/><rect class="cls-2" x="8.11" y="5.86" width="303.54" height="174.22" rx="12"/><rect class="cls-3" x="8.11" y="113.38" width="303.54" height="68.41" rx="12"/><path class="cls-4" d="M155.24,120.43c-6.84,3.87-17,9.84-20.85,12.13,2.79-1.91.78-6.17.78-6.17,4.43-2.52,10.47-5.94,15-8.42,7.54-4.09,2.9-7,2.16-7.38l2.3,1S163.83,115.56,155.24,120.43Z"/><path class="cls-4" d="M63.08,144,61,140.69l1-.67a12.09,12.09,0,0,0,8.25,5.22,21.46,21.46,0,0,1,4.45,1.38h0l4,5.93s2.67,4.92,10.72,3.25,40.76-10.62,40.76-10.62,9.35-2.75,5-8.52c1.16,1.5,2.15,2.77,2.9,3.72,5.58,7.15-6.15,10.5-6.15,10.5s-33.5,9.71-44.11,12.39-14.07-2.34-14.07-2.34l-6.69-10.58Z"/><path class="cls-5" d="M135.17,126.39s2,4.26-.78,6.17h0l-1.59.94h0l-3.09-4Z"/><path class="cls-4" d="M129.7,129.52c-4.88-6.29-10.42-13.45-13.82-17.85l-1.24-1.59,20.53,16.31Z"/><path class="cls-6" d="M125.3,139.6c1.06,0,1.9.27,1.9.62s-.84.61-1.9.61-1.89-.28-1.89-.61S124.26,139.6,125.3,139.6Z"/><path class="cls-7" d="M118.55,133c1.34-17.59-3.85-20.27-3.85-20.27l1.18-1.07c3.4,4.4,8.94,11.56,13.82,17.85l3.09,4,2.36,3a1.13,1.13,0,0,1,.1.13c4.31,5.77-5,8.52-5,8.52S97.5,154.12,89.45,155.8s-10.72-3.25-10.72-3.25l-4-5.93c3.12,1.24,6.44,2.8,9.46,2.78,4.52,0,3.68-1.14,12.9-.14s15.24-3.85,19.09-7.87S120.73,134.86,118.55,133Zm8.65,7.21c0-.35-.84-.62-1.9-.62s-1.89.27-1.89.62.85.61,1.89.61S127.2,140.55,127.2,140.22Z"/><path class="cls-6" d="M119.16,108.11c.93,0,1.67.27,1.67.61s-.74.61-1.67.61-1.68-.27-1.68-.61S118.23,108.11,119.16,108.11Z"/><path class="cls-7" d="M99.73,102.3c8.49-2.12,13,5.25,13,5.25l2,2.53,1.24,1.59-1.18,1.07L113,114.08c-1.29.81-2.88-.55-3-.65,0,.26.55,3.5-2.18,3.5a4,4,0,0,1-.52-.12h0c-3-.92-2.83-5.74-2.83-5.74s-3,1.84-4.36-1c-1.08-2.75-2.08-5-3-6.85Z"/><path class="cls-6" d="M100.18,95.76c0-.33.87-.61,1.95-.61s2,.28,2,.61-.87.62-2,.62S100.18,96.11,100.18,95.76Z"/><path class="cls-8" d="M107.31,116.81c-2.12-.19-4.26,4.65-6.31,9.67s-3.56,3.6-3.48.58c-.17-7.11,7-16,7-16S104.33,115.89,107.31,116.81Z"/><path class="cls-8" d="M87.56,120.45c-5,3.26-8.63,11.73-8.63,11.73-1.12,2.27-3.69,1.75-2.09-2.68,2.84-6.54,9.29-10.65,11.22-11.9S90,118.69,87.56,120.45Z"/><path class="cls-9" d="M75.83,115.76c3.85-3.18,6-7,8.71-9.54h0a9.22,9.22,0,0,0,.95-1c2.66-3.27,6.09-10,6.09-10s2.1,1.06,5.55,8.06c.91,1.84,1.91,4.1,3,6.85,1.34,2.85,4.36,1,4.36,1s-7.13,8.88-7,16c-.08,3,1.42,4.45,3.48-.58s4.19-9.86,6.31-9.67h0a4,4,0,0,0,.52.12c2.73,0,2.22-3.24,2.18-3.5.13.1,1.72,1.46,3,.65l1.68-1.34s5.19,2.68,3.85,20.27c2.18,1.85,1.51,4.36-2.35,8.38s-9.88,8.88-19.09,7.87-8.38.1-12.9.14c-3,0-6.34-1.54-9.46-2.78h0a21.46,21.46,0,0,0-4.45-1.38A12.09,12.09,0,0,1,62.05,140c-1.35-2.2-2-5.18-1.13-9.18a16.72,16.72,0,0,1,1.47-4.15C65.75,120.17,72.58,118.45,75.83,115.76Zm12.23,1.84c-1.93,1.25-8.38,5.36-11.22,11.9-1.6,4.43,1,4.95,2.09,2.68,0,0,3.68-8.47,8.63-11.73C90,118.69,90,116.34,88.06,117.6Zm-2.6-10.14c-2.09,3.52-9,10.22-12.4,12.65s-3.85,3.6-3.35,4.69,2.35,2.6,6.62-1c5.7-4.36,12.57-18.68,12.57-18.68C89.7,103.51,87.56,104,85.46,107.46Z"/><path class="cls-8" d="M88.9,105.12S82,119.44,76.33,123.8c-4.27,3.6-6.11,2.09-6.62,1s-.08-2.26,3.35-4.69,10.31-9.13,12.4-12.65S89.7,103.51,88.9,105.12Z"/><path class="cls-4" d="M69.91,106.32c8.15-.45,15.58-1.16,15.58-1.16a9.22,9.22,0,0,1-.95,1h0c-.28.07-6.16,1.76-13.8,3.86l-5.16-2.91A14.21,14.21,0,0,1,69.91,106.32Z"/><path class="cls-7" d="M62.39,112.33c2.89-.77,5.72-1.53,8.35-2.25,7.64-2.1,13.52-3.79,13.8-3.86-2.68,2.51-4.86,6.36-8.71,9.54-3.25,2.69-10.08,4.41-13.44,10.93L58.63,121c-3.75-5.74,2.51-8.28,2.51-8.28Zm2.37,6.87c0-.68-.76-1.23-1.68-1.23s-1.68.55-1.68,1.23.76,1.23,1.68,1.23S64.76,119.88,64.76,119.2Z"/><path class="cls-5" d="M63.08,144l4,6.38-6.6,1.53a13.51,13.51,0,0,1-7.57-.44c2.55.13,1-7.78,1-7.78A13.22,13.22,0,0,0,63.08,144Z"/><path class="cls-7" d="M102.13,95.15c-1.08,0-1.95.28-1.95.61s.87.62,1.95.62,2-.27,2-.62S103.21,95.15,102.13,95.15ZM69.91,106.32a14.21,14.21,0,0,0-4.33.85l-.13-.07c-3.42-1.92.38-4.31.72-4.52h0l3.34-1.51C77.92,97.27,94,89.9,94,89.9s4.3-2.57,11.53.56c6.19,2.68,37.8,16.25,46.75,20.09l.06,0c.74.4,5.38,3.29-2.16,7.38-4.57,2.48-10.61,5.9-15,8.42l-20.53-16.31-2-2.53s-4.47-7.37-13-5.25l-2.6.91c-3.45-7-5.55-8.06-5.55-8.06s-3.43,6.74-6.09,10C85.49,105.16,78.06,105.87,69.91,106.32Zm50.92,2.4c0-.34-.74-.61-1.67-.61s-1.68.27-1.68.61.75.61,1.68.61S120.83,109.06,120.83,108.72Z"/><path class="cls-6" d="M63.08,118c.92,0,1.68.55,1.68,1.23s-.76,1.23-1.68,1.23-1.68-.55-1.68-1.23S62.16,118,63.08,118Z"/><path class="cls-5" d="M61.4,111.76s.22-3,4.18-4.59l5.16,2.91c-2.63.72-5.46,1.48-8.35,2.25A4.32,4.32,0,0,1,61.4,111.76Z"/><path class="cls-4" d="M62.05,140l-1,.67-9-14.16s-6.36-9.83,6.48-13.18l2.62-.68s-6.26,2.54-2.51,8.28l3.76,5.74a16.72,16.72,0,0,0-1.47,4.15C60.06,134.84,60.7,137.82,62.05,140Z"/><path class="cls-4" d="M65.58,107.17c-4,1.55-4.18,4.59-4.18,4.59a3.64,3.64,0,0,1-1.49-3.2c.17-2.8.62-3.47,5.64-5.7l.62-.28c-.34.21-4.14,2.6-.72,4.52Z"/><path class="cls-7" d="M25.11,111.2c10.75-3.63,31.11-10.47,35.42-11.69,5.91-1.68,9,1.55,9,1.55l-3.34,1.51h0l-.62.28c-5,2.23-5.47,2.9-5.64,5.7a3.64,3.64,0,0,0,1.49,3.2,4.32,4.32,0,0,0,1,.57l-1.25.34-2.62.68C45.68,116.7,52,126.53,52,126.53l9,14.16L63.08,144a13.22,13.22,0,0,1-9.11-.31,19.21,19.21,0,0,1-4.39-2.27s-20.77-15.75-27.8-21.22c-6.35-4.94,1.47-8.26,3.06-8.87h0l.14-.05ZM58,110.64c0-.31-.62-.56-1.39-.56s-1.4.25-1.4.56.63.56,1.4.56S58,111,58,110.64Zm-8,22.65c0-.4-.75-.73-1.68-.73s-1.67.33-1.67.73.75.73,1.67.73S49.92,133.69,49.92,133.29ZM46.57,117.6c0-.49-.65-.9-1.45-.9s-1.45.41-1.45.9.65.89,1.45.89S46.57,118.09,46.57,117.6Z"/><path class="cls-6" d="M56.57,110.08c.77,0,1.39.25,1.39.56s-.62.56-1.39.56-1.4-.25-1.4-.56S55.8,110.08,56.57,110.08Z"/><path class="cls-4" d="M54,143.66s1.54,7.91-1,7.78a12,12,0,0,1-1.18-.48,12.39,12.39,0,0,1-2.64-1.56s-18.77-14.6-25.47-19.6-10.49-7.51-10.49-11.31,5.25-5,5.25-5l6.41-2.17c-1.59.61-9.41,3.93-3.06,8.87,7,5.47,27.8,21.22,27.8,21.22A19.21,19.21,0,0,0,54,143.66Z"/><path class="cls-6" d="M48.24,132.56c.93,0,1.68.33,1.68.73s-.75.73-1.68.73-1.67-.33-1.67-.73S47.32,132.56,48.24,132.56Z"/><path class="cls-6" d="M45.12,116.7c.8,0,1.45.41,1.45.9s-.65.89-1.45.89-1.45-.4-1.45-.89S44.32,116.7,45.12,116.7Z"/><path class="cls-4" d="M24.87,111.29l.14-.05Z"/><rect class="cls-10" x="14.52" y="34.4" width="52.87" height="43.11" rx="12"/><circle class="cls-11" cx="41.36" cy="21.89" r="10.05"/><rect class="cls-12" x="238.74" y="22.35" width="14.74" height="22.62" rx="4.52"/><path class="cls-12" d="M253.48,40.4s-2.09-2.12-7.37-2.12c0,0-5.52.27-7.37,2.12"/><rect class="cls-12" x="253.48" y="22.35" width="14.74" height="22.62" rx="4.52"/><path class="cls-12" d="M268.23,40.4s-2.1-2.12-7.38-2.12c0,0-5.52.27-7.37,2.12"/><rect class="cls-12" x="268.23" y="22.35" width="14.74" height="22.62" rx="4.52"/><path class="cls-12" d="M283,40.4s-2.1-2.12-7.37-2.12c0,0-5.52.27-7.37,2.12"/><rect class="cls-12" x="282.97" y="22.35" width="14.74" height="22.62" rx="4.52"/><path class="cls-12" d="M297.71,40.4s-2.1-2.12-7.37-2.12c0,0-5.52.27-7.37,2.12"/><line class="cls-12" x1="238.74" y1="27.81" x2="297.71" y2="27.81"/><rect class="cls-12" x="214.54" y="88.45" width="90.8" height="76.89"/><line class="cls-12" x1="214.54" y1="107.21" x2="305.33" y2="107.21"/><line class="cls-12" x1="157.02" y1="130.16" x2="162.27" y2="130.16"/><line class="cls-12" x1="157.02" y1="132.95" x2="159.65" y2="132.95"/><polyline class="cls-12" points="153 131.39 152 130.16 157.02 130.16 157.02 137.09 202.59 137.09 209.96 130.16 165.17 130.16 157.02 137.09 153.56 132.95 155.01 132.95"/><line class="cls-12" x1="157.02" y1="140.1" x2="162.27" y2="140.1"/><line class="cls-12" x1="157.02" y1="142.89" x2="159.65" y2="142.89"/><polyline class="cls-12" points="153 141.33 152 140.1 157.02 140.1 157.02 147.03 202.59 147.03 209.96 140.1 165.17 140.1 157.02 147.03 153.56 142.89 155.01 142.89"/><line class="cls-12" x1="214.54" y1="121.51" x2="305.33" y2="121.51"/><line class="cls-12" x1="214.54" y1="155.01" x2="305.33" y2="155.01"/><text class="cls-13" transform="translate(15.98 73.47)">เนยแข็งมหามงคลชนิดทาและขนมปังกรอบ</text></g></g></svg>