<svg xmlns="http://www.w3.org/2000/svg" viewBox="0 0 962 603.5"><defs><style>.cls-1{fill:#84eaef;opacity:0.3;}.cls-2{fill:#fff;opacity:0.5;}.cls-3{fill:#bf6947;}.cls-4{fill:#95bec8;}.cls-5{fill:#649aa0;}.cls-6{fill:none;stroke:#24a399;stroke-miterlimit:10;}.cls-7{fill:#3c6b6d;}</style></defs><title>Asset 17</title><g id="Layer_2" data-name="Layer 2"><g id="หน้าต่าง"><rect class="cls-1" x="44" y="70.5" width="892" height="488"/><polygon class="cls-2" points="168.76 563.76 93.84 549.96 322.99 22.66 388.41 34.71 168.76 563.76"/><polygon class="cls-2" points="324.4 573.53 249.48 559.73 478.63 32.43 544.05 44.48 324.4 573.53"/><polygon class="cls-2" points="652.76 584.76 577.84 570.96 806.99 43.66 872.41 55.71 652.76 584.76"/><path class="cls-3" d="M962.25.25v603.5H.25L1.25.25ZM892,532.25v-461H73v461Z" transform="translate(-0.25 -0.25)"/><path class="cls-4" d="M944.75,218.25v161a12,12,0,0,1-12,12h-17a12,12,0,0,1-12-12v-161a12,12,0,0,1,12-12h17A12,12,0,0,1,944.75,218.25Zm-9,145V233.84a12,12,0,1,0-24,0V363.25a12,12,0,0,0,24,0Z" transform="translate(-0.25 -0.25)"/><path class="cls-5" d="M935.75,233.84V363.25a12,12,0,0,1-24,0V233.84a12,12,0,0,1,24,0Z" transform="translate(-0.25 -0.25)"/><rect class="cls-6" x="903.5" y="206" width="41" height="185" rx="12"/><path class="cls-6" d="M923.75,375.25a12,12,0,0,1-12-12V233.84a12,12,0,0,1,24,0V363.25A12,12,0,0,1,923.75,375.25Z" transform="translate(-0.25 -0.25)"/><path class="cls-7" d="M924.25,221.84a12,12,0,0,0-12,12v14a12,12,0,1,1,24,0v-14A12,12,0,0,0,924.25,221.84Z" transform="translate(-0.25 -0.25)"/><path class="cls-7" d="M924.25,374.84a12,12,0,0,0,12-12v-14a12,12,0,0,1-24,0v14A12,12,0,0,0,924.25,374.84Z" transform="translate(-0.25 -0.25)"/></g></g></svg>