<svg xmlns="http://www.w3.org/2000/svg" xmlns:xlink="http://www.w3.org/1999/xlink" viewBox="0 0 150.5 334.43"><defs><style>.cls-1,.cls-14,.cls-15,.cls-17,.cls-18,.cls-5{fill:none;}.cls-2{fill:#95bec8;}.cls-3{clip-path:url(#clip-path);}.cls-4{fill:#5a9096;}.cls-5{stroke:#daecef;stroke-width:14.4px;}.cls-14,.cls-15,.cls-17,.cls-18,.cls-5{stroke-miterlimit:10;}.cls-6{clip-path:url(#clip-path-3);}.cls-7{fill:#457776;}.cls-8{fill:#e6f3f4;}.cls-9{fill:#d0e2e2;}.cls-10{fill:#527f7c;}.cls-11{fill:#639694;}.cls-12{fill:#e97625;}.cls-13{fill:#ffbc8f;}.cls-14,.cls-15,.cls-17,.cls-18{stroke:#ffbc8f;}.cls-14{stroke-width:2.24px;}.cls-15{stroke-width:2px;}.cls-16{fill:#efa775;}.cls-17{stroke-width:1.61px;}.cls-19{fill:#376361;}.cls-20{fill:#e2a079;}.cls-21{fill:#fff4dc;}.cls-22{fill:#eace92;}.cls-23{fill:#c17d5b;}.cls-24{fill:#434264;}.cls-25{clip-path:url(#clip-path-4);}.cls-26{clip-path:url(#clip-path-5);}.cls-27{clip-path:url(#clip-path-6);}.cls-28{clip-path:url(#clip-path-7);}.cls-29{fill:#daecef;}</style><clipPath id="clip-path"><rect class="cls-1" x="15.09" y="22.83" width="116.24" height="294.87" rx="7.34"/></clipPath><clipPath id="clip-path-3"><rect class="cls-1" x="15.09" y="23.24" width="116.24" height="294.87" rx="7.34"/></clipPath><clipPath id="clip-path-4"><path class="cls-1" d="M73,209a5.51,5.51,0,0,1-5.51,5.51h0A5.51,5.51,0,0,1,62,209v-9.78a5.51,5.51,0,0,1,5.51-5.51h0A5.51,5.51,0,0,1,73,199.23Z"/></clipPath><clipPath id="clip-path-5"><rect class="cls-1" x="63.22" y="204.73" width="39.56" height="24.47" rx="4.61"/></clipPath><clipPath id="clip-path-6"><path class="cls-1" d="M26.51,194.74a2.65,2.65,0,0,1-2.65,2.65h0a2.65,2.65,0,0,1-2.65-2.65v-4.9a2.65,2.65,0,0,1,2.65-2.65h0a2.65,2.65,0,0,1,2.65,2.65Z"/></clipPath><clipPath id="clip-path-7"><rect class="cls-1" x="21.62" y="192.5" width="19.58" height="11.83" rx="2.27"/></clipPath></defs><title>Asset 11</title><g id="Layer_2" data-name="Layer 2"><g id="นมหนองโพ"><rect class="cls-2" x="15.09" y="22.83" width="116.24" height="294.87" rx="7.34"/><g class="cls-3"><ellipse class="cls-4" cx="72.6" cy="53.22" rx="72.6" ry="53.22"/></g><g class="cls-3"><path class="cls-5" d="M11.42,85.3s58.88,47.33,123,0"/></g><g class="cls-6"><path class="cls-7" d="M8,202.13a239.39,239.39,0,0,0,47.58-9.8c25-8,37.76-15.29,49.39-12.85s36.12,3.67,36.12,3.67V283L5,288.56Z"/><path class="cls-8" d="M42.12,278.55l3.07-4.89s-.38-6.12-3.07-9.38-5-5.3-6.14-7.34-4.22-4.9-5-6.53,10.37,8.57,14.2,6.53c1.92-2.45-.76-4.9,0-9s1.54-5.3,2.69-4.08-1.53,10.61,5.37,13.06c0,0,7.3,5.3,11.9-2.45,5.76-4.9,8.83-6.12,12.28-3.67s9.21,8.16,13.82,6.12a39.2,39.2,0,0,1,12.66-2.86,28.54,28.54,0,0,0,5.76-.81c1.92-.41,4.61-4.08,1.92-.41s-1.53,6.07-5,8.13-3.84,1.66-3.84,6.14a16.83,16.83,0,0,0,4.61,11.42c2.69,2.86,6.52,3.26,8.06,4.9s-13.05,4.48-14.2,6.11-45.67,9-46.82,9-8.06-4.49-8.06-4.49Z"/><path class="cls-8" d="M6.93,269.17S33,280.59,43.64,277.33s12.64-5.94,29.57-3.79,12.85,3.79,31.61,8.68,26.92-8.15,33.44-6.52,12.24,13.86,12.24,13.86l-9.29,28.55s-7,11.42-9.88,12.24-82.8,4.08-86.06,4.08H.41Z"/><path class="cls-9" d="M33,240.21a3,3,0,0,1-2.84,3.22,3.25,3.25,0,0,1,0-6.45A3.06,3.06,0,0,1,33,240.21Z"/><circle class="cls-9" cx="101.35" cy="251.23" r="1.22"/><circle class="cls-9" cx="109.61" cy="246.84" r="1.73"/><circle class="cls-9" cx="117.36" cy="246.84" r="1.73"/><circle class="cls-9" cx="123.48" cy="243.17" r="1.73"/><circle class="cls-9" cx="111.7" cy="276.77" r="2.09"/><circle class="cls-9" cx="38.13" cy="272.62" r="1.63"/><circle class="cls-9" cx="48.01" cy="239.11" r="2.12"/><path class="cls-10" d="M56.11,289.4c1.28,4-3.85,9.14-11.46,11.61s-14.81,1.26-16.09-2.68,3.85-9.14,11.46-11.61S54.83,285.46,56.11,289.4Z"/><path class="cls-10" d="M120,298.33c-2.33,3.43-9.58,2.57-16.19-1.93S93.69,285.48,96,282.05s9.58-2.56,16.2,1.93S122.31,294.9,120,298.33Z"/><path class="cls-11" d="M55.34,286.36c1.56,3.84-3.17,9.4-10.58,12.42s-14.68,2.35-16.24-1.49,3.17-9.4,10.57-12.42S53.77,282.52,55.34,286.36Z"/><path class="cls-11" d="M122,296.08c-2.16,3.54-9.44,3.05-16.28-1.1s-10.63-10.39-8.48-13.93,9.44-3.06,16.28,1.09S124.16,292.53,122,296.08Z"/><path class="cls-10" d="M142.59,261.66c.81,4.07-4.89,8.64-12.73,10.2s-14.86-.46-15.67-4.52,4.89-8.64,12.73-10.21S141.78,257.59,142.59,261.66Z"/><path class="cls-11" d="M142.18,259.62c.82,4.07-4.88,8.64-12.73,10.2s-14.86-.46-15.67-4.52,4.89-8.64,12.73-10.2S141.37,255.55,142.18,259.62Z"/><path class="cls-10" d="M36.55,253.5c.81,4.07-4.89,8.64-12.73,10.21S9,263.25,8.15,259.18,13,250.54,20.88,249,35.74,249.44,36.55,253.5Z"/><path class="cls-11" d="M36.55,251.87c.81,4.07-4.89,8.64-12.73,10.2S9,261.61,8.15,257.55s4.89-8.64,12.73-10.2S35.74,247.81,36.55,251.87Z"/><rect class="cls-12" x="101.15" y="157.83" width="23.25" height="24.47" rx="3.35"/><path class="cls-13" d="M108.08,181.28a1,1,0,0,1-1,1h0a1,1,0,0,1-1-1V169.45a1,1,0,0,1,1-1h0a1,1,0,0,1,1,1Z"/><path class="cls-13" d="M119.09,181.28a1,1,0,0,1-1,1h0a1,1,0,0,1-1-1V169.45a1,1,0,0,1,1-1h0a1,1,0,0,1,1,1Z"/><rect class="cls-13" x="106.45" y="168.43" width="12.24" height="1.22" rx="0.53"/><rect class="cls-13" x="106.45" y="181.48" width="12.24" height="1.22" rx="0.53"/><line class="cls-14" x1="107.18" y1="168.99" x2="117.39" y2="181.49"/><line class="cls-14" x1="117.19" y1="168.99" x2="108.25" y2="181.39"/><rect class="cls-15" x="99.52" y="158.24" width="26.1" height="2.45"/><rect class="cls-15" x="109.3" y="162.31" width="6.53" height="4.08" rx="0.61"/><path class="cls-16" d="M126,159.55c0,.33-.18.73-.52.73H99.71c-.33,0-.6-.4-.6-.73v-3.36c0-.33.27-.4.6-.4h25.8c.34,0,.52.07.52.4Z"/><rect class="cls-12" x="85.65" y="168.43" width="16.72" height="17.54" rx="2.41"/><rect class="cls-13" x="88.91" y="176.18" width="1.63" height="9.79" rx="0.73"/><rect class="cls-13" x="97.07" y="176.18" width="1.63" height="9.79" rx="0.73"/><rect class="cls-13" x="89.32" y="176.18" width="8.97" height="0.82" rx="0.38"/><rect class="cls-13" x="89.32" y="185.56" width="8.97" height="0.82" rx="0.38"/><line class="cls-17" x1="89.83" y1="176.51" x2="97.17" y2="185.5"/><line class="cls-17" x1="97.03" y1="176.51" x2="90.6" y2="185.43"/><rect class="cls-18" x="84.22" y="168.64" width="18.76" height="2.04"/><rect class="cls-18" x="91.15" y="171.9" width="4.89" height="2.85" rx="0.44"/><path class="cls-16" d="M103.19,169.71c0,.24.07.35-.17.35H84.45c-.24,0-.43-.11-.43-.35V167.3c0-.24.19-.09.43-.09H103c.24,0,.17-.15.17.09Z"/><path class="cls-19" d="M104.41,235.73a1.22,1.22,0,0,1-1.22,1.22H61.59a1.23,1.23,0,0,1-1.23-1.22h0a1.23,1.23,0,0,1,1.23-1.23h41.6a1.23,1.23,0,0,1,1.22,1.23Z"/><path class="cls-19" d="M42.82,207.79a1,1,0,0,1-1,1H21.41a1,1,0,0,1-1-1h0a1,1,0,0,1,1-1H41.8a1,1,0,0,1,1,1Z"/><rect class="cls-20" x="85.24" y="227.98" width="13.05" height="4.08" rx="1.38"/><rect class="cls-21" x="63.22" y="204.73" width="39.56" height="24.47" rx="4.61"/><path class="cls-22" d="M73,209.83a5.51,5.51,0,0,1-5.51,5.51h0A5.51,5.51,0,0,1,62,209.83V200a5.51,5.51,0,0,1,5.51-5.51h0A5.51,5.51,0,0,1,73,200Z"/><path class="cls-21" d="M73,209a5.51,5.51,0,0,1-5.51,5.51h0A5.51,5.51,0,0,1,62,209v-9.78a5.51,5.51,0,0,1,5.51-5.51h0A5.51,5.51,0,0,1,73,199.23Z"/><path class="cls-20" d="M75.32,208.4c0,1.49-.89,2.86-2,2.86H62.17c-1.1,0-2-1.37-2-2.86h0c0-1.48.9-2.85,2-2.85H73.33c1.1,0,2,1.37,2,2.85Z"/><path class="cls-23" d="M66.56,211.16a1.33,1.33,0,1,1-1.33-1.32A1.33,1.33,0,0,1,66.56,211.16Z"/><path class="cls-23" d="M71.17,211.16a1.33,1.33,0,1,1-1.33-1.32A1.32,1.32,0,0,1,71.17,211.16Z"/><path class="cls-21" d="M78.71,196.78a1.83,1.83,0,0,1-1.83,1.83H72a1.83,1.83,0,0,1-1.84-1.83h0A1.84,1.84,0,0,1,72,194.94h4.89a1.83,1.83,0,0,1,1.83,1.84Z"/><path class="cls-24" d="M66,204.59c0,1-.46,1.9-1,1.9s-1-.85-1-1.9.47-1.91,1-1.91S66,203.54,66,204.59Z"/><path class="cls-24" d="M71.06,204.59c0,1-.47,1.9-1,1.9s-1-.85-1-1.9.46-1.91,1-1.91S71.06,203.54,71.06,204.59Z"/><g class="cls-25"><path class="cls-24" d="M66.56,192.65s0,.17,0,.46a6.39,6.39,0,0,0,1.2,4.15c1.62,2.19,2.19,2.08,2.13,2.89s0,1.38,1.33,1.84,1.62.69,3,0,1.73-4.45,1.73-4.45.58-3-.92-3.85-4.15-2.42-5-2.42"/></g><path class="cls-21" d="M65.66,198.41a1.83,1.83,0,0,1-1.83,1.83h-4.9a1.83,1.83,0,0,1-1.83-1.83h0a1.84,1.84,0,0,1,1.83-1.84h4.9a1.84,1.84,0,0,1,1.83,1.84Z"/><rect class="cls-21" x="63.22" y="224.72" width="4.49" height="11.01" rx="1.38"/><rect class="cls-21" x="78.31" y="225.12" width="4.49" height="11.01" rx="1.38"/><path class="cls-21" d="M102.78,234.29a1.44,1.44,0,0,1-1.39,1.44H99.55a1.33,1.33,0,0,1-1.26-1.44V226a1.18,1.18,0,0,1,1.26-1.27h1.84a1.29,1.29,0,0,1,1.39,1.27Z"/><g class="cls-26"><path class="cls-24" d="M74.57,204s.44,2.75,2.74,3.45,3,.22,4.14,1,2.76,1.15,4.26,3.46S91.59,217,93.09,217s2.08,1,4.15-.69.81-1.62,2.08-3.23,2.88-2.69,4-2.44,1.73-1.37,1.73-3.22-2.3-4.7-2.3-4.82-6.58-1.94-6.92-1.94h-12Z"/><path class="cls-24" d="M70.13,230.6c-.46-.81-2.07-1.73-2.77-3.35a11.82,11.82,0,0,1-.69-4.15c0-.34,1.73-4,1.73-4a23.14,23.14,0,0,1,3.69.47,23.5,23.5,0,0,0,2.48,3.11c1.68,1.73,2.25,1.5,3.52,2.42s2.08.81,2.08,2.19.81,2.66,0,2.89-1.73.92-3,1.38-.69.92-2.6.58A24.06,24.06,0,0,1,70.13,230.6Z"/><path class="cls-24" d="M93.66,229.21s-4.49-.11-4.84-.69a21.92,21.92,0,0,1-.92-3.46l.8-3s3.93-.11,4,.7a5.23,5.23,0,0,0,1.62,2.88c.8.58,3.11-1,3.46,1.27a4.09,4.09,0,0,1-1.62,3.69Z"/></g><path class="cls-24" d="M80.49,229.21a7.88,7.88,0,0,1-.4,2.54c-.38.77-.38,1.46-1.08,1.62s-.69.38-.69.38l-.07-4.84"/><path class="cls-20" d="M87.28,232.87a.41.41,0,0,1-.41.41h0a.41.41,0,0,1-.41-.41v-1.22a.41.41,0,0,1,.41-.41h0a.41.41,0,0,1,.41.41Z"/><path class="cls-20" d="M90.54,232.87a.41.41,0,0,1-.41.41h0a.4.4,0,0,1-.4-.41v-1.22a.4.4,0,0,1,.4-.41h0a.41.41,0,0,1,.41.41Z"/><path class="cls-20" d="M94.21,232.87a.4.4,0,0,1-.4.41h0a.41.41,0,0,1-.41-.41v-1.22a.41.41,0,0,1,.41-.41h0a.4.4,0,0,1,.4.41Z"/><path class="cls-21" d="M102.33,214.13l.16.05.17.06c.3.09-.36-.19,0,0l.57.31c.18.1.21.17,0,0l.3.28c.27.25,0-.16.07.07s.11.29,0,0c0,.08.1.5.08.28s0,.25,0,.34c-.05.74-.16,1.48-.24,2.22-.35,3.1-.44,7.18,2.83,8.82,1.66.84,3.9.53,4.45-1.51s-2.71-3-3.27-.9c-.06.18,0,.13.07-.13s.22-.26.1-.14c.24-.17.28-.21.13-.12.27-.1.32-.13.15-.08.29,0,.35-.05.16,0s-.14,0,.14,0c-.11,0-.57-.21-.16,0-.16-.08-.3-.17-.45-.26.32.2-.13-.12-.21-.19s-.13-.15-.2-.23c.11.14.11.13,0,0s-.17-.29-.24-.43c.14.28-.08-.28-.1-.35a4.53,4.53,0,0,1-.13-.64c0,.31,0-.34,0-.41,0-.24,0-.48,0-.72a26.91,26.91,0,0,1,.2-2.84,15.89,15.89,0,0,0,.24-2.47,4.05,4.05,0,0,0-1.1-2.61,6.07,6.07,0,0,0-2.76-1.63,1.7,1.7,0,0,0-.9,3.28Z"/><rect class="cls-20" x="32.63" y="203.92" width="6.53" height="2.04" rx="0.68"/><rect class="cls-21" x="21.62" y="192.5" width="19.58" height="11.83" rx="2.27"/><path class="cls-22" d="M26.51,195.15a2.65,2.65,0,0,1-2.65,2.65h0a2.65,2.65,0,0,1-2.65-2.65v-4.9a2.65,2.65,0,0,1,2.65-2.65h0a2.65,2.65,0,0,1,2.65,2.65Z"/><path class="cls-21" d="M26.51,194.74a2.65,2.65,0,0,1-2.65,2.65h0a2.65,2.65,0,0,1-2.65-2.65v-4.9a2.65,2.65,0,0,1,2.65-2.65h0a2.65,2.65,0,0,1,2.65,2.65Z"/><path class="cls-20" d="M27.72,194.33c0,.73-.44,1.43-1,1.43H21.25c-.54,0-1-.7-1-1.43h0c0-.73.44-1.43,1-1.43h5.49c.54,0,1,.7,1,1.43Z"/><path class="cls-23" d="M23.41,195.72a.65.65,0,1,1-1.3,0,.65.65,0,1,1,1.3,0Z"/><path class="cls-23" d="M25.68,195.72a.65.65,0,1,1-1.3,0,.65.65,0,1,1,1.3,0Z"/><path class="cls-21" d="M29.77,188.83a.81.81,0,0,1-.81.81H26.1a.81.81,0,0,1-.81-.81h0a.81.81,0,0,1,.81-.82H29a.81.81,0,0,1,.81.82Z"/><path class="cls-24" d="M23.13,192.48c0,.52-.23.94-.51.94s-.51-.42-.51-.94.23-.93.51-.93S23.13,192,23.13,192.48Z"/><path class="cls-24" d="M25.62,192.48c0,.52-.23.94-.51.94s-.51-.42-.51-.94.23-.93.51-.93S25.62,192,25.62,192.48Z"/><g class="cls-27"><path class="cls-24" d="M23.41,186.61s0,.09,0,.23a3.07,3.07,0,0,0,.59,2c.79,1.08,1.08,1,1.05,1.42s0,.68.65.91.79.34,1.47,0S28,189,28,189s.29-1.5-.45-1.89a11.63,11.63,0,0,0-2.44-1.2"/></g><path class="cls-21" d="M23.25,189.23a.82.82,0,0,1-.82.82H19.58a.82.82,0,0,1-.82-.82h0a.82.82,0,0,1,.82-.81h2.85a.82.82,0,0,1,.82.81Z"/><rect class="cls-21" x="21.62" y="202.28" width="2.04" height="5.3" rx="0.68"/><rect class="cls-21" x="29.37" y="202.69" width="2.04" height="5.3" rx="0.68"/><rect class="cls-21" x="38.75" y="202.28" width="2.04" height="5.3" rx="0.68"/><g class="cls-28"><path class="cls-24" d="M27.35,192.14a2.25,2.25,0,0,0,1.35,1.72c1.13.34,1.47.12,2,.51a5.28,5.28,0,0,1,2.1,1.71,7.05,7.05,0,0,0,3.63,2.5c.73,0,1,.51,2-.34s.39-.79,1-1.59,1.41-1.32,2-1.2.85-.67.85-1.58a6.31,6.31,0,0,0-1.13-2.41c0-.06-3.23-1-3.4-1h-5.9Z"/><path class="cls-24" d="M25.17,205.27c-.23-.4-1-.85-1.36-1.64a5.83,5.83,0,0,1-.34-2c0-.17.85-2,.85-2a10.54,10.54,0,0,1,1.81.23,12.62,12.62,0,0,0,1.22,1.53c.82.85,1.11.74,1.73,1.19s1,.4,1,1.08.4,1.3,0,1.42-.85.45-1.47.68-.34.45-1.28.28A11.65,11.65,0,0,1,25.17,205.27Z"/><path class="cls-24" d="M36.74,204.59s-2.21-.06-2.38-.34a11.18,11.18,0,0,1-.46-1.7l.4-1.47s1.93-.06,2,.34a2.57,2.57,0,0,0,.8,1.41c.4.29,1.53-.51,1.7.63a2,2,0,0,1-.79,1.81Z"/></g><path class="cls-24" d="M30.26,204.59a4.18,4.18,0,0,1-.19,1.25c-.19.38-.19.72-.53.79s-.34.19-.34.19l0-2.38"/><rect class="cls-20" x="33.04" y="205.55" width="0.41" height="1.22" rx="0.18"/><rect class="cls-20" x="35.08" y="205.55" width="0.41" height="1.22" rx="0.18"/><rect class="cls-20" x="36.71" y="205.55" width="0.41" height="1.22" rx="0.18"/><path class="cls-21" d="M41,197.17l.08,0,.08,0c.15,0-.18-.09,0,0l.28.15c.09,0,.11.09,0,0l.15.13c.13.13,0-.08,0,0s.06.14,0,0c0,0,0,.25,0,.14s0,.12,0,.17c0,.36-.08.72-.12,1.09-.17,1.53-.21,3.53,1.4,4.34a1.45,1.45,0,0,0,2.18-.75.84.84,0,0,0-1.61-.44c0,.09,0,.07,0-.06s.11-.13.05-.07q.18-.12.06-.06c.14,0,.16-.06.08,0,.14,0,.17,0,.08,0s-.07,0,.06,0c-.05,0-.27-.11-.07,0l-.23-.13c.16.1-.06-.06-.1-.09l-.1-.11c.06.07.06.06,0,0l-.12-.21c.07.14,0-.14,0-.17a3,3,0,0,1-.07-.32c0,.16,0-.17,0-.2s0-.23,0-.35a13,13,0,0,1,.1-1.4,8.27,8.27,0,0,0,.12-1.21,2,2,0,0,0-.54-1.28,2.92,2.92,0,0,0-1.36-.81.83.83,0,0,0-.44,1.61Z"/><rect class="cls-21" x="27.73" y="54.23" width="5.3" height="19.58"/><path class="cls-21" d="M33.1,60.23s4.75-3.17,8.23.3a5.49,5.49,0,0,1,1.09,3V73.4h-5.9l.12-8.05s-1.1-3.2-3.42-.52-2.13.14-2.13.14Z"/><rect class="cls-21" x="34.67" y="54.64" width="7.75" height="4.49"/><rect class="cls-21" x="44.05" y="54.64" width="6.12" height="15.09"/><rect class="cls-21" x="53.02" y="54.64" width="5.71" height="19.17"/><rect class="cls-21" x="60.36" y="61.58" width="6.12" height="12.24"/><rect class="cls-21" x="60.36" y="61.58" width="8.16" height="4.49"/><rect class="cls-21" x="60.36" y="54.64" width="9.79" height="4.49"/><rect class="cls-21" x="76.68" y="61.58" width="6.12" height="12.64"/><rect class="cls-21" x="92.99" y="54.64" width="5.3" height="19.58"/><rect class="cls-21" x="100.33" y="55.05" width="6.12" height="15.09"/><rect class="cls-21" x="107.67" y="55.05" width="4.89" height="15.09"/><rect class="cls-21" x="113.79" y="55.05" width="5.71" height="15.5"/><path class="cls-21" d="M50.06,68.28s1.76,1.34,2.92,0a1.55,1.55,0,0,1,1.47,1.58l-.61,2-.86.36a5.22,5.22,0,0,1-3.72,2.08c-2.44-.25-5.06-1.41-5.06-4.4s2.38-3,2.38-3Z"/><path class="cls-21" d="M67.16,59.25s2.4,1.16,2.7,2.93c.06,1.89,0,4.33,0,4.33s-.06,2.58-3.35,2.89c-2,1.34-.24,4.41-.24,4.41h4.63s5-2.69,5-7.63c-.06-3.92-.25-7.37-2.2-9.33-1.65-1.64-1.4-1.88-3.78-2.36C68.11,55.58,67.16,59.25,67.16,59.25Z"/><path class="cls-21" d="M79.53,54.5v4.63h3.83a6.46,6.46,0,0,1,2.07,4.27c-.06,2.38.18,5.21-2.44,6-1.59,2.07,0,4.83,0,4.83a27.82,27.82,0,0,0,3.23,0,7.47,7.47,0,0,0,4.88-6.4c.37-4.45.06-8.29-.42-9s-1.25-3.35-4.17-4A28.37,28.37,0,0,0,79.53,54.5Z"/><path class="cls-21" d="M92.87,74.26s3.23,1.4,5.49,0"/><path class="cls-21" d="M98.39,54.72a1.87,1.87,0,0,1,1.08-1.27c1-.49,16.71-9.75,16.71-9.75s-.56-3.88-3-4.73c-2.07,1.16-17,9.68-17,9.68l-.44.91-1.17.06v1.22l-.81.61v.85L93,53v1.67"/><path class="cls-21" d="M100.16,70.36s3.67,8.17,9.35,2.43c.85.49,6.29,4.73,10.07-2-5.31-1.34-4.39-1.42-4.39-1.42H103.85Z"/><path class="cls-21" d="M31.54,51.69H31l-2.34-2.83-.12-.18v3h-.85V47.15h.55L30.57,50l.13.2v-3h.85Z"/><path class="cls-21" d="M36.17,49.44a3.06,3.06,0,0,1-.13.84,2.08,2.08,0,0,1-.38.74,1.94,1.94,0,0,1-.64.53,2.15,2.15,0,0,1-1.81,0,1.84,1.84,0,0,1-.64-.53,2.08,2.08,0,0,1-.38-.74,2.72,2.72,0,0,1-.13-.84,2.7,2.7,0,0,1,.13-.85,2.39,2.39,0,0,1,.37-.75,1.84,1.84,0,0,1,.64-.53,2.19,2.19,0,0,1,1.83,0,1.81,1.81,0,0,1,.63.53,2.21,2.21,0,0,1,.38.75A3,3,0,0,1,36.17,49.44Zm-.84,0a2.1,2.1,0,0,0-.08-.56,1.67,1.67,0,0,0-.22-.49,1.24,1.24,0,0,0-.38-.34,1.17,1.17,0,0,0-1.07,0,1.14,1.14,0,0,0-.38.34,1.69,1.69,0,0,0-.23.49,2.69,2.69,0,0,0-.07.57A2.6,2.6,0,0,0,33,50a1.48,1.48,0,0,0,.23.49,1.24,1.24,0,0,0,.38.34,1.13,1.13,0,0,0,.54.12,1.12,1.12,0,0,0,.53-.12,1.16,1.16,0,0,0,.38-.35,1.47,1.47,0,0,0,.22-.49A2.1,2.1,0,0,0,35.33,49.43Z"/><path class="cls-21" d="M40.55,51.69H40l-2.34-2.83-.12-.18v3h-.85V47.15h.55L39.58,50l.13.2v-3h.85Z"/><path class="cls-21" d="M45.18,49.44a3.06,3.06,0,0,1-.13.84,2.08,2.08,0,0,1-.38.74,1.94,1.94,0,0,1-.64.53,2.15,2.15,0,0,1-1.81,0,1.84,1.84,0,0,1-.64-.53,2.08,2.08,0,0,1-.38-.74,2.72,2.72,0,0,1-.13-.84,2.7,2.7,0,0,1,.13-.85,2.39,2.39,0,0,1,.37-.75,1.94,1.94,0,0,1,.64-.53,2,2,0,0,1,.92-.2,2,2,0,0,1,.67.1,1.92,1.92,0,0,1,.53.28,2.28,2.28,0,0,1,.4.42,2.4,2.4,0,0,1,.27.53l-.76.35a1.29,1.29,0,0,0-.4-.63,1,1,0,0,0-.71-.25,1.09,1.09,0,0,0-.92.47,1.69,1.69,0,0,0-.23.49,2.69,2.69,0,0,0-.07.57A2.6,2.6,0,0,0,42,50a1.48,1.48,0,0,0,.23.49,1.24,1.24,0,0,0,.38.34,1.13,1.13,0,0,0,.54.12,1.06,1.06,0,0,0,.45-.09,1.21,1.21,0,0,0,.35-.24,1.31,1.31,0,0,0,.23-.36,1.62,1.62,0,0,0,.14-.44H43.11V49h2l0,.21C45.17,49.3,45.18,49.37,45.18,49.44Z"/><path class="cls-21" d="M48.05,48.61a1.31,1.31,0,0,1-.11.55,1,1,0,0,1-.32.37,1.4,1.4,0,0,1-.44.22,2.35,2.35,0,0,1-.54.06h-.09v1.88H45.7V47.16h.94a2.35,2.35,0,0,1,.54.06,1.55,1.55,0,0,1,.45.21,1,1,0,0,1,.31.37,1.27,1.27,0,0,1,.11.54Zm-.84-.27a.3.3,0,0,0-.16-.29.83.83,0,0,0-.43-.09h-.07v1h.1a.69.69,0,0,0,.41-.1.35.35,0,0,0,.15-.32Z"/><path class="cls-21" d="M50.9,51.69v-2H49.33v2h-.85V47.15h.85v1.71H50.9V47.15h.84v4.54Z"/><path class="cls-21" d="M56.36,49.44a3,3,0,0,1-.12.84,2.25,2.25,0,0,1-.38.74,2,2,0,0,1-.65.53,1.93,1.93,0,0,1-.9.2,2,2,0,0,1-.9-.2,1.88,1.88,0,0,1-.65-.53,2.25,2.25,0,0,1-.38-.74,3,3,0,0,1-.12-.84,3,3,0,0,1,.12-.85,2.41,2.41,0,0,1,.38-.75,1.84,1.84,0,0,1,.64-.53,2,2,0,0,1,.91-.2,2,2,0,0,1,.91.2,1.84,1.84,0,0,1,.64.53,2.41,2.41,0,0,1,.38.75A3,3,0,0,1,56.36,49.44Zm-.84,0a2.1,2.1,0,0,0-.07-.56,1.67,1.67,0,0,0-.22-.49,1.24,1.24,0,0,0-.38-.34,1.13,1.13,0,0,0-.54-.13,1.2,1.2,0,0,0-.54.13,1.24,1.24,0,0,0-.38.34,1.67,1.67,0,0,0-.22.49,2.17,2.17,0,0,0-.07.57,2.1,2.1,0,0,0,.07.56,1.31,1.31,0,0,0,.23.49,1.24,1.24,0,0,0,.38.34,1.12,1.12,0,0,0,.53.12,1.13,1.13,0,0,0,.54-.12,1.16,1.16,0,0,0,.38-.35,1.47,1.47,0,0,0,.22-.49A2.1,2.1,0,0,0,55.52,49.43Z"/><path class="cls-21" d="M60,47.79a4.11,4.11,0,0,0-.78,2.28,3.32,3.32,0,0,0,0,.57,3.64,3.64,0,0,0,.12.53c.06.17.14.36.23.56s.2.43.34.69l-.67,0a4.59,4.59,0,0,1-.56-1.19,3.84,3.84,0,0,1-.19-1.19,3.58,3.58,0,0,1,.2-1.16,5.58,5.58,0,0,1,.55-1.13Z"/><path class="cls-21" d="M62.56,50.59a1.14,1.14,0,0,1-.09.46,1.31,1.31,0,0,1-.24.37,1.1,1.1,0,0,1-.37.23,1.19,1.19,0,0,1-.47.09,1.11,1.11,0,0,1-.72-.25,1.82,1.82,0,0,1-.51-.77l.63-.3a1.66,1.66,0,0,0,.17.33.86.86,0,0,0,.15.2.44.44,0,0,0,.15.1.39.39,0,0,0,.15,0,.37.37,0,0,0,.33-.14.58.58,0,0,0,.1-.35.37.37,0,0,0-.06-.21.54.54,0,0,0-.14-.16l-.2-.14L61.23,50a3.59,3.59,0,0,1-.35-.21,1.47,1.47,0,0,1-.26-.23.85.85,0,0,1-.16-.28,1,1,0,0,1-.06-.36,1.13,1.13,0,0,1,.26-.76,1,1,0,0,1,.77-.29A1.07,1.07,0,0,1,62,48a1.7,1.7,0,0,1,.5.55L62,49a2.13,2.13,0,0,0-.17-.25.62.62,0,0,0-.14-.14.25.25,0,0,0-.12-.07h-.12a.27.27,0,0,0-.25.11.5.5,0,0,0-.07.27.33.33,0,0,0,.06.19.87.87,0,0,0,.17.16l.22.13.23.13.27.17a1.1,1.1,0,0,1,.25.23,1.09,1.09,0,0,1,.18.3A1.32,1.32,0,0,1,62.56,50.59Z"/><path class="cls-21" d="M63,51.69V47.85h.73v3.84Z"/><path class="cls-21" d="M67.59,51.69h-.47l-2-2.39-.1-.15v2.54h-.72V47.85h.47l2,2.37.11.17V47.85h.72Z"/><path class="cls-21" d="M71.07,51.29a3.81,3.81,0,0,1-.34.22,2.73,2.73,0,0,1-.31.14,1.53,1.53,0,0,1-.29.07l-.29,0a1.64,1.64,0,0,1-.69-.14,1.85,1.85,0,0,1-.58-.37A1.77,1.77,0,0,1,68,50v-.4a1.57,1.57,0,0,1,.15-.68,1.67,1.67,0,0,1,.39-.56,2.08,2.08,0,0,1,.58-.38,1.82,1.82,0,0,1,.7-.13,1.87,1.87,0,0,1,.56.09,2.24,2.24,0,0,1,.66.37l-.38.56a1.66,1.66,0,0,0-.51-.28,1.12,1.12,0,0,0-.35-.06,1.15,1.15,0,0,0-.41.08,1.09,1.09,0,0,0-.35.24,1.21,1.21,0,0,0-.24.35,1.07,1.07,0,0,0-.09.43V50a.93.93,0,0,0,.09.4,1.16,1.16,0,0,0,.24.34,1.07,1.07,0,0,0,.35.25,1,1,0,0,0,.41.09H70l.18-.05.23-.11.28-.19Z"/><path class="cls-21" d="M71.45,51.69V47.86h2v.68H72.17v.75H73.4V50H72.17V51h1.26v.67Z"/><path class="cls-21" d="M76.71,51.7V48.55H76v-.68h1.39V51.7Z"/><path class="cls-21" d="M81.35,49.5a1.31,1.31,0,0,1-.06.41,1.55,1.55,0,0,1-.19.36l-1,1.43h-.86l.63-.94a1.09,1.09,0,0,1-.43-.14,1.2,1.2,0,0,1-.35-.28A1.54,1.54,0,0,1,78.9,50a1.33,1.33,0,0,1-.08-.45v-.4a1.19,1.19,0,0,1,.1-.49,1.13,1.13,0,0,1,.27-.41,1.28,1.28,0,0,1,.4-.29,1.21,1.21,0,0,1,.5-.1,1.19,1.19,0,0,1,.49.1,1.4,1.4,0,0,1,.68.68,1.44,1.44,0,0,1,.09.51Zm-.72-.4a.6.6,0,0,0-.17-.44.5.5,0,0,0-.37-.16.52.52,0,0,0-.21,0,.52.52,0,0,0-.17.13.91.91,0,0,0-.13.19.61.61,0,0,0,0,.24v.4a.59.59,0,0,0,0,.23,1.27,1.27,0,0,0,.13.19.66.66,0,0,0,.17.12.52.52,0,0,0,.21,0,.51.51,0,0,0,.2,0,.66.66,0,0,0,.17-.12.57.57,0,0,0,.12-.18.6.6,0,0,0,0-.24Z"/><path class="cls-21" d="M82.94,51.7h-.81l1.43-3.16H82v-.67h2.45v.56Z"/><path class="cls-21" d="M87.5,49.31a1.13,1.13,0,0,1-.06.36,2.06,2.06,0,0,1-.17.33,1.39,1.39,0,0,1-.21.27,2.23,2.23,0,0,1-.21.22l-.54.53h1.18v.67H85.15v-.5l1.15-1.14a3.17,3.17,0,0,0,.34-.39.68.68,0,0,0,.15-.36v-.4a.47.47,0,0,0-.46-.41.45.45,0,0,0-.32.14.84.84,0,0,0-.14.56h-.72a1.64,1.64,0,0,1,.11-.62,1.15,1.15,0,0,1,.26-.43,1,1,0,0,1,.37-.25,1.28,1.28,0,0,1,.89,0,1.37,1.37,0,0,1,.37.23,1.1,1.1,0,0,1,.26.35,1,1,0,0,1,.09.44Z"/><path class="cls-21" d="M89.47,50.06a3.84,3.84,0,0,1-.19,1.19,4.59,4.59,0,0,1-.56,1.19l-.67,0c.14-.26.25-.49.34-.69s.17-.39.23-.56a3.64,3.64,0,0,0,.12-.53,3.32,3.32,0,0,0,0-.57,3.44,3.44,0,0,0-.19-1.13A5.47,5.47,0,0,0,88,47.79l.72,0a6.16,6.16,0,0,1,.55,1.13A3.58,3.58,0,0,1,89.47,50.06Z"/><path class="cls-21" d="M113.06,52.9a1.93,1.93,0,0,1-.51-.09,1.19,1.19,0,0,1-.38-.22,1.08,1.08,0,0,1-.24-.32,1,1,0,0,1-.08-.39V50.67a1.36,1.36,0,0,1,.27-.84,1.55,1.55,0,0,1,.69-.52l.49.38.49-.38a1.55,1.55,0,0,1,.69.52,1.37,1.37,0,0,1,.27.83v2.19H114V50.67a.67.67,0,0,0-.22-.51l-.49.37-.49-.36a.57.57,0,0,0-.15.22.67.67,0,0,0-.06.28v1.21a.26.26,0,0,0,.09.19.58.58,0,0,0,.37.1Z"/><path class="cls-21" d="M117.69,51.79a1,1,0,0,1-.1.45,1.22,1.22,0,0,1-.27.36,1.49,1.49,0,0,1-.39.23,1.12,1.12,0,0,1-.45.08,1.1,1.1,0,0,1-.73-.27,1.48,1.48,0,0,1-.48-.75l.63-.3a1.35,1.35,0,0,0,.28.52.45.45,0,0,0,.66,0,.43.43,0,0,0,.15-.33.18.18,0,0,0-.06-.13.36.36,0,0,0-.13-.11l-.15-.08-.14-.07-.34-.18a1.16,1.16,0,0,1-.32-.2.88.88,0,0,1-.24-.27.79.79,0,0,1-.1-.4,1.11,1.11,0,0,1,.08-.41.87.87,0,0,1,.22-.32,1,1,0,0,1,.32-.22,1.1,1.1,0,0,1,.41-.07,1.06,1.06,0,0,1,.59.17,1.5,1.5,0,0,1,.5.55l-.54.41a1.09,1.09,0,0,0-.31-.38.52.52,0,0,0-.24-.08.29.29,0,0,0-.23.1.33.33,0,0,0-.1.24.16.16,0,0,0,.05.11l.11.09.14.08.12.06.59.3a1.17,1.17,0,0,1,.35.35A.9.9,0,0,1,117.69,51.79Z"/><path class="cls-21" d="M120.17,52.85h-.75v-2.3c0-.35-.16-.52-.5-.52a.74.74,0,0,0-.25,0,1.35,1.35,0,0,0-.34.25l-.5-.49a2.18,2.18,0,0,1,.29-.26,1.92,1.92,0,0,1,.27-.15.92.92,0,0,1,.26-.07,1.23,1.23,0,0,1,.27,0,1.51,1.51,0,0,1,.55.09,1.11,1.11,0,0,1,.39.26,1,1,0,0,1,.23.36,1.38,1.38,0,0,1,.08.45Z"/></g><path class="cls-29" d="M38.73,80.67l17.9,23.52,2.58,3.38a3.09,3.09,0,0,0,4.1,1.08c1.27-.74,2.07-2.81,1.08-4.11L46.48,81l-2.57-3.37a3.1,3.1,0,0,0-4.11-1.08c-1.27.74-2.06,2.81-1.07,4.1Z"/><path class="cls-29" d="M55.84,80.73l7.5,22.2,1.06,3.16a3.07,3.07,0,0,0,3.69,2.09,3,3,0,0,0,2.1-3.69l-7.5-22.2-1.07-3.16A3.07,3.07,0,0,0,57.93,77a3,3,0,0,0-2.09,3.69Z"/><path class="cls-29" d="M68.78,79.93v25.29c0,3.86,6,3.86,6,0V79.93c0-3.86-6-3.87-6,0Z"/><path class="cls-29" d="M99,78.42,85.75,100.56l-1.88,3.14c-2,3.33,3.21,6.35,5.18,3l13.22-22.14,1.87-3.15c2-3.32-3.2-6.34-5.18-3Z"/><path class="cls-29" d="M83.57,79.13l-6.42,22.12-.92,3.17c-1.08,3.71,4.71,5.3,5.79,1.59L88.44,83.9l.92-3.17c1.08-3.72-4.71-5.31-5.79-1.6Z"/><rect class="cls-16" x="29.37" y="154.16" width="20.8" height="11.01" rx="0.82" transform="translate(-124.55 168.36) rotate(-79.04)"/><rect class="cls-16" x="50.17" y="146.82" width="11.01" height="20.8" rx="0.82" transform="translate(-34.78 17.09) rotate(-13.34)"/><circle class="cls-16" cx="45.16" cy="135.09" r="22.08"/><circle class="cls-12" cx="45.07" cy="135" r="18.32" transform="translate(-96.61 148.48) rotate(-76.97)"/><path class="cls-21" d="M78.09,129.56v.3c0,.1,0,.2,0,.3a3.39,3.39,0,0,1-.3,1.28,3,3,0,0,1-.71,1,3.12,3.12,0,0,1-1,.61,3.9,3.9,0,0,1-2.43,0,4,4,0,0,1-1-.48,3.13,3.13,0,0,1-.77-.77,2.75,2.75,0,0,1-.42-1,3.31,3.31,0,0,1-.06-.61V123.1H73.2v6.31a7.69,7.69,0,0,0,0,.94,1.13,1.13,0,0,0,.23.58,1.22,1.22,0,0,0,.54.39,1.7,1.7,0,0,0,.69.14,1.75,1.75,0,0,0,.8-.15,1,1,0,0,0,.45-.42,1.83,1.83,0,0,0,.19-.65,5.45,5.45,0,0,0,0-.83V123.1h1.89Z"/><path class="cls-21" d="M84.94,133.09v-4.46H81.49v4.46H79.62v-10h1.87v3.76h3.45v-3.76h1.87v10Z"/><path class="cls-21" d="M91.6,124.84v8.25H89.74v-8.23H87.68V123.1h6v1.76Z"/><path class="cls-21" d="M107.48,133.09l-.91-5.48-.07-.43-.1.43-1.85,5.48H103.4l-1.92-5.48-.1-.39,0,.39-.94,5.48H98.51l1.87-10h1.27l2.3,6.16,2.32-6.16h1.27l1.85,10Z"/><path class="cls-21" d="M110.24,133.09v-10h1.88v10Z"/><path class="cls-21" d="M113.71,133.09v-10h1.89v8.27h2.3v1.74Z"/><path class="cls-21" d="M123.81,133.09l-3-3.44v3.44h-1.87v-10h1.87v3.12l2.77-3.12h2.49l-4.41,4.85,4.6,5.16Z"/><path class="cls-21" d="M73.75,143.06v-.48a3.05,3.05,0,0,1-.49.38,1.17,1.17,0,0,1-.55.15,1.67,1.67,0,0,1-.63-.11,1.59,1.59,0,0,1-.55-.32,1.66,1.66,0,0,1-.38-.52,1.76,1.76,0,0,1-.14-.71v-3.39h1.06v3.39a.56.56,0,0,0,.2.48.77.77,0,0,0,.5.16.76.76,0,0,0,.35-.09,1.48,1.48,0,0,0,.31-.25,1,1,0,0,0,.23-.34.85.85,0,0,0,.09-.38v-3h1.06v5Z"/><path class="cls-21" d="M72.31,135.31l.2-.35a2.76,2.76,0,0,0,.17-.35.34.34,0,0,0,0-.18c0-.08-.06-.11-.14-.11s-.12,0-.14.06l-.51-.5a1,1,0,0,1,.7-.29,1,1,0,0,1,.62.23.75.75,0,0,1,.27.61.35.35,0,0,1,0,.12h1.76v.77Z"/><path class="cls-21" d="M75.33,136.47a1,1,0,0,1-.29.7,1,1,0,0,1-1.39-1.39,1,1,0,0,1,1.68.69Zm-.69,0a.28.28,0,0,0-.09-.22.25.25,0,0,0-.2-.09.29.29,0,0,0-.22.09.28.28,0,0,0-.09.22.29.29,0,0,0,.09.21.33.33,0,0,0,.22.08.28.28,0,0,0,.2-.08A.29.29,0,0,0,74.64,136.49Zm3.88,6.56H77.45v-3.3q0-.75-.72-.75a.92.92,0,0,0-.36.07,2.2,2.2,0,0,0-.48.37l-.72-.72a3.12,3.12,0,0,1,.42-.36,1.54,1.54,0,0,1,.39-.22,1.58,1.58,0,0,1,.37-.11,2.36,2.36,0,0,1,.38,0,2.08,2.08,0,0,1,.79.13,1.61,1.61,0,0,1,.56.37,1.44,1.44,0,0,1,.33.53,1.9,1.9,0,0,1,.11.63Z"/><path class="cls-21" d="M82.15,143.06v-.48a2.67,2.67,0,0,1-.49.38,1.17,1.17,0,0,1-.55.15,1.67,1.67,0,0,1-.63-.11,1.59,1.59,0,0,1-.55-.32,1.84,1.84,0,0,1-.38-.52,1.76,1.76,0,0,1-.14-.71v-3.39h1.06v3.39a.58.58,0,0,0,.2.48.77.77,0,0,0,.5.16.73.73,0,0,0,.35-.09,1.48,1.48,0,0,0,.31-.25.89.89,0,0,0,.23-.34.85.85,0,0,0,.09-.38v-3h1.06v5Z"/><path class="cls-21" d="M87.92,141.45a1.76,1.76,0,0,1-.14.71,1.66,1.66,0,0,1-.38.52,1.59,1.59,0,0,1-.55.32,1.66,1.66,0,0,1-.62.11,1.11,1.11,0,0,1-.55-.15,2.74,2.74,0,0,1-.5-.38v.48H84.12v-5h1.06v3a.85.85,0,0,0,.09.38,1.17,1.17,0,0,0,.22.34,1.54,1.54,0,0,0,.32.25.76.76,0,0,0,.35.09.75.75,0,0,0,.5-.16.56.56,0,0,0,.21-.48v-3.39h1Z"/><path class="cls-21" d="M89.23,136.87a1.72,1.72,0,0,1,.49.4.92.92,0,0,1,.21.63v5.15H88.85v-5.17a.23.23,0,0,0-.13-.2l-.27-.19a1.79,1.79,0,0,1-.28-.27.75.75,0,0,1-.13-.45.81.81,0,0,1,.12-.46.85.85,0,0,1,.3-.27,1.23,1.23,0,0,1,.37-.12l.34,0H90.7v1Z"/><path class="cls-21" d="M94.69,143.05h-1v-3.23a.76.76,0,0,0-.25-.55.89.89,0,0,0-.61-.23.87.87,0,0,0-.61.23.73.73,0,0,0-.25.55v.23h.86v1h-.86v2H90.85v-3.23a1.53,1.53,0,0,1,.16-.7,1.81,1.81,0,0,1,.41-.57,1.66,1.66,0,0,1,.61-.38,2,2,0,0,1,2.1.38,1.81,1.81,0,0,1,.41.57,1.66,1.66,0,0,1,.15.7Z"/><path class="cls-21" d="M102,141.29a1.87,1.87,0,0,1-.14.71,2.19,2.19,0,0,1-.4.59,1.69,1.69,0,0,1-.59.39,1.79,1.79,0,0,1-.72.15,1.67,1.67,0,0,1-.67-.14,1.74,1.74,0,0,1-.56-.36,1.66,1.66,0,0,1-.41-.56,2.14,2.14,0,0,1-.21-.73V141l.49-.51a1.81,1.81,0,0,1-.32-.41,1.08,1.08,0,0,1-.12-.54v-.33a1.06,1.06,0,0,1,.1-.46.91.91,0,0,1,.27-.37,1.14,1.14,0,0,1,.39-.25,1.18,1.18,0,0,1,.46-.09,1.08,1.08,0,0,1,.52.13,3.27,3.27,0,0,1,.63.48l-.73.73-.3-.27a.41.41,0,0,0-.12,0,.18.18,0,0,0-.2.15v.31a.26.26,0,0,0,.09.17l.79.8-.86.87v.26a.78.78,0,0,0,.3.35.74.74,0,0,0,.46.14.78.78,0,0,0,.59-.24.74.74,0,0,0,.24-.56v-3.23h1Z"/><path class="cls-21" d="M102,144.51a1.08,1.08,0,0,1-.09.44,1.31,1.31,0,0,1-.27.35,1.36,1.36,0,0,1-.38.24,1.13,1.13,0,0,1-.45.09,1.41,1.41,0,0,1-.44-.08,1.28,1.28,0,0,1-.4-.21,1.17,1.17,0,0,1-.29-.34,1,1,0,0,1-.11-.45h-.45v-1h1.43v1a.2.2,0,0,0,.06.14.21.21,0,0,0,.17.06.24.24,0,0,0,.18-.06.19.19,0,0,0,0-.13v-1h1v1Z"/><path class="cls-21" d="M102.94,143.05v-5H104v5Z"/><path class="cls-21" d="M105,139.71a1.43,1.43,0,0,1,.07-.28c0-.09.07-.18.11-.27a2,2,0,0,1,.74-.86,1.94,1.94,0,0,1,1.14-.34,2.06,2.06,0,0,1,.81.17,2.31,2.31,0,0,1,.66.44,2.12,2.12,0,0,1,.44.66,2,2,0,0,1,.17.8v1.06a2,2,0,0,1-.17.81,2,2,0,0,1-1.1,1.1,2.06,2.06,0,0,1-.81.17,2,2,0,0,1-.81-.16,2.12,2.12,0,0,1-.66-.44,2.15,2.15,0,0,1-.45-.66,2,2,0,0,1-.16-.81v-1h2.09v1h-1v.22a1,1,0,0,0,1,.87,1,1,0,0,0,1-1V140a1,1,0,0,0-.29-.72,1,1,0,0,0-.72-.29,1,1,0,0,0-.68.26,1,1,0,0,0-.28.43Z"/><path class="cls-21" d="M113.27,139.14a1.14,1.14,0,0,1,.2.65v1.79a1.47,1.47,0,0,1-.13.6,1.6,1.6,0,0,1-.36.49,1.69,1.69,0,0,1-.53.33,1.59,1.59,0,0,1-.62.11,1.76,1.76,0,0,1-.64-.11,1.65,1.65,0,0,1-.52-.33,1.68,1.68,0,0,1-.36-.48,1.31,1.31,0,0,1-.13-.59V141a1.43,1.43,0,0,1,.07-.5,1.09,1.09,0,0,1,.22-.36l.33-.27.41-.25a.67.67,0,0,0,.17-.13.34.34,0,0,0,0-.16c0-.22-.12-.33-.37-.33a.35.35,0,0,0-.2.09,1.83,1.83,0,0,0-.33.49l-.89-.58a2.19,2.19,0,0,1,.66-.76,1.43,1.43,0,0,1,1.49,0,1.41,1.41,0,0,1,.51.49l1-1,.77.71Zm-1.74,1.44a.65.65,0,0,0-.21.18.34.34,0,0,0-.08.23v.61a.51.51,0,0,0,.16.35.61.61,0,0,0,.43.15.58.58,0,0,0,.41-.15.47.47,0,0,0,.16-.35v-1.81a.92.92,0,0,1-.35.45C111.9,140.35,111.72,140.46,111.53,140.58Z"/><path class="cls-21" d="M118.16,143.05H117.1v-3.39a.57.57,0,0,0-.2-.48.77.77,0,0,0-.5-.16.8.8,0,0,0-.36.09,1.43,1.43,0,0,0-.31.24,1.15,1.15,0,0,0-.22.35.85.85,0,0,0-.09.38v3h-1.06v-5h1.06v.48a2.37,2.37,0,0,1,.49-.38,1.16,1.16,0,0,1,.55-.16,1.9,1.9,0,0,1,.63.11,1.79,1.79,0,0,1,.55.33,1.84,1.84,0,0,1,.38.52,1.76,1.76,0,0,1,.14.71Z"/><path class="cls-21" d="M114.35,137.43v-.93h2.88v-.65h.93v1.58Z"/></g></g></svg>