<svg xmlns="http://www.w3.org/2000/svg" viewBox="0 0 969.5 604"><defs><style>.cls-1{fill:#84eaef;opacity:0.3;}.cls-2{fill:#fff;opacity:0.5;}.cls-3{fill:#bf6947;}.cls-4{fill:#95bec8;}.cls-5{fill:#649aa0;}.cls-6{fill:none;stroke:#24a399;stroke-miterlimit:10;}.cls-7{fill:#3c6b6d;}</style></defs><title>Asset 7</title><g id="Layer_2" data-name="Layer 2"><g id="หน้าต่าง"><rect class="cls-1" x="40.5" y="58.5" width="892" height="488"/><polygon class="cls-2" points="77.9 549.53 2.98 535.73 232.13 8.43 297.55 20.48 77.9 549.53"/><polygon class="cls-2" points="177.9 584.53 102.98 570.73 332.13 43.43 397.55 55.48 177.9 584.53"/><polygon class="cls-2" points="475.9 572.53 400.98 558.73 630.13 31.43 695.55 43.48 475.9 572.53"/><polygon class="cls-2" points="734.9 602.53 659.98 588.73 889.13 61.43 954.55 73.48 734.9 602.53"/><path class="cls-3" d="M.25,604.25V.25h969.5l-1,604ZM72,72.25v461H897v-461Z" transform="translate(-0.25 -0.25)"/><path class="cls-4" d="M15.25,379.25v-161a12,12,0,0,1,12-12h17a12,12,0,0,1,12,12v161a12,12,0,0,1-12,12h-17A12,12,0,0,1,15.25,379.25Zm9-145V363.66a12,12,0,0,0,24,0V234.25a12,12,0,0,0-24,0Z" transform="translate(-0.25 -0.25)"/><path class="cls-5" d="M24.25,363.66V234.25a12,12,0,0,1,24,0V363.66a12,12,0,0,1-24,0Z" transform="translate(-0.25 -0.25)"/><rect class="cls-6" x="15" y="206" width="41" height="185" rx="12"/><path class="cls-6" d="M36.25,222.25a12,12,0,0,1,12,12V363.66a12,12,0,0,1-24,0V234.25A12,12,0,0,1,36.25,222.25Z" transform="translate(-0.25 -0.25)"/><path class="cls-7" d="M35.75,375.66a12,12,0,0,0,12-12v-14a12,12,0,0,1-24,0v14A12,12,0,0,0,35.75,375.66Z" transform="translate(-0.25 -0.25)"/><path class="cls-7" d="M35.75,222.66a12,12,0,0,0-12,12v14a12,12,0,1,1,24,0v-14A12,12,0,0,0,35.75,222.66Z" transform="translate(-0.25 -0.25)"/></g></g></svg>