<svg xmlns="http://www.w3.org/2000/svg" viewBox="0 0 962 603.5"><defs><style>.cls-1{fill:#84eaef;opacity:0.3;}.cls-2{fill:#fff;opacity:0.5;}.cls-3{fill:#bf6947;}.cls-4{fill:#95bec8;}.cls-5{fill:#649aa0;}.cls-6{fill:none;stroke:#24a399;stroke-miterlimit:10;}.cls-7{fill:#3c6b6d;}</style></defs><title>Asset 18</title><g id="Layer_2" data-name="Layer 2"><g id="หน้าต่าง"><rect class="cls-1" x="39" y="58.5" width="892" height="488"/><polygon class="cls-2" points="76.4 549.53 1.48 535.73 230.63 8.43 296.05 20.48 76.4 549.53"/><polygon class="cls-2" points="176.4 584.53 101.48 570.73 330.63 43.43 396.05 55.48 176.4 584.53"/><polygon class="cls-2" points="474.4 572.53 399.48 558.73 628.63 31.43 694.05 43.48 474.4 572.53"/><polygon class="cls-2" points="733.4 602.53 658.48 588.73 887.63 61.43 953.05 73.48 733.4 602.53"/><path class="cls-3" d="M962.25,603.75H.25L1.25.25h961ZM73,532.25H892v-461H73Z" transform="translate(-0.25 -0.25)"/><path class="cls-4" d="M13.75,379.25v-161a12,12,0,0,1,12-12h17a12,12,0,0,1,12,12v161a12,12,0,0,1-12,12h-17A12,12,0,0,1,13.75,379.25Zm9-145V363.66a12,12,0,0,0,24,0V234.25a12,12,0,0,0-24,0Z" transform="translate(-0.25 -0.25)"/><path class="cls-5" d="M22.75,363.66V234.25a12,12,0,0,1,24,0V363.66a12,12,0,0,1-24,0Z" transform="translate(-0.25 -0.25)"/><rect class="cls-6" x="13.5" y="206" width="41" height="185" rx="12"/><path class="cls-6" d="M34.75,222.25a12,12,0,0,1,12,12V363.66a12,12,0,0,1-24,0V234.25A12,12,0,0,1,34.75,222.25Z" transform="translate(-0.25 -0.25)"/><path class="cls-7" d="M34.25,375.66a12,12,0,0,0,12-12v-14a12,12,0,0,1-24,0v14A12,12,0,0,0,34.25,375.66Z" transform="translate(-0.25 -0.25)"/><path class="cls-7" d="M34.25,222.66a12,12,0,0,0-12,12v14a12,12,0,1,1,24,0v-14A12,12,0,0,0,34.25,222.66Z" transform="translate(-0.25 -0.25)"/></g></g></svg>