<svg xmlns="http://www.w3.org/2000/svg" viewBox="0 0 778.4 490.85"><defs><style>.cls-1{fill:#fff;}.cls-2{fill:#d78b8b;}</style></defs><title>Asset 1</title><g id="Layer_2" data-name="Layer 2"><g id="ติมหนองโพ"><path class="cls-1" d="M773.9,21.4V437.78a16.77,16.77,0,0,1-16.54,16.9H100.73v0L8.4,483.51l37.21-79.57H46V21.4A16.77,16.77,0,0,1,62.54,4.5H757.36A16.77,16.77,0,0,1,773.9,21.4Z"/><path class="cls-2" d="M757.36,459.18H100.73v-9H757.36a12.24,12.24,0,0,0,12-12.4V21.4a12.24,12.24,0,0,0-12-12.4H62.54a12.23,12.23,0,0,0-12,12.4V403.94h-9V21.4A21.24,21.24,0,0,1,62.54,0H757.36a21.25,21.25,0,0,1,21,21.4V437.78A21.25,21.25,0,0,1,757.36,459.18Z"/><polygon class="cls-2" points="0 490.85 41.53 402.04 49.68 405.85 16.8 476.17 99.39 450.35 102.07 458.94 0 490.85"/></g></g></svg>