<svg xmlns="http://www.w3.org/2000/svg" xmlns:xlink="http://www.w3.org/1999/xlink" viewBox="0 0 173.78 233.49"><defs><style>.cls-1,.cls-11,.cls-2{fill:#fff;}.cls-1,.cls-10,.cls-7{stroke:#95bec8;}.cls-1,.cls-10,.cls-6,.cls-7{stroke-miterlimit:10;stroke-width:0.65px;}.cls-3{clip-path:url(#clip-path);}.cls-4{fill:#95bec8;}.cls-10,.cls-5{fill:#c5e9ef;}.cls-6,.cls-7{fill:none;}.cls-6{stroke:#c5e9ef;}.cls-8{fill:#e97625;}.cls-9{clip-path:url(#clip-path-2);}.cls-11{opacity:0.33;}</style><clipPath id="clip-path"><path class="cls-1" d="M164.88,17.55H12.17l7.35,182.11h0c.64,9.33,31.26,16.85,69,16.85s68.34-7.52,69-16.85h0Z"/></clipPath><clipPath id="clip-path-2"><path class="cls-1" d="M171.41,17.55H5.64l6.53,35.93h0a4.91,4.91,0,0,0,0,.55c0,9.46,34.19,17.14,76.36,17.14S164.88,63.49,164.88,54a4.91,4.91,0,0,0,0-.55h0Z"/></clipPath></defs><title>Asset 10</title><g id="Layer_2" data-name="Layer 2"><g id="โยเกิต"><path class="cls-2" d="M164.88,17.55H12.17l7.35,182.11h0c.64,9.33,31.26,16.85,69,16.85s68.34-7.52,69-16.85h0Z"/><g class="cls-3"><path class="cls-4" d="M14.21,150.25s12.25,13.89,35.12,17.15,40.83-14.7,75.13-21.23,44.91,13.88,44.91,13.88l-1.63,72.68H15Z"/><ellipse class="cls-5" cx="88.93" cy="58.5" rx="76.35" ry="17.14"/><circle class="cls-6" cx="15.03" cy="93.9" r="14.7"/><path class="cls-5" d="M15,93.9,2.6,91.51A12.66,12.66,0,0,1,27.46,96.3Z"/><circle class="cls-2" cx="15.03" cy="93.9" r="3.27"/><path class="cls-2" d="M125.19,232.93a111.24,111.24,0,0,1-19.15.28A94,94,0,0,1,87,229.71a64.19,64.19,0,0,1-9.23-3.44,53.52,53.52,0,0,1-8.74-5,31.56,31.56,0,0,1-7.43-7.51,23.12,23.12,0,0,1-2.54-5,19,19,0,0,1-1-5.76,19.3,19.3,0,0,1,1-5.77,22.83,22.83,0,0,1,2.54-5A31.2,31.2,0,0,1,69,184.62a53.94,53.94,0,0,1,8.74-5A63.87,63.87,0,0,1,87,176.15a93.91,93.91,0,0,1,19.05-3.5,110.24,110.24,0,0,1,19.15.27v.39A117.9,117.9,0,0,0,88,179.07a60.18,60.18,0,0,0-16.74,8.49,28.93,28.93,0,0,0-6.48,6.68,19.31,19.31,0,0,0-2.05,4.15,14.27,14.27,0,0,0,0,9.07,19.78,19.78,0,0,0,2.05,4.15,28.93,28.93,0,0,0,6.48,6.68A60.18,60.18,0,0,0,88,226.78a117.9,117.9,0,0,0,37.21,5.76Z"/><path class="cls-2" d="M105.93,182.18a63.16,63.16,0,0,1,26.61,1.46,41.6,41.6,0,0,1,6.52,2.33,37.32,37.32,0,0,1,6.22,3.5,22.56,22.56,0,0,1,5.39,5.42,16.86,16.86,0,0,1,1.88,3.72,14.2,14.2,0,0,1,.75,4.32,14.5,14.5,0,0,1-.75,4.31,16.86,16.86,0,0,1-1.88,3.72,22.16,22.16,0,0,1-5.39,5.41,38.2,38.2,0,0,1-6.23,3.51,41.44,41.44,0,0,1-6.51,2.32,63.33,63.33,0,0,1-26.61,1.47v-.4a80.9,80.9,0,0,0,25.62-4,41.33,41.33,0,0,0,11.5-5.85,19.89,19.89,0,0,0,4.44-4.58,13.84,13.84,0,0,0,1.39-2.84,9.77,9.77,0,0,0,0-6.17,13.39,13.39,0,0,0-1.4-2.84,19.84,19.84,0,0,0-4.43-4.58,41.33,41.33,0,0,0-11.5-5.85,80.9,80.9,0,0,0-25.62-4Z"/><path class="cls-2" d="M113.28,217.37a40.28,40.28,0,0,1-18.74-.25,27.77,27.77,0,0,1-4.66-1.57,27.15,27.15,0,0,1-4.52-2.48,16.23,16.23,0,0,1-4-4,13.2,13.2,0,0,1-1.44-2.83,9.64,9.64,0,0,1,0-6.67,12.55,12.55,0,0,1,1.44-2.83,16.37,16.37,0,0,1,4-4,27.09,27.09,0,0,1,4.52-2.47,28.7,28.7,0,0,1,4.66-1.57,40.28,40.28,0,0,1,18.74-.26v.39a64.36,64.36,0,0,0-9,.73,50.11,50.11,0,0,0-8.74,2.09,28.47,28.47,0,0,0-7.94,4,13.49,13.49,0,0,0-3.06,3.16,9.35,9.35,0,0,0-1,1.93,6.69,6.69,0,0,0,0,4.21,9.35,9.35,0,0,0,1,1.93,13.69,13.69,0,0,0,3.06,3.16,28.47,28.47,0,0,0,7.94,4,50.11,50.11,0,0,0,8.74,2.09,64.36,64.36,0,0,0,9,.73Z"/><path class="cls-2" d="M108.21,195.13a18.08,18.08,0,0,1,10.42-1,14.67,14.67,0,0,1,5.42,2.16,10.44,10.44,0,0,1,2.55,2.45,7.17,7.17,0,0,1,0,8.4,10.74,10.74,0,0,1-1.24,1.4l-.65.58c-.22.17-.44.32-.67.47a14.37,14.37,0,0,1-5.42,2.16,18.13,18.13,0,0,1-10.41-1v-.39a32,32,0,0,0,9.4-1.57,14.63,14.63,0,0,0,4.18-2.14,6.87,6.87,0,0,0,1.59-1.64,3.53,3.53,0,0,0,0-4.11,7.07,7.07,0,0,0-1.59-1.64,14.63,14.63,0,0,0-4.18-2.14,32,32,0,0,0-9.4-1.57Z"/><path class="cls-2" d="M31.2,192a44,44,0,0,1-17.31-1.34,26.75,26.75,0,0,1-8.18-3.83,14.21,14.21,0,0,1-3.4-3.43,10.1,10.1,0,0,1-1.17-2.32,8.73,8.73,0,0,1-.46-2.65,9.05,9.05,0,0,1,.46-2.66,10.3,10.3,0,0,1,1.17-2.32A14.21,14.21,0,0,1,5.71,170a27,27,0,0,1,8.18-3.83,44.19,44.19,0,0,1,17.31-1.34v.2a53.3,53.3,0,0,0-16.82,2.6,27.64,27.64,0,0,0-7.56,3.84,13.08,13.08,0,0,0-2.92,3A8.33,8.33,0,0,0,3,176.38a6.83,6.83,0,0,0-.34,2.05,7.09,7.09,0,0,0,.34,2,8.33,8.33,0,0,0,.92,1.87,13.08,13.08,0,0,0,2.92,3,27.37,27.37,0,0,0,7.56,3.84,53.3,53.3,0,0,0,16.82,2.6Z"/><path class="cls-2" d="M22.49,169a33.53,33.53,0,0,1,6-.39,28,28,0,0,1,6.05.94,18.16,18.16,0,0,1,5.81,2.64c.23.16.46.32.68.5l.63.6a9.8,9.8,0,0,1,1.17,1.37,6.26,6.26,0,0,1,0,7.45,9.8,9.8,0,0,1-1.17,1.37l-.63.6c-.22.18-.45.33-.68.5a18.38,18.38,0,0,1-5.81,2.64,28,28,0,0,1-6.05.94,33.53,33.53,0,0,1-6-.39v-.19a47.86,47.86,0,0,0,5.87-.44,34.57,34.57,0,0,0,5.7-1.38,18.32,18.32,0,0,0,5.19-2.65,8.93,8.93,0,0,0,2-2.06,4.56,4.56,0,0,0,0-5.33,8.93,8.93,0,0,0-2-2.06,18.32,18.32,0,0,0-5.19-2.65,33.57,33.57,0,0,0-5.7-1.37,44.22,44.22,0,0,0-5.87-.44Z"/><path class="cls-2" d="M25.82,185a17.75,17.75,0,0,1-8.51,0,12.47,12.47,0,0,1-4.21-1.83,7.58,7.58,0,0,1-1.85-1.82,4.84,4.84,0,0,1,0-5.76,7.49,7.49,0,0,1,1.86-1.83,12.62,12.62,0,0,1,4.2-1.83,17.75,17.75,0,0,1,8.51,0v.19a25.92,25.92,0,0,0-8,1.27,12.92,12.92,0,0,0-3.58,1.84,6.41,6.41,0,0,0-1.38,1.42,3.69,3.69,0,0,0-.58,1.82,3.76,3.76,0,0,0,.58,1.82,6.36,6.36,0,0,0,1.38,1.41,12.92,12.92,0,0,0,3.58,1.84,25.34,25.34,0,0,0,8,1.27Z"/><path class="cls-2" d="M23.52,174.89a7.87,7.87,0,0,1,4.75-.57,6.76,6.76,0,0,1,2.51,1A4.56,4.56,0,0,1,32,176.44a3.32,3.32,0,0,1,0,4,4.41,4.41,0,0,1-1.18,1.15,6.76,6.76,0,0,1-2.51,1,7.93,7.93,0,0,1-4.75-.57v-.2a13.62,13.62,0,0,0,4.26-.69,6.87,6.87,0,0,0,1.88-1,1.89,1.89,0,0,0,0-3.33,6.58,6.58,0,0,0-1.88-1,13.35,13.35,0,0,0-4.26-.7Z"/></g><path class="cls-7" d="M164.88,17.55H12.17l7.35,182.11h0c.64,9.33,31.26,16.85,69,16.85s68.34-7.52,69-16.85h0Z"/><path class="cls-8" d="M40.52,108.3a6.42,6.42,0,0,1-.11-3.84l2.64-12.87a5.33,5.33,0,0,0-2.78-6.53l.65-3.19,11.4,2.34-.67,3.31L45.5,86.26a5.29,5.29,0,0,1,1.73,2.67,8.84,8.84,0,0,1-.11,3.9l-2.54,12.33a2.1,2.1,0,0,0,.05,1.44,1.93,1.93,0,0,0,1.29.63l1.77.36-.68,3.3-3.57-.73A3.69,3.69,0,0,1,40.52,108.3Z"/><path class="cls-8" d="M53.8,110.66a5.45,5.45,0,0,1-2.17-5.23,5.14,5.14,0,0,1,3.36-4.5,4,4,0,0,1-1.9-1.8,4.94,4.94,0,0,1-.51-2.86,5.71,5.71,0,0,1,2.2-4.35,7,7,0,0,1,4.94-1.15,10.54,10.54,0,0,1,3.39.82l-.29,3.24a10.32,10.32,0,0,0-2.62-.55q-3.29-.3-3.52,2.36t3.42,3.1l2.22.2-.09,3.18-2.5-.22q-3.7-.34-4,2.9a2.61,2.61,0,0,0,1.11,2.52,8.07,8.07,0,0,0,4,1.17,6.47,6.47,0,0,0,4.24-.74,4.14,4.14,0,0,0,1.67-3.25L68,91.92l4.22.37L71,105.37q-.39,4.26-3,6.11c-1.71,1.24-4.16,1.71-7.33,1.43A13.51,13.51,0,0,1,53.8,110.66Z"/><path class="cls-8" d="M76.73,109.4,77,92.31l4.23.06-.24,16a1.87,1.87,0,0,0,.39,1.34,1.75,1.75,0,0,0,1.31.45l1.8,0,0,3.37-3.65,0Q76.67,113.46,76.73,109.4Z"/><path class="cls-8" d="M89.73,106q-.21-3.92,2.83-5l-4.29-.83L88,95.79A14.34,14.34,0,0,1,92.26,93,15.7,15.7,0,0,1,98,91.64q4.81-.26,7.35,1.6c1.69,1.25,2.61,3.34,2.77,6.29l.71,13.11-4.26.23-.72-13.23c-.1-1.8-.59-3-1.46-3.7S100,95,98,95.09a11.65,11.65,0,0,0-3.59.75,7.12,7.12,0,0,0-2.61,1.59l0,.71,4.52.89.16,2.82a3.64,3.64,0,0,0-2.09,1.37,4.35,4.35,0,0,0-.48,2.61l.41,7.6-4.23.23Z"/><path class="cls-8" d="M90.72,86.92l16.06-1.73.32,3L90.85,89.9Z"/><path class="cls-8" d="M117.08,109.5q-2.79-2.18-3.76-7.46c-.65-3.58-.56-6.43.29-8.56a5.74,5.74,0,0,1,4.54-3.8,5.21,5.21,0,0,1,2.54,0,5.41,5.41,0,0,1,2,1.19,6.16,6.16,0,0,1,1.86-1.84,6.72,6.72,0,0,1,2.55-1,4.7,4.7,0,0,1,4,.78,6.16,6.16,0,0,1,2,3.89L136,108.33l-4.21.77L129,94.1a4.1,4.1,0,0,0-.82-2.1,1.87,1.87,0,0,0-1.74-.34,2.56,2.56,0,0,0-1.36.71,2.63,2.63,0,0,0-.7,1.5l-2.31.43a4.5,4.5,0,0,0-1.26-1.19,2.16,2.16,0,0,0-1.46-.15,2.73,2.73,0,0,0-2.28,2.45,17.19,17.19,0,0,0,.3,5.88c.47,2.55,1.23,4.3,2.3,5.24a4.71,4.71,0,0,0,4.21.94,8.74,8.74,0,0,0,2.61-.79l.58,3.2a10.37,10.37,0,0,1-3.3,1.08A8,8,0,0,1,117.08,109.5Z"/><path class="cls-2" d="M171.41,17.55H5.64l6.53,35.93h0a4.91,4.91,0,0,0,0,.55c0,9.46,34.19,17.14,76.36,17.14S164.88,63.49,164.88,54a4.91,4.91,0,0,0,0-.55h0Z"/><g class="cls-9"><path class="cls-5" d="M88.53,2.78C41.62,2.78,3.6,10.64,3.6,20.34c0,1.9,1.45,3.73,4.15,5.44a4.3,4.3,0,0,1,1.93,4.16c-.45,3.63.09,9.86,8.14,12.67C29.54,46.7,44.5,35.36,44.5,35.36h0a358.25,358.25,0,0,0,44,2.54c46.9,0,84.93-7.86,84.93-17.56S135.43,2.78,88.53,2.78Z"/></g><path class="cls-7" d="M171.41,17.55H5.64l6.53,35.93h0a4.91,4.91,0,0,0,0,.55c0,9.46,34.19,17.14,76.36,17.14S164.88,63.49,164.88,54a4.91,4.91,0,0,0,0-.55h0Z"/><path class="cls-10" d="M88.53.33C41.62.33,3.6,8.19,3.6,17.89c0,1.9,1.45,3.73,4.15,5.44a4.3,4.3,0,0,1,1.93,4.16c-.45,3.63.09,9.86,8.14,12.67,11.72,4.09,26.68-7.25,26.68-7.25h0a358.12,358.12,0,0,0,44,2.55c46.9,0,84.93-7.87,84.93-17.57S135.43.33,88.53.33Z"/><path class="cls-4" d="M29.54,128.1c.42-4.13,13.84-6.15,30-4.52s28,7.7,27.57,11.83-13.83,6.15-30,4.52S29.12,132.23,29.54,128.1Z"/><path class="cls-2" d="M42.7,131a2.12,2.12,0,0,1-.48-.25l.14-.58a2.73,2.73,0,0,0,.48.27,3.14,3.14,0,0,0,.51.18,1.84,1.84,0,0,0,.68.07.32.32,0,0,0,.28-.28.37.37,0,0,0,0-.26.46.46,0,0,0-.17-.2l-.38-.25-.23-.14a2.42,2.42,0,0,1-.68-.58.72.72,0,0,1-.11-.66.85.85,0,0,1,.52-.64,1.88,1.88,0,0,1,1.09,0c.18.05.37.11.55.18a2.8,2.8,0,0,1,.46.23l-.14.57a2.44,2.44,0,0,0-.43-.23,2.38,2.38,0,0,0-.47-.16,1.5,1.5,0,0,0-.63-.06.31.31,0,0,0-.28.26.36.36,0,0,0,0,.25.63.63,0,0,0,.2.2l.41.27.17.1a2.53,2.53,0,0,1,.69.59.91.91,0,0,1,.09.7.82.82,0,0,1-.55.64,1.88,1.88,0,0,1-1.08,0A4.12,4.12,0,0,1,42.7,131Z"/><path class="cls-2" d="M45.66,131.51a1,1,0,0,1-.15-.86,1,1,0,0,1,.5-.72,1.59,1.59,0,0,1,1.06-.07l1.06.22,0-.22a.6.6,0,0,0-.08-.56,1.19,1.19,0,0,0-.67-.3,3.54,3.54,0,0,0-1.16-.07l.11-.54a4.32,4.32,0,0,1,.63,0,4.58,4.58,0,0,1,.66.08,2.63,2.63,0,0,1,.58.19l1.16.24-.15.54-.41-.09a.88.88,0,0,1,.06.33,2.08,2.08,0,0,1,0,.4l-.46,2.21-.69-.14.32-1.52-1-.21a1,1,0,0,0-.57,0,.49.49,0,0,0-.26.38.45.45,0,0,0,.08.42,1,1,0,0,0,.52.22,1.43,1.43,0,0,0,.44,0l-.11.53a2.09,2.09,0,0,1-.64-.05A1.39,1.39,0,0,1,45.66,131.51Z"/><path class="cls-2" d="M49.84,132.55a2.79,2.79,0,0,1-.6-.3l.24-1.31.64.12L50,132a2.09,2.09,0,0,0,.69.24,1.27,1.27,0,0,0,.62,0,.45.45,0,0,0,.27-.39.5.5,0,0,0,0-.37.69.69,0,0,0-.27-.23c-.11-.06-.32-.15-.62-.28a3.7,3.7,0,0,1-.57-.29,1,1,0,0,1-.34-.33.72.72,0,0,1-.07-.49.77.77,0,0,1,.51-.61,2.16,2.16,0,0,1,1.15,0,5.06,5.06,0,0,1,.67.17,2.56,2.56,0,0,1,.51.22l-.1.57a2.65,2.65,0,0,0-.5-.22,4.73,4.73,0,0,0-.59-.16,3.14,3.14,0,0,0-.69-.06c-.17,0-.27.09-.29.22a.26.26,0,0,0,.11.28,2.61,2.61,0,0,0,.52.27l.17.07.2.09a4.48,4.48,0,0,1,.58.34.89.89,0,0,1,.31.38,1.09,1.09,0,0,1,0,.58,1,1,0,0,1-.52.75,1.75,1.75,0,0,1-1.09.09A4.46,4.46,0,0,1,49.84,132.55Z"/><path class="cls-2" d="M53.12,133.16a2.17,2.17,0,0,1-.5-.22l.09-.58a3.29,3.29,0,0,0,.5.23,3.79,3.79,0,0,0,.53.14,1.77,1.77,0,0,0,.68,0,.33.33,0,0,0,.26-.3.42.42,0,0,0,0-.26.57.57,0,0,0-.19-.19l-.39-.21-.24-.13a2.6,2.6,0,0,1-.73-.52.78.78,0,0,1-.16-.66.88.88,0,0,1,.47-.67,1.72,1.72,0,0,1,1.09-.09,2.7,2.7,0,0,1,.56.14,4.13,4.13,0,0,1,.48.18l-.1.58a2.53,2.53,0,0,0-.44-.19,3.59,3.59,0,0,0-.49-.13,1.67,1.67,0,0,0-.63,0,.32.32,0,0,0-.26.29.29.29,0,0,0,0,.24.76.76,0,0,0,.21.18l.43.24.18.09a2.33,2.33,0,0,1,.73.54.82.82,0,0,1,.14.69.85.85,0,0,1-.49.68,2,2,0,0,1-1.08.07A5.38,5.38,0,0,1,53.12,133.16Z"/><path class="cls-2" d="M56.35,133.66a2.46,2.46,0,0,1-.5-.2l.09-.59a2.29,2.29,0,0,0,.5.22,2.73,2.73,0,0,0,.53.13,1.72,1.72,0,0,0,.68,0,.32.32,0,0,0,.25-.31.37.37,0,0,0,0-.26.66.66,0,0,0-.19-.18l-.4-.21-.24-.12a2.62,2.62,0,0,1-.74-.51.76.76,0,0,1-.17-.65.86.86,0,0,1,.46-.68,1.73,1.73,0,0,1,1.08-.11,3.9,3.9,0,0,1,.57.13,2.2,2.2,0,0,1,.48.18l-.09.58a3.12,3.12,0,0,0-.94-.31,1.64,1.64,0,0,0-.63,0,.36.36,0,0,0-.2.53.7.7,0,0,0,.22.19l.43.23.18.08a2.3,2.3,0,0,1,.75.53.84.84,0,0,1,.15.68.85.85,0,0,1-.48.69,1.93,1.93,0,0,1-1.08.09A4.4,4.4,0,0,1,56.35,133.66Z"/><path class="cls-2" d="M60.35,134.13a1.92,1.92,0,0,1-.51-.4l-.08.38-.64-.08.43-3.5.71.09-.32,2.58a1.49,1.49,0,0,0,.39.36,1.61,1.61,0,0,0,.52.18.64.64,0,0,0,.82-.65l.28-2.26.7.08-.29,2.3a1.32,1.32,0,0,1-.42.9,1.19,1.19,0,0,1-.93.22A1.89,1.89,0,0,1,60.35,134.13Z"/><path class="cls-2" d="M63.37,134.26a1.25,1.25,0,0,1-.28-1l0-.34a.82.82,0,0,1,.13-.38,3.71,3.71,0,0,1,.31-.39,2.35,2.35,0,0,0,.19-.22.31.31,0,0,0,.07-.17.16.16,0,0,0,0-.14.37.37,0,0,0-.16-.05l-.44-.05.11-.52.82.08c.33,0,.48.21.44.53a.8.8,0,0,1-.11.35,3.63,3.63,0,0,1-.27.37,2.08,2.08,0,0,0-.25.34.76.76,0,0,0-.11.33l0,.39q-.07.69.72.78c.54.05.83-.16.88-.63l0-.43a.65.65,0,0,0-.06-.43.45.45,0,0,0-.35-.16l-.18,0,.09-.51h.13a.5.5,0,0,0,.39-.08.68.68,0,0,0,.15-.41l0-.33.71.07,0,.32a1.23,1.23,0,0,1-.16.51.65.65,0,0,1-.4.25.74.74,0,0,1,.35.35,1.43,1.43,0,0,1,0,.53l0,.36a1.24,1.24,0,0,1-.51.93,1.66,1.66,0,0,1-1.15.23A1.6,1.6,0,0,1,63.37,134.26Z"/><path class="cls-2" d="M68.31,132.8a1.33,1.33,0,0,0,0-.46.44.44,0,0,0-.2-.27,1,1,0,0,0-.47-.13,2.25,2.25,0,0,0-.45,0,4.12,4.12,0,0,0-.45.08l0-.54a2.21,2.21,0,0,1,.5-.1,2.53,2.53,0,0,1,.55,0,1.42,1.42,0,0,1,1,.39,1.33,1.33,0,0,1,.23,1l-.21,2.31-.71-.07Z"/><path class="cls-2" d="M69.92,134.79a1.91,1.91,0,0,1-.29-1.36,2.68,2.68,0,0,1,.4-1.37,1,1,0,0,1,.9-.42.76.76,0,0,1,.4.12.7.7,0,0,1,.27.27,1.07,1.07,0,0,1,.38-.21.92.92,0,0,1,.46-.06.76.76,0,0,1,.6.29,1,1,0,0,1,.17.71L73,135.4l-.71-.05.19-2.54a.77.77,0,0,0,0-.37.35.35,0,0,0-.27-.13.44.44,0,0,0-.25.06.42.42,0,0,0-.18.21l-.39,0a.83.83,0,0,0-.15-.24.37.37,0,0,0-.23-.09.47.47,0,0,0-.47.3,2.9,2.9,0,0,0-.2,1,1.54,1.54,0,0,0,.15.94.77.77,0,0,0,.64.33,1.22,1.22,0,0,0,.45,0l0,.55a1.73,1.73,0,0,1-.58,0A1.31,1.31,0,0,1,69.92,134.79Z"/><path class="cls-2" d="M70.62,130.67l2.68.18,0,.49-2.72-.18Z"/><path class="cls-4" d="M103.15,128.73l-.32-3.93a2,2,0,0,1,.72-1.88l-1.79.15-.08-1,3.29-.27.08.93a1.6,1.6,0,0,0-.82.8,2.79,2.79,0,0,0-.16,1.33l.28,3.45a.63.63,0,0,0,.14.4.61.61,0,0,0,.41.07l.52,0,.08,1-1.06.09A1.05,1.05,0,0,1,103.15,128.73Z"/><path class="cls-4" d="M107,129.12a2.18,2.18,0,0,1-.86-1.63l-.06-.61a1.61,1.61,0,0,1,.09-.69,6.21,6.21,0,0,1,.39-.77,4.81,4.81,0,0,0,.25-.46.59.59,0,0,0,.06-.31c0-.11,0-.19-.1-.22a.47.47,0,0,0-.29,0l-.78.09v-1l1.43-.15a.75.75,0,0,1,1,.74,1.34,1.34,0,0,1-.06.64c-.07.19-.18.44-.32.73a4.34,4.34,0,0,0-.32.67,1.39,1.39,0,0,0-.07.61l.07.69a1.13,1.13,0,0,0,.46.87,1.57,1.57,0,0,0,1.08.19c.93-.1,1.35-.56,1.27-1.38l-.42-4L111,123l.41,4a2.13,2.13,0,0,1-.52,1.77,2.83,2.83,0,0,1-1.88.81A2.88,2.88,0,0,1,107,129.12Z"/><path class="cls-4" d="M115.16,128.58a3,3,0,0,1-1-.45l0,.68L113,129l-.84-6.12,1.24-.17.61,4.51a2.48,2.48,0,0,0,.84.43,2.19,2.19,0,0,0,1,.08,1.13,1.13,0,0,0,1.1-1.47l-.55-4,1.23-.17.55,4a2.35,2.35,0,0,1-.33,1.71,2,2,0,0,1-1.45.8A3.28,3.28,0,0,1,115.16,128.58Z"/><path class="cls-4" d="M114.48,119.93l1-.16.12.8,2.93-.46.08.87-3.89.6Z"/><path class="cls-4" d="M120.54,127.4a2.35,2.35,0,0,1-.84-1.52l-.71-4,1.23-.22.7,3.93a1.42,1.42,0,0,0,.47.93,1.34,1.34,0,0,0,1,.13,2.36,2.36,0,0,0,.9-.37,2.59,2.59,0,0,0,.66-.66l-.81-4.48,1.22-.22,1.09,6.08-1.12.2-.17-.66a3.23,3.23,0,0,1-2,1.16A2,2,0,0,1,120.54,127.4Z"/><path class="cls-4" d="M127.43,125.93a3.43,3.43,0,0,1-1.21-2.12,4.68,4.68,0,0,1,0-2.49,1.69,1.69,0,0,1,1.27-1.18,1.56,1.56,0,0,1,.74,0,1.6,1.6,0,0,1,.6.32,1.58,1.58,0,0,1,.51-.56,2,2,0,0,1,.73-.35,1.39,1.39,0,0,1,1.17.17,1.85,1.85,0,0,1,.65,1.11l1.06,4.5-1.21.29-1-4.33a1.29,1.29,0,0,0-.27-.6.58.58,0,0,0-.52-.07.71.71,0,0,0-.38.23.71.71,0,0,0-.18.44l-.67.16a1.5,1.5,0,0,0-.38-.33.68.68,0,0,0-.43,0,.79.79,0,0,0-.63.75,4.92,4.92,0,0,0,.17,1.71,2.69,2.69,0,0,0,.75,1.49,1.37,1.37,0,0,0,1.24.21,2.61,2.61,0,0,0,.75-.27l.21.93a3.13,3.13,0,0,1-.94.36A2.31,2.31,0,0,1,127.43,125.93Z"/><path class="cls-4" d="M129.67,118.71a1.18,1.18,0,0,1-.59-.75,1.24,1.24,0,0,1,.12-1,1.27,1.27,0,0,1,.8-.58,1.21,1.21,0,0,1,1,.1,1.15,1.15,0,0,1,.59.76,1.17,1.17,0,0,1-.12,1,1.32,1.32,0,0,1-.78.58A1.35,1.35,0,0,1,129.67,118.71Zm1.11-.84a.54.54,0,0,0,.06-.39.6.6,0,0,0-.26-.34.53.53,0,0,0-.73.21.54.54,0,0,0,0,.41.56.56,0,0,0,.67.36A.46.46,0,0,0,130.78,117.87Z"/><path class="cls-4" d="M129.06,114.53l1-.28.43,1.54-1,.27Z"/><path class="cls-4" d="M135.73,120.41a2.65,2.65,0,0,0-.33-.73.85.85,0,0,0-.51-.31,2,2,0,0,0-.85.1,5,5,0,0,0-.74.32,4.29,4.29,0,0,0-.67.43l-.28-.92a4.62,4.62,0,0,1,.73-.48,4.86,4.86,0,0,1,.89-.38,2.49,2.49,0,0,1,1.87,0,2.27,2.27,0,0,1,1,1.46l1.2,3.87-1.19.36Z"/><path class="cls-8" d="M23.82,155.36a.61.61,0,0,1-.41.29.59.59,0,0,1-.5-.08.64.64,0,0,1-.3-.45.65.65,0,0,1,.1-.47l1.79-2.79.3.19-1.48,2.3a.61.61,0,0,1,.31.11.58.58,0,0,1,.28.41A.61.61,0,0,1,23.82,155.36Zm-.27-.17a.33.33,0,1,0-.56-.36.35.35,0,0,0,.1.46.32.32,0,0,0,.25,0A.34.34,0,0,0,23.55,155.19Z"/><path class="cls-8" d="M27.11,158l-.38-.21.88-3.41-2.49,2.49-.38-.21,1.34-2.35a.6.6,0,0,1-.29-.08.59.59,0,0,1-.3-.39.64.64,0,0,1,.05-.49.58.58,0,0,1,.4-.3.64.64,0,0,1,.73.94l-1,1.78a5.52,5.52,0,0,1-.38.57c.15-.17.32-.34.51-.54l1.9-1.89.29.17-.66,2.6c-.06.26-.13.5-.2.71a6.18,6.18,0,0,1,.3-.62l1.29-2.28.31.18Zm-.71-4.17a.36.36,0,0,0,0-.25.32.32,0,0,0-.16-.2.28.28,0,0,0-.25,0,.32.32,0,0,0-.23.4.32.32,0,0,0,.15.21.37.37,0,0,0,.25,0A.37.37,0,0,0,26.4,153.81Z"/><path class="cls-8" d="M29.35,154.1a6.33,6.33,0,0,0-1.69-1.33,6.85,6.85,0,0,0-.71-.31,1,1,0,0,1,.75-.53,1.44,1.44,0,0,1,.92.16A1.5,1.5,0,0,1,29.35,154.1Zm-.17-.5a1.34,1.34,0,0,0-.68-1.26.91.91,0,0,0-1.06,0,3.7,3.7,0,0,1,.42.19A4,4,0,0,1,29.18,153.6Z"/><path class="cls-8" d="M30.32,152.12,30,152l.5-1,.29.15Z"/><path class="cls-8" d="M30.85,159.83l-.34-.17a4.42,4.42,0,0,0-1-1.32.53.53,0,0,1,0,.18.68.68,0,0,1-.39.34.7.7,0,0,1-.53,0,.63.63,0,0,1-.34-.39.61.61,0,0,1,0-.51.7.7,0,0,1,.38-.36.67.67,0,0,1,.52,0,.57.57,0,0,1,.18.12l.62-1.3a.62.62,0,0,1-.29-.07.61.61,0,0,1-.33-.37.63.63,0,0,1,.39-.82.62.62,0,0,1,.5,0,.61.61,0,0,1,.33.37.6.6,0,0,1,0,.49L29.63,158a5.35,5.35,0,0,1,1.06,1.39l1.51-3.14.32.16Zm-1.63-1.46a.39.39,0,0,0,0-.28.37.37,0,0,0-.18-.21.39.39,0,0,0-.28,0,.37.37,0,0,0-.21.18.39.39,0,0,0,0,.28.37.37,0,0,0,.18.21.39.39,0,0,0,.28,0A.32.32,0,0,0,29.22,158.37Zm1.05-2.46a.31.31,0,0,0,0-.25.32.32,0,0,0-.17-.19.31.31,0,0,0-.25,0,.29.29,0,0,0-.19.17.31.31,0,0,0,0,.25.32.32,0,0,0,.17.19.34.34,0,0,0,.26,0A.32.32,0,0,0,30.27,155.91Z"/><path class="cls-8" d="M33.5,160.29a.67.67,0,0,1-.86.37.66.66,0,0,1-.37-.87l1.25-3.07.33.13-1,2.54a.6.6,0,0,1,.32,0,.65.65,0,0,1,.36.86Zm-.3-.12a.39.39,0,0,0,0-.26.39.39,0,0,0-.18-.18.39.39,0,0,0-.26,0,.37.37,0,0,0-.18.19.31.31,0,0,0,0,.25.27.27,0,0,0,.18.18.36.36,0,0,0,.25,0A.32.32,0,0,0,33.2,160.17Zm1.87.75a.67.67,0,0,1-.35.37.69.69,0,0,1-.51,0,.66.66,0,0,1-.38-.39.62.62,0,0,1,0-.48l1.24-3.07.33.13-1,2.53a.62.62,0,0,1,.32,0,.65.65,0,0,1,.36.35A.62.62,0,0,1,35.07,160.92Zm-.3-.12a.31.31,0,0,0,0-.25.32.32,0,0,0-.18-.18.34.34,0,0,0-.26,0,.39.39,0,0,0-.18.18.34.34,0,0,0,0,.26.32.32,0,0,0,.18.18.31.31,0,0,0,.25,0A.27.27,0,0,0,34.77,160.8Z"/><path class="cls-8" d="M38.22,162.64l-.33-.11.53-1.59a.62.62,0,0,0-.17-.64,1.45,1.45,0,0,0-.61-.38,1.05,1.05,0,0,0-.7,0,.65.65,0,0,0-.44.43l-.15.46a.79.79,0,0,1,.33,0,.61.61,0,0,1,.37.33.6.6,0,0,1,0,.49.59.59,0,0,1-.32.37.64.64,0,0,1-.49,0,.66.66,0,0,1-.41-.35.69.69,0,0,1,0-.49l.34-1a1,1,0,0,1,.63-.63,1.32,1.32,0,0,1,.92,0,1.47,1.47,0,0,1,.91.72l.16-.46a.68.68,0,0,0-.17-.67,1.35,1.35,0,0,0-.62-.42,1.66,1.66,0,0,0-.76-.07.84.84,0,0,0-.59.36l-.33-.11a1,1,0,0,1,.74-.53,1.74,1.74,0,0,1,1,.05,1.76,1.76,0,0,1,.84.56,1,1,0,0,1,.18,1Zm-1.45-1.07a.33.33,0,0,0,0-.26.34.34,0,0,0-.2-.17.31.31,0,0,0-.25,0,.4.4,0,0,0-.16.2.29.29,0,0,0,0,.24.32.32,0,0,0,.19.17.36.36,0,0,0,.25,0A.28.28,0,0,0,36.77,161.57Z"/><path class="cls-8" d="M42.15,163.74l-.34-.09.68-2.55a.82.82,0,0,0-.15-.79,1.27,1.27,0,0,0-.69-.44,1.15,1.15,0,0,0-.85.09,1,1,0,0,0-.52.65,2.4,2.4,0,0,0-.06.52c0,.3,0,.47,0,.5a2.9,2.9,0,0,1,.54-.84.82.82,0,0,1,.82-.3.51.51,0,0,1,.35.25.57.57,0,0,1,0,.45.55.55,0,0,1-.27.36.56.56,0,0,1-.44.06.58.58,0,0,1-.37-.35,2.54,2.54,0,0,0-.42.5,2.83,2.83,0,0,0-.38.76l-.16.62-.34-.09.23-.87a3.06,3.06,0,0,0,.06-.82,3,3,0,0,1,.05-.81,1.34,1.34,0,0,1,.68-.88,1.56,1.56,0,0,1,1.15-.1,1.68,1.68,0,0,1,.91.58,1.05,1.05,0,0,1,.18,1Zm-.45-2.62a.31.31,0,0,0,0-.23.3.3,0,0,0-.19-.14.31.31,0,0,0-.23,0,.28.28,0,0,0-.14.18.31.31,0,0,0,0,.23.31.31,0,0,0,.42.11A.32.32,0,0,0,41.7,161.12Z"/><path class="cls-8" d="M45.12,163.79a.66.66,0,0,1-.79.51.64.64,0,0,1-.45-.32.69.69,0,0,1-.07-.47l.86-4c0-.18-.06-.38-.3-.61a1.67,1.67,0,0,0-.73-.42.83.83,0,0,1,1.07-.71,1.44,1.44,0,0,1,.47.25,1.64,1.64,0,0,0,.43.25c.11,0,.2,0,.26-.2l.27.14c-.16.3-.34.43-.55.39a1.92,1.92,0,0,1-.48-.27,1.44,1.44,0,0,0-.49-.27c-.28-.06-.46,0-.53.25.72.39,1,.83.92,1.31L44.28,163a.58.58,0,0,1,.32,0,.66.66,0,0,1,.42.29A.63.63,0,0,1,45.12,163.79Zm-.32-.07a.31.31,0,0,0,0-.25.35.35,0,0,0-.21-.15.32.32,0,0,0-.25.05.34.34,0,0,0-.14.21.32.32,0,0,0,0,.25.34.34,0,0,0,.21.14.33.33,0,0,0,.4-.25Z"/><path class="cls-8" d="M48.57,165l-.35-.05.41-2.52a1.08,1.08,0,0,0-.3-1.07l-.72.47-.56-.68a1.14,1.14,0,0,0-.65.93,3.58,3.58,0,0,0,0,.85,3.31,3.31,0,0,1,0,.94,1.44,1.44,0,0,1,.46-.37,3.06,3.06,0,0,0,.46-.32.59.59,0,0,1-.35-.24.57.57,0,0,1-.09-.41.6.6,0,0,1,.23-.38.58.58,0,0,1,.43-.1.56.56,0,0,1,.38.23.61.61,0,0,1,.1.44c0,.29-.34.61-.85.95a1.85,1.85,0,0,0-.89,1l-.35-.06.15-.87a3.07,3.07,0,0,0,0-.82,3,3,0,0,1,0-.82,1.72,1.72,0,0,1,.35-.83,1.12,1.12,0,0,1,.78-.44l.51.63.64-.44a1,1,0,0,1,.58.6,1.53,1.53,0,0,1,.08.85Zm-.77-2.34a.3.3,0,0,0-.06-.22.27.27,0,0,0-.2-.12.25.25,0,0,0-.22.05.27.27,0,0,0-.12.2.25.25,0,0,0,0,.22.31.31,0,0,0,.2.13.29.29,0,0,0,.22-.06A.31.31,0,0,0,47.8,162.63Z"/><path class="cls-8" d="M53.16,164.53c0,.61-.47.89-1.32.83s-1.25-.38-1.21-1l.12-1.86a.6.6,0,0,1-.3.05.61.61,0,0,1-.44-.22.57.57,0,0,1-.16-.46.61.61,0,0,1,.22-.45.64.64,0,0,1,.91.06.67.67,0,0,1,.16.47l-.16,2.4c0,.42.27.64.88.68s.93-.15,1-.56l.19-3,.35,0Zm-2.34-2.59a.31.31,0,0,0-.08-.24.3.3,0,0,0-.23-.11.31.31,0,0,0-.24.08.3.3,0,0,0-.11.23.31.31,0,0,0,.08.24.34.34,0,0,0,.23.11.31.31,0,0,0,.24-.08A.3.3,0,0,0,50.82,161.94Z"/><path class="cls-8" d="M56.57,165.28h-.35l-.11-2.92a.63.63,0,0,0-.24-.48.89.89,0,0,0-.61-.17.7.7,0,0,0-.54.25.8.8,0,0,0-.2.5l-.37,0a1.06,1.06,0,0,1,.3-.74,1.12,1.12,0,0,1,.81-.34,1.2,1.2,0,0,1,.88.24.93.93,0,0,1,.32.71Z"/><path class="cls-8" d="M60.56,164a.8.8,0,0,1-.8,1,.78.78,0,0,1-1-.77l-.08-.62a1.58,1.58,0,0,1,.19-.81,1.63,1.63,0,0,0,.2-.81c0-.34-.19-.52-.45-.54l-.29.45-.4-.35a1,1,0,0,0-.34.61.66.66,0,0,1,.3-.09.54.54,0,0,1,.47.12.6.6,0,0,1,.22.43.57.57,0,0,1-.12.48.59.59,0,0,1-.42.23.56.56,0,0,1-.54-.21,1.13,1.13,0,0,1-.23-.57,1.51,1.51,0,0,1,.13-.81,1,1,0,0,1,.6-.56l.28.31.22-.37a.83.83,0,0,1,.62.26,1,1,0,0,1,.27.59,1.63,1.63,0,0,1-.18.83,1.79,1.79,0,0,0-.18.8l.08.6a.55.55,0,1,0,1.09-.13l-.2-1.56a.56.56,0,0,0-.46-.52.84.84,0,0,0,0-.23.92.92,0,0,0,.45-1l.37,0a1.46,1.46,0,0,1-.12.67,1.18,1.18,0,0,1-.31.41.65.65,0,0,1,.46.61Zm-2.28-1.35a.28.28,0,0,0-.12-.21.3.3,0,0,0-.23-.06.31.31,0,0,0-.21.11.34.34,0,0,0-.06.24.31.31,0,0,0,.11.21A.34.34,0,0,0,58,163a.28.28,0,0,0,.21-.12A.3.3,0,0,0,58.28,162.68Z"/><path class="cls-8" d="M60.11,160.39a6.52,6.52,0,0,0-2.15,0,6.88,6.88,0,0,0-.75.19,1,1,0,0,1,.27-.88,1.45,1.45,0,0,1,.84-.43A1.49,1.49,0,0,1,60.11,160.39Zm-.43-.3a1.32,1.32,0,0,0-1.31-.58.91.91,0,0,0-.82.66,3.83,3.83,0,0,1,.45-.1A4.1,4.1,0,0,1,59.68,160.09Z"/><path class="cls-8" d="M64.61,164.06l-.34.07-.35-1.64a.61.61,0,0,0-.47-.46,1.45,1.45,0,0,0-.72,0,1.07,1.07,0,0,0-.61.35.66.66,0,0,0-.16.58l.1.48a.81.81,0,0,1,.31-.13.6.6,0,0,1,.49.09.64.64,0,0,1,.27.41.59.59,0,0,1-.09.48.62.62,0,0,1-.41.29.63.63,0,0,1-.52-.1.61.61,0,0,1-.27-.41l-.22-1a1,1,0,0,1,.22-.87,1.33,1.33,0,0,1,.79-.47,1.53,1.53,0,0,1,1.15.16l-.1-.47a.67.67,0,0,0-.48-.5,1.33,1.33,0,0,0-.74,0,1.47,1.47,0,0,0-.69.32.89.89,0,0,0-.34.61l-.33.07a1,1,0,0,1,.36-.83,1.87,1.87,0,0,1,.91-.48,1.84,1.84,0,0,1,1,.06,1,1,0,0,1,.64.74Zm-1.79-.2a.38.38,0,0,0-.15-.21.31.31,0,0,0-.25,0,.29.29,0,0,0-.2.14.32.32,0,0,0,0,.25.3.3,0,0,0,.13.21.36.36,0,0,0,.25,0,.31.31,0,0,0,.21-.14A.31.31,0,0,0,62.82,163.86Z"/><path class="cls-8" d="M68.45,163l-.34.1-.46-1.62a.61.61,0,0,0-.49-.43,1.52,1.52,0,0,0-.73,0,1,1,0,0,0-.58.39.64.64,0,0,0-.12.59l.13.48a.86.86,0,0,1,.3-.16.6.6,0,0,1,.49.06.62.62,0,0,1,.3.39.64.64,0,0,1,0,.49.63.63,0,0,1-.39.31.69.69,0,0,1-.53-.06.62.62,0,0,1-.3-.39l-.29-1a1,1,0,0,1,.16-.88,1.34,1.34,0,0,1,.76-.52,1.52,1.52,0,0,1,1.16.08l-.13-.46a.68.68,0,0,0-.51-.47,1.43,1.43,0,0,0-.74,0,1.51,1.51,0,0,0-.67.37.81.81,0,0,0-.29.63l-.34.09a1.11,1.11,0,0,1,.31-.86,1.83,1.83,0,0,1,.88-.53,1.86,1.86,0,0,1,1,0,1,1,0,0,1,.69.69ZM66.64,163a.28.28,0,0,0-.15-.2.3.3,0,0,0-.26,0,.29.29,0,0,0-.19.15.37.37,0,0,0,0,.25.35.35,0,0,0,.15.2.36.36,0,0,0,.25,0,.35.35,0,0,0,.2-.15A.28.28,0,0,0,66.64,163Z"/><path class="cls-8" d="M67.73,156.88a1.54,1.54,0,0,1-.1,1.18,1.52,1.52,0,0,1-.91.73,1.61,1.61,0,0,1-.94,0,.69.69,0,0,1-.51-.49.62.62,0,0,1,.88-.74.58.58,0,0,1,.31.36.63.63,0,0,1-.12.6,2.34,2.34,0,0,0,.35-.08,1,1,0,0,0,.65-.6,1.49,1.49,0,0,0,0-.89Zm-1.57,1.17a.35.35,0,0,0-.16-.2.33.33,0,0,0-.24,0,.37.37,0,0,0-.19.16.31.31,0,0,0,0,.25.29.29,0,0,0,.16.18.33.33,0,0,0,.24,0,.4.4,0,0,0,.19-.15A.33.33,0,0,0,66.16,158.05Z"/><path class="cls-8" d="M72.18,161.8l-.34.11-.51-1.51a.62.62,0,0,0-.51-.41,1.44,1.44,0,0,0-.73.07,1.07,1.07,0,0,0-.56.41.65.65,0,0,0-.09.6l.13.39a.73.73,0,0,1,.29-.16.62.62,0,0,1,.5,0,.69.69,0,0,1,.32.37.64.64,0,0,1,0,.49.58.58,0,0,1-.37.33.61.61,0,0,1-.53,0,.65.65,0,0,1-.32-.37l-.31-.93a1,1,0,0,1,.11-.89,1.37,1.37,0,0,1,.74-.56l.05,0a6.69,6.69,0,0,0,.48-.9,1.38,1.38,0,0,0-.83,0,1.66,1.66,0,0,0-.65.4.9.9,0,0,0-.26.65l-.32.11a1.08,1.08,0,0,1,.26-.88,1.88,1.88,0,0,1,.85-.57,1.8,1.8,0,0,1,1-.05,1.16,1.16,0,0,0,.08-.61l.33-.11a1.72,1.72,0,0,1-.1.85,1,1,0,0,1,.38.51Zm-1.81,0a.35.35,0,0,0-.16-.2.34.34,0,0,0-.26,0,.28.28,0,0,0-.19.16.36.36,0,0,0,0,.25.31.31,0,0,0,.16.19.31.31,0,0,0,.25,0,.32.32,0,0,0,.19-.17A.26.26,0,0,0,70.37,161.82Zm.75-2-.18-.53a.71.71,0,0,0-.18-.27,4.7,4.7,0,0,1-.39.69A1.42,1.42,0,0,1,71.12,159.77Z"/><path class="cls-8" d="M76.33,159.59a.62.62,0,0,1,0,.5.64.64,0,0,1-.36.36.66.66,0,0,1-.55,0,.71.71,0,0,1-.32-.36L73.89,157l.33-.13,1,2.54a.55.55,0,0,1,.26-.18.62.62,0,0,1,.5,0A.64.64,0,0,1,76.33,159.59Zm-.3.12a.31.31,0,0,0-.18-.19.34.34,0,0,0-.43.17.34.34,0,0,0,0,.26.35.35,0,0,0,.18.18.31.31,0,0,0,.25,0A.37.37,0,0,0,76,160,.31.31,0,0,0,76,159.71Zm1.88-.74a.58.58,0,0,1,0,.5.64.64,0,0,1-.36.36.67.67,0,0,1-.54,0,.66.66,0,0,1-.32-.36l-1.21-3.08.32-.13,1,2.54a.65.65,0,0,1,.26-.19.66.66,0,0,1,.5,0A.64.64,0,0,1,77.91,159Zm-.3.11a.32.32,0,0,0-.18-.18.28.28,0,0,0-.25,0,.32.32,0,0,0-.19.17.39.39,0,0,0,0,.26.32.32,0,0,0,.18.18.31.31,0,0,0,.25,0,.32.32,0,0,0,.18-.18A.34.34,0,0,0,77.61,159.08Z"/><path class="cls-8" d="M80.94,157.47c.22.56-.07,1-.87,1.34s-1.31.22-1.54-.34l-.46-1.12a.6.6,0,0,1,0-.49.58.58,0,0,1,.35-.35.6.6,0,0,1,.49,0,.6.6,0,0,1,.35.35.64.64,0,0,1,0,.49.59.59,0,0,1-.36.35.63.63,0,0,1-.3.05l.21.51c.17.41.55.49,1.15.25s.78-.57.61-1l-.7-1.68a.76.76,0,0,0-.57-.48,1.32,1.32,0,0,0-.79.1,1.46,1.46,0,0,0-.61.45.81.81,0,0,0-.2.65l-.33.13a1.17,1.17,0,0,1,.2-.88,1.79,1.79,0,0,1,.83-.65,1.66,1.66,0,0,1,1-.12,1,1,0,0,1,.77.61ZM79,157a.27.27,0,0,0-.18-.18.28.28,0,0,0-.25,0,.27.27,0,0,0-.18.18.28.28,0,0,0,0,.25.27.27,0,0,0,.18.18.28.28,0,0,0,.25,0,.27.27,0,0,0,.18-.18A.28.28,0,0,0,79,157Z"/><path class="cls-8" d="M84.38,156a.8.8,0,0,1-.49,1.18.79.79,0,0,1-1.17-.48l-.24-.56a1.5,1.5,0,0,1,0-.84,1.58,1.58,0,0,0,0-.84q-.2-.47-.57-.39l-.15.51-.48-.23a1,1,0,0,0-.17.69.91.91,0,0,1,.27-.18.58.58,0,0,1,.48,0,.65.65,0,0,1,.33.36.6.6,0,0,1,0,.49.62.62,0,0,1-.35.34.56.56,0,0,1-.57-.06,1.06,1.06,0,0,1-.38-.49,1.38,1.38,0,0,1-.09-.81,1,1,0,0,1,.42-.7l.36.22.11-.42a.86.86,0,0,1,.66.08,1.08,1.08,0,0,1,.42.5,1.77,1.77,0,0,1,.06.84,1.75,1.75,0,0,0,0,.83l.24.55a.55.55,0,1,0,1-.42l-.61-1.45a.56.56,0,0,0-.59-.37.77.77,0,0,0-.1-.21.92.92,0,0,0,.17-1.06l.34-.15a1.47,1.47,0,0,1,.07.68,1.07,1.07,0,0,1-.19.48.64.64,0,0,1,.61.46Zm-2.56-.68a.31.31,0,0,0-.58.24.3.3,0,0,0,.17.18.29.29,0,0,0,.24,0,.3.3,0,0,0,.18-.17A.29.29,0,0,0,81.82,155.35Z"/><path class="cls-8" d="M83,152.65a6.36,6.36,0,0,0-2.1.46,4.59,4.59,0,0,0-.69.36,1,1,0,0,1,.07-.92,1.4,1.4,0,0,1,.7-.61A1.5,1.5,0,0,1,83,152.65Zm-.49-.19a1.32,1.32,0,0,0-1.4-.27.91.91,0,0,0-.65.84,3.13,3.13,0,0,1,.41-.2A4.15,4.15,0,0,1,82.51,152.46Z"/><path class="cls-8" d="M87,155.16a.65.65,0,0,1,0,.51.67.67,0,0,1-.35.37.62.62,0,0,1-.55,0,.65.65,0,0,1-.33-.34l-1.6-3.75c-.07-.17-.27-.28-.59-.32a1.57,1.57,0,0,0-.85.07.83.83,0,0,1,.47-1.2,1.58,1.58,0,0,1,.53-.06,1.52,1.52,0,0,0,.49-.05c.11,0,.14-.15.1-.31l.3,0c.05.33,0,.54-.23.63a1.57,1.57,0,0,1-.54.06,1.34,1.34,0,0,0-.56.06c-.26.11-.35.28-.28.51q1.22-.14,1.5.54L85.85,155a.65.65,0,0,1,.26-.19.69.69,0,0,1,.51,0A.62.62,0,0,1,87,155.16Zm-.3.13a.32.32,0,0,0-.18-.18.33.33,0,0,0-.26,0,.34.34,0,0,0-.17.43.32.32,0,0,0,.18.18.28.28,0,0,0,.25,0,.39.39,0,0,0,.18-.18A.3.3,0,0,0,86.68,155.29Z"/><path class="cls-8" d="M90.37,154.36l-.32.14-1-2.35a1,1,0,0,0-1.45-.53,1.13,1.13,0,0,0-.61.59,1,1,0,0,0,0,.83,3,3,0,0,0,.45.65,2.93,2.93,0,0,1,.44.63,1.3,1.3,0,0,1,.08.25,2.64,2.64,0,0,1,.15-.68c.07-.21.15-.42.23-.64a.59.59,0,0,1-.45,0,.57.57,0,0,1-.31-.32.56.56,0,0,1,0-.44.54.54,0,0,1,.32-.31.52.52,0,0,1,.44,0,.53.53,0,0,1,.31.31,1.93,1.93,0,0,1-.17,1.37,2.29,2.29,0,0,0-.19,1.39l-.32.14-.35-.81a2.88,2.88,0,0,0-.46-.68,3,3,0,0,1-.46-.67,1.3,1.3,0,0,1,0-1.14,1.63,1.63,0,0,1,.87-.78,1.41,1.41,0,0,1,1.11-.08,1.25,1.25,0,0,1,.72.74Zm-2-1.76a.28.28,0,0,0-.16-.16.29.29,0,0,0-.24,0,.31.31,0,0,0-.16.16.33.33,0,0,0,0,.24A.3.3,0,0,0,88,153a.3.3,0,0,0,.23,0,.3.3,0,0,0,.16-.17A.26.26,0,0,0,88.37,152.6Z"/><path class="cls-8" d="M94.4,152.69l-.4.16-2.16-2.79.44,3.5-.4.17-1-2.49a.58.58,0,0,1-.25.17.6.6,0,0,1-.49,0,.63.63,0,0,1-.35-.35.64.64,0,0,1,.35-.84.62.62,0,0,1,.5,0,.63.63,0,0,1,.35.35l.78,1.89c.06.15.13.37.21.65,0-.21-.07-.46-.11-.73l-.32-2.66.31-.13,1.65,2.12c.16.22.31.41.43.6-.14-.26-.24-.47-.31-.62L92,147.76l.33-.14Zm-3.73-2a.32.32,0,0,0-.18-.18.3.3,0,0,0-.26,0,.32.32,0,0,0-.18.18.36.36,0,0,0,0,.25.29.29,0,0,0,.18.18.3.3,0,0,0,.26,0,.32.32,0,0,0,.18-.18A.36.36,0,0,0,90.67,150.69Z"/><path class="cls-8" d="M92,148.84a6.24,6.24,0,0,0-2.12.42,5,5,0,0,0-.69.35,1,1,0,0,1,.08-.93,1.47,1.47,0,0,1,.72-.59A1.51,1.51,0,0,1,92,148.84Zm-.5-.2a1.31,1.31,0,0,0-1.39-.29.89.89,0,0,0-.66.82c.12-.07.26-.13.41-.2A4.24,4.24,0,0,1,91.53,148.64Z"/><path class="cls-8" d="M97.85,151.31l-.33.13L96.93,150a.6.6,0,0,0-.53-.38,1.43,1.43,0,0,0-.72.11,1,1,0,0,0-.54.44.64.64,0,0,0-.06.6l.15.39a.73.73,0,0,1,.28-.19.67.67,0,0,1,.5,0,.63.63,0,0,1,.34.36.64.64,0,0,1,0,.49.65.65,0,0,1-.36.35.63.63,0,0,1-.52,0,.62.62,0,0,1-.35-.36l-.36-.91a1,1,0,0,1,.07-.89,1.32,1.32,0,0,1,.7-.59l.06,0a7.36,7.36,0,0,0,.43-.93,1.31,1.31,0,0,0-.83.06,1.56,1.56,0,0,0-.62.44.87.87,0,0,0-.23.66l-.32.12a1.09,1.09,0,0,1,.22-.89,1.76,1.76,0,0,1,.82-.61,1.78,1.78,0,0,1,1-.11,1.15,1.15,0,0,0,0-.61l.33-.13a1.73,1.73,0,0,1-.07.86.88.88,0,0,1,.42.49Zm-1.8.11a.32.32,0,0,0-.18-.18.31.31,0,0,0-.25,0,.28.28,0,0,0-.18.17.39.39,0,0,0,0,.26.33.33,0,0,0,.17.18.36.36,0,0,0,.25,0,.32.32,0,0,0,.18-.18A.31.31,0,0,0,96.05,151.42Zm.64-2.08-.21-.52a.72.72,0,0,0-.19-.26,4.73,4.73,0,0,1-.36.71A1.46,1.46,0,0,1,96.69,149.34Z"/><path class="cls-8" d="M96.6,145.29a1.47,1.47,0,0,1-.88,2,1.57,1.57,0,0,1-.93.11.7.7,0,0,1-.54-.45.62.62,0,0,1,0-.48.6.6,0,0,1,.35-.33.59.59,0,0,1,.47,0,.58.58,0,0,1,.33.34.6.6,0,0,1-.08.6,1.91,1.91,0,0,0,.35-.11,1,1,0,0,0,.6-.64,1.4,1.4,0,0,0,0-.88Zm-1.48,1.27a.33.33,0,0,0-.17-.18.29.29,0,0,0-.24,0,.33.33,0,0,0-.18.17.31.31,0,0,0,0,.25.32.32,0,0,0,.18.18.33.33,0,0,0,.24,0,.3.3,0,0,0,.17-.16A.31.31,0,0,0,95.12,146.56Z"/><path class="cls-8" d="M101.32,150l-.33.12-.56-1.49a.61.61,0,0,0-.53-.39,1.53,1.53,0,0,0-.72.09,1.07,1.07,0,0,0-.55.44.62.62,0,0,0-.07.6l.15.39a.64.64,0,0,1,.27-.18.58.58,0,0,1,.5,0,.6.6,0,0,1,.34.36.64.64,0,0,1,0,.49.63.63,0,0,1-.36.34.65.65,0,0,1-.53,0,.63.63,0,0,1-.33-.37l-.35-.92a1,1,0,0,1,.09-.89A1.34,1.34,0,0,1,99,148l0,0a7,7,0,0,0,.45-.92,1.39,1.39,0,0,0-.83,0,1.65,1.65,0,0,0-.63.43.84.84,0,0,0-.24.65l-.32.12a1.09,1.09,0,0,1,.23-.88,1.8,1.8,0,0,1,.84-.61,1.85,1.85,0,0,1,1-.09,1.11,1.11,0,0,0,0-.6L100,146a1.87,1.87,0,0,1-.08.86,1,1,0,0,1,.41.5Zm-1.8.08a.31.31,0,0,0-.18-.19.36.36,0,0,0-.25,0,.29.29,0,0,0-.18.18.31.31,0,0,0,0,.25.3.3,0,0,0,.17.18.31.31,0,0,0,.25,0,.32.32,0,0,0,.19-.17A.31.31,0,0,0,99.52,150.08Zm.67-2.08-.19-.52a.65.65,0,0,0-.2-.26,4.2,4.2,0,0,1-.36.7A1.53,1.53,0,0,1,100.19,148Z"/><path class="cls-8" d="M105.31,148a.64.64,0,0,1,0,.51.62.62,0,0,1-.38.33.64.64,0,0,1-.54,0,.67.67,0,0,1-.31-.37l-1-3.14.33-.11.87,2.59a.67.67,0,0,1,.78-.15A.65.65,0,0,1,105.31,148Zm-.31.11a.29.29,0,0,0-.17-.19.28.28,0,0,0-.25,0,.29.29,0,0,0-.19.17.31.31,0,0,0,0,.25.32.32,0,0,0,.17.19.31.31,0,0,0,.25,0,.32.32,0,0,0,.19-.17A.28.28,0,0,0,105,148.06Zm1.91-.65a.65.65,0,0,1,0,.51.61.61,0,0,1-.37.33.66.66,0,0,1-.55,0,.68.68,0,0,1-.3-.38l-1.06-3.13.34-.12.87,2.59a.73.73,0,0,1,.27-.17.62.62,0,0,1,.5,0A.59.59,0,0,1,106.91,147.41Zm-.3.1a.35.35,0,0,0-.17-.19.31.31,0,0,0-.25,0,.32.32,0,0,0-.2.16.34.34,0,0,0,.41.47.32.32,0,0,0,.19-.17A.33.33,0,0,0,106.61,147.51Z"/><path class="cls-8" d="M110.29,147l-.34.1-.5-1.6a.63.63,0,0,0-.51-.42,1.5,1.5,0,0,0-.72,0,1,1,0,0,0-.57.4.66.66,0,0,0-.11.6l.15.47a.73.73,0,0,1,.29-.16.59.59,0,0,1,.5.05.62.62,0,0,1,.31.38.62.62,0,0,1-.43.8.62.62,0,0,1-.52,0,.63.63,0,0,1-.32-.38l-.31-1a1,1,0,0,1,.13-.89,1.38,1.38,0,0,1,.75-.54,1.53,1.53,0,0,1,1.16.05l-.14-.46a.69.69,0,0,0-.53-.45,1.34,1.34,0,0,0-.74,0,1.57,1.57,0,0,0-.66.39.84.84,0,0,0-.27.64l-.33.1a1.07,1.07,0,0,1,.28-.87,1.84,1.84,0,0,1,.87-.55,1.67,1.67,0,0,1,1,0,1,1,0,0,1,.71.67Zm-1.81,0a.32.32,0,0,0-.16-.2.31.31,0,0,0-.25,0,.32.32,0,0,0-.2.16.39.39,0,0,0,0,.26.33.33,0,0,0,.16.19.31.31,0,0,0,.25,0,.35.35,0,0,0,.2-.16A.31.31,0,0,0,108.48,147Z"/><path class="cls-8" d="M112.6,142.44a1.63,1.63,0,0,1-.09,1.16,1.27,1.27,0,0,1-.83.68,1.88,1.88,0,0,1-.87.05.73.73,0,0,1-.59-.54.6.6,0,0,1,0-.47.63.63,0,0,1,.38-.3.56.56,0,0,1,.47.06.55.55,0,0,1,.3.37.59.59,0,0,1-.13.58.81.81,0,0,0,.25,0,1.07,1.07,0,0,0,.68-.55,1.42,1.42,0,0,0,0-.92Zm-1.5,1.1a.3.3,0,0,0-.14-.19.31.31,0,0,0-.25,0,.26.26,0,0,0-.18.14.28.28,0,0,0,0,.24.28.28,0,0,0,.14.19.26.26,0,0,0,.23,0,.3.3,0,0,0,.2-.14A.28.28,0,0,0,111.1,143.54Zm2.07.9a1.63,1.63,0,0,1-.09,1.16,1.29,1.29,0,0,1-.84.68,1.84,1.84,0,0,1-.86.05.73.73,0,0,1-.6-.54.6.6,0,0,1,.06-.47.64.64,0,0,1,.37-.3.58.58,0,0,1,.48.06.62.62,0,0,1,.17.95.74.74,0,0,0,.24,0,1,1,0,0,0,.68-.55,1.42,1.42,0,0,0,0-.92Zm-1.5,1.1a.32.32,0,0,0-.15-.19.28.28,0,0,0-.24,0,.28.28,0,0,0-.19.14.33.33,0,0,0,0,.24.35.35,0,0,0,.14.19.28.28,0,0,0,.24,0,.31.31,0,0,0,.19-.14A.33.33,0,0,0,111.67,145.54Z"/><path class="cls-8" d="M117.42,144.2c.15.59-.18,1-1,1.19s-1.31,0-1.46-.57l-.46-1.8a.58.58,0,0,1-.26.13.6.6,0,0,1-.49-.07.58.58,0,0,1-.3-.4.62.62,0,0,1,.07-.48.63.63,0,0,1,.4-.3.63.63,0,0,1,.78.47l.6,2.34c.1.39.44.52,1,.37s.83-.43.73-.82l-.73-2.89.34-.09Zm-3-1.76a.33.33,0,0,0-.15-.2.32.32,0,0,0-.25,0,.37.37,0,0,0-.21.16.32.32,0,0,0,0,.25.35.35,0,0,0,.16.2.32.32,0,0,0,.25,0,.28.28,0,0,0,.2-.15A.34.34,0,0,0,114.4,142.44Z"/><path class="cls-8" d="M116.63,140.67a6.3,6.3,0,0,0-2.15.09,7,7,0,0,0-.74.24,1,1,0,0,1,.22-.9,1.46,1.46,0,0,1,.8-.48A1.51,1.51,0,0,1,116.63,140.67Zm-.46-.28a1.31,1.31,0,0,0-1.33-.5.92.92,0,0,0-.78.72,2.54,2.54,0,0,1,.44-.13A4,4,0,0,1,116.17,140.39Z"/><path class="cls-8" d="M121.86,144.06l-.42.09L119.8,141l-.18,3.52-.42.09-.58-2.63a.57.57,0,0,1-.27.13.6.6,0,0,1-.49-.09.63.63,0,0,1-.28-.4.6.6,0,0,1,.09-.49.58.58,0,0,1,.4-.28.65.65,0,0,1,.77.49l.44,2c0,.16.07.39.1.68,0-.22,0-.46,0-.74l.14-2.67.33-.08,1.25,2.38c.13.24.23.46.32.66-.09-.28-.15-.5-.19-.66l-.91-4.15.35-.08Zm-3.33-2.62a.28.28,0,0,0-.14-.21.33.33,0,1,0-.36.56.32.32,0,0,0,.25,0,.31.31,0,0,0,.21-.14A.32.32,0,0,0,118.53,141.44Z"/><path class="cls-8" d="M120.22,139.85a6.41,6.41,0,0,0-2.15,0,5.54,5.54,0,0,0-.75.22,1,1,0,0,1,.25-.89,1.43,1.43,0,0,1,.82-.46A1.51,1.51,0,0,1,120.22,139.85Zm-.45-.29a1.31,1.31,0,0,0-1.32-.54.92.92,0,0,0-.8.69,2.44,2.44,0,0,1,.45-.12A4.11,4.11,0,0,1,119.77,139.56Z"/><path class="cls-8" d="M124.4,143a.68.68,0,0,1-.1.5.66.66,0,0,1-.43.28.62.62,0,0,1-.53-.11.65.65,0,0,1-.25-.41l-.8-4c0-.18-.2-.32-.51-.44a1.7,1.7,0,0,0-.84-.1.83.83,0,0,1,.7-1.08,1.63,1.63,0,0,1,.53,0,1.58,1.58,0,0,0,.49.06c.12,0,.17-.12.17-.28l.3,0c0,.33-.14.52-.36.57a1.52,1.52,0,0,1-.54-.06,1.34,1.34,0,0,0-.56-.05c-.28.05-.41.2-.38.44.81.07,1.26.35,1.36.84l.67,3.39a.59.59,0,0,1,.29-.13.66.66,0,0,1,.79.51Zm-.32.06a.32.32,0,0,0-.15-.21.37.37,0,0,0-.25,0,.32.32,0,0,0-.2.14.28.28,0,0,0,0,.25.3.3,0,0,0,.13.21.33.33,0,0,0,.25.06.32.32,0,0,0,.21-.15A.28.28,0,0,0,124.08,143Z"/><path class="cls-8" d="M127.83,143l-.35.06-.39-2.52a1,1,0,0,0-1.27-.88,1.15,1.15,0,0,0-.74.43,1,1,0,0,0-.22.8,2.18,2.18,0,0,0,.27.74,2.76,2.76,0,0,1,.27.72,1.55,1.55,0,0,1,0,.26,2.1,2.1,0,0,1,.31-.62c.12-.19.25-.37.38-.57a.53.53,0,0,1-.44-.1.6.6,0,0,1-.12-.81.56.56,0,0,1,.38-.23.58.58,0,0,1,.43.1.55.55,0,0,1,.23.39,2,2,0,0,1-.5,1.28,2.22,2.22,0,0,0-.53,1.3l-.35.06-.13-.88a3.2,3.2,0,0,0-.29-.77,3.37,3.37,0,0,1-.28-.77,1.35,1.35,0,0,1,.28-1.1,1.58,1.58,0,0,1,1-.54,1.44,1.44,0,0,1,1.09.19,1.26,1.26,0,0,1,.52.9Zm-1.51-2.19a.27.27,0,0,0-.12-.2.31.31,0,0,0-.23-.06.37.37,0,0,0-.2.12.31.31,0,0,0,0,.23.28.28,0,0,0,.12.2.27.27,0,0,0,.23,0,.25.25,0,0,0,.19-.12A.29.29,0,0,0,126.32,140.83Z"/><path class="cls-8" d="M130.05,142.16a.66.66,0,0,1-.14.49.63.63,0,0,1-.44.24.64.64,0,0,1-.52-.16.59.59,0,0,1-.21-.43l-.34-3.3.35,0,.28,2.72a.72.72,0,0,1,.3-.11.67.67,0,0,1,.49.15A.66.66,0,0,1,130.05,142.16Zm-.32,0a.32.32,0,0,0-.12-.22.3.3,0,0,0-.24-.07.33.33,0,0,0-.23.12.3.3,0,0,0-.07.24.35.35,0,0,0,.12.23.34.34,0,0,0,.24.07.35.35,0,0,0,.23-.12A.31.31,0,0,0,129.73,142.19Zm2-.2a.67.67,0,0,1-.14.49.65.65,0,0,1-.45.24.66.66,0,0,1-.73-.6l-.33-3.29.35,0,.28,2.72a.57.57,0,0,1,.3-.11.61.61,0,0,1,.48.15A.63.63,0,0,1,131.74,142Zm-.32,0a.32.32,0,0,0-.12-.22.39.39,0,0,0-.25-.08.3.3,0,0,0-.22.13.31.31,0,0,0-.08.24.29.29,0,0,0,.13.22.32.32,0,0,0,.46,0A.34.34,0,0,0,131.42,142Z"/><path class="cls-8" d="M135.49,141.59c0,.6-.38.92-1.23,1s-1.28-.25-1.31-.86l-.08-1.86a.55.55,0,0,1-.29.08.62.62,0,0,1-.46-.17.63.63,0,0,1-.21-.44.62.62,0,0,1,.17-.47.64.64,0,0,1,.45-.21.62.62,0,0,1,.46.17.66.66,0,0,1,.21.45l.1,2.41c0,.41.34.6.95.58s.9-.25.88-.66l-.12-3h.35Zm-2.6-2.34a.36.36,0,0,0-.11-.23.31.31,0,0,0-.24-.08.33.33,0,0,0-.23.1.36.36,0,0,0-.09.24.34.34,0,0,0,.11.23.32.32,0,0,0,.24.09.3.3,0,0,0,.23-.11A.34.34,0,0,0,132.89,139.25Z"/><path class="cls-8" d="M139.29,142.48h-.35l.06-2.63a.81.81,0,0,0-.33-.73,1.36,1.36,0,0,0-.78-.27,1.13,1.13,0,0,0-.8.29,1,1,0,0,0-.35.75,1.73,1.73,0,0,0,.06.52c.07.29.1.45.11.49a3.24,3.24,0,0,1,.32-.94.84.84,0,0,1,.73-.49.51.51,0,0,1,.4.17.57.57,0,0,1,.15.42.62.62,0,0,1-.18.41.53.53,0,0,1-.42.16.55.55,0,0,1-.44-.24,2.58,2.58,0,0,0-.29.58,2.64,2.64,0,0,0-.19.83v.63h-.36l0-.9a3.09,3.09,0,0,0-.14-.81,3.1,3.1,0,0,1-.14-.8,1.36,1.36,0,0,1,.46-1,1.56,1.56,0,0,1,1.09-.36,1.67,1.67,0,0,1,1,.34,1.09,1.09,0,0,1,.42.95ZM138.23,140a.25.25,0,0,0-.08-.21.35.35,0,0,0-.21-.1.29.29,0,0,0-.22.09.3.3,0,0,0-.1.21.31.31,0,0,0,.09.22.29.29,0,0,0,.21.09.33.33,0,0,0,.22-.08A.29.29,0,0,0,138.23,140Z"/><path class="cls-8" d="M143.36,142.84l-.35,0,.31-3.13c0-.29,0-.44-.24-.46s-.22.06-.32.22l-1.57,3.18-.37,0,.26-2.68a.59.59,0,0,1-.3,0,.58.58,0,0,1-.43-.23.68.68,0,0,1-.15-.47.65.65,0,0,1,.24-.44.63.63,0,0,1,.47-.14.64.64,0,0,1,.58.71l-.19,1.91c0,.29-.08.51-.11.64.05-.13.13-.31.23-.53l1-2a.71.71,0,0,1,.73-.48c.4,0,.57.32.52.84Zm-2.18-3.51a.34.34,0,0,0-.07-.24.35.35,0,0,0-.23-.12.34.34,0,0,0-.24.07.35.35,0,0,0-.12.23.3.3,0,0,0,.07.24.33.33,0,0,0,.23.12.3.3,0,0,0,.24-.07A.35.35,0,0,0,141.18,139.33Z"/><path class="cls-8" d="M144,138.45a6.6,6.6,0,0,0-2-.7,6,6,0,0,0-.77-.05,1,1,0,0,1,.53-.75,1.37,1.37,0,0,1,.92-.16,1.42,1.42,0,0,1,1.11.68l.14-.94.32.05-.23,1.6A2.45,2.45,0,0,1,144,138.45Zm-.33-.42a1.31,1.31,0,0,0-1.06-1,.91.91,0,0,0-1,.39l.46,0A4,4,0,0,1,143.66,138Z"/><path class="cls-8" d="M145.72,142.61a.69.69,0,0,1-.26.44.66.66,0,0,1-.49.11.63.63,0,0,1-.46-.29.64.64,0,0,1-.09-.47l.53-3.27.35.06-.44,2.7a.57.57,0,0,1,.32,0,.67.67,0,0,1,.43.26A.66.66,0,0,1,145.72,142.61Zm-.32-.05a.29.29,0,0,0-.06-.25.3.3,0,0,0-.21-.13.28.28,0,0,0-.25.06.31.31,0,0,0-.14.21.36.36,0,0,0,.06.25.3.3,0,0,0,.22.13.32.32,0,0,0,.25-.05A.34.34,0,0,0,145.4,142.56Z"/><path class="cls-8" d="M148,143.14a.66.66,0,0,1-.27.4.61.61,0,0,1-.5.09.63.63,0,0,1-.41-.28.64.64,0,0,1,.19-.89.62.62,0,0,1,.49-.09.49.49,0,0,1,.27.13l.22-1c.06-.26-.51-.62-1.7-1.09.19-.67.57-.94,1.15-.81a2.46,2.46,0,0,1,.55.22,2.82,2.82,0,0,0,.51.22c.06,0,.14-.05.23-.19l.28.15c-.16.28-.36.4-.59.35a2.64,2.64,0,0,1-.56-.23,2.28,2.28,0,0,0-.54-.23.48.48,0,0,0-.36.08.5.5,0,0,0-.22.27,8.66,8.66,0,0,1,1.14.57c.36.23.52.47.46.74Zm-.31-.07a.33.33,0,0,0-.51-.35.34.34,0,0,0-.14.21.32.32,0,0,0,0,.25.35.35,0,0,0,.46.1A.32.32,0,0,0,147.73,143.07Z"/><path class="cls-8" d="M149.11,139.4a6.25,6.25,0,0,0-2-.91,5.21,5.21,0,0,0-.76-.13,1,1,0,0,1,.61-.7,1.61,1.61,0,0,1,2,.74l.24-.92.31.08-.4,1.57A1.22,1.22,0,0,1,149.11,139.4Zm-.28-.46a1.33,1.33,0,0,0-1-1.06.91.91,0,0,0-1,.28,3.09,3.09,0,0,1,.46.09A4.18,4.18,0,0,1,148.83,138.94Z"/><path class="cls-8" d="M151.7,143.85c-.18.61-.7.79-1.54.53s-1.19-.68-1-1.29l.14-.48a.77.77,0,0,1,.25-.37.66.66,0,0,1,.4-.18.94.94,0,0,1-.22-1.08.86.86,0,0,1,.39-.53.8.8,0,0,1,.65-.06.53.53,0,0,1,.34.28.56.56,0,0,1,0,.42.59.59,0,0,1-.25.33.52.52,0,0,1-.44,0,.5.5,0,0,1-.4-.45.53.53,0,0,0-.05.15.72.72,0,0,0,0,.52.53.53,0,0,0,.36.35l.53.16-.09.32-.55-.17a.49.49,0,0,0-.39,0,.6.6,0,0,0-.26.35l-.13.43c-.12.42.13.73.75.91s1,.07,1.12-.35l.85-2.81.33.1Zm-.8-2.83a.36.36,0,0,0,0-.25.3.3,0,0,0-.2-.14.26.26,0,0,0-.23,0,.32.32,0,0,0-.15.19.3.3,0,0,0,0,.23.32.32,0,0,0,.19.15.33.33,0,0,0,.24,0A.26.26,0,0,0,150.9,141Z"/><path class="cls-11" d="M164.55,26.13c-13.92,5.77-42.73,9.73-76,9.73V211.61a37.76,37.76,0,0,0,13.55,5c19.9-1,36.7-4.09,46.42-8.34,5.55-2.42,8.8-5.2,9-8.17h0l2-49.15L163.06,63l.21-5.08a5.22,5.22,0,0,0,1.61-3.52,4.9,4.9,0,0,0,0-.54h0L170,25.72l.52-2.83A26.69,26.69,0,0,1,164.55,26.13Z"/></g></g></svg>