<svg xmlns="http://www.w3.org/2000/svg" viewBox="0 0 577 267.42"><defs><style>.cls-1{fill:#c5e9ef;}</style></defs><title>Asset 4</title><g id="Layer_2" data-name="Layer 2"><g id="เมฆ1"><path class="cls-1" d="M157.23,105.91A50,50,0,0,0,71.48,86.5c-1.3-.12-2.62-.19-4-.19a41.54,41.54,0,0,0-36,20.78h-.37a31.17,31.17,0,1,0,16.77,57.43,41.61,41.61,0,0,0,39.35-.09,50.07,50.07,0,0,0,47.34-2,31.81,31.81,0,1,0,22.6-56.5Z"/></g><g id="เมฆ2"><path class="cls-1" d="M556.05,225.53a21.28,21.28,0,0,0-3.93.37,26.33,26.33,0,0,0-11.34-9.11,44.29,44.29,0,0,0-86.3-8A29.64,29.64,0,1,0,467.34,255,44.24,44.24,0,0,0,515,262.3a26.33,26.33,0,0,0,29.11,1.39,20.94,20.94,0,1,0,11.92-38.16Z"/></g><g id="เมฆ3"><path class="cls-1" d="M542.94,38.15A18.73,18.73,0,1,0,512.58,16.5,23.49,23.49,0,0,0,467,19.38,33.24,33.24,0,0,0,462.2,19a34.2,34.2,0,1,0,29.14,52.08,25.25,25.25,0,0,0,30-1.1,22,22,0,1,0,21.57-31.86Z"/></g></g></svg>