<svg xmlns="http://www.w3.org/2000/svg" viewBox="0 0 1168 218"><defs><style>.cls-1{fill:#c5e9ef;}</style></defs><title>Asset 15</title><g id="Layer_2" data-name="Layer 2"><g id="พื้นหลัง"><path class="cls-1" d="M1133.64,149.29a35.06,35.06,0,0,0-6.44.61A43.34,43.34,0,0,0,1108.6,135a72.64,72.64,0,0,0-141.54-13.05,48.6,48.6,0,1,0,21.1,75.71,72.54,72.54,0,0,0,78.18,12,43.18,43.18,0,0,0,47.75,2.28,34.35,34.35,0,1,0,19.55-62.59Z"/><path class="cls-1" d="M696.92,33.17a16.28,16.28,0,1,0-26.39-18.82,20.43,20.43,0,0,0-39.61,2.49,30.5,30.5,0,0,0-4.19-.3,29.73,29.73,0,1,0,25.34,45.28,21.95,21.95,0,0,0,26.1-1,19.13,19.13,0,1,0,18.75-27.69Z"/><path class="cls-1" d="M150.94,56A48,48,0,0,0,68.62,37.39c-1.25-.12-2.51-.18-3.79-.18A39.88,39.88,0,0,0,30.28,57.16h-.36A29.92,29.92,0,1,0,46,112.29a39.94,39.94,0,0,0,37.78-.08,48.05,48.05,0,0,0,45.44-1.94A30.54,30.54,0,1,0,150.94,56Z"/><path class="cls-1" d="M695.44,33.17a16.28,16.28,0,1,1,26.39-18.82,20.43,20.43,0,0,1,39.61,2.49,30.5,30.5,0,0,1,4.19-.3A29.73,29.73,0,1,1,740.3,61.82a22,22,0,0,1-26.11-1,19.13,19.13,0,1,1-18.75-27.69Z"/></g></g></svg>