<svg xmlns="http://www.w3.org/2000/svg" xmlns:xlink="http://www.w3.org/1999/xlink" viewBox="0 0 212.35 216.32"><defs><style>.cls-1,.cls-7{fill:none;}.cls-2{fill:#758d8d;}.cls-3{fill:#fff;}.cls-4{fill:#738c8d;}.cls-5{clip-path:url(#clip-path);}.cls-6{clip-path:url(#clip-path-2);}.cls-7{stroke:#fff;stroke-miterlimit:10;stroke-width:2.82px;}</style><clipPath id="clip-path" transform="translate(-0.48)"><path class="cls-1" d="M98.25,12.19,68.09,38.36A47.31,47.31,0,0,0,51.78,74.07h0A54.27,54.27,0,0,0,106,128.33h0a54.28,54.28,0,0,0,54.26-54.26h0A47.18,47.18,0,0,0,144,38.36L113.82,12.19A11.89,11.89,0,0,0,98.25,12.19Z"/></clipPath><clipPath id="clip-path-2" transform="translate(-0.48)"><path class="cls-1" d="M106,31.06c-15.78,0-28.59,5.65-28.59,12.61a5.07,5.07,0,0,0,.08.82l4.21,50.06a10.06,10.06,0,0,0,8.28,9v3.87h32.05v-3.87a10,10,0,0,0,8.28-9l4.2-50.06a5.56,5.56,0,0,0,.09-.82C134.63,36.71,121.81,31.06,106,31.06Z"/></clipPath></defs><title>Asset 6</title><g id="Layer_2" data-name="Layer 2"><g id="ชื่อ"><path class="cls-2" d="M5.12,173.08a3.93,3.93,0,0,1-1-3V154.74a5.24,5.24,0,0,0-.88-3.25,5.6,5.6,0,0,0-2.76-1.78v-3.46h12v3.67H6.74A5,5,0,0,1,9.1,154.6v14.27a1.32,1.32,0,0,0,1.51,1.47h1.26V174H8.47A4.84,4.84,0,0,1,5.12,173.08Z" transform="translate(-0.48)"/><path class="cls-2" d="M14.37,162.29a6.91,6.91,0,0,1,2.31-5.54c1.53-1.31,3.9-2,7.09-2s5.56.66,7.08,2a6.93,6.93,0,0,1,2.29,5.54V174h-5V161.94a3.08,3.08,0,0,0-1.16-2.6,5.21,5.21,0,0,0-3.23-.89,5.26,5.26,0,0,0-3.3.89,3.11,3.11,0,0,0-1.12,2.6v3.4a5.75,5.75,0,0,1,3.47-1.12h2.39l.15,3.74H22.71a5.6,5.6,0,0,0-3.36,1v5h-5Z" transform="translate(-0.48)"/><path class="cls-2" d="M40.2,174.08a13.63,13.63,0,0,1-3-.74v-3.81a16.22,16.22,0,0,0,3,.84,17.09,17.09,0,0,0,3.1.32,12,12,0,0,0,3.54-.37,1.41,1.41,0,0,0,1-1.42,1.52,1.52,0,0,0-.39-1.08,3.18,3.18,0,0,0-1.1-.72c-.48-.2-1.24-.46-2.27-.78l-1.59-.49a13.58,13.58,0,0,1-4.37-2.15,4.07,4.07,0,0,1-1.38-3.27,4.8,4.8,0,0,1,2.12-4.11,10.48,10.48,0,0,1,6.18-1.52,25.2,25.2,0,0,1,3.41.24,18.06,18.06,0,0,1,2.89.6v3.77a13.14,13.14,0,0,0-2.71-.7,19.16,19.16,0,0,0-2.89-.24,9.74,9.74,0,0,0-3.14.4,1.47,1.47,0,0,0-1.14,1.45,1.34,1.34,0,0,0,.77,1.23,18.92,18.92,0,0,0,2.88,1c.44.12,1,.3,1.7.53a17.5,17.5,0,0,1,3.37,1.43A4.78,4.78,0,0,1,52,166.3a5.21,5.21,0,0,1,.58,2.6,4.5,4.5,0,0,1-2.2,4.08,11.58,11.58,0,0,1-6.17,1.38A28.33,28.33,0,0,1,40.2,174.08Z" transform="translate(-0.48)"/><path class="cls-2" d="M59.39,173.83,53.78,160.9h4.83L63,171a4.54,4.54,0,0,0,4-1.75A9,9,0,0,0,68.23,164a10.17,10.17,0,0,0-.42-3.3A2.93,2.93,0,0,0,66.43,159a5.74,5.74,0,0,0-2.66-.51H62.26v-3.35h2.21q4.35,0,6.42,2.16C72.27,158.74,73,161,73,164c0,3.55-.84,6.16-2.54,7.85a9.4,9.4,0,0,1-6.93,2.54A14.15,14.15,0,0,1,59.39,173.83Z" transform="translate(-0.48)"/><path class="cls-2" d="M75.57,168a6.17,6.17,0,0,1,.63-3,3.45,3.45,0,0,1,2.21-1.63l-3.76-.94V158a14.78,14.78,0,0,1,4.26-2.27,16.16,16.16,0,0,1,5.55-.91c3.14,0,5.51.6,7.09,1.8s2.38,3.21,2.38,6V174H89V162.5a4,4,0,0,0-1.08-3.13,5.75,5.75,0,0,0-3.67-.92,9.75,9.75,0,0,0-3,.45,7.37,7.37,0,0,0-2.28,1.16v.49l4.09,1v2.86a3.13,3.13,0,0,0-2,1.14,4.53,4.53,0,0,0-.51,2.43v6h-5Z" transform="translate(-0.48)"/><path class="cls-2" d="M105.32,162.4a4.52,4.52,0,0,0-.83-3,3.88,3.88,0,0,0-3-1,14.67,14.67,0,0,0-2.54.24,14.25,14.25,0,0,0-2.47.67V155.9a13.41,13.41,0,0,1,2.76-.81,16.78,16.78,0,0,1,3.21-.31q4.17,0,6,1.68t1.86,5.28V174h-5Z" transform="translate(-0.48)"/><path class="cls-2" d="M117.36,174.08a13.63,13.63,0,0,1-3-.74v-3.81a16.22,16.22,0,0,0,3,.84,17.09,17.09,0,0,0,3.1.32,12,12,0,0,0,3.54-.37,1.41,1.41,0,0,0,1-1.42,1.52,1.52,0,0,0-.39-1.08,3.18,3.18,0,0,0-1.1-.72c-.48-.2-1.24-.46-2.27-.78l-1.59-.49a13.58,13.58,0,0,1-4.37-2.15,4.07,4.07,0,0,1-1.38-3.27A4.8,4.8,0,0,1,116,156.3a10.48,10.48,0,0,1,6.18-1.52,25.2,25.2,0,0,1,3.41.24,18.06,18.06,0,0,1,2.89.6v3.77a13.14,13.14,0,0,0-2.71-.7,19.16,19.16,0,0,0-2.89-.24,9.74,9.74,0,0,0-3.14.4,1.47,1.47,0,0,0-1.14,1.45,1.34,1.34,0,0,0,.77,1.23,18.92,18.92,0,0,0,2.88,1c.44.12,1,.3,1.7.53a17.5,17.5,0,0,1,3.37,1.43,4.78,4.78,0,0,1,1.8,1.77,5.21,5.21,0,0,1,.58,2.6,4.5,4.5,0,0,1-2.2,4.08,11.58,11.58,0,0,1-6.17,1.38A28.33,28.33,0,0,1,117.36,174.08Z" transform="translate(-0.48)"/><path class="cls-2" d="M133.15,155.13h5v5.73h4.94a3.57,3.57,0,0,0,2.6-.77,3.35,3.35,0,0,0,.76-2.41v-2.55h5v2.37q0,4-2.83,5a3.81,3.81,0,0,1,2.08,1.66,5.75,5.75,0,0,1,.61,2.78v7h-5V167.5a3.42,3.42,0,0,0-.72-2.48,3.77,3.77,0,0,0-2.6-.7h-4.83V174h-5Z" transform="translate(-0.48)"/><path class="cls-2" d="M156.9,172.92a5.24,5.24,0,0,1-1.92-4.51,5.12,5.12,0,0,1,2-4.35,9.59,9.59,0,0,1,5.82-1.52h5.64v-.91a2.77,2.77,0,0,0-1-2.46,6.71,6.71,0,0,0-3.65-.72,22.75,22.75,0,0,0-6.6.94v-3.53a24.18,24.18,0,0,1,3.58-.79,27.05,27.05,0,0,1,3.83-.29c3,0,5.19.6,6.66,1.8s2.19,3,2.19,5.54V174h-5v-8h-5.34a4.77,4.77,0,0,0-2.56.56,2,2,0,0,0-.87,1.85,1.93,1.93,0,0,0,.79,1.79,5.64,5.64,0,0,0,2.75.49,8.83,8.83,0,0,0,2.54-.28v3.46a13.9,13.9,0,0,1-3.87.49A8.12,8.12,0,0,1,156.9,172.92Z" transform="translate(-0.48)"/><path class="cls-2" d="M176.47,173.24v-3.6a13.23,13.23,0,0,0,5.16,1.05q3.51,0,5-1.38c1-.93,1.48-2.51,1.48-4.74s-.5-3.82-1.48-4.74-2.64-1.38-5-1.38a13.23,13.23,0,0,0-5.16,1.05v-3.6a16.75,16.75,0,0,1,6.34-1.12c3.35,0,5.85.82,7.51,2.48s2.48,4.09,2.48,7.31-.83,5.65-2.48,7.3-4.16,2.49-7.51,2.49A16.75,16.75,0,0,1,176.47,173.24Z" transform="translate(-0.48)"/><path class="cls-2" d="M199.26,173.83c-2.25-5.17-3.37-7.76-5.61-12.93h4.83l4.39,10.1a4.55,4.55,0,0,0,4-1.75A9,9,0,0,0,208.1,164a10.17,10.17,0,0,0-.42-3.3A2.93,2.93,0,0,0,206.3,159a5.74,5.74,0,0,0-2.66-.51h-1.51v-3.35h2.21q4.35,0,6.42,2.16t2.06,6.68c0,3.55-.85,6.16-2.54,7.85a9.4,9.4,0,0,1-6.93,2.54A14.1,14.1,0,0,1,199.26,173.83Z" transform="translate(-0.48)"/><path class="cls-2" d="M15.52,214.88a5.25,5.25,0,0,1-1.92-4.51,5.08,5.08,0,0,1,2-4.35,9.59,9.59,0,0,1,5.82-1.52h5.64v-.91a2.79,2.79,0,0,0-1-2.47,6.85,6.85,0,0,0-3.65-.71,22.75,22.75,0,0,0-6.6.94v-3.53a24.18,24.18,0,0,1,3.58-.79,27,27,0,0,1,3.83-.29,15.12,15.12,0,0,1,3.54.35h6.93c-.1,1.44-.15,2.16-.26,3.6H31.18a5.88,5.88,0,0,1,.89,3.39V216h-5v-8H21.75a4.83,4.83,0,0,0-2.57.56,2,2,0,0,0-.86,1.85,1.93,1.93,0,0,0,.79,1.79,5.64,5.64,0,0,0,2.75.49,8.83,8.83,0,0,0,2.54-.28v3.46a14,14,0,0,1-3.87.49A8.12,8.12,0,0,1,15.52,214.88Z" transform="translate(-0.48)"/><path class="cls-2" d="M35.79,215.2v-3.6A13.23,13.23,0,0,0,41,212.65q3.51,0,5-1.39t1.47-4.73q0-3.36-1.47-4.74t-5-1.38a13.23,13.23,0,0,0-5.16,1.05v-3.6a16.75,16.75,0,0,1,6.34-1.12c3.35,0,5.85.82,7.51,2.48s2.48,4.09,2.48,7.31-.83,5.65-2.48,7.3-4.16,2.49-7.51,2.49A17,17,0,0,1,35.79,215.2Z" transform="translate(-0.48)"/><path class="cls-2" d="M57,214.46a6.89,6.89,0,0,1-1.85-5.1V197.09h5v12a3.63,3.63,0,0,0,.89,2.73,3.77,3.77,0,0,0,2.69.84,7.07,7.07,0,0,0,2.71-.56,6.46,6.46,0,0,0,2.15-1.4v-13.6h5V216H69c-.09-.74-.13-1.11-.22-1.86a10.74,10.74,0,0,1-6.71,2.21A6.79,6.79,0,0,1,57,214.46Z" transform="translate(-0.48)"/><path class="cls-2" d="M84,216.16a10.89,10.89,0,0,1-1.68-.37l-2.8-7.1H76.82l.23-3.35h5.64l2.91,7.38a4.29,4.29,0,0,0,3.57-1.54,7.79,7.79,0,0,0,1.22-4.83,8.23,8.23,0,0,0-.63-3.58A3.58,3.58,0,0,0,87.7,201a11.86,11.86,0,0,0-4-.54,24,24,0,0,0-3.19.22,19.66,19.66,0,0,0-3.15.69v-3.5A26.5,26.5,0,0,1,85,196.74q5.31,0,7.72,2.41t2.42,7.2a11,11,0,0,1-1.25,5.4,8.49,8.49,0,0,1-3.36,3.41,9.42,9.42,0,0,1-4.61,1.16A13.48,13.48,0,0,1,84,216.16Z" transform="translate(-0.48)"/><path class="cls-2" d="M78.3,191.28H94.15v3.22H78Z" transform="translate(-0.48)"/><path class="cls-2" d="M100.07,214q-2.26-2.33-2.27-7.08c0-3.29.61-5.8,1.83-7.55a5.81,5.81,0,0,1,5.06-2.62,5.46,5.46,0,0,1,2.4.45,4.2,4.2,0,0,1,1.55,1.33,5,5,0,0,1,2-1.29,7.47,7.47,0,0,1,2.67-.49,4.8,4.8,0,0,1,3.79,1.46,5.79,5.79,0,0,1,1.29,4V216h-5V202.92a3.75,3.75,0,0,0-.37-1.9,1.42,1.42,0,0,0-1.33-.61,1.9,1.9,0,0,0-1.21.4,2.2,2.2,0,0,0-.74,1.21h-2.4a4,4,0,0,0-.81-1.25,1.66,1.66,0,0,0-1.14-.36,2.32,2.32,0,0,0-2.31,1.66,14,14,0,0,0-.64,4.84c0,2.05.37,3.52,1.12,4.41a4.2,4.2,0,0,0,3.38,1.33,8.83,8.83,0,0,0,2.54-.28v3.46a10.43,10.43,0,0,1-3.43.49A8.08,8.08,0,0,1,100.07,214Z" transform="translate(-0.48)"/><path class="cls-2" d="M125.5,216a13.77,13.77,0,0,1-3-.74v-3.81a16.56,16.56,0,0,0,3,.84,17.07,17.07,0,0,0,3.09.32,12,12,0,0,0,3.54-.37,1.4,1.4,0,0,0,1-1.42,1.52,1.52,0,0,0-.38-1.08,3.14,3.14,0,0,0-1.11-.72c-.48-.2-1.23-.46-2.27-.79l-1.58-.48a13.27,13.27,0,0,1-4.37-2.16,4,4,0,0,1-1.38-3.26,4.78,4.78,0,0,1,2.12-4.11,10.47,10.47,0,0,1,6.17-1.52,25,25,0,0,1,3.41.24,18.21,18.21,0,0,1,2.9.6v3.77a13.49,13.49,0,0,0-2.71-.7,19.29,19.29,0,0,0-2.9-.24,9.71,9.71,0,0,0-3.13.4,1.47,1.47,0,0,0-1.14,1.45,1.31,1.31,0,0,0,.77,1.22,17.63,17.63,0,0,0,2.88,1.05c.44.12,1,.29,1.69.53a17,17,0,0,1,3.38,1.43,4.78,4.78,0,0,1,1.8,1.77,5.3,5.3,0,0,1,.57,2.6,4.52,4.52,0,0,1-2.19,4.08,11.6,11.6,0,0,1-6.18,1.38A28.43,28.43,0,0,1,125.5,216Z" transform="translate(-0.48)"/><path class="cls-2" d="M142.59,214.88a5.27,5.27,0,0,1-1.91-4.51,5.1,5.1,0,0,1,2-4.35,9.64,9.64,0,0,1,5.83-1.52h5.64v-.91a2.81,2.81,0,0,0-1-2.47,6.85,6.85,0,0,0-3.65-.71,22.75,22.75,0,0,0-6.6.94v-3.53a24,24,0,0,1,3.57-.79,27.19,27.19,0,0,1,3.84-.29q4.45,0,6.65,1.8c1.46,1.2,2.2,3,2.2,5.54V216h-5v-8h-5.35a4.79,4.79,0,0,0-2.56.56,2,2,0,0,0-.87,1.85,1.93,1.93,0,0,0,.8,1.79,5.62,5.62,0,0,0,2.74.49,9,9,0,0,0,2.55-.28v3.46a14,14,0,0,1-3.87.49A8.15,8.15,0,0,1,142.59,214.88Z" transform="translate(-0.48)"/><path class="cls-2" d="M165,214c-1.52-1.55-2.27-3.91-2.27-7.08s.88-5.74,2.65-7.52,4.35-2.65,7.75-2.65a13.09,13.09,0,0,1,5.65,1.08,7.35,7.35,0,0,1,3.32,2.87,7.51,7.51,0,0,1,1.05,3.88V216h-5V204.88a4.46,4.46,0,0,0-1.17-3.3q-1.15-1.17-4-1.17-5.61,0-5.6,6.5c0,2.05.37,3.52,1.12,4.41a4.2,4.2,0,0,0,3.38,1.33,8.88,8.88,0,0,0,2.54-.28v3.46a10.43,10.43,0,0,1-3.43.49A8.08,8.08,0,0,1,165,214Z" transform="translate(-0.48)"/><path class="cls-2" d="M194.57,204.36a4.47,4.47,0,0,0-.83-3,3.88,3.88,0,0,0-3-1,14.75,14.75,0,0,0-2.54.24,14.5,14.5,0,0,0-2.47.67v-3.46a13.41,13.41,0,0,1,2.76-.81,16.78,16.78,0,0,1,3.21-.31q4.17,0,6,1.67t1.86,5.28V216h-5Z" transform="translate(-0.48)"/></g><g id="โลโก้"><g id="โลโก้โอม"><path class="cls-3" d="M106.16,130.8A56.81,56.81,0,0,1,49.43,74.07,49.75,49.75,0,0,1,66.57,36.5L96.72,10.34a14.36,14.36,0,0,1,18.79,0L145.67,36.5A49.7,49.7,0,0,1,162.8,74.07,56.67,56.67,0,0,1,106.16,130.8Z" transform="translate(-0.48)"/><path class="cls-4" d="M106.16,9.27a11.9,11.9,0,0,1,7.78,2.92L144.1,38.36a47.32,47.32,0,0,1,16.32,35.71h0a54.28,54.28,0,0,1-54.26,54.26h0A54.28,54.28,0,0,1,51.9,74.07h0A47.18,47.18,0,0,1,68.21,38.36L98.37,12.19a11.87,11.87,0,0,1,7.79-2.92m0-4.9a16.81,16.81,0,0,0-11,4.12L65,34.65A52.18,52.18,0,0,0,47,74.12a59.2,59.2,0,0,0,118.4,0,52.18,52.18,0,0,0-18-39.47L117.2,8.49a16.83,16.83,0,0,0-11-4.12Z" transform="translate(-0.48)"/><g class="cls-5"><path class="cls-4" d="M190.61,156c-5.06,2.22-6.84-6.14-12.4-6.14s-5.56,6.38-11.12,6.38-5.56-6.38-11.12-6.38-5.57,6.38-11.13,6.38-5.56-6.38-11.12-6.38-5.56,6.38-11.12,6.38-5.57-6.38-11.09-6.38-5.56,6.38-11.12,6.38-5.56-6.38-11.12-6.38-5.57,6.38-11.13,6.38-5.56-6.38-11.12-6.38-5.56,6.38-11.12,6.38-5.57-6.38-11.13-6.38-5.56,6.38-11.12,6.38-4.74-3.91-9.81-6.13c-2.22-1-4.49.49-4.49-1.94s6.39-2.43,6.39-4.86-6.39-2.43-6.39-4.86,6.39-2.43,6.39-4.86-6.39-2.44-6.39-4.87,6.39-2.43,6.39-4.86-6.39-2.43-6.39-4.86,6.39-2.43,6.39-4.86-6.39-2.43-6.39-4.86,6.39-2.43,6.39-4.86-6.39-2.43-6.39-4.86,6.39-2.43,6.39-4.87-6.39-2.43-6.39-4.86,6.39-2.43,6.39-4.86S19,78.15,21.25,77.16c5.07-2.22,6.84,6.14,12.4,6.14s5.56-6.38,11.12-6.38S50.33,83.3,55.9,83.3,61.46,76.92,67,76.92s5.56,6.38,11.12,6.38,5.56-6.38,11.13-6.38,5.56,6.38,11.08,6.38,5.56-6.38,11.12-6.38S117,83.3,122.6,83.3s5.56-6.38,11.12-6.38,5.56,6.38,11.12,6.38,5.56-6.38,11.13-6.38,5.56,6.38,11.12,6.38,5.56-6.38,11.12-6.38S183,80.83,188,83.06c2.22,1,4.49-.5,4.49,1.93s-6.39,2.43-6.39,4.86,6.39,2.43,6.39,4.86-6.39,2.44-6.39,4.87,6.39,2.43,6.39,4.86-6.39,2.43-6.39,4.86,6.39,2.43,6.39,4.86-6.39,2.43-6.39,4.86,6.39,2.43,6.39,4.86-6.39,2.43-6.39,4.86,6.39,2.43,6.39,4.87-6.39,2.43-6.39,4.86,6.39,2.43,6.39,4.86-7,3.46-6.26,5.81C187.48,153.17,192.84,155,190.61,156Z" transform="translate(-0.48)"/></g><path class="cls-4" d="M77.44,43.55a7.47,7.47,0,0,1,2.76-5.4l-12,6.92A22.26,22.26,0,0,0,60,75.52h0l12.44-7.17a22.4,22.4,0,0,0,6.71-6l-1.65-18A6.46,6.46,0,0,1,77.44,43.55Z" transform="translate(-0.48)"/><path class="cls-4" d="M143.89,45.07l-12-6.92a7.47,7.47,0,0,1,2.76,5.4,4.29,4.29,0,0,1-.09.82l-1.64,18a22.4,22.4,0,0,0,6.71,6l12.44,7.17h0A22.36,22.36,0,0,0,143.89,45.07Z" transform="translate(-0.48)"/><path id="SVGID" class="cls-3" d="M106,31.06c-15.78,0-28.59,5.65-28.59,12.61a5.07,5.07,0,0,0,.08.82l4.21,50.06a10.06,10.06,0,0,0,8.28,9v3.87h32.05v-3.87a10,10,0,0,0,8.28-9l4.2-50.06a5.56,5.56,0,0,0,.09-.82C134.63,36.71,121.81,31.06,106,31.06Z" transform="translate(-0.48)"/><g class="cls-6"><path class="cls-4" d="M85.85,0h0A23.7,23.7,0,0,0,62.2,23.65v36A23.7,23.7,0,0,0,85.85,83.3h0a23.69,23.69,0,0,0,23.64-23.65v-36A23.73,23.73,0,0,0,85.85,0Zm8.69,66c-1.61,0-2.88-.78-2.88-1.77s1.27-1.77,2.88-1.77,2.88.78,2.88,1.77S96.15,66,94.54,66Z" transform="translate(-0.48)"/></g><g class="cls-6"><ellipse class="cls-4" cx="117.05" cy="64.27" rx="2.88" ry="1.77"/></g><path class="cls-4" d="M117,95.58H95a7,7,0,0,0-7,7l0,2c.5,3.79,8.32,7.33,17.88,7.33s17.39-3.58,17.88-7.33h0v-2A6.87,6.87,0,0,0,117,95.58ZM99.57,105.71a2.84,2.84,0,1,1,2.84-2.84A2.85,2.85,0,0,1,99.57,105.71Zm13.34,0a2.84,2.84,0,1,1,2.85-2.84A2.84,2.84,0,0,1,112.91,105.71Z" transform="translate(-0.48)"/><path class="cls-7" d="M117,95.58H95a7,7,0,0,0-7,7l0,2c.5,3.79,8.32,7.33,17.88,7.33s17.39-3.58,17.88-7.33l0-2A6.87,6.87,0,0,0,117,95.58Z" transform="translate(-0.48)"/><path class="cls-3" d="M58.9,88.12a1.2,1.2,0,0,1,.74-.53l3.55-1a1.74,1.74,0,0,0,.82-.5,1.31,1.31,0,0,0,.29-.86L65.37,85l.95,3.46-1.15.33-.38-1.4a1.44,1.44,0,0,1-1.07.91l-3.17.9a.4.4,0,0,0-.29.5l.13.37-1.16.33-.37-1.28A1.1,1.1,0,0,1,58.9,88.12Z" transform="translate(-0.48)"/><path class="cls-3" d="M62.73,90.14a2.18,2.18,0,0,1,1.9,0A3,3,0,0,1,66,91.87a3.33,3.33,0,0,1,.25,2.19,2.26,2.26,0,0,1-1.36,1.31l-3.22,1.32L61,95.09l3.3-1.36a.93.93,0,0,0,.58-.58,1.32,1.32,0,0,0,0-.87,1.07,1.07,0,0,0-.58-.66,1,1,0,0,0-.83,0l-.74.33a1,1,0,0,1,.33.28.83.83,0,0,1,.25.42l.25.57-1.24.54L62,93.15a1.39,1.39,0,0,0-.57-.7L60.14,93l-.66-1.6Z" transform="translate(-0.48)"/><path class="cls-3" d="M62.86,99a3.15,3.15,0,0,1-.25-.91l1.15-.66a4.91,4.91,0,0,0,.21.91,7.26,7.26,0,0,0,.37.82,1.74,1.74,0,0,0,.54.7.3.3,0,0,0,.41,0,.42.42,0,0,0,.2-.37,5.35,5.35,0,0,0-.12-.86l-.08-.41a3.18,3.18,0,0,1,0-1.36A1.36,1.36,0,0,1,66,96a1.54,1.54,0,0,1,1.4-.08,2.85,2.85,0,0,1,1.32,1.36,6.42,6.42,0,0,1,.45.91c.12.33.21.61.29.86l-1.16.66a3.2,3.2,0,0,0-.2-.78,3,3,0,0,0-.33-.74,2.12,2.12,0,0,0-.49-.62c-.17-.13-.29-.17-.46-.08a.33.33,0,0,0-.16.33,3.94,3.94,0,0,0,.12.74,1.73,1.73,0,0,1,0,.2,1.21,1.21,0,0,0,.08.33,3.32,3.32,0,0,1,.09,1.07,1.29,1.29,0,0,1-.21.7,2,2,0,0,1-.62.54,1.41,1.41,0,0,1-1.4.08,3.91,3.91,0,0,1-1.32-1.36C63.19,99.7,63,99.33,62.86,99Z" transform="translate(-0.48)"/><path class="cls-3" d="M66.57,104.85a2,2,0,0,1-.25-.58l2.1-3.62,1,1.32-1.52,2.63a1.22,1.22,0,0,0,1,.46,3,3,0,0,0,1.32-.62,2.13,2.13,0,0,0,.62-.62.67.67,0,0,0,.12-.54,1.68,1.68,0,0,0-.33-.61l-.24-.33,1-.79.45.58c1,1.36.87,2.6-.58,3.71a3,3,0,0,1-2.34.82,2.74,2.74,0,0,1-1.9-1.19A3,3,0,0,1,66.57,104.85Z" transform="translate(-0.48)"/><path class="cls-3" d="M71.06,107.4a1.27,1.27,0,0,1,1.52-.41l-.53-.9,1-1a3.81,3.81,0,0,1,1.4.41,4.32,4.32,0,0,1,1.36.94A3.36,3.36,0,0,1,77,108.35a2.2,2.2,0,0,1-.74,1.81l-2.43,2.48-1.24-1.2L75,109a1.21,1.21,0,0,0,.41-.83,1.57,1.57,0,0,0-.49-.86,2.69,2.69,0,0,0-.62-.45,1.9,1.9,0,0,0-.62-.21l-.08.08.58,1-.62.66a1,1,0,0,0-.62-.12,1.35,1.35,0,0,0-.58.37l-1.27,1.28-1.24-1.2Z" transform="translate(-0.48)"/><path class="cls-3" d="M78.76,112.06a1.25,1.25,0,0,0,.33-.83c0-.24-.16-.45-.49-.7a3.42,3.42,0,0,0-1.32-.61l.74-1a2.62,2.62,0,0,1,.82.29,3.18,3.18,0,0,1,.83.49,2.46,2.46,0,0,1,1.11,1.52,2.2,2.2,0,0,1-.54,1.69l-2.18,2.93-1.36-1Z" transform="translate(-0.48)"/><path class="cls-3" d="M80.08,117.25a3.13,3.13,0,0,1-.66-.66l.7-1.15a3.19,3.19,0,0,0,.62.66,4.25,4.25,0,0,0,.74.53,3.72,3.72,0,0,0,.78.37.33.33,0,0,0,.37-.16.34.34,0,0,0,0-.41,5.18,5.18,0,0,0-.53-.7l-.29-.33a3.34,3.34,0,0,1-.7-1.16,1.49,1.49,0,0,1,.16-1.07,1.51,1.51,0,0,1,1.2-.78,3.23,3.23,0,0,1,1.85.53,6.15,6.15,0,0,1,.83.58,3.63,3.63,0,0,1,.66.62l-.66,1.15a2.62,2.62,0,0,0-.58-.57,4.78,4.78,0,0,0-.66-.5,3,3,0,0,0-.74-.33c-.21,0-.33,0-.41.17a.29.29,0,0,0,0,.37,2.86,2.86,0,0,0,.45.57.51.51,0,0,0,.16.17,2.14,2.14,0,0,0,.21.25,4.17,4.17,0,0,1,.62.9,1.63,1.63,0,0,1,.16.7,1.67,1.67,0,0,1-.28.74,1.37,1.37,0,0,1-1.2.75,3.2,3.2,0,0,1-1.81-.58A6.09,6.09,0,0,1,80.08,117.25Z" transform="translate(-0.48)"/><path class="cls-3" d="M86.84,114.45l1.6.66-.62,1.52,1.12.45a.75.75,0,0,0,.66,0,1.06,1.06,0,0,0,.41-.54l.29-.74,1.6.66-.33.78c-.29.7-.7,1-1.27,1a1.22,1.22,0,0,1,.33.66,1.68,1.68,0,0,1-.17.82l-.82,2L88,121.16l.74-1.81a.83.83,0,0,0,.08-.7.94.94,0,0,0-.53-.41l-1.07-.45-1.07,2.59-1.61-.66Z" transform="translate(-0.48)"/><path class="cls-3" d="M91.82,122.23a1.76,1.76,0,0,1-.21-1.48,1.71,1.71,0,0,1,.91-1.19,2.4,2.4,0,0,1,1.73,0l1.48.37,0-.21a.61.61,0,0,0-.13-.66,2,2,0,0,0-.9-.41,6.13,6.13,0,0,0-2-.17l.29-1.19a5.13,5.13,0,0,1,1.11,0,8.67,8.67,0,0,1,1.19.21c1.73.45,2.43,1.4,2,2.88l-.86,3.46-1.69-.41.57-2.27-1.23-.33a1.29,1.29,0,0,0-.66,0,.49.49,0,0,0-.33.41.53.53,0,0,0,.08.5,1.14,1.14,0,0,0,.58.29,2.1,2.1,0,0,0,.66.08l-.29,1.11a3.11,3.11,0,0,1-1.15-.12A2.37,2.37,0,0,1,91.82,122.23Z" transform="translate(-0.48)"/><path class="cls-3" d="M98,123.76l.12-1.28a2.88,2.88,0,0,0,.75.33,2.66,2.66,0,0,0,.78.17,1.44,1.44,0,0,0,1.89-1.49,1.65,1.65,0,0,0-.24-1.32,1.77,1.77,0,0,0-1.24-.53,4.44,4.44,0,0,0-1.61.16l.13-1.23a5.35,5.35,0,0,1,2-.13c2,.21,2.84,1.32,2.63,3.3s-1.31,2.84-3.29,2.64A5.46,5.46,0,0,1,98,123.76Z" transform="translate(-0.48)"/><path class="cls-3" d="M106.12,124.67l-.62-.13-1.65-3.87,1.69,0,1.19,2.8a1.17,1.17,0,0,0,1-.54,2.59,2.59,0,0,0,.29-1.4,2.42,2.42,0,0,0-.12-.86.75.75,0,0,0-.37-.41,1.56,1.56,0,0,0-.7-.13h-.42l0-1.32h.74c1.73,0,2.6.87,2.64,2.68a3.4,3.4,0,0,1-.74,2.39,2.92,2.92,0,0,1-2.1.83A2.3,2.3,0,0,1,106.12,124.67Z" transform="translate(-0.48)"/><path class="cls-3" d="M111.39,124.05a1.56,1.56,0,0,1-.74-1.28,1.72,1.72,0,0,1,.37-1.44,2.42,2.42,0,0,1,1.56-.74l1.53-.25,0-.21a.69.69,0,0,0-.41-.57,2.15,2.15,0,0,0-1,0,5.73,5.73,0,0,0-1.86.61l-.2-1.23a4.33,4.33,0,0,1,1-.41c.41-.13.78-.21,1.15-.29a4,4,0,0,1,1,0l2.1-.33.12,1.27-.61.09a1.64,1.64,0,0,1,.24.41,1.15,1.15,0,0,1,.13.53l.53,3.42-1.69.29-.37-2.31-1.23.21a1,1,0,0,0-.62.25.54.54,0,0,0-.12.53.73.73,0,0,0,.24.46,1.12,1.12,0,0,0,.66,0,1.66,1.66,0,0,0,.62-.17L114,124a3.76,3.76,0,0,1-1.11.33A2.89,2.89,0,0,1,111.39,124.05Z" transform="translate(-0.48)"/><path class="cls-3" d="M118,122.94l-.37-1.24a5.16,5.16,0,0,0,.78,0,4.68,4.68,0,0,0,.79-.12,2,2,0,0,0,1.15-.74,2,2,0,0,0,0-1.36,1.61,1.61,0,0,0-.78-1.12,2,2,0,0,0-1.36,0,3.66,3.66,0,0,0-1.4.79l-.37-1.2a4.87,4.87,0,0,1,1.77-.91c1.89-.57,3.13.09,3.75,2s-.09,3.13-2,3.75A6.6,6.6,0,0,1,118,122.94Z" transform="translate(-0.48)"/><path class="cls-3" d="M124.49,120.59a2.14,2.14,0,0,1-1.15-1.16L121.73,116l1.57-.74,1.52,3.3c.12.29.29.49.49.53a.84.84,0,0,0,.7-.08,1.65,1.65,0,0,0,.54-.41,1.75,1.75,0,0,0,.33-.54l-1.73-3.7,1.57-.75,2.43,5.24-1.45.66-.28-.42a3.1,3.1,0,0,1-1.45,1.36A1.72,1.72,0,0,1,124.49,120.59Z" transform="translate(-0.48)"/><path class="cls-3" d="M132.32,117a1.54,1.54,0,0,1-.5.17L130.18,116l-.66.46-.66-1.12,1.48-.94,1.85,1.36c.62-.46.62-1.16,0-2.11a3.13,3.13,0,0,0-.65-.74,1.16,1.16,0,0,0-.75-.12,3.13,3.13,0,0,0-1,.45,9.13,9.13,0,0,0-.74.58,6.61,6.61,0,0,0-.7.7l-.66-1a6.7,6.7,0,0,1,.79-.82,5.16,5.16,0,0,1,.94-.75,3.19,3.19,0,0,1,2.35-.66,3.67,3.67,0,0,1,2.39,3,2.49,2.49,0,0,1-.29,1.45,2.51,2.51,0,0,1-.94,1C132.69,116.88,132.52,117,132.32,117Z" transform="translate(-0.48)"/><path class="cls-3" d="M126.72,111.85l3.83-2.88.7,1-3.88,2.92Z" transform="translate(-0.48)"/><path class="cls-3" d="M136.36,113.46a3.16,3.16,0,0,1-1.94-1.15,4.17,4.17,0,0,1-1.15-2.11,1.82,1.82,0,0,1,.57-1.6,2.26,2.26,0,0,1,.62-.37,1,1,0,0,1,.62,0,1.66,1.66,0,0,1,.2-.7,1.8,1.8,0,0,1,.5-.62,1.49,1.49,0,0,1,1.15-.45,1.74,1.74,0,0,1,1.07.66l2.8,3.17-1.27,1.15-2.6-2.92a1.2,1.2,0,0,0-.41-.33.31.31,0,0,0-.33.08.63.63,0,0,0-.16.29.64.64,0,0,0,.08.37l-.5.41a3,3,0,0,0-.37-.12.59.59,0,0,0-.29.12c-.2.16-.2.41-.08.7a4.56,4.56,0,0,0,.79,1.11,1.93,1.93,0,0,0,1,.7,1.07,1.07,0,0,0,.87-.29A2.44,2.44,0,0,0,138,111l.78.91a3.07,3.07,0,0,1-.65.82A2.14,2.14,0,0,1,136.36,113.46Z" transform="translate(-0.48)"/><path class="cls-3" d="M142.58,108.35a2.78,2.78,0,0,1-.79.54l-1-.87a6.13,6.13,0,0,0,.79-.49,5.7,5.7,0,0,0,.66-.62,2.36,2.36,0,0,0,.49-.74.38.38,0,0,0-.08-.41.37.37,0,0,0-.41-.09,2.78,2.78,0,0,0-.79.42l-.37.24a3.26,3.26,0,0,1-1.28.5,1.33,1.33,0,0,1-1-.37,1.6,1.6,0,0,1-.57-1.32,3.32,3.32,0,0,1,.82-1.73c.21-.25.46-.5.7-.74a3.58,3.58,0,0,1,.7-.54l1,.87a3.1,3.1,0,0,0-.66.45,3.45,3.45,0,0,0-.57.58,4,4,0,0,0-.46.65.37.37,0,0,0,.09.46.31.31,0,0,0,.37,0,5.55,5.55,0,0,0,.66-.33.87.87,0,0,1,.2-.12l.29-.17a4.61,4.61,0,0,1,1-.45,1.41,1.41,0,0,1,.7,0,1.74,1.74,0,0,1,.7.41,1.5,1.5,0,0,1,.54,1.32,3.09,3.09,0,0,1-.87,1.69A6.13,6.13,0,0,1,142.58,108.35Z" transform="translate(-0.48)"/><path class="cls-3" d="M145.75,103.86a1.67,1.67,0,0,1-1.48-.29,1.64,1.64,0,0,1-.83-1.23,2.72,2.72,0,0,1,.5-1.65l.82-1.28-.16-.12a.65.65,0,0,0-.66-.09,1.8,1.8,0,0,0-.7.71,5.36,5.36,0,0,0-.79,1.81l-1-.66a7.62,7.62,0,0,1,.37-1,9.11,9.11,0,0,1,.58-1.07c1-1.49,2.1-1.86,3.38-1l3,1.94-.95,1.44-2-1.28-.7,1.07a1.25,1.25,0,0,0-.25.62.53.53,0,0,0,.29.45c.21.13.37.17.5.08a1.55,1.55,0,0,0,.45-.45,1.93,1.93,0,0,0,.29-.58l1,.62a4,4,0,0,1-.5,1A2.07,2.07,0,0,1,145.75,103.86Z" transform="translate(-0.48)"/><path class="cls-3" d="M149.29,97.6a3,3,0,0,1-2.22-.29,3.21,3.21,0,0,1-1.82-1.69,3.17,3.17,0,0,1,.21-2.47,4.23,4.23,0,0,1,1-1.4,2.08,2.08,0,0,1,1.19-.54,2.34,2.34,0,0,1,1.2.21L152,92.86l-.7,1.57-3.05-1.36a1.35,1.35,0,0,0-.95-.13c-.28.09-.49.33-.7.79a1.17,1.17,0,0,0,0,1.15,2.21,2.21,0,0,0,1.16.86A2,2,0,0,0,149,96a1.05,1.05,0,0,0,.66-.62,1.94,1.94,0,0,0,.21-.66l1.11.5a2.7,2.7,0,0,1-.29,1A2.23,2.23,0,0,1,149.29,97.6Z" transform="translate(-0.48)"/><path class="cls-3" d="M149.79,88.37a1.32,1.32,0,0,0-.87,0,1,1,0,0,0-.49.7,4,4,0,0,0-.13,1.44l-1.15-.33a3.08,3.08,0,0,1,0-.86,6.72,6.72,0,0,1,.16-1,2.61,2.61,0,0,1,1-1.57,2.35,2.35,0,0,1,1.78-.08l3.5,1-.5,1.65Z" transform="translate(-0.48)"/></g></g></g></svg>