<svg xmlns="http://www.w3.org/2000/svg" xmlns:xlink="http://www.w3.org/1999/xlink" viewBox="0 0 102.03 63.34"><defs><style>.cls-1{fill:#e97625;}.cls-2{fill:#333;}.cls-3{fill:#3c6868;}.cls-4{fill:#434264;}.cls-5{clip-path:url(#clip-path);}.cls-6{fill:#fccf05;}.cls-7{fill:#9baa93;}</style><clipPath id="clip-path"><rect class="cls-1" x="50.82" y="24.2" width="40.12" height="26.88" rx="11.4" transform="translate(141.75 75.28) rotate(180)"/></clipPath></defs><title>Asset 10</title><g id="Layer_2" data-name="Layer 2"><g id="มอไซ"><circle class="cls-2" cx="21.59" cy="44.49" r="18.85"/><circle class="cls-2" cx="88.59" cy="51.08" r="11.74"/><path class="cls-3" d="M21.59,54.24h5.35a2.54,2.54,0,0,1-2.53-2.53h0a2.53,2.53,0,0,1,2.53-2.52H56.69a2.53,2.53,0,0,1,2.53,2.52h0a2.54,2.54,0,0,1-2.53,2.53H41.13a2.83,2.83,0,0,0-2.82,2.82h0a2.83,2.83,0,0,0,1.1,2.24H21.59a2.54,2.54,0,0,1-2.53-2.53h0A2.54,2.54,0,0,1,21.59,54.24Z"/><rect class="cls-4" x="20.55" y="33.14" width="23.75" height="4.96" rx="2.1" transform="translate(64.84 71.24) rotate(180)"/><rect class="cls-4" x="11.16" y="23.75" width="23.75" height="4.96" rx="2.1" transform="translate(49.25 3.2) rotate(90)"/><path class="cls-3" d="M64.65,43H59.3a2.54,2.54,0,0,1,2.53,2.53h0a2.54,2.54,0,0,1-2.53,2.53H29.55A2.54,2.54,0,0,1,27,45.55h0A2.54,2.54,0,0,1,29.55,43H45.11a2.83,2.83,0,0,0,2.82-2.82h0A2.79,2.79,0,0,0,46.83,38H64.65a2.53,2.53,0,0,1,2.53,2.52h0A2.54,2.54,0,0,1,64.65,43Z"/><path class="cls-4" d="M73.52,12.13H80a0,0,0,0,1,0,0V21.5a2.77,2.77,0,0,1-2.77,2.77h-1a2.77,2.77,0,0,1-2.77-2.77V12.13a0,0,0,0,1,0,0Z" transform="translate(153.56 36.4) rotate(-180)"/><path class="cls-4" d="M76.62,0h4.07V2.87h-1.4a1.07,1.07,0,0,0-1.07,1.07v8.19H75.35V1.28A1.28,1.28,0,0,1,76.62,0Z"/><rect class="cls-4" x="45.99" y="14.22" width="1.17" height="11.61" rx="0.5" transform="translate(65.35 67.12) rotate(-135)"/><rect class="cls-4" x="49.01" y="16.96" width="0.61" height="6" rx="0.26" transform="translate(98.63 39.92) rotate(-180)"/><rect class="cls-4" x="46.27" y="19.83" width="0.61" height="6" rx="0.26" transform="matrix(0, 1, -1, 0, 69.41, -23.75)"/><rect class="cls-4" x="49.9" y="18.14" width="1.17" height="11.61" rx="0.5" transform="translate(103.12 5.17) rotate(135)"/><rect class="cls-1" x="50.82" y="24.2" width="40.12" height="26.88" rx="11.4" transform="translate(141.75 75.28) rotate(180)"/><g class="cls-5"><rect class="cls-6" x="81.22" y="29.22" width="11.35" height="17.35" rx="4.81" transform="translate(173.78 75.8) rotate(-180)"/><rect class="cls-6" x="49.06" y="29.03" width="26.35" height="14.09" rx="5.98" transform="translate(124.47 72.15) rotate(-180)"/></g><rect class="cls-4" x="18.79" y="44.16" width="72.02" height="7.96" rx="3.38" transform="translate(109.59 96.29) rotate(-180)"/><path class="cls-1" d="M5.77,28.73A20.49,20.49,0,0,1,39.34,44.49H18.85Z"/><path class="cls-6" d="M39.34,44.49a20.49,20.49,0,0,0-36-13.35L2.09,29.77h0A22.31,22.31,0,0,1,41.16,44.49a21.9,21.9,0,0,1-.21,3H39.11A20.36,20.36,0,0,0,39.34,44.49Z"/><circle class="cls-4" cx="18.85" cy="44.49" r="18.85"/><circle class="cls-7" cx="18.89" cy="44.59" r="10.68"/><circle class="cls-3" cx="18.89" cy="44.59" r="9.69"/><circle class="cls-4" cx="90.28" cy="51.08" r="11.74"/><circle class="cls-7" cx="90.35" cy="51.14" r="6.65"/><circle class="cls-3" cx="90.35" cy="51.14" r="5.61"/></g></g></svg>