<svg xmlns="http://www.w3.org/2000/svg" viewBox="0 0 128.55 80.74"><defs><style>.cls-1,.cls-6,.cls-8{fill:#fff;}.cls-1{opacity:0.4;}.cls-2{fill:#fff3db;}.cls-3{fill:#fae4a9;}.cls-10,.cls-4{fill:#94bdc8;}.cls-5{fill:#c5e5eb;}.cls-6{opacity:0.33;}.cls-7{fill:#be744b;}.cls-8{opacity:0.15;}.cls-9{fill:#e2a07a;}.cls-10{opacity:0.37;}.cls-11{fill:#434264;}.cls-12{fill:#f3995d;}.cls-13{fill:#e97625;}.cls-14{fill:#9aa993;}.cls-15{fill:#3d6968;}.cls-16{fill:#c58363;}.cls-17{fill:#d0651e;}.cls-18{fill:#e5894b;}.cls-19{fill:#d6ecf4;}.cls-20{fill:#925337;}.cls-21{fill:#cd6622;}.cls-22{fill:#f8bc92;}.cls-23{fill:#a6ced2;}.cls-24{fill:#acdbe3;}.cls-25{fill:#1f1f37;opacity:0.5;}</style></defs><title>Asset 8</title><g id="Layer_2" data-name="Layer 2"><g id="รถกระบะ"><rect class="cls-1" x="92.21" y="61.8" width="26.91" height="7.97"/><path class="cls-2" d="M57,24.1a.28.28,0,0,0,0,.09c0,1,4.12,1.88,9.2,1.88s9.2-.84,9.2-1.88a.28.28,0,0,0,0-.09,11.42,11.42,0,0,1,1,4.64V56.58c0,1.21-4.55,2.2-10.17,2.2S56,57.79,56,56.58V28.74A11.42,11.42,0,0,1,57,24.1Z"/><path class="cls-3" d="M75.37,24.1,75.31,24A.35.35,0,0,1,75.37,24.1Z"/><path class="cls-3" d="M66.18,26.07c-5.08,0-9.2-.84-9.2-1.88a.28.28,0,0,1,0-.09l.06-.14c.57-.92,4.44-1.64,9.13-1.64S74.73,23,75.31,24l.06.14a.28.28,0,0,1,0,.09C75.38,25.23,71.26,26.07,66.18,26.07Z"/><path class="cls-4" d="M58.18,22l.75-1a6.76,6.76,0,0,0,1.3-4V13.58a18.87,18.87,0,0,0,6,.74,18.87,18.87,0,0,0,5.95-.74V17a6.75,6.75,0,0,0,1.29,4l.76,1A10.87,10.87,0,0,1,75.31,24c-.58-.92-4.44-1.64-9.13-1.64S57.62,23,57.05,24A10.87,10.87,0,0,1,58.18,22Z"/><path class="cls-5" d="M59.49,15.81V13H72.86v2.85a6.94,6.94,0,0,0,1.46,4.25l.85,1.1a11.57,11.57,0,0,1,2.44,7.1V57.81H54.75V28.26a11.57,11.57,0,0,1,2.44-7.1l.85-1.1A6.93,6.93,0,0,0,59.49,15.81Z"/><ellipse class="cls-5" cx="66.18" cy="57.81" rx="11.43" ry="2.32"/><ellipse class="cls-4" cx="66.18" cy="57.13" rx="10.17" ry="2.07"/><path class="cls-2" d="M57,24.1a.28.28,0,0,0,0,.09c0,1,4.12,1.88,9.2,1.88s9.2-.84,9.2-1.88a.28.28,0,0,0,0-.09,11.42,11.42,0,0,1,1,4.64V56.58c0,1.21-4.55,2.2-10.17,2.2S56,57.79,56,56.58V28.74A11.42,11.42,0,0,1,57,24.1Z"/><path class="cls-4" d="M66.18,22.32c-4.69,0-8.56.72-9.13,1.64A10.87,10.87,0,0,1,58.18,22l.75-1a6.76,6.76,0,0,0,1.3-4V13h11.9V17a6.75,6.75,0,0,0,1.29,4l.76,1A10.87,10.87,0,0,1,75.31,24C74.73,23,70.87,22.32,66.18,22.32Z"/><path class="cls-3" d="M75.37,24.1,75.31,24A.35.35,0,0,1,75.37,24.1Z"/><path class="cls-3" d="M66.18,26.07c-5.08,0-9.2-.84-9.2-1.88a.28.28,0,0,1,0-.09l.06-.14c.57-.92,4.44-1.64,9.13-1.64S74.73,23,75.31,24l.06.14a.28.28,0,0,1,0,.09C75.38,25.23,71.26,26.07,66.18,26.07Z"/><path class="cls-6" d="M57.19,21.16l.85-1.1a6.93,6.93,0,0,0,1.45-4.25V13h7.17v2.85a6.88,6.88,0,0,1-1.46,4.25l-.85,1.1a11.56,11.56,0,0,0-2.43,7.1V57.81c0,1,3.29,1.9,7.84,2.2-1.12.08-2.33.12-3.58.12-6.31,0-11.43-1-11.43-2.32V28.26A11.57,11.57,0,0,1,57.19,21.16Z"/><path class="cls-7" d="M72.47,8.9,71.12,18c0,.56-2.21,1-4.94,1s-4.94-.44-4.94-1L59.88,8.9Z"/><path class="cls-8" d="M64,8.9,65.31,18c0,.41,1.19.76,2.91.92-.63.05-1.31.08-2,.08-2.73,0-4.94-.44-4.94-1L59.88,8.9Z"/><ellipse class="cls-9" cx="66.18" cy="8.9" rx="6.3" ry="1.28"/><path class="cls-5" d="M60.37,12.29l.09.67c0,.48,2.56.87,5.72.87s5.71-.39,5.71-.87l.1-.67c.55.19.87.42.87.67,0,.75-3,1.36-6.68,1.36s-6.69-.61-6.69-1.36C59.49,12.71,59.81,12.48,60.37,12.29Z"/><path class="cls-10" d="M74.94,23.62l-.29-.16c-.16-.07-.34-.15-.55-.22l-.45-.14c-.32-.09-.68-.17-1.07-.25s-1-.18-1.6-.25l-.72-.08-.76-.07-.79-.05-.82,0-.42,0H64.88l-.42,0-.82,0h-.13a11.26,11.26,0,0,1,.84-1.24l.85-1.1a6.88,6.88,0,0,0,1.46-4.25v-1.5a17.83,17.83,0,0,0,5.47-.73V17a6.75,6.75,0,0,0,1.29,4l.76,1A10.87,10.87,0,0,1,75.31,24,1.13,1.13,0,0,0,74.94,23.62Z"/><path class="cls-6" d="M65.2,20.06l-.85,1.1a11.26,11.26,0,0,0-.84,1.24l-.65.05-.76.07c-.49.05-1,.1-1.4.17l-.63.1-.58.12L59,23a3.35,3.35,0,0,0-1.9.92A10.87,10.87,0,0,1,58.18,22l.75-1a6.76,6.76,0,0,0,1.3-4V13.58a18.87,18.87,0,0,0,6,.74h.48v1.5A6.88,6.88,0,0,1,65.2,20.06Z"/><path class="cls-2" d="M31,24.1a.28.28,0,0,0,0,.09c0,1,4.12,1.88,9.2,1.88s9.2-.84,9.2-1.88a.28.28,0,0,0,0-.09,11.42,11.42,0,0,1,1,4.64V56.58c0,1.21-4.55,2.2-10.17,2.2S30,57.79,30,56.58V28.74A11.42,11.42,0,0,1,31,24.1Z"/><path class="cls-3" d="M49.39,24.1,49.33,24A.35.35,0,0,1,49.39,24.1Z"/><path class="cls-3" d="M40.2,26.07c-5.08,0-9.2-.84-9.2-1.88a.28.28,0,0,1,0-.09l.06-.14c.58-.92,4.45-1.64,9.13-1.64S48.76,23,49.33,24l.06.14a.28.28,0,0,1,0,.09C49.4,25.23,45.28,26.07,40.2,26.07Z"/><path class="cls-4" d="M32.2,22,33,21a6.76,6.76,0,0,0,1.3-4V13.58a18.75,18.75,0,0,0,5.94.74,18.82,18.82,0,0,0,5.95-.74V17a6.76,6.76,0,0,0,1.3,4l.75,1A10.87,10.87,0,0,1,49.33,24c-.57-.92-4.44-1.64-9.13-1.64S31.65,23,31.07,24A10.87,10.87,0,0,1,32.2,22Z"/><path class="cls-5" d="M33.52,15.81V13H46.89v2.85a6.93,6.93,0,0,0,1.45,4.25l.86,1.1a11.62,11.62,0,0,1,2.43,7.1V57.81H28.77V28.26a11.57,11.57,0,0,1,2.44-7.1l.85-1.1A6.88,6.88,0,0,0,33.52,15.81Z"/><ellipse class="cls-5" cx="40.2" cy="57.81" rx="11.43" ry="2.32"/><ellipse class="cls-4" cx="40.2" cy="57.13" rx="10.17" ry="2.07"/><path class="cls-2" d="M31,24.1a.28.28,0,0,0,0,.09c0,1,4.12,1.88,9.2,1.88s9.2-.84,9.2-1.88a.28.28,0,0,0,0-.09,11.42,11.42,0,0,1,1,4.64V56.58c0,1.21-4.55,2.2-10.17,2.2S30,57.79,30,56.58V28.74A11.42,11.42,0,0,1,31,24.1Z"/><path class="cls-4" d="M40.2,22.32c-4.68,0-8.55.72-9.13,1.64A10.87,10.87,0,0,1,32.2,22L33,21a6.76,6.76,0,0,0,1.3-4V13H46.15V17a6.76,6.76,0,0,0,1.3,4l.75,1A10.87,10.87,0,0,1,49.33,24C48.76,23,44.89,22.32,40.2,22.32Z"/><path class="cls-3" d="M49.39,24.1,49.33,24A.35.35,0,0,1,49.39,24.1Z"/><path class="cls-3" d="M40.2,26.07c-5.08,0-9.2-.84-9.2-1.88a.28.28,0,0,1,0-.09l.06-.14c.58-.92,4.45-1.64,9.13-1.64S48.76,23,49.33,24l.06.14a.28.28,0,0,1,0,.09C49.4,25.23,45.28,26.07,40.2,26.07Z"/><path class="cls-6" d="M31.21,21.16l.85-1.1a6.88,6.88,0,0,0,1.46-4.25V13h7.17v2.85a6.94,6.94,0,0,1-1.46,4.25l-.85,1.1a11.57,11.57,0,0,0-2.44,7.1V57.81c0,1,3.29,1.9,7.85,2.2-1.13.08-2.34.12-3.59.12-6.31,0-11.43-1-11.43-2.32V28.26A11.57,11.57,0,0,1,31.21,21.16Z"/><path class="cls-7" d="M46.5,8.9,45.14,18c0,.56-2.21,1-4.94,1s-4.94-.44-4.94-1L33.91,8.9Z"/><path class="cls-8" d="M38,8.9,39.34,18c0,.41,1.19.76,2.9.92-.62.05-1.31.08-2,.08-2.72,0-4.94-.44-4.94-1L33.91,8.9Z"/><ellipse class="cls-9" cx="40.2" cy="8.9" rx="6.3" ry="1.28"/><path class="cls-5" d="M34.4,12.29l.09.67c0,.48,2.56.87,5.71.87s5.72-.39,5.72-.87l.09-.67c.56.19.88.42.88.67,0,.75-3,1.36-6.69,1.36s-6.68-.61-6.68-1.36C33.52,12.71,33.84,12.48,34.4,12.29Z"/><path class="cls-10" d="M49,23.62l-.29-.16c-.16-.07-.35-.15-.56-.22l-.45-.14c-.32-.09-.67-.17-1.06-.25s-1-.18-1.61-.25l-.72-.08-.75-.07-.79-.05-.82,0-.42,0H38.91l-.42,0-.82,0h-.14a13,13,0,0,1,.85-1.24l.85-1.1a6.94,6.94,0,0,0,1.46-4.25v-1.5a17.81,17.81,0,0,0,5.46-.73V17a6.76,6.76,0,0,0,1.3,4l.75,1A10.87,10.87,0,0,1,49.33,24,1.08,1.08,0,0,0,49,23.62Z"/><path class="cls-6" d="M39.23,20.06l-.85,1.1a13,13,0,0,0-.85,1.24l-.65.05-.76.07c-.49.05-1,.1-1.39.17l-.63.1-.59.12L33,23a3.42,3.42,0,0,0-1.91.92A10.87,10.87,0,0,1,32.2,22L33,21a6.76,6.76,0,0,0,1.3-4V13.58a18.75,18.75,0,0,0,5.94.74h.49v1.5A6.94,6.94,0,0,1,39.23,20.06Z"/><path class="cls-2" d="M5.37,24.1a.28.28,0,0,0,0,.09c0,1,4.12,1.88,9.2,1.88s9.2-.84,9.2-1.88a.28.28,0,0,0,0-.09,11.42,11.42,0,0,1,1,4.64V56.58c0,1.21-4.55,2.2-10.17,2.2s-10.17-1-10.17-2.2V28.74A11.42,11.42,0,0,1,5.37,24.1Z"/><path class="cls-3" d="M23.75,24.1,23.69,24A.35.35,0,0,1,23.75,24.1Z"/><path class="cls-3" d="M14.56,26.07c-5.08,0-9.2-.84-9.2-1.88a.28.28,0,0,1,0-.09L5.43,24C6,23,9.87,22.32,14.56,22.32S23.12,23,23.69,24l.06.14a.28.28,0,0,1,0,.09C23.76,25.23,19.64,26.07,14.56,26.07Z"/><path class="cls-4" d="M6.56,22l.75-1a6.69,6.69,0,0,0,1.3-4V13.58a18.87,18.87,0,0,0,6,.74,18.87,18.87,0,0,0,6-.74V17a6.75,6.75,0,0,0,1.29,4l.76,1A10.87,10.87,0,0,1,23.69,24c-.57-.92-4.44-1.64-9.13-1.64S6,23,5.43,24A10.87,10.87,0,0,1,6.56,22Z"/><path class="cls-5" d="M7.88,15.81V13H21.24v2.85a6.94,6.94,0,0,0,1.46,4.25l.85,1.1A11.57,11.57,0,0,1,26,28.26V57.81H3.13V28.26a11.57,11.57,0,0,1,2.44-7.1l.85-1.1A6.94,6.94,0,0,0,7.88,15.81Z"/><ellipse class="cls-5" cx="14.56" cy="57.81" rx="11.43" ry="2.32"/><ellipse class="cls-4" cx="14.56" cy="57.13" rx="10.17" ry="2.07"/><path class="cls-2" d="M5.37,24.1a.28.28,0,0,0,0,.09c0,1,4.12,1.88,9.2,1.88s9.2-.84,9.2-1.88a.28.28,0,0,0,0-.09,11.42,11.42,0,0,1,1,4.64V56.58c0,1.21-4.55,2.2-10.17,2.2s-10.17-1-10.17-2.2V28.74A11.42,11.42,0,0,1,5.37,24.1Z"/><path class="cls-4" d="M14.56,22.32C9.87,22.32,6,23,5.43,24A10.87,10.87,0,0,1,6.56,22l.75-1a6.69,6.69,0,0,0,1.3-4V13h11.9V17a6.75,6.75,0,0,0,1.29,4l.76,1A10.87,10.87,0,0,1,23.69,24C23.12,23,19.25,22.32,14.56,22.32Z"/><path class="cls-3" d="M23.75,24.1,23.69,24A.35.35,0,0,1,23.75,24.1Z"/><path class="cls-3" d="M14.56,26.07c-5.08,0-9.2-.84-9.2-1.88a.28.28,0,0,1,0-.09L5.43,24C6,23,9.87,22.32,14.56,22.32S23.12,23,23.69,24l.06.14a.28.28,0,0,1,0,.09C23.76,25.23,19.64,26.07,14.56,26.07Z"/><path class="cls-6" d="M5.57,21.16l.85-1.1a6.94,6.94,0,0,0,1.46-4.25V13H15v2.85a6.93,6.93,0,0,1-1.45,4.25l-.86,1.1a11.62,11.62,0,0,0-2.43,7.1V57.81c0,1,3.29,1.9,7.84,2.2-1.12.08-2.33.12-3.58.12-6.31,0-11.43-1-11.43-2.32V28.26A11.57,11.57,0,0,1,5.57,21.16Z"/><path class="cls-7" d="M20.86,8.9,19.5,18c0,.56-2.21,1-4.94,1s-4.94-.44-4.94-1L8.26,8.9Z"/><path class="cls-8" d="M12.34,8.9,13.7,18c0,.41,1.19.76,2.9.92-.62.05-1.31.08-2,.08-2.73,0-4.94-.44-4.94-1L8.26,8.9Z"/><ellipse class="cls-9" cx="14.56" cy="8.9" rx="6.3" ry="1.28"/><path class="cls-5" d="M8.75,12.29l.09.67c0,.48,2.56.87,5.72.87s5.71-.39,5.71-.87l.1-.67c.55.19.87.42.87.67,0,.75-3,1.36-6.68,1.36S7.88,13.71,7.88,13C7.88,12.71,8.2,12.48,8.75,12.29Z"/><path class="cls-10" d="M23.32,23.62,23,23.46c-.16-.07-.34-.15-.55-.22L22,23.1c-.32-.09-.67-.17-1.06-.25s-1-.18-1.61-.25l-.72-.08-.76-.07-.79-.05-.82,0-.42,0H13.26l-.42,0-.81,0h-.14a12.85,12.85,0,0,1,.84-1.24l.86-1.1A6.93,6.93,0,0,0,15,15.81v-1.5a17.83,17.83,0,0,0,5.47-.73V17a6.75,6.75,0,0,0,1.29,4l.76,1A10.87,10.87,0,0,1,23.69,24,1.13,1.13,0,0,0,23.32,23.62Z"/><path class="cls-6" d="M13.59,20.06l-.86,1.1a12.85,12.85,0,0,0-.84,1.24l-.65.05-.76.07c-.49.05-1,.1-1.4.17l-.63.1-.58.12L7.33,23a3.38,3.38,0,0,0-1.9.92A10.87,10.87,0,0,1,6.56,22l.75-1a6.69,6.69,0,0,0,1.3-4V13.58a18.87,18.87,0,0,0,6,.74H15v1.5A6.93,6.93,0,0,1,13.59,20.06Z"/><rect class="cls-11" x="51.17" y="58.37" width="74.8" height="8.92" transform="translate(177.14 125.65) rotate(-180)"/><polygon class="cls-5" points="85.44 43.5 125.97 43.5 116.58 3.6 85.44 3.6 85.44 43.5"/><polygon class="cls-12" points="116.66 3.68 126.04 43.58 121.82 43.58 112.43 3.68 116.66 3.68"/><rect class="cls-7" x="1.64" y="33.17" width="79.8" height="10.33" transform="translate(83.09 76.68) rotate(-180)"/><rect class="cls-7" x="1.56" y="45.38" width="79.8" height="10.33" transform="translate(82.93 101.09) rotate(-180)"/><rect class="cls-7" x="1.56" y="57.58" width="79.8" height="10.33" transform="translate(82.93 125.5) rotate(-180)"/><rect class="cls-13" x="85.44" y="3.76" width="4.85" height="39.75" transform="translate(175.73 47.26) rotate(-180)"/><circle class="cls-11" cx="105.94" cy="66.66" r="14.08"/><circle class="cls-14" cx="106.02" cy="66.74" r="7.98"/><circle class="cls-15" cx="106.02" cy="66.74" r="6.73"/><rect class="cls-9" x="77.68" y="33.17" width="3.69" height="34.74" transform="translate(159.05 101.09) rotate(-180)"/><rect class="cls-9" x="62.46" y="33.17" width="3.69" height="34.74" transform="translate(128.6 101.09) rotate(-180)"/><rect class="cls-9" x="47.23" y="33.17" width="3.69" height="34.74" transform="translate(98.16 101.09) rotate(-180)"/><rect class="cls-9" x="32.01" y="33.17" width="3.69" height="34.74" transform="translate(67.71 101.09) rotate(-180)"/><rect class="cls-9" x="16.79" y="33.17" width="3.69" height="34.74" transform="translate(37.27 101.09) rotate(-180)"/><rect class="cls-9" x="1.56" y="33.17" width="3.69" height="34.74" transform="translate(6.82 101.09) rotate(-180)"/><rect class="cls-4" x="64.08" y="61.73" width="15.02" height="12.36" transform="translate(143.18 135.82) rotate(-180)"/><rect class="cls-9" y="33.17" width="82.93" height="5.01" transform="translate(82.93 71.35) rotate(-180)"/><circle class="cls-11" cx="48.35" cy="66.66" r="14.08"/><circle class="cls-14" cx="48.43" cy="66.74" r="7.98"/><circle class="cls-15" cx="48.43" cy="66.74" r="6.73"/><circle class="cls-11" cx="19.09" cy="66.66" r="14.08"/><circle class="cls-14" cx="19.17" cy="66.74" r="7.98"/><circle class="cls-15" cx="19.17" cy="66.74" r="6.73"/><path class="cls-12" d="M87.66,0h31a0,0,0,0,1,0,0V5.16a0,0,0,0,1,0,0h-31a2.38,2.38,0,0,1-2.38-2.38v-.4A2.38,2.38,0,0,1,87.66,0Z" transform="translate(203.89 5.16) rotate(180)"/><rect class="cls-1" x="86.23" y="1" width="29.91" height="1" rx="0.5"/><rect class="cls-1" x="1.5" y="33.89" width="79.75" height="1"/><rect class="cls-16" x="1.56" y="38.18" width="3.69" height="0.61"/><rect class="cls-16" x="16.79" y="38.18" width="3.69" height="0.61"/><rect class="cls-16" x="32.01" y="38.18" width="3.69" height="0.61"/><polyline class="cls-16" points="47.23 38.18 50.92 38.18 50.92 38.88 47.23 38.88 47.23 38.18"/><rect class="cls-16" x="62.46" y="38.18" width="3.72" height="0.7"/><rect class="cls-16" x="77.68" y="38.18" width="3.69" height="0.7"/><circle class="cls-1" cx="12.96" cy="57.32" r="1.5"/><circle class="cls-1" cx="41.87" cy="57.32" r="1.5"/><circle class="cls-1" cx="99.68" cy="57.32" r="1.5"/><rect class="cls-17" x="85.48" y="5.16" width="4.81" height="3.74"/><polygon class="cls-18" points="112.78 5.16 117 5.16 117.83 8.9 113.66 8.9 112.78 5.16"/><rect class="cls-19" x="93.2" y="14.95" width="18.94" height="1.99" rx="1" transform="translate(14.87 71.51) rotate(-41.16)"/><rect class="cls-19" x="93.2" y="22.93" width="18.94" height="1.99" rx="1" transform="translate(9.63 73.49) rotate(-41.16)"/><rect class="cls-20" x="5.26" y="38.34" width="11.53" height="1.72"/><rect class="cls-20" x="20.48" y="38.34" width="11.53" height="1.72"/><rect class="cls-20" x="35.7" y="38.34" width="11.53" height="1.72"/><rect class="cls-20" x="50.92" y="38.34" width="11.53" height="1.72"/><rect class="cls-20" x="66.18" y="38.34" width="11.5" height="1.72"/><path class="cls-13" d="M85.43,67.91V39.2h36.69A6.25,6.25,0,0,1,126.87,42h0a16,16,0,0,1,1.67,7.13V51.9a16,16,0,0,1-16,16Z"/><path class="cls-21" d="M85.43,39.2v-6h27.11A16,16,0,0,1,126.87,42a6.25,6.25,0,0,0-4.75-2.84Z"/><path class="cls-12" d="M128.55,36.63V40.7a3.61,3.61,0,0,0-3.61-3.61H85.43v-3.2H126.1s1.87.66,2.34,1.86c0,.06,0,.11,0,.16s0,.23.05.35S128.55,36.5,128.55,36.63Z"/><path class="cls-22" d="M124.94,33a3.61,3.61,0,0,1,3.5,2.74c-.47-1.2-2.34-1.86-2.34-1.86H85.43V33Z"/><polygon class="cls-23" points="113.72 9.15 90.29 9.15 90.29 5.16 112.78 5.16 113.72 9.15"/><rect class="cls-24" x="64.08" y="61.73" width="15.02" height="3.27"/><path class="cls-25" d="M91.91,67.91H120s-.25,1.75-.35,2.15H92.27S92,68.57,91.91,67.91Z"/></g></g></svg>