<svg xmlns="http://www.w3.org/2000/svg" viewBox="0 0 74.3 74.3"><defs><style>.cls-1{fill:#e97625;}.cls-2{fill:#b7591a;}.cls-3{fill:#f18f4d;}.cls-4{fill:#b65f2c;}</style></defs><title>Asset 9</title><g id="Layer_2" data-name="Layer 2"><g id="โรงงานนม"><g id="โรงงานนม-2" data-name="โรงงานนม"><path class="cls-1" d="M69.24,36.13c1.38,1.55,0,2.35,0,2.35h0c0-.35,0-.71,0-1.08s0-.86,0-1.27Z" transform="translate(-0.25 -0.25)"/><path class="cls-1" d="M69.21,36.13c0,.41,0,.84,0,1.27s0,.73,0,1.08H45a7.48,7.48,0,0,0,.08-1.07A6.49,6.49,0,0,0,45,36.14H69.21Z" transform="translate(-0.25 -0.25)"/><path class="cls-1" d="M37.4.25A37.15,37.15,0,1,1,.25,37.4,37.15,37.15,0,0,1,37.4.25ZM71.77,37.31A34.37,34.37,0,1,0,37.4,71.68,34.37,34.37,0,0,0,71.77,37.31Z" transform="translate(-0.25 -0.25)"/><path class="cls-2" d="M37.4,2.94A34.37,34.37,0,1,1,3,37.31,34.37,34.37,0,0,1,37.4,2.94ZM69.24,38.48s1.38-.8,0-2.35h0a31.77,31.77,0,0,0-8.54-20.47h0C60.87,13.22,59,14,59,14l0,0A31.62,31.62,0,0,0,38.4,5.58v0c-.9-1.4-2.37,0-2.37,0v0a31.73,31.73,0,0,0-20.36,8.54l0,0c-2.1-.4-1.66,1.68-1.66,1.68h0A31.78,31.78,0,0,0,5.58,36.3h0s-1.9,1,0,2.37h0a31.83,31.83,0,0,0,8.55,20.46h0a1.4,1.4,0,0,0,1.67,1.68l0,0a31.71,31.71,0,0,0,20.4,8.42v0s.82,1.06,2.36,0v0a31.71,31.71,0,0,0,20.54-8.55l0,0s1.78.71,1.68-1.68l0,0a31.6,31.6,0,0,0,8.42-20.51Z" transform="translate(-0.25 -0.25)"/><path class="cls-1" d="M60.82,59c.1,2.39-1.68,1.68-1.68,1.68l0,0c.58-.52,1.14-1.09,1.67-1.67Z" transform="translate(-0.25 -0.25)"/><path class="cls-1" d="M60.79,59c-.53.58-1.09,1.15-1.67,1.67L42.05,43.59l0-.08a6.9,6.9,0,0,0,1.63-1.65l.09.07Z" transform="translate(-0.25 -0.25)"/><path class="cls-1" d="M59,14s1.85-.77,1.66,1.66h0Q59.86,14.79,59,14Z" transform="translate(-0.25 -0.25)"/><path class="cls-1" d="M60.67,15.66,43.59,32.75l-.07,0a7.23,7.23,0,0,0-1.67-1.64l.07-.08L59,14Q59.86,14.79,60.67,15.66Z" transform="translate(-0.25 -0.25)"/><path class="cls-3" d="M45,36.14a6.49,6.49,0,0,1,.12,1.26A7.48,7.48,0,0,1,45,38.47a7.57,7.57,0,0,1-1.36,3.39A6.9,6.9,0,0,1,42,43.51,7.23,7.23,0,0,1,38.56,45a6.34,6.34,0,0,1-1.16.09,5.66,5.66,0,0,1-1.17-.1,7.55,7.55,0,0,1-4.95-3,7.23,7.23,0,0,1-1.44-3.34,7.38,7.38,0,0,1-.11-1.26,5.56,5.56,0,0,1,.09-1.08,7.3,7.3,0,0,1,1.35-3.38,7.14,7.14,0,0,1,1.63-1.66A7.56,7.56,0,0,1,36,29.87a6.82,6.82,0,0,1,1.36-.13,8,8,0,0,1,1,.06,7.57,7.57,0,0,1,3.46,1.36,7.72,7.72,0,0,1,3.1,5Zm-3,2A4.89,4.89,0,1,0,37,43,4.88,4.88,0,0,0,41.92,38.12Z" transform="translate(-0.25 -0.25)"/><path class="cls-4" d="M37,33.23a4.89,4.89,0,1,1-4.89,4.89A4.88,4.88,0,0,1,37,33.23Zm4.2,4.17a3.84,3.84,0,1,0-3.84,3.83A3.83,3.83,0,0,0,41.24,37.4Z" transform="translate(-0.25 -0.25)"/><path class="cls-1" d="M37.4,33.57a3.83,3.83,0,1,1-3.84,3.83A3.83,3.83,0,0,1,37.4,33.57Z" transform="translate(-0.25 -0.25)"/><path class="cls-1" d="M38.58,69.21v0c-1.54,1.06-2.36,0-2.36,0v0l1.18,0Z" transform="translate(-0.25 -0.25)"/><path class="cls-1" d="M38.58,45.06V69.21l-1.18,0-1.18,0V45a5.66,5.66,0,0,0,1.17.1A6.34,6.34,0,0,0,38.56,45Z" transform="translate(-0.25 -0.25)"/><path class="cls-1" d="M38.4,5.58V29.8a8,8,0,0,0-1-.06,6.82,6.82,0,0,0-1.36.13V5.59c.45,0,.91,0,1.37,0S38.07,5.56,38.4,5.58Z" transform="translate(-0.25 -0.25)"/><path class="cls-1" d="M38.4,5.56v0c-.33,0-.67,0-1,0s-.92,0-1.37,0v0S37.5,4.16,38.4,5.56Z" transform="translate(-0.25 -0.25)"/><path class="cls-1" d="M32.94,43.63l-.06.08L15.82,60.79c-.58-.52-1.15-1.08-1.69-1.66L31.2,42.05l.08,0A7.33,7.33,0,0,0,32.94,43.63Z" transform="translate(-0.25 -0.25)"/><path class="cls-1" d="M32.75,31.21l0,.07a7.14,7.14,0,0,0-1.63,1.66l-.09-.06L14,15.8c.53-.58,1.09-1.13,1.67-1.67Z" transform="translate(-0.25 -0.25)"/><path class="cls-1" d="M29.84,38.66H5.58c0-.41,0-.84,0-1.27s0-.73,0-1.1H29.73l.09,0a5.56,5.56,0,0,0-.09,1.08A7.38,7.38,0,0,0,29.84,38.66Z" transform="translate(-0.25 -0.25)"/><path class="cls-1" d="M15.82,60.79l0,0a1.4,1.4,0,0,1-1.67-1.68h0C14.67,59.71,15.24,60.27,15.82,60.79Z" transform="translate(-0.25 -0.25)"/><path class="cls-1" d="M15.67,14.13c-.58.54-1.14,1.09-1.67,1.67h0s-.44-2.08,1.66-1.68Z" transform="translate(-0.25 -0.25)"/><path class="cls-1" d="M5.56,37.4c0,.43,0,.86,0,1.27h0c-1.9-1.37,0-2.37,0-2.37h0C5.56,36.67,5.56,37,5.56,37.4Z" transform="translate(-0.25 -0.25)"/></g></g></g></svg>