<svg xmlns="http://www.w3.org/2000/svg" viewBox="0 0 178 134.36"><defs><style>.cls-1{fill:#c8cc71;opacity:0.75;}.cls-2{fill:#604f2b;}.cls-3{fill:#77663c;}.cls-4{fill:#9b8043;}.cls-5{fill:#96804e;}.cls-6{fill:#ba9e67;}.cls-7{fill:#634f28;}.cls-8{fill:#cca75e;}.cls-9{fill:#423118;}.cls-10{fill:#f9dea0;}.cls-11{fill:#fff;}</style></defs><title>Asset 20</title><g id="Layer_2" data-name="Layer 2"><g id="ป้ายประวัติ"><polygon class="cls-1" points="178 134.36 2 134.36 29 120.36 152 120.36 178 134.36"/><path class="cls-2" d="M98,5.19v119a4.74,4.74,0,0,1-2.91,4,5.26,5.26,0,0,1-1.87.34H91c2.21-.82,3.72-2.47,3.72-4.39V5.19c0-2.25-2.08-4.14-4.92-4.74A9.68,9.68,0,0,1,91.43.26C95.08.35,98,2.53,98,5.19Z" transform="translate(-0.25 -0.25)"/><path class="cls-3" d="M98.53,5.59V123.23a5.3,5.3,0,0,1-3.46,5,4.74,4.74,0,0,0,2.91-4V5.19C98,2.53,95.08.35,91.43.26H93.2A5.33,5.33,0,0,1,98.53,5.59Z" transform="translate(-0.25 -0.25)"/><path class="cls-3" d="M84.88,124.17V5.19c0-2.25,2.07-4.14,4.91-4.74,2.84.6,4.92,2.49,4.92,4.74v119c0,1.92-1.51,3.57-3.72,4.39H88.6C86.39,127.74,84.88,126.09,84.88,124.17Z" transform="translate(-0.25 -0.25)"/><path class="cls-3" d="M89.79.45A9.56,9.56,0,0,0,88.16.26h3.27A9.68,9.68,0,0,0,89.79.45Z" transform="translate(-0.25 -0.25)"/><path class="cls-2" d="M81.6,5.19c0-2.66,2.91-4.84,6.56-4.93a9.56,9.56,0,0,1,1.63.19c-2.84.6-4.91,2.49-4.91,4.74v119c0,1.92,1.51,3.57,3.72,4.39H86.4a5.16,5.16,0,0,1-1.89-.35,4.73,4.73,0,0,1-2.91-4Z" transform="translate(-0.25 -0.25)"/><path class="cls-3" d="M88.16.26C84.51.35,81.6,2.53,81.6,5.19v119a4.73,4.73,0,0,0,2.91,4,5.31,5.31,0,0,1-3.45-5V5.59A5.34,5.34,0,0,1,86.4.25h1.76Z" transform="translate(-0.25 -0.25)"/><rect class="cls-4" x="62.22" y="30.83" width="52.14" height="0.82" rx="0.37" transform="translate(119.28 -57.3) rotate(90)"/><rect class="cls-4" x="65.5" y="48.3" width="52.14" height="0.82" rx="0.37" transform="translate(140.03 -43.11) rotate(90)"/><rect class="cls-4" x="62.22" y="97.44" width="52.14" height="0.82" rx="0.37" transform="translate(185.9 9.31) rotate(90)"/><path class="cls-5" d="M178.25,74.23a6.81,6.81,0,0,0-5.46-6.68v-.09a6.24,6.24,0,0,1,5.46,6.2Z" transform="translate(-0.25 -0.25)"/><path class="cls-3" d="M172.79,67.46v.09a6.18,6.18,0,0,0-1.37-.14H172A7,7,0,0,1,172.79,67.46Z" transform="translate(-0.25 -0.25)"/><path class="cls-5" d="M178.25,18.57a6.23,6.23,0,0,1-5.46,6.19v-.09A6.81,6.81,0,0,0,178.25,18Z" transform="translate(-0.25 -0.25)"/><path class="cls-5" d="M171.42,24.82a6.19,6.19,0,0,0,1.37-.15v.09a7,7,0,0,1-.79.06Z" transform="translate(-0.25 -0.25)"/><path class="cls-5" d="M170.6,43.88V62.55a.49.49,0,0,1-.5.49H170a.5.5,0,0,1-.5-.49V43.88a.51.51,0,0,1,.5-.5h.09A.5.5,0,0,1,170.6,43.88Z" transform="translate(-0.25 -0.25)"/><path class="cls-5" d="M166,47.53V28.32a.51.51,0,0,1,.5-.5h1.18a.5.5,0,0,1,.51.5V47.53a.5.5,0,0,1-.51.49h-1.18A.5.5,0,0,1,166,47.53Z" transform="translate(-0.25 -0.25)"/><path class="cls-5" d="M167.87,59.27a.49.49,0,0,1-.5.49h-.63a.49.49,0,0,1-.5-.49V55.9a.5.5,0,0,1,.5-.51h.63a.5.5,0,0,1,.5.51Z" transform="translate(-0.25 -0.25)"/><path class="cls-3" d="M170.6,62.55V43.88a.5.5,0,0,0-.5-.5H170a.51.51,0,0,0-.5.5V62.55a.5.5,0,0,0,.5.49h.09A.49.49,0,0,0,170.6,62.55ZM166.46,48h1.18a.5.5,0,0,0,.51-.49V28.32a.5.5,0,0,0-.51-.5h-1.18a.51.51,0,0,0-.5.5V47.53A.5.5,0,0,0,166.46,48Zm.91,7.37h-.63a.5.5,0,0,0-.5.51v3.37a.49.49,0,0,0,.5.49h.63a.49.49,0,0,0,.5-.49V55.9A.5.5,0,0,0,167.37,55.39Zm5.42-30.63v42.7a7,7,0,0,0-.79,0h-8.5V24.82H172A7,7,0,0,0,172.79,24.76Z" transform="translate(-0.25 -0.25)"/><path class="cls-6" d="M171.42,67.41a6.18,6.18,0,0,1,1.37.14v1h-12V67.41h10.65Z" transform="translate(-0.25 -0.25)"/><rect class="cls-7" x="160.53" y="24.57" width="2.73" height="42.59"/><path class="cls-3" d="M172.79,23.72v1a6.19,6.19,0,0,1-1.37.15H160.77v-1.1Z" transform="translate(-0.25 -0.25)"/><path class="cls-5" d="M171.42,70.68a6.84,6.84,0,0,1,6.82,6.55c0-.08,0-.17,0-.27v.58A6.25,6.25,0,0,1,172,83.79h-.81V80.51a.5.5,0,0,0,.51-.49V78.83a.5.5,0,0,0-.51-.5h-12V76.14a.49.49,0,0,0,.5-.49V74.46a.5.5,0,0,0-.5-.5V70.68Z" transform="translate(-0.25 -0.25)"/><path class="cls-8" d="M159.18,76.14H140a.5.5,0,0,1-.5-.49V74.46a.51.51,0,0,1,.5-.5h19.2a.5.5,0,0,1,.5.5v1.19A.49.49,0,0,1,159.18,76.14Z" transform="translate(-0.25 -0.25)"/><path class="cls-8" d="M169,15H119.23a.5.5,0,0,1-.5-.49V13.31a.51.51,0,0,1,.5-.51H169a.5.5,0,0,1,.5.51V14.5A.49.49,0,0,1,169,15Z" transform="translate(-0.25 -0.25)"/><path class="cls-8" d="M171.7,78.83V80a.5.5,0,0,1-.51.49H67.91a.5.5,0,0,1-.5-.49V78.83a.5.5,0,0,1,.5-.5H171.19A.5.5,0,0,1,171.7,78.83Z" transform="translate(-0.25 -0.25)"/><path class="cls-8" d="M148.76,17.67v1.19a.5.5,0,0,1-.5.5H45a.5.5,0,0,1-.51-.5V17.67a.51.51,0,0,1,.51-.5H148.26A.5.5,0,0,1,148.76,17.67Z" transform="translate(-0.25 -0.25)"/><path class="cls-5" d="M57,78.93V77.74a.5.5,0,0,0-.5-.51H6.76a.51.51,0,0,0-.51.51v1.19a.5.5,0,0,0,.51.49H56.53A.49.49,0,0,0,57,78.93Zm74.26-4.37V73.37a.5.5,0,0,0-.5-.5H27.5a.5.5,0,0,0-.5.5v1.19a.5.5,0,0,0,.5.49H130.79A.49.49,0,0,0,131.29,74.56Zm27.89-3.88V74H140a.51.51,0,0,0-.5.5v1.19a.5.5,0,0,0,.5.49h19.2v2.19H67.91a.5.5,0,0,0-.5.5V80a.5.5,0,0,0,.5.49H171.19v3.28H6.5A6.25,6.25,0,0,1,.25,77.54V77a2.13,2.13,0,0,0,0,.27,6.82,6.82,0,0,1,6.8-6.55Z" transform="translate(-0.25 -0.25)"/><path class="cls-8" d="M131.29,73.37v1.19a.49.49,0,0,1-.5.49H27.5a.5.5,0,0,1-.5-.49V73.37a.5.5,0,0,1,.5-.5H130.79A.5.5,0,0,1,131.29,73.37Z" transform="translate(-0.25 -0.25)"/><rect class="cls-9" x="17.47" y="24.57" width="143.06" height="42.59"/><path class="cls-8" d="M36.28,16.58v1.19a.48.48,0,0,1-.5.49H16.58a.49.49,0,0,1-.5-.49V16.58a.51.51,0,0,1,.5-.5h19.2A.5.5,0,0,1,36.28,16.58Z" transform="translate(-0.25 -0.25)"/><path class="cls-6" d="M5.71,67.55a6,6,0,0,1,1.36-.14H15V68.5H5.71Z" transform="translate(-0.25 -0.25)"/><polygon class="cls-7" points="17.47 24.57 17.47 67.16 14.74 67.16 14.74 58.2 14.74 24.57 17.47 24.57"/><path class="cls-5" d="M12.26,49.34v9.11a.49.49,0,0,1-.5.49H11.4a.5.5,0,0,1-.51-.49V49.34a.48.48,0,0,1,.16-.35.46.46,0,0,1,.35-.15h.36A.5.5,0,0,1,12.26,49.34Z" transform="translate(-0.25 -0.25)"/><path class="cls-3" d="M15,24.82V58.45H12.26V49.34a.5.5,0,0,0-.5-.5H11.4a.46.46,0,0,0-.35.15L9.57,47.75a.5.5,0,0,0,.51-.49V28.59a.5.5,0,0,0-.51-.5V24.82Z" transform="translate(-0.25 -0.25)"/><path class="cls-5" d="M9,47.26V28.59a.51.51,0,0,1,.51-.5h.08a.5.5,0,0,1,.51.5V47.26a.5.5,0,0,1-.51.49H9.49A.5.5,0,0,1,9,47.26Z" transform="translate(-0.25 -0.25)"/><path class="cls-8" d="M57,77.74v1.19a.49.49,0,0,1-.5.49H6.76a.5.5,0,0,1-.51-.49V77.74a.51.51,0,0,1,.51-.51H56.53A.5.5,0,0,1,57,77.74Z" transform="translate(-0.25 -0.25)"/><path class="cls-3" d="M5.71,67.55v-.09a6.84,6.84,0,0,1,.79,0h.57A6,6,0,0,0,5.71,67.55Z" transform="translate(-0.25 -0.25)"/><path class="cls-3" d="M7.07,24.82h2.5v3.27H9.49a.51.51,0,0,0-.51.5V47.26a.5.5,0,0,0,.51.49h.08L11.05,49a.48.48,0,0,0-.16.35v9.11a.5.5,0,0,0,.51.49h.36a.49.49,0,0,0,.5-.49H15v9H6.5a6.84,6.84,0,0,0-.79,0V24.76a6.83,6.83,0,0,0,.79.06Z" transform="translate(-0.25 -0.25)"/><path class="cls-5" d="M5.71,24.76v-.09a6,6,0,0,0,1.36.15H6.5A6.83,6.83,0,0,1,5.71,24.76Z" transform="translate(-0.25 -0.25)"/><path class="cls-3" d="M17.72,23.72v1.1H7.07a6,6,0,0,1-1.36-.15v-1Z" transform="translate(-0.25 -0.25)"/><path class="cls-5" d="M36.28,17.77V16.58a.5.5,0,0,0-.5-.5H16.58a.51.51,0,0,0-.5.5v1.19a.49.49,0,0,0,.5.49h19.2A.48.48,0,0,0,36.28,17.77ZM6.5,8.44H172a6.25,6.25,0,0,1,6.25,6.25v.57c0-.09,0-.17,0-.27a6.82,6.82,0,0,1-6.82,6.55H7.07A6.8,6.8,0,0,1,.27,15a2.65,2.65,0,0,0,0,.27v-.57A6.25,6.25,0,0,1,6.5,8.44Zm101.86,5V12.21a.5.5,0,0,0-.5-.5H4.57a.51.51,0,0,0-.5.5V13.4a.5.5,0,0,0,.5.5H107.86A.5.5,0,0,0,108.36,13.4Zm40.4,5.46V17.67a.5.5,0,0,0-.5-.5H45a.51.51,0,0,0-.51.5v1.19a.5.5,0,0,0,.51.5H148.26A.5.5,0,0,0,148.76,18.86ZM119.23,15H169a.49.49,0,0,0,.5-.49V13.31a.5.5,0,0,0-.5-.51H119.23a.51.51,0,0,0-.5.51V14.5A.5.5,0,0,0,119.23,15Z" transform="translate(-0.25 -0.25)"/><path class="cls-8" d="M108.36,12.21V13.4a.5.5,0,0,1-.5.5H4.57a.5.5,0,0,1-.5-.5V12.21a.51.51,0,0,1,.5-.5H107.86A.5.5,0,0,1,108.36,12.21Z" transform="translate(-0.25 -0.25)"/><path class="cls-5" d="M.25,18a6.81,6.81,0,0,0,5.46,6.68v.09A6.24,6.24,0,0,1,.25,18.57Z" transform="translate(-0.25 -0.25)"/><path class="cls-6" d="M172.79,67.55a6.81,6.81,0,0,1,5.46,6.68V77c0,.1,0,.19,0,.27a6.84,6.84,0,0,0-6.82-6.55H7.07a6.82,6.82,0,0,0-6.8,6.55,2.13,2.13,0,0,1,0-.27V74.23a6.81,6.81,0,0,1,5.46-6.68v1h12V67.41H160.77V68.5h12Z" transform="translate(-0.25 -0.25)"/><path class="cls-5" d="M.25,73.66a6.25,6.25,0,0,1,5.46-6.2v.09A6.81,6.81,0,0,0,.25,74.23Z" transform="translate(-0.25 -0.25)"/><path class="cls-3" d="M172.79,24.67v-1h-12v1.1h-143v-1.1h-12v1A6.81,6.81,0,0,1,.25,18V15.26a2.65,2.65,0,0,1,0-.27,6.8,6.8,0,0,0,6.8,6.55H171.42A6.82,6.82,0,0,0,178.24,15c0,.1,0,.18,0,.27V18A6.81,6.81,0,0,1,172.79,24.67Z" transform="translate(-0.25 -0.25)"/><path class="cls-10" d="M11,12.65a2.53,2.53,0,1,1-2.53,2.53A2.53,2.53,0,0,1,11,12.65Z" transform="translate(-0.25 -0.25)"/><path class="cls-2" d="M13.51,15.18A2.53,2.53,0,1,0,11,17.71,2.53,2.53,0,0,0,13.51,15.18ZM11,10.63a4.56,4.56,0,1,1-4.56,4.55A4.54,4.54,0,0,1,11,10.63Z" transform="translate(-0.25 -0.25)"/><path class="cls-10" d="M9.89,74.89a2.53,2.53,0,1,1-2.54,2.54A2.54,2.54,0,0,1,9.89,74.89Z" transform="translate(-0.25 -0.25)"/><path class="cls-2" d="M12.42,77.43A2.54,2.54,0,1,0,9.89,80,2.54,2.54,0,0,0,12.42,77.43Zm-7.08,0A4.56,4.56,0,1,1,9.89,82,4.56,4.56,0,0,1,5.34,77.43Z" transform="translate(-0.25 -0.25)"/><path class="cls-10" d="M165.7,15.18a2.53,2.53,0,1,1,2.54,2.53A2.54,2.54,0,0,1,165.7,15.18Z" transform="translate(-0.25 -0.25)"/><path class="cls-2" d="M165.7,15.18a2.53,2.53,0,1,0,2.54-2.54A2.54,2.54,0,0,0,165.7,15.18Zm-2,0a4.56,4.56,0,1,1,4.56,4.56A4.56,4.56,0,0,1,163.68,15.18Z" transform="translate(-0.25 -0.25)"/><path class="cls-10" d="M164.61,77.43A2.54,2.54,0,1,1,167.14,80,2.53,2.53,0,0,1,164.61,77.43Z" transform="translate(-0.25 -0.25)"/><path class="cls-2" d="M162.58,77.43A4.56,4.56,0,1,1,167.14,82,4.56,4.56,0,0,1,162.58,77.43Zm2,0a2.54,2.54,0,1,0,2.53-2.53A2.52,2.52,0,0,0,164.61,77.43Z" transform="translate(-0.25 -0.25)"/><path class="cls-11" d="M48.84,56.33a6.46,6.46,0,0,1-2.13-5.25v-10H51V51.14a3.7,3.7,0,0,0,1,2.8,4,4,0,0,0,2.89.92,4,4,0,0,0,2.88-.92,3.66,3.66,0,0,0,1-2.8v-15h4.26v15a6.46,6.46,0,0,1-2.13,5.25,9.06,9.06,0,0,1-6,1.78A9.07,9.07,0,0,1,48.84,56.33Z" transform="translate(-0.25 -0.25)"/><path class="cls-11" d="M69,57.86a11.22,11.22,0,0,1-2.61-.65V53.84a14,14,0,0,0,2.59.74,13.83,13.83,0,0,0,2.65.28,9.66,9.66,0,0,0,3-.33,1.23,1.23,0,0,0,.89-1.25,1.38,1.38,0,0,0-.33-1,2.68,2.68,0,0,0-.95-.64c-.41-.17-1.06-.41-1.94-.7L71,50.55a11.18,11.18,0,0,1-3.74-1.91,3.65,3.65,0,0,1-1.19-2.9,4.32,4.32,0,0,1,1.82-3.64,8.77,8.77,0,0,1,5.29-1.35,21.06,21.06,0,0,1,2.92.22,15.26,15.26,0,0,1,2.48.53v3.35a10.39,10.39,0,0,0-2.32-.62A15.07,15.07,0,0,0,73.77,44a8.39,8.39,0,0,0-2.69.35,1.3,1.3,0,0,0-1,1.29,1.18,1.18,0,0,0,.66,1.09,16,16,0,0,0,2.46.93c.38.1.86.26,1.45.46a14.46,14.46,0,0,1,2.89,1.27A4.22,4.22,0,0,1,79.12,51a4.82,4.82,0,0,1,.49,2.31,4,4,0,0,1-1.88,3.61,9.63,9.63,0,0,1-5.29,1.22A22,22,0,0,1,69,57.86Z" transform="translate(-0.25 -0.25)"/><path class="cls-11" d="M81.94,43.23h3.6v1.52h4.39l-.13,3.07H81.94Zm0,8.31h3.6v1.52h4.39l-.13,3.07H81.94Z" transform="translate(-0.25 -0.25)"/><path class="cls-11" d="M91.64,57.12V53.93a11,11,0,0,0,4.42.93q3,0,4.26-1.23t1.26-4.2q0-3-1.26-4.2c-.84-.81-2.26-1.22-4.26-1.22a11,11,0,0,0-4.42.93V41.75a13.73,13.73,0,0,1,5.43-1c2.86,0,5,.74,6.42,2.2s2.13,3.63,2.13,6.48-.71,5-2.13,6.48-3.56,2.2-6.42,2.2A13.92,13.92,0,0,1,91.64,57.12Z" transform="translate(-0.25 -0.25)"/><path class="cls-11" d="M96.56,33.84H100v2.08h7.86l-.15,2.85H96.56Z" transform="translate(-0.25 -0.25)"/><path class="cls-11" d="M109.58,56.05q-1.93-2.05-1.94-6.28a12,12,0,0,1,1.56-6.69,5,5,0,0,1,4.35-2.33,4.5,4.5,0,0,1,2,.41,3.68,3.68,0,0,1,1.32,1.17,4.48,4.48,0,0,1,1.76-1.14,6.24,6.24,0,0,1,2.28-.44,4,4,0,0,1,3.26,1.31,5.29,5.29,0,0,1,1.1,3.53V57.8h-4.26V46.24a3.48,3.48,0,0,0-.32-1.69,1.2,1.2,0,0,0-1.13-.54,1.68,1.68,0,0,0-1,.35,2.06,2.06,0,0,0-.63,1.07h-2.05a3.6,3.6,0,0,0-.69-1.1,1.41,1.41,0,0,0-1-.32,2,2,0,0,0-2,1.47,13,13,0,0,0-.55,4.29,6.16,6.16,0,0,0,1,3.91,3.48,3.48,0,0,0,2.88,1.18,7,7,0,0,0,2.18-.25v3.07a8.51,8.51,0,0,1-2.93.43A6.79,6.79,0,0,1,109.58,56.05Z" transform="translate(-0.25 -0.25)"/><path class="cls-11" d="M111.75,35.92h13.57v2.85h-13.8Z" transform="translate(-0.25 -0.25)"/></g></g></svg>