<svg xmlns="http://www.w3.org/2000/svg" viewBox="0 0 178 133.36"><defs><style>.cls-1{fill:#9ec180;opacity:0.75;}.cls-2{fill:#77663c;}.cls-3{fill:#604f2b;}.cls-4{fill:#9b8043;}.cls-5{fill:#96804e;}.cls-6{fill:#ba9e67;}.cls-7{fill:#cca75e;}.cls-8{fill:#634f28;}.cls-9{fill:#423118;}.cls-10{fill:#f9dea0;}.cls-11{fill:#fff;}</style></defs><title>Asset 22</title><g id="Layer_2" data-name="Layer 2"><g id="ป้ายผลิตภัณ"><polygon class="cls-1" points="176 133.36 0 133.36 27 119.36 150 119.36 176 133.36"/><path class="cls-2" d="M98.54,5.58V123.23a5.3,5.3,0,0,1-3.48,5A4.72,4.72,0,0,0,98,124.16V5.19C98,2.53,95.08.36,91.44.26H93.2A5.34,5.34,0,0,1,98.54,5.58Z" transform="translate(-0.25 -0.25)"/><path class="cls-3" d="M98,5.19v119a4.72,4.72,0,0,1-2.93,4.05,5,5,0,0,1-1.86.35H91c2.23-.8,3.74-2.48,3.74-4.4V5.19C94.71,3,92.64,1.05,89.8.46a7.91,7.91,0,0,1,1.64-.2C95.08.36,98,2.53,98,5.19Z" transform="translate(-0.25 -0.25)"/><path class="cls-2" d="M94.71,5.19v119c0,1.92-1.51,3.6-3.74,4.4H88.62c-2.22-.8-3.74-2.48-3.74-4.4V5.19C84.88,3,87,1.05,89.8.46,92.64,1.05,94.71,3,94.71,5.19Z" transform="translate(-0.25 -0.25)"/><path class="cls-2" d="M91.16.25h.28a7.91,7.91,0,0,0-1.64.2,8,8,0,0,0-1.64-.2h3Z" transform="translate(-0.25 -0.25)"/><path class="cls-3" d="M88.16.26a8,8,0,0,1,1.64.2C87,1.05,84.88,3,84.88,5.19v119c0,1.92,1.52,3.6,3.74,4.4H86.39a5.08,5.08,0,0,1-1.83-.34,4.72,4.72,0,0,1-3-4.06V5.19C81.61,2.53,84.51.36,88.16.26Z" transform="translate(-0.25 -0.25)"/><path class="cls-2" d="M88.43.25h-.27c-3.65.1-6.55,2.27-6.55,4.93v119a4.72,4.72,0,0,0,3,4.06,5.31,5.31,0,0,1-3.5-5V5.58A5.33,5.33,0,0,1,86.39.25Z" transform="translate(-0.25 -0.25)"/><rect class="cls-4" x="62.22" y="30.83" width="52.14" height="0.82" rx="0.37" transform="translate(119.28 -57.31) rotate(90)"/><rect class="cls-4" x="65.5" y="48.3" width="52.14" height="0.82" rx="0.37" transform="translate(140.03 -43.11) rotate(90)"/><rect class="cls-4" x="62.22" y="97.44" width="52.14" height="0.82" rx="0.37" transform="translate(185.89 9.3) rotate(90)"/><path class="cls-5" d="M178.25,77v.57A6.25,6.25,0,0,1,172,83.79h-.8V80.51a.5.5,0,0,0,.5-.5V78.83a.51.51,0,0,0-.5-.5h-12V76.15a.51.51,0,0,0,.5-.51V74.46a.51.51,0,0,0-.5-.5V70.69h12.24a6.8,6.8,0,0,1,6.8,6.55A2.65,2.65,0,0,0,178.25,77Z" transform="translate(-0.25 -0.25)"/><path class="cls-6" d="M178.25,74.24V77a2.65,2.65,0,0,1,0,.27,6.8,6.8,0,0,0-6.8-6.55H7.08A6.82,6.82,0,0,0,.26,77.24c0-.09,0-.19,0-.27V74.24a6.83,6.83,0,0,1,5.46-6.69v1h12V67.41H160.78V68.5h12v-1A6.82,6.82,0,0,1,178.25,74.24Z" transform="translate(-0.25 -0.25)"/><path class="cls-5" d="M178.25,73.66v.58a6.82,6.82,0,0,0-5.46-6.69v-.09A6.25,6.25,0,0,1,178.25,73.66Z" transform="translate(-0.25 -0.25)"/><path class="cls-5" d="M178.25,18v.57a6.25,6.25,0,0,1-5.46,6.2v-.09A6.81,6.81,0,0,0,178.25,18Z" transform="translate(-0.25 -0.25)"/><path class="cls-2" d="M178.25,15.27V18a6.81,6.81,0,0,1-5.46,6.68v-.95h-12v1.09h-143V23.73h-12v.95A6.82,6.82,0,0,1,.25,18V15.27c0-.09,0-.19,0-.28a6.84,6.84,0,0,0,6.82,6.56H171.43a6.82,6.82,0,0,0,6.8-6.56A2.64,2.64,0,0,1,178.25,15.27Z" transform="translate(-0.25 -0.25)"/><path class="cls-5" d="M178.25,14.69v.58a2.64,2.64,0,0,0,0-.28,6.82,6.82,0,0,1-6.8,6.56H7.08A6.84,6.84,0,0,1,.26,15c0,.09,0,.19,0,.28v-.58A6.25,6.25,0,0,1,6.5,8.44H172A6.25,6.25,0,0,1,178.25,14.69Zm-8.73-.2V13.31a.51.51,0,0,0-.51-.5H119.24a.5.5,0,0,0-.5.5v1.18a.5.5,0,0,0,.5.5H169A.51.51,0,0,0,169.52,14.49Zm-20.75,4.37V17.68a.51.51,0,0,0-.5-.5H45a.5.5,0,0,0-.5.5v1.18a.5.5,0,0,0,.5.5H148.27A.51.51,0,0,0,148.77,18.86ZM108.36,13.4V12.22a.51.51,0,0,0-.5-.5H4.58a.5.5,0,0,0-.5.5V13.4a.5.5,0,0,0,.5.5H107.86A.51.51,0,0,0,108.36,13.4ZM36.29,17.77V16.59a.51.51,0,0,0-.5-.51H16.59a.5.5,0,0,0-.5.51v1.18a.5.5,0,0,0,.5.5h19.2A.51.51,0,0,0,36.29,17.77Z" transform="translate(-0.25 -0.25)"/><path class="cls-6" d="M163.51,67.41h7.92a6,6,0,0,1,1.36.14v1h-12V67.41Z" transform="translate(-0.25 -0.25)"/><path class="cls-2" d="M172.79,67.46v.09a6,6,0,0,0-1.36-.14H172A6.84,6.84,0,0,1,172.79,67.46Z" transform="translate(-0.25 -0.25)"/><path class="cls-2" d="M172.79,24.77V67.46a6.84,6.84,0,0,0-.79,0h-8.49V24.82H172A6.84,6.84,0,0,0,172.79,24.77Zm-2.18,37.77V43.89a.5.5,0,0,0-.5-.5H170a.5.5,0,0,0-.5.5V62.54a.5.5,0,0,0,.5.5h.09A.51.51,0,0,0,170.61,62.54Zm-2.46-15V28.33a.51.51,0,0,0-.5-.51h-1.18a.5.5,0,0,0-.5.51V47.52a.5.5,0,0,0,.5.51h1.18A.51.51,0,0,0,168.15,47.52Zm-.27,11.74V55.9a.51.51,0,0,0-.5-.5h-.64a.5.5,0,0,0-.5.5v3.36a.5.5,0,0,0,.5.51h.64A.51.51,0,0,0,167.88,59.26Z" transform="translate(-0.25 -0.25)"/><path class="cls-5" d="M172.79,24.68v.09a6.84,6.84,0,0,1-.79.05h-.57A6,6,0,0,0,172.79,24.68Z" transform="translate(-0.25 -0.25)"/><path class="cls-2" d="M163.51,24.82h-2.73V23.73h12v.95a6,6,0,0,1-1.36.14Z" transform="translate(-0.25 -0.25)"/><path class="cls-7" d="M171.7,78.83V80a.5.5,0,0,1-.5.5H67.91a.5.5,0,0,1-.5-.5V78.83a.5.5,0,0,1,.5-.5H171.2A.51.51,0,0,1,171.7,78.83Z" transform="translate(-0.25 -0.25)"/><path class="cls-5" d="M171.2,80.51v3.28H6.5A6.25,6.25,0,0,1,.25,77.54V77c0,.08,0,.18,0,.27a6.82,6.82,0,0,1,6.82-6.55H159.19V74H140a.5.5,0,0,0-.5.5v1.18a.5.5,0,0,0,.5.51h19.2v2.18H67.91a.5.5,0,0,0-.5.5V80a.5.5,0,0,0,.5.5Zm-39.9-6V73.37a.51.51,0,0,0-.51-.5H27.51a.5.5,0,0,0-.5.5v1.18a.5.5,0,0,0,.5.5H130.79A.51.51,0,0,0,131.3,74.55ZM57,78.92V77.74a.51.51,0,0,0-.5-.5H6.76a.5.5,0,0,0-.5.5v1.18a.5.5,0,0,0,.5.5H56.54A.51.51,0,0,0,57,78.92Z" transform="translate(-0.25 -0.25)"/><path class="cls-5" d="M170.61,43.89V62.54a.51.51,0,0,1-.5.5H170a.5.5,0,0,1-.5-.5V43.89a.5.5,0,0,1,.5-.5h.09A.5.5,0,0,1,170.61,43.89Z" transform="translate(-0.25 -0.25)"/><path class="cls-7" d="M169.52,13.31v1.18a.51.51,0,0,1-.51.5H119.24a.5.5,0,0,1-.5-.5V13.31a.5.5,0,0,1,.5-.5H169A.51.51,0,0,1,169.52,13.31Z" transform="translate(-0.25 -0.25)"/><path class="cls-5" d="M168.15,28.33V47.52a.51.51,0,0,1-.5.51h-1.18a.5.5,0,0,1-.5-.51V28.33a.5.5,0,0,1,.5-.51h1.18A.51.51,0,0,1,168.15,28.33Z" transform="translate(-0.25 -0.25)"/><path class="cls-5" d="M167.88,55.9v3.36a.51.51,0,0,1-.5.51h-.64a.5.5,0,0,1-.5-.51V55.9a.5.5,0,0,1,.5-.5h.64A.51.51,0,0,1,167.88,55.9Z" transform="translate(-0.25 -0.25)"/><rect class="cls-8" x="160.53" y="24.57" width="2.73" height="42.59"/><rect class="cls-9" x="17.48" y="24.57" width="143.06" height="42.59"/><path class="cls-7" d="M159.69,74.46v1.18a.51.51,0,0,1-.5.51H140a.5.5,0,0,1-.5-.51V74.46a.5.5,0,0,1,.5-.5h19.2A.51.51,0,0,1,159.69,74.46Z" transform="translate(-0.25 -0.25)"/><path class="cls-7" d="M148.77,17.68v1.18a.51.51,0,0,1-.5.5H45a.5.5,0,0,1-.5-.5V17.68a.5.5,0,0,1,.5-.5H148.27A.51.51,0,0,1,148.77,17.68Z" transform="translate(-0.25 -0.25)"/><path class="cls-7" d="M131.3,73.37v1.18a.51.51,0,0,1-.51.5H27.51a.5.5,0,0,1-.5-.5V73.37a.5.5,0,0,1,.5-.5H130.79A.51.51,0,0,1,131.3,73.37Z" transform="translate(-0.25 -0.25)"/><path class="cls-7" d="M108.36,12.22V13.4a.51.51,0,0,1-.5.5H4.58a.5.5,0,0,1-.5-.5V12.22a.5.5,0,0,1,.5-.5H107.86A.51.51,0,0,1,108.36,12.22Z" transform="translate(-0.25 -0.25)"/><path class="cls-7" d="M57,77.74v1.18a.51.51,0,0,1-.5.5H6.76a.5.5,0,0,1-.5-.5V77.74a.5.5,0,0,1,.5-.5H56.54A.51.51,0,0,1,57,77.74Z" transform="translate(-0.25 -0.25)"/><path class="cls-7" d="M36.29,16.59v1.18a.51.51,0,0,1-.5.5H16.59a.5.5,0,0,1-.5-.5V16.59a.5.5,0,0,1,.5-.51h19.2A.51.51,0,0,1,36.29,16.59Z" transform="translate(-0.25 -0.25)"/><polygon class="cls-8" points="17.48 24.57 17.48 67.16 14.74 67.16 14.74 58.19 14.74 24.57 17.48 24.57"/><path class="cls-2" d="M17.73,23.73v1.09H7.08a6.18,6.18,0,0,1-1.37-.14v-.95Z" transform="translate(-0.25 -0.25)"/><path class="cls-6" d="M15,67.41V68.5H5.71v-1a6.18,6.18,0,0,1,1.37-.14Z" transform="translate(-0.25 -0.25)"/><path class="cls-2" d="M15,58.44v9H6.5a7.13,7.13,0,0,0-.79,0V24.77a7.13,7.13,0,0,0,.79.05H9.58V28.1H9.49a.5.5,0,0,0-.5.5V47.25a.5.5,0,0,0,.5.5h.09L11,49a.48.48,0,0,0-.14.35v9.09a.5.5,0,0,0,.5.51h.36a.51.51,0,0,0,.51-.51Z" transform="translate(-0.25 -0.25)"/><path class="cls-2" d="M15,24.82V58.44H12.27V49.35a.51.51,0,0,0-.51-.5H11.4A.48.48,0,0,0,11,49L9.58,47.75a.51.51,0,0,0,.5-.5V28.6a.51.51,0,0,0-.5-.5V24.82Z" transform="translate(-0.25 -0.25)"/><path class="cls-5" d="M12.27,49.35v9.09a.51.51,0,0,1-.51.51H11.4a.5.5,0,0,1-.5-.51V49.35A.48.48,0,0,1,11,49a.48.48,0,0,1,.36-.15h.36A.51.51,0,0,1,12.27,49.35Z" transform="translate(-0.25 -0.25)"/><path class="cls-5" d="M10.08,28.6V47.25a.51.51,0,0,1-.5.5H9.49a.5.5,0,0,1-.5-.5V28.6a.5.5,0,0,1,.5-.5h.09A.51.51,0,0,1,10.08,28.6Z" transform="translate(-0.25 -0.25)"/><path class="cls-5" d="M7.08,24.82H6.5a7.13,7.13,0,0,1-.79-.05v-.09A6.18,6.18,0,0,0,7.08,24.82Z" transform="translate(-0.25 -0.25)"/><path class="cls-2" d="M6.5,67.41h.58a6.18,6.18,0,0,0-1.37.14v-.09A7.13,7.13,0,0,1,6.5,67.41Z" transform="translate(-0.25 -0.25)"/><path class="cls-5" d="M5.71,67.46v.09A6.83,6.83,0,0,0,.25,74.24v-.58A6.25,6.25,0,0,1,5.71,67.46Z" transform="translate(-0.25 -0.25)"/><path class="cls-5" d="M5.71,24.68v.09a6.25,6.25,0,0,1-5.46-6.2V18A6.82,6.82,0,0,0,5.71,24.68Z" transform="translate(-0.25 -0.25)"/><path class="cls-3" d="M11,10.62a4.56,4.56,0,1,1-4.56,4.55A4.55,4.55,0,0,1,11,10.62Zm2.54,4.55A2.54,2.54,0,1,0,11,17.71,2.53,2.53,0,0,0,13.52,15.17Z" transform="translate(-0.25 -0.25)"/><path class="cls-10" d="M11,12.65a2.53,2.53,0,1,1-2.53,2.52A2.53,2.53,0,0,1,11,12.65Z" transform="translate(-0.25 -0.25)"/><path class="cls-3" d="M9.89,72.87a4.56,4.56,0,1,1-4.55,4.56A4.56,4.56,0,0,1,9.89,72.87Zm2.53,4.56A2.53,2.53,0,1,0,9.89,80,2.53,2.53,0,0,0,12.42,77.43Z" transform="translate(-0.25 -0.25)"/><path class="cls-10" d="M9.89,74.89a2.54,2.54,0,1,1-2.53,2.54A2.53,2.53,0,0,1,9.89,74.89Z" transform="translate(-0.25 -0.25)"/><path class="cls-3" d="M168.24,10.63a4.56,4.56,0,1,1-4.56,4.55A4.55,4.55,0,0,1,168.24,10.63Zm2.52,4.55a2.53,2.53,0,1,0-2.52,2.53A2.52,2.52,0,0,0,170.76,15.18Z" transform="translate(-0.25 -0.25)"/><path class="cls-10" d="M168.24,12.65a2.53,2.53,0,1,1-2.54,2.53A2.52,2.52,0,0,1,168.24,12.65Z" transform="translate(-0.25 -0.25)"/><path class="cls-3" d="M167.14,72.87a4.56,4.56,0,1,1-4.56,4.56A4.54,4.54,0,0,1,167.14,72.87Zm2.54,4.56A2.54,2.54,0,1,0,167.14,80,2.54,2.54,0,0,0,169.68,77.43Z" transform="translate(-0.25 -0.25)"/><path class="cls-10" d="M167.14,74.89a2.53,2.53,0,1,1-2.53,2.54A2.54,2.54,0,0,1,167.14,74.89Z" transform="translate(-0.25 -0.25)"/><path class="cls-11" d="M33.6,44.57a3.1,3.1,0,0,1,.68-2.1,2.49,2.49,0,0,1,2-.79h3.45l.17,2.8H38.44c-.79,0-1.19.42-1.19,1.26v6.08l3.22-5.52h1.42l3.23,5.52V41.68h3.62V56.8H45L41.18,50,37.3,56.8H33.6Z" transform="translate(-0.25 -0.25)"/><path class="cls-11" d="M53.13,55.94a4.29,4.29,0,0,1-1.48-3.62,4.15,4.15,0,0,1,1.56-3.48,7.19,7.19,0,0,1,4.51-1.22h4.36v-.73a2.24,2.24,0,0,0-.8-2,5,5,0,0,0-2.82-.58,17.1,17.1,0,0,0-5.1.76V42.27a18.51,18.51,0,0,1,2.76-.63,19.36,19.36,0,0,1,3-.24,7.78,7.78,0,0,1,5.15,1.45,5.5,5.5,0,0,1,1.69,4.43V56.8H62.08V50.39H58a3.54,3.54,0,0,0-2,.45,1.64,1.64,0,0,0-.67,1.48,1.56,1.56,0,0,0,.61,1.43,4.2,4.2,0,0,0,2.12.39,6.49,6.49,0,0,0,2-.22v2.77a10.28,10.28,0,0,1-3,.39A6.19,6.19,0,0,1,53.13,55.94Z" transform="translate(-0.25 -0.25)"/><path class="cls-11" d="M53.67,37H65.93v2.57H53.47Z" transform="translate(-0.25 -0.25)"/><path class="cls-11" d="M70.51,55.22q-1.76-1.86-1.76-5.67a10.76,10.76,0,0,1,1.42-6,4.46,4.46,0,0,1,3.92-2.1,4,4,0,0,1,1.85.37,3.2,3.2,0,0,1,1.2,1.06,3.91,3.91,0,0,1,1.58-1,5.48,5.48,0,0,1,2.07-.4,3.63,3.63,0,0,1,2.93,1.18,4.74,4.74,0,0,1,1,3.19v11H80.87V46.36a3.18,3.18,0,0,0-.28-1.53,1.1,1.1,0,0,0-1-.49,1.44,1.44,0,0,0-.94.33,1.7,1.7,0,0,0-.57,1H76.2a3,3,0,0,0-.63-1,1.22,1.22,0,0,0-.88-.3,1.82,1.82,0,0,0-1.79,1.33,11.67,11.67,0,0,0-.5,3.88,5.62,5.62,0,0,0,.87,3.53,3.17,3.17,0,0,0,2.61,1.06,6.49,6.49,0,0,0,2-.22v2.77a7.72,7.72,0,0,1-2.65.39A6.14,6.14,0,0,1,70.51,55.22Z" transform="translate(-0.25 -0.25)"/><path class="cls-11" d="M87.83,53.86h.94a1,1,0,0,0,.76-.22,1.15,1.15,0,0,0,.21-.79V52a5.34,5.34,0,0,1,.43-2.34,2.76,2.76,0,0,1,1.62-1.33l-2.9-.76V44a11.59,11.59,0,0,1,3.29-1.82,12.3,12.3,0,0,1,4.29-.73,8,8,0,0,1,5.19,1.49c1.2,1,1.8,2.58,1.8,4.79V56.8H99.61V47.59a3.38,3.38,0,0,0-.77-2.5,3.62,3.62,0,0,0-2.57-.75,7.26,7.26,0,0,0-2.31.37,5.66,5.66,0,0,0-1.77.92V46l3.17.84v2.3a2.25,2.25,0,0,0-1.38.92A4.22,4.22,0,0,0,93.65,52v1a3.75,3.75,0,0,1-1,2.86,4,4,0,0,1-2.81.89h-2Z" transform="translate(-0.25 -0.25)"/><path class="cls-11" d="M96.27,35.16h3.14V37h7.1l-.14,2.57H96.27Z" transform="translate(-0.25 -0.25)"/><path class="cls-11" d="M118.41,55.61a5.82,5.82,0,0,1-1.35-4.1V47.59a3.31,3.31,0,0,0-.8-2.49,3.71,3.71,0,0,0-2.59-.76,7.26,7.26,0,0,0-2.31.37,5.44,5.44,0,0,0-1.77.92V46l3.16.84v2.3a2.41,2.41,0,0,0-1.51.91,3.69,3.69,0,0,0-.4,2v.81a1.11,1.11,0,0,0,.24.8,1.22,1.22,0,0,0,.82.23h1.51V56.8h-3.48A2.86,2.86,0,0,1,107.8,56a2.94,2.94,0,0,1-.81-2.14V52a5.08,5.08,0,0,1,.49-2.37,2.65,2.65,0,0,1,1.71-1.3l-2.91-.76V44a11.59,11.59,0,0,1,3.29-1.82,12.38,12.38,0,0,1,4.29-.73A7.89,7.89,0,0,1,119,42.85q1.74,1.44,1.74,4.83v3.61a2.94,2.94,0,0,0,.68,2.18,2.86,2.86,0,0,0,2.08.67,4.87,4.87,0,0,0,2-.43,5.17,5.17,0,0,0,1.62-1.13V41.68H131V56.8h-3.53l-.18-1.48a6.48,6.48,0,0,1-2.22,1.33,8.44,8.44,0,0,1-2.82.43A5,5,0,0,1,118.41,55.61Z" transform="translate(-0.25 -0.25)"/><path class="cls-11" d="M134.88,51.29a5,5,0,0,1,.38-1.88,20.07,20.07,0,0,1,1.1-2.13,14.62,14.62,0,0,0,.74-1.41,2.26,2.26,0,0,0,.23-.94c0-.35-.15-.53-.45-.53a1.13,1.13,0,0,0-.72.31v1.14h-2.42V41.68h2.54v.79a4.55,4.55,0,0,1,1-.59,3.18,3.18,0,0,1,1.21-.2,2,2,0,0,1,1.71.82,6.53,6.53,0,0,1,1.61-.79,6.24,6.24,0,0,1,1.93-.31,4.58,4.58,0,0,1,3.58,1.29,5.69,5.69,0,0,1,1.15,3.89V56.8H144.6V46.69a3.06,3.06,0,0,0-.41-1.8,1.73,1.73,0,0,0-1.47-.55,3.31,3.31,0,0,0-1.08.21,3.15,3.15,0,0,0-.94.49,3.54,3.54,0,0,1-.22,1.25,10.76,10.76,0,0,1-.67,1.47,16.08,16.08,0,0,0-.81,1.88,5.37,5.37,0,0,0-.27,1.76v5.4h-3.85Z" transform="translate(-0.25 -0.25)"/><path class="cls-11" d="M141.27,35.22H150l-.11,2.57H144.4v1.82h-3.13Z" transform="translate(-0.25 -0.25)"/></g></g></svg>