<svg xmlns="http://www.w3.org/2000/svg" viewBox="0 0 178 128.31"><defs><style>.cls-1{fill:#77663c;}.cls-2{fill:#604f2b;}.cls-3{fill:#9b8043;}.cls-4{fill:#96804e;}.cls-5{fill:#ba9e67;}.cls-6{fill:#cca75e;}.cls-7{fill:#634f28;}.cls-8{fill:#423118;}.cls-9{fill:#f9dea0;}.cls-10{fill:#fff;}</style></defs><title>Asset 28</title><g id="Layer_2" data-name="Layer 2"><g id="ป้ายท่องเที่ยว"><path class="cls-1" d="M98.53,5.59V123.23a5.3,5.3,0,0,1-3.46,5,4.72,4.72,0,0,0,2.91-4V5.19C98,2.53,95.08.35,91.43.26H93.2A5.33,5.33,0,0,1,98.53,5.59Z" transform="translate(-0.25 -0.25)"/><path class="cls-2" d="M98,5.19v119a4.72,4.72,0,0,1-2.91,4,5.3,5.3,0,0,1-1.87.34H91c2.21-.82,3.72-2.47,3.72-4.39V5.19c0-2.25-2.08-4.14-4.92-4.74A9.68,9.68,0,0,1,91.43.26C95.08.35,98,2.53,98,5.19Z" transform="translate(-0.25 -0.25)"/><path class="cls-1" d="M94.71,5.19v119c0,1.92-1.51,3.57-3.72,4.39h-2.4c-2.2-.82-3.71-2.47-3.71-4.39V5.19c0-2.25,2.07-4.14,4.91-4.74C92.63,1.05,94.71,2.94,94.71,5.19Z" transform="translate(-0.25 -0.25)"/><path class="cls-1" d="M91.16.25h.27a9.68,9.68,0,0,0-1.64.19A9.56,9.56,0,0,0,88.15.26h3Z" transform="translate(-0.25 -0.25)"/><path class="cls-2" d="M88.15.26a9.56,9.56,0,0,1,1.64.19c-2.84.6-4.91,2.49-4.91,4.74v119c0,1.92,1.51,3.57,3.71,4.39H86.4a5.26,5.26,0,0,1-1.87-.34,4.72,4.72,0,0,1-2.93-4V5.19C81.6,2.53,84.51.35,88.15.26Z" transform="translate(-0.25 -0.25)"/><path class="cls-1" d="M88.43.25h-.28C84.51.35,81.6,2.53,81.6,5.19v119a4.72,4.72,0,0,0,2.93,4,5.31,5.31,0,0,1-3.47-5V5.59A5.34,5.34,0,0,1,86.4.25Z" transform="translate(-0.25 -0.25)"/><rect class="cls-3" x="62.22" y="30.83" width="52.14" height="0.82" rx="0.37" transform="translate(119.28 -57.3) rotate(90)"/><rect class="cls-3" x="65.5" y="48.3" width="52.14" height="0.82" rx="0.37" transform="translate(140.03 -43.11) rotate(90)"/><rect class="cls-3" x="62.22" y="97.44" width="52.14" height="0.82" rx="0.37" transform="translate(185.9 9.31) rotate(90)"/><path class="cls-4" d="M178.25,77v.58A6.25,6.25,0,0,1,172,83.79h-.8V80.51a.48.48,0,0,0,.49-.49V78.83a.49.49,0,0,0-.49-.5h-12V76.14a.49.49,0,0,0,.49-.49V74.46a.5.5,0,0,0-.49-.5V70.68h12.23a6.84,6.84,0,0,1,6.82,6.55C178.24,77.15,178.25,77.06,178.25,77Z" transform="translate(-0.25 -0.25)"/><path class="cls-5" d="M178.25,74.23V77c0,.1,0,.19,0,.27a6.84,6.84,0,0,0-6.82-6.55H7.07a6.82,6.82,0,0,0-6.8,6.55,2.13,2.13,0,0,1,0-.27V74.23a6.8,6.8,0,0,1,5.46-6.68v1h12V67.41H160.77V68.5h12v-1A6.8,6.8,0,0,1,178.25,74.23Z" transform="translate(-0.25 -0.25)"/><path class="cls-4" d="M178.25,73.66v.57a6.8,6.8,0,0,0-5.46-6.68v-.09A6.24,6.24,0,0,1,178.25,73.66Z" transform="translate(-0.25 -0.25)"/><path class="cls-4" d="M178.25,18v.58a6.23,6.23,0,0,1-5.46,6.19v-.09A6.8,6.8,0,0,0,178.25,18Z" transform="translate(-0.25 -0.25)"/><path class="cls-1" d="M178.25,15.26V18a6.8,6.8,0,0,1-5.46,6.68v-1h-12v1.1h-143v-1.1h-12v1A6.8,6.8,0,0,1,.25,18V15.26a2.65,2.65,0,0,1,0-.27,6.8,6.8,0,0,0,6.8,6.55H171.42A6.82,6.82,0,0,0,178.24,15C178.24,15.09,178.25,15.17,178.25,15.26Z" transform="translate(-0.25 -0.25)"/><path class="cls-4" d="M178.25,14.69v.57c0-.09,0-.17,0-.27a6.82,6.82,0,0,1-6.82,6.55H7.07A6.8,6.8,0,0,1,.27,15a2.65,2.65,0,0,0,0,.27v-.57A6.25,6.25,0,0,1,6.5,8.44H172A6.25,6.25,0,0,1,178.25,14.69Zm-8.74-.19V13.31a.5.5,0,0,0-.49-.51H119.23a.51.51,0,0,0-.5.51V14.5a.5.5,0,0,0,.5.49H169A.49.49,0,0,0,169.51,14.5Zm-20.75,4.36V17.67a.5.5,0,0,0-.49-.5H45a.51.51,0,0,0-.51.5v1.19a.5.5,0,0,0,.51.5H148.27A.49.49,0,0,0,148.76,18.86Zm-40.4-5.46V12.21a.5.5,0,0,0-.49-.5H4.57a.51.51,0,0,0-.5.5V13.4a.5.5,0,0,0,.5.5h103.3A.49.49,0,0,0,108.36,13.4ZM36.28,17.77V16.58a.5.5,0,0,0-.49-.5H16.58a.51.51,0,0,0-.5.5v1.19a.49.49,0,0,0,.5.49H35.79A.48.48,0,0,0,36.28,17.77Z" transform="translate(-0.25 -0.25)"/><path class="cls-5" d="M163.5,67.41h7.92a6.18,6.18,0,0,1,1.37.14v1h-12V67.41Z" transform="translate(-0.25 -0.25)"/><path class="cls-1" d="M172.79,67.46v.09a6.18,6.18,0,0,0-1.37-.14H172A7.13,7.13,0,0,1,172.79,67.46Z" transform="translate(-0.25 -0.25)"/><path class="cls-1" d="M172.79,24.76v42.7a7.13,7.13,0,0,0-.79,0h-8.5V24.82H172A7.18,7.18,0,0,0,172.79,24.76ZM170.6,62.55V43.88a.5.5,0,0,0-.49-.5H170a.51.51,0,0,0-.5.5V62.55a.5.5,0,0,0,.5.49h.1A.49.49,0,0,0,170.6,62.55Zm-2.46-15V28.32a.49.49,0,0,0-.49-.5h-1.19a.51.51,0,0,0-.5.5V47.53a.5.5,0,0,0,.5.49h1.19A.48.48,0,0,0,168.14,47.53Zm-.27,11.74V55.9a.5.5,0,0,0-.49-.51h-.64a.51.51,0,0,0-.51.51v3.37a.5.5,0,0,0,.51.49h.64A.49.49,0,0,0,167.87,59.27Z" transform="translate(-0.25 -0.25)"/><path class="cls-4" d="M172.79,24.67v.09a7.18,7.18,0,0,1-.79.06h-.58A6.19,6.19,0,0,0,172.79,24.67Z" transform="translate(-0.25 -0.25)"/><path class="cls-1" d="M163.5,24.82h-2.73v-1.1h12v1a6.19,6.19,0,0,1-1.37.15Z" transform="translate(-0.25 -0.25)"/><path class="cls-6" d="M171.69,78.83V80a.48.48,0,0,1-.49.49H67.91a.5.5,0,0,1-.5-.49V78.83a.5.5,0,0,1,.5-.5H171.2A.49.49,0,0,1,171.69,78.83Z" transform="translate(-0.25 -0.25)"/><path class="cls-4" d="M171.2,80.51v3.28H6.5A6.25,6.25,0,0,1,.25,77.54V77a2.13,2.13,0,0,0,0,.27,6.82,6.82,0,0,1,6.8-6.55H159.19V74H140a.51.51,0,0,0-.5.5v1.19a.5.5,0,0,0,.5.49h19.21v2.19H67.91a.5.5,0,0,0-.5.5V80a.5.5,0,0,0,.5.49Zm-39.91-6V73.37a.49.49,0,0,0-.49-.5H27.5a.5.5,0,0,0-.5.5v1.19a.5.5,0,0,0,.5.49H130.8A.49.49,0,0,0,131.29,74.56ZM57,78.93V77.74a.5.5,0,0,0-.49-.51H6.75a.51.51,0,0,0-.5.51v1.19a.5.5,0,0,0,.5.49H56.54A.49.49,0,0,0,57,78.93Z" transform="translate(-0.25 -0.25)"/><path class="cls-4" d="M170.6,43.88V62.55a.49.49,0,0,1-.49.49H170a.5.5,0,0,1-.5-.49V43.88a.51.51,0,0,1,.5-.5h.1A.5.5,0,0,1,170.6,43.88Z" transform="translate(-0.25 -0.25)"/><path class="cls-6" d="M169.51,13.31V14.5A.49.49,0,0,1,169,15H119.23a.5.5,0,0,1-.5-.49V13.31a.51.51,0,0,1,.5-.51H169A.5.5,0,0,1,169.51,13.31Z" transform="translate(-0.25 -0.25)"/><path class="cls-4" d="M168.14,28.32V47.53a.48.48,0,0,1-.49.49h-1.19a.5.5,0,0,1-.5-.49V28.32a.51.51,0,0,1,.5-.5h1.19A.49.49,0,0,1,168.14,28.32Z" transform="translate(-0.25 -0.25)"/><path class="cls-4" d="M167.87,55.9v3.37a.49.49,0,0,1-.49.49h-.64a.5.5,0,0,1-.51-.49V55.9a.51.51,0,0,1,.51-.51h.64A.5.5,0,0,1,167.87,55.9Z" transform="translate(-0.25 -0.25)"/><rect class="cls-7" x="160.53" y="24.57" width="2.73" height="42.59"/><rect class="cls-8" x="17.47" y="24.57" width="143.06" height="42.59"/><path class="cls-6" d="M159.68,74.46v1.19a.49.49,0,0,1-.49.49H140a.5.5,0,0,1-.5-.49V74.46a.51.51,0,0,1,.5-.5h19.21A.5.5,0,0,1,159.68,74.46Z" transform="translate(-0.25 -0.25)"/><path class="cls-6" d="M148.76,17.67v1.19a.49.49,0,0,1-.49.5H45a.5.5,0,0,1-.51-.5V17.67a.51.51,0,0,1,.51-.5H148.27A.5.5,0,0,1,148.76,17.67Z" transform="translate(-0.25 -0.25)"/><path class="cls-6" d="M131.29,73.37v1.19a.49.49,0,0,1-.49.49H27.5a.5.5,0,0,1-.5-.49V73.37a.5.5,0,0,1,.5-.5H130.8A.49.49,0,0,1,131.29,73.37Z" transform="translate(-0.25 -0.25)"/><path class="cls-6" d="M108.36,12.21V13.4a.49.49,0,0,1-.49.5H4.57a.5.5,0,0,1-.5-.5V12.21a.51.51,0,0,1,.5-.5h103.3A.5.5,0,0,1,108.36,12.21Z" transform="translate(-0.25 -0.25)"/><path class="cls-6" d="M57,77.74v1.19a.49.49,0,0,1-.49.49H6.75a.5.5,0,0,1-.5-.49V77.74a.51.51,0,0,1,.5-.51H56.54A.5.5,0,0,1,57,77.74Z" transform="translate(-0.25 -0.25)"/><path class="cls-6" d="M36.28,16.58v1.19a.48.48,0,0,1-.49.49H16.58a.49.49,0,0,1-.5-.49V16.58a.51.51,0,0,1,.5-.5H35.79A.5.5,0,0,1,36.28,16.58Z" transform="translate(-0.25 -0.25)"/><polygon class="cls-7" points="17.47 24.57 17.47 67.16 14.74 67.16 14.74 58.2 14.74 24.57 17.47 24.57"/><path class="cls-1" d="M17.72,23.72v1.1H7.07a6.1,6.1,0,0,1-1.36-.15v-1Z" transform="translate(-0.25 -0.25)"/><path class="cls-5" d="M15,67.41V68.5H5.71v-1a6.09,6.09,0,0,1,1.36-.14Z" transform="translate(-0.25 -0.25)"/><path class="cls-1" d="M15,58.45v9H6.5a6.84,6.84,0,0,0-.79,0V24.76a6.83,6.83,0,0,0,.79.06H9.58v3.27h-.1a.51.51,0,0,0-.5.5V47.26a.5.5,0,0,0,.5.49h.1L11.05,49a.48.48,0,0,0-.16.35v9.11a.5.5,0,0,0,.51.49h.37a.49.49,0,0,0,.49-.49Z" transform="translate(-0.25 -0.25)"/><path class="cls-1" d="M15,24.82V58.45H12.26V49.34a.5.5,0,0,0-.49-.5H11.4a.47.47,0,0,0-.35.15L9.58,47.75a.48.48,0,0,0,.49-.49V28.59a.49.49,0,0,0-.49-.5V24.82Z" transform="translate(-0.25 -0.25)"/><path class="cls-4" d="M12.26,49.34v9.11a.49.49,0,0,1-.49.49H11.4a.5.5,0,0,1-.51-.49V49.34a.48.48,0,0,1,.16-.35.47.47,0,0,1,.35-.15h.37A.5.5,0,0,1,12.26,49.34Z" transform="translate(-0.25 -0.25)"/><path class="cls-4" d="M10.07,28.59V47.26a.48.48,0,0,1-.49.49h-.1a.5.5,0,0,1-.5-.49V28.59a.51.51,0,0,1,.5-.5h.1A.49.49,0,0,1,10.07,28.59Z" transform="translate(-0.25 -0.25)"/><path class="cls-4" d="M7.07,24.82H6.5a6.83,6.83,0,0,1-.79-.06v-.09A6.1,6.1,0,0,0,7.07,24.82Z" transform="translate(-0.25 -0.25)"/><path class="cls-1" d="M6.5,67.41h.57a6.09,6.09,0,0,0-1.36.14v-.09A6.84,6.84,0,0,1,6.5,67.41Z" transform="translate(-0.25 -0.25)"/><path class="cls-4" d="M5.71,67.46v.09A6.8,6.8,0,0,0,.25,74.23v-.57A6.25,6.25,0,0,1,5.71,67.46Z" transform="translate(-0.25 -0.25)"/><path class="cls-4" d="M5.71,24.67v.09A6.24,6.24,0,0,1,.25,18.57V18A6.8,6.8,0,0,0,5.71,24.67Z" transform="translate(-0.25 -0.25)"/><path class="cls-2" d="M11,10.62a4.56,4.56,0,1,1-4.56,4.56A4.56,4.56,0,0,1,11,10.62Zm2.52,4.56A2.53,2.53,0,1,0,11,17.72,2.53,2.53,0,0,0,13.51,15.18Z" transform="translate(-0.25 -0.25)"/><path class="cls-9" d="M11,12.65a2.54,2.54,0,1,1-2.54,2.53A2.53,2.53,0,0,1,11,12.65Z" transform="translate(-0.25 -0.25)"/><path class="cls-2" d="M9.89,72.87a4.56,4.56,0,1,1-4.56,4.55A4.55,4.55,0,0,1,9.89,72.87Zm2.54,4.55A2.54,2.54,0,1,0,9.89,80,2.53,2.53,0,0,0,12.43,77.42Z" transform="translate(-0.25 -0.25)"/><path class="cls-9" d="M9.89,74.9a2.53,2.53,0,1,1-2.53,2.52A2.53,2.53,0,0,1,9.89,74.9Z" transform="translate(-0.25 -0.25)"/><path class="cls-2" d="M168.23,10.62a4.56,4.56,0,1,1-4.55,4.56A4.56,4.56,0,0,1,168.23,10.62Zm2.54,4.56a2.53,2.53,0,1,0-2.54,2.53A2.53,2.53,0,0,0,170.77,15.18Z" transform="translate(-0.25 -0.25)"/><path class="cls-9" d="M168.23,12.65a2.53,2.53,0,1,1-2.52,2.53A2.53,2.53,0,0,1,168.23,12.65Z" transform="translate(-0.25 -0.25)"/><path class="cls-2" d="M167.15,72.86a4.56,4.56,0,1,1-4.56,4.56A4.56,4.56,0,0,1,167.15,72.86Zm2.52,4.56A2.53,2.53,0,1,0,167.15,80,2.53,2.53,0,0,0,169.67,77.42Z" transform="translate(-0.25 -0.25)"/><path class="cls-9" d="M167.15,74.89a2.54,2.54,0,1,1-2.54,2.53A2.53,2.53,0,0,1,167.15,74.89Z" transform="translate(-0.25 -0.25)"/><path class="cls-10" d="M38.59,40.56h3.54L42.3,42a7.87,7.87,0,0,1,2.41-1.3,8.89,8.89,0,0,1,2.92-.46,5,5,0,0,1,3.81,1.45,5.6,5.6,0,0,1,1.38,4v9.94H49V46a2.78,2.78,0,0,0-.68-2.08,2.91,2.91,0,0,0-2.09-.66,5.21,5.21,0,0,0-2.09.45,4.84,4.84,0,0,0-1.67,1.12V55.68H38.59Z" transform="translate(-0.25 -0.25)"/><path class="cls-10" d="M49,33.87h3.85v4.62H49Z" transform="translate(-0.25 -0.25)"/><path class="cls-10" d="M58.54,55.64a13.88,13.88,0,0,1-2.9-.86v-8h6.53l.17,2.77H59.29v3a6.7,6.7,0,0,0,1.29.27A10.61,10.61,0,0,0,62,53a5.36,5.36,0,0,0,2.48-.48A2.78,2.78,0,0,0,65.84,51a8.12,8.12,0,0,0,.41-2.85,7.27,7.27,0,0,0-.5-3,2.91,2.91,0,0,0-1.61-1.51,8.46,8.46,0,0,0-3.08-.45,18,18,0,0,0-5.22.75V41.15a16.13,16.13,0,0,1,2.91-.65A24.09,24.09,0,0,1,62,40.28q4.08,0,6,2t1.91,5.9A8,8,0,0,1,68,54q-1.9,2-6,2A18.55,18.55,0,0,1,58.54,55.64Z" transform="translate(-0.25 -0.25)"/><path class="cls-10" d="M75.2,55.54,70.87,45.18H74.6L78,53.27a3.5,3.5,0,0,0,3.08-1.4,7.51,7.51,0,0,0,1-4.23A8.24,8.24,0,0,0,81.72,45a2.35,2.35,0,0,0-1.07-1.35,4.34,4.34,0,0,0-2.05-.4H77.43V40.56h1.71a6.47,6.47,0,0,1,5,1.73c1.06,1.16,1.6,2.94,1.6,5.35,0,2.84-.66,4.93-2,6.29a7.13,7.13,0,0,1-5.36,2A10.68,10.68,0,0,1,75.2,55.54Z" transform="translate(-0.25 -0.25)"/><path class="cls-10" d="M88.46,54.94a3.25,3.25,0,0,1-.77-2.4v-12h3.85v11a1,1,0,0,0,1.17,1.18h1v2.94H91.06A3.72,3.72,0,0,1,88.46,54.94Z" transform="translate(-0.25 -0.25)"/><path class="cls-10" d="M96.39,40.56h3.53L100.1,42a7.94,7.94,0,0,1,2.4-1.3,9,9,0,0,1,2.93-.46,5,5,0,0,1,3.8,1.45,5.56,5.56,0,0,1,1.39,4v9.94h-3.85V46a2.74,2.74,0,0,0-.69-2.08,2.89,2.89,0,0,0-2.08-.66,5.21,5.21,0,0,0-2.09.45,4.84,4.84,0,0,0-1.67,1.12V55.68H96.39Z" transform="translate(-0.25 -0.25)"/><path class="cls-10" d="M98.36,35.91h9.12V33.64h3.14v4.85H98.16Z" transform="translate(-0.25 -0.25)"/><path class="cls-10" d="M107.48,27.9h3.14v3.92h-3.14Z" transform="translate(-0.25 -0.25)"/><path class="cls-10" d="M115.25,54.81a4,4,0,0,1-2-3.72,3.7,3.7,0,0,1,.49-1.89,3.54,3.54,0,0,1,1.45-1.39,3,3,0,0,1-1.37-1.16,3.42,3.42,0,0,1-.51-1.89,4.1,4.1,0,0,1,1.38-3.32,5.61,5.61,0,0,1,3.72-1.16,7.68,7.68,0,0,1,2.65.39v2.77a7.51,7.51,0,0,0-2-.22,2.86,2.86,0,0,0-1.61.36,1.31,1.31,0,0,0-.53,1.18,1.37,1.37,0,0,0,.57,1.26,3.53,3.53,0,0,0,1.82.36h1.6l.14,2.77h-1.77c-1.61,0-2.42.65-2.42,1.94a1.54,1.54,0,0,0,.87,1.45,5.81,5.81,0,0,0,2.7.48q3.62,0,3.62-2.94V40.56h3.85v9.18a5.72,5.72,0,0,1-1.86,4.71A8.48,8.48,0,0,1,120.63,56,10.77,10.77,0,0,1,115.25,54.81Z" transform="translate(-0.25 -0.25)"/><path class="cls-10" d="M130.29,55.06V52.18a10,10,0,0,0,4,.84,5.42,5.42,0,0,0,3.85-1.11,5.14,5.14,0,0,0,1.14-3.79,5.18,5.18,0,0,0-1.14-3.8,5.47,5.47,0,0,0-3.85-1.1,10,10,0,0,0-4,.84V41.17a12.76,12.76,0,0,1,4.91-.89c2.58,0,4.52.66,5.8,2s1.92,3.27,1.92,5.85A8.1,8.1,0,0,1,141,54c-1.28,1.33-3.22,2-5.8,2A12.57,12.57,0,0,1,130.29,55.06Z" transform="translate(-0.25 -0.25)"/></g></g></svg>