<svg xmlns="http://www.w3.org/2000/svg" viewBox="0 0 178 133.36"><defs><style>.cls-1{fill:#769360;opacity:0.75;}.cls-2{fill:#77663c;}.cls-3{fill:#604f2b;}.cls-4{fill:#9b8043;}.cls-5{fill:#96804e;}.cls-6{fill:#cca75e;}.cls-7{fill:#ba9e67;}.cls-8{fill:#634f28;}.cls-9{fill:#423118;}.cls-10{fill:#f9dea0;}.cls-11{fill:#fff;}</style></defs><title>Asset 24</title><g id="Layer_2" data-name="Layer 2"><g id="ป้ายกระบวนการ"><polygon class="cls-1" points="176 133.36 0 133.36 27 119.36 150 119.36 176 133.36"/><path class="cls-2" d="M98,5.2C98,2.53,95.08.36,91.43.26H93.2a5.33,5.33,0,0,1,5.33,5.33V123.23a5.3,5.3,0,0,1-3.41,5,4.71,4.71,0,0,0,2.86-4Z" transform="translate(-0.25 -0.25)"/><path class="cls-2" d="M94.71,5.2v119c0,1.91-1.51,3.57-3.71,4.39H88.6c-2.21-.82-3.72-2.48-3.72-4.39V5.2C84.88,3,87,1.06,89.79.46,92.63,1.06,94.71,3,94.71,5.2Z" transform="translate(-0.25 -0.25)"/><path class="cls-3" d="M94.71,5.2c0-2.25-2.08-4.14-4.92-4.74a9.68,9.68,0,0,1,1.64-.2C95.08.36,98,2.53,98,5.2v119a4.71,4.71,0,0,1-2.86,4,5.09,5.09,0,0,1-1.92.37H91c2.2-.82,3.71-2.48,3.71-4.39Z" transform="translate(-0.25 -0.25)"/><path class="cls-2" d="M91.16.25h.27a9.68,9.68,0,0,0-1.64.2,9.56,9.56,0,0,0-1.63-.2h3Z" transform="translate(-0.25 -0.25)"/><path class="cls-3" d="M84.88,124.17c0,1.91,1.51,3.57,3.72,4.39H86.4a5.14,5.14,0,0,1-1.93-.37,4.72,4.72,0,0,1-2.87-4V5.2c0-2.67,2.91-4.84,6.56-4.94a9.56,9.56,0,0,1,1.63.2C87,1.06,84.88,3,84.88,5.2Z" transform="translate(-0.25 -0.25)"/><path class="cls-2" d="M81.06,5.58A5.34,5.34,0,0,1,86.4.25h1.76C84.51.36,81.6,2.53,81.6,5.2v119a4.72,4.72,0,0,0,2.87,4,5.3,5.3,0,0,1-3.41-5Z" transform="translate(-0.25 -0.25)"/><rect class="cls-4" x="62.22" y="30.83" width="52.14" height="0.82" rx="0.37" transform="translate(119.28 -57.31) rotate(90)"/><rect class="cls-4" x="65.5" y="48.3" width="52.14" height="0.82" rx="0.37" transform="translate(140.03 -43.11) rotate(90)"/><rect class="cls-4" x="62.22" y="97.44" width="52.14" height="0.82" rx="0.37" transform="translate(185.9 9.31) rotate(90)"/><path class="cls-5" d="M178.25,77v.58A6.25,6.25,0,0,1,172,83.79h-.81V80.51a.5.5,0,0,0,.51-.5V78.83a.5.5,0,0,0-.51-.5h-12V76.14a.49.49,0,0,0,.5-.5V74.46a.5.5,0,0,0-.5-.5V70.68h12.24a6.83,6.83,0,0,1,6.82,6.56C178.24,77.15,178.25,77.06,178.25,77Z" transform="translate(-0.25 -0.25)"/><path class="cls-5" d="M178.25,74.23a6.82,6.82,0,0,0-5.46-6.68v-.09a6.25,6.25,0,0,1,5.46,6.2Z" transform="translate(-0.25 -0.25)"/><path class="cls-5" d="M172.79,24.68A6.83,6.83,0,0,0,178.25,18v.58a6.25,6.25,0,0,1-5.46,6.2Z" transform="translate(-0.25 -0.25)"/><path class="cls-2" d="M172.79,67.46v.09a6.18,6.18,0,0,0-1.37-.14H172A7,7,0,0,1,172.79,67.46Z" transform="translate(-0.25 -0.25)"/><path class="cls-5" d="M171.42,24.82a6.18,6.18,0,0,0,1.37-.14v.09a7,7,0,0,1-.79.05Z" transform="translate(-0.25 -0.25)"/><path class="cls-6" d="M171.19,78.33a.5.5,0,0,1,.51.5V80a.5.5,0,0,1-.51.5H67.91a.51.51,0,0,1-.5-.5V78.83a.51.51,0,0,1,.5-.5H171.19Z" transform="translate(-0.25 -0.25)"/><path class="cls-5" d="M169.51,43.89a.51.51,0,0,1,.5-.51h.09a.5.5,0,0,1,.5.51V62.54a.5.5,0,0,1-.5.5H170a.51.51,0,0,1-.5-.5Z" transform="translate(-0.25 -0.25)"/><path class="cls-6" d="M169,15H119.24a.51.51,0,0,1-.51-.5V13.31a.51.51,0,0,1,.51-.5H169a.5.5,0,0,1,.5.5v1.18A.5.5,0,0,1,169,15Z" transform="translate(-0.25 -0.25)"/><path class="cls-5" d="M167.65,27.82a.5.5,0,0,1,.5.51V47.52a.5.5,0,0,1-.5.51h-1.18a.51.51,0,0,1-.51-.51V28.33a.51.51,0,0,1,.51-.51Z" transform="translate(-0.25 -0.25)"/><path class="cls-5" d="M166.24,55.9a.51.51,0,0,1,.5-.5h.63a.5.5,0,0,1,.5.5v3.36a.49.49,0,0,1-.5.5h-.63a.5.5,0,0,1-.5-.5Z" transform="translate(-0.25 -0.25)"/><path class="cls-2" d="M163.51,67.41V24.82H172a7,7,0,0,0,.79-.05V67.46a7,7,0,0,0-.79,0h-8.49Zm6-23.52V62.54a.51.51,0,0,0,.5.5h.09a.5.5,0,0,0,.5-.5V43.89a.5.5,0,0,0-.5-.51H170A.51.51,0,0,0,169.51,43.89Zm-1.64,12a.5.5,0,0,0-.5-.5h-.63a.51.51,0,0,0-.5.5v3.36a.5.5,0,0,0,.5.5h.63a.49.49,0,0,0,.5-.5Zm.28-8.38V28.33a.5.5,0,0,0-.5-.51h-1.18a.51.51,0,0,0-.51.51V47.52a.51.51,0,0,0,.51.51h1.18A.5.5,0,0,0,168.15,47.52Z" transform="translate(-0.25 -0.25)"/><path class="cls-7" d="M172.79,68.5h-12V67.41h10.64a6.18,6.18,0,0,1,1.37.14Z" transform="translate(-0.25 -0.25)"/><rect class="cls-8" x="160.53" y="24.57" width="2.73" height="42.59"/><path class="cls-2" d="M163.51,24.82h-2.73V23.73h12v.95a6.18,6.18,0,0,1-1.37.14Z" transform="translate(-0.25 -0.25)"/><rect class="cls-9" x="17.47" y="24.57" width="143.06" height="42.59"/><path class="cls-6" d="M159.18,74a.5.5,0,0,1,.5.5v1.18a.49.49,0,0,1-.5.5H140a.5.5,0,0,1-.5-.5V74.46a.51.51,0,0,1,.5-.5Z" transform="translate(-0.25 -0.25)"/><path class="cls-6" d="M148.26,17.18a.49.49,0,0,1,.5.5v1.18a.5.5,0,0,1-.5.5H45a.51.51,0,0,1-.5-.5V17.68a.5.5,0,0,1,.5-.5Z" transform="translate(-0.25 -0.25)"/><path class="cls-6" d="M130.79,72.87a.5.5,0,0,1,.5.5v1.18a.5.5,0,0,1-.5.5H27.51a.51.51,0,0,1-.51-.5V73.37a.51.51,0,0,1,.51-.5Z" transform="translate(-0.25 -0.25)"/><path class="cls-6" d="M107.86,13.9H4.57a.51.51,0,0,1-.5-.5V12.22a.5.5,0,0,1,.5-.5H107.86a.5.5,0,0,1,.5.5V13.4A.5.5,0,0,1,107.86,13.9Z" transform="translate(-0.25 -0.25)"/><path class="cls-6" d="M56.53,77.24a.5.5,0,0,1,.5.5v1.18a.5.5,0,0,1-.5.5H6.76a.51.51,0,0,1-.51-.5V77.74a.51.51,0,0,1,.51-.5Z" transform="translate(-0.25 -0.25)"/><path class="cls-5" d="M27.51,72.87a.51.51,0,0,0-.51.5v1.18a.51.51,0,0,0,.51.5H130.79a.5.5,0,0,0,.5-.5V73.37a.5.5,0,0,0-.5-.5ZM57,77.74a.5.5,0,0,0-.5-.5H6.76a.51.51,0,0,0-.51.5v1.18a.51.51,0,0,0,.51.5H56.53a.5.5,0,0,0,.5-.5Zm-50-7.06H159.18V74H140a.51.51,0,0,0-.5.5v1.18a.5.5,0,0,0,.5.5h19.2v2.19H67.91a.51.51,0,0,0-.5.5V80a.51.51,0,0,0,.5.5H171.19v3.28H6.5A6.25,6.25,0,0,1,.25,77.54V77c0,.1,0,.19,0,.28A6.83,6.83,0,0,1,7.07,70.68Z" transform="translate(-0.25 -0.25)"/><path class="cls-6" d="M35.78,16.08a.51.51,0,0,1,.51.51v1.18a.5.5,0,0,1-.51.5H16.59a.51.51,0,0,1-.51-.5V16.59a.51.51,0,0,1,.51-.51Z" transform="translate(-0.25 -0.25)"/><polygon class="cls-8" points="17.47 24.57 17.47 67.16 14.74 67.16 14.74 58.19 14.74 24.57 17.47 24.57"/><path class="cls-2" d="M15,24.82H7.07a6.09,6.09,0,0,1-1.36-.14v-.95h12v1.09Z" transform="translate(-0.25 -0.25)"/><path class="cls-7" d="M15,67.41V68.5H5.71v-1a6.09,6.09,0,0,1,1.36-.14Z" transform="translate(-0.25 -0.25)"/><path class="cls-5" d="M12.26,58.44a.5.5,0,0,1-.5.51H11.4a.51.51,0,0,1-.5-.51V49.35a.43.43,0,0,1,.15-.35.46.46,0,0,1,.35-.16h.36a.5.5,0,0,1,.5.51Z" transform="translate(-0.25 -0.25)"/><path class="cls-2" d="M15,24.82V58.44H12.26V49.35a.5.5,0,0,0-.5-.51H11.4a.46.46,0,0,0-.35.16L9.57,47.75a.5.5,0,0,0,.51-.5V28.6a.5.5,0,0,0-.51-.5V24.82Z" transform="translate(-0.25 -0.25)"/><path class="cls-2" d="M9.57,47.75,11.05,49a.43.43,0,0,0-.15.35v9.09a.51.51,0,0,0,.5.51h.36a.5.5,0,0,0,.5-.51H15v9H6.5a6.84,6.84,0,0,0-.79,0V24.77a6.84,6.84,0,0,0,.79.05H9.57V28.1H9.49a.51.51,0,0,0-.51.5V47.25a.51.51,0,0,0,.51.5Z" transform="translate(-0.25 -0.25)"/><path class="cls-5" d="M9,28.6a.51.51,0,0,1,.51-.5h.08a.5.5,0,0,1,.51.5V47.25a.5.5,0,0,1-.51.5H9.49a.51.51,0,0,1-.51-.5Z" transform="translate(-0.25 -0.25)"/><path class="cls-5" d="M7.07,24.82H6.5a6.84,6.84,0,0,1-.79-.05v-.09A6.09,6.09,0,0,0,7.07,24.82Z" transform="translate(-0.25 -0.25)"/><path class="cls-2" d="M6.5,67.41h.57a6.09,6.09,0,0,0-1.36.14v-.09A6.84,6.84,0,0,1,6.5,67.41Z" transform="translate(-0.25 -0.25)"/><path class="cls-5" d="M119.24,15H169a.5.5,0,0,0,.5-.5V13.31a.5.5,0,0,0-.5-.5H119.24a.51.51,0,0,0-.51.5v1.18A.51.51,0,0,0,119.24,15ZM44.48,18.86a.51.51,0,0,0,.5.5H148.26a.5.5,0,0,0,.5-.5V17.68a.49.49,0,0,0-.5-.5H45a.5.5,0,0,0-.5.5Zm-8.7-2.78H16.59a.51.51,0,0,0-.51.51v1.18a.51.51,0,0,0,.51.5H35.78a.5.5,0,0,0,.51-.5V16.59A.51.51,0,0,0,35.78,16.08ZM4.57,13.9H107.86a.5.5,0,0,0,.5-.5V12.22a.5.5,0,0,0-.5-.5H4.57a.5.5,0,0,0-.5.5V13.4A.51.51,0,0,0,4.57,13.9Zm166.85,7.64H7.07A6.81,6.81,0,0,1,.26,15c0,.09,0,.19,0,.27v-.57A6.24,6.24,0,0,1,6.5,8.44H172a6.25,6.25,0,0,1,6.25,6.25v.57c0-.08,0-.18,0-.27A6.82,6.82,0,0,1,171.42,21.54Z" transform="translate(-0.25 -0.25)"/><path class="cls-2" d="M178.25,18a6.83,6.83,0,0,1-5.46,6.69v-.95h-12v1.09H17.72V23.73h-12v.95A6.83,6.83,0,0,1,.25,18V15.26c0-.08,0-.18,0-.27a6.81,6.81,0,0,0,6.81,6.55H171.42A6.82,6.82,0,0,0,178.24,15c0,.09,0,.19,0,.27Z" transform="translate(-0.25 -0.25)"/><path class="cls-7" d="M172.79,67.55a6.82,6.82,0,0,1,5.46,6.68V77c0,.1,0,.19,0,.28a6.83,6.83,0,0,0-6.82-6.56H7.07A6.83,6.83,0,0,0,.26,77.24c0-.09,0-.18,0-.28V74.23a6.82,6.82,0,0,1,5.46-6.68v1h12V67.41H160.78V68.5h12Z" transform="translate(-0.25 -0.25)"/><path class="cls-5" d="M.25,18a6.83,6.83,0,0,0,5.46,6.69v.09a6.25,6.25,0,0,1-5.46-6.2Z" transform="translate(-0.25 -0.25)"/><path class="cls-5" d="M5.71,67.55A6.82,6.82,0,0,0,.25,74.23v-.57a6.25,6.25,0,0,1,5.46-6.2Z" transform="translate(-0.25 -0.25)"/><path class="cls-10" d="M11,12.65a2.54,2.54,0,1,1-2.54,2.53A2.52,2.52,0,0,1,11,12.65Z" transform="translate(-0.25 -0.25)"/><path class="cls-3" d="M8.45,15.18A2.53,2.53,0,1,0,11,12.65,2.54,2.54,0,0,0,8.45,15.18Zm-2,0A4.56,4.56,0,1,1,11,19.73,4.56,4.56,0,0,1,6.43,15.18Z" transform="translate(-0.25 -0.25)"/><path class="cls-10" d="M9.89,74.9a2.53,2.53,0,1,1-2.53,2.52A2.53,2.53,0,0,1,9.89,74.9Z" transform="translate(-0.25 -0.25)"/><path class="cls-3" d="M9.89,80a2.53,2.53,0,1,0-2.53-2.54A2.54,2.54,0,0,0,9.89,80Zm4.56-2.54a4.56,4.56,0,1,1-4.56-4.55A4.56,4.56,0,0,1,14.45,77.42Z" transform="translate(-0.25 -0.25)"/><path class="cls-10" d="M168.23,12.65a2.53,2.53,0,1,1-2.52,2.53A2.53,2.53,0,0,1,168.23,12.65Z" transform="translate(-0.25 -0.25)"/><path class="cls-3" d="M168.23,19.73a4.56,4.56,0,1,1,4.56-4.55A4.55,4.55,0,0,1,168.23,19.73Zm-2.52-4.55a2.53,2.53,0,1,0,2.52-2.53A2.52,2.52,0,0,0,165.71,15.18Z" transform="translate(-0.25 -0.25)"/><path class="cls-10" d="M167.14,74.89a2.54,2.54,0,1,1-2.53,2.53A2.53,2.53,0,0,1,167.14,74.89Z" transform="translate(-0.25 -0.25)"/><path class="cls-3" d="M167.14,72.86a4.56,4.56,0,1,1-4.56,4.56A4.56,4.56,0,0,1,167.14,72.86Zm0,7.1a2.54,2.54,0,1,0-2.53-2.54A2.53,2.53,0,0,0,167.14,80Z" transform="translate(-0.25 -0.25)"/><path class="cls-11" d="M23.74,47.67a5,5,0,0,1,.49-2.36,2.65,2.65,0,0,1,1.7-1.3L23,43.26V39.65a11.33,11.33,0,0,1,3.29-1.81,12,12,0,0,1,4.28-.73,8.79,8.79,0,0,1,5.48,1.44c1.22,1,1.83,2.56,1.83,4.82v9.11H34.07v-9.2a3.21,3.21,0,0,0-.84-2.5A4.29,4.29,0,0,0,30.4,40a7,7,0,0,0-2.3.37,5.66,5.66,0,0,0-1.77.92v.39l3.16.84v2.29a2.37,2.37,0,0,0-1.51.91,3.75,3.75,0,0,0-.4,1.94v4.78H23.74Z" transform="translate(-0.25 -0.25)"/><path class="cls-11" d="M43.39,52.53A10.11,10.11,0,0,1,41,51.94v-3a13.87,13.87,0,0,0,4.73.92,9,9,0,0,0,2.73-.29,1.12,1.12,0,0,0,.79-1.13,1.24,1.24,0,0,0-.3-.87,2.34,2.34,0,0,0-.85-.57c-.37-.16-1-.37-1.75-.63l-1.22-.39a10.13,10.13,0,0,1-3.37-1.72,3.27,3.27,0,0,1-1.07-2.61,3.87,3.87,0,0,1,1.64-3.29,7.89,7.89,0,0,1,4.76-1.21,18.4,18.4,0,0,1,2.63.19,15.25,15.25,0,0,1,2.24.48v3a9.71,9.71,0,0,0-2.09-.56,14.29,14.29,0,0,0-2.24-.2,7.45,7.45,0,0,0-2.42.32,1.18,1.18,0,0,0-.88,1.16,1.06,1.06,0,0,0,.6,1,14,14,0,0,0,2.22.84c.34.09.78.23,1.31.42a13.11,13.11,0,0,1,2.6,1.14,3.74,3.74,0,0,1,1.39,1.41,4.34,4.34,0,0,1,.45,2.09,3.63,3.63,0,0,1-1.7,3.25,8.64,8.64,0,0,1-4.76,1.1A20.43,20.43,0,0,1,43.39,52.53Z" transform="translate(-0.25 -0.25)"/><path class="cls-11" d="M55,39.34h3.24v1.37h4l-.11,2.77H55Zm0,7.49h3.24V48.2h4L62.13,51H55Z" transform="translate(-0.25 -0.25)"/><path class="cls-11" d="M66.72,51.15a5.83,5.83,0,0,1-1.92-4.74v-9h3.84v9.08A3.34,3.34,0,0,0,69.51,49a4.55,4.55,0,0,0,5.21,0,3.38,3.38,0,0,0,.86-2.53V37.39h3.84v9a5.83,5.83,0,0,1-1.92,4.74,8.16,8.16,0,0,1-5.39,1.6A8.17,8.17,0,0,1,66.72,51.15Z" transform="translate(-0.25 -0.25)"/><path class="cls-11" d="M81.79,51.86V49a9.88,9.88,0,0,0,4,.84,5.45,5.45,0,0,0,3.84-1.1,5.16,5.16,0,0,0,1.14-3.79,5.11,5.11,0,0,0-1.14-3.78A5.41,5.41,0,0,0,85.77,40a9.88,9.88,0,0,0-4,.84V38a12.66,12.66,0,0,1,4.89-.89q3.87,0,5.79,2a8.09,8.09,0,0,1,1.92,5.84,8.08,8.08,0,0,1-1.92,5.84q-1.92,2-5.79,2A12.47,12.47,0,0,1,81.79,51.86Z" transform="translate(-0.25 -0.25)"/><path class="cls-11" d="M98.2,51.27a5.61,5.61,0,0,1-1.42-4.08v-9.8h3.84V47a3,3,0,0,0,.68,2.18,2.86,2.86,0,0,0,2.08.67,5.21,5.21,0,0,0,2.09-.45,4.92,4.92,0,0,0,1.67-1.11V37.39H111V52.48h-3.53L107.28,51a8.06,8.06,0,0,1-5.18,1.76A5.15,5.15,0,0,1,98.2,51.27Z" transform="translate(-0.25 -0.25)"/><path class="cls-11" d="M114.51,47.67a5.14,5.14,0,0,1,.48-2.36A2.65,2.65,0,0,1,116.7,44l-2.91-.75V39.65a11.47,11.47,0,0,1,3.29-1.81,12.06,12.06,0,0,1,4.28-.73,8.77,8.77,0,0,1,5.48,1.44c1.22,1,1.83,2.56,1.83,4.82v9.11h-3.84v-9.2a3.21,3.21,0,0,0-.84-2.5,4.29,4.29,0,0,0-2.83-.74,7,7,0,0,0-2.3.37,5.66,5.66,0,0,0-1.77.92v.39l3.16.84v2.29a2.37,2.37,0,0,0-1.51.91,3.76,3.76,0,0,0-.39,1.94v4.78h-3.84Z" transform="translate(-0.25 -0.25)"/><path class="cls-11" d="M137.49,43.2a3.67,3.67,0,0,0-.64-2.39,2.92,2.92,0,0,0-2.34-.77,11,11,0,0,0-2,.2,10.67,10.67,0,0,0-1.9.53V38a10.6,10.6,0,0,1,2.13-.64,12.42,12.42,0,0,1,2.48-.25c2.14,0,3.69.45,4.65,1.34a5.51,5.51,0,0,1,1.44,4.22v9.81h-3.85Z" transform="translate(-0.25 -0.25)"/><path class="cls-11" d="M146.81,52.53a10.11,10.11,0,0,1-2.35-.59v-3a12.72,12.72,0,0,0,2.34.67,12.54,12.54,0,0,0,2.39.25,9,9,0,0,0,2.73-.29,1.13,1.13,0,0,0,.8-1.13,1.24,1.24,0,0,0-.3-.87,2.48,2.48,0,0,0-.86-.57c-.37-.16-.95-.37-1.75-.63l-1.22-.39a10.13,10.13,0,0,1-3.37-1.72,3.3,3.3,0,0,1-1.07-2.61,3.89,3.89,0,0,1,1.64-3.29,7.91,7.91,0,0,1,4.76-1.21,18.54,18.54,0,0,1,2.64.19,15.08,15.08,0,0,1,2.23.48v3a9.71,9.71,0,0,0-2.09-.56,14.18,14.18,0,0,0-2.24-.2,7.34,7.34,0,0,0-2.41.32,1.18,1.18,0,0,0-.89,1.16,1.06,1.06,0,0,0,.6,1,14,14,0,0,0,2.22.84c.34.09.78.23,1.31.42a12.85,12.85,0,0,1,2.6,1.14,3.85,3.85,0,0,1,1.4,1.41,4.46,4.46,0,0,1,.44,2.09,3.64,3.64,0,0,1-1.69,3.25,8.68,8.68,0,0,1-4.77,1.1A20.43,20.43,0,0,1,146.81,52.53Z" transform="translate(-0.25 -0.25)"/></g></g></svg>