<svg xmlns="http://www.w3.org/2000/svg" viewBox="0 0 178 128.31"><defs><style>.cls-1{fill:#77663c;}.cls-2{fill:#604f2b;}.cls-3{fill:#9b8043;}.cls-4{fill:#96804e;}.cls-5{fill:#ba9e67;}.cls-6{fill:#cca75e;}.cls-7{fill:#634f28;}.cls-8{fill:#423118;}.cls-9{fill:#f9dea0;}.cls-10{fill:#fff;}</style></defs><title>Asset 26</title><g id="Layer_2" data-name="Layer 2"><g id="ป้ายติดต่อ"><path class="cls-1" d="M98.54,5.59V123.23a5.31,5.31,0,0,1-3.43,5,4.71,4.71,0,0,0,2.88-4V5.2C98,2.53,95.08.36,91.44.26H93.2A5.35,5.35,0,0,1,98.54,5.59Z" transform="translate(-0.25 -0.25)"/><path class="cls-2" d="M98,5.2v119a4.71,4.71,0,0,1-2.88,4,5.07,5.07,0,0,1-1.91.36H91c2.21-.82,3.71-2.48,3.71-4.39V5.2C94.71,3,92.64,1.06,89.8.46a9.55,9.55,0,0,1,1.64-.2C95.08.36,98,2.53,98,5.2Z" transform="translate(-0.25 -0.25)"/><path class="cls-1" d="M94.71,5.2v119c0,1.91-1.5,3.57-3.71,4.39H88.6c-2.21-.82-3.71-2.48-3.71-4.39V5.2C84.89,3,87,1.06,89.8.46,92.64,1.06,94.71,3,94.71,5.2Z" transform="translate(-0.25 -0.25)"/><path class="cls-1" d="M91.16.25h.28a9.55,9.55,0,0,0-1.64.2,9.55,9.55,0,0,0-1.64-.2h3Z" transform="translate(-0.25 -0.25)"/><path class="cls-2" d="M88.16.26a9.55,9.55,0,0,1,1.64.2C87,1.06,84.89,3,84.89,5.2v119c0,1.91,1.5,3.57,3.71,4.39H86.39a5.06,5.06,0,0,1-1.9-.36,4.71,4.71,0,0,1-2.88-4V5.2C81.61,2.53,84.51.36,88.16.26Z" transform="translate(-0.25 -0.25)"/><path class="cls-1" d="M88.43.25h-.27c-3.65.1-6.55,2.27-6.55,4.94v119a4.71,4.71,0,0,0,2.88,4,5.3,5.3,0,0,1-3.43-5V5.59A5.33,5.33,0,0,1,86.39.25Z" transform="translate(-0.25 -0.25)"/><rect class="cls-3" x="62.22" y="30.83" width="52.14" height="0.82" rx="0.37" transform="translate(119.28 -57.31) rotate(90)"/><rect class="cls-3" x="65.5" y="48.3" width="52.14" height="0.82" rx="0.37" transform="translate(140.03 -43.11) rotate(90)"/><rect class="cls-3" x="62.22" y="97.44" width="52.14" height="0.82" rx="0.37" transform="translate(185.89 9.31) rotate(90)"/><path class="cls-4" d="M178.25,77v.58A6.25,6.25,0,0,1,172,83.79h-.8V80.51a.5.5,0,0,0,.5-.5V78.83a.51.51,0,0,0-.5-.5h-12V76.14a.5.5,0,0,0,.5-.5V74.46a.51.51,0,0,0-.5-.5V70.68h12.24a6.82,6.82,0,0,1,6.8,6.56A2.46,2.46,0,0,0,178.25,77Z" transform="translate(-0.25 -0.25)"/><path class="cls-5" d="M178.25,74.23V77a2.46,2.46,0,0,1,0,.28,6.82,6.82,0,0,0-6.8-6.56H7.08A6.84,6.84,0,0,0,.26,77.24c0-.09,0-.18,0-.28V74.23a6.81,6.81,0,0,1,5.46-6.68v1h12V67.41H160.78V68.5h12v-1A6.81,6.81,0,0,1,178.25,74.23Z" transform="translate(-0.25 -0.25)"/><path class="cls-4" d="M178.25,73.65v.58a6.81,6.81,0,0,0-5.46-6.68v-.09A6.24,6.24,0,0,1,178.25,73.65Z" transform="translate(-0.25 -0.25)"/><path class="cls-4" d="M178.25,18v.58a6.24,6.24,0,0,1-5.46,6.19v-.08A6.82,6.82,0,0,0,178.25,18Z" transform="translate(-0.25 -0.25)"/><path class="cls-1" d="M178.25,15.26V18a6.82,6.82,0,0,1-5.46,6.69v-.95h-12v1.09h-143V23.73h-12v.95A6.82,6.82,0,0,1,.25,18V15.26c0-.08,0-.17,0-.27a6.82,6.82,0,0,0,6.82,6.55H171.43a6.8,6.8,0,0,0,6.8-6.55C178.24,15.09,178.25,15.18,178.25,15.26Z" transform="translate(-0.25 -0.25)"/><path class="cls-4" d="M178.25,14.68v.58c0-.08,0-.17,0-.27a6.8,6.8,0,0,1-6.8,6.55H7.08A6.82,6.82,0,0,1,.26,15c0,.1,0,.19,0,.27v-.58A6.24,6.24,0,0,1,6.5,8.44H172A6.24,6.24,0,0,1,178.25,14.68Zm-8.73-.19V13.31a.51.51,0,0,0-.5-.5H119.23a.5.5,0,0,0-.49.5v1.18a.49.49,0,0,0,.49.5H169A.5.5,0,0,0,169.52,14.49Zm-20.75,4.37V17.68a.51.51,0,0,0-.5-.51H45a.5.5,0,0,0-.49.51v1.18a.49.49,0,0,0,.49.5h103.3A.5.5,0,0,0,148.77,18.86ZM108.36,13.4V12.22a.51.51,0,0,0-.5-.51H4.57a.5.5,0,0,0-.49.51V13.4a.49.49,0,0,0,.49.5H107.86A.5.5,0,0,0,108.36,13.4ZM36.29,17.76V16.59a.51.51,0,0,0-.5-.51H16.58a.5.5,0,0,0-.49.51v1.17a.5.5,0,0,0,.49.51H35.79A.5.5,0,0,0,36.29,17.76Z" transform="translate(-0.25 -0.25)"/><path class="cls-5" d="M163.51,67.41h7.92a6.09,6.09,0,0,1,1.36.14v1h-12V67.41Z" transform="translate(-0.25 -0.25)"/><path class="cls-1" d="M172.79,67.46v.09a6.09,6.09,0,0,0-1.36-.14H172A6.84,6.84,0,0,1,172.79,67.46Z" transform="translate(-0.25 -0.25)"/><path class="cls-1" d="M172.79,24.76v42.7a6.84,6.84,0,0,0-.79,0h-8.49V24.82H172A5.16,5.16,0,0,0,172.79,24.76Zm-2.18,37.78V43.89a.51.51,0,0,0-.5-.51H170a.5.5,0,0,0-.49.51V62.54a.49.49,0,0,0,.49.5h.1A.5.5,0,0,0,170.61,62.54Zm-2.46-15V28.32a.51.51,0,0,0-.5-.5h-1.19a.5.5,0,0,0-.49.5v19.2a.49.49,0,0,0,.49.5h1.19A.5.5,0,0,0,168.15,47.52Zm-.27,11.74V55.9a.5.5,0,0,0-.5-.5h-.65a.49.49,0,0,0-.49.5v3.36a.49.49,0,0,0,.49.5h.65A.5.5,0,0,0,167.88,59.26Z" transform="translate(-0.25 -0.25)"/><path class="cls-4" d="M172.79,24.68v.08a5.16,5.16,0,0,1-.79.06h-.57A6.09,6.09,0,0,0,172.79,24.68Z" transform="translate(-0.25 -0.25)"/><path class="cls-1" d="M163.51,24.82h-2.73V23.73h12v.95a6.09,6.09,0,0,1-1.36.14Z" transform="translate(-0.25 -0.25)"/><path class="cls-6" d="M171.7,78.83V80a.5.5,0,0,1-.5.5H67.9a.49.49,0,0,1-.49-.5V78.83a.5.5,0,0,1,.49-.5H171.2A.51.51,0,0,1,171.7,78.83Z" transform="translate(-0.25 -0.25)"/><path class="cls-4" d="M171.2,80.51v3.28H6.5A6.25,6.25,0,0,1,.25,77.54V77c0,.1,0,.19,0,.28a6.84,6.84,0,0,1,6.82-6.56H159.19V74H140a.5.5,0,0,0-.49.5v1.18a.49.49,0,0,0,.49.5h19.21v2.19H67.9a.5.5,0,0,0-.49.5V80a.49.49,0,0,0,.49.5Zm-39.9-6V73.37a.51.51,0,0,0-.51-.5H27.5a.5.5,0,0,0-.49.5v1.18a.49.49,0,0,0,.49.5H130.79A.5.5,0,0,0,131.3,74.55ZM57,78.92V77.74a.51.51,0,0,0-.5-.5H6.75a.5.5,0,0,0-.49.5v1.18a.49.49,0,0,0,.49.5H56.54A.5.5,0,0,0,57,78.92Z" transform="translate(-0.25 -0.25)"/><path class="cls-4" d="M170.61,43.89V62.54a.5.5,0,0,1-.5.5H170a.49.49,0,0,1-.49-.5V43.89a.5.5,0,0,1,.49-.51h.1A.51.51,0,0,1,170.61,43.89Z" transform="translate(-0.25 -0.25)"/><path class="cls-6" d="M169.52,13.31v1.18a.5.5,0,0,1-.5.5H119.23a.49.49,0,0,1-.49-.5V13.31a.5.5,0,0,1,.49-.5H169A.51.51,0,0,1,169.52,13.31Z" transform="translate(-0.25 -0.25)"/><path class="cls-4" d="M168.15,28.32v19.2a.5.5,0,0,1-.5.5h-1.19a.49.49,0,0,1-.49-.5V28.32a.5.5,0,0,1,.49-.5h1.19A.51.51,0,0,1,168.15,28.32Z" transform="translate(-0.25 -0.25)"/><path class="cls-4" d="M167.88,55.9v3.36a.5.5,0,0,1-.5.5h-.65a.49.49,0,0,1-.49-.5V55.9a.49.49,0,0,1,.49-.5h.65A.5.5,0,0,1,167.88,55.9Z" transform="translate(-0.25 -0.25)"/><rect class="cls-7" x="160.53" y="24.57" width="2.73" height="42.59"/><rect class="cls-8" x="17.47" y="24.57" width="143.06" height="42.59"/><path class="cls-6" d="M159.69,74.46v1.18a.5.5,0,0,1-.5.5H140a.49.49,0,0,1-.49-.5V74.46A.5.5,0,0,1,140,74h19.21A.51.51,0,0,1,159.69,74.46Z" transform="translate(-0.25 -0.25)"/><path class="cls-6" d="M148.77,17.68v1.18a.5.5,0,0,1-.5.5H45a.49.49,0,0,1-.49-.5V17.68a.5.5,0,0,1,.49-.51h103.3A.51.51,0,0,1,148.77,17.68Z" transform="translate(-0.25 -0.25)"/><path class="cls-6" d="M131.3,73.37v1.18a.5.5,0,0,1-.51.5H27.5a.49.49,0,0,1-.49-.5V73.37a.5.5,0,0,1,.49-.5H130.79A.51.51,0,0,1,131.3,73.37Z" transform="translate(-0.25 -0.25)"/><path class="cls-6" d="M108.36,12.22V13.4a.5.5,0,0,1-.5.5H4.57a.49.49,0,0,1-.49-.5V12.22a.5.5,0,0,1,.49-.51H107.86A.51.51,0,0,1,108.36,12.22Z" transform="translate(-0.25 -0.25)"/><path class="cls-6" d="M57,77.74v1.18a.5.5,0,0,1-.5.5H6.75a.49.49,0,0,1-.49-.5V77.74a.5.5,0,0,1,.49-.5H56.54A.51.51,0,0,1,57,77.74Z" transform="translate(-0.25 -0.25)"/><path class="cls-6" d="M36.29,16.59v1.17a.5.5,0,0,1-.5.51H16.58a.5.5,0,0,1-.49-.51V16.59a.5.5,0,0,1,.49-.51H35.79A.51.51,0,0,1,36.29,16.59Z" transform="translate(-0.25 -0.25)"/><polygon class="cls-7" points="17.47 24.57 17.47 67.16 14.74 67.16 14.74 58.19 14.74 24.57 17.47 24.57"/><path class="cls-1" d="M17.73,23.73v1.09H7.08a6.18,6.18,0,0,1-1.37-.14v-.95Z" transform="translate(-0.25 -0.25)"/><path class="cls-5" d="M15,67.41V68.5H5.71v-1a6.18,6.18,0,0,1,1.37-.14Z" transform="translate(-0.25 -0.25)"/><path class="cls-1" d="M15,58.44v9H6.5a7.13,7.13,0,0,0-.79,0V24.76a5.35,5.35,0,0,0,.79.06H9.58V28.1h-.1a.49.49,0,0,0-.49.5V47.25a.49.49,0,0,0,.49.5h.1L11,49a.49.49,0,0,0-.14.35v9.09a.49.49,0,0,0,.49.5h.37a.5.5,0,0,0,.51-.5Z" transform="translate(-0.25 -0.25)"/><path class="cls-1" d="M15,24.82V58.44H12.27V49.35a.51.51,0,0,0-.51-.51h-.37A.46.46,0,0,0,11,49L9.58,47.75a.5.5,0,0,0,.5-.5V28.6a.5.5,0,0,0-.5-.5V24.82Z" transform="translate(-0.25 -0.25)"/><path class="cls-4" d="M12.27,49.35v9.09a.5.5,0,0,1-.51.5h-.37a.49.49,0,0,1-.49-.5V49.35A.49.49,0,0,1,11,49a.46.46,0,0,1,.35-.16h.37A.51.51,0,0,1,12.27,49.35Z" transform="translate(-0.25 -0.25)"/><path class="cls-4" d="M10.08,28.6V47.25a.5.5,0,0,1-.5.5h-.1a.49.49,0,0,1-.49-.5V28.6a.49.49,0,0,1,.49-.5h.1A.5.5,0,0,1,10.08,28.6Z" transform="translate(-0.25 -0.25)"/><path class="cls-4" d="M7.08,24.82H6.5a5.35,5.35,0,0,1-.79-.06v-.08A6.18,6.18,0,0,0,7.08,24.82Z" transform="translate(-0.25 -0.25)"/><path class="cls-1" d="M6.5,67.41h.58a6.18,6.18,0,0,0-1.37.14v-.09A7.13,7.13,0,0,1,6.5,67.41Z" transform="translate(-0.25 -0.25)"/><path class="cls-4" d="M5.71,67.46v.09A6.81,6.81,0,0,0,.25,74.23v-.58A6.24,6.24,0,0,1,5.71,67.46Z" transform="translate(-0.25 -0.25)"/><path class="cls-4" d="M5.71,24.68v.08A6.23,6.23,0,0,1,.25,18.57V18A6.82,6.82,0,0,0,5.71,24.68Z" transform="translate(-0.25 -0.25)"/><path class="cls-2" d="M11,10.63a4.56,4.56,0,1,1-4.56,4.55A4.55,4.55,0,0,1,11,10.63Zm2.52,4.55A2.53,2.53,0,1,0,11,17.71,2.52,2.52,0,0,0,13.51,15.18Z" transform="translate(-0.25 -0.25)"/><path class="cls-9" d="M11,12.65a2.53,2.53,0,1,1-2.54,2.53A2.52,2.52,0,0,1,11,12.65Z" transform="translate(-0.25 -0.25)"/><path class="cls-2" d="M9.89,72.87a4.56,4.56,0,1,1-4.56,4.56A4.56,4.56,0,0,1,9.89,72.87Zm2.54,4.56A2.54,2.54,0,1,0,9.89,80,2.54,2.54,0,0,0,12.43,77.43Z" transform="translate(-0.25 -0.25)"/><path class="cls-9" d="M9.89,74.89a2.53,2.53,0,1,1-2.53,2.54A2.54,2.54,0,0,1,9.89,74.89Z" transform="translate(-0.25 -0.25)"/><path class="cls-2" d="M168.23,10.63a4.56,4.56,0,1,1-4.56,4.55A4.55,4.55,0,0,1,168.23,10.63Zm2.54,4.55a2.53,2.53,0,1,0-2.54,2.53A2.54,2.54,0,0,0,170.77,15.18Z" transform="translate(-0.25 -0.25)"/><path class="cls-9" d="M168.23,12.64a2.54,2.54,0,1,1-2.52,2.54A2.54,2.54,0,0,1,168.23,12.64Z" transform="translate(-0.25 -0.25)"/><path class="cls-2" d="M167.15,72.87a4.56,4.56,0,1,1-4.56,4.56A4.56,4.56,0,0,1,167.15,72.87Zm2.52,4.56A2.53,2.53,0,1,0,167.15,80,2.52,2.52,0,0,0,169.67,77.43Z" transform="translate(-0.25 -0.25)"/><path class="cls-9" d="M167.15,74.9a2.53,2.53,0,1,1-2.54,2.53A2.52,2.52,0,0,1,167.15,74.9Z" transform="translate(-0.25 -0.25)"/><path class="cls-10" d="M59.4,56.27c-1.14-1.25-1.71-3.14-1.69-5.68a11,11,0,0,1,1.42-6A4.36,4.36,0,0,1,63,42.47a4,4,0,0,1,1.82.38A3.22,3.22,0,0,1,66,43.92a3.84,3.84,0,0,1,1.56-1,5.3,5.3,0,0,1,2-.38,3.55,3.55,0,0,1,2.88,1.19,4.81,4.81,0,0,1,1,3.2l-.06,11-3.78,0,.06-10.45a3.25,3.25,0,0,0-.27-1.52,1.07,1.07,0,0,0-1-.5,1.42,1.42,0,0,0-.93.32,1.75,1.75,0,0,0-.56,1H65a3.21,3.21,0,0,0-.61-1,1.29,1.29,0,0,0-.87-.3,1.79,1.79,0,0,0-1.76,1.32,11.9,11.9,0,0,0-.51,3.88,5.64,5.64,0,0,0,.84,3.53,3.09,3.09,0,0,0,2.55,1.08A6.41,6.41,0,0,0,66.62,55l0,2.77a7.5,7.5,0,0,1-2.61.38A6,6,0,0,1,59.4,56.27Z" transform="translate(-0.25 -0.25)"/><path class="cls-10" d="M61.39,38.09l12,.07v2.58l-12.24-.07Z" transform="translate(-0.25 -0.25)"/><path class="cls-10" d="M77.82,56.37c-1.14-1.24-1.7-3.14-1.69-5.68a8.43,8.43,0,0,1,2.05-6,7.76,7.76,0,0,1,5.89-2.1,9.61,9.61,0,0,1,4.3.89,5.75,5.75,0,0,1,2.5,2.31,6.23,6.23,0,0,1,.78,3.12L91.6,58l-3.78,0,.05-8.87A3.74,3.74,0,0,0,87,46.48a4.07,4.07,0,0,0-3-.95c-2.84,0-4.26,1.71-4.28,5.18a5.68,5.68,0,0,0,.83,3.54,3.11,3.11,0,0,0,2.56,1.08A6.28,6.28,0,0,0,85,55.11l0,2.77a7.25,7.25,0,0,1-2.6.38A6,6,0,0,1,77.82,56.37Z" transform="translate(-0.25 -0.25)"/><path class="cls-10" d="M96.08,56.48c-1.14-1.25-1.71-3.14-1.69-5.68a11,11,0,0,1,1.42-6,4.36,4.36,0,0,1,3.86-2.08,3.84,3.84,0,0,1,1.82.38,3.22,3.22,0,0,1,1.17,1.07,3.84,3.84,0,0,1,1.56-1,5.3,5.3,0,0,1,2-.38,3.55,3.55,0,0,1,2.88,1.19,4.81,4.81,0,0,1,1,3.2l-.06,11-3.78,0,0-10.45a3,3,0,0,0-.27-1.52,1,1,0,0,0-1-.5,1.4,1.4,0,0,0-.93.32,1.75,1.75,0,0,0-.56,1h-1.82a3.41,3.41,0,0,0-.61-1,1.26,1.26,0,0,0-.87-.3,1.78,1.78,0,0,0-1.76,1.32A11.9,11.9,0,0,0,98,50.82a5.71,5.71,0,0,0,.83,3.53,3.12,3.12,0,0,0,2.56,1.08,6.63,6.63,0,0,0,1.93-.21V58a7.5,7.5,0,0,1-2.61.38A6,6,0,0,1,96.08,56.48Z" transform="translate(-0.25 -0.25)"/><path class="cls-10" d="M106.34,36.31l3.78,0,0,4.62-3.77,0Z" transform="translate(-0.25 -0.25)"/><path class="cls-10" d="M115.61,58.13a13.43,13.43,0,0,1-2.84-.87l0-7.95,6.41,0,.15,2.78-3,0,0,3a6,6,0,0,0,1.26.27,10.4,10.4,0,0,0,1.43.11,5.25,5.25,0,0,0,2.44-.46,2.87,2.87,0,0,0,1.31-1.52,8.3,8.3,0,0,0,.42-2.84,7.16,7.16,0,0,0-.48-3,2.85,2.85,0,0,0-1.57-1.52,8.08,8.08,0,0,0-3-.46,17.38,17.38,0,0,0-5.13.72l0-2.83a15.47,15.47,0,0,1,2.86-.62,21.72,21.72,0,0,1,3.19-.21q4,0,5.87,2c1.24,1.34,1.86,3.31,1.84,5.92a8.1,8.1,0,0,1-1.91,5.8q-1.89,2-5.89,1.94A17.9,17.9,0,0,1,115.61,58.13Z" transform="translate(-0.25 -0.25)"/></g></g></svg>