<?xml version="1.0" encoding="utf-8"?>
<!-- Generator: Adobe Illustrator 21.1.0, SVG Export Plug-In . SVG Version: 6.00 Build 0)  -->
<svg version="1.1" id="Layer_1" xmlns="http://www.w3.org/2000/svg" xmlns:xlink="http://www.w3.org/1999/xlink" x="0px" y="0px"
	 viewBox="0 0 340 472" style="enable-background:new 0 0 340 472;" xml:space="preserve">
<style type="text/css">
	.st0{fill:#EDA2A1;}
	.st1{fill:#DD8D8E;}
	.st2{fill:#BA6D6C;}
	.st3{fill:#605F81;}
	.st4{fill:#74739A;}
</style>
<g id="XMLID_155_">
	<g>
		<polygon class="st0" points="248.1,172.3 257,182.5 250,188.7 241.3,178.4 		"/>
		<polygon class="st1" points="241.3,178.4 250,188.7 247.9,190.6 239.2,180.3 		"/>
		<polygon class="st2" points="248.1,172.3 241.3,178.4 239.7,176.6 239.6,176.5 246.4,170.5 246.4,170.5 		"/>
		<polygon class="st3" points="246.4,170.5 239.6,176.5 237.5,178.4 230.8,184.4 228.7,186.3 222.6,191.8 220.5,193.6 214.9,198.6 
			212.8,200.4 206.8,205.8 204.7,207.7 198.8,212.9 196.7,214.8 174.4,234.6 172.4,232.3 244.4,168.2 		"/>
		<polygon class="st0" points="239.2,180.3 247.9,190.6 241.2,196.6 232.4,186.3 		"/>
		<polygon class="st2" points="239.7,176.6 241.3,178.4 239.2,180.3 237.6,178.5 237.5,178.4 239.6,176.5 		"/>
		<polygon class="st1" points="232.4,186.3 241.2,196.6 239.1,198.5 230.3,188.2 		"/>
		<polygon class="st2" points="237.6,178.5 239.2,180.3 232.4,186.3 231,184.7 230.8,184.4 237.5,178.4 		"/>
		<polygon class="st0" points="239.1,198.5 233,203.9 224.2,193.6 230.3,188.2 		"/>
		<polygon class="st1" points="224.2,193.6 233,203.9 230.9,205.8 222.1,195.5 		"/>
		<polygon class="st2" points="228.9,186.5 228.7,186.3 230.8,184.4 231,184.7 232.4,186.3 230.3,188.2 		"/>
		<polygon class="st2" points="230.3,188.2 224.2,193.6 222.7,191.8 222.6,191.8 228.7,186.3 228.9,186.5 		"/>
		<polygon class="st0" points="230.9,205.8 225.3,210.7 216.5,200.4 222.1,195.5 		"/>
		<polygon class="st1" points="225.3,210.7 223.2,212.6 214.4,202.3 216.5,200.4 		"/>
		<polygon class="st2" points="220.6,193.7 220.5,193.6 222.6,191.8 222.7,191.8 224.2,193.6 222.1,195.5 		"/>
		<polygon class="st2" points="220.6,193.7 222.1,195.5 216.5,200.4 215.2,199 214.9,198.6 220.5,193.6 		"/>
		<polygon class="st0" points="223.2,212.6 217.2,218 208.3,207.6 214.4,202.3 		"/>
		<polygon class="st1" points="217.2,218 215.1,219.8 206.3,209.5 208.3,207.6 		"/>
		<polygon class="st2" points="213.1,200.8 212.8,200.4 214.9,198.6 215.2,199 216.5,200.4 214.4,202.3 		"/>
		<polygon class="st2" points="214.4,202.3 208.3,207.6 207,206 206.8,205.8 212.8,200.4 213.1,200.8 		"/>
		<polygon class="st0" points="206.3,209.5 215.1,219.8 209.1,225.1 200.3,214.8 		"/>
		<polygon class="st1" points="209.1,225.1 207,227 198.2,216.6 200.3,214.8 		"/>
		<polygon class="st2" points="204.8,207.8 204.7,207.7 206.8,205.8 207,206 208.3,207.6 206.3,209.5 		"/>
		<polygon class="st2" points="206.3,209.5 200.3,214.8 198.8,213 198.8,212.9 204.7,207.7 204.8,207.8 		"/>
		<polygon class="st2" points="200.3,214.8 198.2,216.6 196.7,214.8 198.8,212.9 198.8,213 		"/>
	</g>
	<g>
	</g>
</g>
<g id="XMLID_154_">
	<g>
		<polygon class="st0" points="243.9,308.4 234.9,318.5 227.9,312.3 237,302.3 		"/>
		<polygon class="st1" points="237,302.3 227.9,312.3 225.8,310.4 234.9,300.4 		"/>
		<polygon class="st2" points="243.9,308.4 237,302.3 238.6,300.6 238.7,300.5 245.5,306.5 245.5,306.5 		"/>
		<polygon class="st0" points="234.9,300.4 225.8,310.4 219,304.4 228.1,294.4 		"/>
		<polygon class="st2" points="236.6,298.7 236.6,298.6 238.7,300.5 238.6,300.6 237,302.3 234.9,300.4 		"/>
		<polygon class="st1" points="228.1,294.4 219,304.4 216.9,302.6 226,292.6 		"/>
		<polygon class="st2" points="236.6,298.7 234.9,300.4 228.1,294.4 229.5,292.9 229.8,292.6 236.6,298.6 		"/>
		<polygon class="st0" points="216.9,302.6 210.7,297.2 219.9,287.2 226,292.6 		"/>
		<polygon class="st1" points="219.9,287.2 210.7,297.2 208.6,295.3 217.8,285.3 		"/>
		<polygon class="st2" points="227.5,291 227.7,290.8 229.8,292.6 229.5,292.9 228.1,294.4 226,292.6 		"/>
		<polygon class="st2" points="226,292.6 219.9,287.2 221.5,285.5 221.6,285.4 227.7,290.8 227.5,291 		"/>
		<polygon class="st0" points="208.6,295.3 203,290.4 212.2,280.4 217.8,285.3 		"/>
		<polygon class="st1" points="203,290.4 200.9,288.5 210.1,278.5 212.2,280.4 		"/>
		<polygon class="st2" points="219.4,283.6 219.5,283.5 221.6,285.4 221.5,285.5 219.9,287.2 217.8,285.3 		"/>
		<polygon class="st2" points="219.4,283.6 217.8,285.3 212.2,280.4 213.5,279 213.9,278.6 219.5,283.5 		"/>
		<polygon class="st0" points="210.1,278.5 200.9,288.5 194.9,283.2 204,273.2 		"/>
		<polygon class="st1" points="194.9,283.2 192.8,281.3 202,271.3 204,273.2 		"/>
		<polygon class="st2" points="211.4,277.1 211.7,276.7 213.9,278.6 213.5,279 212.2,280.4 210.1,278.5 		"/>
		<polygon class="st2" points="210.1,278.5 204,273.2 205.5,271.6 205.7,271.4 211.7,276.7 211.4,277.1 		"/>
		<polygon class="st0" points="202,271.3 192.8,281.3 186.8,276.1 196,266.1 		"/>
		<polygon class="st1" points="186.8,276.1 184.7,274.2 193.9,264.2 196,266.1 		"/>
		<polygon class="st2" points="205.5,271.6 204,273.2 202,271.3 203.4,269.7 203.6,269.5 205.7,271.4 		"/>
		<polygon class="st2" points="203.4,269.7 202,271.3 196,266.1 197.6,264.3 197.6,264.3 203.6,269.5 		"/>
		<polygon class="st2" points="196,266.1 193.9,264.2 195.5,262.4 197.6,264.3 197.6,264.3 		"/>
		<polygon class="st3" points="195.5,262.4 173.2,242.8 175.3,240.4 247.6,304.1 245.5,306.5 238.7,300.5 236.6,298.6 229.8,292.6 
			227.7,290.8 221.6,285.4 219.5,283.5 213.9,278.6 211.7,276.7 205.7,271.4 203.6,269.5 197.6,264.3 		"/>
	</g>
	<g>
	</g>
</g>
<g id="XMLID_153_">
	<g>
		<polygon class="st0" points="92.7,311.7 82.8,302.4 89.2,295.5 98.9,305 		"/>
		<polygon class="st1" points="98.9,305 89.2,295.5 91.1,293.5 100.8,302.9 		"/>
		<polygon class="st2" points="92.7,311.7 98.9,305 100.6,306.6 100.7,306.7 94.5,313.3 		"/>
		<polygon class="st0" points="100.8,302.9 91.1,293.5 97.3,286.9 107,296.3 		"/>
		<polygon class="st2" points="102.6,304.6 102.6,304.6 100.7,306.7 100.6,306.6 98.9,305 100.8,302.9 		"/>
		<polygon class="st1" points="97.3,286.9 99.2,284.8 109,294.3 107,296.3 		"/>
		<polygon class="st2" points="102.6,304.6 100.8,302.9 107,296.3 108.5,297.7 108.8,298 102.6,304.6 		"/>
		<polygon class="st0" points="109,294.3 99.2,284.8 104.8,278.8 114.5,288.3 		"/>
		<polygon class="st1" points="114.5,288.3 104.8,278.8 106.7,276.8 116.4,286.2 		"/>
		<polygon class="st2" points="110.5,295.7 110.7,295.9 108.8,298 108.5,297.7 107,296.3 109,294.3 		"/>
		<polygon class="st2" points="110.5,295.7 109,294.3 114.5,288.3 116.2,289.9 116.3,290 110.7,295.9 		"/>
		<polygon class="st0" points="106.7,276.8 111.8,271.3 121.5,280.8 116.4,286.2 		"/>
		<polygon class="st1" points="111.8,271.3 113.7,269.3 123.5,278.7 121.5,280.8 		"/>
		<polygon class="st2" points="118.1,287.9 118.2,287.9 116.3,290 116.2,289.9 114.5,288.3 116.4,286.2 		"/>
		<polygon class="st2" points="118.1,287.9 116.4,286.2 121.5,280.8 122.9,282.1 123.3,282.5 118.2,287.9 		"/>
		<polygon class="st0" points="113.7,269.3 119.2,263.3 129,272.8 123.5,278.7 		"/>
		<polygon class="st1" points="129,272.8 119.2,263.3 121.2,261.3 130.9,270.8 		"/>
		<polygon class="st2" points="124.9,280.1 125.2,280.4 123.3,282.5 122.9,282.1 121.5,280.8 123.5,278.7 		"/>
		<polygon class="st2" points="123.5,278.7 129,272.8 130.5,274.3 130.7,274.5 125.2,280.4 124.9,280.1 		"/>
		<polygon class="st0" points="130.9,270.8 121.2,261.3 126.6,255.5 136.3,265 		"/>
		<polygon class="st1" points="136.3,265 126.6,255.5 128.5,253.5 138.2,262.9 		"/>
		<polygon class="st2" points="130.5,274.3 129,272.8 130.9,270.8 132.4,272.3 132.6,272.5 130.7,274.5 		"/>
		<polygon class="st2" points="130.9,270.8 136.3,265 138,266.6 138,266.6 132.6,272.5 132.4,272.3 		"/>
		<polygon class="st2" points="138,266.6 136.3,265 138.2,262.9 139.9,264.6 138,266.6 		"/>
		<polygon class="st3" points="139.9,264.6 160.2,242.8 162.5,245 96.8,315.5 94.5,313.3 100.7,306.7 102.6,304.6 108.8,298 
			110.7,295.9 116.3,290 118.2,287.9 123.3,282.5 125.2,280.4 130.7,274.5 132.6,272.5 138,266.6 		"/>
	</g>
	<g>
	</g>
</g>
<g id="XMLID_152_">
	<g>
		<polygon class="st0" points="97.6,162.7 107,153 113.8,159.5 104.2,169.1 		"/>
		<polygon class="st1" points="104.2,169.1 113.8,159.5 115.8,161.5 106.2,171 		"/>
		<polygon class="st2" points="95.9,164.5 97.6,162.7 104.2,169.1 102.5,170.7 102.4,170.8 		"/>
		<polygon class="st3" points="93.7,166.7 95.9,164.5 102.4,170.8 104.4,172.7 111,179.1 113,181 118.8,186.7 120.8,188.6 
			126.2,193.8 128.3,195.8 134.1,201.4 136.1,203.3 141.8,208.9 143.8,210.8 165.2,231.5 163,233.7 		"/>
		<polygon class="st0" points="106.2,171 115.8,161.5 122.3,167.8 112.7,177.3 		"/>
		<polygon class="st2" points="104.5,172.7 104.4,172.7 102.4,170.8 102.5,170.7 104.2,169.1 106.2,171 		"/>
		<polygon class="st1" points="112.7,177.3 122.3,167.8 124.3,169.7 114.7,179.3 		"/>
		<polygon class="st2" points="104.5,172.7 106.2,171 112.7,177.3 111.2,178.8 111,179.1 104.4,172.7 		"/>
		<polygon class="st0" points="124.3,169.7 130.2,175.4 120.6,185 114.7,179.3 		"/>
		<polygon class="st1" points="120.6,185 130.2,175.4 132.2,177.3 122.6,186.9 		"/>
		<polygon class="st2" points="113.2,180.8 113,181 111,179.1 111.2,178.8 112.7,177.3 114.7,179.3 		"/>
		<polygon class="st2" points="113.2,180.8 114.7,179.3 120.6,185 119,186.6 118.8,186.7 113,181 		"/>
		<polygon class="st0" points="132.2,177.3 137.6,182.6 128,192.1 122.6,186.9 		"/>
		<polygon class="st1" points="128,192.1 137.6,182.6 139.6,184.5 130,194.1 		"/>
		<polygon class="st2" points="119,186.6 120.6,185 122.6,186.9 120.9,188.6 120.8,188.6 118.8,186.7 		"/>
		<polygon class="st2" points="122.6,186.9 128,192.1 126.6,193.5 126.2,193.8 120.8,188.6 120.9,188.6 		"/>
		<polygon class="st0" points="139.6,184.5 145.4,190.1 135.8,199.7 130,194.1 		"/>
		<polygon class="st1" points="145.4,190.1 147.4,192.1 137.8,201.6 135.8,199.7 		"/>
		<polygon class="st2" points="128.6,195.5 128.3,195.8 126.2,193.8 126.6,193.5 128,192.1 130,194.1 		"/>
		<polygon class="st2" points="130,194.1 135.8,199.7 134.3,201.2 134.1,201.4 128.3,195.8 128.6,195.5 		"/>
		<polygon class="st0" points="137.8,201.6 147.4,192.1 153.2,197.6 143.5,207.2 		"/>
		<polygon class="st1" points="143.5,207.2 153.2,197.6 155.2,199.5 145.5,209.1 		"/>
		<polygon class="st2" points="134.3,201.2 135.8,199.7 137.8,201.6 136.2,203.2 136.1,203.3 134.1,201.4 		"/>
		<polygon class="st2" points="137.8,201.6 143.5,207.2 141.8,208.8 141.8,208.9 136.1,203.3 136.2,203.2 		"/>
		<polygon class="st2" points="141.8,208.8 143.5,207.2 145.5,209.1 143.8,210.8 141.8,208.9 		"/>
	</g>
	<g>
	</g>
</g>
<circle class="st3" cx="167.2" cy="238.7" r="8.4"/>
<circle class="st4" cx="167.1" cy="238.7" r="5"/>
</svg>
