<svg xmlns="http://www.w3.org/2000/svg" xmlns:xlink="http://www.w3.org/1999/xlink" viewBox="0 0 1920 629.31"><defs><style>.cls-1{fill:#fff3db;}.cls-2,.cls-31{fill:#eda2a1;}.cls-29,.cls-3{fill:none;}.cls-4{fill:#8cad76;}.cls-5{fill:#b8e099;}.cls-6{fill:#6c8e4c;}.cls-7{fill:#fae4a9;}.cls-8{clip-path:url(#clip-path);}.cls-9{fill:#434264;}.cls-10{clip-path:url(#clip-path-2);}.cls-11{clip-path:url(#clip-path-3);}.cls-12{fill:#e97625;}.cls-13{clip-path:url(#clip-path-4);}.cls-14{clip-path:url(#clip-path-5);}.cls-15{clip-path:url(#clip-path-6);}.cls-16{clip-path:url(#clip-path-7);}.cls-17{clip-path:url(#clip-path-8);}.cls-18{clip-path:url(#clip-path-9);}.cls-19{clip-path:url(#clip-path-10);}.cls-20{clip-path:url(#clip-path-11);}.cls-21{fill:#dd8d8e;}.cls-22{fill:#558886;}.cls-23{fill:#3d6968;}.cls-24{fill:#dca379;}.cls-25{fill:#74739a;}.cls-26{fill:#4d4c68;}.cls-27{fill:#605f81;}.cls-28{clip-path:url(#clip-path-12);}.cls-29{stroke:#c98557;stroke-width:7px;}.cls-29,.cls-31{stroke-miterlimit:10;}.cls-30,.cls-35{fill:#8c5937;}.cls-30{opacity:0.67;}.cls-31{stroke:#fff4dc;stroke-width:4px;}.cls-32{fill:#d68a8a;}.cls-33{fill:#b7591a;}.cls-34{fill:#684025;}.cls-36{fill:#f4a545;}.cls-37{fill:#ffc36c;}.cls-38{fill:#ffbb83;}.cls-39{fill:#ffdaa4;}.cls-40{fill:#7f482f;}.cls-41{fill:#4f4f72;}.cls-42{fill:#626284;}.cls-43{fill:#9797b7;}.cls-44{fill:#8686a8;}.cls-45{fill:#ffca83;}.cls-46{fill:#ffe4ca;}.cls-47{fill:#fff;}.cls-48{fill:#ffa766;}.cls-49{fill:#3d3d3d;}.cls-50{clip-path:url(#clip-path-13);}.cls-51{clip-path:url(#clip-path-14);}.cls-52{clip-path:url(#clip-path-15);}.cls-53{fill:#c7e5e9;}.cls-54{fill:#fff8e8;}.cls-55{fill:#cfe0e6;}.cls-56{fill:#fcecc5;}.cls-57{fill:#c4ded8;}.cls-58{fill:#c98967;}.cls-59{fill:#d9b099;}.cls-60{fill:#fff4dc;}.cls-61{fill:#fbe5aa;}.cls-62{fill:#bf754c;}.cls-63{fill:#95bdc8;}.cls-64{fill:#d5a187;}.cls-65{fill:#b18d79;}</style><clipPath id="clip-path" transform="translate(0 -0.25)"><path class="cls-1" d="M1645.93,336.57H1538.37a40.39,40.39,0,0,0-35.16,20.5l-12.83,22.69,26,14.72,6.46-11.43a3.45,3.45,0,0,1,6-.07h0a31.69,31.69,0,0,0,16,14.48,18.27,18.27,0,0,1,11.44,16.94v32.92a3.17,3.17,0,0,0,3.18,3.17h3.63a3.17,3.17,0,0,0,3.17-3.17V399.77h66a18,18,0,0,1,18,18v29.06a3.71,3.71,0,0,0,3.71,3.7h2.56a3.71,3.71,0,0,0,3.71-3.7V382.47l3.56-25.33A18.07,18.07,0,0,0,1645.93,336.57Z"/></clipPath><clipPath id="clip-path-2" transform="translate(0 -0.25)"><path class="cls-1" d="M1495,376.3l21.55,4.16a4.43,4.43,0,0,1,3.44,5.48l-7.55,28.43a7.22,7.22,0,0,1-8.23,5.26c.25-1.58-2.25-3.37-5.62-4s-6.35.08-6.71,1.64a7.23,7.23,0,0,1-5.69-7.94l3.58-29.21A4.43,4.43,0,0,1,1495,376.3Z"/></clipPath><clipPath id="clip-path-3" transform="translate(0 -0.25)"><path class="cls-2" d="M1488.07,415.11a4.27,4.27,0,0,0,5,.85,11,11,0,0,1,10.48,2,4.23,4.23,0,0,0,4.83,1.13l.53-.26c-1.08,3.44-6.18,5.33-11.77,4.25s-9.59-4.71-9.34-8.29Z"/></clipPath><clipPath id="clip-path-4" transform="translate(0 -0.25)"><path class="cls-1" d="M1249.75,454.25h20.31v.07h123a17.93,17.93,0,0,1,17.76,20.42l-3.53,25.15v63.84a3.68,3.68,0,0,1-3.68,3.68h-2.55a3.68,3.68,0,0,1-3.68-3.68V534.88a17.82,17.82,0,0,0-17.83-17.82H1314v47.2a3.15,3.15,0,0,1-3.15,3.15h-3.61a3.15,3.15,0,0,1-3.15-3.15V531.59a18.17,18.17,0,0,0-11.36-16.83,31.39,31.39,0,0,1-15.93-14.37l-8.48-14.16a18.65,18.65,0,0,0-16-9.09h-2.58Z"/></clipPath><clipPath id="clip-path-5" transform="translate(0 -0.25)"><path class="cls-2" d="M1244.06,479.26a4.23,4.23,0,0,0,5,.77,10.9,10.9,0,0,1,10.44,1.85,4.19,4.19,0,0,0,4.81,1.05c.18-.08.35-.17.53-.27-1,3.43-6.07,5.38-11.62,4.4s-9.6-4.53-9.41-8.09Z"/></clipPath><clipPath id="clip-path-6" transform="translate(0 -0.25)"><path class="cls-1" d="M549.92,362.15H526v.08h-145A21.14,21.14,0,0,0,360,386.31L364.15,416v75.28a4.34,4.34,0,0,0,4.34,4.34h3a4.34,4.34,0,0,0,4.33-4.34v-34a21,21,0,0,1,21-21h77.29v55.66a3.72,3.72,0,0,0,3.71,3.72h4.26a3.72,3.72,0,0,0,3.71-3.72V453.34a21.41,21.41,0,0,1,13.4-19.84A37.1,37.1,0,0,0,518,416.55l10-16.7a22,22,0,0,1,18.88-10.71h3Z"/></clipPath><clipPath id="clip-path-7" transform="translate(0 -0.25)"><path class="cls-1" d="M556.11,342.65l-25.3,4.48a5.19,5.19,0,0,0-4.12,6.35L535,386.9a8.45,8.45,0,0,0,9.54,6.29c-.26-1.85,2.69-3.9,6.65-4.6s7.43.21,7.83,2a8.47,8.47,0,0,0,6.8-9.2l-3.68-34.24A5.17,5.17,0,0,0,556.11,342.65Z"/></clipPath><clipPath id="clip-path-8" transform="translate(0 -0.25)"><path class="cls-2" d="M563.52,388.19a5,5,0,0,1-5.88.9,12.86,12.86,0,0,0-12.3,2.19,5,5,0,0,1-5.67,1.24c-.21-.1-.42-.2-.62-.32,1.2,4,7.14,6.35,13.7,5.18s11.31-5.34,11.08-9.53C563.73,388,563.63,388.08,563.52,388.19Z"/></clipPath><clipPath id="clip-path-9" transform="translate(0 -0.25)"><path class="cls-1" d="M245.16,324.57H198a17.72,17.72,0,0,0-15.42,9l-5.63,10L188.35,350l2.84-5a1.5,1.5,0,0,1,2.6,0h0a13.94,13.94,0,0,0,7,6.35,8,8,0,0,1,5,7.43v14.44a1.39,1.39,0,0,0,1.39,1.39h1.6a1.39,1.39,0,0,0,1.39-1.39V352.29h29a7.88,7.88,0,0,1,7.88,7.88v12.74a1.63,1.63,0,0,0,1.63,1.63h1.12a1.63,1.63,0,0,0,1.63-1.63V344.7L253,333.59A7.92,7.92,0,0,0,245.16,324.57Z"/></clipPath><clipPath id="clip-path-10" transform="translate(0 -0.25)"><path class="cls-1" d="M179,342l9.45,1.82a2,2,0,0,1,1.51,2.4l-3.31,12.48A3.17,3.17,0,0,1,183,361c.1-.69-1-1.48-2.47-1.76s-2.79,0-2.94.72a3.16,3.16,0,0,1-2.5-3.49l1.57-12.81A1.94,1.94,0,0,1,179,342Z"/></clipPath><clipPath id="clip-path-11" transform="translate(0 -0.25)"><path class="cls-2" d="M175.92,359a1.88,1.88,0,0,0,2.2.37,4.81,4.81,0,0,1,4.59.89,1.88,1.88,0,0,0,2.12.5l.24-.12c-.48,1.51-2.72,2.34-5.17,1.86s-4.2-2.06-4.1-3.63Z"/></clipPath><clipPath id="clip-path-12" transform="translate(0 -0.25)"><path class="cls-3" d="M966.49,37.93V33.07s-.23.89-.75,2.55c-.51-1.66-.74-2.55-.74-2.55v4.86C955.75,66,899.13,208.59,686.5,280.07L753,552.57l212.51,0,.24-129,.25,129,212.51,0,66.5-272.5C1032.38,208.59,975.76,66,966.49,37.93Z"/></clipPath><clipPath id="clip-path-13" transform="translate(0 -0.25)"><path class="cls-3" d="M999.77,298.77c0,17.24-14.85,31.21-33.16,31.21s-33.16-14-33.16-31.21,14.85-31.2,33.16-31.2S999.77,281.54,999.77,298.77Z"/></clipPath><clipPath id="clip-path-14" transform="translate(0 -0.25)"><rect class="cls-3" x="836.38" y="228.24" width="249.7" height="140.46"/></clipPath><clipPath id="clip-path-15" transform="translate(0 -0.25)"><rect class="cls-3" x="939.29" y="279.63" width="51.85" height="40.46"/></clipPath></defs><title>Asset 1</title><g id="Layer_2" data-name="Layer 2"><g id="ภาพประกอบ"><path class="cls-4" d="M0,629.57H1506.67c-7.18-3.4-14.48-6.52-21.65-9.5l-359.66-150c-73-30.43-146.47-61-223.82-77.46-67.71-14.38-137.8-17.78-204-38-52.37-16-101.12-42.19-153.11-59.41-76.79-25.43-158.21-30.32-238.51-26.05-102.19,5.44-203.82,26.52-305.91,37Z" transform="translate(0 -0.25)"/><path class="cls-5" d="M1920,420.63c-35.58-2.86-70.68-9-104.12-20.27-17.9-6-35.34-13.87-54-17.11-20.94-3.65-42.39-1.32-63.64-1.06-77.46,1-153.66-25.79-231-21.43-49.67,2.8-97.62,18.32-146.48,27.64-74.71,14.26-151.3,14-227.25,18.14-81.83,4.49-163.64,14.25-242.92,35-64.54,16.91-127.12,41-192.24,55.6C581.1,514.44,501.45,518,423.1,529.59a1151.37,1151.37,0,0,0-287,81.85c-13.18,5.7-28.44,11.65-44.18,18.13H1920Z" transform="translate(0 -0.25)"/><path class="cls-4" d="M276.9,589.78a167.59,167.59,0,0,1,58.4-26.1c4.95-1.14,10.18-2,15.06-.64s9.24,5.83,8.95,10.9c-.45,8-10.41,11-18.32,12.08l-48.64,6.31c-7.57,1-17.14,3.31-15.58-2.58" transform="translate(0 -0.25)"/><path class="cls-6" d="M743.44,406.56c13.17,7.14,27.49,15.64,31.87,30-53.36,3-94.81-60.59-147.8-53.56a45.42,45.42,0,0,1,1.85,19.68c-14.76,3.21-28.86-7.45-38.85-18.78s-19.22-24.67-33.46-29.73c-11.45-4.08-24-2-36.18-2.51-13-.58-23.08-5-29.12-16.31C540.15,290.06,696.92,381.33,743.44,406.56Z" transform="translate(0 -0.25)"/><path class="cls-4" d="M1806,424.66c6.07,1,13.49,3.29,14.43,9.37.43,2.76-.72,5.67.13,8.33,1.67,5.18,8.79,5.37,14.22,5,14.33-.9,30.7,2.94,37.82,15.41,1.54,2.69,2.47,6.31.51,8.7a8,8,0,0,1-3.88,2.26c-16.53,5.41-34-2.58-50.65-7.68a154.77,154.77,0,0,0-38.54-6.66c-2.51-.11-5.12-.19-7.3-1.42s-3.7-4-2.6-6.29c1-2.09,3.63-2.74,5.92-3.15l13.49-2.4c3.16-.57,7-1.81,7.45-5,.39-2.86-2.4-5.11-5-6.26-13.18-5.7-29.57-.1-42.08-7.13-14.26-8,12.8-10.23,17.28-9.95C1779.87,418.65,1793.35,422.58,1806,424.66Z" transform="translate(0 -0.25)"/><ellipse class="cls-4" cx="1409.28" cy="567.26" rx="26.76" ry="5.73"/><ellipse class="cls-4" cx="1551.28" cy="452.26" rx="26.76" ry="5.73"/><ellipse class="cls-4" cx="1359.25" cy="578.9" rx="19.78" ry="4.24"/><ellipse class="cls-4" cx="1644.25" cy="449.9" rx="19.78" ry="4.24"/><ellipse class="cls-4" cx="1574.25" cy="463.9" rx="15.25" ry="3.27"/><ellipse class="cls-4" cx="1563.25" cy="476.9" rx="10.75" ry="2.3"/><ellipse class="cls-4" cx="1660.25" cy="460.9" rx="10.75" ry="2.3"/><ellipse class="cls-4" cx="1291.78" cy="567.26" rx="19.78" ry="4.24"/><ellipse class="cls-4" cx="1437.2" cy="584.71" rx="12.8" ry="2.74"/><path class="cls-7" d="M1649.64,343.64h4a17.75,17.75,0,0,1,17.74,17.74v62.1a2,2,0,0,1-2,2h0a2,2,0,0,1-2-2V362.55a14.9,14.9,0,0,0-14.9-14.9h-2.84Z" transform="translate(0 -0.25)"/><path class="cls-7" d="M1636.31,381.26h.5a4.74,4.74,0,0,1,4.74,4.74v64.49a0,0,0,0,1,0,0h-10a0,0,0,0,1,0,0V386A4.74,4.74,0,0,1,1636.31,381.26Z" transform="translate(3273.12 831.5) rotate(-180)"/><path class="cls-7" d="M1564.21,373.16v26.61H1562a14.45,14.45,0,0,0-14.46,14.45v33.1a3.17,3.17,0,0,1-3.17,3.17h-3.63a3.17,3.17,0,0,1-3.18-3.17V373.16Z" transform="translate(0 -0.25)"/><path class="cls-2" d="M1621.72,412.33a18.72,18.72,0,1,1,22.19,0l2.56,4.43a2.08,2.08,0,0,1-3.6,2.08l-2.56-4.43a18.26,18.26,0,0,1-5.41,1.45V421a2.08,2.08,0,0,1-4.16,0v-5.11a18.24,18.24,0,0,1-5.42-1.45l-2.55,4.43a2.08,2.08,0,0,1-3.6-2.08Z" transform="translate(0 -0.25)"/><path class="cls-1" d="M1645.93,336.57H1538.37a40.39,40.39,0,0,0-35.16,20.5l-12.83,22.69,26,14.72,6.46-11.43a3.45,3.45,0,0,1,6-.07h0a31.69,31.69,0,0,0,16,14.48,18.27,18.27,0,0,1,11.44,16.94v32.92a3.17,3.17,0,0,0,3.18,3.17h3.63a3.17,3.17,0,0,0,3.17-3.17V399.77h66a18,18,0,0,1,18,18v29.06a3.71,3.71,0,0,0,3.71,3.7h2.56a3.71,3.71,0,0,0,3.71-3.7V382.47l3.56-25.33A18.07,18.07,0,0,0,1645.93,336.57Z" transform="translate(0 -0.25)"/><g class="cls-8"><rect class="cls-9" x="1646.67" y="313.62" width="23.75" height="49.35" rx="11.87" transform="translate(3317.08 676.34) rotate(-180)"/><rect class="cls-9" x="1625.51" y="313.62" width="28.21" height="58.63" rx="14.11" transform="translate(3279.23 685.62) rotate(180)"/><rect class="cls-9" x="1597.65" y="384.31" width="14.32" height="29.75" rx="7.16"/><rect class="cls-9" x="1607.72" y="378.72" width="17.01" height="35.34" rx="8.5"/><rect class="cls-9" x="1503.81" y="338.57" width="15.78" height="32.79" rx="7.89" transform="translate(1156.73 1866.41) rotate(-90)"/><rect class="cls-9" x="1558.44" y="386.88" width="15.78" height="32.79" rx="7.89" transform="translate(3132.66 806.29) rotate(-180)"/><path class="cls-9" d="M1566.2,315.39h0a9.26,9.26,0,0,1,7,3.24,11,11,0,0,1,17.72,3.05h12.47a9.31,9.31,0,0,1,9.28,9.28h0a9.31,9.31,0,0,1-9.28,9.29h-1.66A9.72,9.72,0,0,0,1592,350h0a11.2,11.2,0,0,1-10.7,11.29,11.07,11.07,0,0,1-11-8.25,9.17,9.17,0,0,1-4.14,1h0a9.32,9.32,0,0,1-9.29-9.29v-20A9.32,9.32,0,0,1,1566.2,315.39Z" transform="translate(0 -0.25)"/><path class="cls-7" d="M1499.86,373.38l21.55,4.15a4.43,4.43,0,0,1,3.44,5.48l-7.55,28.44a7.19,7.19,0,0,1-8.22,5.25c.24-1.57-2.25-3.37-5.63-4s-6.35.09-6.71,1.64a7.14,7.14,0,0,1-4.06-2.43,7.22,7.22,0,0,1-1.63-5.51l3.58-29.2A4.43,4.43,0,0,1,1499.86,373.38Z" transform="translate(0 -0.25)"/><path class="cls-7" d="M1497,373.79s-2.1,3.68-5.52,4l-2.77,4.2,27.61,12.66s9.31-13,11.64-12.82c0,0-.9-2.79-5.46-3.92S1497,373.79,1497,373.79Z" transform="translate(0 -0.25)"/></g><path class="cls-9" d="M1513.44,384.55h10.05a10.89,10.89,0,0,1,10.89,10.89v0a0,0,0,0,1,0,0h-10.05a10.89,10.89,0,0,1-10.89-10.89v0A0,0,0,0,1,1513.44,384.55Z" transform="translate(2724 1406.7) rotate(-154.08)"/><path class="cls-7" d="M1485,377h10.05a0,0,0,0,1,0,0v0a10.89,10.89,0,0,1-10.89,10.89h-10.05a0,0,0,0,1,0,0v0A10.89,10.89,0,0,1,1485,377Z" transform="translate(-23.43 106.26) rotate(-4.08)"/><path class="cls-1" d="M1495,376.3l21.55,4.16a4.43,4.43,0,0,1,3.44,5.48l-7.55,28.43a7.22,7.22,0,0,1-8.23,5.26c.25-1.58-2.25-3.37-5.62-4s-6.35.08-6.71,1.64a7.23,7.23,0,0,1-5.69-7.94l3.58-29.21A4.43,4.43,0,0,1,1495,376.3Z" transform="translate(0 -0.25)"/><g class="cls-10"><circle class="cls-9" cx="1513.07" cy="409.64" r="16.24"/></g><ellipse class="cls-1" cx="1508.7" cy="399.64" rx="1.05" ry="1.89" transform="translate(830.42 1805.03) rotate(-79.08)"/><ellipse class="cls-9" cx="1495.33" cy="397.06" rx="1.05" ry="1.89" transform="translate(822.12 1789.81) rotate(-79.08)"/><path class="cls-2" d="M1488.07,415.11a4.27,4.27,0,0,0,5,.85,11,11,0,0,1,10.48,2,4.23,4.23,0,0,0,4.83,1.13l.53-.26c-1.08,3.44-6.18,5.33-11.77,4.25s-9.59-4.71-9.34-8.29Z" transform="translate(0 -0.25)"/><g class="cls-11"><circle class="cls-12" cx="1499.95" cy="422.66" r="1.47"/><circle class="cls-12" cx="1494.6" cy="421.62" r="1.47"/></g><path class="cls-7" d="M1397.45,459.93h3.77a16.71,16.71,0,0,1,16.7,16.71v58.47A1.88,1.88,0,0,1,1416,537h0a1.89,1.89,0,0,1-1.89-1.88V477.74a14,14,0,0,0-14-14h-2.67Z" transform="translate(0 -0.25)"/><path class="cls-7" d="M1382.5,498.69H1385a3.68,3.68,0,0,1,3.68,3.68v65a0,0,0,0,1,0,0h-9.91a0,0,0,0,1,0,0v-65A3.68,3.68,0,0,1,1382.5,498.69Z" transform="translate(2767.54 1065.85) rotate(-180)"/><path class="cls-7" d="M1312,490.64v26.42h-2.15a14.34,14.34,0,0,0-14.35,14.35v32.85a3.15,3.15,0,0,1-3.15,3.15h-3.61a3.15,3.15,0,0,1-3.15-3.15V490.64Z" transform="translate(0 -0.25)"/><path class="cls-1" d="M1249.75,454.25h20.31v.07h123a17.93,17.93,0,0,1,17.76,20.42l-3.53,25.15v63.84a3.68,3.68,0,0,1-3.68,3.68h-2.55a3.68,3.68,0,0,1-3.68-3.68V534.88a17.82,17.82,0,0,0-17.83-17.82H1314v47.2a3.15,3.15,0,0,1-3.15,3.15h-3.61a3.15,3.15,0,0,1-3.15-3.15V531.59a18.17,18.17,0,0,0-11.36-16.83,31.39,31.39,0,0,1-15.93-14.37l-8.48-14.16a18.65,18.65,0,0,0-16-9.09h-2.58Z" transform="translate(0 -0.25)"/><g class="cls-13"><rect class="cls-9" x="1375.12" y="444.03" width="19.84" height="41.22" rx="9.92" transform="translate(2770.07 929.02) rotate(-180)"/><rect class="cls-9" x="1357.44" y="444.03" width="23.57" height="48.97" rx="11.78" transform="translate(2738.45 936.77) rotate(180)"/><path class="cls-9" d="M1296.47,443.8h0a7.76,7.76,0,0,1,5.88,2.7,9.21,9.21,0,0,1,14.84,2.56h10.45a7.8,7.8,0,0,1,7.77,7.77h0a7.8,7.8,0,0,1-7.77,7.78h-1.4a8.13,8.13,0,0,0-8.13,8.14h0a9.38,9.38,0,0,1-9,9.45,9.27,9.27,0,0,1-9.21-6.91,7.62,7.62,0,0,1-3.47.83h0a7.8,7.8,0,0,1-7.77-7.77V451.57A7.8,7.8,0,0,1,1296.47,443.8Z" transform="translate(0 -0.25)"/><path class="cls-7" d="M1252.18,443.88l21.45,3.8a4.4,4.4,0,0,1,3.5,5.39l-7.07,28.34a7.14,7.14,0,0,1-3.41,4.49c-1,3.43-6.06,5.38-11.62,4.4s-9.59-4.53-9.4-8.09a7.15,7.15,0,0,1-1.7-5.44l3.12-29A4.38,4.38,0,0,1,1252.18,443.88Z" transform="translate(0 -0.25)"/><path class="cls-7" d="M1272.57,471.34l.7-2.86a18.63,18.63,0,0,1,18.11-14.23h0L1293,441l-39.66-1-4.19,26.75Z" transform="translate(0 -0.25)"/></g><path class="cls-9" d="M1268.86,448.39h10a10.81,10.81,0,0,1,10.81,10.81v0a0,0,0,0,1,0,0h-10a10.81,10.81,0,0,1-10.81-10.81v0A0,0,0,0,1,1268.86,448.39Z" transform="translate(2245.92 1406.44) rotate(-154.94)"/><path class="cls-7" d="M1240.53,441.45h10a0,0,0,0,1,0,0v0a10.81,10.81,0,0,1-10.81,10.81h-10a0,0,0,0,1,0,0v0A10.81,10.81,0,0,1,1240.53,441.45Z" transform="translate(-33.89 108.25) rotate(-4.94)"/><path class="cls-1" d="M1250.35,440.64l21.45,3.8a4.39,4.39,0,0,1,3.49,5.39l-7.06,28.34a7.16,7.16,0,0,1-8.09,5.33c.22-1.57-2.28-3.31-5.64-3.9s-6.3.18-6.64,1.73a7.16,7.16,0,0,1-5.76-7.8l3.12-29A4.38,4.38,0,0,1,1250.35,440.64Z" transform="translate(0 -0.25)"/><ellipse class="cls-9" cx="1264.31" cy="463.6" rx="1.04" ry="1.87" transform="translate(587.04 1627.26) rotate(-79.94)"/><ellipse class="cls-9" cx="1251" cy="461.24" rx="1.04" ry="1.87" transform="translate(578.38 1612.21) rotate(-79.94)"/><path class="cls-2" d="M1244.06,479.26a4.23,4.23,0,0,0,5,.77,10.9,10.9,0,0,1,10.44,1.85,4.19,4.19,0,0,0,4.81,1.05c.18-.08.35-.17.53-.27-1,3.43-6.07,5.38-11.62,4.4s-9.6-4.53-9.41-8.09Z" transform="translate(0 -0.25)"/><g class="cls-14"><circle class="cls-12" cx="1255.96" cy="486.57" r="1.46"/><circle class="cls-12" cx="1250.64" cy="485.63" r="1.46"/></g><ellipse class="cls-6" cx="211" cy="376.31" rx="14" ry="3"/><ellipse class="cls-6" cx="251.5" cy="373.78" rx="11.5" ry="2.46"/><ellipse class="cls-6" cx="238.5" cy="382.78" rx="6.83" ry="1.46"/><ellipse class="cls-6" cx="248.5" cy="388.78" rx="4.5" ry="0.96"/><ellipse class="cls-6" cx="193.5" cy="380.78" rx="4.5" ry="0.96"/><ellipse class="cls-6" cx="365.61" cy="496.46" rx="35.39" ry="7.58"/><ellipse class="cls-6" cx="497" cy="495.46" rx="23" ry="4.93"/><ellipse class="cls-6" cx="454" cy="505.46" rx="17" ry="3.64"/><ellipse class="cls-6" cx="521" cy="510.46" rx="11" ry="2.36"/><ellipse class="cls-6" cx="321.38" cy="507.74" rx="11.38" ry="2.44"/><path class="cls-7" d="M378,369.22h-4.52a20,20,0,0,0-20,20v70.07a2.26,2.26,0,0,0,2.26,2.26h0a2.26,2.26,0,0,0,2.26-2.26V390.55a16.82,16.82,0,0,1,16.82-16.81H378Z" transform="translate(0 -0.25)"/><path class="cls-7" d="M386.05,414.29h11.68a0,0,0,0,1,0,0V491a4.34,4.34,0,0,1-4.34,4.34h-3a4.34,4.34,0,0,1-4.34-4.34V414.29A0,0,0,0,1,386.05,414.29Z"/><path class="cls-7" d="M476.57,405.06V436.2h2.55A16.93,16.93,0,0,1,496,453.12v38.74a3.72,3.72,0,0,0,3.71,3.72H504a3.72,3.72,0,0,0,3.71-3.72v-86.8Z" transform="translate(0 -0.25)"/><path class="cls-2" d="M409.26,450.91a21.9,21.9,0,1,0-26,0l-3,5.18a2.43,2.43,0,0,0,4.21,2.43l3-5.17a21.77,21.77,0,0,0,6.34,1.7v6a2.44,2.44,0,1,0,4.87,0v-6a21.77,21.77,0,0,0,6.34-1.7l3,5.17a2.43,2.43,0,1,0,4.21-2.43Z" transform="translate(0 -0.25)"/><path class="cls-1" d="M549.92,362.15H526v.08h-145A21.14,21.14,0,0,0,360,386.31L364.15,416v75.28a4.34,4.34,0,0,0,4.34,4.34h3a4.34,4.34,0,0,0,4.33-4.34v-34a21,21,0,0,1,21-21h77.29v55.66a3.72,3.72,0,0,0,3.71,3.72h4.26a3.72,3.72,0,0,0,3.71-3.72V453.34a21.41,21.41,0,0,1,13.4-19.84A37.1,37.1,0,0,0,518,416.55l10-16.7a22,22,0,0,1,18.88-10.71h3Z" transform="translate(0 -0.25)"/><g class="cls-15"><rect class="cls-9" x="375.84" y="347.16" width="29.74" height="61.81" rx="14.87"/><rect class="cls-9" x="396.74" y="347.16" width="35.33" height="73.43" rx="17.67"/><rect class="cls-9" x="457.17" y="412.33" width="16.76" height="34.82" rx="8.38" transform="translate(931.09 859.23) rotate(180)"/><rect class="cls-9" x="442.24" y="405.79" width="19.91" height="41.37" rx="9.95" transform="translate(904.39 852.68) rotate(180)"/><rect class="cls-9" x="508.66" y="395.37" width="18.47" height="38.38" rx="9.23" transform="translate(103.34 932.2) rotate(-90)"/><rect class="cls-9" x="354.62" y="414.4" width="18.47" height="38.38" rx="9.23"/><path class="cls-9" d="M493.44,349.82h0a8.47,8.47,0,0,0-6.41,2.95,10,10,0,0,0-16.17,2.78H459.48A8.5,8.5,0,0,0,451,364h0a8.5,8.5,0,0,0,8.48,8.47H461a8.87,8.87,0,0,1,8.87,8.87h0a10.22,10.22,0,0,0,9.76,10.3,10.12,10.12,0,0,0,10-7.52,8.42,8.42,0,0,0,3.78.9h0a8.5,8.5,0,0,0,8.47-8.48V358.3A8.5,8.5,0,0,0,493.44,349.82Z" transform="translate(0 -0.25)"/><path class="cls-7" d="M551.65,349.91l-25.3,4.49a5.18,5.18,0,0,0-4.12,6.35l8.33,33.42a8.45,8.45,0,0,0,4,5.3c1.2,4,7.14,6.34,13.7,5.18s11.31-5.34,11.09-9.54a8.47,8.47,0,0,0,2-6.41l-3.68-34.24A5.18,5.18,0,0,0,551.65,349.91Z" transform="translate(0 -0.25)"/><path class="cls-7" d="M527.6,382.3l-.82-3.37a22,22,0,0,0-21.35-16.78h0l-1.89-15.59,46.76-1.14L555.24,377Z" transform="translate(0 -0.25)"/></g><path class="cls-9" d="M522.51,351.8h11.77a0,0,0,0,1,0,0v0a12.75,12.75,0,0,1-12.75,12.75H509.76a0,0,0,0,1,0,0v0a12.75,12.75,0,0,1,12.75-12.75Z" transform="translate(-102.56 254.54) rotate(-25.06)"/><path class="cls-9" d="M555.91,343.61h11.77a12.75,12.75,0,0,1,12.75,12.75v0a0,0,0,0,1,0,0H568.66a12.75,12.75,0,0,1-12.75-12.75v0A0,0,0,0,1,555.91,343.61Z" transform="translate(1104.07 747.37) rotate(-175.06)"/><path class="cls-1" d="M556.11,342.65l-25.3,4.48a5.19,5.19,0,0,0-4.12,6.35L535,386.9a8.45,8.45,0,0,0,9.54,6.29c-.26-1.85,2.69-3.9,6.65-4.6s7.43.21,7.83,2a8.47,8.47,0,0,0,6.8-9.2l-3.68-34.24A5.17,5.17,0,0,0,556.11,342.65Z" transform="translate(0 -0.25)"/><g class="cls-16"><path class="cls-9" d="M552.5,334.07h0a11.39,11.39,0,0,0-4.64,1.95l-.36-2a6.62,6.62,0,1,0-13.06,2.18L536.36,347a6.64,6.64,0,0,0,4,5A7.59,7.59,0,0,1,545,357.7l1.52,8.57a11.56,11.56,0,0,0,13.36,9.33h0a11.57,11.57,0,0,0,9.34-13.36l-3.34-18.83A11.57,11.57,0,0,0,552.5,334.07Z" transform="translate(0 -0.25)"/></g><ellipse class="cls-9" cx="539.64" cy="369.72" rx="2.21" ry="1.23" transform="translate(-56.27 99.67) rotate(-10.06)"/><ellipse class="cls-1" cx="555.34" cy="366.94" rx="2.21" ry="1.23" transform="translate(-55.55 102.37) rotate(-10.06)"/><path class="cls-2" d="M563.52,388.19a5,5,0,0,1-5.88.9,12.86,12.86,0,0,0-12.3,2.19,5,5,0,0,1-5.67,1.24c-.21-.1-.42-.2-.62-.32,1.2,4,7.14,6.35,13.7,5.18s11.31-5.34,11.08-9.53C563.73,388,563.63,388.08,563.52,388.19Z" transform="translate(0 -0.25)"/><g class="cls-17"><circle class="cls-12" cx="549.48" cy="396.86" r="1.72"/><circle class="cls-12" cx="555.76" cy="395.75" r="1.72"/></g><path class="cls-7" d="M246.79,327.67h1.76a7.79,7.79,0,0,1,7.78,7.78v27.24a.87.87,0,0,1-.88.88h0a.88.88,0,0,1-.88-.88V336a6.53,6.53,0,0,0-6.53-6.54h-1.25Z" transform="translate(0 -0.25)"/><path class="cls-7" d="M240.44,344.17h1.23a1.58,1.58,0,0,1,1.58,1.58v28.79a0,0,0,0,1,0,0h-4.38a0,0,0,0,1,0,0V345.75a1.58,1.58,0,0,1,1.58-1.58Z" transform="translate(482.1 718.46) rotate(-180)"/><path class="cls-7" d="M209.32,340.62v11.67h-1a6.34,6.34,0,0,0-6.34,6.34v14.52a1.39,1.39,0,0,1-1.39,1.39H199a1.39,1.39,0,0,1-1.39-1.39V340.62Z" transform="translate(0 -0.25)"/><path class="cls-1" d="M245.16,324.57H198a17.72,17.72,0,0,0-15.42,9l-5.63,10L188.35,350l2.84-5a1.5,1.5,0,0,1,2.6,0h0a13.94,13.94,0,0,0,7,6.35,8,8,0,0,1,5,7.43v14.44a1.39,1.39,0,0,0,1.39,1.39h1.6a1.39,1.39,0,0,0,1.39-1.39V352.29h29a7.88,7.88,0,0,1,7.88,7.88v12.74a1.63,1.63,0,0,0,1.63,1.63h1.12a1.63,1.63,0,0,0,1.63-1.63V344.7L253,333.59A7.92,7.92,0,0,0,245.16,324.57Z" transform="translate(0 -0.25)"/><g class="cls-18"><rect class="cls-9" x="245.48" y="314.5" width="10.42" height="21.65" rx="3.75" transform="translate(501.39 650.4) rotate(180)"/><rect class="cls-9" x="236.21" y="314.5" width="12.37" height="25.72" rx="4.45" transform="translate(484.79 654.47) rotate(180)"/><rect class="cls-9" x="206.75" y="345.37" width="6.28" height="13.05" rx="2.26"/><rect class="cls-9" x="211.16" y="342.92" width="7.46" height="15.5" rx="2.68"/><rect class="cls-9" x="213.61" y="314.08" width="10.03" height="20.85" rx="3.61" transform="translate(-105.89 542.87) rotate(-90)"/><path class="cls-7" d="M181.09,340.71l9.45,1.83a1.93,1.93,0,0,1,1.51,2.4l-3.31,12.47a3.16,3.16,0,0,1-3.61,2.31c.11-.69-1-1.48-2.46-1.77s-2.79,0-2.95.72a3.13,3.13,0,0,1-1.78-1.06,3.18,3.18,0,0,1-.71-2.42l1.57-12.81A2,2,0,0,1,181.09,340.71Z" transform="translate(0 -0.25)"/><path class="cls-7" d="M179.84,340.89a3.62,3.62,0,0,1-2.42,1.75l-1.22,1.84L188.31,350s4.08-5.7,5.1-5.63A3.09,3.09,0,0,0,191,342.7C189,342.2,179.84,340.89,179.84,340.89Z" transform="translate(0 -0.25)"/></g><path class="cls-9" d="M187,345.62h5.75a3.44,3.44,0,0,1,3.44,3.44v1.34a0,0,0,0,1,0,0h-5.75A3.44,3.44,0,0,1,187,347v-1.34A0,0,0,0,1,187,345.62Z" transform="translate(211.87 744.52) rotate(-154.08)"/><path class="cls-7" d="M173.24,342.29H179a0,0,0,0,1,0,0v1.34a3.44,3.44,0,0,1-3.44,3.44H169.8a0,0,0,0,1,0,0v-1.34A3.44,3.44,0,0,1,173.24,342.29Z" transform="translate(-24.06 13.02) rotate(-4.08)"/><path class="cls-1" d="M179,342l9.45,1.82a2,2,0,0,1,1.51,2.4l-3.31,12.48A3.17,3.17,0,0,1,183,361c.1-.69-1-1.48-2.47-1.76s-2.79,0-2.94.72a3.16,3.16,0,0,1-2.5-3.49l1.57-12.81A1.94,1.94,0,0,1,179,342Z" transform="translate(0 -0.25)"/><g class="cls-19"><circle class="cls-9" cx="175.77" cy="353.63" r="7.12"/></g><ellipse class="cls-9" cx="184.97" cy="352.23" rx="0.46" ry="0.83" transform="matrix(0.19, -0.98, 0.98, 0.19, -195.93, 466.85)"/><ellipse class="cls-1" cx="179.11" cy="351.1" rx="0.46" ry="0.83" transform="translate(-199.57 460.18) rotate(-79.08)"/><path class="cls-2" d="M175.92,359a1.88,1.88,0,0,0,2.2.37,4.81,4.81,0,0,1,4.59.89,1.88,1.88,0,0,0,2.12.5l.24-.12c-.48,1.51-2.72,2.34-5.17,1.86s-4.2-2.06-4.1-3.63Z" transform="translate(0 -0.25)"/><g class="cls-20"><circle class="cls-12" cx="181.13" cy="362.19" r="0.64"/><circle class="cls-12" cx="178.78" cy="361.73" r="0.64"/></g><path class="cls-2" d="M1328.47,249.84s16.26,8.47,3.93,30.35c-14.29-2.51-28.11-5.49-41.32-8.81,1.69-16.66,14.36-24.72,17.88-26.69C1321.29,248.35,1328.47,249.84,1328.47,249.84Z" transform="translate(0 -0.25)"/><path class="cls-21" d="M1332.4,280.19c-7.45,13.41-25.47,13.48-38.41,11.45a47,47,0,0,1-2.91-20.26C1304.29,274.7,1318.11,277.68,1332.4,280.19Z" transform="translate(0 -0.25)"/><path class="cls-22" d="M1309,244.69c-3.52,2-16.19,10-17.88,26.69-8.4-2-16.67-4.2-24.66-6.57,1.42-18.29,16-26.48,18.49-27.77C1294.19,240.29,1302.32,242.8,1309,244.69Z" transform="translate(0 -0.25)"/><path class="cls-23" d="M1291.08,271.38a47,47,0,0,0,2.91,20.26,90.8,90.8,0,0,1-14.43-3.32s-3.38-.68-9.48-2.3c-3.25-8.2-4.13-15.25-3.66-21.21C1274.41,267.18,1282.68,269.35,1291.08,271.38Z" transform="translate(0 -0.25)"/><path class="cls-2" d="M1284.91,237c-2.5,1.29-17.07,9.48-18.49,27.77q-24.69-7.31-46.88-16.12c1-17.88,13.21-27.3,18.5-30.55C1255.45,226.13,1271.43,232.3,1284.91,237Z" transform="translate(0 -0.25)"/><path class="cls-21" d="M1266.42,264.81c-.47,6,.41,13,3.66,21.21-6-1.56-14.7-4.07-25.4-7.59-6.37-2.1-13.55-4.61-21.28-7.52-3.25-8.54-4.33-15.92-3.86-22.22Q1241.7,257.53,1266.42,264.81Z" transform="translate(0 -0.25)"/><path class="cls-24" d="M1047.75,159.88c6.3,6.3,12.67,12.33,19.17,18.16a451.63,451.63,0,0,0,49.39,38c7,4.81,14.09,9.21,21.06,13.34a515.57,515.57,0,0,0,62.33,31.91c8.33,3.66,16.32,6.84,23.7,9.62,7.73,2.91,14.91,5.42,21.28,7.52l-.61,1.69-66.26,272.46H753.21L687,280.12v-.07c6.71-2.16,14.29-4.81,22.49-7.92,7.45-2.78,15.38-6,23.78-9.62a520.72,520.72,0,0,0,62.25-31.91c7-4.13,14-8.53,21.07-13.27a465.46,465.46,0,0,0,49.38-38c6.51-5.82,12.94-11.85,19.17-18.22a386.29,386.29,0,0,0,43.16-51.48c5.28-7.59,10.43-15.52,15.3-23.78a366.24,366.24,0,0,0,18.5-35.56,40,40,0,0,0,4.4-17A39.69,39.69,0,0,0,970.8,49a365,365,0,0,0,18.49,35.56v.07c5,8.2,10,16.12,15.31,23.71A390.15,390.15,0,0,0,1047.75,159.88Z" transform="translate(0 -0.25)"/><path class="cls-22" d="M1238,218.14c-5.29,3.25-17.48,12.67-18.5,30.55-8-3.05-15.71-6.37-23.16-9.75,2-21.68,20.86-30.35,20.86-30.35l.2-.41C1224.49,211.77,1231.4,215.09,1238,218.14Z" transform="translate(0 -0.25)"/><path class="cls-23" d="M1219.54,248.69c-.47,6.3.61,13.68,3.86,22.22-7.38-2.78-15.37-6-23.7-9.62-3.12-8.6-3.93-16-3.32-22.35C1203.83,242.32,1211.55,245.64,1219.54,248.69Z" transform="translate(0 -0.25)"/><path class="cls-2" d="M1217.44,208.18l-.2.41s-18.83,8.67-20.86,30.35a467.73,467.73,0,0,1-57.18-30.62c6.37-21.55,25.61-27,30.08-28,4.27,2.85,8.53,5.56,12.73,8.13C1194.07,195.78,1206,202.35,1217.44,208.18Z" transform="translate(0 -0.25)"/><path class="cls-21" d="M1196.38,238.94c-.61,6.36.2,13.75,3.32,22.35a515.57,515.57,0,0,1-62.33-31.91,55,55,0,0,1,1.83-21.06A467.73,467.73,0,0,0,1196.38,238.94Z" transform="translate(0 -0.25)"/><path class="cls-25" d="M1169.28,180.27c-7.18-4.61-14.36-9.62-21.54-14.9-3.59-2.64-7.18-5.35-10.77-8.2l.2-97.61c3.73.2,7.79.27,12.06.27,18.36,0,33.33-2,33.33-4.41v132.1l-.55.88C1177.81,185.83,1173.55,183.12,1169.28,180.27Z" transform="translate(0 -0.25)"/><path class="cls-26" d="M1137.17,59.56c-12.46-.68-21.27-2.24-21.27-4.14,0-2.37,14.9-4.33,33.33-4.33s33.33,2,33.33,4.33-15,4.41-33.33,4.41C1145,59.83,1140.9,59.76,1137.17,59.56Z" transform="translate(0 -0.25)"/><path class="cls-22" d="M1147.74,165.37c7.18,5.28,14.36,10.29,21.54,14.9-4.47,1-23.71,6.5-30.08,28-7.45-4.68-14.63-9.42-21.4-14.3C1123.82,172.41,1142.66,166.59,1147.74,165.37Z" transform="translate(0 -0.25)"/><path class="cls-2" d="M1137,157.17c3.59,2.85,7.18,5.56,10.77,8.2-5.08,1.22-23.92,7-29.94,28.65a412.71,412.71,0,0,1-47-38.54c8.94-23.1,31.3-25.47,34.35-25.74,3,2.91,6,5.75,9.14,8.46C1121.79,144.91,1129.31,151.21,1137,157.17Z" transform="translate(0 -0.25)"/><path class="cls-23" d="M1139.2,208.32a55,55,0,0,0-1.83,21.06c-7-4.13-14-8.53-21.06-13.34-1-8.74-.28-16,1.49-22C1124.57,198.9,1131.75,203.64,1139.2,208.32Z" transform="translate(0 -0.25)"/><path class="cls-27" d="M1137.17,59.56l-.2,97.61c-7.66-6-15.18-12.26-22.63-19l1.56-1.76v-81C1115.9,57.32,1124.71,58.88,1137.17,59.56Z" transform="translate(0 -0.25)"/><path class="cls-21" d="M1117.8,194c-1.77,6-2.44,13.28-1.49,22a451.63,451.63,0,0,1-49.39-38l.07-.07c0-9.08,1.42-16.46,3.86-22.49A412.71,412.71,0,0,0,1117.8,194Z" transform="translate(0 -0.25)"/><path class="cls-22" d="M1087.11,111.51c6,6.37,12,12.47,18.09,18.23-3,.27-25.41,2.64-34.35,25.74-6.64-6.23-12.94-12.53-18.76-18.77,10-23.5,34.14-24.38,34.14-24.38Z" transform="translate(0 -0.25)"/><path class="cls-2" d="M1087.11,111.51l-.88.82s-24.12.88-34.14,24.38a399.89,399.89,0,0,1-37.8-47.14c17.14-22.43,42.4-15,42.4-15l.14-.06A383.62,383.62,0,0,0,1087.11,111.51Z" transform="translate(0 -0.25)"/><path class="cls-23" d="M1070.85,155.48c-2.44,6-3.86,13.41-3.86,22.49l-.07.07c-6.5-5.83-12.87-11.86-19.17-18.16.07-9.48,1.69-17.07,4.34-23.17C1057.91,143,1064.21,149.25,1070.85,155.48Z" transform="translate(0 -0.25)"/><path class="cls-22" d="M1056.83,74.53l-.14.06s-25.26-7.45-42.4,15c-5.83-8.4-10.84-16.4-15.24-23.85,17.13-22,42.13-14.7,42.13-14.7C1046.13,59.22,1051.41,67,1056.83,74.53Z" transform="translate(0 -0.25)"/><path class="cls-21" d="M1014.29,89.57a399.89,399.89,0,0,0,37.8,47.14c-2.65,6.1-4.27,13.69-4.34,23.17a390.15,390.15,0,0,1-43.15-51.55l.27-.2A63.84,63.84,0,0,1,1014.29,89.57Z" transform="translate(0 -0.25)"/><path class="cls-2" d="M1041.18,51s-25-7.32-42.13,14.7C980.55,34,974,11.87,974,11.87a36.88,36.88,0,0,1,5.89-5.15c23.51-16.53,39.84,3.86,39.84,3.86A368.26,368.26,0,0,0,1041.18,51Z" transform="translate(0 -0.25)"/><path class="cls-23" d="M1014.29,89.57a63.84,63.84,0,0,0-9.42,18.56l-.27.2c-5.28-7.59-10.36-15.51-15.31-23.71v-.07a61.72,61.72,0,0,1,9.76-18.83C1003.45,73.17,1008.46,81.17,1014.29,89.57Z" transform="translate(0 -0.25)"/><path class="cls-21" d="M999.05,65.72a61.72,61.72,0,0,0-9.76,18.83A365,365,0,0,1,970.8,49a39.69,39.69,0,0,1-4.34-15.72c-.07-.74-.07-1.42-.07-2.1A28,28,0,0,1,974,11.87S980.55,34,999.05,65.72Z" transform="translate(0 -0.25)"/><path class="cls-21" d="M966.39,31.17c0,.68,0,1.36.07,2.1a40,40,0,0,1-4.4,17,366.24,366.24,0,0,1-18.5,35.56h-.06C940.25,76.15,936,69,931.24,64A306.25,306.25,0,0,0,953,8C962.87,15,966.05,23.52,966.39,31.17Z" transform="translate(0 -0.25)"/><path class="cls-23" d="M943.5,85.84h.06c-4.87,8.26-10,16.19-15.3,23.78l-.28-.21A61.67,61.67,0,0,0,917.08,89,272.74,272.74,0,0,0,931.24,64C936,69,940.25,76.15,943.5,85.84Z" transform="translate(0 -0.25)"/><path class="cls-2" d="M913.15,11.8S929.47-8.59,953,8a306.25,306.25,0,0,1-21.74,56c-16.94-18.29-39.57-11.65-39.57-11.65A363.87,363.87,0,0,0,913.15,11.8Z" transform="translate(0 -0.25)"/><path class="cls-21" d="M928,109.41l.28.21A386.29,386.29,0,0,1,885.1,161.1c-.06-10.09-2-18-4.87-24.32A316.36,316.36,0,0,0,917.08,89,61.67,61.67,0,0,1,928,109.41Z" transform="translate(0 -0.25)"/><path class="cls-22" d="M931.24,64A272.74,272.74,0,0,1,917.08,89C900,68.84,876.16,75.81,876.16,75.81l-.07-.06c5.42-7.52,10.64-15.31,15.58-23.44C891.67,52.31,914.3,45.67,931.24,64Z" transform="translate(0 -0.25)"/><path class="cls-2" d="M876.16,75.81S900,68.84,917.08,89a316.36,316.36,0,0,1-36.85,47.76c-10.3-22.35-33.6-23.23-33.6-23.23l-.88-.82a383.71,383.71,0,0,0,30.34-37Z" transform="translate(0 -0.25)"/><path class="cls-23" d="M880.23,136.78c2.91,6.3,4.81,14.23,4.87,24.32-6.23,6.37-12.66,12.4-19.17,18.22l-.06-.06c0-9.83-1.7-17.62-4.34-23.85C868,149.52,874.27,143.28,880.23,136.78Z" transform="translate(0 -0.25)"/><path class="cls-21" d="M865.87,179.26l.06.06a465.46,465.46,0,0,1-49.38,38c1-10,0-18.16-2.3-24.66a380.4,380.4,0,0,0,47.28-37.26C864.17,161.64,865.87,169.43,865.87,179.26Z" transform="translate(0 -0.25)"/><path class="cls-22" d="M880.23,136.78c-6,6.5-12.26,12.74-18.7,18.63-9.28-21.74-30.62-24.18-33.8-24.45,6.16-5.76,12.19-11.86,18-18.23l.88.82S869.93,114.43,880.23,136.78Z" transform="translate(0 -0.25)"/><path class="cls-2" d="M827.73,131c3.18.27,24.52,2.71,33.8,24.45a380.4,380.4,0,0,1-47.28,37.26c-6.78-19.51-24.26-24.86-29.13-26A436.47,436.47,0,0,0,827.73,131Z" transform="translate(0 -0.25)"/><path class="cls-23" d="M814.25,192.67c2.3,6.5,3.32,14.63,2.3,24.66-7,4.74-14.09,9.14-21.07,13.27.88-9.89-.4-17.88-2.91-24.25C799.89,202.08,807.07,197.55,814.25,192.67Z" transform="translate(0 -0.25)"/><path class="cls-22" d="M814.25,192.67c-7.18,4.88-14.36,9.41-21.68,13.68-7.18-18.83-24.59-23.84-28.93-24.79,7.12-4.68,14.3-9.62,21.48-14.9C790,167.81,807.47,173.16,814.25,192.67Z" transform="translate(0 -0.25)"/><path class="cls-21" d="M792.57,206.35c2.51,6.37,3.79,14.36,2.91,24.25a520.72,520.72,0,0,1-62.25,31.91c3.93-11,4.13-20,2.44-27.3A484.65,484.65,0,0,0,792.57,206.35Z" transform="translate(0 -0.25)"/><path class="cls-2" d="M763.64,181.56c4.34.95,21.75,6,28.93,24.79a484.65,484.65,0,0,1-56.9,28.86c-4.2-18.09-20.06-25.4-20.06-25.4l-.2-.34A506.57,506.57,0,0,0,763.64,181.56Z" transform="translate(0 -0.25)"/><path class="cls-23" d="M735.67,235.21c1.69,7.25,1.49,16.33-2.44,27.3-8.4,3.66-16.33,6.84-23.78,9.62,4.27-11,4.74-20.19,3.25-27.57C720.15,241.71,727.88,238.6,735.67,235.21Z" transform="translate(0 -0.25)"/><path class="cls-22" d="M735.67,235.21c-7.79,3.39-15.52,6.5-23,9.35-2.84-14.36-13.14-22.22-17.88-25.13,6.64-3.05,13.55-6.37,20.59-10l.2.34S731.47,217.12,735.67,235.21Z" transform="translate(0 -0.25)"/><path class="cls-21" d="M712.7,244.56c1.49,7.38,1,16.53-3.25,27.57-8.2,3.11-15.78,5.76-22.49,7.92-10.09,3.32-18.36,5.63-24.12,7.19,4.27-11.11,4.48-20,2.58-27C679.71,256.07,695.7,250.93,712.7,244.56Z" transform="translate(0 -0.25)"/><path class="cls-2" d="M694.82,219.43c4.74,2.91,15,10.77,17.88,25.13-17,6.37-33,11.51-47.28,15.65-3.52-14-15-20.66-17.41-21.88C661.49,233.58,677.41,227.42,694.82,219.43Z" transform="translate(0 -0.25)"/><path class="cls-23" d="M665.42,260.21c1.9,7,1.69,15.92-2.58,27-6.16,1.62-9.55,2.3-9.55,2.3a94.86,94.86,0,0,1-14.43,3.39c3.8-10.78,3.73-19.45,1.7-26.22C648.08,264.88,656.41,262.78,665.42,260.21Z" transform="translate(0 -0.25)"/><path class="cls-22" d="M648,238.33c2.44,1.22,13.89,7.85,17.41,21.88-9,2.57-17.34,4.67-24.86,6.5A34.9,34.9,0,0,0,624,246.05C630.6,244.08,638.73,241.58,648,238.33Z" transform="translate(0 -0.25)"/><path class="cls-2" d="M640.56,266.71c2,6.77,2.1,15.44-1.7,26.22-12.93,2-31,1.89-38.41-11.45a38,38,0,0,1-2.91-6.37l3.66-.75S616.37,272.47,640.56,266.71Z" transform="translate(0 -0.25)"/><path class="cls-2" d="M624,246.05a34.9,34.9,0,0,1,16.6,20.66c-24.19,5.76-39.36,7.65-39.36,7.65l-3.66.75c-6.23-17.14,6.84-24,6.84-24S611.63,249.64,624,246.05Z" transform="translate(0 -0.25)"/><polygon class="cls-24" points="1180 552.31 753 552.31 726 441.31 1205 440.31 1180 552.31"/><g class="cls-28"><line class="cls-29" x1="640" y1="64.81" x2="1292" y2="64.81"/><line class="cls-29" x1="640" y1="95.81" x2="1292" y2="95.81"/><line class="cls-29" x1="640" y1="126.81" x2="1292" y2="126.81"/><line class="cls-29" x1="640" y1="157.81" x2="1292" y2="157.81"/><line class="cls-29" x1="640" y1="188.81" x2="1292" y2="188.81"/><line class="cls-29" x1="640" y1="219.81" x2="1292" y2="219.81"/><line class="cls-29" x1="640" y1="250.81" x2="1292" y2="250.81"/><line class="cls-29" x1="640" y1="281.81" x2="1292" y2="281.81"/><line class="cls-29" x1="640" y1="312.81" x2="1292" y2="312.81"/><line class="cls-29" x1="640" y1="343.81" x2="1292" y2="343.81"/><line class="cls-29" x1="640" y1="374.81" x2="1292" y2="374.81"/><line class="cls-29" x1="640" y1="405.81" x2="1292" y2="405.81"/><line class="cls-29" x1="640" y1="436.81" x2="1292" y2="436.81"/><line class="cls-29" x1="640" y1="467.81" x2="1292" y2="467.81"/><line class="cls-29" x1="640" y1="498.81" x2="1292" y2="498.81"/><line class="cls-29" x1="640" y1="529.81" x2="1292" y2="529.81"/></g><circle class="cls-30" cx="960" cy="201.31" r="51"/><circle class="cls-31" cx="966" cy="199.31" r="48"/><path class="cls-9" d="M994.24,175.23s13.46,4.27,9.8,17.91c-3.54-1-11.72-3.11-11.72-3.11s-6.26-1.63-6.81-3.62c.26-3.8.48-6.84.51-8.29.11-3.51-1.59-5.1-3.07-5.83Z" transform="translate(0 -0.25)"/><path class="cls-9" d="M983,172.29c1.48.73,3.18,2.32,3.07,5.83,0,1.45-.25,4.49-.51,8.29-.43,6.08-1,14.07-1.51,20.48,0,0-2.5,4.38-11,1.92-6.26-1.81-7.85-7.42-8.25-10.24a12,12,0,0,1-.14-1.67v-9.19c0-5.1-1.52-7-4.89-9.37s-2.68-6.59-2.68-6.59v0h23.81A5.55,5.55,0,0,1,983,172.29ZM977,199c0-.79-1.16-1.44-2.57-1.44s-2.54.65-2.54,1.44,1.16,1.45,2.54,1.45S977,199.76,977,199Z" transform="translate(0 -0.25)"/><path class="cls-1" d="M979.54,224.73a4.64,4.64,0,0,1-1.37.58c-4.13.9-5.46-.84-5.46-.84s-2.47-2.42-7.24-1.95h-.11c-4.78-.47-7.2,1.95-7.2,1.95s-1.34,1.74-5.47.84a4.79,4.79,0,0,1-1.62-.73c-2.75-2-3.37-6.51-3.37-6.51s-.72-8.94-1.45-18.49l7.46-.62c0,.8,1.16,1.45,2.57,1.45s2.53-.65,2.53-1.45a.73.73,0,0,0,0-.29l6-.1c.4,2.82,2,8.43,8.25,10.24,8.47,2.46,11-1.92,11-1.92-.51,6.33-.87,11.18-.87,11.18S982.48,222.92,979.54,224.73Z" transform="translate(0 -0.25)"/><path class="cls-32" d="M979.54,224.73a3,3,0,0,1,.11.83c0,3-3.58,5.57-8.68,6.69a2,2,0,0,0-3.87.51c-.58,0-1.16.07-1.78.07s-1.3,0-1.91-.07a1.94,1.94,0,0,0-1.63-1.95,1.92,1.92,0,0,0-2.21,1.41c-5.07-1.12-8.61-3.69-8.61-6.66,0-.51-.08-.51.11-1a4.79,4.79,0,0,0,1.62.73c4.13.9,5.47-.84,5.47-.84s2.42-2.42,7.2-1.95h.11c4.77-.47,7.24,1.95,7.24,1.95s1.33,1.74,5.46.84A4.64,4.64,0,0,0,979.54,224.73Z" transform="translate(0 -0.25)"/><path class="cls-1" d="M974.41,197.52c1.41,0,2.57.65,2.57,1.44s-1.16,1.45-2.57,1.45-2.54-.65-2.54-1.45S973,197.52,974.41,197.52Z" transform="translate(0 -0.25)"/><path class="cls-33" d="M968.72,230.81a2,2,0,0,1,2.25,1.44,24.6,24.6,0,0,1-3.87.51A2,2,0,0,1,968.72,230.81Z" transform="translate(0 -0.25)"/><path class="cls-1" d="M947.85,172.33a6.4,6.4,0,0,1,2.09-.61h7.13v0s-.68,4.24,2.68,6.59,4.89,4.27,4.89,9.37v9.19a12,12,0,0,0,.14,1.67l-6,.1a2.68,2.68,0,0,0-2.49-1.15c-1.41,0-2.57.65-2.57,1.44l-7.46.62c-.32-4.45-.65-9-.9-12.85s-.51-7.13-.54-8.61c-.11-3.47,1.55-5.07,3-5.75Z" transform="translate(0 -0.25)"/><path class="cls-33" d="M961.78,230.81a1.94,1.94,0,0,1,1.63,1.95,21,21,0,0,1-3.84-.54A1.92,1.92,0,0,1,961.78,230.81Z" transform="translate(0 -0.25)"/><path class="cls-9" d="M958.77,198.67a.73.73,0,0,1,0,.29c0,.8-1.16,1.45-2.53,1.45s-2.57-.65-2.57-1.45,1.16-1.44,2.57-1.44A2.68,2.68,0,0,1,958.77,198.67Z" transform="translate(0 -0.25)"/><path class="cls-9" d="M936.74,175.23l11.07-2.86c-1.45.68-3.11,2.28-3,5.75,0,1.48.25,4.67.54,8.61-1.12,1.85-6.7,3.3-6.7,3.3s-8.21,2.13-11.72,3.11C923.27,179.5,936.74,175.23,936.74,175.23Z" transform="translate(0 -0.25)"/><polygon class="cls-34" points="726 302.31 966 302.31 966 440.31 758 441.31 726 302.31"/><polygon class="cls-35" points="762.65 302.31 795.77 441.31 758 441.31 726 302.31 762.65 302.31"/><polygon class="cls-34" points="1206 302.31 966 302.31 966 440.31 1174 441.31 1206 302.31"/><polygon class="cls-35" points="1169.35 302.31 1136.23 441.31 1174 441.31 1206 302.31 1169.35 302.31"/></g><g id="แทบ"><path class="cls-36" d="M1008.92,407.13l4.34,13.19s1.19,12.88-6,12.88c-4.39,0,0-16.5,0-16.5Z" transform="translate(0 -0.25)"/><path class="cls-36" d="M944.49,428.87c-1.3,5.57-5.59,9.33-9.6,8.4l-7.71-1.79c-4-.93-6.21-6.2-4.92-11.77l3.22-13.86c1.3-5.57,5.59-9.32,9.6-8.39l7.71,1.79c4,.93,6.21,6.19,4.92,11.76Z" transform="translate(0 -0.25)"/><path class="cls-37" d="M948.31,395.47s-12-.21-18,6.29c3.44,7.36,9.2,29.9,9.2,29.9v9.92H991L995.37,392l-19,3.42h0l-7.61.8Z" transform="translate(0 -0.25)"/><circle class="cls-36" cx="958.84" cy="400.93" r="9.37"/><path class="cls-36" d="M985.05,401.19a9.37,9.37,0,1,1-9.37-9.37A9.38,9.38,0,0,1,985.05,401.19Z" transform="translate(0 -0.25)"/><circle class="cls-38" cx="919.41" cy="372.1" r="13.67" transform="translate(-32.01 91.52) rotate(-5.62)"/><path class="cls-38" d="M1025.42,369.38a13.67,13.67,0,1,1-13.67-13.67A13.67,13.67,0,0,1,1025.42,369.38Z" transform="translate(0 -0.25)"/><path class="cls-39" d="M1013.25,381.58a12.17,12.17,0,0,1-12.16,12.16H931.32a12.17,12.17,0,0,1-12.17-12.16h0a12.17,12.17,0,0,1,12.17-12.17h69.77a12.17,12.17,0,0,1,12.16,12.17Z" transform="translate(0 -0.25)"/><path class="cls-39" d="M926.33,343.5v22.62a32.33,32.33,0,0,0-5.78,11c-2,6.63,43.26,6.63,43.26,6.63V343.5Z" transform="translate(0 -0.25)"/><path class="cls-39" d="M1006.07,343.5v22.62a32.25,32.25,0,0,1,5.79,11c1.95,6.63-43.27,6.63-43.27,6.63V343.5Z" transform="translate(0 -0.25)"/><polygon class="cls-39" points="955.17 343.25 976.36 343.25 980.52 383.62 951.19 385.38 955.17 343.25"/><path class="cls-39" d="M926.42,392.7s38.11,18.31,78,.66c-.33-14.38-49.94-14-49.94-14Z" transform="translate(0 -0.25)"/><path class="cls-40" d="M911.78,348.74s.17,8.28,3.31,10.39a8.07,8.07,0,0,1,6.95,1.56,36.15,36.15,0,0,1,4.34,5.43s-.27-8.32,1.9-10.41-.81.36,3.26-5.07,6.11-2.71,10.66-.27,3.1,3,9,3.53,10,2.27,11.62,1.81,3.23.09,1.6-3.44-1.6-4.78-1.6-4.78a37.76,37.76,0,0,0,5.4,5.87c2.44,1.9,9.52,3.31,9.53,3.44s4.59-.62,7.31,0,5,2.9,5.36,1.63,1.62-2.08.43-6.7-1.36-5.5.5-4.24,1.2,6.77,3.83,8.22a19,19,0,0,1,4.82,4.17l4.4.81,1.84,5.43s3.94-10.24,8.69-9.23c5.72,1.22,5,1.54,5,1.54l1.51-11.46-36.39-8.55-37,1.36-29.84.81Z" transform="translate(0 -0.25)"/><path class="cls-41" d="M961.77,285.21s-22.06-.84-32.34,9-7.07,9.07-12.61,17.36-10.17,19.72-5.56,26.26,54.94,4.65,54.94,4.65V285.3l-3.13-.11" transform="translate(0 -0.25)"/><path class="cls-42" d="M970.22,285.21s22.06-.84,32.34,9,7.07,9.07,12.61,17.36,10,19.72,5.37,26.26-55.14,4.65-55.14,4.65V285.3l3.33-.11" transform="translate(0 -0.25)"/><path class="cls-43" d="M1026.15,342.5a6.37,6.37,0,0,1-6.58,6.18H911.78a6.37,6.37,0,0,1-6.58-6.18h0a6.37,6.37,0,0,1,6.58-6.18h107.79a6.37,6.37,0,0,1,6.58,6.18Z" transform="translate(0 -0.25)"/><rect class="cls-44" x="943.87" y="316.93" width="41.86" height="8.77" rx="4.35"/><rect class="cls-39" x="921.95" y="426.57" width="55.82" height="18.34" rx="9.1"/><path class="cls-45" d="M968.89,439.59H931.14a9.23,9.23,0,0,1-8.69-6.32,8.89,8.89,0,0,0-.5,2.79v.27a9.3,9.3,0,0,0,9.19,9.24h37.75a9.37,9.37,0,0,0,9.27-9.24v-.27a8.65,8.65,0,0,0-.55-2.79A9.28,9.28,0,0,1,968.89,439.59Z" transform="translate(0 -0.25)"/><path class="cls-39" d="M1004.3,391.8c5.85.65,10.09,5,9.45,9.75l-4.76,35.6c-.63,4.74-5.9,8.06-11.75,7.41l-.32,0c-5.86-.64-10.09-5-9.46-9.75l4.77-35.6c.63-4.73,5.89-8.05,11.75-7.41Z" transform="translate(0 -0.25)"/><path class="cls-45" d="M1007.51,400.62l-4.43,35.64a9,9,0,0,1-7.53,7.48,10.28,10.28,0,0,0,2.92.75l.28,0c5.24.54,10-2.87,10.55-7.62l4.44-35.63c.59-4.74-3.18-9-8.41-9.56l-.29,0a10.12,10.12,0,0,0-3,.13A8.51,8.51,0,0,1,1007.51,400.62Z" transform="translate(0 -0.25)"/><path class="cls-46" d="M970.69,414.24a3.14,3.14,0,1,1-3.14-3.14A3.15,3.15,0,0,1,970.69,414.24Z" transform="translate(0 -0.25)"/><path class="cls-40" d="M952.18,375a2.85,2.85,0,1,1-2.85-2.85A2.85,2.85,0,0,1,952.18,375Z" transform="translate(0 -0.25)"/><path class="cls-40" d="M983.14,375a2.85,2.85,0,1,1-2.85-2.85A2.85,2.85,0,0,1,983.14,375Z" transform="translate(0 -0.25)"/><rect class="cls-47" x="957.43" y="381.12" width="17.54" height="8.77" rx="4.35"/><path class="cls-48" d="M970.38,385.76h-8.69a4.39,4.39,0,0,1-3.76-2.21,4.48,4.48,0,0,0-.59,2.21,4.39,4.39,0,0,0,4.35,4.39h8.69a4.4,4.4,0,0,0,4.35-4.41,4.29,4.29,0,0,0-.59-2.16A4.34,4.34,0,0,1,970.38,385.76Z" transform="translate(0 -0.25)"/><path class="cls-49" d="M943.89,393.73a18.55,18.55,0,1,1,18.55-18.55A18.57,18.57,0,0,1,943.89,393.73Zm0-34.1a15.55,15.55,0,1,0,15.55,15.55A15.56,15.56,0,0,0,943.89,359.63Z" transform="translate(0 -0.25)"/><path class="cls-49" d="M988.49,393.73A18.55,18.55,0,1,1,1007,375.18,18.57,18.57,0,0,1,988.49,393.73Zm0-34.1A15.55,15.55,0,1,0,1004,375.18,15.56,15.56,0,0,0,988.49,359.63Z" transform="translate(0 -0.25)"/><path class="cls-49" d="M969.33,377.49h-6.68a2.3,2.3,0,1,1,0-4.59h6.68a2.3,2.3,0,1,1,0,4.59Z" transform="translate(0 -0.25)"/><path class="cls-48" d="M937.67,383.69a1.35,1.35,0,0,1-2.69,0,1.35,1.35,0,1,1,2.69,0Z" transform="translate(0 -0.25)"/><path class="cls-48" d="M942,379.34a1.35,1.35,0,1,1-1.35-1.34A1.35,1.35,0,0,1,942,379.34Z" transform="translate(0 -0.25)"/><path class="cls-48" d="M943.1,387a1.34,1.34,0,1,1-1.34-1.35A1.34,1.34,0,0,1,943.1,387Z" transform="translate(0 -0.25)"/><path class="cls-48" d="M993.62,380.43a1.35,1.35,0,1,1-1.35-1.35A1.34,1.34,0,0,1,993.62,380.43Z" transform="translate(0 -0.25)"/><path class="cls-48" d="M999.59,380.43a1.34,1.34,0,1,1-1.34-1.35A1.34,1.34,0,0,1,999.59,380.43Z" transform="translate(0 -0.25)"/><circle class="cls-48" cx="995.53" cy="384.52" r="1.34"/><g class="cls-50"><g class="cls-51"><g class="cls-52"><g class="cls-52"><path class="cls-9" d="M984.24,282s8.9,2.8,6.48,11.83c-2.32-.65-7.75-2.06-7.75-2.06s-4.14-1.08-4.5-2.37c.16-2.51.31-4.52.33-5.48a3.81,3.81,0,0,0-2-3.88Z" transform="translate(0 -0.25)"/><path class="cls-9" d="M976.77,280a3.81,3.81,0,0,1,2,3.88c0,1-.17,3-.33,5.48-.29,4-.67,9.31-1,13.55-.14.24-1.91,2.8-7.25,1.25-4.15-1.2-5.2-5-5.46-6.8a7.06,7.06,0,0,1-.1-1.06v-6.1c0-3.35-1-4.62-3.21-6.2a4.63,4.63,0,0,1-1.77-4.36v0H975.4a4.17,4.17,0,0,1,1.37.38m-3.95,17.64c0-.52-.75-.95-1.68-.95s-1.7.43-1.7.95.77,1,1.7,1,1.68-.43,1.68-1" transform="translate(0 -0.25)"/><path class="cls-1" d="M974.52,314.73a3.24,3.24,0,0,1-.91.35c-2.73.6-3.62-.52-3.62-.52a6.19,6.19,0,0,0-4.79-1.32h-.05a6.15,6.15,0,0,0-4.78,1.32s-.89,1.12-3.62.52a2.64,2.64,0,0,1-1.08-.47c-1.79-1.27-2.2-4.31-2.2-4.31s-.48-5.94-1-12.24l4.91-.41c0,.53.77,1,1.7,1s1.68-.43,1.68-1a.42.42,0,0,0,0-.19l4-.09c.26,1.84,1.31,5.6,5.46,6.8,5.34,1.55,7.11-1,7.25-1.25-.31,4.19-.57,7.38-.57,7.38s-.43,3.23-2.37,4.43" transform="translate(0 -0.25)"/><path class="cls-32" d="M974.52,314.73a2.25,2.25,0,0,1,.07.52c0,2-2.37,3.71-5.75,4.46a1.29,1.29,0,0,0-1.48-1,1.36,1.36,0,0,0-1.08,1.32c-.38,0-.77,0-1.17,0s-.87,0-1.27,0a1.37,1.37,0,0,0-1.08-1.32,1.27,1.27,0,0,0-1.46,1c-3.35-.74-5.7-2.44-5.7-4.43a1.18,1.18,0,0,1,.07-.64,2.64,2.64,0,0,0,1.08.47c2.73.6,3.62-.52,3.62-.52a6.15,6.15,0,0,1,4.78-1.32h.05a6.19,6.19,0,0,1,4.79,1.32s.89,1.12,3.62.52a3.24,3.24,0,0,0,.91-.35" transform="translate(0 -0.25)"/><path class="cls-1" d="M971.14,296.7c.93,0,1.68.43,1.68.95s-.75,1-1.68,1-1.7-.43-1.7-1,.77-.95,1.7-.95" transform="translate(0 -0.25)"/><path class="cls-33" d="M967.36,318.72a1.29,1.29,0,0,1,1.48,1,17.85,17.85,0,0,1-2.56.33,1.36,1.36,0,0,1,1.08-1.32" transform="translate(0 -0.25)"/><path class="cls-1" d="M951.89,289.49c-.17-2.56-.31-4.62-.33-5.6a3.74,3.74,0,0,1,2-3.86,4.1,4.1,0,0,1,1.39-.4h4.71v0a4.63,4.63,0,0,0,1.77,4.36c2.23,1.58,3.21,2.85,3.21,6.2v6.1a7.06,7.06,0,0,0,.1,1.06l-4,.09a1.74,1.74,0,0,0-1.65-.76c-.93,0-1.7.43-1.7.95l-4.91.41c-.21-3-.43-6-.62-8.57" transform="translate(0 -0.25)"/><path class="cls-33" d="M962.76,318.72a1.37,1.37,0,0,1,1.08,1.32,16.53,16.53,0,0,1-2.54-.36,1.27,1.27,0,0,1,1.46-1" transform="translate(0 -0.25)"/><path class="cls-9" d="M960.77,297.46a.42.42,0,0,1,0,.19c0,.53-.75,1-1.68,1s-1.7-.43-1.7-1,.77-.95,1.7-.95a1.74,1.74,0,0,1,1.65.76" transform="translate(0 -0.25)"/><path class="cls-9" d="M946.19,282l7.38-1.94a3.75,3.75,0,0,0-2,3.86c0,1,.16,3,.33,5.6-.55,1.25-4.43,2.25-4.43,2.25s-5.41,1.41-7.76,2.06c-2.41-9,6.49-11.83,6.49-11.83" transform="translate(0 -0.25)"/></g></g></g></g><path class="cls-53" d="M809.85,439.93V412.88a12.55,12.55,0,0,0-1.1-4,6.07,6.07,0,0,0-.59-.95c-1.43-1.86-2.46-3.1-2.46-5.81v-2.71l0-.05c.47-.2.74-.42.74-.66v3.58a7.06,7.06,0,0,0,1.34,3.37c1.11,1.23,3,4.18,3,7v28.09c0,.88-2.48,1.65-6.06,2v-1.34C807.79,441.14,809.85,440.58,809.85,439.93Z" transform="translate(0 -0.25)"/><path class="cls-54" d="M809.85,412.88v27.05c0,.65-2.06,1.21-5.1,1.49V414.7a17,17,0,0,0-.42-4.08c2.56-.3,4.29-.84,4.29-1.46a.41.41,0,0,0,0-.18l.18-.08A12.55,12.55,0,0,1,809.85,412.88Z" transform="translate(0 -0.25)"/><path class="cls-55" d="M808.75,408.9l-.18.08c-.34-.65-2.58-1.19-5.61-1.41a10.3,10.3,0,0,0-1.58-1.65,3.45,3.45,0,0,1-1-1.49h.5c2.19-.07,3.87-.5,3.87-1l.56-3.91.34-.12,0,.05v2.71c0,2.71,1,3.95,2.46,5.81A6.07,6.07,0,0,1,808.75,408.9Z" transform="translate(0 -0.25)"/><path class="cls-56" d="M808.57,409a.41.41,0,0,1,0,.18c0,.62-1.73,1.16-4.29,1.46a8.29,8.29,0,0,0-1.37-3.05C806,407.79,808.23,408.33,808.57,409Z" transform="translate(0 -0.25)"/><path class="cls-57" d="M805.44,398.86l.12-.85c.54.21.86.45.86.71s-.27.46-.74.66l-.34.12a15.77,15.77,0,0,1-4,.59l.06-.65A16.75,16.75,0,0,0,805.44,398.86Z" transform="translate(0 -0.25)"/><path class="cls-58" d="M806,395.06l-.42,2.95-.12.85a16.75,16.75,0,0,1-4.07.58l.31-3.29c2.28-.14,4-.58,4.27-1.11Z" transform="translate(0 -0.25)"/><path class="cls-24" d="M806,394.89a.4.4,0,0,1,0,.15c-.27.53-2,1-4.27,1.11-.48,0-1,0-1.5,0-3.09,0-5.61-.54-5.79-1.22v-.08c0-.71,2.6-1.29,5.8-1.29S806,394.18,806,394.89Z" transform="translate(0 -0.25)"/><path class="cls-59" d="M805.34,399.5l-.56,3.91c0,.51-1.68.94-3.87,1l.4-4.33A15.77,15.77,0,0,0,805.34,399.5Z" transform="translate(0 -0.25)"/><path class="cls-53" d="M804.75,441.42v1.34h0c-1.38.13-2.93.21-4.57.21-5.87,0-10.63-1-10.63-2.22V412.33c0-2.81,1.94-5.77,3-7a7.1,7.1,0,0,0,1.35-3.36v-3.25c0,.24.27.46.74.66V402c0,2.7-1,3.95-2.46,5.81a6.06,6.06,0,0,0-.72,1.2,12.79,12.79,0,0,0-1,3.72v27.23c0,.94,4.32,1.69,9.66,1.69C801.84,441.62,803.39,441.55,804.75,441.42Z" transform="translate(0 -0.25)"/><path class="cls-60" d="M804.75,414.7v26.72c-1.36.13-2.91.2-4.56.2-5.34,0-9.66-.75-9.66-1.69V412.7a12.79,12.79,0,0,1,1-3.72.39.39,0,0,0,0,.18c0,.93,3.84,1.68,8.58,1.68a39.56,39.56,0,0,0,4.29-.22A17,17,0,0,1,804.75,414.7Z" transform="translate(0 -0.25)"/><path class="cls-61" d="M803,407.57a8.29,8.29,0,0,1,1.37,3.05,39.56,39.56,0,0,1-4.29.22c-4.74,0-8.58-.75-8.58-1.68a.39.39,0,0,1,0-.18c.44-.84,4.1-1.51,8.54-1.51C801.06,407.47,802.05,407.51,803,407.57Z" transform="translate(0 -0.25)"/><path class="cls-62" d="M801.68,396.15l-.31,3.29-1.06,0a17.14,17.14,0,0,1-5.35-.68l-.12-.78-.45-3c.18.68,2.7,1.22,5.79,1.22C800.7,396.19,801.2,396.17,801.68,396.15Z" transform="translate(0 -0.25)"/><path class="cls-63" d="M801.38,405.92a10.3,10.3,0,0,1,1.58,1.65c-.91-.06-1.9-.1-2.92-.1-4.44,0-8.1.67-8.54,1.51a6.06,6.06,0,0,1,.72-1.2c1.42-1.86,2.46-3.11,2.46-5.81v-2.59l.39.14h0l.58,3.89c0,.56,2,1,4.56,1h.2A3.45,3.45,0,0,0,801.38,405.92Z" transform="translate(0 -0.25)"/><path class="cls-57" d="M795,398.78a17.14,17.14,0,0,0,5.35.68l1.06,0-.06.65c-.37,0-.75,0-1.13,0a18.46,18.46,0,0,1-5.11-.59h0l-.39-.14c-.47-.2-.74-.42-.74-.66s.33-.51.9-.72Z" transform="translate(0 -0.25)"/><path class="cls-64" d="M801.31,400.09l-.4,4.33h-.5a9.72,9.72,0,0,1-.23-4.32C800.56,400.11,800.94,400.11,801.31,400.09Z" transform="translate(0 -0.25)"/><path class="cls-65" d="M800.41,404.43h-.2c-2.52,0-4.56-.46-4.56-1l-.58-3.89a18.46,18.46,0,0,0,5.11.59A9.72,9.72,0,0,0,800.41,404.43Z" transform="translate(0 -0.25)"/><path class="cls-9" d="M805.7,418.28a2.79,2.79,0,0,1,1.88,3.43l-2.25-.6s-1.2-.31-1.3-.68c0-.73.09-1.32.09-1.6a1.11,1.11,0,0,0-.57-1.11Z" transform="translate(0 -0.25)"/><path class="cls-9" d="M803.55,417.72a1.11,1.11,0,0,1,.57,1.11c0,.28,0,.87-.09,1.6-.09,1.16-.2,2.69-.3,3.93,0,0-.47.84-2.1.36a2.24,2.24,0,0,1-1.58-2,2.07,2.07,0,0,1,0-.32v-1.76a1.82,1.82,0,0,0-.94-1.8,1.36,1.36,0,0,1-.51-1.27h4.57a1.06,1.06,0,0,1,.39.12Zm-1.16,5.11c0-.15-.23-.28-.5-.28s-.48.13-.48.28.21.28.48.28S802.39,423,802.39,422.83Z" transform="translate(0 -0.25)"/><path class="cls-61" d="M802.88,427.78a1.19,1.19,0,0,1-.26.11c-.8.17-1-.16-1-.16a1.84,1.84,0,0,0-1.39-.38h0a1.81,1.81,0,0,0-1.39.38s-.25.33-1,.16a.84.84,0,0,1-.32-.14,2.1,2.1,0,0,1-.64-1.25s-.14-1.72-.28-3.55l1.43-.12c0,.15.22.28.49.28s.49-.13.49-.28a.13.13,0,0,0,0-.06h1.16a2.24,2.24,0,0,0,1.58,2c1.63.48,2.1-.36,2.1-.36l-.16,2.14A2,2,0,0,1,802.88,427.78Z" transform="translate(0 -0.25)"/><path class="cls-32" d="M802.88,427.78a.88.88,0,0,1,0,.16c0,.58-.69,1.07-1.67,1.28a.37.37,0,0,0-.43-.27.38.38,0,0,0-.31.37l-.35,0-.36,0a.38.38,0,0,0-.31-.37.35.35,0,0,0-.42.27c-1-.22-1.66-.71-1.66-1.28a.4.4,0,0,1,0-.19.84.84,0,0,0,.32.14c.79.17,1-.16,1-.16a1.81,1.81,0,0,1,1.39-.38h0a1.84,1.84,0,0,1,1.39.38s.25.33,1,.16A1.19,1.19,0,0,0,802.88,427.78Z" transform="translate(0 -0.25)"/><path class="cls-61" d="M801.89,422.55c.27,0,.5.13.5.28s-.23.28-.5.28-.48-.13-.48-.28S801.62,422.55,801.89,422.55Z" transform="translate(0 -0.25)"/><path class="cls-33" d="M800.8,429a.37.37,0,0,1,.43.27,4.26,4.26,0,0,1-.74.1A.38.38,0,0,1,800.8,429Z" transform="translate(0 -0.25)"/><path class="cls-61" d="M796.76,417.73a1.18,1.18,0,0,1,.44-.13h1.37a1.36,1.36,0,0,0,.51,1.27,1.82,1.82,0,0,1,.94,1.8v1.76a2.07,2.07,0,0,0,0,.32h-1.16a.53.53,0,0,0-.48-.22c-.27,0-.49.13-.49.28l-1.43.12c-.06-.85-.13-1.73-.17-2.46s-.1-1.37-.11-1.66A1.11,1.11,0,0,1,796.76,417.73Z" transform="translate(0 -0.25)"/><path class="cls-33" d="M799.47,429a.38.38,0,0,1,.31.37,4.15,4.15,0,0,1-.73-.1A.35.35,0,0,1,799.47,429Z" transform="translate(0 -0.25)"/><path class="cls-9" d="M798.89,422.77a.13.13,0,0,1,0,.06c0,.15-.22.28-.49.28s-.49-.13-.49-.28.22-.28.49-.28A.53.53,0,0,1,798.89,422.77Z" transform="translate(0 -0.25)"/><path class="cls-9" d="M794.66,418.28l2.1-.55a1.11,1.11,0,0,0-.55,1.1c0,.29,0,.9.11,1.66-.22.34-1.29.62-1.29.62s-1.58.41-2.25.6A2.79,2.79,0,0,1,794.66,418.28Z" transform="translate(0 -0.25)"/><path class="cls-53" d="M833.18,439.9v-27a12.25,12.25,0,0,0-1.1-4,5.4,5.4,0,0,0-.59-.95c-1.42-1.86-2.45-3.1-2.45-5.81V399.4l0,0c.47-.2.74-.42.74-.66v3.58a7.12,7.12,0,0,0,1.35,3.37c1.1,1.23,3,4.18,3,7v28.09c0,.88-2.48,1.65-6.07,2v-1.35C831.12,441.1,833.18,440.55,833.18,439.9Z" transform="translate(0 -0.25)"/><path class="cls-54" d="M833.18,412.85v27c0,.65-2.06,1.2-5.1,1.49V414.67a17.16,17.16,0,0,0-.41-4.08c2.56-.29,4.28-.84,4.28-1.46a.34.34,0,0,0-.05-.17l.18-.09A12.25,12.25,0,0,1,833.18,412.85Z" transform="translate(0 -0.25)"/><path class="cls-55" d="M832.08,408.87l-.18.09c-.33-.66-2.57-1.2-5.61-1.42a9.5,9.5,0,0,0-1.58-1.65,3.58,3.58,0,0,1-1-1.49h.5c2.19-.07,3.88-.5,3.88-1l.56-3.91.33-.12,0,0v2.71c0,2.71,1,3.95,2.45,5.81A5.4,5.4,0,0,1,832.08,408.87Z" transform="translate(0 -0.25)"/><path class="cls-56" d="M831.9,409a.34.34,0,0,1,.05.17c0,.62-1.72,1.17-4.28,1.46a8.29,8.29,0,0,0-1.38-3C829.33,407.76,831.57,408.3,831.9,409Z" transform="translate(0 -0.25)"/><path class="cls-57" d="M828.77,398.83l.12-.85c.55.21.86.45.86.71s-.27.46-.74.66l-.33.12a16.25,16.25,0,0,1-4,.59l.06-.65A16.67,16.67,0,0,0,828.77,398.83Z" transform="translate(0 -0.25)"/><path class="cls-58" d="M829.32,395l-.43,3-.12.85a16.67,16.67,0,0,1-4.07.58l.31-3.29c2.28-.14,4-.58,4.27-1.11Z" transform="translate(0 -0.25)"/><path class="cls-24" d="M825,396.12c-.48,0-1,0-1.5,0-3.09,0-5.61-.54-5.79-1.22v-.07c0-.72,2.6-1.3,5.8-1.3s5.81.58,5.81,1.3a.27.27,0,0,1,0,.14C829,395.54,827.29,396,825,396.12Z" transform="translate(0 -0.25)"/><path class="cls-59" d="M828.68,399.47l-.56,3.91c0,.51-1.69.94-3.88,1l.4-4.33A16.25,16.25,0,0,0,828.68,399.47Z" transform="translate(0 -0.25)"/><path class="cls-53" d="M828.08,441.39v1.35h0c-1.38.14-2.93.21-4.57.21-5.87,0-10.63-1-10.63-2.22V412.31c0-2.83,1.94-5.77,3-7a7,7,0,0,0,1.34-3.36v-3.25c0,.24.27.46.74.66v2.59c0,2.7-1,3.95-2.46,5.8a6.32,6.32,0,0,0-.74,1.26,12.94,12.94,0,0,0-.95,3.67V439.9c0,.93,4.33,1.69,9.66,1.69C825.17,441.59,826.73,441.52,828.08,441.39Z" transform="translate(0 -0.25)"/><path class="cls-60" d="M828.08,414.67v26.72c-1.35.13-2.91.2-4.56.2-5.33,0-9.66-.76-9.66-1.69V412.67a12.94,12.94,0,0,1,.95-3.67h0a.31.31,0,0,0,0,.13c0,.93,3.84,1.69,8.58,1.69a39.74,39.74,0,0,0,4.3-.23A17.16,17.16,0,0,1,828.08,414.67Z" transform="translate(0 -0.25)"/><path class="cls-61" d="M826.29,407.54a8.29,8.29,0,0,1,1.38,3,39.74,39.74,0,0,1-4.3.23c-4.74,0-8.58-.76-8.58-1.69a.31.31,0,0,1,0-.13c.34-.87,4-1.56,8.55-1.56C824.39,407.44,825.38,407.48,826.29,407.54Z" transform="translate(0 -0.25)"/><path class="cls-62" d="M825,396.12l-.31,3.29-1.05,0a17.47,17.47,0,0,1-5.36-.68l-.12-.78-.45-3c.18.68,2.7,1.22,5.79,1.22C824,396.16,824.53,396.15,825,396.12Z" transform="translate(0 -0.25)"/><path class="cls-63" d="M824.71,405.89a9.5,9.5,0,0,1,1.58,1.65c-.91-.06-1.9-.1-2.92-.1-4.51,0-8.21.69-8.55,1.56h0a6.32,6.32,0,0,1,.74-1.26c1.42-1.85,2.46-3.1,2.46-5.8v-2.59l.39.14.58,3.89c0,.56,2,1,4.57,1h.19A3.58,3.58,0,0,0,824.71,405.89Z" transform="translate(0 -0.25)"/><path class="cls-57" d="M818,399.35c-.47-.2-.74-.42-.74-.66s.33-.51.9-.72h0l.12.78a17.47,17.47,0,0,0,5.36.68l1.05,0-.06.65c-.36,0-.74,0-1.13,0a18.51,18.51,0,0,1-5.11-.59Z" transform="translate(0 -0.25)"/><path class="cls-64" d="M824.64,400.06l-.4,4.33h-.5a9.72,9.72,0,0,1-.23-4.32C823.9,400.08,824.28,400.08,824.64,400.06Z" transform="translate(0 -0.25)"/><path class="cls-65" d="M823.74,404.4h-.19c-2.53,0-4.57-.46-4.57-1l-.58-3.89a18.51,18.51,0,0,0,5.11.59A9.72,9.72,0,0,0,823.74,404.4Z" transform="translate(0 -0.25)"/><path class="cls-9" d="M829,418.25a2.78,2.78,0,0,1,1.87,3.43l-2.25-.6s-1.2-.3-1.3-.69c0-.72.09-1.31.09-1.59a1.11,1.11,0,0,0-.57-1.11Z" transform="translate(0 -0.25)"/><path class="cls-9" d="M826.88,417.69a1.11,1.11,0,0,1,.57,1.11c0,.28-.05.87-.09,1.59-.08,1.17-.19,2.71-.29,3.94,0,0-.49.84-2.1.36a2.26,2.26,0,0,1-1.59-2,1.92,1.92,0,0,1,0-.3v-1.77a1.83,1.83,0,0,0-.93-1.79,1.35,1.35,0,0,1-.52-1.27h4.57a1.06,1.06,0,0,1,.39.12Zm-1.16,5.12c0-.16-.22-.28-.49-.28s-.49.12-.49.28.22.27.49.27S825.72,423,825.72,422.81Z" transform="translate(0 -0.25)"/><path class="cls-61" d="M826.21,427.74a.88.88,0,0,1-.26.12c-.8.18-1.05-.16-1.05-.16a1.81,1.81,0,0,0-1.39-.37h0a1.81,1.81,0,0,0-1.39.37s-.25.34-1,.16a1,1,0,0,1-.31-.14,2.07,2.07,0,0,1-.65-1.25s-.14-1.71-.27-3.55l1.42-.11c0,.15.22.27.49.27s.49-.12.49-.27,0-.05,0-.06l1.16,0a2.26,2.26,0,0,0,1.59,2c1.61.48,2.1-.36,2.1-.36-.1,1.21-.17,2.14-.17,2.14A2,2,0,0,1,826.21,427.74Z" transform="translate(0 -0.25)"/><path class="cls-32" d="M826.21,427.74a1.11,1.11,0,0,1,0,.17c0,.58-.69,1.07-1.67,1.29a.37.37,0,0,0-.43-.28.38.38,0,0,0-.31.37l-.34,0-.37,0a.37.37,0,0,0-.31-.37.36.36,0,0,0-.42.27c-1-.22-1.65-.71-1.65-1.28,0-.1,0-.1,0-.19h0a1,1,0,0,0,.31.14c.79.18,1-.16,1-.16a1.81,1.81,0,0,1,1.39-.37h0a1.81,1.81,0,0,1,1.39.37s.25.34,1.05.16A.88.88,0,0,0,826.21,427.74Z" transform="translate(0 -0.25)"/><path class="cls-61" d="M825.23,422.53c.27,0,.49.12.49.28s-.22.27-.49.27-.49-.12-.49-.27S825,422.53,825.23,422.53Z" transform="translate(0 -0.25)"/><path class="cls-33" d="M824.13,428.92a.37.37,0,0,1,.43.28,5.55,5.55,0,0,1-.74.09A.38.38,0,0,1,824.13,428.92Z" transform="translate(0 -0.25)"/><path class="cls-61" d="M820.1,417.7a1.15,1.15,0,0,1,.43-.13h1.37a1.35,1.35,0,0,0,.52,1.27,1.83,1.83,0,0,1,.93,1.79v1.77a1.92,1.92,0,0,0,0,.3l-1.16,0a.5.5,0,0,0-.48-.22c-.27,0-.49.12-.49.28l-1.42.11c-.07-.86-.13-1.75-.18-2.49s-.1-1.34-.1-1.63A1.11,1.11,0,0,1,820.1,417.7Z" transform="translate(0 -0.25)"/><path class="cls-33" d="M822.8,428.92a.37.37,0,0,1,.31.37,4,4,0,0,1-.73-.1A.36.36,0,0,1,822.8,428.92Z" transform="translate(0 -0.25)"/><path class="cls-9" d="M822.22,422.75s0,0,0,.06-.22.27-.49.27-.49-.12-.49-.27.22-.28.49-.28A.5.5,0,0,1,822.22,422.75Z" transform="translate(0 -0.25)"/><path class="cls-9" d="M818,418.25l2.11-.55a1.11,1.11,0,0,0-.55,1.1c0,.29.05.89.1,1.63-.16.37-1.29.65-1.29.65l-2.25.6A2.79,2.79,0,0,1,818,418.25Z" transform="translate(0 -0.25)"/><path class="cls-53" d="M856.43,440.27V413.21a12.25,12.25,0,0,0-1.1-4,5.36,5.36,0,0,0-.58-1c-1.43-1.86-2.47-3.1-2.47-5.81v-2.7l0-.06c.47-.2.74-.42.74-.66v3.58a7.12,7.12,0,0,0,1.35,3.37c1.1,1.23,3,4.18,3,7v28.09c0,.88-2.48,1.65-6.07,2v-1.34C854.37,441.47,856.43,440.91,856.43,440.27Z" transform="translate(0 -0.25)"/><path class="cls-54" d="M856.43,413.21v27.06c0,.64-2.06,1.2-5.1,1.48V415a17.11,17.11,0,0,0-.42-4.08c2.57-.29,4.29-.84,4.29-1.46a.58.58,0,0,0,0-.18l.17-.08A12.25,12.25,0,0,1,856.43,413.21Z" transform="translate(0 -0.25)"/><path class="cls-55" d="M855.33,409.23l-.17.08c-.34-.65-2.58-1.19-5.62-1.41a9.88,9.88,0,0,0-1.58-1.65,3.48,3.48,0,0,1-1-1.49h.5c2.2-.07,3.88-.5,3.88-1l.56-3.91.33-.12,0,.06v2.7c0,2.71,1,3.95,2.47,5.81A5.36,5.36,0,0,1,855.33,409.23Z" transform="translate(0 -0.25)"/><path class="cls-56" d="M855.16,409.31a.58.58,0,0,1,0,.18c0,.62-1.72,1.17-4.29,1.46a8.29,8.29,0,0,0-1.37-3.05C852.58,408.12,854.82,408.66,855.16,409.31Z" transform="translate(0 -0.25)"/><path class="cls-57" d="M852,399.19l.12-.85c.55.21.86.45.86.71s-.27.46-.74.66l-.33.12a15.79,15.79,0,0,1-4,.59l.06-.65A16.67,16.67,0,0,0,852,399.19Z" transform="translate(0 -0.25)"/><path class="cls-58" d="M852.56,395.39l-.42,2.95-.12.85a16.67,16.67,0,0,1-4.07.58l.31-3.29c2.28-.14,4-.58,4.27-1.11Z" transform="translate(0 -0.25)"/><path class="cls-24" d="M852.56,395.22a.4.4,0,0,1,0,.15c-.26.53-2,1-4.27,1.11-.48,0-1,0-1.5,0-3.09,0-5.61-.54-5.79-1.22v-.08c0-.71,2.6-1.29,5.8-1.29S852.56,394.51,852.56,395.22Z" transform="translate(0 -0.25)"/><path class="cls-59" d="M851.93,399.83l-.56,3.91c0,.51-1.68.94-3.88,1l.4-4.33A15.79,15.79,0,0,0,851.93,399.83Z" transform="translate(0 -0.25)"/><path class="cls-53" d="M851.33,441.75v1.34h0c-1.38.13-2.93.21-4.57.21-5.87,0-10.63-1-10.63-2.22V412.67c0-2.82,1.94-5.77,3-7a7.1,7.1,0,0,0,1.35-3.36v-3.25c0,.24.26.46.73.66v2.59c0,2.7-1,3.95-2.46,5.81a6,6,0,0,0-.71,1.2,12.62,12.62,0,0,0-1,3.72v27.24c0,.93,4.33,1.68,9.66,1.68C848.42,442,850,441.88,851.33,441.75Z" transform="translate(0 -0.25)"/><path class="cls-60" d="M851.33,415v26.72c-1.36.13-2.91.2-4.56.2-5.33,0-9.66-.75-9.66-1.68V413a12.62,12.62,0,0,1,1-3.72.41.41,0,0,0-.05.18c0,.93,3.84,1.68,8.58,1.68a39.56,39.56,0,0,0,4.29-.22A17.11,17.11,0,0,1,851.33,415Z" transform="translate(0 -0.25)"/><path class="cls-61" d="M849.54,407.9a8.29,8.29,0,0,1,1.37,3.05,39.56,39.56,0,0,1-4.29.22c-4.74,0-8.58-.75-8.58-1.68a.41.41,0,0,1,.05-.18c.43-.84,4.09-1.51,8.53-1.51C847.64,407.8,848.63,407.84,849.54,407.9Z" transform="translate(0 -0.25)"/><path class="cls-62" d="M848.26,396.48l-.31,3.29-1.05,0a17.17,17.17,0,0,1-5.36-.68h0l-.12-.78-.45-3c.18.68,2.7,1.22,5.79,1.22C847.28,396.52,847.78,396.51,848.26,396.48Z" transform="translate(0 -0.25)"/><path class="cls-63" d="M848,406.25a9.88,9.88,0,0,1,1.58,1.65c-.91-.06-1.9-.1-2.92-.1-4.44,0-8.1.67-8.53,1.51a6,6,0,0,1,.71-1.2c1.42-1.86,2.46-3.11,2.46-5.81v-2.59l.39.14.58,3.89c0,.56,2,1,4.57,1H847A3.48,3.48,0,0,0,848,406.25Z" transform="translate(0 -0.25)"/><path class="cls-57" d="M841.54,399.11a17.17,17.17,0,0,0,5.36.68l1.05,0-.06.65c-.36,0-.74,0-1.13,0a18.45,18.45,0,0,1-5.11-.6l-.39-.14c-.47-.2-.73-.42-.73-.66s.32-.51.89-.72l.12.78Z" transform="translate(0 -0.25)"/><path class="cls-64" d="M847.89,400.42l-.4,4.33H847a9.67,9.67,0,0,1-.23-4.31C847.15,400.45,847.53,400.44,847.89,400.42Z" transform="translate(0 -0.25)"/><path class="cls-65" d="M847,404.76h-.19c-2.52,0-4.57-.46-4.57-1l-.58-3.89a18.45,18.45,0,0,0,5.11.6A9.67,9.67,0,0,0,847,404.76Z" transform="translate(0 -0.25)"/><path class="cls-9" d="M852.28,418.61a2.8,2.8,0,0,1,1.89,3.43l-2.25-.6s-1.21-.31-1.31-.68c0-.73.09-1.32.1-1.59a1.1,1.1,0,0,0-.58-1.12Z" transform="translate(0 -0.25)"/><path class="cls-9" d="M850.13,418.05a1.1,1.1,0,0,1,.58,1.12c0,.27-.05.86-.1,1.59-.08,1.16-.19,2.69-.29,3.93,0,0-.48.84-2.11.37a2.28,2.28,0,0,1-1.58-2,2.07,2.07,0,0,1,0-.32V421a1.82,1.82,0,0,0-.94-1.8,1.38,1.38,0,0,1-.51-1.27h4.57a1.08,1.08,0,0,1,.4.12ZM849,423.16c0-.15-.22-.28-.49-.28s-.49.13-.49.28.22.28.49.28S849,423.31,849,423.16Z" transform="translate(0 -0.25)"/><path class="cls-61" d="M849.46,428.11a.81.81,0,0,1-.27.11c-.79.17-1.05-.16-1.05-.16a1.78,1.78,0,0,0-1.38-.38h0a1.78,1.78,0,0,0-1.38.38s-.26.33-1.05.16a.8.8,0,0,1-.31-.14,2.07,2.07,0,0,1-.65-1.25s-.14-1.72-.28-3.55l1.43-.12c0,.15.22.28.49.28s.49-.13.49-.28v-.06h1.15a2.28,2.28,0,0,0,1.58,2c1.63.47,2.11-.37,2.11-.37-.1,1.21-.17,2.14-.17,2.14A2,2,0,0,1,849.46,428.11Z" transform="translate(0 -0.25)"/><path class="cls-32" d="M849.46,428.11a.45.45,0,0,1,0,.16c0,.58-.69,1.07-1.68,1.29a.36.36,0,0,0-.42-.28.38.38,0,0,0-.32.37l-.34,0-.36,0a.38.38,0,0,0-.32-.37.35.35,0,0,0-.42.27c-1-.22-1.65-.71-1.65-1.28,0-.1,0-.1,0-.19a.8.8,0,0,0,.31.14c.79.17,1.05-.16,1.05-.16a1.78,1.78,0,0,1,1.38-.38h0a1.78,1.78,0,0,1,1.38.38s.26.33,1.05.16A.81.81,0,0,0,849.46,428.11Z" transform="translate(0 -0.25)"/><path class="cls-61" d="M848.48,422.88c.27,0,.49.13.49.28s-.22.28-.49.28-.49-.13-.49-.28S848.21,422.88,848.48,422.88Z" transform="translate(0 -0.25)"/><path class="cls-33" d="M847.39,429.28a.36.36,0,0,1,.42.28,4.28,4.28,0,0,1-.74.09A.38.38,0,0,1,847.39,429.28Z" transform="translate(0 -0.25)"/><path class="cls-61" d="M843.34,418.06a1.18,1.18,0,0,1,.44-.13h1.37a1.38,1.38,0,0,0,.51,1.27,1.82,1.82,0,0,1,.94,1.8v1.76a2.07,2.07,0,0,0,0,.32h-1.15a.54.54,0,0,0-.49-.22c-.27,0-.49.13-.49.28l-1.43.12c-.06-.86-.12-1.75-.18-2.49s-.09-1.34-.09-1.62A1.11,1.11,0,0,1,843.34,418.06Z" transform="translate(0 -0.25)"/><path class="cls-33" d="M846.05,429.28a.38.38,0,0,1,.32.37,3.48,3.48,0,0,1-.74-.1A.35.35,0,0,1,846.05,429.28Z" transform="translate(0 -0.25)"/><path class="cls-9" d="M845.48,423.1v.06c0,.15-.22.28-.49.28s-.49-.13-.49-.28.22-.28.49-.28A.54.54,0,0,1,845.48,423.1Z" transform="translate(0 -0.25)"/><path class="cls-9" d="M841.24,418.61l2.1-.55a1.11,1.11,0,0,0-.54,1.11c0,.28,0,.88.09,1.62-.16.36-1.27.65-1.27.65l-2.26.6A2.79,2.79,0,0,1,841.24,418.61Z" transform="translate(0 -0.25)"/><path class="cls-53" d="M879.43,440.27V413.21a12.25,12.25,0,0,0-1.1-4,5.36,5.36,0,0,0-.58-1c-1.43-1.86-2.47-3.1-2.47-5.81v-2.7l0-.06c.47-.2.74-.42.74-.66v3.58a7.12,7.12,0,0,0,1.35,3.37c1.1,1.23,3,4.18,3,7v28.09c0,.88-2.48,1.65-6.07,2v-1.34C877.37,441.47,879.43,440.91,879.43,440.27Z" transform="translate(0 -0.25)"/><path class="cls-54" d="M879.43,413.21v27.06c0,.64-2.06,1.2-5.1,1.48V415a17.11,17.11,0,0,0-.42-4.08c2.57-.29,4.29-.84,4.29-1.46a.58.58,0,0,0,0-.18l.17-.08A12.25,12.25,0,0,1,879.43,413.21Z" transform="translate(0 -0.25)"/><path class="cls-55" d="M878.33,409.23l-.17.08c-.34-.65-2.58-1.19-5.62-1.41a9.88,9.88,0,0,0-1.58-1.65,3.48,3.48,0,0,1-1-1.49h.5c2.2-.07,3.88-.5,3.88-1l.56-3.91.33-.12,0,.06v2.7c0,2.71,1,3.95,2.47,5.81A5.36,5.36,0,0,1,878.33,409.23Z" transform="translate(0 -0.25)"/><path class="cls-56" d="M878.16,409.31a.58.58,0,0,1,0,.18c0,.62-1.72,1.17-4.29,1.46a8.29,8.29,0,0,0-1.37-3.05C875.58,408.12,877.82,408.66,878.16,409.31Z" transform="translate(0 -0.25)"/><path class="cls-57" d="M875,399.19l.12-.85c.55.21.86.45.86.71s-.27.46-.74.66l-.33.12a15.79,15.79,0,0,1-4,.59l.06-.65A16.67,16.67,0,0,0,875,399.19Z" transform="translate(0 -0.25)"/><path class="cls-58" d="M875.56,395.39l-.42,2.95-.12.85a16.67,16.67,0,0,1-4.07.58l.31-3.29c2.28-.14,4-.58,4.27-1.11Z" transform="translate(0 -0.25)"/><path class="cls-24" d="M875.56,395.22a.4.4,0,0,1,0,.15c-.26.53-2,1-4.27,1.11-.48,0-1,0-1.5,0-3.09,0-5.61-.54-5.79-1.22v-.08c0-.71,2.6-1.29,5.8-1.29S875.56,394.51,875.56,395.22Z" transform="translate(0 -0.25)"/><path class="cls-59" d="M874.93,399.83l-.56,3.91c0,.51-1.68.94-3.88,1l.4-4.33A15.79,15.79,0,0,0,874.93,399.83Z" transform="translate(0 -0.25)"/><path class="cls-53" d="M874.33,441.75v1.34h0c-1.38.13-2.93.21-4.57.21-5.87,0-10.63-1-10.63-2.22V412.67c0-2.82,1.94-5.77,3-7a7.1,7.1,0,0,0,1.35-3.36v-3.25c0,.24.26.46.73.66v2.59c0,2.7-1,3.95-2.46,5.81a6,6,0,0,0-.71,1.2,12.62,12.62,0,0,0-1,3.72v27.24c0,.93,4.33,1.68,9.66,1.68C871.42,442,873,441.88,874.33,441.75Z" transform="translate(0 -0.25)"/><path class="cls-60" d="M874.33,415v26.72c-1.36.13-2.91.2-4.56.2-5.33,0-9.66-.75-9.66-1.68V413a12.62,12.62,0,0,1,1-3.72.41.41,0,0,0-.05.18c0,.93,3.84,1.68,8.58,1.68a39.56,39.56,0,0,0,4.29-.22A17.11,17.11,0,0,1,874.33,415Z" transform="translate(0 -0.25)"/><path class="cls-61" d="M872.54,407.9a8.29,8.29,0,0,1,1.37,3.05,39.56,39.56,0,0,1-4.29.22c-4.74,0-8.58-.75-8.58-1.68a.41.41,0,0,1,.05-.18c.43-.84,4.09-1.51,8.53-1.51C870.64,407.8,871.63,407.84,872.54,407.9Z" transform="translate(0 -0.25)"/><path class="cls-62" d="M871.26,396.48l-.31,3.29-1.05,0a17.17,17.17,0,0,1-5.36-.68h0l-.12-.78-.45-3c.18.68,2.7,1.22,5.79,1.22C870.28,396.52,870.78,396.51,871.26,396.48Z" transform="translate(0 -0.25)"/><path class="cls-63" d="M871,406.25a9.88,9.88,0,0,1,1.58,1.65c-.91-.06-1.9-.1-2.92-.1-4.44,0-8.1.67-8.53,1.51a6,6,0,0,1,.71-1.2c1.42-1.86,2.46-3.11,2.46-5.81v-2.59l.39.14.58,3.89c0,.56,2,1,4.57,1H870A3.48,3.48,0,0,0,871,406.25Z" transform="translate(0 -0.25)"/><path class="cls-57" d="M864.54,399.11a17.17,17.17,0,0,0,5.36.68l1.05,0-.06.65c-.36,0-.74,0-1.13,0a18.45,18.45,0,0,1-5.11-.6l-.39-.14c-.47-.2-.73-.42-.73-.66s.32-.51.89-.72l.12.78Z" transform="translate(0 -0.25)"/><path class="cls-64" d="M870.89,400.42l-.4,4.33H870a9.67,9.67,0,0,1-.23-4.31C870.15,400.45,870.53,400.44,870.89,400.42Z" transform="translate(0 -0.25)"/><path class="cls-65" d="M870,404.76h-.19c-2.52,0-4.57-.46-4.57-1l-.58-3.89a18.45,18.45,0,0,0,5.11.6A9.67,9.67,0,0,0,870,404.76Z" transform="translate(0 -0.25)"/><path class="cls-9" d="M875.28,418.61a2.8,2.8,0,0,1,1.89,3.43l-2.25-.6s-1.21-.31-1.31-.68c0-.73.09-1.32.1-1.59a1.1,1.1,0,0,0-.58-1.12Z" transform="translate(0 -0.25)"/><path class="cls-9" d="M873.13,418.05a1.1,1.1,0,0,1,.58,1.12c0,.27-.05.86-.1,1.59-.08,1.16-.19,2.69-.29,3.93,0,0-.48.84-2.11.37a2.28,2.28,0,0,1-1.58-2,2.07,2.07,0,0,1,0-.32V421a1.82,1.82,0,0,0-.94-1.8,1.38,1.38,0,0,1-.51-1.27h4.57a1.08,1.08,0,0,1,.4.12ZM872,423.16c0-.15-.22-.28-.49-.28s-.49.13-.49.28.22.28.49.28S872,423.31,872,423.16Z" transform="translate(0 -0.25)"/><path class="cls-61" d="M872.46,428.11a.81.81,0,0,1-.27.11c-.79.17-1.05-.16-1.05-.16a1.78,1.78,0,0,0-1.38-.38h0a1.78,1.78,0,0,0-1.38.38s-.26.33-1.05.16a.8.8,0,0,1-.31-.14,2.07,2.07,0,0,1-.65-1.25s-.14-1.72-.28-3.55l1.43-.12c0,.15.22.28.49.28s.49-.13.49-.28v-.06h1.15a2.28,2.28,0,0,0,1.58,2c1.63.47,2.11-.37,2.11-.37-.1,1.21-.17,2.14-.17,2.14A2,2,0,0,1,872.46,428.11Z" transform="translate(0 -0.25)"/><path class="cls-32" d="M872.46,428.11a.45.45,0,0,1,0,.16c0,.58-.69,1.07-1.68,1.29a.36.36,0,0,0-.42-.28.38.38,0,0,0-.32.37l-.34,0-.36,0a.38.38,0,0,0-.32-.37.35.35,0,0,0-.42.27c-1-.22-1.65-.71-1.65-1.28,0-.1,0-.1,0-.19a.8.8,0,0,0,.31.14c.79.17,1.05-.16,1.05-.16a1.78,1.78,0,0,1,1.38-.38h0a1.78,1.78,0,0,1,1.38.38s.26.33,1.05.16A.81.81,0,0,0,872.46,428.11Z" transform="translate(0 -0.25)"/><path class="cls-61" d="M871.48,422.88c.27,0,.49.13.49.28s-.22.28-.49.28-.49-.13-.49-.28S871.21,422.88,871.48,422.88Z" transform="translate(0 -0.25)"/><path class="cls-33" d="M870.39,429.28a.36.36,0,0,1,.42.28,4.28,4.28,0,0,1-.74.09A.38.38,0,0,1,870.39,429.28Z" transform="translate(0 -0.25)"/><path class="cls-61" d="M866.34,418.06a1.18,1.18,0,0,1,.44-.13h1.37a1.38,1.38,0,0,0,.51,1.27,1.82,1.82,0,0,1,.94,1.8v1.76a2.07,2.07,0,0,0,0,.32h-1.15a.54.54,0,0,0-.49-.22c-.27,0-.49.13-.49.28l-1.43.12c-.06-.86-.12-1.75-.18-2.49s-.09-1.34-.09-1.62A1.11,1.11,0,0,1,866.34,418.06Z" transform="translate(0 -0.25)"/><path class="cls-33" d="M869.05,429.28a.38.38,0,0,1,.32.37,3.48,3.48,0,0,1-.74-.1A.35.35,0,0,1,869.05,429.28Z" transform="translate(0 -0.25)"/><path class="cls-9" d="M868.48,423.1v.06c0,.15-.22.28-.49.28s-.49-.13-.49-.28.22-.28.49-.28A.54.54,0,0,1,868.48,423.1Z" transform="translate(0 -0.25)"/><path class="cls-9" d="M864.24,418.61l2.1-.55a1.11,1.11,0,0,0-.54,1.11c0,.28,0,.88.09,1.62-.16.36-1.27.65-1.27.65l-2.26.6A2.79,2.79,0,0,1,864.24,418.61Z" transform="translate(0 -0.25)"/><path class="cls-1" d="M1083.37,428.64v12a.39.39,0,0,1-.41.41h-36.13a.41.41,0,0,1-.42-.41v-5.85c1.59,1.3,3.87,1.48,6,1.37a31.22,31.22,0,0,0,11.85-3.11c3.09-1.52,5.93-3.57,9.13-4.8s7.06-1.53,9.93.39Z" transform="translate(0 -0.25)"/><path class="cls-2" d="M1083.37,399.29v29.35h-.09c-2.87-1.92-6.71-1.61-9.93-.39s-6,3.28-9.13,4.8a31.22,31.22,0,0,1-11.85,3.11c-2.09.11-4.37-.07-6-1.37V405.44c1.59,1.31,3.87,1.48,6,1.37a21.79,21.79,0,0,0,3-.33,29.61,29.61,0,0,0,8.83-2.78c3.09-1.52,5.93-3.56,9.13-4.8s7.06-1.52,9.93.39Z" transform="translate(0 -0.25)"/><path class="cls-1" d="M1083.37,388.2v11.09h-.09c-2.87-1.91-6.71-1.61-9.93-.39s-6,3.28-9.13,4.8a29.61,29.61,0,0,1-8.83,2.78l-.24-1.89a1,1,0,0,0,.59-.39l1.74-2.35a1,1,0,0,1,.85-.41l2.93.11a1,1,0,0,0,.87-1.59l-1.69-2.39a1,1,0,0,1-.13-.93l1-2.74a1,1,0,0,0-1.26-1.33l-2.79.87a1,1,0,0,1-.93-.17l-2.3-1.81a1,1,0,0,0-.61-.21v-3.46H1083A.41.41,0,0,1,1083.37,388.2Z" transform="translate(0 -0.25)"/><path class="cls-12" d="M1062.13,400a1,1,0,0,1-.87,1.59l-2.93-.11a1,1,0,0,0-.85.41l-1.74,2.35a1,1,0,0,1-.59.39,1,1,0,0,1-1.19-.74l-.81-2.8a1,1,0,0,0-.65-.7l-2.76-.93a1,1,0,0,1-.24-1.78l2.44-1.63a1.06,1.06,0,0,0,.43-.83l0-2.93a1,1,0,0,1,1.64-.79l2.3,1.81a1,1,0,0,0,.93.17l2.79-.87a1,1,0,0,1,1.26,1.33l-1,2.74a1,1,0,0,0,.13.93Z" transform="translate(0 -0.25)"/><path class="cls-1" d="M1055.15,404.59l.24,1.89a21.79,21.79,0,0,1-3,.33c-2.09.11-4.37-.06-6-1.37v-7h2.64a1,1,0,0,0,.69,1l2.76.93a1,1,0,0,1,.65.7l.81,2.8A1,1,0,0,0,1055.15,404.59Z" transform="translate(0 -0.25)"/><path class="cls-1" d="M1053.44,387.79v3.46a1,1,0,0,0-1,1l0,2.93a1.06,1.06,0,0,1-.43.83l-2.44,1.63a1,1,0,0,0-.45.82h-2.64V388.2a.43.43,0,0,1,.42-.41Z" transform="translate(0 -0.25)"/><path class="cls-9" d="M1072.64,409.45s4.13,1.31,3,5.51c-1.09-.3-3.62-1-3.62-1s-1.92-.5-2.09-1.1c.08-1.18.15-2.11.16-2.56a1.76,1.76,0,0,0-.95-1.8Z" transform="translate(0 -0.25)"/><path class="cls-9" d="M1069.16,408.54a1.76,1.76,0,0,1,.95,1.8c0,.45-.08,1.38-.16,2.56-.13,1.86-.31,4.32-.46,6.29,0,0-.77,1.36-3.38.59a3.63,3.63,0,0,1-2.54-3.14,3.14,3.14,0,0,1,0-.51v-2.84a2.93,2.93,0,0,0-1.5-2.88,2.19,2.19,0,0,1-.83-2v0h7.34A1.89,1.89,0,0,1,1069.16,408.54Zm-1.84,8.21c0-.24-.35-.44-.79-.44s-.78.2-.78.44.35.45.78.45S1067.32,417,1067.32,416.75Z" transform="translate(0 -0.25)"/><path class="cls-61" d="M1068.11,424.7a1.49,1.49,0,0,1-.43.17c-1.27.27-1.68-.25-1.68-.25a2.83,2.83,0,0,0-2.22-.61h0a2.85,2.85,0,0,0-2.23.61s-.4.52-1.68.25a1.81,1.81,0,0,1-.51-.23,3.37,3.37,0,0,1-1-2s-.23-2.77-.45-5.7l2.3-.19c0,.25.34.45.78.45s.79-.2.79-.45c0,0,0-.05,0-.09l1.85,0a3.63,3.63,0,0,0,2.54,3.14c2.61.77,3.38-.59,3.38-.59-.15,1.95-.27,3.45-.27,3.45A3.25,3.25,0,0,1,1068.11,424.7Z" transform="translate(0 -0.25)"/><path class="cls-32" d="M1068.11,424.7a.73.73,0,0,1,0,.25c0,.93-1.12,1.72-2.69,2.07h0a.56.56,0,0,0-.67-.45.62.62,0,0,0-.51.6c-.18,0-.36,0-.55,0s-.39,0-.58,0a.62.62,0,0,0-.51-.6.57.57,0,0,0-.67.44c-1.56-.35-2.65-1.14-2.65-2.06a.65.65,0,0,1,0-.31,1.81,1.81,0,0,0,.51.23c1.28.27,1.68-.25,1.68-.25a2.85,2.85,0,0,1,2.23-.61h0a2.83,2.83,0,0,1,2.22.61s.41.52,1.68.25A1.49,1.49,0,0,0,1068.11,424.7Z" transform="translate(0 -0.25)"/><path class="cls-61" d="M1066.53,416.31c.44,0,.79.2.79.44s-.35.45-.79.45-.78-.2-.78-.45S1066.1,416.31,1066.53,416.31Z" transform="translate(0 -0.25)"/><path class="cls-33" d="M1064.78,426.57a.56.56,0,0,1,.67.45,8.64,8.64,0,0,1-1.18.15A.62.62,0,0,1,1064.78,426.57Z" transform="translate(0 -0.25)"/><path class="cls-61" d="M1058.35,408.55a2,2,0,0,1,.65-.19h2.19v0a2.19,2.19,0,0,0,.83,2,2.93,2.93,0,0,1,1.5,2.88v2.84a3.14,3.14,0,0,0,0,.51l-1.85,0a.84.84,0,0,0-.78-.35c-.44,0-.78.2-.78.44l-2.3.19c-.1-1.38-.2-2.79-.29-4s-.14-2.16-.16-2.62A1.74,1.74,0,0,1,1058.35,408.55Z" transform="translate(0 -0.25)"/><path class="cls-33" d="M1062.63,426.57a.62.62,0,0,1,.51.6A7.3,7.3,0,0,1,1062,427,.57.57,0,0,1,1062.63,426.57Z" transform="translate(0 -0.25)"/><path class="cls-9" d="M1061.72,416.66s0,.06,0,.09c0,.25-.36.45-.79.45s-.78-.2-.78-.45.34-.44.78-.44A.84.84,0,0,1,1061.72,416.66Z" transform="translate(0 -0.25)"/><path class="cls-9" d="M1054.92,409.45l3.43-.9a1.74,1.74,0,0,0-.94,1.79c0,.46.08,1.43.16,2.62-.28.57-2.06,1-2.06,1s-2.52.66-3.61,1C1050.78,410.76,1054.92,409.45,1054.92,409.45Z" transform="translate(0 -0.25)"/><path class="cls-1" d="M1123.37,428.64v12a.39.39,0,0,1-.41.41h-36.13a.41.41,0,0,1-.42-.41v-5.85c1.59,1.3,3.87,1.48,6,1.37a31.22,31.22,0,0,0,11.85-3.11c3.09-1.52,5.93-3.57,9.13-4.8s7.06-1.53,9.93.39Z" transform="translate(0 -0.25)"/><path class="cls-2" d="M1123.37,399.29v29.35h-.09c-2.87-1.92-6.71-1.61-9.93-.39s-6,3.28-9.13,4.8a31.22,31.22,0,0,1-11.85,3.11c-2.09.11-4.37-.07-6-1.37V405.44c1.59,1.31,3.87,1.48,6,1.37a21.79,21.79,0,0,0,3-.33,29.61,29.61,0,0,0,8.83-2.78c3.09-1.52,5.93-3.56,9.13-4.8s7.06-1.52,9.93.39Z" transform="translate(0 -0.25)"/><path class="cls-1" d="M1123.37,388.2v11.09h-.09c-2.87-1.91-6.71-1.61-9.93-.39s-6,3.28-9.13,4.8a29.61,29.61,0,0,1-8.83,2.78l-.24-1.89a1,1,0,0,0,.59-.39l1.74-2.35a1,1,0,0,1,.85-.41l2.93.11a1,1,0,0,0,.87-1.59l-1.69-2.39a1,1,0,0,1-.13-.93l1-2.74a1,1,0,0,0-1.26-1.33l-2.79.87a1,1,0,0,1-.93-.17l-2.3-1.81a1,1,0,0,0-.61-.21v-3.46H1123A.41.41,0,0,1,1123.37,388.2Z" transform="translate(0 -0.25)"/><path class="cls-12" d="M1102.13,400a1,1,0,0,1-.87,1.59l-2.93-.11a1,1,0,0,0-.85.41l-1.74,2.35a1,1,0,0,1-.59.39,1,1,0,0,1-1.19-.74l-.81-2.8a1,1,0,0,0-.65-.7l-2.76-.93a1,1,0,0,1-.24-1.78l2.44-1.63a1.06,1.06,0,0,0,.43-.83l0-2.93a1,1,0,0,1,1.64-.79l2.3,1.81a1,1,0,0,0,.93.17l2.79-.87a1,1,0,0,1,1.26,1.33l-1,2.74a1,1,0,0,0,.13.93Z" transform="translate(0 -0.25)"/><path class="cls-1" d="M1095.15,404.59l.24,1.89a21.79,21.79,0,0,1-3,.33c-2.09.11-4.37-.06-6-1.37v-7h2.64a1,1,0,0,0,.69,1l2.76.93a1,1,0,0,1,.65.7l.81,2.8A1,1,0,0,0,1095.15,404.59Z" transform="translate(0 -0.25)"/><path class="cls-1" d="M1093.44,387.79v3.46a1,1,0,0,0-1,1l0,2.93a1.06,1.06,0,0,1-.43.83l-2.44,1.63a1,1,0,0,0-.45.82h-2.64V388.2a.43.43,0,0,1,.42-.41Z" transform="translate(0 -0.25)"/><path class="cls-9" d="M1112.64,409.45s4.13,1.31,3,5.51c-1.09-.3-3.62-1-3.62-1s-1.92-.5-2.09-1.1c.08-1.18.15-2.11.16-2.56a1.76,1.76,0,0,0-.95-1.8Z" transform="translate(0 -0.25)"/><path class="cls-9" d="M1109.16,408.54a1.76,1.76,0,0,1,.95,1.8c0,.45-.08,1.38-.16,2.56-.13,1.86-.31,4.32-.46,6.29,0,0-.77,1.36-3.38.59a3.63,3.63,0,0,1-2.54-3.14,3.14,3.14,0,0,1,0-.51v-2.84a2.93,2.93,0,0,0-1.5-2.88,2.19,2.19,0,0,1-.83-2v0h7.34A1.89,1.89,0,0,1,1109.16,408.54Zm-1.84,8.21c0-.24-.35-.44-.79-.44s-.78.2-.78.44.35.45.78.45S1107.32,417,1107.32,416.75Z" transform="translate(0 -0.25)"/><path class="cls-61" d="M1108.11,424.7a1.49,1.49,0,0,1-.43.17c-1.27.27-1.68-.25-1.68-.25a2.83,2.83,0,0,0-2.22-.61h0a2.85,2.85,0,0,0-2.23.61s-.4.52-1.68.25a1.81,1.81,0,0,1-.51-.23,3.37,3.37,0,0,1-1-2s-.23-2.77-.45-5.7l2.3-.19c0,.25.34.45.78.45s.79-.2.79-.45c0,0,0-.05,0-.09l1.85,0a3.63,3.63,0,0,0,2.54,3.14c2.61.77,3.38-.59,3.38-.59-.15,1.95-.27,3.45-.27,3.45A3.25,3.25,0,0,1,1108.11,424.7Z" transform="translate(0 -0.25)"/><path class="cls-32" d="M1108.11,424.7a.73.73,0,0,1,0,.25c0,.93-1.12,1.72-2.69,2.07h0a.56.56,0,0,0-.67-.45.62.62,0,0,0-.51.6c-.18,0-.36,0-.55,0s-.39,0-.58,0a.62.62,0,0,0-.51-.6.57.57,0,0,0-.67.44c-1.56-.35-2.65-1.14-2.65-2.06a.65.65,0,0,1,0-.31,1.81,1.81,0,0,0,.51.23c1.28.27,1.68-.25,1.68-.25a2.85,2.85,0,0,1,2.23-.61h0a2.83,2.83,0,0,1,2.22.61s.41.52,1.68.25A1.49,1.49,0,0,0,1108.11,424.7Z" transform="translate(0 -0.25)"/><path class="cls-61" d="M1106.53,416.31c.44,0,.79.2.79.44s-.35.45-.79.45-.78-.2-.78-.45S1106.1,416.31,1106.53,416.31Z" transform="translate(0 -0.25)"/><path class="cls-33" d="M1104.78,426.57a.56.56,0,0,1,.67.45,8.64,8.64,0,0,1-1.18.15A.62.62,0,0,1,1104.78,426.57Z" transform="translate(0 -0.25)"/><path class="cls-61" d="M1098.35,408.55a2,2,0,0,1,.65-.19h2.19v0a2.19,2.19,0,0,0,.83,2,2.93,2.93,0,0,1,1.5,2.88v2.84a3.14,3.14,0,0,0,0,.51l-1.85,0a.84.84,0,0,0-.78-.35c-.44,0-.78.2-.78.44l-2.3.19c-.1-1.38-.2-2.79-.29-4s-.14-2.16-.16-2.62A1.74,1.74,0,0,1,1098.35,408.55Z" transform="translate(0 -0.25)"/><path class="cls-33" d="M1102.63,426.57a.62.62,0,0,1,.51.6A7.3,7.3,0,0,1,1102,427,.57.57,0,0,1,1102.63,426.57Z" transform="translate(0 -0.25)"/><path class="cls-9" d="M1101.72,416.66s0,.06,0,.09c0,.25-.36.45-.79.45s-.78-.2-.78-.45.34-.44.78-.44A.84.84,0,0,1,1101.72,416.66Z" transform="translate(0 -0.25)"/><path class="cls-9" d="M1094.92,409.45l3.43-.9a1.74,1.74,0,0,0-.94,1.79c0,.46.08,1.43.16,2.62-.28.57-2.06,1-2.06,1s-2.52.66-3.61,1C1090.78,410.76,1094.92,409.45,1094.92,409.45Z" transform="translate(0 -0.25)"/><path class="cls-1" d="M1163.37,428.64v12a.39.39,0,0,1-.41.41h-36.13a.41.41,0,0,1-.42-.41v-5.85c1.59,1.3,3.87,1.48,6,1.37a31.22,31.22,0,0,0,11.85-3.11c3.09-1.52,5.93-3.57,9.13-4.8s7.06-1.53,9.93.39Z" transform="translate(0 -0.25)"/><path class="cls-2" d="M1163.37,399.29v29.35h-.09c-2.87-1.92-6.71-1.61-9.93-.39s-6,3.28-9.13,4.8a31.22,31.22,0,0,1-11.85,3.11c-2.09.11-4.37-.07-6-1.37V405.44c1.59,1.31,3.87,1.48,6,1.37a21.79,21.79,0,0,0,3-.33,29.61,29.61,0,0,0,8.83-2.78c3.09-1.52,5.93-3.56,9.13-4.8s7.06-1.52,9.93.39Z" transform="translate(0 -0.25)"/><path class="cls-1" d="M1163.37,388.2v11.09h-.09c-2.87-1.91-6.71-1.61-9.93-.39s-6,3.28-9.13,4.8a29.61,29.61,0,0,1-8.83,2.78l-.24-1.89a1,1,0,0,0,.59-.39l1.74-2.35a1,1,0,0,1,.85-.41l2.93.11a1,1,0,0,0,.87-1.59l-1.69-2.39a1,1,0,0,1-.13-.93l1-2.74a1,1,0,0,0-1.26-1.33l-2.79.87a1,1,0,0,1-.93-.17l-2.3-1.81a1,1,0,0,0-.61-.21v-3.46H1163A.41.41,0,0,1,1163.37,388.2Z" transform="translate(0 -0.25)"/><path class="cls-12" d="M1142.13,400a1,1,0,0,1-.87,1.59l-2.93-.11a1,1,0,0,0-.85.41l-1.74,2.35a1,1,0,0,1-.59.39,1,1,0,0,1-1.19-.74l-.81-2.8a1,1,0,0,0-.65-.7l-2.76-.93a1,1,0,0,1-.24-1.78l2.44-1.63a1.06,1.06,0,0,0,.43-.83l0-2.93a1,1,0,0,1,1.64-.79l2.3,1.81a1,1,0,0,0,.93.17l2.79-.87a1,1,0,0,1,1.26,1.33l-1,2.74a1,1,0,0,0,.13.93Z" transform="translate(0 -0.25)"/><path class="cls-1" d="M1135.15,404.59l.24,1.89a21.79,21.79,0,0,1-3,.33c-2.09.11-4.37-.06-6-1.37v-7h2.64a1,1,0,0,0,.69,1l2.76.93a1,1,0,0,1,.65.7l.81,2.8A1,1,0,0,0,1135.15,404.59Z" transform="translate(0 -0.25)"/><path class="cls-1" d="M1133.44,387.79v3.46a1,1,0,0,0-1,1l0,2.93a1.06,1.06,0,0,1-.43.83l-2.44,1.63a1,1,0,0,0-.45.82h-2.64V388.2a.43.43,0,0,1,.42-.41Z" transform="translate(0 -0.25)"/><path class="cls-9" d="M1152.64,409.45s4.13,1.31,3,5.51c-1.09-.3-3.62-1-3.62-1s-1.92-.5-2.09-1.1c.08-1.18.15-2.11.16-2.56a1.76,1.76,0,0,0-.95-1.8Z" transform="translate(0 -0.25)"/><path class="cls-9" d="M1149.16,408.54a1.76,1.76,0,0,1,.95,1.8c0,.45-.08,1.38-.16,2.56-.13,1.86-.31,4.32-.46,6.29,0,0-.77,1.36-3.38.59a3.63,3.63,0,0,1-2.54-3.14,3.14,3.14,0,0,1,0-.51v-2.84a2.93,2.93,0,0,0-1.5-2.88,2.19,2.19,0,0,1-.83-2v0h7.34A1.89,1.89,0,0,1,1149.16,408.54Zm-1.84,8.21c0-.24-.35-.44-.79-.44s-.78.2-.78.44.35.45.78.45S1147.32,417,1147.32,416.75Z" transform="translate(0 -0.25)"/><path class="cls-61" d="M1148.11,424.7a1.49,1.49,0,0,1-.43.17c-1.27.27-1.68-.25-1.68-.25a2.83,2.83,0,0,0-2.22-.61h0a2.85,2.85,0,0,0-2.23.61s-.4.52-1.68.25a1.81,1.81,0,0,1-.51-.23,3.37,3.37,0,0,1-1-2s-.23-2.77-.45-5.7l2.3-.19c0,.25.34.45.78.45s.79-.2.79-.45c0,0,0-.05,0-.09l1.85,0a3.63,3.63,0,0,0,2.54,3.14c2.61.77,3.38-.59,3.38-.59-.15,1.95-.27,3.45-.27,3.45A3.25,3.25,0,0,1,1148.11,424.7Z" transform="translate(0 -0.25)"/><path class="cls-32" d="M1148.11,424.7a.73.73,0,0,1,0,.25c0,.93-1.12,1.72-2.69,2.07h0a.56.56,0,0,0-.67-.45.62.62,0,0,0-.51.6c-.18,0-.36,0-.55,0s-.39,0-.58,0a.62.62,0,0,0-.51-.6.57.57,0,0,0-.67.44c-1.56-.35-2.65-1.14-2.65-2.06a.65.65,0,0,1,0-.31,1.81,1.81,0,0,0,.51.23c1.28.27,1.68-.25,1.68-.25a2.85,2.85,0,0,1,2.23-.61h0a2.83,2.83,0,0,1,2.22.61s.41.52,1.68.25A1.49,1.49,0,0,0,1148.11,424.7Z" transform="translate(0 -0.25)"/><path class="cls-61" d="M1146.53,416.31c.44,0,.79.2.79.44s-.35.45-.79.45-.78-.2-.78-.45S1146.1,416.31,1146.53,416.31Z" transform="translate(0 -0.25)"/><path class="cls-33" d="M1144.78,426.57a.56.56,0,0,1,.67.45,8.64,8.64,0,0,1-1.18.15A.62.62,0,0,1,1144.78,426.57Z" transform="translate(0 -0.25)"/><path class="cls-61" d="M1138.35,408.55a2,2,0,0,1,.65-.19h2.19v0a2.19,2.19,0,0,0,.83,2,2.93,2.93,0,0,1,1.5,2.88v2.84a3.14,3.14,0,0,0,0,.51l-1.85,0a.84.84,0,0,0-.78-.35c-.44,0-.78.2-.78.44l-2.3.19c-.1-1.38-.2-2.79-.29-4s-.14-2.16-.16-2.62A1.74,1.74,0,0,1,1138.35,408.55Z" transform="translate(0 -0.25)"/><path class="cls-33" d="M1142.63,426.57a.62.62,0,0,1,.51.6A7.3,7.3,0,0,1,1142,427,.57.57,0,0,1,1142.63,426.57Z" transform="translate(0 -0.25)"/><path class="cls-9" d="M1141.72,416.66s0,.06,0,.09c0,.25-.36.45-.79.45s-.78-.2-.78-.45.34-.44.78-.44A.84.84,0,0,1,1141.72,416.66Z" transform="translate(0 -0.25)"/><path class="cls-9" d="M1134.92,409.45l3.43-.9a1.74,1.74,0,0,0-.94,1.79c0,.46.08,1.43.16,2.62-.28.57-2.06,1-2.06,1s-2.52.66-3.61,1C1130.78,410.76,1134.92,409.45,1134.92,409.45Z" transform="translate(0 -0.25)"/><path class="cls-1" d="M1103.37,373.64v12a.39.39,0,0,1-.41.41h-36.13a.41.41,0,0,1-.42-.41v-5.85c1.59,1.3,3.87,1.48,6,1.37a31.22,31.22,0,0,0,11.85-3.11c3.09-1.52,5.93-3.57,9.13-4.8s7.06-1.53,9.93.39Z" transform="translate(0 -0.25)"/><path class="cls-2" d="M1103.37,344.29v29.35h-.09c-2.87-1.92-6.71-1.61-9.93-.39s-6,3.28-9.13,4.8a31.22,31.22,0,0,1-11.85,3.11c-2.09.11-4.37-.07-6-1.37V350.44c1.59,1.31,3.87,1.48,6,1.37a21.79,21.79,0,0,0,3-.33,29.61,29.61,0,0,0,8.83-2.78c3.09-1.52,5.93-3.56,9.13-4.8s7.06-1.52,9.93.39Z" transform="translate(0 -0.25)"/><path class="cls-1" d="M1103.37,333.2v11.09h-.09c-2.87-1.91-6.71-1.61-9.93-.39s-6,3.28-9.13,4.8a29.61,29.61,0,0,1-8.83,2.78l-.24-1.89a1,1,0,0,0,.59-.39l1.74-2.35a1,1,0,0,1,.85-.41l2.93.11a1,1,0,0,0,.87-1.59l-1.69-2.39a1,1,0,0,1-.13-.93l1-2.74a1,1,0,0,0-1.26-1.33l-2.79.87a1,1,0,0,1-.93-.17l-2.3-1.81a1,1,0,0,0-.61-.21v-3.46H1103A.41.41,0,0,1,1103.37,333.2Z" transform="translate(0 -0.25)"/><path class="cls-12" d="M1082.13,345a1,1,0,0,1-.87,1.59l-2.93-.11a1,1,0,0,0-.85.41l-1.74,2.35a1,1,0,0,1-.59.39,1,1,0,0,1-1.19-.74l-.81-2.8a1,1,0,0,0-.65-.7l-2.76-.93a1,1,0,0,1-.24-1.78l2.44-1.63a1.06,1.06,0,0,0,.43-.83l0-2.93a1,1,0,0,1,1.64-.79l2.3,1.81a1,1,0,0,0,.93.17l2.79-.87a1,1,0,0,1,1.26,1.33l-1,2.74a1,1,0,0,0,.13.93Z" transform="translate(0 -0.25)"/><path class="cls-1" d="M1075.15,349.59l.24,1.89a21.79,21.79,0,0,1-3,.33c-2.09.11-4.37-.06-6-1.37v-7h2.64a1,1,0,0,0,.69,1l2.76.93a1,1,0,0,1,.65.7l.81,2.8A1,1,0,0,0,1075.15,349.59Z" transform="translate(0 -0.25)"/><path class="cls-1" d="M1073.44,332.79v3.46a1,1,0,0,0-1,1l0,2.93a1.06,1.06,0,0,1-.43.83l-2.44,1.63a1,1,0,0,0-.45.82h-2.64V333.2a.43.43,0,0,1,.42-.41Z" transform="translate(0 -0.25)"/><path class="cls-9" d="M1092.64,354.45s4.13,1.31,3,5.51c-1.09-.3-3.62-1-3.62-1s-1.92-.5-2.09-1.1c.08-1.18.15-2.11.16-2.56a1.76,1.76,0,0,0-.95-1.8Z" transform="translate(0 -0.25)"/><path class="cls-9" d="M1089.16,353.54a1.76,1.76,0,0,1,.95,1.8c0,.45-.08,1.38-.16,2.56-.13,1.86-.31,4.32-.46,6.29,0,0-.77,1.36-3.38.59a3.63,3.63,0,0,1-2.54-3.14,3.14,3.14,0,0,1,0-.51v-2.84a2.93,2.93,0,0,0-1.5-2.88,2.19,2.19,0,0,1-.83-2v0h7.34A1.89,1.89,0,0,1,1089.16,353.54Zm-1.84,8.21c0-.24-.35-.44-.79-.44s-.78.2-.78.44.35.45.78.45S1087.32,362,1087.32,361.75Z" transform="translate(0 -0.25)"/><path class="cls-61" d="M1088.11,369.7a1.49,1.49,0,0,1-.43.17c-1.27.27-1.68-.25-1.68-.25a2.83,2.83,0,0,0-2.22-.61h0a2.85,2.85,0,0,0-2.23.61s-.4.52-1.68.25a1.81,1.81,0,0,1-.51-.23,3.37,3.37,0,0,1-1-2s-.23-2.77-.45-5.7l2.3-.19c0,.25.34.45.78.45s.79-.2.79-.45c0,0,0-.05,0-.09l1.85,0a3.63,3.63,0,0,0,2.54,3.14c2.61.77,3.38-.59,3.38-.59-.15,1.95-.27,3.45-.27,3.45A3.25,3.25,0,0,1,1088.11,369.7Z" transform="translate(0 -0.25)"/><path class="cls-32" d="M1088.11,369.7a.73.73,0,0,1,0,.25c0,.93-1.12,1.72-2.69,2.07h0a.56.56,0,0,0-.67-.45.62.62,0,0,0-.51.6c-.18,0-.36,0-.55,0s-.39,0-.58,0a.62.62,0,0,0-.51-.6.57.57,0,0,0-.67.44c-1.56-.35-2.65-1.14-2.65-2.06a.65.65,0,0,1,0-.31,1.81,1.81,0,0,0,.51.23c1.28.27,1.68-.25,1.68-.25a2.85,2.85,0,0,1,2.23-.61h0a2.83,2.83,0,0,1,2.22.61s.41.52,1.68.25A1.49,1.49,0,0,0,1088.11,369.7Z" transform="translate(0 -0.25)"/><path class="cls-61" d="M1086.53,361.31c.44,0,.79.2.79.44s-.35.45-.79.45-.78-.2-.78-.45S1086.1,361.31,1086.53,361.31Z" transform="translate(0 -0.25)"/><path class="cls-33" d="M1084.78,371.57a.56.56,0,0,1,.67.45,8.64,8.64,0,0,1-1.18.15A.62.62,0,0,1,1084.78,371.57Z" transform="translate(0 -0.25)"/><path class="cls-61" d="M1078.35,353.55a2,2,0,0,1,.65-.19h2.19v0a2.19,2.19,0,0,0,.83,2,2.93,2.93,0,0,1,1.5,2.88v2.84a3.14,3.14,0,0,0,0,.51l-1.85,0a.84.84,0,0,0-.78-.35c-.44,0-.78.2-.78.44l-2.3.19c-.1-1.38-.2-2.79-.29-4s-.14-2.16-.16-2.62A1.74,1.74,0,0,1,1078.35,353.55Z" transform="translate(0 -0.25)"/><path class="cls-33" d="M1082.63,371.57a.62.62,0,0,1,.51.6A7.3,7.3,0,0,1,1082,372,.57.57,0,0,1,1082.63,371.57Z" transform="translate(0 -0.25)"/><path class="cls-9" d="M1081.72,361.66s0,.06,0,.09c0,.25-.36.45-.79.45s-.78-.2-.78-.45.34-.44.78-.44A.84.84,0,0,1,1081.72,361.66Z" transform="translate(0 -0.25)"/><path class="cls-9" d="M1074.92,354.45l3.43-.9a1.74,1.74,0,0,0-.94,1.79c0,.46.08,1.43.16,2.62-.28.57-2.06,1-2.06,1s-2.52.66-3.61,1C1070.78,355.76,1074.92,354.45,1074.92,354.45Z" transform="translate(0 -0.25)"/><path class="cls-1" d="M1143.37,373.64v12a.39.39,0,0,1-.41.41h-36.13a.41.41,0,0,1-.42-.41v-5.85c1.59,1.3,3.87,1.48,6,1.37a31.22,31.22,0,0,0,11.85-3.11c3.09-1.52,5.93-3.57,9.13-4.8s7.06-1.53,9.93.39Z" transform="translate(0 -0.25)"/><path class="cls-2" d="M1143.37,344.29v29.35h-.09c-2.87-1.92-6.71-1.61-9.93-.39s-6,3.28-9.13,4.8a31.22,31.22,0,0,1-11.85,3.11c-2.09.11-4.37-.07-6-1.37V350.44c1.59,1.31,3.87,1.48,6,1.37a21.79,21.79,0,0,0,3-.33,29.61,29.61,0,0,0,8.83-2.78c3.09-1.52,5.93-3.56,9.13-4.8s7.06-1.52,9.93.39Z" transform="translate(0 -0.25)"/><path class="cls-1" d="M1143.37,333.2v11.09h-.09c-2.87-1.91-6.71-1.61-9.93-.39s-6,3.28-9.13,4.8a29.61,29.61,0,0,1-8.83,2.78l-.24-1.89a1,1,0,0,0,.59-.39l1.74-2.35a1,1,0,0,1,.85-.41l2.93.11a1,1,0,0,0,.87-1.59l-1.69-2.39a1,1,0,0,1-.13-.93l1-2.74a1,1,0,0,0-1.26-1.33l-2.79.87a1,1,0,0,1-.93-.17l-2.3-1.81a1,1,0,0,0-.61-.21v-3.46H1143A.41.41,0,0,1,1143.37,333.2Z" transform="translate(0 -0.25)"/><path class="cls-12" d="M1122.13,345a1,1,0,0,1-.87,1.59l-2.93-.11a1,1,0,0,0-.85.41l-1.74,2.35a1,1,0,0,1-.59.39,1,1,0,0,1-1.19-.74l-.81-2.8a1,1,0,0,0-.65-.7l-2.76-.93a1,1,0,0,1-.24-1.78l2.44-1.63a1.06,1.06,0,0,0,.43-.83l0-2.93a1,1,0,0,1,1.64-.79l2.3,1.81a1,1,0,0,0,.93.17l2.79-.87a1,1,0,0,1,1.26,1.33l-1,2.74a1,1,0,0,0,.13.93Z" transform="translate(0 -0.25)"/><path class="cls-1" d="M1115.15,349.59l.24,1.89a21.79,21.79,0,0,1-3,.33c-2.09.11-4.37-.06-6-1.37v-7h2.64a1,1,0,0,0,.69,1l2.76.93a1,1,0,0,1,.65.7l.81,2.8A1,1,0,0,0,1115.15,349.59Z" transform="translate(0 -0.25)"/><path class="cls-1" d="M1113.44,332.79v3.46a1,1,0,0,0-1,1l0,2.93a1.06,1.06,0,0,1-.43.83l-2.44,1.63a1,1,0,0,0-.45.82h-2.64V333.2a.43.43,0,0,1,.42-.41Z" transform="translate(0 -0.25)"/><path class="cls-9" d="M1132.64,354.45s4.13,1.31,3,5.51c-1.09-.3-3.62-1-3.62-1s-1.92-.5-2.09-1.1c.08-1.18.15-2.11.16-2.56a1.76,1.76,0,0,0-.95-1.8Z" transform="translate(0 -0.25)"/><path class="cls-9" d="M1129.16,353.54a1.76,1.76,0,0,1,.95,1.8c0,.45-.08,1.38-.16,2.56-.13,1.86-.31,4.32-.46,6.29,0,0-.77,1.36-3.38.59a3.63,3.63,0,0,1-2.54-3.14,3.14,3.14,0,0,1,0-.51v-2.84a2.93,2.93,0,0,0-1.5-2.88,2.19,2.19,0,0,1-.83-2v0h7.34A1.89,1.89,0,0,1,1129.16,353.54Zm-1.84,8.21c0-.24-.35-.44-.79-.44s-.78.2-.78.44.35.45.78.45S1127.32,362,1127.32,361.75Z" transform="translate(0 -0.25)"/><path class="cls-61" d="M1128.11,369.7a1.49,1.49,0,0,1-.43.17c-1.27.27-1.68-.25-1.68-.25a2.83,2.83,0,0,0-2.22-.61h0a2.85,2.85,0,0,0-2.23.61s-.4.52-1.68.25a1.81,1.81,0,0,1-.51-.23,3.37,3.37,0,0,1-1-2s-.23-2.77-.45-5.7l2.3-.19c0,.25.34.45.78.45s.79-.2.79-.45c0,0,0-.05,0-.09l1.85,0a3.63,3.63,0,0,0,2.54,3.14c2.61.77,3.38-.59,3.38-.59-.15,1.95-.27,3.45-.27,3.45A3.25,3.25,0,0,1,1128.11,369.7Z" transform="translate(0 -0.25)"/><path class="cls-32" d="M1128.11,369.7a.73.73,0,0,1,0,.25c0,.93-1.12,1.72-2.69,2.07h0a.56.56,0,0,0-.67-.45.62.62,0,0,0-.51.6c-.18,0-.36,0-.55,0s-.39,0-.58,0a.62.62,0,0,0-.51-.6.57.57,0,0,0-.67.44c-1.56-.35-2.65-1.14-2.65-2.06a.65.65,0,0,1,0-.31,1.81,1.81,0,0,0,.51.23c1.28.27,1.68-.25,1.68-.25a2.85,2.85,0,0,1,2.23-.61h0a2.83,2.83,0,0,1,2.22.61s.41.52,1.68.25A1.49,1.49,0,0,0,1128.11,369.7Z" transform="translate(0 -0.25)"/><path class="cls-61" d="M1126.53,361.31c.44,0,.79.2.79.44s-.35.45-.79.45-.78-.2-.78-.45S1126.1,361.31,1126.53,361.31Z" transform="translate(0 -0.25)"/><path class="cls-33" d="M1124.78,371.57a.56.56,0,0,1,.67.45,8.64,8.64,0,0,1-1.18.15A.62.62,0,0,1,1124.78,371.57Z" transform="translate(0 -0.25)"/><path class="cls-61" d="M1118.35,353.55a2,2,0,0,1,.65-.19h2.19v0a2.19,2.19,0,0,0,.83,2,2.93,2.93,0,0,1,1.5,2.88v2.84a3.14,3.14,0,0,0,0,.51l-1.85,0a.84.84,0,0,0-.78-.35c-.44,0-.78.2-.78.44l-2.3.19c-.1-1.38-.2-2.79-.29-4s-.14-2.16-.16-2.62A1.74,1.74,0,0,1,1118.35,353.55Z" transform="translate(0 -0.25)"/><path class="cls-33" d="M1122.63,371.57a.62.62,0,0,1,.51.6A7.3,7.3,0,0,1,1122,372,.57.57,0,0,1,1122.63,371.57Z" transform="translate(0 -0.25)"/><path class="cls-9" d="M1121.72,361.66s0,.06,0,.09c0,.25-.36.45-.79.45s-.78-.2-.78-.45.34-.44.78-.44A.84.84,0,0,1,1121.72,361.66Z" transform="translate(0 -0.25)"/><path class="cls-9" d="M1114.92,354.45l3.43-.9a1.74,1.74,0,0,0-.94,1.79c0,.46.08,1.43.16,2.62-.28.57-2.06,1-2.06,1s-2.52.66-3.61,1C1110.78,355.76,1114.92,354.45,1114.92,354.45Z" transform="translate(0 -0.25)"/></g></g></svg>