<svg xmlns="http://www.w3.org/2000/svg" viewBox="0 0 172.77 172.82"><defs><style>.cls-1{fill:#eda2a1;}.cls-2{fill:#dd8d8e;}.cls-3{fill:#ba6d6c;}.cls-4{fill:#605f81;}</style></defs><title>Asset 13</title><g id="Layer_2" data-name="Layer 2"><g id="กังหัง"><polygon class="cls-1" points="9.51 157.71 0 148.14 6.65 141.49 15.99 151.25 9.51 157.71"/><polygon class="cls-2" points="15.99 151.25 6.65 141.49 8.63 139.52 17.99 149.3 15.99 151.25"/><polygon class="cls-3" points="11.26 159.47 9.51 157.71 15.99 151.25 17.63 152.97 17.71 153.04 11.26 159.47"/><polygon class="cls-4" points="13.48 161.7 11.26 159.47 17.71 153.04 19.68 151.07 26.12 144.65 28.11 142.68 33.88 136.89 35.87 134.92 41.14 129.65 43.13 127.68 48.87 121.96 50.84 119.97 56.48 114.35 58.45 112.38 79.51 91.38 81.73 93.61 13.48 161.7"/><polygon class="cls-1" points="17.99 149.3 8.63 139.52 15.06 133.09 24.43 142.87 17.99 149.3"/><polygon class="cls-3" points="17.63 152.97 15.99 151.25 17.99 149.3 19.65 151.04 19.68 151.07 17.71 153.04 17.63 152.97"/><polygon class="cls-2" points="24.43 142.87 15.06 133.09 17.05 131.12 26.4 140.9 24.43 142.87"/><polygon class="cls-3" points="17.99 149.3 24.43 142.87 25.87 144.38 26.12 144.65 19.68 151.07 19.65 151.04 17.99 149.3"/><polygon class="cls-1" points="26.4 140.9 17.05 131.12 22.82 125.36 32.2 135.16 26.4 140.9"/><polygon class="cls-3" points="25.87 144.38 24.43 142.87 26.4 140.9 27.89 142.45 28.11 142.68 26.12 144.65 25.87 144.38"/><polygon class="cls-2" points="22.82 125.36 24.81 123.39 34.19 133.19 32.2 135.16 22.82 125.36"/><polygon class="cls-3" points="26.4 140.9 32.2 135.16 33.78 136.8 33.88 136.89 28.11 142.68 27.89 142.45 26.4 140.9"/><polygon class="cls-1" points="24.81 123.39 30.09 118.12 39.48 127.91 34.19 133.19 24.81 123.39"/><polygon class="cls-3" points="32.2 135.16 34.19 133.19 35.8 134.87 35.87 134.92 33.88 136.89 33.78 136.8 32.2 135.16"/><polygon class="cls-2" points="30.09 118.12 32.07 116.12 41.47 125.94 39.48 127.91 30.09 118.12"/><polygon class="cls-3" points="34.19 133.19 39.48 127.91 40.8 129.3 41.14 129.65 35.87 134.92 35.8 134.87 34.19 133.19"/><polygon class="cls-1" points="32.07 116.12 37.81 110.41 47.21 120.23 41.47 125.94 32.07 116.12"/><polygon class="cls-3" points="40.8 129.3 39.48 127.91 41.47 125.94 42.83 127.36 43.13 127.68 41.14 129.65 40.8 129.3"/><polygon class="cls-2" points="37.81 110.41 39.78 108.44 49.2 118.25 47.21 120.23 37.81 110.41"/><polygon class="cls-3" points="41.47 125.94 47.21 120.23 48.67 121.76 48.87 121.96 43.13 127.68 42.83 127.36 41.47 125.94"/><polygon class="cls-1" points="39.78 108.44 45.41 102.82 54.85 112.66 49.2 118.25 39.78 108.44"/><polygon class="cls-3" points="48.67 121.76 47.21 120.23 49.2 118.25 50.69 119.82 50.84 119.97 48.87 121.96 48.67 121.76"/><polygon class="cls-2" points="45.41 102.82 47.39 100.83 56.82 110.69 54.85 112.66 45.41 102.82"/><polygon class="cls-3" points="50.69 119.82 49.2 118.25 54.85 112.66 56.44 114.32 56.48 114.35 50.84 119.97 50.69 119.82"/><polygon class="cls-3" points="54.85 112.66 56.82 110.69 58.45 112.38 56.48 114.35 56.44 114.32 54.85 112.66"/><polygon class="cls-1" points="157.28 163.31 147.69 172.82 141.04 166.17 150.82 156.82 157.25 163.29 157.28 163.31"/><polygon class="cls-2" points="150.82 156.82 141.04 166.17 139.07 164.19 148.85 154.83 150.82 156.82"/><polygon class="cls-3" points="157.28 163.31 157.25 163.29 150.82 156.82 152.52 155.19 152.59 155.11 159.02 161.54 159.02 161.56 157.28 163.31"/><polygon class="cls-4" points="161.25 159.34 159.02 161.56 159.02 161.54 152.59 155.11 150.62 153.12 144.19 146.68 142.22 144.71 136.46 138.94 134.49 136.95 129.19 131.66 127.22 129.67 121.51 123.95 119.54 121.98 113.9 116.34 111.93 114.37 90.92 93.31 93.15 91.09 161.25 159.34"/><polygon class="cls-1" points="148.85 154.83 139.07 164.19 132.64 157.76 142.44 148.39 148.85 154.83"/><polygon class="cls-3" points="150.82 156.82 148.85 154.83 150.59 153.17 150.62 153.12 152.59 155.11 152.52 155.19 150.82 156.82"/><polygon class="cls-2" points="142.44 148.39 132.64 157.76 130.67 155.77 140.47 146.4 142.44 148.39"/><polygon class="cls-3" points="150.59 153.17 148.85 154.83 142.44 148.39 143.93 146.95 144.19 146.68 150.62 153.12 150.59 153.17"/><polygon class="cls-1" points="140.47 146.4 130.67 155.77 124.91 150 134.7 140.6 140.47 146.4"/><polygon class="cls-3" points="142.44 148.39 140.47 146.4 142 144.93 142.22 144.71 144.19 146.68 143.93 146.95 142.44 148.39"/><polygon class="cls-2" points="124.91 150 122.94 148.01 132.73 138.63 134.7 140.6 124.91 150"/><polygon class="cls-3" points="142 144.93 140.47 146.4 134.7 140.6 136.35 139.04 136.46 138.94 142.22 144.71 142 144.93"/><polygon class="cls-1" points="122.94 148.01 117.64 142.72 127.46 133.32 132.73 138.63 122.94 148.01"/><polygon class="cls-3" points="136.35 139.04 134.7 140.6 132.73 138.63 134.41 137.02 134.49 136.95 136.46 138.94 136.35 139.04"/><polygon class="cls-2" points="127.46 133.32 117.64 142.72 115.67 140.75 125.49 131.35 127.46 133.32"/><polygon class="cls-3" points="132.73 138.63 127.46 133.32 128.84 132 129.19 131.66 134.49 136.95 134.41 137.02 132.73 138.63"/><polygon class="cls-1" points="115.67 140.75 109.96 135.01 119.77 125.61 125.49 131.35 115.67 140.75"/><polygon class="cls-3" points="128.84 132 127.46 133.32 125.49 131.35 126.91 129.99 127.22 129.67 129.19 131.66 128.84 132"/><polygon class="cls-2" points="109.96 135.01 107.99 133.04 117.82 123.62 119.77 125.61 109.96 135.01"/><polygon class="cls-3" points="125.49 131.35 119.77 125.61 121.31 124.15 121.51 123.95 127.22 129.67 126.91 129.99 125.49 131.35"/><polygon class="cls-1" points="107.99 133.04 102.35 127.4 112.2 117.97 117.82 123.62 107.99 133.04"/><polygon class="cls-3" points="121.31 124.15 119.77 125.61 117.82 123.62 119.37 122.13 119.54 121.98 121.51 123.95 121.31 124.15"/><polygon class="cls-2" points="112.2 117.97 102.35 127.4 100.38 125.43 110.24 116 112.2 117.97"/><polygon class="cls-3" points="117.82 123.62 112.2 117.97 113.87 116.38 113.9 116.34 119.54 121.98 119.37 122.13 117.82 123.62"/><polygon class="cls-3" points="112.2 117.97 110.24 116 111.93 114.37 113.9 116.34 113.87 116.38 112.2 117.97"/><polygon class="cls-1" points="15.23 9.51 24.8 0 31.45 6.65 21.68 15.99 15.23 9.51"/><polygon class="cls-2" points="21.68 15.99 31.45 6.65 33.42 8.63 23.64 17.99 21.68 15.99"/><polygon class="cls-3" points="13.46 11.26 15.23 9.51 21.68 15.99 19.97 17.63 19.89 17.71 13.46 11.26"/><polygon class="cls-4" points="11.23 13.48 13.46 11.26 19.89 17.71 21.86 19.68 28.29 26.12 30.26 28.11 36.03 33.88 37.99 35.85 43.29 41.14 45.26 43.13 50.98 48.87 52.97 50.84 58.56 56.47 60.53 58.45 60.55 58.45 81.56 79.51 79.33 81.71 11.23 13.48"/><polygon class="cls-1" points="23.64 17.99 33.42 8.63 39.82 15.06 30.07 24.43 23.64 17.99"/><polygon class="cls-3" points="19.97 17.63 21.68 15.99 23.64 17.99 21.9 19.65 21.86 19.68 19.89 17.71 19.97 17.63"/><polygon class="cls-2" points="39.82 15.06 41.82 17.05 32.03 26.4 30.07 24.43 39.82 15.06"/><polygon class="cls-3" points="23.64 17.99 30.07 24.43 28.55 25.87 28.29 26.12 21.86 19.68 21.9 19.65 23.64 17.99"/><polygon class="cls-1" points="32.03 26.4 41.82 17.05 47.58 22.82 37.78 32.2 32.03 26.4"/><polygon class="cls-3" points="28.55 25.87 30.07 24.43 32.03 26.4 30.49 27.89 30.26 28.11 28.29 26.12 28.55 25.87"/><polygon class="cls-2" points="37.78 32.2 47.58 22.82 49.55 24.79 39.75 34.19 37.78 32.2"/><polygon class="cls-3" points="32.03 26.4 37.78 32.2 36.12 33.79 36.03 33.88 30.26 28.11 30.49 27.89 32.03 26.4"/><polygon class="cls-1" points="49.55 24.79 54.82 30.09 45.02 39.48 39.75 34.19 49.55 24.79"/><polygon class="cls-3" points="36.12 33.79 37.78 32.2 39.75 34.19 38.05 35.8 37.99 35.85 36.03 33.88 36.12 33.79"/><polygon class="cls-2" points="54.82 30.09 56.81 32.07 47 41.47 45.02 39.48 54.82 30.09"/><polygon class="cls-3" points="38.05 35.8 39.75 34.19 45.02 39.48 43.64 40.8 43.29 41.14 37.99 35.85 38.05 35.8"/><polygon class="cls-1" points="56.81 32.07 62.53 37.81 52.71 47.21 47 41.47 56.81 32.07"/><polygon class="cls-3" points="43.64 40.8 45.02 39.48 47 41.47 45.58 42.83 45.26 43.13 43.29 41.14 43.64 40.8"/><polygon class="cls-2" points="52.71 47.21 62.53 37.81 64.5 39.8 54.68 49.2 52.71 47.21"/><polygon class="cls-3" points="47 41.47 52.71 47.21 51.18 48.67 50.98 48.87 45.26 43.13 45.58 42.83 47 41.47"/><polygon class="cls-1" points="54.68 49.2 64.5 39.8 70.09 45.41 60.26 54.83 54.68 49.2"/><polygon class="cls-3" points="51.18 48.67 52.71 47.21 54.68 49.2 53.12 50.69 52.97 50.84 50.98 48.87 51.18 48.67"/><polygon class="cls-2" points="70.09 45.41 72.08 47.39 62.25 56.82 60.26 54.83 70.09 45.41"/><polygon class="cls-3" points="53.12 50.69 54.68 49.2 60.26 54.83 58.6 56.42 58.56 56.47 52.97 50.84 53.12 50.69"/><polygon class="cls-3" points="60.26 54.83 62.25 56.82 60.55 58.45 60.53 58.45 58.56 56.47 58.6 56.42 60.26 54.83"/><polygon class="cls-1" points="163.25 15.57 172.77 25.16 166.12 31.79 156.77 22.03 163.25 15.57"/><polygon class="cls-2" points="156.77 22.03 166.12 31.79 164.13 33.78 154.78 24 156.77 22.03"/><polygon class="cls-3" points="163.25 15.57 156.77 22.03 155.16 20.33 155.08 20.25 161.51 13.83 163.25 15.57"/><polygon class="cls-4" points="114.34 60.91 93.28 81.92 91.06 79.69 159.29 11.6 161.51 13.83 155.08 20.25 153.09 22.23 146.65 28.65 144.66 30.63 138.88 36.39 136.92 38.36 131.63 43.65 129.64 45.62 123.9 51.36 121.93 53.33 116.32 58.92 114.34 60.91"/><polygon class="cls-1" points="154.78 24 164.13 33.78 157.71 40.19 148.34 30.41 154.78 24"/><polygon class="cls-3" points="155.16 20.33 156.77 22.03 154.78 24 153.12 22.26 153.09 22.23 155.08 20.25 155.16 20.33"/><polygon class="cls-2" points="157.71 40.19 155.72 42.18 146.35 32.38 148.34 30.41 157.71 40.19"/><polygon class="cls-3" points="153.12 22.26 154.78 24 148.34 30.41 146.9 28.91 146.65 28.65 153.09 22.23 153.12 22.26"/><polygon class="cls-1" points="146.35 32.38 155.72 42.18 149.95 47.94 140.57 38.14 146.35 32.38"/><polygon class="cls-3" points="148.34 30.41 146.35 32.38 144.88 30.85 144.66 30.63 146.65 28.65 146.9 28.91 148.34 30.41"/><polygon class="cls-2" points="140.57 38.14 149.95 47.94 147.98 49.91 138.58 40.11 140.57 38.14"/><polygon class="cls-3" points="146.35 32.38 140.57 38.14 138.98 36.48 138.88 36.39 144.66 30.63 144.88 30.85 146.35 32.38"/><polygon class="cls-1" points="147.98 49.91 142.68 55.18 133.29 45.39 138.58 40.11 147.98 49.91"/><polygon class="cls-3" points="138.98 36.48 140.57 38.14 138.58 40.11 136.97 38.41 136.92 38.36 138.88 36.39 138.98 36.48"/><polygon class="cls-2" points="142.68 55.18 140.69 57.16 131.32 47.36 133.29 45.39 142.68 55.18"/><polygon class="cls-3" points="136.97 38.41 138.58 40.11 133.29 45.39 131.97 44 131.63 43.65 136.92 38.36 136.97 38.41"/><polygon class="cls-1" points="131.32 47.36 140.69 57.16 134.96 62.89 125.56 53.07 131.32 47.36"/><polygon class="cls-3" points="131.97 44 133.29 45.39 131.32 47.36 129.96 45.94 129.64 45.62 131.63 43.65 131.97 44"/><polygon class="cls-2" points="125.56 53.07 134.96 62.89 132.97 64.86 123.57 55.05 125.56 53.07"/><polygon class="cls-3" points="131.32 47.36 125.56 53.07 124.1 51.54 123.9 51.36 129.64 45.62 129.96 45.94 131.32 47.36"/><polygon class="cls-1" points="123.57 55.05 132.97 64.86 127.36 70.45 117.96 60.64 123.57 55.05"/><polygon class="cls-3" points="124.1 51.54 125.56 53.07 123.57 55.05 122.08 53.48 121.93 53.33 123.9 51.36 124.1 51.54"/><polygon class="cls-2" points="127.36 70.45 125.38 72.45 115.97 62.61 117.96 60.64 127.36 70.45"/><polygon class="cls-3" points="122.08 53.48 123.57 55.05 117.96 60.64 116.35 58.96 116.32 58.92 121.93 53.33 122.08 53.48"/><polygon class="cls-3" points="117.96 60.64 115.97 62.61 114.34 60.91 116.32 58.92 116.35 58.96 117.96 60.64"/></g></g></svg>